<?xml version="1.0" encoding="UTF-8" standalone="no"?>
<!-- Created with Inkscape (http://www.inkscape.org/) -->

<svg
   width="48"
   height="48"
   viewBox="0 0 12.7 12.7"
   version="1.1"
   id="svg69118"
   inkscape:version="1.2.1 (9c6d41e410, 2022-07-14)"
   sodipodi:docname="dialog-error.svg"
   xmlns:inkscape="http://www.inkscape.org/namespaces/inkscape"
   xmlns:sodipodi="http://sodipodi.sourceforge.net/DTD/sodipodi-0.dtd"
   xmlns:xlink="http://www.w3.org/1999/xlink"
   xmlns="http://www.w3.org/2000/svg"
   xmlns:svg="http://www.w3.org/2000/svg">
  <sodipodi:namedview
     id="namedview69120"
     pagecolor="#ffffff"
     bordercolor="#666666"
     borderopacity="1.0"
     inkscape:pageshadow="2"
     inkscape:pageopacity="0.0"
     inkscape:pagecheckerboard="0"
     inkscape:document-units="px"
     showgrid="false"
     units="px"
     inkscape:zoom="16.5"
     inkscape:cx="18.272727"
     inkscape:cy="24"
     inkscape:window-width="1920"
     inkscape:window-height="1007"
     inkscape:window-x="0"
     inkscape:window-y="0"
     inkscape:window-maximized="1"
     inkscape:current-layer="svg69118"
     width="64px"
     inkscape:showpageshadow="2"
     inkscape:deskcolor="#d1d1d1" />
  <defs
     id="defs69115">
    <linearGradient
       inkscape:collect="always"
       xlink:href="#linearGradient59376"
       id="linearGradient59378"
       x1="45.787689"
       y1="-43.129013"
       x2="45.870358"
       y2="-13.964334"
       gradientUnits="userSpaceOnUse"
       gradientTransform="matrix(0.39916171,0,0,0.4003449,-11.926692,17.795649)" />
    <linearGradient
       inkscape:collect="always"
       id="linearGradient59376">
      <stop
         style="stop-color:#e96311;stop-opacity:1"
         offset="0"
         id="stop59372" />
      <stop
         style="stop-color:#da3f04;stop-opacity:1"
         offset="1"
         id="stop59374" />
    </linearGradient>
  </defs>
  <circle
     style="fill:url(#linearGradient59378);fill-opacity:1;stroke-width:0.317303;stroke-linecap:round;stroke-linejoin:round"
     id="path55509"
     cx="6.3499999"
     cy="6.3499999"
     r="5.8208332" />
  <path
     id="rect101289"
     style="fill:#ffffff;fill-opacity:1;stroke-width:0.79375;stroke-linecap:round;stroke-linejoin:round"
     d="m 9.3567531,3.3716687 c -0.1036471,-0.1036472 -0.2705302,-0.1036471 -0.3741773,0 L 6.3499999,6.0042446 3.717424,3.3716687 c -0.1036471,-0.1036472 -0.2705302,-0.1036472 -0.3741773,0 -0.1036472,0.1036471 -0.1036472,0.2705302 0,0.3741773 L 5.9758226,6.3784219 3.3432467,9.0109978 c -0.1036471,0.1036471 -0.1036472,0.2705302 0,0.3741773 0.1036471,0.1036471 0.2705302,0.1036471 0.3741773,0 L 6.3499999,6.7525993 8.9825758,9.3851751 c 0.1036471,0.1036471 0.2705302,0.1036471 0.3741773,0 0.1036471,-0.1036471 0.1036471,-0.2705302 0,-0.3741773 L 6.7241773,6.3784219 9.3567531,3.745846 c 0.1036471,-0.1036471 0.1036471,-0.2705302 0,-0.3741773 z"
     sodipodi:nodetypes="ssccsccssscssscss" />
  <path
     id="path622"
     style="opacity:0.2;fill:#4d4d4d;fill-opacity:1;stroke-width:0.529167;stroke-linecap:round;stroke-linejoin:round"
     d="M 6.3500001,0.55758871 A 5.8208332,5.8208332 0 0 0 0.52916667,6.3784221 5.8208332,5.8208332 0 0 0 6.3500001,12.199255 5.8208332,5.8208332 0 0 0 12.170833,6.3784221 5.8208332,5.8208332 0 0 0 6.3500001,0.55758871 Z m 0,0.26458334 A 5.5562501,5.5562501 0 0 1 11.90625,6.3784221 5.5562501,5.5562501 0 0 1 6.3500001,11.934672 5.5562501,5.5562501 0 0 1 0.79375001,6.3784221 5.5562501,5.5562501 0 0 1 6.3500001,0.82217205 Z" />
</svg>
