<?xml version="1.0" encoding="UTF-8" standalone="no"?>
<!-- Created with Inkscape (http://www.inkscape.org/) -->

<svg
   width="32"
   height="32"
   viewBox="0 0 8.4666665 8.466667"
   version="1.1"
   id="svg69118"
   inkscape:version="1.2.1 (9c6d41e410, 2022-07-14)"
   sodipodi:docname="dialog-information.svg"
   xmlns:inkscape="http://www.inkscape.org/namespaces/inkscape"
   xmlns:sodipodi="http://sodipodi.sourceforge.net/DTD/sodipodi-0.dtd"
   xmlns:xlink="http://www.w3.org/1999/xlink"
   xmlns="http://www.w3.org/2000/svg"
   xmlns:svg="http://www.w3.org/2000/svg">
  <sodipodi:namedview
     id="namedview69120"
     pagecolor="#ffffff"
     bordercolor="#666666"
     borderopacity="1.0"
     inkscape:pageshadow="2"
     inkscape:pageopacity="0.0"
     inkscape:pagecheckerboard="0"
     inkscape:document-units="px"
     showgrid="false"
     units="px"
     inkscape:zoom="24.75"
     inkscape:cx="15.979798"
     inkscape:cy="16"
     inkscape:window-width="1920"
     inkscape:window-height="1007"
     inkscape:window-x="0"
     inkscape:window-y="0"
     inkscape:window-maximized="1"
     inkscape:current-layer="svg69118"
     inkscape:showpageshadow="2"
     inkscape:deskcolor="#d1d1d1" />
  <defs
     id="defs69115">
    <linearGradient
       inkscape:collect="always"
       xlink:href="#linearGradient59376"
       id="linearGradient59378"
       x1="45.787689"
       y1="-43.129013"
       x2="45.593357"
       y2="-14.11183"
       gradientUnits="userSpaceOnUse"
       gradientTransform="matrix(0.27215569,0,0,0.27296241,-8.2280467,12.037183)" />
    <linearGradient
       inkscape:collect="always"
       id="linearGradient59376">
      <stop
         style="stop-color:#189ae1;stop-opacity:1;"
         offset="0"
         id="stop59372" />
      <stop
         style="stop-color:#037cd6;stop-opacity:0.99607843"
         offset="1"
         id="stop59374" />
    </linearGradient>
  </defs>
  <ellipse
     style="fill:url(#linearGradient59378);fill-opacity:1;stroke-width:0.216343;stroke-linecap:round;stroke-linejoin:round"
     id="path55509"
     cx="4.2333331"
     cy="4.2333331"
     rx="3.96875"
     ry="3.9687498" />
  <path
     id="path491"
     style="fill:#ffffff;stroke-width:0.198436;stroke-linecap:round;stroke-linejoin:round"
     d="M 4.1010417 1.8520834 A 0.39687499 0.39687499 0 0 0 3.7041667 2.2489584 A 0.39687499 0.39687499 0 0 0 4.1010417 2.6458334 A 0.39687499 0.39687499 0 0 0 4.4979167 2.2489584 A 0.39687499 0.39687499 0 0 0 4.1010417 1.8520834 z M 4.1010417 3.4395834 C 3.8811732 3.4395834 3.7041667 3.6165898 3.7041667 3.8364584 L 3.7041667 6.2177084 C 3.7041667 6.4375769 3.8811732 6.6145834 4.1010417 6.6145834 C 4.3209103 6.6145834 4.4979167 6.4375769 4.4979167 6.2177084 L 4.4979167 3.8364584 C 4.4979167 3.6165898 4.3209103 3.4395834 4.1010417 3.4395834 z " />
  <path
     id="path69248"
     style="opacity:0.2;fill:#4d4d4d;fill-opacity:0.996078;stroke-width:0.453423;stroke-linecap:round;stroke-linejoin:round"
     d="M 4.2333333,0.26458334 A 3.9687499,3.9687499 0 0 0 0.26458334,4.2333333 3.9687499,3.9687499 0 0 0 4.2333333,8.2020832 3.9687499,3.9687499 0 0 0 8.2020832,4.2333333 3.9687499,3.9687499 0 0 0 4.2333333,0.26458334 Z m 0,0.26458335 A 3.7041666,3.7041666 0 0 1 7.9374997,4.2333333 3.7041666,3.7041666 0 0 1 4.2333333,7.9374997 3.7041666,3.7041666 0 0 1 0.52916669,4.2333333 3.7041666,3.7041666 0 0 1 4.2333333,0.52916669 Z" />
</svg>
