<?xml version="1.0" encoding="UTF-8" standalone="no"?>
<!-- Created with Inkscape (http://www.inkscape.org/) -->

<svg
   width="32"
   height="32"
   viewBox="0 0 8.4666665 8.466667"
   version="1.1"
   id="svg69118"
   inkscape:version="1.1.1 (3bf5ae0d25, 2021-09-20, custom)"
   sodipodi:docname="dialog-positive.svg"
   xmlns:inkscape="http://www.inkscape.org/namespaces/inkscape"
   xmlns:sodipodi="http://sodipodi.sourceforge.net/DTD/sodipodi-0.dtd"
   xmlns:xlink="http://www.w3.org/1999/xlink"
   xmlns="http://www.w3.org/2000/svg"
   xmlns:svg="http://www.w3.org/2000/svg">
  <sodipodi:namedview
     id="namedview69120"
     pagecolor="#ffffff"
     bordercolor="#666666"
     borderopacity="1.0"
     inkscape:pageshadow="2"
     inkscape:pageopacity="0.0"
     inkscape:pagecheckerboard="0"
     inkscape:document-units="px"
     showgrid="false"
     units="px"
     inkscape:zoom="12.078125"
     inkscape:cx="24.962484"
     inkscape:cy="21.153946"
     inkscape:window-width="1920"
     inkscape:window-height="1009"
     inkscape:window-x="0"
     inkscape:window-y="0"
     inkscape:window-maximized="1"
     inkscape:current-layer="svg69118" />
  <defs
     id="defs69115">
    <linearGradient
       inkscape:collect="always"
       xlink:href="#linearGradient6911"
       id="linearGradient59378"
       x1="35.875587"
       y1="-37.89032"
       x2="55.549019"
       y2="-19.004301"
       gradientUnits="userSpaceOnUse"
       gradientTransform="matrix(0.27215569,0,0,0.27296241,-8.2280467,12.037183)" />
    <linearGradient
       inkscape:collect="always"
       id="linearGradient6911">
      <stop
         style="stop-color:#50b10e;stop-opacity:1;"
         offset="0"
         id="stop6907" />
      <stop
         style="stop-color:#18840f;stop-opacity:1"
         offset="1"
         id="stop6909" />
    </linearGradient>
  </defs>
  <ellipse
     style="fill:url(#linearGradient59378);fill-opacity:1.0;stroke-width:0.216343;stroke-linecap:round;stroke-linejoin:round"
     id="path55509"
     cx="4.2333331"
     cy="4.2333331"
     rx="3.96875"
     ry="3.9687498" />
  <path
     id="path69248"
     style="opacity:0.2;fill:#4d4d4d;fill-opacity:0.996078;stroke-width:0.453423;stroke-linecap:round;stroke-linejoin:round"
     d="M 4.2333333,0.26458334 A 3.9687499,3.9687499 0 0 0 0.26458334,4.2333333 3.9687499,3.9687499 0 0 0 4.2333333,8.2020832 3.9687499,3.9687499 0 0 0 8.2020832,4.2333333 3.9687499,3.9687499 0 0 0 4.2333333,0.26458334 Z m 0,0.26458335 A 3.7041666,3.7041666 0 0 1 7.9374997,4.2333333 3.7041666,3.7041666 0 0 1 4.2333333,7.9374997 3.7041666,3.7041666 0 0 1 0.52916669,4.2333333 3.7041666,3.7041666 0 0 1 4.2333333,0.52916669 Z" />
  <path
     id="rect1469"
     style="fill:#ffffff;stroke-width:1.05833;stroke-linecap:round;stroke-linejoin:round"
     d="m 4.1422621,5.7268538 c -0.1041173,0.094133 -0.263903,0.090542 -0.3643115,-0.00987 -0.00324,-0.00324 -0.00646,-0.00614 -0.0095,-0.0095 L 1.9070646,3.8460979 c -0.1036471,-0.1036474 -0.1036472,-0.2705303 -2e-7,-0.3741775 0.1036472,-0.1036471 0.2705305,-0.1036473 0.3741775,0 L 3.9650394,5.1557212 6.3971922,2.7235687 c 0.103647,-0.103647 0.2705302,-0.1036472 0.3741773,0 0.103647,0.103647 0.103647,0.2705301 0,0.3741774 l -2.6097407,2.609741 c -0.00304,0.00336 -0.00626,0.00626 -0.0095,0.0095 -0.00324,0.00324 -0.00651,0.00683 -0.00987,0.00987 z" />
</svg>
