<?xml version="1.0" encoding="UTF-8" standalone="no"?>
<!-- Created with Inkscape (http://www.inkscape.org/) -->

<svg
   width="32"
   height="32"
   viewBox="0 0 8.4666665 8.466667"
   version="1.1"
   id="svg69118"
   inkscape:version="1.1.1 (3bf5ae0d25, 2021-09-20, custom)"
   sodipodi:docname="dialog-question.svg"
   xmlns:inkscape="http://www.inkscape.org/namespaces/inkscape"
   xmlns:sodipodi="http://sodipodi.sourceforge.net/DTD/sodipodi-0.dtd"
   xmlns:xlink="http://www.w3.org/1999/xlink"
   xmlns="http://www.w3.org/2000/svg"
   xmlns:svg="http://www.w3.org/2000/svg">
  <sodipodi:namedview
     id="namedview69120"
     pagecolor="#ffffff"
     bordercolor="#666666"
     borderopacity="1.0"
     inkscape:pageshadow="2"
     inkscape:pageopacity="0.0"
     inkscape:pagecheckerboard="0"
     inkscape:document-units="px"
     showgrid="false"
     units="px"
     inkscape:zoom="12.078125"
     inkscape:cx="17.221216"
     inkscape:cy="11.467012"
     inkscape:window-width="1920"
     inkscape:window-height="996"
     inkscape:window-x="0"
     inkscape:window-y="0"
     inkscape:window-maximized="1"
     inkscape:current-layer="svg69118" />
  <defs
     id="defs69115">
    <linearGradient
       inkscape:collect="always"
       xlink:href="#linearGradient59376"
       id="linearGradient59378"
       x1="45.787689"
       y1="-43.129013"
       x2="45.593357"
       y2="-14.11183"
       gradientUnits="userSpaceOnUse"
       gradientTransform="matrix(0.27215569,0,0,0.27296241,-8.2280463,12.037183)" />
    <linearGradient
       inkscape:collect="always"
       id="linearGradient59376">
      <stop
         style="stop-color:#189ae1;stop-opacity:1;"
         offset="0"
         id="stop59372" />
      <stop
         style="stop-color:#037cd6;stop-opacity:0.99607843"
         offset="1"
         id="stop59374" />
    </linearGradient>
  </defs>
  <ellipse
     style="fill:url(#linearGradient59378);fill-opacity:1;stroke-width:0.216343;stroke-linecap:round;stroke-linejoin:round"
     id="path55509"
     cx="4.2333331"
     cy="4.2333331"
     rx="3.96875"
     ry="3.9687498" />
  <path
     id="path69248"
     style="opacity:0.2;fill:#4d4d4d;fill-opacity:0.996078;stroke-width:0.453423;stroke-linecap:round;stroke-linejoin:round"
     d="M 4.2333333,0.26458334 A 3.9687499,3.9687499 0 0 0 0.26458334,4.2333333 3.9687499,3.9687499 0 0 0 4.2333333,8.2020832 3.9687499,3.9687499 0 0 0 8.2020832,4.2333333 3.9687499,3.9687499 0 0 0 4.2333333,0.26458334 Z m 0,0.26458335 A 3.7041666,3.7041666 0 0 1 7.9374997,4.2333333 3.7041666,3.7041666 0 0 1 4.2333333,7.9374997 3.7041666,3.7041666 0 0 1 0.52916669,4.2333333 3.7041666,3.7041666 0 0 1 4.2333333,0.52916669 Z" />
  <path
     id="rect79425"
     style="opacity:1;fill:#ffffff;fill-opacity:1;stroke-width:0.43531;stroke-linecap:round;stroke-linejoin:round"
     d="m 4.2310429,1.9843749 c -0.470133,0 -0.8416903,0.2263167 -1.1086793,0.5339346 l 0.301826,0.2785867 C 3.6273335,2.5647318 3.8827393,2.4253526 4.1729449,2.4253526 c 0.4178957,0 0.6268914,0.2786447 0.6268914,0.6268913 0,0.6906892 -1.0331572,1.0620569 -0.8938586,2.0719721 H 4.3761462 C 4.2716724,4.2129707 5.3164827,3.8705894 5.3164827,3.0173852 c 0,-0.6384522 -0.4295752,-1.0330103 -1.0854398,-1.0330103 z m -0.075386,3.6913467 c -0.2147521,0 -0.3774952,0.1623465 -0.3774952,0.406119 0,0.2379684 0.1627431,0.400451 0.3774952,0.400451 0.214752,0 0.3888312,-0.1624826 0.3888312,-0.400451 0,-0.2437725 -0.1740792,-0.406119 -0.3888312,-0.406119 z" />
</svg>
