<?xml version="1.0" encoding="UTF-8" standalone="no"?>
<!-- Created with Inkscape (http://www.inkscape.org/) -->

<svg
   width="32"
   height="32"
   viewBox="0 0 8.4666665 8.466667"
   version="1.1"
   id="svg69118"
   inkscape:version="1.1.1 (3bf5ae0d25, 2021-09-20, custom)"
   sodipodi:docname="dialog-error.svg"
   xmlns:inkscape="http://www.inkscape.org/namespaces/inkscape"
   xmlns:sodipodi="http://sodipodi.sourceforge.net/DTD/sodipodi-0.dtd"
   xmlns:xlink="http://www.w3.org/1999/xlink"
   xmlns="http://www.w3.org/2000/svg"
   xmlns:svg="http://www.w3.org/2000/svg">
  <sodipodi:namedview
     id="namedview69120"
     pagecolor="#ffffff"
     bordercolor="#666666"
     borderopacity="1.0"
     inkscape:pageshadow="2"
     inkscape:pageopacity="0.0"
     inkscape:pagecheckerboard="0"
     inkscape:document-units="px"
     showgrid="false"
     units="px"
     inkscape:zoom="25.766667"
     inkscape:cx="15.98965"
     inkscape:cy="16.009055"
     inkscape:window-width="1920"
     inkscape:window-height="996"
     inkscape:window-x="0"
     inkscape:window-y="0"
     inkscape:window-maximized="1"
     inkscape:current-layer="svg69118" />
  <defs
     id="defs69115">
    <linearGradient
       inkscape:collect="always"
       xlink:href="#linearGradient59376"
       id="linearGradient59378"
       x1="45.787689"
       y1="-43.129013"
       x2="45.870358"
       y2="-13.964334"
       gradientUnits="userSpaceOnUse"
       gradientTransform="matrix(0.27215569,0,0,0.27296241,-8.2280467,12.037183)" />
    <linearGradient
       inkscape:collect="always"
       id="linearGradient59376">
      <stop
         style="stop-color:#e96311;stop-opacity:1"
         offset="0"
         id="stop59372" />
      <stop
         style="stop-color:#da3f04;stop-opacity:1"
         offset="1"
         id="stop59374" />
    </linearGradient>
  </defs>
  <circle
     style="fill:url(#linearGradient59378);fill-opacity:1;stroke-width:0.216343;stroke-linecap:round;stroke-linejoin:round"
     id="path55509"
     cx="4.2333331"
     cy="4.2333331"
     r="3.9687498" />
  <path
     id="path69248"
     style="opacity:0.2;fill:#4d4d4d;fill-opacity:0.996078;stroke-width:0.453423;stroke-linecap:round;stroke-linejoin:round"
     d="M 4.2333333,0.26458334 A 3.9687499,3.9687499 0 0 0 0.26458334,4.2333333 3.9687499,3.9687499 0 0 0 4.2333333,8.2020832 3.9687499,3.9687499 0 0 0 8.2020832,4.2333333 3.9687499,3.9687499 0 0 0 4.2333333,0.26458334 Z m 0,0.26458335 A 3.7041666,3.7041666 0 0 1 7.9374997,4.2333333 3.7041666,3.7041666 0 0 1 4.2333333,7.9374997 3.7041666,3.7041666 0 0 1 0.52916669,4.2333333 3.7041666,3.7041666 0 0 1 4.2333333,0.52916669 Z" />
  <path
     id="rect101289"
     style="opacity:1;fill:#ffffff;fill-opacity:1;stroke-width:0.79375;stroke-linecap:round;stroke-linejoin:round"
     d="m 6.1817533,2.2849135 c -0.1036471,-0.1036472 -0.2705302,-0.1036471 -0.3741773,0 L 4.2333334,3.8591561 2.6590908,2.2849135 c -0.1036471,-0.1036472 -0.2705302,-0.1036472 -0.3741773,0 -0.1036472,0.1036471 -0.1036472,0.2705302 0,0.3741773 L 3.8591561,4.2333334 2.2849135,5.807576 c -0.1036471,0.1036471 -0.1036472,0.2705302 0,0.3741773 0.1036471,0.1036471 0.2705302,0.1036471 0.3741773,0 L 4.2333334,4.6075108 5.807576,6.1817533 c 0.1036471,0.1036471 0.2705302,0.1036471 0.3741773,0 0.1036471,-0.1036471 0.1036471,-0.2705302 0,-0.3741773 L 4.6075108,4.2333334 6.1817533,2.6590908 c 0.1036471,-0.1036471 0.1036471,-0.2705302 0,-0.3741773 z"
     sodipodi:nodetypes="ssccsccssscssscss" />
</svg>
