<?xml version="1.0" encoding="UTF-8" standalone="no"?>
<!-- Created with Inkscape (http://www.inkscape.org/) -->

<svg
   width="32"
   height="32"
   viewBox="0 0 8.4666665 8.4666665"
   version="1.1"
   id="svg5"
   inkscape:version="1.2.1 (9c6d41e410, 2022-07-14)"
   sodipodi:docname="weather-storm.svg"
   xmlns:inkscape="http://www.inkscape.org/namespaces/inkscape"
   xmlns:sodipodi="http://sodipodi.sourceforge.net/DTD/sodipodi-0.dtd"
   xmlns:xlink="http://www.w3.org/1999/xlink"
   xmlns="http://www.w3.org/2000/svg"
   xmlns:svg="http://www.w3.org/2000/svg">
  <sodipodi:namedview
     id="namedview7"
     pagecolor="#ffffff"
     bordercolor="#666666"
     borderopacity="1.0"
     inkscape:pageshadow="2"
     inkscape:pageopacity="0.0"
     inkscape:pagecheckerboard="0"
     inkscape:document-units="px"
     showgrid="false"
     units="px"
     height="48px"
     inkscape:zoom="24.75"
     inkscape:cx="15.979798"
     inkscape:cy="16"
     inkscape:window-width="1920"
     inkscape:window-height="1007"
     inkscape:window-x="0"
     inkscape:window-y="0"
     inkscape:window-maximized="1"
     inkscape:current-layer="svg5"
     inkscape:lockguides="true"
     inkscape:showpageshadow="2"
     inkscape:deskcolor="#d1d1d1" />
  <defs
     id="defs2">
    <linearGradient
       inkscape:collect="always"
       xlink:href="#linearGradient1964"
       id="linearGradient1368"
       x1="60"
       y1="58.999996"
       x2="20.857794"
       y2="39.388199"
       gradientUnits="userSpaceOnUse"
       gradientTransform="matrix(0.13229167,0,0,0.13229167,-0.79374997,-1.7197916)" />
    <linearGradient
       inkscape:collect="always"
       id="linearGradient1468">
      <stop
         style="stop-color:#d6eeff;stop-opacity:1"
         offset="0"
         id="stop1464" />
      <stop
         style="stop-color:#ebf6ff;stop-opacity:1"
         offset="0.46016201"
         id="stop4677" />
      <stop
         style="stop-color:#e4f1f5;stop-opacity:1"
         offset="0.59705883"
         id="stop4225" />
      <stop
         style="stop-color:#d9e8f1;stop-opacity:1;"
         offset="0.73483342"
         id="stop4611" />
      <stop
         style="stop-color:#bdd8f0;stop-opacity:1"
         offset="1"
         id="stop1466" />
    </linearGradient>
    <linearGradient
       inkscape:collect="always"
       id="linearGradient1964">
      <stop
         style="stop-color:#ebf6ff;stop-opacity:1"
         offset="0.46016201"
         id="stop1956" />
      <stop
         style="stop-color:#bdd8f0;stop-opacity:1"
         offset="1"
         id="stop1962" />
    </linearGradient>
    <linearGradient
       inkscape:collect="always"
       xlink:href="#linearGradient1468"
       id="linearGradient7441"
       x1="1.0583333"
       y1="1.5875"
       x2="7.9375"
       y2="6.3499999"
       gradientUnits="userSpaceOnUse"
       gradientTransform="translate(-0.26458332)" />
    <linearGradient
       inkscape:collect="always"
       xlink:href="#linearGradient6166"
       id="linearGradient6168"
       x1="11.1125"
       y1="11.524107"
       x2="11.1125"
       y2="8.4666662"
       gradientUnits="userSpaceOnUse"
       gradientTransform="scale(0.49999998)" />
    <linearGradient
       inkscape:collect="always"
       id="linearGradient6166">
      <stop
         style="stop-color:#ffd934;stop-opacity:1;"
         offset="0"
         id="stop6162" />
      <stop
         style="stop-color:#ffa934;stop-opacity:1;"
         offset="1"
         id="stop6164" />
    </linearGradient>
  </defs>
  <path
     d="M 4.2333333,1.8520834 C 3.2031242,1.8527878 2.2901964,2.5159012 1.9709391,3.4953939 1.2773028,3.6809791 0.79459549,4.3090495 0.79374999,5.0270833 c 0,0.876752 0.71074801,1.5875 1.58750001,1.5875 h 3.8364582 c 0.9498147,0 1.7197917,-0.769977 1.7197917,-1.7197917 C 7.9372591,4.0042338 7.2572059,3.2611753 6.3701537,3.1822347 5.9695542,2.3678809 5.1408861,1.8520425 4.2333333,1.8520834 Z"
     style="opacity:0.2;fill:#000000;fill-opacity:1;stroke-width:0.635;stroke-linecap:round;stroke-linejoin:round"
     id="path9462" />
  <path
     id="path5944"
     style="opacity:1;fill:url(#linearGradient7441);fill-opacity:1;stroke-width:0.635;stroke-linecap:round;stroke-linejoin:round"
     d="M 4.2333333,1.5875 C 3.2031242,1.5882044 2.2901964,2.2513178 1.9709391,3.2308105 1.2773028,3.4163957 0.79459548,4.0444661 0.79374998,4.7624999 c 0,0.876752 0.71074802,1.5875 1.58750002,1.5875 h 3.8364582 c 0.9498147,0 1.7197917,-0.769977 1.7197917,-1.7197917 C 7.9372591,3.7396504 7.2572059,2.9965919 6.3701537,2.9176513 5.9695542,2.1032975 5.1408861,1.5874591 4.2333333,1.5875 Z"
     sodipodi:nodetypes="cccccccc" />
  <path
     id="path852"
     style="fill:url(#linearGradient1368);fill-opacity:1;stroke-width:0.123472"
     d="m 4.2333335,2.38125 c -0.819615,2.95e-4 -1.5415665,0.5392625 -1.7748273,1.3249835 -0.6351784,0.02939 -1.1351654,0.5527 -1.1355896,1.188558 0,0.657564 0.5330609,1.190625 1.190625,1.190625 h 3.3072915 c 0.732896,0 1.322917,-0.5900205 1.322917,-1.3229165 0,-0.703527 -0.543738,-1.2753716 -1.2355835,-1.3200746 C 5.6021726,2.7944955 4.9498846,2.381205 4.2333335,2.38125 Z"
     sodipodi:nodetypes="cccccscc" />
  <path
     d="m 3.9687499,4.4979169 h 1.190625 l -0.396875,1.0583336 h 0.79375 l -1.5875,2.1166656 0.5291667,-1.587499 H 3.4395833 Z"
     style="opacity:0.2;fill:#000000;fill-opacity:1;stroke-width:0.244956;stroke-linecap:round;stroke-linejoin:round"
     id="path7630"
     sodipodi:nodetypes="cccccccc" />
  <path
     id="rect380"
     style="fill:url(#linearGradient6168);fill-opacity:1;stroke-width:0.244956;stroke-linecap:round;stroke-linejoin:round"
     d="m 3.9687499,4.2333333 h 1.190625 l -0.396875,1.0583334 h 0.79375 l -1.5875,2.1166664 0.5291667,-1.5875 H 3.4395833 Z"
     sodipodi:nodetypes="cccccccc" />
  <path
     id="path8322"
     style="fill:#ff9e16;fill-opacity:1;stroke-width:0.244956;stroke-linecap:round;stroke-linejoin:round"
     d="m 3.9687499,4.2333333 -0.5291666,1.5875 h 0.2645833 l 0.5291666,-1.5875 z m 0.5291667,1.5875 -0.5291667,1.5875 0.4764567,-0.6351034 0.3172933,-0.9523966 z" />
</svg>
