<?xml version="1.0" encoding="UTF-8" standalone="no"?>
<!-- Created with Inkscape (http://www.inkscape.org/) -->

<svg
   width="22"
   height="22"
   viewBox="0 0 5.8208333 5.8208336"
   version="1.1"
   id="svg5"
   inkscape:version="1.2.1 (9c6d41e410, 2022-07-14)"
   sodipodi:docname="cpu.svg"
   xmlns:inkscape="http://www.inkscape.org/namespaces/inkscape"
   xmlns:sodipodi="http://sodipodi.sourceforge.net/DTD/sodipodi-0.dtd"
   xmlns:xlink="http://www.w3.org/1999/xlink"
   xmlns="http://www.w3.org/2000/svg"
   xmlns:svg="http://www.w3.org/2000/svg">
  <sodipodi:namedview
     id="namedview7"
     pagecolor="#ffffff"
     bordercolor="#666666"
     borderopacity="1.0"
     inkscape:pageshadow="2"
     inkscape:pageopacity="0.0"
     inkscape:pagecheckerboard="0"
     inkscape:document-units="px"
     showgrid="false"
     units="px"
     height="64px"
     inkscape:zoom="36"
     inkscape:cx="10.986111"
     inkscape:cy="11"
     inkscape:window-width="1920"
     inkscape:window-height="1007"
     inkscape:window-x="0"
     inkscape:window-y="0"
     inkscape:window-maximized="1"
     inkscape:current-layer="svg5"
     showguides="true"
     inkscape:showpageshadow="2"
     inkscape:deskcolor="#d1d1d1" />
  <defs
     id="defs2">
    <linearGradient
       inkscape:collect="always"
       id="linearGradient2260">
      <stop
         style="stop-color:#afafaf;stop-opacity:1;"
         offset="0"
         id="stop2256" />
      <stop
         style="stop-color:#e6e6e6;stop-opacity:1;"
         offset="1"
         id="stop2258" />
    </linearGradient>
    <linearGradient
       inkscape:collect="always"
       xlink:href="#linearGradient6911"
       id="linearGradient1300"
       x1="1.3229166"
       y1="1.3229166"
       x2="6.6145835"
       y2="6.6145835"
       gradientUnits="userSpaceOnUse"
       gradientTransform="translate(-1.0583333,-1.0583333)" />
    <linearGradient
       inkscape:collect="always"
       id="linearGradient6911">
      <stop
         style="stop-color:#50b10e;stop-opacity:1;"
         offset="0"
         id="stop6907" />
      <stop
         style="stop-color:#18840f;stop-opacity:1"
         offset="1"
         id="stop6909" />
    </linearGradient>
    <linearGradient
       inkscape:collect="always"
       xlink:href="#linearGradient2260"
       id="linearGradient2262"
       x1="2.9104166"
       y1="5.0270834"
       x2="2.9104168"
       y2="0.79375005"
       gradientUnits="userSpaceOnUse" />
  </defs>
  <rect
     style="fill:url(#linearGradient1300);fill-opacity:1;stroke-width:0.529167;stroke-linecap:round;stroke-linejoin:round"
     id="rect1104"
     width="5.291667"
     height="5.291667"
     x="0.26458335"
     y="0.26458335"
     ry="0.5291667" />
  <rect
     style="fill:url(#linearGradient2262);fill-opacity:1;stroke-width:0.156038;stroke-linecap:round;stroke-linejoin:round"
     id="rect1776"
     width="4.2333336"
     height="4.2333336"
     x="0.79375005"
     y="0.79375005"
     ry="0.5291667" />
  <path
     id="rect2095"
     style="opacity:1;fill:#666666;stroke-width:0.611029;stroke-linecap:round;stroke-linejoin:round"
     d="M 1.5875 1.5875 L 1.5875 1.8520834 L 3.7041667 1.8520834 L 3.7041667 1.5875 L 1.5875 1.5875 z M 1.5875 2.1166667 L 1.5875 2.38125 L 2.6458334 2.38125 L 2.6458334 2.1166667 L 1.5875 2.1166667 z " />
  <path
     id="rect2038"
     style="opacity:0.2;fill:#000000;stroke-width:0.529167;stroke-linecap:round;stroke-linejoin:round"
     d="M 1.3229167 0.79375002 C 1.0297586 0.79375002 0.79375002 1.0297586 0.79375002 1.3229167 L 0.79375002 4.4979168 C 0.79375002 4.7910748 1.0297586 5.0270834 1.3229167 5.0270834 L 4.4979168 5.0270834 C 4.7910748 5.0270834 5.0270834 4.7910748 5.0270834 4.4979168 L 5.0270834 1.3229167 C 5.0270834 1.0297586 4.7910748 0.79375002 4.4979168 0.79375002 L 1.3229167 0.79375002 z M 1.3229167 1.0583334 L 4.4979168 1.0583334 C 4.6444958 1.0583334 4.7625001 1.1763377 4.7625001 1.3229167 L 4.7625001 4.4979168 C 4.7625001 4.6444958 4.6444958 4.7625001 4.4979168 4.7625001 L 1.3229167 4.7625001 C 1.1763377 4.7625001 1.0583334 4.6444958 1.0583334 4.4979168 L 1.0583334 1.3229167 C 1.0583334 1.1763377 1.1763377 1.0583334 1.3229167 1.0583334 z " />
  <path
     id="rect2368"
     style="opacity:1;fill:#edcb33;fill-opacity:1;stroke-width:0.529167;stroke-linecap:round;stroke-linejoin:round"
     d="m 5.2916673,4.7625001 v 0.529168 H 4.7625001 Z"
     sodipodi:nodetypes="cccc" />
</svg>
