<?xml version="1.0" encoding="UTF-8" standalone="no"?>
<!-- Created with Inkscape (http://www.inkscape.org/) -->

<svg
   width="22"
   height="22"
   viewBox="0 0 5.8208333 5.8208336"
   version="1.1"
   id="svg5"
   inkscape:version="1.1.2 (0a00cf5339, 2022-02-04, custom)"
   sodipodi:docname="media-optical.svg"
   xmlns:inkscape="http://www.inkscape.org/namespaces/inkscape"
   xmlns:sodipodi="http://sodipodi.sourceforge.net/DTD/sodipodi-0.dtd"
   xmlns:xlink="http://www.w3.org/1999/xlink"
   xmlns="http://www.w3.org/2000/svg"
   xmlns:svg="http://www.w3.org/2000/svg">
  <sodipodi:namedview
     id="namedview7"
     pagecolor="#ffffff"
     bordercolor="#666666"
     borderopacity="1.0"
     inkscape:pageshadow="2"
     inkscape:pageopacity="0.0"
     inkscape:pagecheckerboard="0"
     inkscape:document-units="px"
     showgrid="false"
     units="px"
     inkscape:zoom="24.875"
     inkscape:cx="5.5879397"
     inkscape:cy="9.3467337"
     inkscape:window-width="1920"
     inkscape:window-height="1004"
     inkscape:window-x="0"
     inkscape:window-y="24"
     inkscape:window-maximized="1"
     inkscape:current-layer="svg5" />
  <defs
     id="defs2">
    <linearGradient
       inkscape:collect="always"
       xlink:href="#linearGradient162116"
       id="linearGradient162118"
       x1="96.408417"
       y1="238.0069"
       x2="127.77626"
       y2="238.0069"
       gradientUnits="userSpaceOnUse"
       gradientTransform="matrix(0.63759544,0,0,0.61519781,-60.469564,-135.42108)" />
    <linearGradient
       inkscape:collect="always"
       id="linearGradient162116">
      <stop
         style="stop-color:#e3edee;stop-opacity:1;"
         offset="0"
         id="stop162112" />
      <stop
         style="stop-color:#c9cdce;stop-opacity:1"
         offset="1"
         id="stop162114" />
    </linearGradient>
    <linearGradient
       inkscape:collect="always"
       xlink:href="#linearGradient219586"
       id="linearGradient219588"
       x1="112.09232"
       y1="238.0069"
       x2="112.17286"
       y2="254.33937"
       gradientUnits="userSpaceOnUse"
       gradientTransform="matrix(0.63759544,0,0,0.61519781,-60.469556,-135.42107)" />
    <linearGradient
       inkscape:collect="always"
       id="linearGradient219586">
      <stop
         style="stop-color:#b9bfbf;stop-opacity:1;"
         offset="0"
         id="stop219582" />
      <stop
         style="stop-color:#aaacab;stop-opacity:1"
         offset="1"
         id="stop219584" />
    </linearGradient>
    <linearGradient
       inkscape:collect="always"
       xlink:href="#linearGradient2496"
       id="linearGradient2498"
       x1="16.424316"
       y1="54.63533"
       x2="32.331596"
       y2="38.452602"
       gradientUnits="userSpaceOnUse"
       gradientTransform="matrix(0.6249999,0,0,0.6249999,0.37499984,-13.999757)" />
    <linearGradient
       inkscape:collect="always"
       id="linearGradient2496">
      <stop
         style="stop-color:#ffffff;stop-opacity:0.5"
         offset="0"
         id="stop2492" />
      <stop
         style="stop-color:#ffffff;stop-opacity:0"
         offset="0.44999999"
         id="stop3080" />
      <stop
         style="stop-color:#ffffff;stop-opacity:1"
         offset="0.5"
         id="stop2756" />
      <stop
         style="stop-color:#ffffff;stop-opacity:0"
         offset="0.55000001"
         id="stop3014" />
      <stop
         style="stop-color:#ffffff;stop-opacity:0.2"
         offset="1"
         id="stop2494" />
    </linearGradient>
    <linearGradient
       inkscape:collect="always"
       xlink:href="#linearGradient11941"
       id="linearGradient11943"
       x1="5.1081543"
       y1="42.191895"
       x2="7.4692383"
       y2="33.279785"
       gradientUnits="userSpaceOnUse"
       gradientTransform="matrix(0.6249999,0,0,0.6249999,0.3749998,-13.999757)" />
    <linearGradient
       inkscape:collect="always"
       id="linearGradient11941">
      <stop
         style="stop-color:#f89af4;stop-opacity:0"
         offset="0"
         id="stop11937" />
      <stop
         style="stop-color:#f89af4;stop-opacity:0"
         offset="0.40000001"
         id="stop12523" />
      <stop
         style="stop-color:#f89af4;stop-opacity:1"
         offset="0.5"
         id="stop12201" />
      <stop
         style="stop-color:#f89af4;stop-opacity:0"
         offset="0.60000002"
         id="stop12781" />
      <stop
         style="stop-color:#f89af4;stop-opacity:0;"
         offset="1"
         id="stop11939" />
    </linearGradient>
    <linearGradient
       inkscape:collect="always"
       xlink:href="#linearGradient16450"
       id="linearGradient16452"
       x1="17.605227"
       y1="29.40974"
       x2="27.150551"
       y2="39.243584"
       gradientUnits="userSpaceOnUse"
       gradientTransform="matrix(0.6249999,0,0,0.6249999,0.3749998,-13.999757)" />
    <linearGradient
       inkscape:collect="always"
       id="linearGradient16450">
      <stop
         style="stop-color:#6fef7e;stop-opacity:0"
         offset="0"
         id="stop16446" />
      <stop
         style="stop-color:#6fef7e;stop-opacity:0"
         offset="0.44792882"
         id="stop17132" />
      <stop
         style="stop-color:#6fef7e;stop-opacity:1"
         offset="0.5"
         id="stop16680" />
      <stop
         style="stop-color:#6fef7e;stop-opacity:0"
         offset="0.55000001"
         id="stop16938" />
      <stop
         style="stop-color:#6fef7e;stop-opacity:0;"
         offset="1"
         id="stop16448" />
    </linearGradient>
  </defs>
  <path
     id="path151229"
     style="fill:url(#linearGradient162118);fill-opacity:1;stroke-width:0.828544;stroke-linecap:round;stroke-linejoin:round"
     d="M 10.871094 1 C 5.4078125 1.0692015 0.99999989 5.5202997 1 11 C 1.0000006 16.522847 5.477153 21 11 21 C 16.522847 21 21 16.522847 21 11 C 21 5.4771526 16.522847 1.0000002 11 1 C 10.956853 1 10.914112 0.99945511 10.871094 1 z M 11 8 A 2.9999999 2.9999999 0 0 1 14 11 A 2.9999999 2.9999999 0 0 1 11 14 A 2.9999999 2.9999999 0 0 1 8 11 A 2.9999999 2.9999999 0 0 1 11 8 z "
     transform="scale(0.26458334)" />
  <path
     id="path151229-3-3"
     style="fill:url(#linearGradient219588);fill-opacity:1;stroke-width:0.828544;stroke-linecap:round;stroke-linejoin:round"
     d="M 13.988281 11.189453 A 2.9999999 2.9999999 0 0 1 11 14 A 2.9999999 2.9999999 0 0 1 8.8789062 13.121094 L 8.3515625 13.648438 L 3.9355469 18.064453 C 5.8085798 19.940306 8.34914 20.99701 11 21 C 16.279136 20.997857 20.649257 16.893859 20.978516 11.625 L 13.988281 11.189453 z "
     transform="scale(0.26458334)" />
  <path
     id="rect2336"
     style="opacity:0.5;fill:url(#linearGradient2498);fill-opacity:1;stroke-width:1.25;stroke-linecap:round;stroke-linejoin:round"
     d="M 8.578125 1.3066406 C 4.7906669 2.2550802 1.8996251 5.3211134 1.1777344 9.1582031 L 7.2578125 10.375 L 7.3164062 10.386719 L 8.0410156 10.507812 A 2.9999999 2.9999999 0 0 1 10.273438 8.0917969 L 10.09375 7.375 L 8.578125 1.3066406 z M 13.945312 11.552734 A 2.9999999 2.9999999 0 0 1 11.726562 13.908203 L 11.90625 14.625 L 13.421875 20.693359 C 17.209334 19.744921 20.100374 16.678886 20.822266 12.841797 L 13.945312 11.552734 z "
     transform="scale(0.26458334)" />
  <path
     id="path151229-7"
     style="opacity:0.5;fill:url(#linearGradient11943);fill-opacity:1;stroke-width:0.828544;stroke-linecap:round;stroke-linejoin:round"
     d="M 2.1660156 6.3242188 C 1.4015441 7.7645914 1.0018863 9.3693293 1 11 C 1.0018857 12.630671 1.4015442 14.235406 2.1660156 15.675781 L 8.3515625 12.402344 A 2.9999999 2.9999999 0 0 1 8 11 A 2.9999999 2.9999999 0 0 1 8.3515625 9.5976562 L 2.1660156 6.3242188 z "
     transform="scale(0.26458334)" />
  <path
     id="path151229-1"
     style="opacity:0.5;fill:url(#linearGradient16452);fill-opacity:1;stroke-width:0.828544;stroke-linecap:round;stroke-linejoin:round"
     d="M 13.982422 1.4550781 L 11.894531 8.1367188 A 2.9999999 2.9999999 0 0 1 13.808594 9.9472656 L 20.363281 7.4902344 C 19.280784 4.6020835 16.926373 2.3750628 13.982422 1.4550781 z "
     transform="scale(0.26458334)" />
</svg>
