<?xml version="1.0" encoding="UTF-8" standalone="no"?>
<svg
   width="48"
   height="48"
   viewBox="0 0 12.69984 12.69984"
   version="1.1"
   id="svg1886"
   inkscape:version="1.2.1 (9c6d41e410, 2022-07-14)"
   sodipodi:docname="accessories-screenshot.svg"
   xmlns:inkscape="http://www.inkscape.org/namespaces/inkscape"
   xmlns:sodipodi="http://sodipodi.sourceforge.net/DTD/sodipodi-0.dtd"
   xmlns:xlink="http://www.w3.org/1999/xlink"
   xmlns="http://www.w3.org/2000/svg"
   xmlns:svg="http://www.w3.org/2000/svg"
   xmlns:rdf="http://www.w3.org/1999/02/22-rdf-syntax-ns#"
   xmlns:cc="http://creativecommons.org/ns#"
   xmlns:dc="http://purl.org/dc/elements/1.1/">
  <defs
     id="defs1880">
    <linearGradient
       inkscape:collect="always"
       id="linearGradient1430">
      <stop
         style="stop-color:#f1f3f4;stop-opacity:1;"
         offset="0"
         id="stop1426" />
      <stop
         style="stop-color:#e1e5e7;stop-opacity:1"
         offset="1"
         id="stop1428" />
    </linearGradient>
    <linearGradient
       inkscape:collect="always"
       xlink:href="#linearGradient1430"
       id="linearGradient5396"
       x1="0.26458001"
       y1="0.26458001"
       x2="4.2332802"
       y2="4.2332802"
       gradientUnits="userSpaceOnUse"
       gradientTransform="matrix(2,0,0,2,0.52916,0.52916)" />
    <linearGradient
       inkscape:collect="always"
       id="linearGradient1587">
      <stop
         style="stop-color:#a0a7ac;stop-opacity:1;"
         offset="0"
         id="stop1583" />
      <stop
         style="stop-color:#81888e;stop-opacity:1"
         offset="1"
         id="stop1585" />
    </linearGradient>
    <linearGradient
       inkscape:collect="always"
       xlink:href="#linearGradient1587"
       id="linearGradient6148"
       x1="5"
       y1="12"
       x2="16"
       y2="12"
       gradientUnits="userSpaceOnUse"
       gradientTransform="matrix(0.52916,0,0,0.52916,0.52915998,1.05832)" />
    <linearGradient
       inkscape:collect="always"
       xlink:href="#linearGradient1587"
       id="linearGradient6150"
       x1="11"
       y1="5"
       x2="11"
       y2="16"
       gradientUnits="userSpaceOnUse"
       gradientTransform="matrix(0.52916,0,0,0.52916,1.05832,0.52915998)" />
    <linearGradient
       inkscape:collect="always"
       xlink:href="#linearGradient1740"
       id="linearGradient1742"
       x1="10.583333"
       y1="12.170834"
       x2="10.583334"
       y2="8.9958334"
       gradientUnits="userSpaceOnUse"
       gradientTransform="matrix(0.66665818,0,0,0.66665818,0.88193398,0.35277394)" />
    <linearGradient
       inkscape:collect="always"
       id="linearGradient1740">
      <stop
         style="stop-color:#000000;stop-opacity:0"
         offset="0"
         id="stop1736" />
      <stop
         style="stop-color:#000000;stop-opacity:1"
         offset="0.5"
         id="stop1744" />
      <stop
         style="stop-color:#000000;stop-opacity:0;"
         offset="1"
         id="stop1738" />
    </linearGradient>
    <linearGradient
       inkscape:collect="always"
       id="linearGradient1452">
      <stop
         style="stop-color:#50baec;stop-opacity:1"
         offset="0"
         id="stop1448" />
      <stop
         style="stop-color:#1ea1e4;stop-opacity:1"
         offset="1"
         id="stop1450" />
    </linearGradient>
    <linearGradient
       inkscape:collect="always"
       xlink:href="#linearGradient1452"
       id="linearGradient7609"
       x1="15"
       y1="10.499983"
       x2="21"
       y2="10.499983"
       gradientUnits="userSpaceOnUse"
       gradientTransform="matrix(0.52916,0,0,0.52916,1.05832,1.05832)" />
    <linearGradient
       inkscape:collect="always"
       xlink:href="#linearGradient1452"
       id="linearGradient7655"
       x1="13"
       y1="15"
       x2="13.012762"
       y2="21.053324"
       gradientUnits="userSpaceOnUse"
       gradientTransform="matrix(0.52916,0,0,0.52916,1.05832,1.05832)" />
  </defs>
  <sodipodi:namedview
     id="base"
     pagecolor="#ffffff"
     bordercolor="#666666"
     borderopacity="1.0"
     inkscape:pageopacity="0.0"
     inkscape:pageshadow="2"
     inkscape:zoom="16.479167"
     inkscape:cx="24"
     inkscape:cy="24"
     inkscape:document-units="px"
     inkscape:current-layer="svg1886"
     inkscape:document-rotation="0"
     showgrid="false"
     units="px"
     inkscape:window-width="1920"
     inkscape:window-height="1006"
     inkscape:window-x="0"
     inkscape:window-y="0"
     inkscape:window-maximized="1"
     inkscape:pagecheckerboard="0"
     showguides="false"
     inkscape:showpageshadow="2"
     inkscape:deskcolor="#d1d1d1" />
  <metadata
     id="metadata1883">
    <rdf:RDF>
      <cc:Work
         rdf:about="">
        <dc:format>image/svg+xml</dc:format>
        <dc:type
           rdf:resource="http://purl.org/dc/dcmitype/StillImage" />
      </cc:Work>
    </rdf:RDF>
  </metadata>
  <rect
     style="fill:url(#linearGradient5396);fill-opacity:1;stroke-width:1.05832;stroke-linejoin:round"
     id="rect859"
     width="7.9373999"
     height="7.9373999"
     x="1.05832"
     y="1.05832"
     ry="1.05832" />
  <path
     id="rect1065"
     style="fill:url(#linearGradient6150);fill-opacity:1;stroke-width:0.864113;stroke-linejoin:round"
     d="M 6.87908,3.17496 V 4.23328 8.99572 H 7.9374 V 4.23328 c 0,-0.584494 -0.473826,-1.0583199 -1.05832,-1.05832 z"
     sodipodi:nodetypes="ccccsc" />
  <rect
     style="opacity:0.4;fill:url(#linearGradient1742);fill-opacity:1;stroke-width:0.176387"
     id="rect1734"
     width="1.05832"
     height="2.1166399"
     x="6.8790798"
     y="6.3499203" />
  <path
     id="rect1169"
     style="fill:url(#linearGradient6148);fill-opacity:1;stroke-width:0.800016;stroke-linejoin:round"
     d="m 3.17496,6.87908 c 10e-8,0.584494 0.473826,1.0583199 1.05832,1.05832 H 8.99572 V 6.87908 H 4.23328 Z"
     sodipodi:nodetypes="cscccc" />
  <path
     id="rect1599"
     style="fill:#b8c2cc;fill-opacity:1;stroke-width:0.216028"
     d="m 6.3499198,6.87908 c 0,0.2931546 -0.2360054,0.52916 -0.52916,0.52916 H 3.70412 c -0.2931546,0 -0.52916,-0.2360054 -0.52916,-0.52916 6e-7,2e-7 3.1749598,0 3.1749598,0 z"
     sodipodi:nodetypes="csscc" />
  <path
     id="rect1816"
     style="fill:#d83b01;fill-opacity:1;stroke-width:1.05832;stroke-linejoin:round"
     d="M 2.6323643,2.11664 C 2.3455911,2.1238569 2.11664,2.3572259 2.11664,2.6458 V 3.17496 H 3.17496 V 2.11664 H 2.6458 c -0.00458,0 -0.00888,-1.146e-4 -0.013436,0 z m 1.3363357,0 V 3.17496 H 5.02702 V 2.11664 Z m 1.85206,0 V 3.17496 H 6.87908 V 2.6458 c 0,-0.2931548 -0.2360054,-0.52916 -0.52916,-0.52916 z M 2.11664,3.9687 V 5.02702 H 3.17496 V 3.9687 Z m 0,1.85206 v 0.52916 c 0,0.2931546 0.2360054,0.52916 0.52916,0.52916 H 3.17496 V 5.82076 Z"
     sodipodi:nodetypes="cscccscccccccccsscccccccssccc" />
  <path
     id="path6714"
     style="fill:url(#linearGradient7655);fill-opacity:1;stroke-width:0.881935;stroke-linejoin:round"
     d="M 6.87908,8.99572 V 9.5517513 C 6.7920131,9.5339297 6.7033719,9.5249271 6.6145,9.52488 c -0.7306175,0 -1.3229,0.592282 -1.3229,1.3229 0,0.730618 0.5922825,1.3229 1.3229,1.3229 0.7306176,0 1.3229,-0.592282 1.3229,-1.3229 1.466e-4,-0.01137 1.466e-4,-0.02274 0,-0.03411 V 8.99572 Z M 6.6145,10.05404 A 0.79374,0.79374 0 0 1 7.40824,10.84778 0.79374,0.79374 0 0 1 6.6145,11.64152 0.79374,0.79374 0 0 1 5.82076,10.84778 0.79374,0.79374 0 0 1 6.6145,10.05404 Z" />
  <path
     id="path7431"
     style="fill:url(#linearGradient7609);fill-opacity:1;stroke-width:0.881935;stroke-linejoin:round"
     d="M 10.813674,5.2916 C 10.098837,5.3097107 9.52488,5.8952985 9.52488,6.6145 9.5249282,6.703372 9.53393,6.7920141 9.551751,6.87908 H 8.99572 V 7.9374 h 1.817954 c 0.01137,1.466e-4 0.02275,1.466e-4 0.03411,0 0.730618,0 1.3229,-0.5922824 1.3229,-1.3229 0,-0.7306174 -0.592282,-1.3228998 -1.3229,-1.3229 -0.01142,0 -0.02276,-2.875e-4 -0.03411,0 z m 0.03411,0.52916 A 0.79374,0.79374 0 0 1 11.64152,6.6145 0.79374,0.79374 0 0 1 10.84778,7.40824 0.79374,0.79374 0 0 1 10.05404,6.6145 0.79374,0.79374 0 0 1 10.84778,5.82076 Z" />
</svg>
