<?xml version="1.0" encoding="UTF-8" standalone="no"?>
<!-- Created with Inkscape (http://www.inkscape.org/) -->

<svg
   width="48"
   height="48"
   viewBox="0 0 12.7 12.7"
   version="1.1"
   id="svg5"
   inkscape:version="1.1.2 (0a00cf5339, 2022-02-04, custom)"
   sodipodi:docname="colors.svg"
   xmlns:inkscape="http://www.inkscape.org/namespaces/inkscape"
   xmlns:sodipodi="http://sodipodi.sourceforge.net/DTD/sodipodi-0.dtd"
   xmlns="http://www.w3.org/2000/svg"
   xmlns:svg="http://www.w3.org/2000/svg">
  <sodipodi:namedview
     id="namedview7"
     pagecolor="#ffffff"
     bordercolor="#666666"
     borderopacity="1.0"
     inkscape:pageshadow="2"
     inkscape:pageopacity="0.0"
     inkscape:pagecheckerboard="0"
     inkscape:document-units="px"
     showgrid="false"
     units="px"
     height="64px"
     inkscape:zoom="16.458333"
     inkscape:cx="23.96962"
     inkscape:cy="24"
     inkscape:window-width="1920"
     inkscape:window-height="1005"
     inkscape:window-x="0"
     inkscape:window-y="0"
     inkscape:window-maximized="1"
     inkscape:current-layer="svg5" />
  <defs
     id="defs2">
    <linearGradient
       id="linearGradient45680"
       x1="-102.06"
       x2="-102.06"
       y1="1.3231"
       y2="19.157"
       gradientTransform="matrix(0.67317031,0,0,0.65186297,75.552612,-0.33329064)"
       gradientUnits="userSpaceOnUse">
      <stop
         stop-color="#ffdc23"
         offset="0"
         id="stop22" />
      <stop
         stop-color="#e6628a"
         offset=".31552"
         id="stop24" />
      <stop
         stop-color="#7b5fc1"
         offset=".55428"
         id="stop26" />
      <stop
         stop-color="#1e9be1"
         offset=".79721"
         id="stop28" />
      <stop
         stop-color="#0082dc"
         offset="1"
         id="stop30" />
    </linearGradient>
    <linearGradient
       id="linearGradient1954"
       x1="-109.09"
       x2="-101.26"
       y1="11.122"
       y2="18.440001"
       gradientTransform="matrix(0.67317031,0,0,0.65186297,75.552612,-0.33329797)"
       gradientUnits="userSpaceOnUse">
      <stop
         stop-color="#64d2eb"
         offset="0"
         id="stop2" />
      <stop
         stop-color="#0082dc"
         offset="1"
         id="stop4" />
    </linearGradient>
    <linearGradient
       id="linearGradient1431"
       x1="-107.04"
       x2="-99.660004"
       y1="6.9531002"
       y2="17.895"
       gradientTransform="matrix(0.67317031,0,0,0.65186297,75.552612,-0.33332731)"
       gradientUnits="userSpaceOnUse">
      <stop
         stop-color="#a578e1"
         offset="0"
         id="stop7" />
      <stop
         stop-color="#5046a0"
         offset="1"
         id="stop9" />
    </linearGradient>
    <linearGradient
       id="linearGradient1439"
       x1="-105"
       x2="-97.016998"
       y1="4.2921"
       y2="13.799"
       gradientTransform="matrix(0.67317031,0,0,0.65186297,75.552612,-0.33309264)"
       gradientUnits="userSpaceOnUse">
      <stop
         stop-color="#eb82aa"
         offset="0"
         id="stop12" />
      <stop
         stop-color="#dc2850"
         offset="1"
         id="stop14" />
    </linearGradient>
    <linearGradient
       id="linearGradient1447"
       x1="-102.1"
       x2="-98.566002"
       y1="1.4752001"
       y2="7.8610001"
       gradientTransform="matrix(0.67317031,0,0,0.65186297,75.545038,-0.33318064)"
       gradientUnits="userSpaceOnUse">
      <stop
         stop-color="#ffdc23"
         offset="0"
         id="stop17" />
      <stop
         stop-color="#f0a019"
         offset="1"
         id="stop19" />
    </linearGradient>
  </defs>
  <path
     d="M 6.8512847,0.52917427 C 6.7168384,0.52814757 6.6043468,0.63149057 6.6043468,0.63149057 6.0221679,1.1226777 5.5325937,1.5894591 5.0835813,2.0427396 v 3.789e-4 C 4.5413281,2.5904211 4.1147474,3.0965684 3.7381343,3.5816761 2.8423813,4.735521 2.4175273,5.6567489 2.1680675,6.3867203 h -3.913e-4 c 3.26e-5,1.204e-4 -2.92e-5,2.581e-4 0,3.79e-4 4.84e-5,1.251e-4 -4.25e-5,2.54e-4 0,3.789e-4 -0.3304017,0.967282 -0.3154219,1.5620976 -0.3154219,1.5620976 -6.8e-6,2.3312302 1.9514509,4.2212792 4.3588057,4.2212072 0.3823688,0 0.7476827,-0.06083 1.0996981,-0.151202 1.1904994,-0.305628 2.1802355,-1.080656 2.7432999,-2.1168726 v -7.33e-4 C 10.37263,9.3156441 10.570244,8.6581487 10.570244,7.9495908 h 0.009 c 0,0 0.10092,-1.0428897 -0.7122474,-2.414318 -0.122345,-0.1534085 -0.336801,-0.445903 -0.495058,-0.6446103 -0.121026,-0.024867 -0.23978,-0.049999 -0.356907,-0.07541 0.116869,0.025354 0.235775,0.050224 0.356514,0.075036 C 8.3608296,4.0064613 7.2602225,3.476913 7.0144736,1.0533547 6.9731392,0.76073537 7.0635658,0.52925507 6.8512796,0.52925507 Z M 5.8255764,3.5650023 c 0.019871,0.015365 0.040255,0.030523 0.06105,0.045854 0.020795,0.015331 0.042051,0.030941 0.06379,0.046233 -0.021738,-0.015292 -0.042995,-0.030522 -0.06379,-0.045854 -0.020796,-0.015331 -0.041179,-0.030868 -0.06105,-0.046233 z m 0.772159,0.4680133 c 0.050257,0.024513 0.1016848,0.048879 0.1549695,0.07314 -0.053376,-0.024302 -0.1046383,-0.048583 -0.1549695,-0.07314 z m 0.35378,0.1599206 c 0.058634,0.024598 0.1191863,0.048871 0.1811954,0.07314 -0.061918,-0.024232 -0.1226473,-0.048579 -0.1811954,-0.07314 z m -3.1929942,0.165604 c 0.00951,0.042801 0.020766,0.085794 0.033264,0.1284673 -0.012532,-0.042794 -0.023742,-0.085545 -0.033264,-0.1284673 z m 4.9935876,0.3975316 c 0.043413,0.010006 0.087166,0.02005 0.1314931,0.029938 -0.044348,-0.0099 -0.088055,-0.019924 -0.1314931,-0.029938 z M 4.9337236,5.8921697 c 0.05656,0.037423 0.1156951,0.07442 0.1768862,0.1110357 -0.0612,-0.036616 -0.1203299,-0.073613 -0.1768862,-0.1110357 z m 0.3674723,0.2197981 c 0.065964,0.035759 0.1342115,0.070894 0.205066,0.1057264 -0.070852,-0.034836 -0.1391038,-0.06997 -0.205066,-0.1057264 z m 0.911808,0.4058625 c 0.086372,0.031752 0.17547,0.062982 0.267287,0.093604 -0.091817,-0.03062 -0.1809151,-0.061851 -0.267287,-0.093604 z M 6.6200005,6.656909 C 6.7145895,6.686942 6.8117376,6.716394 6.9119456,6.745204 6.8117376,6.7163921 6.7145892,6.6869381 6.6200005,6.656909 Z m 0.6014979,0.1728055 c 0.052973,0.013767 0.1064104,0.027114 0.1608463,0.040549 0.054436,0.013436 0.107925,0.027509 0.1604524,0.041685 C 7.4902803,6.8977724 7.4367657,6.8840774 7.3823447,6.8706418 7.327913,6.8572062 7.2744726,6.843481 7.2214984,6.8297145 Z m 1.2894812,0.4316321 c 0.079741,0.037969 0.156014,0.077001 0.2289366,0.1174746 -0.07293,-0.040477 -0.1491911,-0.079509 -0.2289366,-0.1174746 z m 0.875078,0.5854956 c 0.05052,0.048416 0.09791,0.09774 0.142451,0.1481723 -0.04453,-0.050435 -0.09193,-0.099764 -0.142451,-0.1481723 z m 0.323253,0.3816104 c 0.03591,0.053279 0.069,0.1075226 0.0994,0.1625752 -0.03041,-0.055055 -0.06349,-0.1092905 -0.0994,-0.1625752 z M 7.7936803,11.663366 c -0.048345,0.0435 -0.098822,0.08623 -0.1506677,0.127712 0.051849,-0.04149 0.1023212,-0.08421 0.1506677,-0.127712 z m -0.2293303,0.1891 c -0.026596,0.0202 -0.053484,0.04023 -0.080616,0.05988 -0.014159,0.01026 -0.028333,0.01943 -0.042656,0.02843 0.014324,-0.009 0.028498,-0.01855 0.042656,-0.02879 0.027131,-0.01965 0.054018,-0.0393 0.080616,-0.05949 z"
     fill="url(#linearGradient45680)"
     id="path35"
     style="fill:url(#linearGradient45680);stroke-width:0.662431" />
  <path
     d="M 2.1680448,6.3867962 C 1.8373629,7.3545181 1.8521836,7.9497738 1.8521836,7.9497738 c -6.8e-6,2.3312302 1.9516781,4.2211332 4.3590331,4.2210592 0.3823686,0 0.7476219,-0.06088 1.0996223,-0.151244 0.058094,-0.03845 0.1162553,-0.06646 0.1728802,-0.10745 0.2170693,-0.157171 0.4190985,-0.332616 0.571538,-0.520441 0.076222,-0.0939 0.1399216,-0.19083 0.1871477,-0.290367 0.047229,-0.09953 0.077998,-0.201391 0.08766,-0.305189 0.00966,-0.103797 -0.00181,-0.209597 -0.038264,-0.316306 -0.036449,-0.106702 -0.09811,-0.21446 -0.1892377,-0.322701 C 8.0114317,10.048893 7.890973,9.9401754 7.7366022,9.8317344 7.5822383,9.7232954 7.3940225,9.6152884 7.1678502,9.5080224 6.9416779,9.4007483 6.6774277,9.2940978 6.3708512,9.1893613 6.0643201,9.0846184 5.7154097,8.9816492 5.32,8.8807994 4.924545,8.7799505 4.5729157,8.6619547 4.2607427,8.5291242 3.9485468,8.396293 3.6758223,8.2485606 3.4390552,8.0888532 3.2023183,7.9291528 3.0014631,7.7572935 2.8323772,7.5758273 2.663299,7.3943535 2.5259219,7.203339 2.416679,7.0051966 2.3074363,6.8070541 2.2262067,6.6018202 2.1690066,6.3921276 c -4.847e-4,-0.00176 -5.658e-4,-0.00359 -0.00136,-0.00543 z"
     fill="url(#linearGradient1954)"
     id="path37"
     style="fill:url(#linearGradient1954);stroke-width:0.662431" />
  <path
     d="m 2.1675904,6.3867962 c 4.779e-4,0.00176 5.589e-4,0.00359 0.00136,0.00543 0.057223,0.2097001 0.1384298,0.414934 0.2476726,0.6130691 C 2.5258657,7.2034304 2.6632352,7.3944521 2.8323211,7.5759255 3.001407,7.7573989 3.2022622,7.929251 3.4389991,8.0889514 3.675736,8.2486518 3.9484529,8.396392 4.2606866,8.5292225 4.5728747,8.662053 4.9244737,8.7800483 5.319944,8.8808981 5.7154065,8.981747 6.0643321,9.0847162 6.3707951,9.18946 c 0.306531,0.1047439 0.5707812,0.2113935 0.796999,0.3186594 0.2261723,0.107274 0.4143877,0.215281 0.5687514,0.323714 0.1543716,0.10844 0.2748303,0.2171496 0.3659575,0.3253996 0.091128,0.108248 0.1527884,0.215999 0.1892385,0.3227 0.036449,0.106702 0.047936,0.212509 0.038256,0.316307 -0.00966,0.103797 -0.040433,0.205659 -0.08766,0.305189 -0.047229,0.09953 -0.110924,0.196455 -0.1871477,0.290368 -0.1524474,0.187817 -0.3544687,0.363269 -0.571538,0.52044 -0.056619,0.041 -0.1147942,0.06901 -0.1728803,0.10745 1.1905001,-0.305629 2.1801611,-1.080878 2.7432245,-2.1170926 0.0021,-0.01743 0.0096,-0.03586 0.01148,-0.05322 0.02808,-0.261297 0.02481,-0.5157757 -0.016,-0.7599647 C 10.008653,8.8452144 9.9303666,8.6113296 9.8087496,8.3911277 9.6871366,8.1709068 9.5221626,7.9644707 9.3078356,7.7750255 9.0935076,7.5855654 8.8298174,7.4132003 8.5108357,7.2613246 8.1919001,7.109449 7.8178088,6.9780555 7.3824356,6.8705692 6.946979,6.7630827 6.5584005,6.644897 6.212913,6.5178888 5.8674408,6.3908809 5.565022,6.2550214 5.3011807,6.1119825 5.0373243,5.9689436 4.8120684,5.8188646 4.6214824,5.6632927 4.4308736,5.5077283 4.2748211,5.346869 4.149084,5.1822698 4.0233469,5.0176778 3.9278494,4.8491406 3.8586156,4.6790119 3.7893894,4.5088832 3.7464724,4.3371338 3.7253811,4.1649737 c -0.021068,-0.17216 -0.020061,-0.3446941 -0.00136,-0.5153802 0.00273,-0.022866 0.010769,-0.04491 0.013935,-0.06771 C 2.8421997,4.7357287 2.417497,5.6568833 2.1680372,6.3868548 Z"
     fill="url(#linearGradient1431)"
     id="path39"
     style="fill:url(#linearGradient1431);stroke-width:0.662431" />
  <path
     d="m 3.73796,3.5818252 c -0.00333,0.0228 -0.011443,0.044844 -0.013934,0.06771 -0.018645,0.1706933 -0.01972,0.3432274 0.00136,0.5153801 0.021069,0.1721601 0.064016,0.3439094 0.1332346,0.5140381 0.069226,0.1701287 0.1647313,0.338666 0.2904684,0.503258 0.1257336,0.1645915 0.281786,0.325458 0.4723947,0.4810225 0.1906164,0.1555645 0.4158723,0.3056435 0.6796984,0.4486897 0.2638564,0.143039 0.5662752,0.2788911 0.9117323,0.4059065 0.3454722,0.1270079 0.7340888,0.2452012 1.1695225,0.3526802 0.4354569,0.1074864 0.80957,0.2388725 1.1284758,0.3907555 0.3189514,0.1518757 0.5826259,0.3242413 0.7969999,0.5137006 0.214319,0.1894601 0.379301,0.3958892 0.500925,0.6161053 0.121626,0.2202161 0.1999014,0.4541317 0.2407224,0.6982767 0.04082,0.244167 0.04407,0.498646 0.016,0.759965 -0.0019,0.01735 -0.0093,0.0358 -0.01148,0.05322 0.318669,-0.5864046 0.516222,-1.2440462 0.516222,-1.9527511 h 0.0091 c 0,0 0.100753,-1.0431098 -0.7124134,-2.4145381 C 9.7446016,5.3818423 9.5301826,5.0892157 9.3719336,4.8905085 8.9889816,4.8118206 8.6202756,4.7309914 8.2991209,4.6442659 7.9172818,4.5411577 7.5772773,4.4330333 7.2753814,4.3208902 6.9734624,4.2087471 6.7095531,4.0925926 6.4795184,3.9739301 6.2494308,3.8552675 6.0531119,3.7337963 5.8867599,3.6111443 5.7204004,3.4884924 5.5838715,3.3647258 5.473152,3.2406072 5.3624248,3.1164885 5.2775373,2.9921206 5.2143394,2.869058 5.1511262,2.7459953 5.1097465,2.6240694 5.0859819,2.5045782 5.0622173,2.3850944 5.0561589,2.2679719 5.0637017,2.1545893 5.066428,2.1159127 5.0783103,2.0805215 5.0838993,2.0427542 4.5414644,2.5902108 4.1146868,3.0965709 3.737998,3.5818252 Z"
     fill="url(#linearGradient1439)"
     id="path41"
     style="fill:url(#linearGradient1439);stroke-width:0.662431" />
  <path
     d="M 5.08371,2.0426809 C 5.07834,2.0804559 5.066072,2.1158319 5.063512,2.154516 5.055942,2.2678984 5.062152,2.3850209 5.085792,2.5045049 5.109557,2.6239887 5.150952,2.7459147 5.2141494,2.8689772 5.2773624,2.9920398 5.3622347,3.1164079 5.4729618,3.2405265 5.5836813,3.364645 5.7202102,3.4884117 5.8865697,3.6110637 6.0529216,3.7337156 6.2492406,3.8551942 6.4793283,3.9738494 6.7094082,4.092512 6.9733177,4.2086591 7.2751912,4.3208095 7.5770882,4.43296 7.9171076,4.5410769 8.298931,4.6441853 8.6200706,4.7309043 8.9887916,4.8117399 9.3717436,4.8904279 8.3610313,4.0066006 7.2600458,3.4769056 7.0142968,1.0533473 6.9729625,0.76072797 7.0634391,0.52920357 6.8511559,0.52920357 6.7167097,0.52817697 6.6045209,0.63160797 6.6045209,0.63160797 6.0223421,1.122795 5.5326921,1.5894297 5.0836797,2.0427102 Z"
     fill="url(#linearGradient1447)"
     id="path43"
     style="fill:url(#linearGradient1447);stroke-width:0.662431" />
</svg>
