<?xml version="1.0" encoding="UTF-8" standalone="no"?>
<!-- Created with Inkscape (http://www.inkscape.org/) -->

<svg
   width="48"
   height="48"
   viewBox="0 0 12.7 12.7"
   version="1.1"
   id="svg69118"
   inkscape:version="1.2.1 (9c6d41e410, 2022-07-14, custom)"
   sodipodi:docname="firewall.svg"
   xmlns:inkscape="http://www.inkscape.org/namespaces/inkscape"
   xmlns:sodipodi="http://sodipodi.sourceforge.net/DTD/sodipodi-0.dtd"
   xmlns:xlink="http://www.w3.org/1999/xlink"
   xmlns="http://www.w3.org/2000/svg"
   xmlns:svg="http://www.w3.org/2000/svg">
  <sodipodi:namedview
     id="namedview69120"
     pagecolor="#ffffff"
     bordercolor="#666666"
     borderopacity="1.0"
     inkscape:pageshadow="2"
     inkscape:pageopacity="0.0"
     inkscape:pagecheckerboard="0"
     inkscape:document-units="px"
     showgrid="false"
     units="px"
     inkscape:zoom="17.083333"
     inkscape:cx="23.970732"
     inkscape:cy="24"
     inkscape:window-width="1920"
     inkscape:window-height="1029"
     inkscape:window-x="0"
     inkscape:window-y="0"
     inkscape:window-maximized="1"
     inkscape:current-layer="svg69118"
     inkscape:showpageshadow="2"
     inkscape:deskcolor="#d1d1d1" />
  <defs
     id="defs69115">
    <linearGradient
       inkscape:collect="always"
       id="linearGradient1709">
      <stop
         style="stop-color:#0d559f;stop-opacity:1"
         offset="0"
         id="stop1705" />
      <stop
         style="stop-color:#144b8c;stop-opacity:1"
         offset="1"
         id="stop1707" />
    </linearGradient>
    <linearGradient
       inkscape:collect="always"
       id="linearGradient115183">
      <stop
         style="stop-color:#37c6f0;stop-opacity:1"
         offset="0"
         id="stop115179" />
      <stop
         style="stop-color:#29b5e8;stop-opacity:1"
         offset="1"
         id="stop115181" />
    </linearGradient>
    <linearGradient
       inkscape:collect="always"
       xlink:href="#linearGradient115183"
       id="linearGradient8763"
       x1="10"
       y1="1.0351562"
       x2="9.8847656"
       y2="14.952974"
       gradientUnits="userSpaceOnUse"
       gradientTransform="matrix(0.39687498,0,0,0.39363869,6.7812499e-8,0.12168913)" />
    <linearGradient
       inkscape:collect="always"
       xlink:href="#linearGradient129670"
       id="linearGradient9363"
       gradientUnits="userSpaceOnUse"
       gradientTransform="matrix(0.39687498,0,0,0.39363869,2.178125e-7,0.1216887)"
       x1="21"
       y1="1.0351573"
       x2="21"
       y2="29.9375" />
    <linearGradient
       inkscape:collect="always"
       id="linearGradient129670">
      <stop
         style="stop-color:#1096eb;stop-opacity:1"
         offset="0"
         id="stop129666" />
      <stop
         style="stop-color:#056ac2;stop-opacity:1"
         offset="1"
         id="stop129668" />
    </linearGradient>
    <linearGradient
       inkscape:collect="always"
       xlink:href="#linearGradient1709"
       id="linearGradient1711"
       x1="37.769531"
       y1="30.929688"
       x2="38"
       y2="61.000011"
       gradientUnits="userSpaceOnUse"
       gradientTransform="matrix(0.19843749,0,0,0.19615657,8.7812499e-8,-0.05930304)" />
  </defs>
  <path
     id="path5150"
     style="color:#000000;fill:url(#linearGradient8763);fill-opacity:1;stroke-width:0.395254;stroke-linecap:round;stroke-linejoin:round;-inkscape-stroke:none"
     d="M 6.35 0.52916667 C 5.315062 0.6010717 4.6189692 0.7047308 3.6927979 1.3136149 C 2.8100456 1.797459 1.9360298 2.1015182 1.3229167 2.1166667 C 1.0306663 2.1166667 0.79375002 2.3535829 0.79375 2.6458333 L 0.79375 6.0848999 L 0.79375 6.0859334 C 0.79375 7.3410036 1.675907 8.6893414 2.8230835 9.8510783 C 3.8579387 10.899033 5.1220695 11.752526 6.35 11.90625 C 7.5779312 11.752527 8.8420608 10.899033 9.8769165 9.8510783 C 11.024093 8.6893414 11.90625 7.3317017 11.90625 6.0766317 L 11.90625 6.0755981 L 11.90625 2.6458333 C 11.90625 2.3535828 11.669334 2.1166665 11.377083 2.1166667 C 10.76397 2.1015183 9.8899551 1.7974592 9.0072021 1.3136149 C 8.0810313 0.70473103 7.3849384 0.60107194 6.35 0.52916667 z " />
  <path
     id="path5150-06"
     style="color:#000000;fill:url(#linearGradient9363);fill-opacity:1;stroke-width:0.395254;stroke-linecap:round;stroke-linejoin:round;-inkscape-stroke:none"
     d="M 6.35,0.52916667 V 6.0854167 h 5.55625 V 2.6592692 2.6458333 c 0,-0.2922505 -0.236916,-0.5291668 -0.529167,-0.5291666 C 10.763969,2.1015182 9.8899566,1.797459 9.0072021,1.3136149 8.081032,0.70473088 7.384939,0.60107194 6.35,0.52916667 Z m 0,5.55625003 -5.55625,-0.00982 v 0.018604 0.00103 c 0,1.25507 0.882157,2.5941068 2.0293335,3.7558431 C 3.8451428,10.886072 5.1364087,11.737415 6.35,11.90625 Z"
     sodipodi:nodetypes="ccccsccccccsccc" />
  <path
     id="path5150-7"
     style="color:#000000;fill:url(#linearGradient1711);fill-opacity:1;stroke-width:0.395254;stroke-linecap:round;stroke-linejoin:round;-inkscape-stroke:none"
     d="M 6.35,6.0854794 V 11.90625 C 7.802674,11.727123 9.0259814,10.700134 9.8769163,9.8512012 11.024093,8.689463 11.906249,7.3500664 11.906249,6.0949943 v -7.661e-4 -0.018389 z"
     sodipodi:nodetypes="cccsccc" />
</svg>
