<?xml version="1.0" encoding="UTF-8" standalone="no"?>
<!-- Created with Inkscape (http://www.inkscape.org/) -->

<svg
   width="48"
   height="48"
   viewBox="0 0 12.7 12.7"
   version="1.1"
   id="svg5"
   inkscape:version="1.1.2 (0a00cf5339, 2022-02-04, custom)"
   sodipodi:docname="github.svg"
   xmlns:inkscape="http://www.inkscape.org/namespaces/inkscape"
   xmlns:sodipodi="http://sodipodi.sourceforge.net/DTD/sodipodi-0.dtd"
   xmlns="http://www.w3.org/2000/svg"
   xmlns:svg="http://www.w3.org/2000/svg">
  <sodipodi:namedview
     id="namedview7"
     pagecolor="#ffffff"
     bordercolor="#666666"
     borderopacity="1.0"
     inkscape:pageshadow="2"
     inkscape:pageopacity="0.0"
     inkscape:pagecheckerboard="0"
     inkscape:document-units="px"
     showgrid="false"
     units="px"
     height="48px"
     inkscape:zoom="5.656854"
     inkscape:cx="7.3362332"
     inkscape:cy="21.389981"
     inkscape:window-width="1920"
     inkscape:window-height="1005"
     inkscape:window-x="0"
     inkscape:window-y="0"
     inkscape:window-maximized="1"
     inkscape:current-layer="svg5"
     inkscape:lockguides="true" />
  <defs
     id="defs2" />
  <circle
     style="fill:#333333;fill-opacity:1;stroke-width:1.66977;stroke-linecap:round;stroke-linejoin:round;stroke-dasharray:20.0372, 1.66977"
     id="path850"
     cx="6.3499999"
     cy="6.3499999"
     r="5.8208332" />
  <path
     id="path4"
     d="m 6.3499887,1.8520833 c -2.4918396,0 -4.4979054,2.0060658 -4.4979054,4.4979054 0,2.409059 1.8750652,4.3637663 4.2512988,4.4910023 -0.2450373,-0.01383 -0.4847333,-0.0479 -0.7178576,-0.09852 C 5.3847856,10.33558 5.3843654,9.9563704 5.3836313,9.8294672 4.212535,10.090507 4.0890976,9.185654 4.0890976,9.185654 3.8975672,8.686406 3.6216117,8.5537638 3.6216117,8.5537638 3.2393362,8.2858427 3.6498496,8.2908423 3.6498496,8.2908423 4.0724437,8.3213318 4.2949174,8.7363646 4.2949174,8.7363646 4.6704603,9.3966363 5.1531878,9.2705425 5.3930385,9.1599255 5.4312894,8.8808634 5.667551,8.7225957 5.787735,8.6146313 4.8528904,8.5055876 3.7797546,8.0704303 3.7797546,6.4146236 c 0,-0.4716376 0.1580117,-0.8577395 0.4273259,-1.1596162 -0.04342,-0.1092676 -0.1884674,-0.6452169 0.040788,-1.2399362 0,0 0.022083,-0.00663 0.06777,-0.00878 0.1370258,-0.00646 0.4448807,0.119027 1.0479217,0.5383933 C 5.7201148,4.4412064 6.1558599,4.4265921 6.481135,4.4223251 6.8624816,4.4173243 7.2571046,4.4395999 7.6056115,4.5446869 8.2084623,4.1252977 8.5938277,3.9992714 8.7307182,4.005665 h 6.435e-4 c 0.045636,0.00212 0.06777,0.00941 0.06777,0.00941 0.229769,0.5947192 0.084575,1.1306434 0.041412,1.2399363 0.2698047,0.3018735 0.4009568,0.6873513 0.4009568,1.1589889 0,1.6600484 -0.9843555,2.0905954 -1.9220273,2.1974961 0.1509397,0.1334274 0.3175143,0.3324811 0.3175143,0.7354287 0,0.2394308 -0.00102,0.740327 -0.00187,1.313354 -0.2983552,0.08828 -0.609753,0.146988 -0.9305794,0.172561 2.3247052,-0.179814 4.1433819,-2.1104783 4.1433819,-4.4828445 0,-2.49184 -2.0060655,-4.4979058 -4.497905,-4.4979058 z M 6.1033821,10.840991 c 0.081652,0.0043 0.1638257,0.0069 0.2466066,0.0069 -0.082909,0 -0.1649273,-0.0023 -0.2466066,-0.0069 z m 0.2466066,0.0069 c 0.1051805,0 0.2091587,-0.0048 0.3124939,-0.0119 -0.103336,0.0073 -0.207214,0.0119 -0.3124939,0.0119 z"
     style="fill:#ffffff;stroke-width:0.321278" />
</svg>
