<?xml version="1.0" encoding="UTF-8" standalone="no"?>
<!-- Created with Inkscape (http://www.inkscape.org/) -->

<svg
   width="48"
   height="48"
   viewBox="0 0 12.7 12.7"
   version="1.1"
   id="svg69118"
   inkscape:version="1.2.1 (9c6d41e410, 2022-07-14, custom)"
   sodipodi:docname="gufw.svg"
   xmlns:inkscape="http://www.inkscape.org/namespaces/inkscape"
   xmlns:sodipodi="http://sodipodi.sourceforge.net/DTD/sodipodi-0.dtd"
   xmlns:xlink="http://www.w3.org/1999/xlink"
   xmlns="http://www.w3.org/2000/svg"
   xmlns:svg="http://www.w3.org/2000/svg">
  <sodipodi:namedview
     id="namedview69120"
     pagecolor="#ffffff"
     bordercolor="#666666"
     borderopacity="1.0"
     inkscape:pageshadow="2"
     inkscape:pageopacity="0.0"
     inkscape:pagecheckerboard="0"
     inkscape:document-units="px"
     showgrid="false"
     units="px"
     inkscape:zoom="17.083333"
     inkscape:cx="23.970732"
     inkscape:cy="24"
     inkscape:window-width="1920"
     inkscape:window-height="1029"
     inkscape:window-x="0"
     inkscape:window-y="0"
     inkscape:window-maximized="1"
     inkscape:current-layer="svg69118"
     inkscape:showpageshadow="2"
     inkscape:deskcolor="#d1d1d1" />
  <defs
     id="defs69115">
    <linearGradient
       inkscape:collect="always"
       id="linearGradient5685">
      <stop
         style="stop-color:#f8f8f8;stop-opacity:1;"
         offset="0"
         id="stop5681" />
      <stop
         style="stop-color:#c7c7c7;stop-opacity:1;"
         offset="1"
         id="stop5683" />
    </linearGradient>
    <linearGradient
       inkscape:collect="always"
       xlink:href="#linearGradient1615"
       id="linearGradient8763"
       x1="26.446239"
       y1="29.929234"
       x2="9.3050003"
       y2="3.0284214"
       gradientUnits="userSpaceOnUse"
       gradientTransform="matrix(0.39687498,0,0,0.39363871,1.178125e-7,0.12168914)" />
    <linearGradient
       inkscape:collect="always"
       id="linearGradient1615">
      <stop
         style="stop-color:#592ea8;stop-opacity:1;"
         offset="0"
         id="stop1611" />
      <stop
         style="stop-color:#8962c9;stop-opacity:1;"
         offset="1"
         id="stop1613" />
    </linearGradient>
    <linearGradient
       inkscape:collect="always"
       xlink:href="#linearGradient5685"
       id="linearGradient5679"
       x1="4.5400023"
       y1="2.2835441"
       x2="7.0998597"
       y2="5.1087084"
       gradientUnits="userSpaceOnUse"
       gradientTransform="matrix(1.5,0,0,1.4827585,5.7812499e-8,0.13685349)" />
  </defs>
  <path
     id="path5150"
     style="color:#000000;fill:url(#linearGradient8763);fill-opacity:1;stroke-width:0.395254;stroke-linecap:round;stroke-linejoin:round"
     d="M 6.3500001,0.52916667 C 5.315062,0.60107179 4.6189693,0.70473077 3.6927979,1.3136149 2.8100455,1.7974589 1.9360298,2.1015182 1.3229167,2.1166667 c -0.2922504,0 -0.52916669,0.2369163 -0.52916669,0.5291667 v 3.3755045 5.168e-4 c 0,1.2550702 0.88215699,2.6674868 2.02933349,3.8292237 1.034855,1.0479546 2.298986,1.9014486 3.5269166,2.0551716 C 7.5779312,11.752528 8.842061,10.899033 9.8769166,9.8510784 11.024093,8.6893415 11.90625,7.2676231 11.90625,6.012553 V 6.0120362 2.6458334 c 0,-0.2922505 -0.236916,-0.5291669 -0.529167,-0.5291667 C 10.763969,2.1015182 9.8899553,1.7974591 9.0072022,1.3136149 8.0810315,0.70473095 7.3849384,0.60107196 6.3500001,0.52916667 Z" />
  <path
     id="rect2691"
     style="fill:url(#linearGradient5679);fill-opacity:1;stroke-width:0.789174;stroke-linecap:round"
     d="M 9.4743572,1.5477092 1.2200806,7.6667156 C 1.5869455,8.4261878 2.1606369,9.1802238 2.8230835,9.8510784 3.0797243,10.110968 3.3499927,10.359215 3.6307862,10.587468 L 11.90625,4.4524415 V 2.6458334 c 0,-0.2922505 -0.236916,-0.5291669 -0.529167,-0.5291667 C 10.870247,2.1041441 10.226758,1.8902634 9.4743572,1.5477092 Z"
     sodipodi:nodetypes="cccccccc" />
</svg>
