<?xml version="1.0" encoding="UTF-8" standalone="no"?>
<!-- Created with Inkscape (http://www.inkscape.org/) -->

<svg
   width="48"
   height="48"
   viewBox="0 0 12.7 12.7"
   version="1.1"
   id="svg5"
   inkscape:version="1.2.1 (9c6d41e410, 2022-07-14)"
   sodipodi:docname="libreoffice-calc.svg"
   xmlns:inkscape="http://www.inkscape.org/namespaces/inkscape"
   xmlns:sodipodi="http://sodipodi.sourceforge.net/DTD/sodipodi-0.dtd"
   xmlns:xlink="http://www.w3.org/1999/xlink"
   xmlns="http://www.w3.org/2000/svg"
   xmlns:svg="http://www.w3.org/2000/svg">
  <sodipodi:namedview
     id="namedview7"
     pagecolor="#ffffff"
     bordercolor="#666666"
     borderopacity="1.0"
     inkscape:pageshadow="2"
     inkscape:pageopacity="0.0"
     inkscape:pagecheckerboard="0"
     inkscape:document-units="px"
     showgrid="false"
     units="px"
     height="64px"
     showguides="false"
     inkscape:zoom="16.5"
     inkscape:cx="24"
     inkscape:cy="24"
     inkscape:window-width="1920"
     inkscape:window-height="1007"
     inkscape:window-x="0"
     inkscape:window-y="0"
     inkscape:window-maximized="1"
     inkscape:current-layer="svg5"
     inkscape:showpageshadow="2"
     inkscape:deskcolor="#d1d1d1" />
  <defs
     id="defs2">
    <linearGradient
       inkscape:collect="always"
       xlink:href="#linearGradient3529"
       id="linearGradient3173"
       x1="2.6458333"
       y1="1.0583334"
       x2="11.641666"
       y2="12.7"
       gradientUnits="userSpaceOnUse"
       gradientTransform="translate(-0.79374995,-0.52916667)" />
    <linearGradient
       inkscape:collect="always"
       xlink:href="#linearGradient3723"
       id="linearGradient3725"
       x1="54"
       y1="14"
       x2="44"
       y2="4"
       gradientUnits="userSpaceOnUse"
       gradientTransform="matrix(0.26458334,0,0,0.26458334,-3.4395834,-0.52916667)" />
    <linearGradient
       inkscape:collect="always"
       id="linearGradient3529">
      <stop
         style="stop-color:#6ed85e;stop-opacity:1"
         offset="0"
         id="stop3525" />
      <stop
         style="stop-color:#41ba2f;stop-opacity:1"
         offset="1"
         id="stop3527" />
    </linearGradient>
    <linearGradient
       inkscape:collect="always"
       id="linearGradient3723">
      <stop
         style="stop-color:#369a26;stop-opacity:1"
         offset="0"
         id="stop3719" />
      <stop
         style="stop-color:#3fb12c;stop-opacity:1"
         offset="1"
         id="stop3721" />
    </linearGradient>
  </defs>
  <path
     id="rect3085"
     style="fill:url(#linearGradient3173);fill-opacity:1.0;stroke-width:1.05833;stroke-linecap:round;stroke-linejoin:round"
     d="m 2.9104168,0.52916669 c -0.5863167,0 -1.0583334,0.47201661 -1.0583334,1.05833331 v 9.525 c 0,0.586317 0.4720167,1.058334 1.0583334,1.058334 h 6.8791669 c 0.5863153,0 1.0583323,-0.472017 1.0583323,-1.058334 V 5.2916668 C 10.84953,4.6347236 10.77944,4.429441 10.318749,3.9687501 L 7.4083333,1.0583333 C 7.0217365,0.69209915 6.8127554,0.52916669 6.2177082,0.52916669 Z"
     sodipodi:nodetypes="ssssssccccs" />
  <path
     id="rect2140"
     style="fill:url(#linearGradient3725);fill-opacity:1.0;stroke-width:1.05833;stroke-linecap:round;stroke-linejoin:round"
     d="M 7.8052087,0.92604163 10.451039,3.571875 c 0.114148,0.1183186 0.39618,0.028516 0.396875,-0.2645834 V 1.5875 c 0,-0.5863167 -0.472016,-1.05833327 -1.0583323,-1.05833327 H 8.0697914 c -0.2731317,0.00156 -0.3750547,0.2799957 -0.2645827,0.3968749 z"
     sodipodi:nodetypes="cccsscc" />
  <path
     id="rect1255"
     style="fill:#fafafa;fill-opacity:1;stroke-width:1.05833;stroke-linecap:round;stroke-linejoin:round"
     d="m 2.9104167,1.0584568 h 3.1749998 c 0.40012,-0.00473 0.663103,0.1263617 0.926042,0.3968751 L 9.9218747,4.365625 c 0.2374033,0.2720848 0.3968743,0.4653507 0.3968743,0.9260417 v 5.8209573 c 0,0.293158 -0.236007,0.529166 -0.5291663,0.529166 H 2.9104167 C 2.6172583,11.64179 2.38125,11.405782 2.38125,11.112624 V 1.5876235 c 0,-0.2931583 0.2360083,-0.5291667 0.5291667,-0.5291667 z"
     sodipodi:nodetypes="sccccssssss" />
  <path
     id="rect67109"
     style="fill:#39a128;fill-opacity:1;stroke-width:0.529165;stroke-linecap:round;stroke-linejoin:round"
     d="m 4.2333336,5.9531246 h 4.2333331 c 0.1465795,0 0.2645838,0.1180042 0.2645838,0.2645834 v 3.4395833 c 0,0.146579 -0.1180043,0.2645826 -0.2645838,0.2645826 H 4.2333336 c -0.1465792,0 -0.2645834,-0.1180036 -0.2645834,-0.2645826 V 6.217708 c 0,-0.1465792 0.1180042,-0.2645834 0.2645834,-0.2645834 z"
     sodipodi:nodetypes="sssssssss" />
  <path
     id="rect67897"
     style="fill:#6ed85e;fill-opacity:1;stroke-width:0.529165;stroke-linecap:round;stroke-linejoin:round"
     d="m 8.731251,6.8791663 v -0.79375 c 0,-0.146579 -0.118005,-0.264583 -0.264584,-0.264583 H 4.2333336 c -0.1465792,0 -0.2645834,0.118004 -0.2645834,0.264583 v 0.79375 z"
     sodipodi:nodetypes="csssscc" />
  <path
     id="rect68390"
     style="fill:#369a26;fill-opacity:1;stroke-width:0.49845;stroke-linecap:round;stroke-linejoin:round"
     d="m 3.96875,8.9958339 5e-7,0.7937492 c 10e-8,0.1465788 0.1180041,0.2645829 0.2645833,0.2645829 H 8.466667 c 0.1465795,0 0.2645837,-0.1197161 0.2645837,-0.2645829 l -2e-7,-0.7937492 z"
     sodipodi:nodetypes="csssscc" />
  <path
     id="rect71991"
     style="fill:#3fb12c;fill-opacity:1;stroke-width:0.819779;stroke-linecap:round;stroke-linejoin:round"
     d="m 3.9687502,6.8791673 h 4.7625 v 1.0583333 h -4.7625 z"
     sodipodi:nodetypes="ccccc" />
  <rect
     style="fill:#41ba2f;fill-opacity:1;stroke-width:0.31065;stroke-linecap:round;stroke-linejoin:round"
     id="rect76988"
     width="1.5875001"
     height="1.0583333"
     x="3.9687505"
     y="7.9375005" />
  <rect
     style="fill:#41ba2f;fill-opacity:1;stroke-width:0.819779;stroke-linecap:round;stroke-linejoin:round"
     id="rect78678"
     width="1.5874999"
     height="1.0583333"
     x="5.5562506"
     y="6.8791671" />
  <rect
     style="fill:#41ba2f;fill-opacity:1;stroke-width:0.819779;stroke-linecap:round;stroke-linejoin:round"
     id="rect78782"
     width="1.5875001"
     height="1.0583333"
     x="7.1437507"
     y="7.9375005" />
  <rect
     style="fill:#40b52d;fill-opacity:1;stroke-width:0.819779;stroke-linecap:round;stroke-linejoin:round"
     id="rect78784"
     width="1.5875"
     height="1.0583333"
     x="5.5562506"
     y="8.9958344" />
  <path
     id="rect84235"
     style="fill:#47c931;fill-opacity:1;stroke-width:0.529165;stroke-linecap:round;stroke-linejoin:round"
     d="m 3.96875,8.9958339 v 0.7937492 c 0,0.1465788 0.1180042,0.2645829 0.2645833,0.2645829 H 5.55625 V 8.9958345 Z"
     sodipodi:nodetypes="cssccc" />
  <rect
     style="fill:#47c931;fill-opacity:1;stroke-width:0.819779;stroke-linecap:round;stroke-linejoin:round"
     id="rect85339"
     width="1.5874999"
     height="1.0583333"
     x="7.1437507"
     y="6.8791671" />
</svg>
