<?xml version="1.0" encoding="UTF-8" standalone="no"?>
<!-- Created with Inkscape (http://www.inkscape.org/) -->

<svg
   width="48"
   height="48"
   viewBox="0 0 12.7 12.7"
   version="1.1"
   id="svg5"
   inkscape:version="1.2.1 (9c6d41e410, 2022-07-14)"
   sodipodi:docname="libreoffice-math.svg"
   xmlns:inkscape="http://www.inkscape.org/namespaces/inkscape"
   xmlns:sodipodi="http://sodipodi.sourceforge.net/DTD/sodipodi-0.dtd"
   xmlns:xlink="http://www.w3.org/1999/xlink"
   xmlns="http://www.w3.org/2000/svg"
   xmlns:svg="http://www.w3.org/2000/svg">
  <sodipodi:namedview
     id="namedview7"
     pagecolor="#ffffff"
     bordercolor="#666666"
     borderopacity="1.0"
     inkscape:pageshadow="2"
     inkscape:pageopacity="0.0"
     inkscape:pagecheckerboard="0"
     inkscape:document-units="px"
     showgrid="false"
     units="px"
     height="64px"
     showguides="false"
     inkscape:zoom="11.667262"
     inkscape:cx="16.027754"
     inkscape:cy="25.712974"
     inkscape:window-width="1920"
     inkscape:window-height="1007"
     inkscape:window-x="0"
     inkscape:window-y="0"
     inkscape:window-maximized="1"
     inkscape:current-layer="svg5"
     inkscape:showpageshadow="2"
     inkscape:deskcolor="#d1d1d1" />
  <defs
     id="defs2">
    <linearGradient
       inkscape:collect="always"
       xlink:href="#linearGradient3529"
       id="linearGradient3173"
       x1="2.6458333"
       y1="1.0583334"
       x2="11.641666"
       y2="12.7"
       gradientUnits="userSpaceOnUse"
       gradientTransform="translate(-0.79374995,-0.52916667)" />
    <linearGradient
       inkscape:collect="always"
       xlink:href="#linearGradient3723"
       id="linearGradient9471"
       gradientUnits="userSpaceOnUse"
       gradientTransform="matrix(0.26458334,0,0,0.26458334,-3.4395834,-0.52916667)"
       x1="54"
       y1="14"
       x2="44"
       y2="4" />
    <linearGradient
       inkscape:collect="always"
       id="linearGradient3723">
      <stop
         style="stop-color:#3d4c65;stop-opacity:1"
         offset="0"
         id="stop3719" />
      <stop
         style="stop-color:#455572;stop-opacity:1"
         offset="1"
         id="stop3721" />
    </linearGradient>
    <linearGradient
       inkscape:collect="always"
       id="linearGradient3529">
      <stop
         style="stop-color:#526587;stop-opacity:1"
         offset="0"
         id="stop3525" />
      <stop
         style="stop-color:#445471;stop-opacity:1"
         offset="1"
         id="stop3527" />
    </linearGradient>
  </defs>
  <path
     id="rect3085"
     style="fill:url(#linearGradient3173);fill-opacity:1.0;stroke-width:1.05833;stroke-linecap:round;stroke-linejoin:round"
     d="m 2.9104168,0.52916669 c -0.5863167,0 -1.0583334,0.47201661 -1.0583334,1.05833331 v 9.525 c 0,0.586317 0.4720167,1.058334 1.0583334,1.058334 h 6.8791669 c 0.5863153,0 1.0583323,-0.472017 1.0583323,-1.058334 V 5.2916668 C 10.84953,4.6347236 10.77944,4.429441 10.318749,3.9687501 L 7.4083333,1.0583333 C 7.0217365,0.69209915 6.8127554,0.52916669 6.2177082,0.52916669 Z"
     sodipodi:nodetypes="ssssssccccs" />
  <path
     id="rect2140"
     style="fill:url(#linearGradient9471);fill-opacity:1.0;stroke-width:1.05833;stroke-linecap:round;stroke-linejoin:round"
     d="M 7.8052087,0.92604163 10.451039,3.571875 c 0.114148,0.1183186 0.39618,0.028516 0.396875,-0.2645834 V 1.5875 c 0,-0.5863167 -0.472016,-1.05833327 -1.0583323,-1.05833327 H 8.0697914 c -0.2731317,0.00156 -0.3750547,0.2799957 -0.2645827,0.3968749 z"
     sodipodi:nodetypes="cccsscc" />
  <path
     id="rect1255"
     style="fill:#fafafa;fill-opacity:1;stroke-width:1.05833;stroke-linecap:round;stroke-linejoin:round"
     d="m 2.9104167,1.0584568 h 3.1749998 c 0.40012,-0.00473 0.663103,0.1263617 0.926042,0.3968751 L 9.9218747,4.365625 c 0.2374033,0.2720848 0.3968743,0.4653507 0.3968743,0.9260417 v 5.8209573 c 0,0.293158 -0.236007,0.529166 -0.5291663,0.529166 H 2.9104167 C 2.6172583,11.64179 2.38125,11.405782 2.38125,11.112624 V 1.5876235 c 0,-0.2931583 0.2360083,-0.5291667 0.5291667,-0.5291667 z"
     sodipodi:nodetypes="sccccssssss" />
  <g
     id="g2235"
     transform="rotate(-45,5.6337679,11.50488)">
    <rect
       style="fill:#3d4c65;fill-opacity:1;stroke-width:1.05833;stroke-linecap:round;stroke-linejoin:round"
       id="rect1831"
       width="0.5291667"
       height="3.175"
       x="9.036479"
       y="8.6067457"
       ry="0.26458335" />
    <rect
       style="fill:#455572;fill-opacity:1;stroke-width:1.05833;stroke-linecap:round;stroke-linejoin:round"
       id="rect2043"
       width="0.5291667"
       height="3.175"
       x="9.9296627"
       y="-10.888562"
       ry="0.26458335"
       transform="rotate(90)" />
  </g>
  <path
     style="color:#000000;fill:#526587;fill-opacity:1;stroke:none;stroke-linecap:round;stroke-linejoin:round;-inkscape-stroke:none"
     d="m 5.4883862,5.556252 a 0.26460996,0.26460996 0 0 0 -0.259766,0.2109375 l -0.568359,2.6992186 -0.455078,-0.910156 a 0.2645835,0.2645835 0 0 0 -0.355469,-0.119141 0.2645835,0.2645835 0 0 0 -0.117188,0.355469 l 0.792969,1.5878912 a 0.26460996,0.26460996 0 0 0 0.496094,-0.06445 l 0.679687,-3.2304724 h 3.029297 A 0.2645835,0.2645835 0 0 0 8.9961982,5.821877 0.2645835,0.2645835 0 0 0 8.7305732,5.556252 Z"
     id="path14517" />
</svg>
