<?xml version="1.0" encoding="UTF-8" standalone="no"?>
<!-- Created with Inkscape (http://www.inkscape.org/) -->

<svg
   width="48"
   height="48"
   viewBox="0 0 12.7 12.7"
   version="1.1"
   id="svg5"
   inkscape:version="1.2.1 (9c6d41e410, 2022-07-14)"
   sodipodi:docname="libreoffice-base.svg"
   xmlns:inkscape="http://www.inkscape.org/namespaces/inkscape"
   xmlns:sodipodi="http://sodipodi.sourceforge.net/DTD/sodipodi-0.dtd"
   xmlns:xlink="http://www.w3.org/1999/xlink"
   xmlns="http://www.w3.org/2000/svg"
   xmlns:svg="http://www.w3.org/2000/svg">
  <sodipodi:namedview
     id="namedview7"
     pagecolor="#ffffff"
     bordercolor="#666666"
     borderopacity="1.0"
     inkscape:pageshadow="2"
     inkscape:pageopacity="0.0"
     inkscape:pagecheckerboard="0"
     inkscape:document-units="px"
     showgrid="false"
     units="px"
     height="64px"
     showguides="false"
     inkscape:zoom="16.5"
     inkscape:cx="24"
     inkscape:cy="24"
     inkscape:window-width="1920"
     inkscape:window-height="1007"
     inkscape:window-x="0"
     inkscape:window-y="0"
     inkscape:window-maximized="1"
     inkscape:current-layer="svg5"
     inkscape:showpageshadow="2"
     inkscape:deskcolor="#d1d1d1" />
  <defs
     id="defs2">
    <linearGradient
       inkscape:collect="always"
       xlink:href="#linearGradient3529"
       id="linearGradient3173"
       x1="2.6458333"
       y1="1.0583334"
       x2="11.641666"
       y2="12.7"
       gradientUnits="userSpaceOnUse"
       gradientTransform="translate(-0.79374995,-0.52916667)" />
    <linearGradient
       inkscape:collect="always"
       xlink:href="#linearGradient3723"
       id="linearGradient9471"
       gradientUnits="userSpaceOnUse"
       gradientTransform="matrix(0.26458334,0,0,0.26458334,-3.4395834,-0.52916667)"
       x1="54"
       y1="14"
       x2="44"
       y2="4" />
    <linearGradient
       inkscape:collect="always"
       id="linearGradient3529">
      <stop
         style="stop-color:#b67cd7;stop-opacity:1"
         offset="0"
         id="stop3525" />
      <stop
         style="stop-color:#8536bd;stop-opacity:1"
         offset="1"
         id="stop3527" />
    </linearGradient>
    <linearGradient
       inkscape:collect="always"
       id="linearGradient3723">
      <stop
         style="stop-color:#541a7c;stop-opacity:1"
         offset="0"
         id="stop3719" />
      <stop
         style="stop-color:#702da1;stop-opacity:1"
         offset="1"
         id="stop3721" />
    </linearGradient>
  </defs>
  <path
     id="rect3085"
     style="fill:url(#linearGradient3173);fill-opacity:1.0;stroke-width:1.05833;stroke-linecap:round;stroke-linejoin:round"
     d="m 2.9104168,0.52916669 c -0.5863167,0 -1.0583334,0.47201661 -1.0583334,1.05833331 v 9.525 c 0,0.586317 0.4720167,1.058334 1.0583334,1.058334 h 6.8791669 c 0.5863153,0 1.0583323,-0.472017 1.0583323,-1.058334 V 5.2916668 C 10.84953,4.6347236 10.77944,4.429441 10.318749,3.9687501 L 7.4083333,1.0583333 C 7.0217365,0.69209915 6.8127554,0.52916669 6.2177082,0.52916669 Z"
     sodipodi:nodetypes="ssssssccccs" />
  <path
     id="rect2140"
     style="fill:url(#linearGradient9471);fill-opacity:1.0;stroke-width:1.05833;stroke-linecap:round;stroke-linejoin:round"
     d="M 7.8052087,0.92604163 10.451039,3.571875 c 0.114148,0.1183186 0.39618,0.028516 0.396875,-0.2645834 V 1.5875 c 0,-0.5863167 -0.472016,-1.05833327 -1.0583323,-1.05833327 H 8.0697914 c -0.2731317,0.00156 -0.3750547,0.2799957 -0.2645827,0.3968749 z"
     sodipodi:nodetypes="cccsscc" />
  <path
     id="rect1255"
     style="fill:#fafafa;fill-opacity:1;stroke-width:1.05833;stroke-linecap:round;stroke-linejoin:round"
     d="m 2.9104167,1.0584568 h 3.1749998 c 0.40012,-0.00473 0.663103,0.1263617 0.926042,0.3968751 L 9.9218747,4.365625 c 0.2374033,0.2720848 0.3968743,0.4653507 0.3968743,0.9260417 v 5.8209573 c 0,0.293158 -0.236007,0.529166 -0.5291663,0.529166 H 2.9104167 C 2.6172583,11.64179 2.38125,11.405782 2.38125,11.112624 V 1.5876235 c 0,-0.2931583 0.2360083,-0.5291667 0.5291667,-0.5291667 z"
     sodipodi:nodetypes="sccccssssss" />
  <path
     id="path8276-3-6-5"
     style="fill:#541a7c;fill-opacity:1;stroke-width:0.302725;stroke-linecap:round;stroke-linejoin:round"
     d="m 4.233333,8.6350382 v 1.1545466 c 0,0.3188182 0.9476636,0.5772722 2.116666,0.5772722 1.1690027,0 2.1166671,-0.258454 2.1166671,-0.5772722 V 8.6350382 Z"
     sodipodi:nodetypes="cssscc" />
  <path
     id="path8276-3-6-7"
     style="fill:#702da1;fill-opacity:1;stroke-width:0.302725;stroke-linecap:round;stroke-linejoin:round"
     d="m 4.233333,7.5767047 v 1.1545457 c 0,0.318819 0.9476637,0.577273 2.1166661,0.577273 1.1690026,0 2.116667,-0.258454 2.116667,-0.577273 V 7.5767047 Z"
     sodipodi:nodetypes="cssscc" />
  <path
     id="path8276-3-6"
     style="fill:#8536bd;fill-opacity:1;stroke-width:0.302725;stroke-linecap:round;stroke-linejoin:round"
     d="m 4.233333,6.5183715 v 1.1545454 c 0,0.3188193 0.9476636,0.577273 2.1166661,0.577273 1.1690026,0 2.116667,-0.2584537 2.116667,-0.577273 V 6.5183715 Z"
     sodipodi:nodetypes="cssscc" />
  <path
     id="path8276-3"
     style="fill:#9a53cd;fill-opacity:1;stroke-width:0.302725;stroke-linecap:round;stroke-linejoin:round"
     d="m 6.3499991,5.6043561 c -1.1690024,0 -2.1166661,-0.048106 -2.1166661,-0.048106 v 1.0583335 c 0,0.3188188 0.9476637,0.5772727 2.1166661,0.5772727 1.1690026,0 2.116667,-0.2584539 2.116667,-0.5772727 V 5.5562501 c 0,0 -0.9476644,0.048106 -2.116667,0.048106 z"
     sodipodi:nodetypes="scssscs" />
  <ellipse
     style="fill:#b67cd7;fill-opacity:1;stroke-width:0.289836;stroke-linecap:round;stroke-linejoin:round"
     id="path9564"
     cx="6.3499999"
     cy="5.5562501"
     rx="2.1166661"
     ry="0.5291667" />
</svg>
