<?xml version="1.0" encoding="UTF-8" standalone="no"?>
<!-- Created with Inkscape (http://www.inkscape.org/) -->

<svg
   width="48"
   height="48"
   viewBox="0 0 12.7 12.7"
   version="1.1"
   id="svg5"
   inkscape:version="1.2.1 (9c6d41e410, 2022-07-14, custom)"
   sodipodi:docname="lightdm-settings.svg"
   xmlns:inkscape="http://www.inkscape.org/namespaces/inkscape"
   xmlns:sodipodi="http://sodipodi.sourceforge.net/DTD/sodipodi-0.dtd"
   xmlns:xlink="http://www.w3.org/1999/xlink"
   xmlns="http://www.w3.org/2000/svg"
   xmlns:svg="http://www.w3.org/2000/svg">
  <sodipodi:namedview
     id="namedview7"
     pagecolor="#ffffff"
     bordercolor="#666666"
     borderopacity="1.0"
     inkscape:pageshadow="2"
     inkscape:pageopacity="0.0"
     inkscape:pagecheckerboard="0"
     inkscape:document-units="px"
     showgrid="false"
     units="px"
     height="64px"
     inkscape:zoom="17.083333"
     inkscape:cx="23.970732"
     inkscape:cy="24"
     inkscape:window-width="1920"
     inkscape:window-height="1029"
     inkscape:window-x="0"
     inkscape:window-y="0"
     inkscape:window-maximized="1"
     inkscape:current-layer="svg5"
     inkscape:showpageshadow="2"
     inkscape:deskcolor="#d1d1d1" />
  <defs
     id="defs2">
    <linearGradient
       inkscape:collect="always"
       id="linearGradient1275">
      <stop
         style="stop-color:#ffffff;stop-opacity:1;"
         offset="0"
         id="stop1271" />
      <stop
         style="stop-color:#ffffff;stop-opacity:0;"
         offset="1"
         id="stop1273" />
    </linearGradient>
    <linearGradient
       inkscape:collect="always"
       id="linearGradient11972">
      <stop
         style="stop-color:#37d4e1;stop-opacity:1"
         offset="0"
         id="stop11968" />
      <stop
         style="stop-color:#086ebd;stop-opacity:1"
         offset="1"
         id="stop11970" />
    </linearGradient>
    <linearGradient
       inkscape:collect="always"
       xlink:href="#linearGradient11972"
       id="linearGradient1924"
       x1="0.5291667"
       y1="1.5875"
       x2="8.4666672"
       y2="7.9375"
       gradientUnits="userSpaceOnUse"
       gradientTransform="matrix(1.4666667,0,0,1.4166667,-0.24694449,-0.39687491)" />
    <linearGradient
       inkscape:collect="always"
       xlink:href="#linearGradient1275"
       id="linearGradient1277"
       x1="8.2020836"
       y1="7.5902357"
       x2="8.2020845"
       y2="10.236069"
       gradientUnits="userSpaceOnUse"
       gradientTransform="matrix(0.7777777,0,0,0.7777777,-0.23518488,-0.28295815)" />
    <linearGradient
       inkscape:collect="always"
       xlink:href="#linearGradient1275"
       id="linearGradient1279"
       x1="8.235157"
       y1="3.9356756"
       x2="8.1690083"
       y2="8.6981754"
       gradientUnits="userSpaceOnUse"
       gradientTransform="matrix(0.82051392,0,0,0.82051392,-0.59701708,-0.56309286)" />
    <linearGradient
       inkscape:collect="always"
       xlink:href="#linearGradient3366"
       id="linearGradient1977"
       x1="2.1166668"
       y1="2.778125"
       x2="3.4395833"
       y2="3.175"
       gradientUnits="userSpaceOnUse"
       gradientTransform="matrix(2.3999997,0,0,2.6666665,2.0637501,1.0583908)" />
    <linearGradient
       inkscape:collect="always"
       id="linearGradient3366">
      <stop
         style="stop-color:#cccccc;stop-opacity:1;"
         offset="0"
         id="stop3362" />
      <stop
         style="stop-color:#cfcfcf;stop-opacity:1"
         offset="1"
         id="stop3364" />
    </linearGradient>
    <linearGradient
       inkscape:collect="always"
       xlink:href="#linearGradient3366"
       id="linearGradient1977-3"
       x1="2.1166668"
       y1="2.778125"
       x2="3.4395833"
       y2="3.175"
       gradientUnits="userSpaceOnUse"
       gradientTransform="matrix(2.3999973,0,0,2.6666638,2.3283379,1.5872399)" />
    <linearGradient
       inkscape:collect="always"
       xlink:href="#linearGradient7024"
       id="linearGradient7026"
       x1="14.634075"
       y1="13.653037"
       x2="4.0507412"
       y2="3.0697033"
       gradientUnits="userSpaceOnUse"
       gradientTransform="matrix(0.49999948,0,0,0.49999948,4.8538,5.2802913)" />
    <linearGradient
       inkscape:collect="always"
       id="linearGradient7024">
      <stop
         style="stop-color:#ffffff;stop-opacity:1;"
         offset="0"
         id="stop7020" />
      <stop
         style="stop-color:#f0f0f0;stop-opacity:1"
         offset="0.25"
         id="stop7732" />
      <stop
         style="stop-color:#cccccc;stop-opacity:1"
         offset="1"
         id="stop7022" />
    </linearGradient>
    <linearGradient
       inkscape:collect="always"
       xlink:href="#linearGradient6060"
       id="linearGradient6062"
       x1="1.0583334"
       y1="1.0583338"
       x2="15.345835"
       y2="13.229167"
       gradientUnits="userSpaceOnUse"
       gradientTransform="matrix(0.37499961,0,0,0.37499961,6.3500009,6.3197162)" />
    <linearGradient
       inkscape:collect="always"
       id="linearGradient6060">
      <stop
         style="stop-color:#8a8f97;stop-opacity:1;"
         offset="0"
         id="stop6056" />
      <stop
         style="stop-color:#8a8f97;stop-opacity:1"
         offset="0.14573747"
         id="stop6576" />
      <stop
         style="stop-color:#616e7a;stop-opacity:1"
         offset="0.89999998"
         id="stop6770" />
      <stop
         style="stop-color:#616e7a;stop-opacity:1"
         offset="1"
         id="stop6058" />
    </linearGradient>
    <linearGradient
       inkscape:collect="always"
       xlink:href="#linearGradient8250"
       id="linearGradient8252"
       x1="5.458415"
       y1="4.8895097"
       x2="12.337581"
       y2="11.768677"
       gradientUnits="userSpaceOnUse"
       gradientTransform="matrix(0.37499961,0,0,0.37499961,6.089033,6.2720874)" />
    <linearGradient
       inkscape:collect="always"
       id="linearGradient8250">
      <stop
         style="stop-color:#0568ba;stop-opacity:1;"
         offset="0"
         id="stop8246" />
      <stop
         style="stop-color:#0568ba;stop-opacity:1"
         offset="0.23999999"
         id="stop9054" />
      <stop
         style="stop-color:#0f4c8a;stop-opacity:1"
         offset="0.80000001"
         id="stop8830" />
      <stop
         style="stop-color:#0f4c8f;stop-opacity:1"
         offset="1"
         id="stop8248" />
    </linearGradient>
  </defs>
  <rect
     style="fill:url(#linearGradient1924);fill-opacity:1;stroke-width:1.14415;stroke-linecap:round;stroke-linejoin:round"
     id="rect1836"
     width="11.641666"
     height="8.9958334"
     x="0.5291667"
     y="1.8520833"
     ry="0.52916664" />
  <rect
     style="opacity:0.6;fill:#e9fefe;fill-opacity:1;stroke-width:0.793747;stroke-linecap:round;stroke-linejoin:round"
     id="rect967"
     width="8.4666672"
     height="1.5875"
     x="2.1166668"
     y="8.2020836"
     ry="0.26458335" />
  <circle
     style="opacity:0.95;fill:url(#linearGradient1279);fill-opacity:1;stroke-width:0.356572;stroke-linecap:round;stroke-linejoin:round"
     id="path846"
     cx="6.3499999"
     cy="3.9687502"
     r="1.0583334" />
  <path
     id="rect1058"
     style="opacity:0.95;fill:url(#linearGradient1277);fill-opacity:1;stroke-width:0.333413;stroke-linecap:round;stroke-linejoin:round"
     d="m 4.960939,5.5562497 c -0.2565133,0 -0.4630202,0.206507 -0.4630202,0.4630201 v 0.1543406 c -0.00171,0.6697958 0.983147,1.156997 1.8520807,1.1575511 0.8689338,-5.541e-4 1.853795,-0.4877553 1.8520816,-1.1575511 V 6.0192698 c 0,-0.2565131 -0.2065069,-0.4630201 -0.4630202,-0.4630201 z"
     sodipodi:nodetypes="cscccscc" />
  <rect
     style="fill:url(#linearGradient1977);fill-opacity:1;stroke-width:0.669348"
     id="rect1969"
     width="3.1749997"
     height="1.0583334"
     x="7.1437497"
     y="8.4667225"
     ry="0.26458335" />
  <rect
     style="fill:url(#linearGradient1977-3);fill-opacity:1;stroke-width:0.669347"
     id="rect1969-5"
     width="3.1749966"
     height="1.0583323"
     x="7.4083328"
     y="8.9955645"
     ry="0.26458308" />
  <circle
     style="fill:url(#linearGradient7026);fill-opacity:1;stroke-width:0.132291"
     id="path6952"
     cx="9.5249968"
     cy="9.4609661"
     r="2.3812475" />
  <path
     id="path5884"
     style="fill:url(#linearGradient6062);fill-opacity:1;stroke-width:0.0992185"
     d="M 8.5382368,6.4772646 A 3.1749969,3.1749969 0 0 0 7.4102062,7.1281931 1.1906238,1.1906238 0 0 1 7.3768742,8.2544798 1.1906238,1.1906238 0 0 1 6.426352,8.8391334 3.1749969,3.1749969 0 0 0 6.35,9.4947127 a 3.1749969,3.1749969 0 0 0 0.077514,0.6557733 1.1906238,1.1906238 0 0 1 0.9493594,0.584461 1.1906238,1.1906238 0 0 1 0.035656,1.122217 3.1749969,3.1749969 0 0 0 1.122411,0.648215 1.1906238,1.1906238 0 0 1 0.9900548,-0.530199 1.1906238,1.1906238 0 0 1 0.9906358,0.530006 3.1749969,3.1749969 0 0 0 1.127451,-0.652286 1.1906238,1.1906238 0 0 1 0.03004,-1.117953 1.1906238,1.1906238 0 0 1 0.949359,-0.584654 3.1749969,3.1749969 0 0 0 0.07752,-0.6555803 A 3.1749969,3.1749969 0 0 0 12.623641,8.8391334 1.1906238,1.1906238 0 0 1 11.67312,8.2544798 1.1906238,1.1906238 0 0 1 11.644828,7.1320687 3.1749969,3.1749969 0 0 0 10.511757,6.4772646 1.1906238,1.1906238 0 0 1 9.5249972,7.0142466 1.1906238,1.1906238 0 0 1 8.5382368,6.4772646 Z M 9.5249972,7.9072145 A 1.5874985,1.5874985 0 0 1 11.112496,9.4947127 1.5874985,1.5874985 0 0 1 9.5249972,11.082212 1.5874985,1.5874985 0 0 1 7.9374989,9.4947127 1.5874985,1.5874985 0 0 1 9.5249972,7.9072145 Z" />
  <circle
     style="fill:url(#linearGradient8252);fill-opacity:1;stroke-width:0.0992185"
     id="path8010"
     cx="9.5249949"
     cy="9.4947109"
     r="1.1906238" />
</svg>
