<?xml version="1.0" encoding="UTF-8" standalone="no"?>
<svg
   width="48"
   height="48"
   viewBox="0 0 12.69984 12.69984"
   version="1.1"
   id="svg1886"
   inkscape:version="1.2.1 (9c6d41e410, 2022-07-14)"
   sodipodi:docname="preferences-desktop.svg"
   xmlns:inkscape="http://www.inkscape.org/namespaces/inkscape"
   xmlns:sodipodi="http://sodipodi.sourceforge.net/DTD/sodipodi-0.dtd"
   xmlns:xlink="http://www.w3.org/1999/xlink"
   xmlns="http://www.w3.org/2000/svg"
   xmlns:svg="http://www.w3.org/2000/svg"
   xmlns:rdf="http://www.w3.org/1999/02/22-rdf-syntax-ns#"
   xmlns:cc="http://creativecommons.org/ns#"
   xmlns:dc="http://purl.org/dc/elements/1.1/">
  <defs
     id="defs1880">
    <linearGradient
       inkscape:collect="always"
       id="linearGradient24598">
      <stop
         style="stop-color:#000000;stop-opacity:1;"
         offset="0"
         id="stop24594" />
      <stop
         style="stop-color:#000000;stop-opacity:0;"
         offset="1"
         id="stop24596" />
    </linearGradient>
    <linearGradient
       inkscape:collect="always"
       id="linearGradient17820">
      <stop
         style="stop-color:#26aee7;stop-opacity:1;"
         offset="0"
         id="stop17816" />
      <stop
         style="stop-color:#037ed6;stop-opacity:1"
         offset="1"
         id="stop17818" />
    </linearGradient>
    <linearGradient
       inkscape:collect="always"
       id="linearGradient5821">
      <stop
         style="stop-color:#3bcaf5;stop-opacity:1;"
         offset="0"
         id="stop5817" />
      <stop
         style="stop-color:#1b9ee4;stop-opacity:1"
         offset="1"
         id="stop5819" />
    </linearGradient>
    <linearGradient
       inkscape:collect="always"
       id="linearGradient33432">
      <stop
         style="stop-color:#0271cb;stop-opacity:1;"
         offset="0"
         id="stop33428" />
      <stop
         style="stop-color:#0b5aa7;stop-opacity:1"
         offset="1"
         id="stop33430" />
    </linearGradient>
    <linearGradient
       inkscape:collect="always"
       xlink:href="#linearGradient17820"
       id="linearGradient10673"
       x1="7.2768879"
       y1="4.8618474"
       x2="7.2742996"
       y2="9.5925112"
       gradientUnits="userSpaceOnUse"
       gradientTransform="matrix(1.0423509,0,0,1.0680023,-1.2772953,-2.0481621)" />
    <linearGradient
       inkscape:collect="always"
       xlink:href="#linearGradient33432"
       id="linearGradient18679"
       x1="13.49358"
       y1="4.7624402"
       x2="13.493581"
       y2="5.8207603"
       gradientUnits="userSpaceOnUse"
       gradientTransform="matrix(0.74999997,0,0,0.74999997,0.3307254,-0.1322903)" />
    <linearGradient
       inkscape:collect="always"
       xlink:href="#linearGradient33432"
       id="linearGradient19205"
       x1="13.49358"
       y1="6.8790798"
       x2="13.493581"
       y2="7.9373999"
       gradientUnits="userSpaceOnUse"
       gradientTransform="matrix(0.74999997,0,0,0.74999997,0.3307258,0.13229)" />
    <linearGradient
       inkscape:collect="always"
       xlink:href="#linearGradient33432"
       id="linearGradient19811"
       x1="11.906099"
       y1="8.9957209"
       x2="11.9061"
       y2="10.05404"
       gradientUnits="userSpaceOnUse"
       gradientTransform="matrix(0.74999997,0,0,0.74999997,0.463014,0.3968697)" />
    <linearGradient
       inkscape:collect="always"
       xlink:href="#linearGradient33432"
       id="linearGradient23862"
       x1="8.2846289"
       y1="11.360404"
       x2="8.2846298"
       y2="12.418723"
       gradientUnits="userSpaceOnUse"
       gradientTransform="translate(-1.9347092,-2.6292632)" />
    <radialGradient
       inkscape:collect="always"
       xlink:href="#linearGradient24598"
       id="radialGradient24600"
       cx="5.55618"
       cy="7.4082398"
       fx="5.55618"
       fy="7.4082398"
       r="3.7041199"
       gradientUnits="userSpaceOnUse"
       gradientTransform="matrix(0.76530601,0,0,0.76530612,-0.15118798,0.01889887)" />
    <linearGradient
       inkscape:collect="always"
       xlink:href="#linearGradient5821"
       id="linearGradient1469"
       x1="6.8790803"
       y1="2.3812201"
       x2="6.8790803"
       y2="11.9061"
       gradientUnits="userSpaceOnUse"
       gradientTransform="translate(-0.52916002,-0.7937401)" />
  </defs>
  <sodipodi:namedview
     id="base"
     pagecolor="#ffffff"
     bordercolor="#666666"
     borderopacity="1.0"
     inkscape:pageopacity="0.0"
     inkscape:pageshadow="2"
     inkscape:zoom="12.40625"
     inkscape:cx="31.193955"
     inkscape:cy="32"
     inkscape:document-units="px"
     inkscape:current-layer="svg1886"
     inkscape:document-rotation="0"
     showgrid="false"
     units="px"
     inkscape:window-width="1920"
     inkscape:window-height="1006"
     inkscape:window-x="0"
     inkscape:window-y="0"
     inkscape:window-maximized="1"
     inkscape:pagecheckerboard="0"
     showguides="false"
     inkscape:showpageshadow="2"
     inkscape:deskcolor="#d1d1d1" />
  <metadata
     id="metadata1883">
    <rdf:RDF>
      <cc:Work
         rdf:about="">
        <dc:format>image/svg+xml</dc:format>
        <dc:type
           rdf:resource="http://purl.org/dc/dcmitype/StillImage" />
      </cc:Work>
    </rdf:RDF>
  </metadata>
  <rect
     style="fill:url(#linearGradient1469);fill-opacity:1;stroke-width:0.52916;stroke-linecap:round;stroke-linejoin:round"
     id="rect907"
     width="12.69984"
     height="9.5248804"
     x="0"
     y="1.5874799"
     ry="0.52916002" />
  <path
     id="rect9516"
     style="opacity:0.5;fill:#ffffff;stroke-width:0.275844;stroke-linecap:round;stroke-linejoin:round"
     d="M 1.0583203,2.38122 H 11.64152 c 0.146578,0 0.26458,0.1180027 0.26458,0.26458 v 7.40824 c 0,0.146578 -0.118002,0.26458 -0.26458,0.26458 H 1.0583203 c -0.14657743,0 -0.26458003,-0.118002 -0.26458003,-0.26458 V 2.6458 c 0,-0.1465773 0.1180026,-0.26458 0.26458003,-0.26458 z"
     sodipodi:nodetypes="sssssssss" />
  <path
     id="rect16371-5"
     style="fill:#0a56a0;fill-opacity:1;stroke-width:0.432029;stroke-linecap:round;stroke-linejoin:round"
     d="m 7.9374,3.70412 c -0.1461235,0 -0.26458,0.1184565 -0.26458,0.26458 V 5.55618 H 6.08534 v 0.26458 h 1.58748 c 0.1461235,0 0.26458,-0.1184565 0.26458,-0.26458 V 3.9687 H 8.99572 V 3.70412 Z"
     sodipodi:nodetypes="sscccsscccs" />
  <circle
     style="opacity:1;fill:url(#radialGradient24600);fill-opacity:1;stroke:none;stroke-width:0.472464;stroke-linecap:round;stroke-linejoin:round;stroke-miterlimit:4;stroke-dasharray:none;stroke-opacity:1"
     id="path24396"
     cx="4.1009898"
     cy="5.6884699"
     r="3.30725" />
  <circle
     style="opacity:1;fill:url(#linearGradient10673);fill-opacity:1;stroke:none;stroke-width:0.558316;stroke-linecap:round;stroke-linejoin:round;stroke-miterlimit:4;stroke-dasharray:none;stroke-opacity:1"
     id="path10577"
     cx="4.1009898"
     cy="5.6884704"
     r="2.51351" />
  <path
     id="rect11079"
     style="opacity:1;fill:#ffffff;fill-opacity:1;stroke:none;stroke-width:0.440967;stroke-linecap:round;stroke-linejoin:round;stroke-miterlimit:4;stroke-dasharray:none;stroke-opacity:1"
     d="m 4.1009896,3.17496 a 2.51351,2.51351 0 0 0 -0.13229,0.00517 V 5.82076 H 6.609332 A 2.51351,2.51351 0 0 0 6.614502,5.68847 2.51351,2.51351 0 0 0 4.100992,3.17496 Z" />
  <path
     id="rect11229"
     style="opacity:1;fill:#f18c0a;fill-opacity:1;stroke:none;stroke-width:0.476244;stroke-linecap:round;stroke-linejoin:round;stroke-miterlimit:4;stroke-dasharray:none;stroke-opacity:1"
     d="M 4.2332796,3.1780605 V 5.55618 H 6.6113991 A 2.51351,2.51351 0 0 0 4.2332796,3.1780605 Z" />
  <path
     id="rect11825"
     style="opacity:1;fill:#0e93e2;stroke-width:0.440967;stroke-linecap:round;stroke-linejoin:round"
     d="m 9.39259,3.17496 h 1.058319 c 0.366443,0 0.66145,0.2950067 0.66145,0.66145 0,0.3664433 -0.295007,0.6614499 -0.66145,0.6614499 H 9.39259 c -0.366443,0 -0.66145,-0.2950066 -0.66145,-0.6614499 0,-0.3664433 0.295007,-0.66145 0.66145,-0.66145 z"
     sodipodi:nodetypes="sssssss" />
  <path
     id="rect11929"
     style="opacity:1;fill:#0e93e2;stroke-width:0.440967;stroke-linecap:round;stroke-linejoin:round"
     d="m 9.39259,5.0270198 h 1.058319 c 0.366443,0 0.66145,0.2950066 0.66145,0.6614499 v 1e-7 c 0,0.3664433 -0.295007,0.66145 -0.66145,0.66145 H 9.39259 c -0.366443,0 -0.66145,-0.2950067 -0.66145,-0.66145 v -1e-7 c 0,-0.3664433 0.295007,-0.6614499 0.66145,-0.6614499 z"
     sodipodi:nodetypes="sssssssss" />
  <path
     id="rect12033"
     style="opacity:1;fill:#0e93e2;stroke-width:0.440967;stroke-linecap:round;stroke-linejoin:round"
     d="m 9.39259,6.8790798 h 1.058319 c 0.366443,0 0.66145,0.2950067 0.66145,0.6614499 v 5e-7 c 0,0.3664434 -0.295007,0.6614501 -0.66145,0.6614501 H 9.39259 c -0.366443,0 -0.66145,-0.2950067 -0.66145,-0.6614501 v -5e-7 c 0,-0.3664432 0.295007,-0.6614499 0.66145,-0.6614499 z"
     sodipodi:nodetypes="sssssssss" />
  <path
     id="rect17985"
     style="opacity:1;fill:#ffffff;stroke-width:0.39687;stroke-linecap:round;stroke-linejoin:round"
     d="m 9.392589,3.4395398 h 1.058321 c 0.219866,0 0.39687,0.177004 0.39687,0.39687 0,0.219866 -0.177004,0.39687 -0.39687,0.39687 H 9.392589 c -0.219866,0 -0.39687,-0.177004 -0.39687,-0.39687 0,-0.219866 0.177004,-0.39687 0.39687,-0.39687 z"
     sodipodi:nodetypes="sssssss" />
  <path
     id="rect18286"
     style="opacity:1;fill:#ffffff;stroke-width:0.39687;stroke-linecap:round;stroke-linejoin:round"
     d="m 9.392589,5.2915998 h 1.058321 c 0.219866,0 0.39687,0.177004 0.39687,0.39687 0,0.219866 -0.177004,0.39687 -0.39687,0.39687 H 9.392589 c -0.219866,0 -0.39687,-0.177004 -0.39687,-0.39687 0,-0.219866 0.177004,-0.39687 0.39687,-0.39687 z"
     sodipodi:nodetypes="sssssss" />
  <path
     id="rect18329"
     style="opacity:1;fill:#ffffff;stroke-width:0.39687;stroke-linecap:round;stroke-linejoin:round"
     d="m 9.392589,7.1436598 h 1.05832 c 0.219867,0 0.39687,0.177004 0.39687,0.39687 0,0.219866 -0.177003,0.39687 -0.39687,0.39687 h -1.05832 c -0.219866,0 -0.39687,-0.177004 -0.39687,-0.39687 0,-0.219866 0.177004,-0.39687 0.39687,-0.39687 z"
     sodipodi:nodetypes="sssssss" />
  <circle
     style="opacity:1;fill:url(#linearGradient18679);fill-opacity:1;stroke:none;stroke-width:0.39687;stroke-linecap:round;stroke-linejoin:round;stroke-miterlimit:4;stroke-dasharray:none;stroke-opacity:1"
     id="path18591"
     cx="10.450911"
     cy="3.8364096"
     r="0.39686999" />
  <circle
     style="opacity:1;fill:url(#linearGradient19205);fill-opacity:1;stroke:none;stroke-width:0.39687;stroke-linecap:round;stroke-linejoin:round;stroke-miterlimit:4;stroke-dasharray:none;stroke-opacity:1"
     id="path19117"
     cx="10.450911"
     cy="5.6884694"
     r="0.39686999" />
  <circle
     style="opacity:1;fill:url(#linearGradient19811);fill-opacity:1;stroke:none;stroke-width:0.39687;stroke-linecap:round;stroke-linejoin:round;stroke-miterlimit:4;stroke-dasharray:none;stroke-opacity:1"
     id="path19723"
     cx="9.3925896"
     cy="7.5405288"
     r="0.39686999" />
  <path
     id="rect20137"
     style="opacity:1;fill:#0175d2;fill-opacity:1;stroke-width:0.52916;stroke-linecap:round;stroke-linejoin:round"
     d="m 1.85206,8.9957197 h 8.99572 c 0.146577,0 0.26458,0.118002 0.26458,0.26458 0,0.146577 -0.118003,0.26458 -0.26458,0.26458 H 1.85206 c -0.1465773,0 -0.26458,-0.118003 -0.26458,-0.26458 0,-0.146578 0.1180027,-0.26458 0.26458,-0.26458 z"
     sodipodi:nodetypes="sssssss" />
  <path
     id="rect20656"
     style="opacity:1;fill:#f18c0a;fill-opacity:1;stroke-width:0.52916;stroke-linecap:round;stroke-linejoin:round"
     d="m 1.85206,8.9957197 h 4.2332797 c 0.1465774,0 0.2645801,0.118002 0.2645801,0.26458 0,0.146577 -0.1180027,0.26458 -0.2645801,0.26458 H 1.85206 c -0.1465773,0 -0.26458,-0.118003 -0.26458,-0.26458 0,-0.146578 0.1180027,-0.26458 0.26458,-0.26458 z"
     sodipodi:nodetypes="sssssss" />
  <circle
     style="opacity:1;fill:#ffffff;fill-opacity:1;stroke:none;stroke-width:0.39687;stroke-linecap:round;stroke-linejoin:round;stroke-miterlimit:4;stroke-dasharray:none;stroke-opacity:1"
     id="path23648"
     cx="6.3499198"
     cy="9.2602997"
     r="0.79373997" />
  <circle
     style="opacity:1;fill:url(#linearGradient23862);fill-opacity:1;stroke:none;stroke-width:0.52916;stroke-linecap:round;stroke-linejoin:round;stroke-miterlimit:4;stroke-dasharray:none;stroke-opacity:1"
     id="path23774"
     cx="6.3499198"
     cy="9.2603006"
     r="0.52916002" />
</svg>
