<?xml version="1.0" encoding="UTF-8" standalone="no"?>
<svg
   width="48"
   height="48"
   viewBox="0 0 12.69984 12.69984"
   version="1.1"
   id="svg1886"
   inkscape:version="1.1.2 (0a00cf5339, 2022-02-04, custom)"
   sodipodi:docname="regedit.svg"
   xmlns:inkscape="http://www.inkscape.org/namespaces/inkscape"
   xmlns:sodipodi="http://sodipodi.sourceforge.net/DTD/sodipodi-0.dtd"
   xmlns="http://www.w3.org/2000/svg"
   xmlns:svg="http://www.w3.org/2000/svg"
   xmlns:rdf="http://www.w3.org/1999/02/22-rdf-syntax-ns#"
   xmlns:cc="http://creativecommons.org/ns#"
   xmlns:dc="http://purl.org/dc/elements/1.1/">
  <defs
     id="defs1880" />
  <sodipodi:namedview
     id="base"
     pagecolor="#ffffff"
     bordercolor="#666666"
     borderopacity="1.0"
     inkscape:pageopacity="0.0"
     inkscape:pageshadow="2"
     inkscape:zoom="16.458333"
     inkscape:cx="23.96962"
     inkscape:cy="24"
     inkscape:document-units="px"
     inkscape:current-layer="svg1886"
     inkscape:document-rotation="0"
     showgrid="false"
     units="px"
     inkscape:window-width="1920"
     inkscape:window-height="1005"
     inkscape:window-x="0"
     inkscape:window-y="0"
     inkscape:window-maximized="1"
     inkscape:pagecheckerboard="0"
     showguides="false" />
  <metadata
     id="metadata1883">
    <rdf:RDF>
      <cc:Work
         rdf:about="">
        <dc:format>image/svg+xml</dc:format>
        <dc:type
           rdf:resource="http://purl.org/dc/dcmitype/StillImage" />
      </cc:Work>
    </rdf:RDF>
  </metadata>
  <path
     id="rect8880"
     style="fill:#48b3f1;fill-opacity:1;stroke-width:0.462338;stroke-linecap:round;stroke-linejoin:round"
     d="M 0.79374,4.49786 V 8.20198 H 4.49786 V 4.49786 Z M 4.49786,8.20198 V 11.9061 H 8.20198 V 8.20198 Z"
     sodipodi:nodetypes="cccccccccc" />
  <path
     id="rect903"
     style="opacity:1;fill:#69cafd;fill-opacity:1;stroke-width:0.26458"
     d="m 1.3229,0.79374 c -0.2931546,0 -0.52916,0.2360054 -0.52916,0.52916 V 4.49786 H 4.49786 V 1.3229 C 4.49786,1.0297454 4.2618546,0.79374 3.9687,0.79374 Z M 4.49786,4.49786 V 8.20198 H 8.20198 V 5.02702 c 0,-0.2931546 -0.2360054,-0.52916 -0.52916,-0.52916 z m 3.70412,3.70412 v 3.70412 h 3.17496 c 0.293154,0 0.52916,-0.236006 0.52916,-0.52916 v -2.6458 c 0,-0.2931546 -0.236006,-0.52916 -0.52916,-0.52916 z" />
  <path
     id="rect12659"
     style="opacity:1;fill:#08a3e7;stroke-width:0.26458"
     d="M 4.4978599,8.2019799 V 11.9061 H 1.3229 c -0.2931546,0 -0.52915998,-0.236006 -0.52915998,-0.52916 V 8.2019799 Z"
     sodipodi:nodetypes="ccsscc" />
</svg>
