<?xml version="1.0" encoding="UTF-8" standalone="no"?>
<!-- Created with Inkscape (http://www.inkscape.org/) -->

<svg
   width="48"
   height="48"
   viewBox="0 0 12.7 12.7"
   version="1.1"
   id="svg5"
   inkscape:version="1.2.1 (9c6d41e410, 2022-07-14)"
   sodipodi:docname="system-file-manager.svg"
   xmlns:inkscape="http://www.inkscape.org/namespaces/inkscape"
   xmlns:sodipodi="http://sodipodi.sourceforge.net/DTD/sodipodi-0.dtd"
   xmlns:xlink="http://www.w3.org/1999/xlink"
   xmlns="http://www.w3.org/2000/svg"
   xmlns:svg="http://www.w3.org/2000/svg">
  <sodipodi:namedview
     id="namedview7"
     pagecolor="#ffffff"
     bordercolor="#666666"
     borderopacity="1.0"
     inkscape:pageshadow="2"
     inkscape:pageopacity="0.0"
     inkscape:pagecheckerboard="0"
     inkscape:document-units="px"
     showgrid="false"
     units="px"
     height="64px"
     inkscape:zoom="16.5"
     inkscape:cx="23.969697"
     inkscape:cy="24"
     inkscape:window-width="1920"
     inkscape:window-height="1007"
     inkscape:window-x="0"
     inkscape:window-y="0"
     inkscape:window-maximized="1"
     inkscape:current-layer="svg5"
     showguides="false"
     inkscape:showpageshadow="2"
     inkscape:deskcolor="#d1d1d1" />
  <defs
     id="defs2">
    <linearGradient
       inkscape:collect="always"
       id="linearGradient12673">
      <stop
         style="stop-color:#ffffff;stop-opacity:1;"
         offset="0"
         id="stop12669" />
      <stop
         style="stop-color:#ffffff;stop-opacity:0;"
         offset="1"
         id="stop12671" />
    </linearGradient>
    <linearGradient
       inkscape:collect="always"
       xlink:href="#linearGradient12673"
       id="linearGradient5594"
       x1="6"
       y1="22"
       x2="47.936607"
       y2="22.007439"
       gradientUnits="userSpaceOnUse"
       gradientTransform="matrix(0.26458333,0,0,0.26458333,-0.79374996,-1.3229166)" />
    <linearGradient
       inkscape:collect="always"
       xlink:href="#linearGradient11972"
       id="linearGradient6679"
       x1="20"
       y1="15"
       x2="41"
       y2="43"
       gradientUnits="userSpaceOnUse"
       gradientTransform="matrix(0.26458333,0,0,0.26458333,-0.52916664,0)" />
    <linearGradient
       inkscape:collect="always"
       xlink:href="#linearGradient13470"
       id="linearGradient13472"
       x1="7.5526657"
       y1="9.7131014"
       x2="12.187556"
       y2="15.257011"
       gradientUnits="userSpaceOnUse"
       gradientTransform="matrix(0.60202274,0,0,0.74999994,0.51441165,0.91725707)" />
    <linearGradient
       inkscape:collect="always"
       id="linearGradient13470">
      <stop
         style="stop-color:#1191de;stop-opacity:1;"
         offset="0"
         id="stop13466" />
      <stop
         style="stop-color:#0061b3;stop-opacity:1"
         offset="1"
         id="stop13468" />
    </linearGradient>
    <linearGradient
       inkscape:collect="always"
       id="linearGradient11972">
      <stop
         style="stop-color:#fed761;stop-opacity:1;"
         offset="0"
         id="stop11968" />
      <stop
         style="stop-color:#f5b302;stop-opacity:1"
         offset="1"
         id="stop11970" />
    </linearGradient>
  </defs>
  <path
     id="rect846"
     style="fill:#de9e00;fill-opacity:1;stroke-width:0.529167;stroke-linecap:round;stroke-linejoin:round;stroke-dasharray:6.35, 0.529167"
     d="m 1.5875,1.3229167 c -0.438376,0 -0.79375,0.3553739 -0.79375,0.7937499 v 7.4083333 h 11.1125 V 3.4395833 c 0,-0.2931583 -0.236008,-0.5291667 -0.529166,-0.5291667 H 6.6145833 L 5.5562499,1.8520833 C 5.1950257,1.4985387 4.9376541,1.3229167 4.4979166,1.3229167 Z"
     sodipodi:nodetypes="ssccssccss" />
  <path
     id="rect1170"
     style="fill:url(#linearGradient6679);fill-opacity:1;stroke-width:0.700024;stroke-linecap:round;stroke-linejoin:round;stroke-dasharray:8.40026, 0.700024"
     d="M 6.0854167,3.175 4.7625,4.4979167 H 1.8520833 1.5875 c -0.4383756,0 -0.79375,0.3553745 -0.79375,0.79375 v 0.2645833 4.7625 c 3.3e-7,0.584501 0.4738322,1.058333 1.0583333,1.058333 h 8.9958337 c 0.584501,0 1.058333,-0.473832 1.058333,-1.058333 V 3.7041667 C 11.90625,3.4110087 11.670242,3.175 11.377083,3.175 Z"
     sodipodi:nodetypes="cccssccsscssc" />
  <path
     id="rect13130"
     style="fill:url(#linearGradient13472);stroke-width:0.355575;stroke-linecap:round;stroke-linejoin:round;stroke-dasharray:4.26688, 0.355575"
     d="m 3.4395843,8.2020827 h 5.8208312 c 0.4397382,0 0.7937515,0.3219442 0.7937515,0.7937512 V 11.377083 H 2.6458333 V 8.9958339 c 0,-0.4397377 0.354013,-0.7937512 0.793751,-0.7937512 z"
     sodipodi:nodetypes="sssccss" />
  <path
     id="rect13977"
     style="fill:#0f4a8a;stroke-width:0.374178;stroke-linecap:round;stroke-linejoin:round;stroke-dasharray:4.49013, 0.374178"
     d="m 3.9687504,9.525 h 4.7625097 c 0.14658,0 0.264584,0.1180002 0.264584,0.2645847 0,0.146581 -0.118,0.2645813 -0.264584,0.2645813 H 3.9687504 c -0.1465783,0 -0.2645837,-0.1179993 -0.2645837,-0.2645813 C 3.7041667,9.6430041 3.8221709,9.525 3.9687504,9.525 Z"
     sodipodi:nodetypes="sssssss" />
  <path
     id="rect1170-75"
     style="opacity:0.3;fill:url(#linearGradient5594);fill-opacity:1;stroke-width:0.700024;stroke-linecap:round;stroke-linejoin:round;stroke-dasharray:8.40026, 0.700024"
     d="M 6.0854166,3.175 4.7625,4.4979167 h -3.175 c -0.438376,0 -0.79375,0.355374 -0.79375,0.7937499 V 5.55625 c 0,-0.438376 0.355374,-0.79375 0.79375,-0.79375 h 3.175 L 6.0854166,3.4395833 h 5.2916674 c 0.293159,0 0.529166,0.2360083 0.529166,0.5291667 V 3.7041666 C 11.90625,3.4110083 11.670243,3.175 11.377084,3.175 Z"
     sodipodi:nodetypes="ccsscsccscssc" />
</svg>
