<?xml version="1.0" encoding="UTF-8" standalone="no"?>
<!-- Created with Inkscape (http://www.inkscape.org/) -->

<svg
   width="16"
   height="16"
   viewBox="0 0 4.2333333 4.2333335"
   version="1.1"
   id="svg5"
   inkscape:version="1.2.1 (9c6d41e410, 2022-07-14, custom)"
   sodipodi:docname="accessories-clock.svg"
   xmlns:inkscape="http://www.inkscape.org/namespaces/inkscape"
   xmlns:sodipodi="http://sodipodi.sourceforge.net/DTD/sodipodi-0.dtd"
   xmlns:xlink="http://www.w3.org/1999/xlink"
   xmlns="http://www.w3.org/2000/svg"
   xmlns:svg="http://www.w3.org/2000/svg">
  <sodipodi:namedview
     id="namedview7"
     pagecolor="#ffffff"
     bordercolor="#666666"
     borderopacity="1.0"
     inkscape:pageshadow="2"
     inkscape:pageopacity="0.0"
     inkscape:pagecheckerboard="0"
     inkscape:document-units="px"
     showgrid="false"
     units="px"
     inkscape:zoom="51.6875"
     inkscape:cx="8"
     inkscape:cy="8"
     inkscape:window-width="1920"
     inkscape:window-height="1029"
     inkscape:window-x="0"
     inkscape:window-y="0"
     inkscape:window-maximized="1"
     inkscape:current-layer="svg5"
     inkscape:showpageshadow="2"
     inkscape:deskcolor="#d1d1d1" />
  <defs
     id="defs2">
    <linearGradient
       inkscape:collect="always"
       id="linearGradient3161">
      <stop
         style="stop-color:#c7ccd1;stop-opacity:1;"
         offset="0"
         id="stop3157" />
      <stop
         style="stop-color:#fdfdfd;stop-opacity:1"
         offset="1"
         id="stop3159" />
    </linearGradient>
    <linearGradient
       inkscape:collect="always"
       id="linearGradient1611">
      <stop
         style="stop-color:#9ca3a8;stop-opacity:1;"
         offset="0"
         id="stop1607" />
      <stop
         style="stop-color:#63737d;stop-opacity:1"
         offset="1"
         id="stop1609" />
    </linearGradient>
    <linearGradient
       inkscape:collect="always"
       xlink:href="#linearGradient1611"
       id="linearGradient1613"
       x1="32.040398"
       y1="-0.12151405"
       x2="32.010529"
       y2="64.001617"
       gradientUnits="userSpaceOnUse"
       gradientTransform="scale(0.06614583)" />
    <linearGradient
       inkscape:collect="always"
       xlink:href="#linearGradient3161"
       id="linearGradient3163"
       x1="8.4666662"
       y1="15.345833"
       x2="8.4666662"
       y2="1.5874995"
       gradientUnits="userSpaceOnUse"
       gradientTransform="matrix(0.23076923,0,0,0.23076923,0.16282074,0.16282074)" />
  </defs>
  <path
     id="rect4729"
     style="fill:#3f4545;stroke-width:0.0661457"
     d="m 3.8719421,0.28401712 0.3274053,0.32740529 c 0.025912,0.0259118 0.025912,0.0676325 0,0.0935443 L 3.8799669,1.024347 c -0.025912,0.025912 -0.067632,0.025912 -0.093544,0 L 3.4590174,0.69694178 c -0.025912,-0.0259117 -0.025912,-0.0676325 0,-0.0935443 L 3.7783979,0.28401719 c 0.025912,-0.0259118 0.067633,-0.0259118 0.093544,-7e-8 z"
     sodipodi:nodetypes="sssssssss" />
  <path
     id="rect967"
     style="fill:url(#linearGradient1613);fill-opacity:1;stroke-width:0.0868772"
     d="M 2.1166667,0 A 2.1166668,2.1166668 0 0 0 0,2.1166667 V 3.9687499 C 0,4.1153291 0.11800416,4.2333334 0.26458334,4.2333334 H 3.9687499 c 0.1465792,0 0.2645835,-0.1180043 0.2645835,-0.2645835 V 2.1166667 A 2.1166668,2.1166668 0 0 0 2.1166667,0 Z" />
  <circle
     style="fill:url(#linearGradient3163);fill-opacity:1;stroke-width:0.0610576"
     id="path2899"
     cx="2.1166668"
     cy="2.1166668"
     r="1.5875" />
  <path
     id="rect3855"
     style="fill:#d73a02;stroke-width:0.132291"
     d="m 2.1166667,2.1166667 c 0.07329,0 0.1322916,0.059002 0.1322916,0.1322917 v 1.0583263 c 0,0.07329 -0.059002,0.1322917 -0.1322916,0.1322917 -0.07329,0 -0.1322917,-0.059002 -0.1322917,-0.1322917 V 2.2489582 c 0,-0.07329 0.059002,-0.1322917 0.1322917,-0.1322915 z"
     sodipodi:nodetypes="sssssss" />
  <path
     id="rect4157"
     style="fill:#3f4545;stroke-width:0.0661457"
     d="m 1.0927087,1.5280842 c -0.036645,0.063471 -0.015047,0.1440689 0.048422,0.1807137 L 2.0003904,2.2048917 C 2.063861,2.2415365 2.1444595,2.2199403 2.1811042,2.1564696 2.217749,2.092999 2.1961527,2.0124005 2.132682,1.9757558 L 1.2734225,1.4796621 C 1.2099519,1.4430173 1.1293534,1.4646135 1.0927087,1.5280842 Z" />
  <path
     id="rect4625"
     style="fill:#3f4545;stroke-width:0.0989238"
     d="m 3.1040645,1.1682939 c 0.038753,0.038753 0.038753,0.1011481 2e-7,0.1399006 L 2.2342356,2.1780229 c -0.038753,0.038753 -0.1011481,0.038753 -0.1399006,-2e-7 -0.038753,-0.038752 -0.038753,-0.101148 10e-8,-0.139899 L 2.964165,1.1682941 c 0.038752,-0.038752 0.1011481,-0.038752 0.1398995,-2e-7 z"
     sodipodi:nodetypes="scsccss" />
  <circle
     style="fill:#0c0c0c;fill-opacity:1;stroke-width:0.0661457"
     id="path3553"
     cx="2.1166668"
     cy="2.1166668"
     r="0.26458335" />
</svg>
