<?xml version="1.0" encoding="UTF-8" standalone="no"?>
<!-- Created with Inkscape (http://www.inkscape.org/) -->

<svg
   width="16"
   height="16"
   viewBox="0 0 4.2333333 4.2333335"
   version="1.1"
   id="svg5"
   inkscape:version="1.1.2 (0a00cf5339, 2022-02-04, custom)"
   sodipodi:docname="accessories-archiver.svg"
   xmlns:inkscape="http://www.inkscape.org/namespaces/inkscape"
   xmlns:sodipodi="http://sodipodi.sourceforge.net/DTD/sodipodi-0.dtd"
   xmlns:xlink="http://www.w3.org/1999/xlink"
   xmlns="http://www.w3.org/2000/svg"
   xmlns:svg="http://www.w3.org/2000/svg">
  <sodipodi:namedview
     id="namedview7"
     pagecolor="#ffffff"
     bordercolor="#666666"
     borderopacity="1.0"
     inkscape:pageshadow="2"
     inkscape:pageopacity="0.0"
     inkscape:pagecheckerboard="0"
     inkscape:document-units="px"
     showgrid="false"
     units="px"
     height="64px"
     inkscape:zoom="57.071133"
     inkscape:cx="8.0075508"
     inkscape:cy="7.9987898"
     inkscape:window-width="1920"
     inkscape:window-height="1004"
     inkscape:window-x="0"
     inkscape:window-y="24"
     inkscape:window-maximized="1"
     inkscape:current-layer="svg5" />
  <defs
     id="defs2">
    <linearGradient
       inkscape:collect="always"
       id="linearGradient6118">
      <stop
         style="stop-color:#999999;stop-opacity:1;"
         offset="0"
         id="stop6114" />
      <stop
         style="stop-color:#7e7e7e;stop-opacity:1"
         offset="1"
         id="stop6116" />
    </linearGradient>
    <linearGradient
       inkscape:collect="always"
       id="linearGradient5150">
      <stop
         style="stop-color:#aaaaaa;stop-opacity:1;"
         offset="0"
         id="stop5146" />
      <stop
         style="stop-color:#f6f6f5;stop-opacity:1"
         offset="1"
         id="stop5148" />
    </linearGradient>
    <linearGradient
       inkscape:collect="always"
       id="linearGradient4066">
      <stop
         style="stop-color:#d3d3d3;stop-opacity:1;"
         offset="0"
         id="stop4062" />
      <stop
         style="stop-color:#e1e1e1;stop-opacity:1"
         offset="0.2"
         id="stop4454" />
      <stop
         style="stop-color:#a3a3a3;stop-opacity:1"
         offset="1"
         id="stop4064" />
    </linearGradient>
    <linearGradient
       inkscape:collect="always"
       id="linearGradient4405">
      <stop
         style="stop-color:#fcbc19;stop-opacity:1;"
         offset="0"
         id="stop4401" />
      <stop
         style="stop-color:#f4b61f;stop-opacity:1"
         offset="1"
         id="stop4403" />
    </linearGradient>
    <linearGradient
       inkscape:collect="always"
       id="linearGradient12673">
      <stop
         style="stop-color:#ffffff;stop-opacity:1;"
         offset="0"
         id="stop12669" />
      <stop
         style="stop-color:#ffffff;stop-opacity:0;"
         offset="1"
         id="stop12671" />
    </linearGradient>
    <linearGradient
       inkscape:collect="always"
       id="linearGradient11972">
      <stop
         style="stop-color:#fce798;stop-opacity:1"
         offset="0"
         id="stop11968" />
      <stop
         style="stop-color:#ffc937;stop-opacity:1"
         offset="1"
         id="stop11970" />
    </linearGradient>
    <linearGradient
       inkscape:collect="always"
       xlink:href="#linearGradient11972"
       id="linearGradient11974"
       x1="5.2916665"
       y1="5.5562496"
       x2="13.758334"
       y2="13.493751"
       gradientUnits="userSpaceOnUse"
       gradientTransform="matrix(0.25000001,0,0,0.25000001,0.13229176,0.26458328)" />
    <linearGradient
       inkscape:collect="always"
       xlink:href="#linearGradient4405"
       id="linearGradient4407"
       x1="32"
       y1="10.5"
       x2="32"
       y2="18.5"
       gradientUnits="userSpaceOnUse"
       gradientTransform="matrix(0.06614584,0,0,0.06614584,0.13229176,-0.33072927)" />
    <linearGradient
       inkscape:collect="always"
       xlink:href="#linearGradient12673"
       id="linearGradient5594"
       x1="-2.0000002"
       y1="27"
       x2="61.999996"
       y2="27"
       gradientUnits="userSpaceOnUse"
       gradientTransform="matrix(0.06614584,0,0,0.06614584,0.13229176,-0.0661459)" />
    <linearGradient
       inkscape:collect="always"
       xlink:href="#linearGradient4066"
       id="linearGradient4068"
       x1="1.0583334"
       y1="2.1166668"
       x2="1.0583334"
       y2="3.96875"
       gradientUnits="userSpaceOnUse" />
    <linearGradient
       inkscape:collect="always"
       xlink:href="#linearGradient5150"
       id="linearGradient5152"
       x1="3.4395833"
       y1="3.1750002"
       x2="2.9104166"
       y2="1.8520834"
       gradientUnits="userSpaceOnUse"
       gradientTransform="scale(3.7795275)" />
    <linearGradient
       inkscape:collect="always"
       xlink:href="#linearGradient6118"
       id="linearGradient6120"
       x1="4.2333336"
       y1="2.1166668"
       x2="4.2333336"
       y2="2.9104171"
       gradientUnits="userSpaceOnUse" />
  </defs>
  <path
     id="rect846"
     style="fill:url(#linearGradient4407);fill-opacity:1;stroke-width:0.132292;stroke-linecap:round;stroke-linejoin:round;stroke-dasharray:1.5875, 0.132292"
     d="M 0.26458339,0.26456424 C 0.12433173,0.26504664 0.00882423,0.37488644 0.00129195,0.51493653 0.00527395,0.81114257 -5.125e-8,2.6458525 -5.125e-8,2.6458525 H 4.2333334 V 0.9260417 c 0,-0.07329 -0.059154,-0.13701093 -0.1322916,-0.1322917 H 2.0505209 L 1.7859376,0.39685584 C 1.6956316,0.30846974 1.6312886,0.26456424 1.5213542,0.26456424 Z"
     sodipodi:nodetypes="ccccssccsc" />
  <path
     id="rect1170"
     style="fill:url(#linearGradient11974);fill-opacity:1;stroke-width:0.175006;stroke-linecap:round;stroke-linejoin:round;stroke-dasharray:2.10006, 0.175006"
     d="M 2.1166667,1.0583333 1.6536459,1.5875001 H 0.26458332 C 0.11800411,1.5875001 -4.625e-8,1.7055043 -4.625e-8,1.8520835 V 3.571875 c 0,0.07329 0.05900209625,0.1322917 0.13229166625,0.1322917 H 4.1010417 c 0.07329,0 0.1322916,-0.059002 0.1322916,-0.1322917 v -2.38125 c 0,-0.07329 -0.059002,-0.1322917 -0.1322916,-0.1322917 z"
     sodipodi:nodetypes="ccsccccccsc" />
  <path
     id="rect1170-2"
     style="fill:#e4a729;fill-opacity:1;stroke-width:0.175006;stroke-linecap:round;stroke-linejoin:round;stroke-dasharray:2.10006, 0.175006"
     d="m 0,3.3072917 v 0.2645834 c 0,0.07329 0.059002,0.1322917 0.1322917,0.1322917 h 3.96875 c 0.07329,0 0.1322917,-0.059002 0.1322917,-0.1322917 V 3.3072917 c 0,0.073289 -0.059002,0.1322917 -0.1322917,0.1322917 h -3.96875 C 0.0590017,3.4395834 0,3.3805814 0,3.3072917 Z"
     sodipodi:nodetypes="csssscssc" />
  <path
     id="rect1170-75"
     style="opacity:0.3;fill:url(#linearGradient5594);fill-opacity:1;stroke-width:0.175006;stroke-linecap:round;stroke-linejoin:round;stroke-dasharray:2.10006, 0.175006"
     d="M 2.1166667,1.0583333 1.6536459,1.5875001 H 0.26458338 C 0.11800422,1.5875001 6.375e-8,1.7055043 6.375e-8,1.8520835 V 1.9843752 C 6.375e-8,1.837796 0.11800422,1.7197918 0.26458338,1.7197918 H 1.7197917 L 2.1828125,1.190625 h 1.9182292 c 0.07329,0 0.1322917,0.059002 0.1322917,0.1322917 V 1.1906249 c 0,-0.07329 -0.059002,-0.1322916 -0.1322917,-0.1322916 z"
     sodipodi:nodetypes="ccsscsccscssc" />
  <rect
     style="fill:#9b8441;fill-opacity:1;stroke-width:0.264583"
     id="rect3074"
     width="4.2333336"
     height="0.79374999"
     x="1.3877788e-17"
     y="2.1166668" />
  <rect
     style="opacity:1;fill:#a7a7a7;fill-opacity:1;stroke-width:0.264583"
     id="rect6824"
     width="0.26458335"
     height="0.79374993"
     x="1.3877788e-17"
     y="2.1166668" />
  <path
     id="rect5034"
     style="fill:url(#linearGradient5152);fill-opacity:1;stroke-width:0.999999"
     d="m 1,8 1e-7,1.0000003 -1.000000011348119,0 0,0.9999997 H 1.0000001 L 1,11 h 4 v -1 h 1 v 1 h 1 v -1 h 1 v 1 h 1 v -1 h 1 v 1 h 1 v -1 h 1 v 1 h 1 v -1 h 1 v 1 h 1 V 8 H 13 V 9 H 12 V 8 H 11 V 9 H 10 V 8 H 9 V 9 H 8 V 8 H 7 V 9 H 6 V 8 H 5 V 9 H 4 V 8 Z"
     transform="scale(0.26458334)"
     sodipodi:nodetypes="ccccccccccccccccccccccccccccccccccccccccccccccccc" />
  <rect
     style="fill:url(#linearGradient4068);fill-opacity:1;stroke-width:0.264583"
     id="rect3442"
     width="0.79374999"
     height="1.8520833"
     x="0.26458335"
     y="2.1166668" />
  <rect
     style="fill:#747474;fill-opacity:1;stroke-width:0.264583"
     id="rect4652"
     width="0.26458335"
     height="0.26458335"
     x="0.5291667"
     y="2.3812501" />
  <rect
     style="fill:url(#linearGradient6120);fill-opacity:1;stroke-width:0.264583"
     id="rect6090"
     width="0.2645835"
     height="0.79375017"
     x="3.96875"
     y="2.1166668" />
  <rect
     style="opacity:1;fill:#74550e;fill-opacity:1;stroke-width:0.264583"
     id="rect7104"
     width="0.26458335"
     height="0.26458335"
     x="0.5291667"
     y="3.4395835" />
</svg>
