<?xml version="1.0" encoding="UTF-8" standalone="no"?>
<!-- Created with Inkscape (http://www.inkscape.org/) -->

<svg
   width="16"
   height="16"
   viewBox="0 0 4.2333333 4.2333335"
   version="1.1"
   id="svg5"
   inkscape:version="1.1.2 (0a00cf5339, 2022-02-04)"
   sodipodi:docname="caja-actions.svg"
   xmlns:inkscape="http://www.inkscape.org/namespaces/inkscape"
   xmlns:sodipodi="http://sodipodi.sourceforge.net/DTD/sodipodi-0.dtd"
   xmlns:xlink="http://www.w3.org/1999/xlink"
   xmlns="http://www.w3.org/2000/svg"
   xmlns:svg="http://www.w3.org/2000/svg">
  <sodipodi:namedview
     id="namedview7"
     pagecolor="#ffffff"
     bordercolor="#666666"
     borderopacity="1.0"
     inkscape:pageshadow="2"
     inkscape:pageopacity="0.0"
     inkscape:pagecheckerboard="0"
     inkscape:document-units="px"
     showgrid="false"
     units="px"
     height="64px"
     inkscape:zoom="40.355594"
     inkscape:cx="5.5010961"
     inkscape:cy="7.6197615"
     inkscape:window-width="1920"
     inkscape:window-height="1011"
     inkscape:window-x="0"
     inkscape:window-y="0"
     inkscape:window-maximized="1"
     inkscape:current-layer="svg5" />
  <defs
     id="defs2">
    <linearGradient
       inkscape:collect="always"
       id="linearGradient12673">
      <stop
         style="stop-color:#ffffff;stop-opacity:1;"
         offset="0"
         id="stop12669" />
      <stop
         style="stop-color:#ffffff;stop-opacity:0;"
         offset="1"
         id="stop12671" />
    </linearGradient>
    <linearGradient
       inkscape:collect="always"
       id="linearGradient11972">
      <stop
         style="stop-color:#fed761;stop-opacity:1"
         offset="0"
         id="stop11968" />
      <stop
         style="stop-color:#f5b302;stop-opacity:1"
         offset="1"
         id="stop11970" />
    </linearGradient>
    <linearGradient
       inkscape:collect="always"
       xlink:href="#linearGradient11972"
       id="linearGradient11974"
       x1="5.2916665"
       y1="5.5562496"
       x2="13.758334"
       y2="17.727083"
       gradientUnits="userSpaceOnUse"
       gradientTransform="matrix(0.25000001,0,0,0.25000001,-0.13229158,-0.26458339)" />
    <linearGradient
       inkscape:collect="always"
       xlink:href="#linearGradient12673"
       id="linearGradient5594"
       x1="1.9999999"
       y1="27"
       x2="65.91507"
       y2="26.89282"
       gradientUnits="userSpaceOnUse"
       gradientTransform="matrix(0.06614584,0,0,0.06614584,-0.13229158,-0.33072927)" />
    <linearGradient
       inkscape:collect="always"
       id="linearGradient13470">
      <stop
         style="stop-color:#1191de;stop-opacity:1;"
         offset="0"
         id="stop13466" />
      <stop
         style="stop-color:#0061b3;stop-opacity:1"
         offset="1"
         id="stop13468" />
    </linearGradient>
    <linearGradient
       inkscape:collect="always"
       xlink:href="#linearGradient13470"
       id="linearGradient2322"
       x1="1.5875001"
       y1="2.6458335"
       x2="2.6458333"
       y2="4.3656249"
       gradientUnits="userSpaceOnUse" />
    <linearGradient
       inkscape:collect="always"
       xlink:href="#linearGradient7024"
       id="linearGradient7026"
       x1="14.634075"
       y1="13.653037"
       x2="4.0507412"
       y2="3.0697033"
       gradientUnits="userSpaceOnUse"
       gradientTransform="matrix(0.11111112,0,0,0.11111112,2.1369546,2.2988765)" />
    <linearGradient
       inkscape:collect="always"
       id="linearGradient7024">
      <stop
         style="stop-color:#ffffff;stop-opacity:1;"
         offset="0"
         id="stop7020" />
      <stop
         style="stop-color:#f0f0f0;stop-opacity:1"
         offset="0.25"
         id="stop7732" />
      <stop
         style="stop-color:#cccccc;stop-opacity:1"
         offset="1"
         id="stop7022" />
    </linearGradient>
    <linearGradient
       inkscape:collect="always"
       xlink:href="#linearGradient8250"
       id="linearGradient8252"
       x1="5.458415"
       y1="4.8895097"
       x2="12.337581"
       y2="11.768677"
       gradientUnits="userSpaceOnUse"
       gradientTransform="matrix(0.125,0,0,0.125,2.0296775,2.1537072)" />
    <linearGradient
       inkscape:collect="always"
       id="linearGradient8250">
      <stop
         style="stop-color:#0568ba;stop-opacity:1;"
         offset="0"
         id="stop8246" />
      <stop
         style="stop-color:#0568ba;stop-opacity:1"
         offset="0.23999999"
         id="stop9054" />
      <stop
         style="stop-color:#0f4c8a;stop-opacity:1"
         offset="0.80000001"
         id="stop8830" />
      <stop
         style="stop-color:#0f4c8f;stop-opacity:1"
         offset="1"
         id="stop8248" />
    </linearGradient>
    <linearGradient
       inkscape:collect="always"
       xlink:href="#linearGradient6060"
       id="linearGradient6062"
       x1="1.0583334"
       y1="1.0583338"
       x2="15.345835"
       y2="13.229167"
       gradientUnits="userSpaceOnUse"
       gradientTransform="matrix(0.125,0,0,0.125,2.1166667,2.1713068)" />
    <linearGradient
       inkscape:collect="always"
       id="linearGradient6060">
      <stop
         style="stop-color:#8a8f97;stop-opacity:1;"
         offset="0"
         id="stop6056" />
      <stop
         style="stop-color:#8a8f97;stop-opacity:1"
         offset="0.14573747"
         id="stop6576" />
      <stop
         style="stop-color:#616e7a;stop-opacity:1"
         offset="0.89999998"
         id="stop6770" />
      <stop
         style="stop-color:#616e7a;stop-opacity:1"
         offset="1"
         id="stop6058" />
    </linearGradient>
  </defs>
  <path
     id="rect846"
     style="fill:#de9e00;fill-opacity:1;stroke-width:0.132292;stroke-linecap:round;stroke-linejoin:round;stroke-dasharray:1.5875, 0.132292"
     d="M 0.26458344,0.26458334 C 0.12433178,0.26506574 0.00882428,0.37490554 0.001292,0.51495563 0.005274,0.81116167 0,2.38125 0,2.38125 H 4.2333333 V 0.79375007 c 0,-0.07329 -0.059002,-0.13229174 -0.1322916,-0.13229174 H 2.0505209 L 1.7859376,0.39687494 C 1.6956316,0.30848884 1.6312886,0.26458334 1.5213542,0.26458334 Z"
     sodipodi:nodetypes="ccccssccsc" />
  <path
     id="rect1170"
     style="fill:url(#linearGradient11974);fill-opacity:1;stroke-width:0.175006;stroke-linecap:round;stroke-linejoin:round;stroke-dasharray:2.10006, 0.175006"
     d="M 2.0505209,0.79374997 1.6536459,1.0583333 H 0.26458346 C 0.11800425,1.0583333 9e-8,1.1763375 9e-8,1.3229167 v 2.5135417 c 0,0.07329 0.0590021,0.1322917 0.13229167,0.1322917 H 4.1010417 c 0.07329,0 0.1322916,-0.059002 0.1322916,-0.1322917 V 0.92604167 c 0,-0.07329 -0.059002,-0.1322917 -0.1322916,-0.1322917 z"
     sodipodi:nodetypes="ccsccccccsc" />
  <path
     id="rect1170-2"
     style="fill:#e4a729;fill-opacity:1;stroke-width:0.175006;stroke-linecap:round;stroke-linejoin:round;stroke-dasharray:2.10006, 0.175006"
     d="m 0,3.7041667 v 0.1322917 c 0,0.07329 0.059002,0.1322917 0.1322917,0.1322917 h 3.96875 c 0.07329,0 0.1322917,-0.059002 0.1322917,-0.1322917 V 3.7041667 c 0,0.073289 -0.059002,0.1322917 -0.1322917,0.1322917 h -3.96875 C 0.0590017,3.8364584 0,3.7774564 0,3.7041667 Z"
     sodipodi:nodetypes="csssscssc" />
  <path
     id="rect1170-75"
     style="opacity:0.3;fill:url(#linearGradient5594);fill-opacity:1;stroke-width:0.175006;stroke-linecap:round;stroke-linejoin:round;stroke-dasharray:2.10006, 0.175006"
     d="M 2.0505209,0.79374997 1.6536459,1.0583333 H 0.26458341 C 0.11800425,1.0583333 9e-8,1.1763375 9e-8,1.3229167 v 0.1322917 c 0,-0.1465792 0.1182571,-0.255976 0.26458332,-0.2645834 H 1.6536459 l 0.396875,-0.26458333 h 2.0505208 c 0.07329,0 0.1322917,0.059002 0.1322917,0.13229163 V 0.92604157 c 0,-0.07329 -0.059002,-0.1322916 -0.1322917,-0.1322916 z"
     sodipodi:nodetypes="ccsscsccscssc" />
  <path
     id="rect1906"
     style="opacity:1;fill:url(#linearGradient2322);stroke-width:0.529167;stroke-linecap:round;stroke-linejoin:round;fill-opacity:1"
     d="M 1.0583334,2.6458335 H 3.175 c 0.2931583,0 0.5291667,0.2360083 0.5291667,0.5291667 v 0.7937499 h -3.175 V 3.1750002 c 0,-0.2931584 0.23600835,-0.5291667 0.5291667,-0.5291667 z"
     sodipodi:nodetypes="sssccss" />
  <path
     id="rect13977"
     style="fill:#0f4a8a;stroke-width:0.187089;stroke-linecap:round;stroke-linejoin:round;stroke-dasharray:2.24506, 0.187089"
     d="m 1.190625,3.1750001 h 1.8520815 c 0.073289,0 0.1322914,0.059003 0.1322914,0.1322919 0,0.07329 -0.059002,0.1322914 -0.1322914,0.1322914 H 1.190625 c -0.073289,0 -0.1322916,-0.059002 -0.1322916,-0.1322914 0,-0.073289 0.059002,-0.1322919 0.1322916,-0.1322919 z"
     sodipodi:nodetypes="sssssss" />
  <path
     id="path5884"
     style="fill:url(#linearGradient6062);fill-opacity:1;stroke-width:0.0330729"
     d="M 2.8460796,2.223823 C 2.7070961,2.269389 2.5790661,2.3432685 2.4700689,2.4407994 c 0.059495,0.1190866 0.055323,0.2600694 -0.01111,0.3754293 -0.066747,0.1134982 -0.1854383,0.1865038 -0.3168412,0.1948847 -0.016052,0.07176 -0.024582,0.1449981 -0.025451,0.2185267 9.916e-4,0.073564 0.00965,0.1468237 0.025838,0.2185914 0.1312496,0.00849 0.2497672,0.081456 0.3164536,0.1948201 0.066197,0.1148777 0.070657,0.2552244 0.011886,0.3740728 C 2.579372,4.1141094 2.706738,4.1876655 2.8449814,4.2331965 2.9185474,4.1228438 3.042374,4.0565315 3.175,4.0564631 3.3076825,4.0564524 3.4315935,4.1227471 3.5052124,4.2331319 3.6441649,4.1874072 3.7721297,4.1133733 3.8810293,4.0157033 3.8221905,3.8975497 3.8259432,3.7578753 3.8910416,3.6430516 3.9577126,3.5296624 4.0762328,3.4566729 4.2074951,3.4481669 4.2236777,3.3764203 4.2323373,3.3031823 4.2333334,3.2296401 4.2324646,3.1561115 4.2239349,3.0828737 4.2078827,3.0111134 4.0764798,3.0027325 3.9577882,2.9297269 3.8910416,2.8162287 3.8256015,2.7009205 3.8220631,2.5605501 3.8816106,2.4420913 3.7722368,2.343897 3.6436082,2.2695621 3.5039205,2.223823 3.4310896,2.3347139 3.307666,2.4018794 3.175,2.4028172 3.042334,2.4018794 2.9189105,2.3347139 2.8460796,2.223823 Z"
     sodipodi:nodetypes="ccccccccccccccccccccc" />
  <circle
     style="fill:url(#linearGradient7026);fill-opacity:1;stroke-width:0.0293981"
     id="path6952"
     cx="3.1749997"
     cy="3.227917"
     r="0.5291667" />
  <circle
     style="fill:url(#linearGradient8252);fill-opacity:1;stroke-width:0.0330727"
     id="path8010"
     cx="3.1749997"
     cy="3.227917"
     r="0.39687499" />
</svg>
