<?xml version="1.0" encoding="UTF-8" standalone="no"?>
<!-- Created with Inkscape (http://www.inkscape.org/) -->

<svg
   width="16"
   height="16"
   viewBox="0 0 4.2333333 4.2333335"
   version="1.1"
   id="svg5"
   inkscape:version="1.1.2 (0a00cf5339, 2022-02-04)"
   sodipodi:docname="colors.svg"
   xmlns:inkscape="http://www.inkscape.org/namespaces/inkscape"
   xmlns:sodipodi="http://sodipodi.sourceforge.net/DTD/sodipodi-0.dtd"
   xmlns="http://www.w3.org/2000/svg"
   xmlns:svg="http://www.w3.org/2000/svg">
  <sodipodi:namedview
     id="namedview7"
     pagecolor="#ffffff"
     bordercolor="#666666"
     borderopacity="1.0"
     inkscape:pageshadow="2"
     inkscape:pageopacity="0.0"
     inkscape:pagecheckerboard="0"
     inkscape:document-units="px"
     showgrid="false"
     units="px"
     height="64px"
     inkscape:zoom="3.0195313"
     inkscape:cx="-6.9547219"
     inkscape:cy="-13.743855"
     inkscape:window-width="1920"
     inkscape:window-height="1011"
     inkscape:window-x="0"
     inkscape:window-y="0"
     inkscape:window-maximized="1"
     inkscape:current-layer="svg5" />
  <defs
     id="defs2">
    <linearGradient
       id="linearGradient45680"
       x1="-102.06"
       x2="-102.06"
       y1="1.3231"
       y2="19.157"
       gradientTransform="matrix(0.24478919,0,0,0.23704107,27.329358,-0.31362086)"
       gradientUnits="userSpaceOnUse">
      <stop
         stop-color="#ffdc23"
         offset="0"
         id="stop22" />
      <stop
         stop-color="#e6628a"
         offset=".31552"
         id="stop24" />
      <stop
         stop-color="#7b5fc1"
         offset=".55428"
         id="stop26" />
      <stop
         stop-color="#1e9be1"
         offset=".79721"
         id="stop28" />
      <stop
         stop-color="#0082dc"
         offset="1"
         id="stop30" />
    </linearGradient>
    <linearGradient
       id="linearGradient1954"
       x1="-109.09"
       x2="-101.26"
       y1="11.122"
       y2="18.440001"
       gradientTransform="matrix(0.24478919,0,0,0.23704107,27.329358,-0.31362352)"
       gradientUnits="userSpaceOnUse">
      <stop
         stop-color="#64d2eb"
         offset="0"
         id="stop2" />
      <stop
         stop-color="#0082dc"
         offset="1"
         id="stop4" />
    </linearGradient>
    <linearGradient
       id="linearGradient1431"
       x1="-107.04"
       x2="-99.660004"
       y1="6.9531002"
       y2="17.895"
       gradientTransform="matrix(0.24478919,0,0,0.23704107,27.329358,-0.31363419)"
       gradientUnits="userSpaceOnUse">
      <stop
         stop-color="#a578e1"
         offset="0"
         id="stop7" />
      <stop
         stop-color="#5046a0"
         offset="1"
         id="stop9" />
    </linearGradient>
    <linearGradient
       id="linearGradient1439"
       x1="-105"
       x2="-97.016998"
       y1="4.2921"
       y2="13.799"
       gradientTransform="matrix(0.24478919,0,0,0.23704107,27.329358,-0.31354886)"
       gradientUnits="userSpaceOnUse">
      <stop
         stop-color="#eb82aa"
         offset="0"
         id="stop12" />
      <stop
         stop-color="#dc2850"
         offset="1"
         id="stop14" />
    </linearGradient>
    <linearGradient
       id="linearGradient1447"
       x1="-102.1"
       x2="-98.566002"
       y1="1.4752001"
       y2="7.8610001"
       gradientTransform="matrix(0.24478919,0,0,0.23704107,27.326604,-0.31358086)"
       gradientUnits="userSpaceOnUse">
      <stop
         stop-color="#ffdc23"
         offset="0"
         id="stop17" />
      <stop
         stop-color="#f0a019"
         offset="1"
         id="stop19" />
    </linearGradient>
  </defs>
  <path
     d="M 2.347058,2.7643476e-6 C 2.2981685,-3.7063565e-4 2.2572624,0.03720866 2.2572624,0.03720866 2.045561,0.21582216 1.867534,0.38556086 1.7042568,0.55039006 v 1.378e-4 C 1.5070738,0.74954706 1.3519536,0.93360056 1.2150034,1.1100034 0.88927504,1.5295833 0.73478274,1.8645753 0.64407004,2.1300195 h -1.423e-4 c 1.19e-5,4.37e-5 -1.06e-5,9.38e-5 0,1.378e-4 1.76e-5,4.55e-5 -1.54e-5,9.23e-5 0,1.377e-4 -0.120146,0.3517389 -0.1146989,0.5680355 -0.1146989,0.5680355 -2.4e-6,0.84772 0.70961846,1.5350109 1.58502026,1.5349843 0.1390431,0 0.2718846,-0.02212 0.3998902,-0.054982 0.4329089,-0.1111377 0.7928129,-0.392966 0.9975635,-0.769772 V 3.408294 C 3.6275474,3.1950825 3.6994071,2.9559934 3.6994071,2.698336 h 0.00327 c 0,0 0.036698,-0.3792326 -0.2589991,-0.8779338 C 3.399191,1.7646172 3.3212062,1.6582556 3.2636585,1.5859985 c -0.04401,-0.00904 -0.087193,-0.018182 -0.1297846,-0.027422 0.042498,0.00922 0.085736,0.018264 0.1296414,0.027286 C 2.8959833,1.2644707 2.4957627,1.0719077 2.4063994,0.19061376 2.3913688,0.08420676 2.4242511,3.2164348e-5 2.3470562,3.2164348e-5 Z M 1.9740732,1.1039402 c 0.00723,0.00559 0.014638,0.011099 0.0222,0.016674 0.00756,0.00558 0.015291,0.011251 0.023196,0.016812 -0.0079,-0.00556 -0.015635,-0.011099 -0.023196,-0.016674 -0.00756,-0.00558 -0.014974,-0.011225 -0.0222,-0.016812 z m 0.2807851,0.1701867 c 0.018275,0.00891 0.036976,0.017774 0.056353,0.026596 -0.019409,-0.00884 -0.03805,-0.017667 -0.056353,-0.026596 z m 0.1286472,0.058153 c 0.021321,0.00894 0.043341,0.017771 0.065889,0.026596 -0.022516,-0.00881 -0.044599,-0.017665 -0.065889,-0.026596 z m -1.1610887,0.06022 c 0.00346,0.015564 0.00755,0.031198 0.012096,0.046715 -0.00456,-0.015561 -0.00863,-0.031107 -0.012096,-0.046715 z m 1.81585,0.1445569 c 0.015786,0.00364 0.031697,0.00729 0.047816,0.010887 -0.016126,-0.0036 -0.032019,-0.00724 -0.047816,-0.010887 z M 1.6497631,1.9501829 c 0.020567,0.013608 0.042071,0.027062 0.064322,0.040377 -0.022255,-0.013315 -0.043756,-0.026768 -0.064322,-0.040377 z m 0.1336263,0.079927 c 0.023987,0.013003 0.048804,0.02578 0.074569,0.038446 -0.025764,-0.012668 -0.050583,-0.025444 -0.074569,-0.038446 z m 0.3315665,0.1475864 c 0.031408,0.011546 0.063807,0.022903 0.097195,0.034038 -0.033388,-0.011135 -0.065787,-0.022491 -0.097195,-0.034038 z m 0.1479988,0.050574 c 0.034396,0.010921 0.069723,0.021631 0.1061618,0.032107 -0.036439,-0.010477 -0.071766,-0.021187 -0.1061618,-0.032107 z m 0.2187265,0.062838 c 0.019263,0.00501 0.038695,0.00986 0.058489,0.014745 0.019795,0.00489 0.039246,0.010003 0.058346,0.015158 -0.019097,-0.00516 -0.038557,-0.010135 -0.058346,-0.01502 -0.019793,-0.00489 -0.039226,-0.00988 -0.058489,-0.014883 z m 0.4689021,0.1569572 c 0.028996,0.013807 0.056733,0.028 0.08325,0.042718 -0.02652,-0.014719 -0.054251,-0.028913 -0.08325,-0.042718 z m 0.3182103,0.2129074 c 0.018371,0.017606 0.035605,0.035542 0.051801,0.053881 -0.016194,-0.01834 -0.033429,-0.036278 -0.051801,-0.053881 z m 0.1175466,0.1387674 c 0.01306,0.019374 0.025091,0.039099 0.036147,0.059118 -0.011057,-0.02002 -0.023086,-0.039742 -0.036147,-0.059118 z M 2.6897473,4.0488 C 2.6721673,4.064617 2.6538123,4.080155 2.6349593,4.095241 2.6538133,4.080155 2.6721673,4.064617 2.6897473,4.0488 Z m -0.083393,0.068764 c -0.00967,0.00735 -0.019449,0.014629 -0.029315,0.021774 -0.00515,0.00373 -0.010303,0.00707 -0.015511,0.010337 0.00521,-0.00327 0.010363,-0.00675 0.015511,-0.010471 0.00987,-0.00715 0.019643,-0.014289 0.029315,-0.021634 z"
     fill="url(#linearGradient45680)"
     id="path35"
     style="fill:url(#linearGradient45680);stroke-width:0.240884" />
  <path
     d="m 0.64406184,2.130047 c -0.120248,0.3518989 -0.1148587,0.5683555 -0.1148587,0.5683555 -2.4e-6,0.84772 0.70970106,1.5349578 1.58510286,1.5349309 0.1390432,0 0.2718625,-0.022137 0.3998627,-0.054998 0.021125,-0.013983 0.042275,-0.024166 0.062866,-0.039073 0.078934,-0.057153 0.1523994,-0.1209511 0.207832,-0.1892508 0.027717,-0.034147 0.050881,-0.069393 0.068054,-0.1055883 0.017174,-0.036193 0.028363,-0.073233 0.031876,-0.1109777 C 2.8883067,3.6957006 2.8841396,3.6572286 2.8708827,3.618425 2.8576276,3.5796245 2.8352056,3.54044 2.8020682,3.5010794 2.7689296,3.4617185 2.7251265,3.4221848 2.6689916,3.382752 2.6128593,3.3433194 2.5444172,3.3040443 2.4621727,3.2650383 2.3799283,3.2260297 2.2838373,3.1872477 2.1723549,3.1491617 2.0608891,3.1110731 1.9340126,3.07363 1.7902272,3.0369574 1.6464254,3.0002848 1.5185602,2.9573774 1.4050428,2.9090754 1.291517,2.8607731 1.1923445,2.8070522 1.1062473,2.7489768 1.0201612,2.690904 0.94712294,2.6284097 0.88563724,2.562422 0.82415424,2.4964315 0.77419894,2.4269717 0.73447424,2.3549199 0.69474964,2.2828681 0.66521154,2.2082376 0.64441154,2.1319857 c -1.763e-4,-6.4e-4 -2.057e-4,-0.00131 -4.943e-4,-0.00197 z"
     fill="url(#linearGradient1954)"
     id="path37"
     style="fill:url(#linearGradient1954);stroke-width:0.240884" />
  <path
     d="m 0.64389654,2.130047 c 1.738e-4,6.4e-4 2.033e-4,0.00131 4.943e-4,0.00197 0.020808,0.076255 0.050338,0.1508851 0.090063,0.2229342 0.039725,0.072049 0.089677,0.1415115 0.1511629,0.2075019 0.061486,0.06599 0.13452396,0.128482 0.22061016,0.1865548 0.086086,0.058073 0.1852559,0.1117966 0.2987954,0.1600986 0.113523,0.048302 0.2413771,0.091209 0.3851845,0.127882 0.1438046,0.036673 0.2706866,0.074116 0.3821277,0.1122046 0.1114658,0.038089 0.2075568,0.07687 0.2898178,0.1158763 0.082244,0.039009 0.1506864,0.078284 0.2068187,0.117714 0.056135,0.039433 0.099938,0.078964 0.1330754,0.1183271 0.033137,0.039363 0.055559,0.078545 0.068814,0.1173457 0.013254,0.038801 0.017431,0.077276 0.013911,0.1150206 -0.00351,0.037745 -0.014703,0.074785 -0.031876,0.1109777 -0.017174,0.036193 -0.040336,0.071439 -0.068054,0.1055883 -0.055435,0.068297 -0.1288977,0.1320983 -0.207832,0.1892512 -0.020588,0.014908 -0.041743,0.025094 -0.062866,0.039072 0.432909,-0.1111377 0.7927855,-0.3930463 0.9975361,-0.769852 7.714e-4,-0.00634 0.00349,-0.01304 0.00417,-0.019354 0.010214,-0.095013 0.00903,-0.1875503 -0.00581,-0.2763463 C 3.4951916,3.0240174 3.4667242,2.9389682 3.4224996,2.8588948 3.3782768,2.7788145 3.3182865,2.7037468 3.2403491,2.6348577 3.1624116,2.5659631 3.0665245,2.5032849 2.9505311,2.4480574 2.8345545,2.3928298 2.6985213,2.3450504 2.5402038,2.3059645 2.381856,2.2668785 2.2405547,2.2239018 2.1149229,2.1777171 1.9892966,2.1315324 1.8793261,2.0821289 1.7833839,2.0301148 1.6874361,1.9781006 1.6055249,1.9235264 1.5362208,1.8669549 1.4669086,1.810386 1.4101622,1.7518917 1.3644396,1.6920375 1.318717,1.6321858 1.2839907,1.5708995 1.2588148,1.5090346 1.2336416,1.4471696 1.2180354,1.3847153 1.2103658,1.3221116 c -0.00766,-0.062604 -0.0073,-0.1253433 -4.957e-4,-0.1874109 9.914e-4,-0.00831 0.00392,-0.016331 0.00507,-0.024622 C 0.88920904,1.5296589 0.73477164,1.8646242 0.64405904,2.1300684 Z"
     fill="url(#linearGradient1431)"
     id="path39"
     style="fill:url(#linearGradient1431);stroke-width:0.240884" />
  <path
     d="m 1.21494,1.1100576 c -0.00121,0.00829 -0.00416,0.016307 -0.00507,0.024622 -0.00678,0.06207 -0.00717,0.12481 4.943e-4,0.187411 0.00766,0.062604 0.023278,0.125058 0.048449,0.1869229 0.025173,0.061865 0.059902,0.1231513 0.1056249,0.1830029 0.045723,0.059852 0.1024689,0.1183486 0.1717812,0.1749175 0.069315,0.056569 0.1512262,0.111143 0.247163,0.1631598 0.095948,0.052014 0.2059183,0.101415 0.331539,0.1476024 0.1256263,0.046185 0.2669414,0.089164 0.4252809,0.1282473 0.158348,0.039086 0.2943891,0.086863 0.4103548,0.1420929 0.1159823,0.055228 0.211864,0.117906 0.289818,0.1868002 0.077935,0.068895 0.1379277,0.1439598 0.1821549,0.2240383 0.044227,0.080079 0.072691,0.1651386 0.087535,0.2539186 0.014843,0.088788 0.016026,0.1813257 0.00582,0.2763512 -6.857e-4,0.00631 -0.00339,0.01302 -0.00417,0.019354 0.1158802,-0.213238 0.1877177,-0.4523803 0.1877177,-0.7100911 h 0.00329 c 0,0 0.036637,-0.3793126 -0.25906,-0.8780138 C 3.3991731,1.7646093 3.3212028,1.6581996 3.2636576,1.5859425 3.1244025,1.5573287 2.9903273,1.5279362 2.8735439,1.4963997 2.7346933,1.4589058 2.6110553,1.4195878 2.501275,1.3788085 2.3914863,1.3380292 2.2955193,1.2957912 2.2118703,1.2526412 2.1282021,1.2094912 2.0568134,1.1653198 1.9963217,1.1207191 1.9358274,1.0761184 1.8861805,1.0311124 1.8459189,0.98597826 c -0.040264,-0.045134 -0.071133,-0.0903587 -0.094114,-0.1351088 -0.022987,-0.04475 -0.038034,-0.089087 -0.046675,-0.132538 -0.00864,-0.043449 -0.010845,-0.086039 -0.0081,-0.1272687 9.913e-4,-0.014064 0.00531,-0.026934 0.00734,-0.040667 -0.197249,0.1990751 -0.3524409,0.383206 -0.4894186,0.55966214 z"
     fill="url(#linearGradient1439)"
     id="path41"
     style="fill:url(#linearGradient1439);stroke-width:0.240884" />
  <path
     d="m 1.7043036,0.55036876 c -0.00195,0.013736 -0.00641,0.0266 -0.00734,0.040667 -0.00275,0.04123 -4.943e-4,0.08382 0.0081,0.1272687 0.00864,0.043449 0.023694,0.087785 0.046675,0.1325354 0.022987,0.04475 0.053849,0.089975 0.094114,0.1351088 0.040262,0.045134 0.089908,0.09014 0.1504029,0.13474084 0.060492,0.044601 0.1318803,0.088775 0.2155486,0.1319221 0.083665,0.04315 0.1796325,0.085385 0.2894047,0.1261673 0.1097806,0.040782 0.233424,0.080097 0.3722689,0.1175912 0.116778,0.031534 0.2508585,0.060929 0.3901137,0.089543 C 2.8960568,1.2645214 2.4956984,1.071905 2.4063352,0.19061106 2.3913045,0.08420406 2.4242051,1.3364348e-5 2.3470112,1.3364348e-5 2.2981217,-3.5993565e-4 2.2573257,0.03725136 2.2573257,0.03725136 2.0456244,0.21586486 1.8675698,0.38555016 1.7042926,0.55037946 Z"
     fill="url(#linearGradient1447)"
     id="path43"
     style="fill:url(#linearGradient1447);stroke-width:0.240884" />
</svg>
