<?xml version="1.0" encoding="UTF-8" standalone="no"?>
<!-- Created with Inkscape (http://www.inkscape.org/) -->

<svg
   width="16"
   height="16"
   viewBox="0 0 4.2333333 4.2333335"
   version="1.1"
   id="svg69118"
   inkscape:version="1.1.2 (0a00cf5339, 2022-02-04, custom)"
   sodipodi:docname="firewall.svg"
   xmlns:inkscape="http://www.inkscape.org/namespaces/inkscape"
   xmlns:sodipodi="http://sodipodi.sourceforge.net/DTD/sodipodi-0.dtd"
   xmlns:xlink="http://www.w3.org/1999/xlink"
   xmlns="http://www.w3.org/2000/svg"
   xmlns:svg="http://www.w3.org/2000/svg">
  <sodipodi:namedview
     id="namedview69120"
     pagecolor="#ffffff"
     bordercolor="#666666"
     borderopacity="1.0"
     inkscape:pageshadow="2"
     inkscape:pageopacity="0.0"
     inkscape:pagecheckerboard="0"
     inkscape:document-units="px"
     showgrid="false"
     units="px"
     inkscape:zoom="49.9375"
     inkscape:cx="7.9899875"
     inkscape:cy="8"
     inkscape:window-width="1920"
     inkscape:window-height="1004"
     inkscape:window-x="0"
     inkscape:window-y="24"
     inkscape:window-maximized="1"
     inkscape:current-layer="svg69118" />
  <defs
     id="defs69115">
    <linearGradient
       inkscape:collect="always"
       id="linearGradient1709">
      <stop
         style="stop-color:#0d559f;stop-opacity:1"
         offset="0"
         id="stop1705" />
      <stop
         style="stop-color:#144b8c;stop-opacity:1"
         offset="1"
         id="stop1707" />
    </linearGradient>
    <linearGradient
       inkscape:collect="always"
       id="linearGradient115183">
      <stop
         style="stop-color:#37c6f0;stop-opacity:1"
         offset="0"
         id="stop115179" />
      <stop
         style="stop-color:#29b5e8;stop-opacity:1"
         offset="1"
         id="stop115181" />
    </linearGradient>
    <linearGradient
       inkscape:collect="always"
       xlink:href="#linearGradient115183"
       id="linearGradient8763"
       x1="10"
       y1="1.0351562"
       x2="9.8847656"
       y2="14.952974"
       gradientUnits="userSpaceOnUse"
       gradientTransform="matrix(0.13229166,0,0,0.13273865,6.617e-5,-0.13740523)" />
    <linearGradient
       inkscape:collect="always"
       xlink:href="#linearGradient129670"
       id="linearGradient9363"
       gradientUnits="userSpaceOnUse"
       gradientTransform="matrix(0.13229166,0,0,0.13273865,6.622e-5,-0.13740538)"
       x1="21"
       y1="1.0351573"
       x2="21"
       y2="29.9375" />
    <linearGradient
       inkscape:collect="always"
       id="linearGradient129670">
      <stop
         style="stop-color:#1096eb;stop-opacity:1"
         offset="0"
         id="stop129666" />
      <stop
         style="stop-color:#056ac2;stop-opacity:1"
         offset="1"
         id="stop129668" />
    </linearGradient>
    <linearGradient
       inkscape:collect="always"
       xlink:href="#linearGradient1709"
       id="linearGradient1711"
       x1="37.769531"
       y1="30.929688"
       x2="38"
       y2="61.000011"
       gradientUnits="userSpaceOnUse"
       gradientTransform="matrix(0.06614583,0,0,0.06614583,6.618e-5,-0.19843749)" />
  </defs>
  <path
     id="path5150"
     style="color:#000000;fill:url(#linearGradient8763);fill-opacity:1;stroke-width:0.132515;stroke-linecap:round;stroke-linejoin:round;-inkscape-stroke:none"
     d="M 2.1167327,0 C 1.4155778,0.00542324 1.3670574,0.19155336 1.0583333,0.39687501 0.79754767,0.54525891 0,0.66145834 0,0.66145834 v 1.45510606 2.6e-4 C 0,2.5400462 0.29405196,3.0163319 0.67644453,3.4080808 1.0213965,3.7614613 1.7074221,4.1815448 2.1167327,4.2333817 2.5260435,4.181545 3.2120877,3.7614613 3.5570399,3.4080808 3.9394324,3.0163319 4.2334842,2.5369253 4.2334842,2.1137035 v -2.6e-4 l -8.46e-5,-1.45198516 c 0,0 -0.8224798,-0.0997712 -1.0583983,-0.26458333 C 2.8662774,0.19155344 2.8271638,0.00375865 2.1167327,0 Z"
     sodipodi:nodetypes="ccccscccscccc" />
  <path
     id="path5150-06"
     style="color:#000000;fill:url(#linearGradient9363);fill-opacity:1;stroke-width:0.132515;stroke-linecap:round;stroke-linejoin:round;-inkscape-stroke:none"
     d="m 2.1243553,0 c -0.00528,3.7125e-4 -0.010015,9.175e-4 -0.015245,0.001292 l 0.00762,2.1154024 H 4.2334818 L 4.233397,0.66145834 c 0,0 -0.8216524,-0.0981162 -1.0583982,-0.26458333 C 2.8662776,0.19155339 2.8925846,0.00361581 2.1243553,0 Z M 2.1167328,2.1166944 0,2.1134444 v 0.0062 2.575e-4 C 0,2.5431237 0.29405196,3.0163387 0.67644453,3.4080874 1.0171312,3.7570984 1.712202,4.1753492 2.1167328,4.2322821 Z"
     sodipodi:nodetypes="ccccccccccsccc" />
  <path
     id="path5150-7"
     style="color:#000000;fill:url(#linearGradient1711);fill-opacity:1;stroke-width:0.132515;stroke-linecap:round;stroke-linejoin:round;-inkscape-stroke:none"
     d="m 2.1167328,2.1166944 -0.00762,2.1155892 C 2.593335,4.1718802 3.2733948,3.6943562 3.5570398,3.4080883 3.9394322,3.0163393 4.2334842,2.5431249 4.2334842,2.1199029 v -2.584e-4 -0.0062 z"
     sodipodi:nodetypes="cccsccc" />
</svg>
