<?xml version="1.0" encoding="UTF-8" standalone="no"?>
<!-- Created with Inkscape (http://www.inkscape.org/) -->

<svg
   width="16"
   height="16"
   viewBox="0 0 4.2333333 4.2333333"
   version="1.1"
   id="svg5"
   inkscape:version="1.1.2 (0a00cf5339, 2022-02-04, custom)"
   sodipodi:docname="github.svg"
   xmlns:inkscape="http://www.inkscape.org/namespaces/inkscape"
   xmlns:sodipodi="http://sodipodi.sourceforge.net/DTD/sodipodi-0.dtd"
   xmlns="http://www.w3.org/2000/svg"
   xmlns:svg="http://www.w3.org/2000/svg">
  <sodipodi:namedview
     id="namedview7"
     pagecolor="#ffffff"
     bordercolor="#666666"
     borderopacity="1.0"
     inkscape:pageshadow="2"
     inkscape:pageopacity="0.0"
     inkscape:pagecheckerboard="0"
     inkscape:document-units="px"
     showgrid="false"
     units="px"
     height="48px"
     inkscape:zoom="16.458333"
     inkscape:cx="23.96962"
     inkscape:cy="16.708861"
     inkscape:window-width="1920"
     inkscape:window-height="1005"
     inkscape:window-x="0"
     inkscape:window-y="0"
     inkscape:window-maximized="1"
     inkscape:current-layer="svg5"
     inkscape:lockguides="true" />
  <defs
     id="defs2" />
  <circle
     style="fill:#333333;fill-opacity:1;stroke-width:0.607189;stroke-linecap:round;stroke-linejoin:round;stroke-dasharray:7.28625, 0.607189"
     id="path850"
     cx="2.1166666"
     cy="2.1166666"
     r="2.1166666" />
  <path
     id="path4"
     d="m 2.1166623,0.52916667 c -0.8794726,0 -1.58749563,0.70802303 -1.58749563,1.58749563 0,0.8502559 0.66178753,1.5401523 1.50045803,1.5850591 C 1.943141,3.6968403 1.8585424,3.6848156 1.7762632,3.6669497 1.7760025,3.5233412 1.7758541,3.3895026 1.7755951,3.3447133 1.362267,3.4368449 1.3187009,3.1174851 1.3187009,3.1174851 1.2511019,2.94128 1.1537059,2.8944651 1.1537059,2.8944651 c -0.1349207,-0.09456 0.00997,-0.092796 0.00997,-0.092796 0.1491509,0.010761 0.227671,0.1572432 0.227671,0.1572432 0.1325445,0.2330369 0.3029189,0.1885333 0.387572,0.1494919 0.0135,-0.098492 0.096887,-0.1543516 0.1393047,-0.1924567 C 1.5882748,2.8774618 1.2095211,2.7238768 1.2095211,2.1394746 c 0,-0.1664603 0.055769,-0.3027315 0.1508208,-0.4092762 -0.015325,-0.038565 -0.066518,-0.2277236 0.014396,-0.4376244 0,0 0.00779,-0.00234 0.023919,-0.0031 0.048362,-0.00228 0.1570166,0.042009 0.3698546,0.1900211 0.1258428,-0.036522 0.2796351,-0.041679 0.394438,-0.043185 0.1345929,-0.00177 0.2738716,0.00609 0.396874,0.043186 C 2.772594,1.3314775 2.9086052,1.2869976 2.9569196,1.2892542 h 2.27e-4 c 0.016107,7.482e-4 0.023919,0.00332 0.023919,0.00332 0.081095,0.2099009 0.02985,0.3990505 0.014616,0.4376244 0.095225,0.1065436 0.1415141,0.2425946 0.1415141,0.4090549 0,0.5858993 -0.3474195,0.737857 -0.6783623,0.7755866 0.053273,0.047092 0.1120638,0.1173462 0.1120638,0.259563 0,0.084505 -3.6e-4,0.2612918 -6.6e-4,0.4635365 -0.1053018,0.031158 -0.2152069,0.051879 -0.3284397,0.060904 0.8204839,-0.063464 1.4623696,-0.7448744 1.4623696,-1.58218 0,-0.8794727 -0.7080228,-1.58749572 -1.5874954,-1.58749572 z M 2.0296247,3.7017214 c 0.028818,0.00152 0.057821,0.00243 0.087038,0.00243 -0.029262,0 -0.05821,-8.118e-4 -0.087038,-0.00243 z m 0.087038,0.00243 c 0.037123,0 0.073821,-0.0017 0.1102919,-0.0042 -0.036471,0.00258 -0.073134,0.0042 -0.1102919,0.0042 z"
     style="fill:#ffffff;stroke-width:0.113392" />
</svg>
