<?xml version="1.0" encoding="UTF-8" standalone="no"?>
<!-- Created with Inkscape (http://www.inkscape.org/) -->

<svg
   width="16"
   height="16"
   viewBox="0 0 4.2333333 4.2333335"
   version="1.1"
   id="svg5"
   inkscape:version="1.1.2 (0a00cf5339, 2022-02-04)"
   sodipodi:docname="org.gnome.Calendar.svg"
   xmlns:inkscape="http://www.inkscape.org/namespaces/inkscape"
   xmlns:sodipodi="http://sodipodi.sourceforge.net/DTD/sodipodi-0.dtd"
   xmlns:xlink="http://www.w3.org/1999/xlink"
   xmlns="http://www.w3.org/2000/svg"
   xmlns:svg="http://www.w3.org/2000/svg">
  <sodipodi:namedview
     id="namedview7"
     pagecolor="#ffffff"
     bordercolor="#666666"
     borderopacity="1.0"
     inkscape:pageshadow="2"
     inkscape:pageopacity="0.0"
     inkscape:pagecheckerboard="0"
     inkscape:document-units="px"
     showgrid="false"
     units="px"
     width="64px"
     inkscape:zoom="49"
     inkscape:cx="8"
     inkscape:cy="8"
     inkscape:window-width="1920"
     inkscape:window-height="1011"
     inkscape:window-x="0"
     inkscape:window-y="0"
     inkscape:window-maximized="1"
     inkscape:current-layer="svg5"
     showguides="false">
    <sodipodi:guide
       position="-0.61556122,3.6447706"
       orientation="1,0"
       id="guide1473" />
  </sodipodi:namedview>
  <defs
     id="defs2">
    <linearGradient
       inkscape:collect="always"
       xlink:href="#linearGradient984"
       id="linearGradient986"
       x1="1.878782"
       y1="0.31576133"
       x2="9.401475"
       y2="6.2369123"
       gradientUnits="userSpaceOnUse"
       gradientTransform="matrix(0.56164398,0,0,0.53561358,-1.055206,0.88920698)" />
    <linearGradient
       inkscape:collect="always"
       id="linearGradient984">
      <stop
         style="stop-color:#26b4eb;stop-opacity:1;"
         offset="0"
         id="stop980" />
      <stop
         style="stop-color:#017adc;stop-opacity:1"
         offset="1"
         id="stop982" />
    </linearGradient>
    <radialGradient
       inkscape:collect="always"
       xlink:href="#linearGradient2231"
       id="radialGradient2233-3-3"
       cx="3.1703956"
       cy="3.1790876"
       fx="3.1703956"
       fy="3.1790876"
       r="1.0583334"
       gradientTransform="matrix(-0.00474847,0.49986558,-0.3844382,-0.00365197,2.026794,-1.0531922)"
       gradientUnits="userSpaceOnUse" />
    <linearGradient
       inkscape:collect="always"
       id="linearGradient2231">
      <stop
         style="stop-color:#000000;stop-opacity:1;"
         offset="0"
         id="stop2227" />
      <stop
         style="stop-color:#000000;stop-opacity:0;"
         offset="1"
         id="stop2229" />
    </linearGradient>
    <radialGradient
       inkscape:collect="always"
       xlink:href="#linearGradient2231"
       id="radialGradient2233-3"
       cx="3.1703956"
       cy="3.1790876"
       fx="3.1703956"
       fy="3.1790876"
       r="1.0583334"
       gradientTransform="matrix(-0.00474847,0.49986562,-0.38443823,-0.00365197,4.6726276,-1.0531923)"
       gradientUnits="userSpaceOnUse" />
  </defs>
  <g
     id="g4959"
     transform="matrix(0.16563071,0.17677669,-0.16563071,0.17677669,1.380021,0.02470498)" />
  <path
     id="rect846"
     style="fill:url(#linearGradient986);stroke-width:0.290235;stroke-linecap:round;stroke-linejoin:round"
     d="m 4.2333334,1.0583333 v 2.7781241 c 0,0.219869 -0.1770065,0.396875 -0.396875,0.396875 H 0.39687518 C 0.17700644,4.2333324 1.9999999e-7,4.0563264 1.9999999e-7,3.8364574 V 1.0583333 Z"
     sodipodi:nodetypes="csssscc" />
  <path
     id="rect990"
     style="fill:#056abe;stroke-width:0.333241;stroke-linecap:round;stroke-linejoin:round"
     d="M 0.39687498,0.26458334 H 3.8364579 c 0.2198685,0 0.3968749,0.1770062 0.396875,0.396875 l 5e-7,0.39687496 H 5.9999998e-7 L 0,0.66145834 c -3.3240006e-7,-0.2198688 0.17700624,-0.396875 0.39687498,-0.396875 z"
     sodipodi:nodetypes="sssccss" />
  <path
     id="rect1986-5-2"
     style="fill:url(#radialGradient2233-3-3);fill-opacity:1;stroke-width:0.211144;stroke-linecap:round;stroke-linejoin:round"
     d="m 1.3229167,0 v 0.84457663 c 0,0.23394777 -0.39948512,0.42228827 -0.63343299,0.42228827 -0.2339475,0 -0.4513056,-0.1901471 -0.42228821,-0.42228827 V 0 Z"
     sodipodi:nodetypes="cssscc" />
  <path
     id="rect1986-5"
     style="fill:url(#radialGradient2233-3);fill-opacity:1;stroke-width:0.211144;stroke-linecap:round;stroke-linejoin:round"
     d="m 3.9687501,0 v 0.84457677 c 0,0.23394763 -0.399485,0.42228823 -0.633433,0.42228823 -0.2339475,0 -0.4513056,-0.1901471 -0.4222882,-0.42228823 V 0 Z"
     sodipodi:nodetypes="cssscc" />
  <rect
     style="fill:#2ecef2;fill-opacity:1;stroke-width:0.176389;stroke-linecap:round;stroke-linejoin:round"
     id="rect1882"
     width="0.5291667"
     height="0.79374999"
     x="3.1782725"
     y="-2.7755576e-17"
     ry="0.26458335" />
  <rect
     style="fill:#2ecef2;fill-opacity:1;stroke-width:0.176389;stroke-linecap:round;stroke-linejoin:round"
     id="rect1602"
     width="0.5291667"
     height="0.79374999"
     x="0.52916658"
     y="-2.7755576e-17"
     ry="0.26458335" />
  <path
     id="rect4401"
     style="fill:#ffffff;fill-opacity:1;stroke-width:0.205787;stroke-linecap:round;stroke-linejoin:round"
     d="M 1.3229167,1.3229167 V 1.8520834 H 1.8520834 V 1.3229167 Z m 1.0583334,0 V 1.8520834 H 2.9104168 V 1.3229167 Z m 1.0583333,0 V 1.8520834 H 3.9687501 V 1.3229167 Z M 0.26458334,2.38125 V 2.9104167 H 0.79375007 V 2.38125 Z m 1.05833336,0 V 2.9104167 H 1.8520834 V 2.38125 Z m 1.0583334,0 V 2.9104167 H 2.9104168 V 2.38125 Z m 1.0583333,0 V 2.9104167 H 3.9687501 V 2.38125 Z M 0.26458334,3.4395833 V 3.96875 H 0.79375007 V 3.4395833 Z m 1.05833336,0 V 3.96875 H 1.8520834 V 3.4395833 Z m 1.0583334,0 V 3.96875 H 2.9104168 V 3.4395833 Z"
     sodipodi:nodetypes="cccccccccccccccccccccccccccccccccccccccccccccccccc" />
</svg>
