<?xml version="1.0" encoding="UTF-8" standalone="no"?>
<!-- Created with Inkscape (http://www.inkscape.org/) -->

<svg
   width="16"
   height="16"
   viewBox="0 0 4.2333332 4.2333335"
   version="1.1"
   id="svg5"
   inkscape:version="1.1.2 (0a00cf5339, 2022-02-04)"
   sodipodi:docname="org.gnome.TextEditor.svg"
   xmlns:inkscape="http://www.inkscape.org/namespaces/inkscape"
   xmlns:sodipodi="http://sodipodi.sourceforge.net/DTD/sodipodi-0.dtd"
   xmlns:xlink="http://www.w3.org/1999/xlink"
   xmlns="http://www.w3.org/2000/svg"
   xmlns:svg="http://www.w3.org/2000/svg">
  <sodipodi:namedview
     id="namedview7"
     pagecolor="#ffffff"
     bordercolor="#666666"
     borderopacity="1.0"
     inkscape:pageshadow="2"
     inkscape:pageopacity="0.0"
     inkscape:pagecheckerboard="0"
     inkscape:document-units="px"
     showgrid="false"
     units="px"
     height="64px"
     inkscape:zoom="49.9375"
     inkscape:cx="7.9499374"
     inkscape:cy="7.3992491"
     inkscape:window-width="1920"
     inkscape:window-height="1011"
     inkscape:window-x="0"
     inkscape:window-y="0"
     inkscape:window-maximized="1"
     inkscape:current-layer="svg5" />
  <defs
     id="defs2">
    <linearGradient
       inkscape:collect="always"
       id="linearGradient1526">
      <stop
         style="stop-color:#ffffff;stop-opacity:1;"
         offset="0"
         id="stop1522" />
      <stop
         style="stop-color:#ebebeb;stop-opacity:1"
         offset="1"
         id="stop1524" />
    </linearGradient>
    <linearGradient
       inkscape:collect="always"
       id="linearGradient2818">
      <stop
         style="stop-color:#000000;stop-opacity:0.40000001"
         offset="0"
         id="stop2814" />
      <stop
         style="stop-color:#000000;stop-opacity:0;"
         offset="1"
         id="stop2816" />
    </linearGradient>
    <linearGradient
       inkscape:collect="always"
       id="linearGradient1552">
      <stop
         style="stop-color:#3f68d8;stop-opacity:1"
         offset="0"
         id="stop1548" />
      <stop
         style="stop-color:#4066d1;stop-opacity:1"
         offset="1"
         id="stop1550" />
    </linearGradient>
    <linearGradient
       inkscape:collect="always"
       xlink:href="#linearGradient1552"
       id="linearGradient1554"
       x1="2.1166668"
       y1="10.318751"
       x2="8.4666672"
       y2="10.318751"
       gradientUnits="userSpaceOnUse"
       gradientTransform="matrix(0.49999996,0,0,0.49999996,-0.52916666,-1.5874999)" />
    <linearGradient
       inkscape:collect="always"
       xlink:href="#linearGradient2818"
       id="linearGradient2820"
       x1="8.466671"
       y1="13.229167"
       x2="8.466671"
       y2="15.345834"
       gradientUnits="userSpaceOnUse"
       gradientTransform="matrix(0.25,0,0,0.37499994,-7.5351799e-8,-4.4317704)" />
    <linearGradient
       inkscape:collect="always"
       xlink:href="#linearGradient2818"
       id="linearGradient3170"
       x1="8.4666729"
       y1="14.287501"
       x2="8.4666672"
       y2="15.875"
       gradientUnits="userSpaceOnUse"
       gradientTransform="matrix(0.24999998,0,0,0.37499994,-3.5351799e-8,-1.9182282)" />
    <linearGradient
       inkscape:collect="always"
       xlink:href="#linearGradient1526"
       id="linearGradient1528"
       x1="0.79375005"
       y1="0.26458335"
       x2="3.7041667"
       y2="4.2333331"
       gradientUnits="userSpaceOnUse" />
  </defs>
  <rect
     style="fill:#974711;fill-opacity:1;stroke-width:0.104897"
     id="rect939"
     width="3.175"
     height="1.5875"
     x="0.5291667"
     y="2.6458333"
     ry="0.26458332" />
  <rect
     style="fill:url(#linearGradient3170);fill-opacity:1;stroke-width:0.0810112"
     id="rect3082"
     width="3.175"
     height="0.59531248"
     x="0.5291667"
     y="3.4395833" />
  <rect
     style="fill:url(#linearGradient1528);fill-opacity:1;stroke-width:0.132291"
     id="rect1934"
     width="3.175"
     height="3.4395833"
     x="0.5291667"
     y="0.5291667"
     ry="0.26458332" />
  <rect
     style="fill:url(#linearGradient2820);fill-opacity:1;stroke-width:0.0810112"
     id="rect2710"
     width="3.175"
     height="0.79374993"
     x="0.5291667"
     y="0.5291667" />
  <path
     id="rect1392"
     style="fill:url(#linearGradient1554);stroke-width:0.132291"
     d="M 0.79375002,0.26458335 H 3.4395833 c 0.1465792,0 0.2645834,0.11800416 0.2645834,0.26458332 V 1.0583333 h -3.175 V 0.52916667 c 0,-0.14657916 0.11800416,-0.26458332 0.26458332,-0.26458332 z"
     sodipodi:nodetypes="sssccss" />
  <path
     id="rect1581"
     style="fill:#4d4d4d;fill-opacity:1;stroke-width:0.132291"
     d="M 1.0583334,1.5875 V 1.8520834 H 3.1750001 V 1.5875 Z m 0,0.7937501 V 2.6458334 H 3.1750001 V 2.3812501 Z m 0,0.79375 V 3.4395835 H 3.1750001 V 3.1750001 Z"
     sodipodi:nodetypes="ccccccccccccccc" />
  <path
     id="rect1882"
     style="opacity:1;fill:#2f4f91;fill-opacity:1;stroke-width:0.529167;stroke-linecap:round;stroke-linejoin:round"
     d="M 1.3161988,0 C 1.1728104,0.00360852 1.0583333,0.12029446 1.0583333,0.26458334 v 0.26458334 c 0,0.14657917 0.1180042,0.26458334 0.2645834,0.26458334 0.1465792,0 0.2645833,-0.11800417 0.2645833,-0.26458334 V 0.26458334 C 1.5875,0.11800416 1.4694959,0 1.3229167,0 c -0.00229,0 -0.00444,-5.7278081e-5 -0.00672,0 z m 0.79375,0 C 1.9665604,0.00360852 1.8520834,0.12029446 1.8520834,0.26458334 v 0.26458334 c 0,0.14657917 0.1180042,0.26458334 0.2645833,0.26458334 0.1465792,0 0.2645834,-0.11800417 0.2645834,-0.26458334 V 0.26458334 C 2.3812501,0.11800416 2.2632459,0 2.1166667,0 c -0.00229,0 -0.00444,-5.7278081e-5 -0.00672,0 z M 2.9036987,0 C 2.7603104,0.00360852 2.6458334,0.12029446 2.6458334,0.26458334 v 0.26458334 c 0,0.14657917 0.1180041,0.26458334 0.2645833,0.26458334 0.1465792,0 0.2645833,-0.11800417 0.2645833,-0.26458334 V 0.26458334 C 3.175,0.11800416 3.0569959,0 2.9104167,0 c -0.00229,0 -0.00444,-5.7278081e-5 -0.00672,0 z"
     sodipodi:nodetypes="csssssscccsssssscccsssssscc" />
</svg>
