<?xml version="1.0" encoding="UTF-8" standalone="no"?>
<!-- Created with Inkscape (http://www.inkscape.org/) -->

<svg
   width="16"
   height="16"
   viewBox="0 0 4.2333333 4.2333335"
   version="1.1"
   id="svg5"
   inkscape:version="1.1.1 (3bf5ae0d25, 2021-09-20, custom)"
   sodipodi:docname="input-keyboard.svg"
   xmlns:inkscape="http://www.inkscape.org/namespaces/inkscape"
   xmlns:sodipodi="http://sodipodi.sourceforge.net/DTD/sodipodi-0.dtd"
   xmlns:xlink="http://www.w3.org/1999/xlink"
   xmlns="http://www.w3.org/2000/svg"
   xmlns:svg="http://www.w3.org/2000/svg">
  <sodipodi:namedview
     id="namedview7"
     pagecolor="#ffffff"
     bordercolor="#666666"
     borderopacity="1.0"
     inkscape:pageshadow="2"
     inkscape:pageopacity="0.0"
     inkscape:pagecheckerboard="0"
     inkscape:document-units="px"
     showgrid="false"
     units="px"
     height="64px"
     inkscape:zoom="8"
     inkscape:cx="21.0625"
     inkscape:cy="38.1875"
     inkscape:window-width="1920"
     inkscape:window-height="999"
     inkscape:window-x="0"
     inkscape:window-y="0"
     inkscape:window-maximized="1"
     inkscape:current-layer="svg5"
     showguides="false" />
  <defs
     id="defs2">
    <linearGradient
       inkscape:collect="always"
       id="linearGradient23571">
      <stop
         style="stop-color:#b6bec5;stop-opacity:1;"
         offset="0"
         id="stop23567" />
      <stop
         style="stop-color:#9ba3aa;stop-opacity:1"
         offset="1"
         id="stop23569" />
    </linearGradient>
    <linearGradient
       inkscape:collect="always"
       xlink:href="#linearGradient23571"
       id="linearGradient23573"
       x1="0.5291667"
       y1="5.0270834"
       x2="16.404167"
       y2="12.170834"
       gradientUnits="userSpaceOnUse"
       gradientTransform="matrix(0.26666667,0,0,0.3333333,-0.14111112,-0.88194441)" />
  </defs>
  <rect
     style="fill:url(#linearGradient23573);fill-opacity:1;stroke-width:0.0788833;stroke-linejoin:round"
     id="rect858"
     width="4.2333336"
     height="2.3812499"
     x="0"
     y="0.79374999"
     ry="0.26458335" />
  <path
     id="rect1155"
     style="opacity:1;fill:#edeef0;fill-opacity:1;stroke-width:0.999999;stroke-linejoin:round"
     d="M 1,4 V 5 H 2 V 4 Z m 1.75,0 v 1 h 1 V 4 Z M 4.5,4 v 1 h 1 V 4 Z m 1.75,0 v 1 h 1 V 4 Z M 8,4 V 5 H 9 V 4 Z m 1.75,0 v 1 h 1 V 4 Z m 1.75,0 v 1 h 1 V 4 Z m 1.75,0 V 5 H 15 V 4 Z M 1.75,6 v 1 h 1 V 6 Z M 3.5,6 v 1 h 1 V 6 Z m 1.75,0 v 1 h 1 V 6 Z M 7,6 V 7 H 8 V 6 Z m 1.75,0 v 1 h 1 V 6 Z m 1.75,0 v 1 h 1 V 6 Z m 1.75,0 v 1 h 1 V 6 Z M 14,6 v 1 h 1 V 6 Z M 1,8 V 9 H 3 V 8 Z M 4,8 V 9 H 5 V 8 Z M 6,8 V 9 H 7 V 8 Z M 8,8 V 9 H 9 V 8 Z m 2,0 v 1 h 1 V 8 Z m 2,0 v 1 h 3 V 8 Z M 1,10 v 1 h 1 v -1 z m 2,0 v 1 h 1 v -1 z m 2,0 v 1 h 6 v -1 z m 7,0 v 1 h 1 v -1 z m 2,0 v 1 h 1 v -1 z"
     transform="scale(0.26458334)" />
</svg>
