<?xml version="1.0" encoding="UTF-8" standalone="no"?>
<!-- Created with Inkscape (http://www.inkscape.org/) -->

<svg
   width="16"
   height="16"
   viewBox="0 0 4.2333332 4.2333335"
   version="1.1"
   id="svg5"
   inkscape:version="1.1.2 (0a00cf5339, 2022-02-04)"
   sodipodi:docname="preferences-system-windows.svg"
   xmlns:inkscape="http://www.inkscape.org/namespaces/inkscape"
   xmlns:sodipodi="http://sodipodi.sourceforge.net/DTD/sodipodi-0.dtd"
   xmlns="http://www.w3.org/2000/svg"
   xmlns:svg="http://www.w3.org/2000/svg">
  <sodipodi:namedview
     id="namedview7"
     pagecolor="#ffffff"
     bordercolor="#666666"
     borderopacity="1.0"
     inkscape:pageshadow="2"
     inkscape:pageopacity="0.0"
     inkscape:pagecheckerboard="0"
     inkscape:document-units="px"
     showgrid="false"
     units="px"
     height="64px"
     inkscape:zoom="24.15625"
     inkscape:cx="15.979301"
     inkscape:cy="15.958603"
     inkscape:window-width="1920"
     inkscape:window-height="1011"
     inkscape:window-x="0"
     inkscape:window-y="0"
     inkscape:window-maximized="1"
     inkscape:current-layer="svg5" />
  <defs
     id="defs2" />
  <path
     id="rect261617"
     style="fill:#797774;stroke-width:0.109727;stroke-linecap:round;stroke-linejoin:round"
     d="m 0.5291667,0.26458334 h 3.1749999 c 0.2931583,0 0.5291667,0.23600831 0.5291667,0.52916671 V 3.4395835 c 0,0.2931583 -0.2360084,0.5291667 -0.5291667,0.5291667 H 0.5291667 C 0.23600835,3.9687502 0,3.7327418 0,3.4395835 V 0.79375005 C 0,0.50059165 0.23600835,0.26458334 0.5291667,0.26458334 Z"
     sodipodi:nodetypes="sssssssss" />
  <path
     id="rect1043"
     style="fill:#fafafa;fill-opacity:1;stroke-width:0.79375;stroke-linecap:round;stroke-linejoin:round"
     d="M 0.52916659,1.0583333 H 3.7041666 c 0.1465792,0 0.2645834,0.1180042 0.2645834,0.2645833 v 2.1166666 c 0,0.146579 -0.1180042,0.264583 -0.2645834,0.264583 H 0.52916659 c -0.14657912,0 -0.26458329,-0.118004 -0.26458329,-0.264583 V 1.3229166 c 0,-0.1465791 0.11800417,-0.2645833 0.26458329,-0.2645833 z"
     sodipodi:nodetypes="sssssssss" />
  <path
     id="rect1066"
     style="fill:#c4c4c4;fill-opacity:1;stroke-width:0.396875;stroke-linecap:round;stroke-linejoin:round"
     d="m 2.6458334,0.52916665 v 0.2645833 h 0.2645833 v -0.2645833 z m 0.5291667,0 v 0.2645833 h 0.2645833 v -0.2645833 z m 0.5291666,0 v 0.2645833 H 3.96875 v -0.2645833 z" />
</svg>
