<?xml version="1.0" encoding="UTF-8" standalone="no"?>
<!-- Created with Inkscape (http://www.inkscape.org/) -->

<svg
   width="16"
   height="16"
   viewBox="0 0 4.2333333 4.2333335"
   version="1.1"
   id="svg993"
   inkscape:version="1.1.2 (0a00cf5339, 2022-02-04, custom)"
   sodipodi:docname="preferences0bluetooth.svg"
   xmlns:inkscape="http://www.inkscape.org/namespaces/inkscape"
   xmlns:sodipodi="http://sodipodi.sourceforge.net/DTD/sodipodi-0.dtd"
   xmlns="http://www.w3.org/2000/svg"
   xmlns:svg="http://www.w3.org/2000/svg">
  <sodipodi:namedview
     id="namedview995"
     pagecolor="#ffffff"
     bordercolor="#666666"
     borderopacity="1.0"
     inkscape:pageshadow="2"
     inkscape:pageopacity="0.0"
     inkscape:pagecheckerboard="0"
     inkscape:document-units="px"
     showgrid="false"
     units="px"
     inkscape:zoom="6.0390625"
     inkscape:cx="16.393273"
     inkscape:cy="-13.412678"
     inkscape:window-width="1896"
     inkscape:window-height="995"
     inkscape:window-x="12"
     inkscape:window-y="44"
     inkscape:window-maximized="1"
     inkscape:current-layer="svg993" />
  <defs
     id="defs990" />
  <rect
     style="fill:#1e91fa;fill-opacity:1;stroke-width:0.218966;stroke-linecap:round;stroke-linejoin:round"
     id="rect1076"
     width="2.6458333"
     height="4.2333336"
     x="0.79374999"
     y="0"
     ry="1.3229166" />
  <path
     style="color:#000000;fill:#ffffff;stroke:none;stroke-linejoin:round;-inkscape-stroke:none"
     d="M 2.0273438,0.40625 A 0.13230472,0.13230472 0 0 0 1.9453125,0.52929687 V 1.796875 l -0.4355469,-0.4355469 -0.1875,0.1875 0.5683594,0.5683594 -0.5683594,0.5683594 0.1875,0.1855469 0.4355469,-0.4355469 V 3.7050781 A 0.13230472,0.13230472 0 0 0 2.171875,3.796875 L 2.9648438,3.0039063 a 0.13230472,0.13230472 0 0 0 0,-0.1875 L 2.265625,2.1171875 2.9648438,1.4160156 a 0.13230472,0.13230472 0 0 0 0,-0.1875 L 2.171875,0.43554688 A 0.13230472,0.13230472 0 0 0 2.0273438,0.40625 Z M 2.2109375,0.84960938 2.6855469,1.3222656 2.2109375,1.796875 Z m 0,1.58593752 0.4746094,0.4746094 -0.4746094,0.4746093 z"
     id="path1519" />
</svg>
