<?xml version="1.0" encoding="UTF-8" standalone="no"?>
<!-- Created with Inkscape (http://www.inkscape.org/) -->

<svg
   width="16"
   height="16"
   viewBox="0 0 4.2333332 4.2333335"
   version="1.1"
   id="svg5"
   inkscape:version="1.1.2 (0a00cf5339, 2022-02-04, custom)"
   sodipodi:docname="preferences-desktop-default-applications.svg"
   xmlns:inkscape="http://www.inkscape.org/namespaces/inkscape"
   xmlns:sodipodi="http://sodipodi.sourceforge.net/DTD/sodipodi-0.dtd"
   xmlns:xlink="http://www.w3.org/1999/xlink"
   xmlns="http://www.w3.org/2000/svg"
   xmlns:svg="http://www.w3.org/2000/svg">
  <sodipodi:namedview
     id="namedview7"
     pagecolor="#ffffff"
     bordercolor="#666666"
     borderopacity="1.0"
     inkscape:pageshadow="2"
     inkscape:pageopacity="0.0"
     inkscape:pagecheckerboard="0"
     inkscape:document-units="px"
     showgrid="false"
     units="px"
     height="64px"
     inkscape:zoom="53.266664"
     inkscape:cx="7.9974973"
     inkscape:cy="8.4949942"
     inkscape:window-width="1920"
     inkscape:window-height="1004"
     inkscape:window-x="0"
     inkscape:window-y="24"
     inkscape:window-maximized="1"
     inkscape:current-layer="svg5" />
  <defs
     id="defs2">
    <linearGradient
       inkscape:collect="always"
       xlink:href="#linearGradient1723"
       id="linearGradient1725"
       x1="4.4979162"
       y1="2.3812499"
       x2="4.4979162"
       y2="5.0270834"
       gradientUnits="userSpaceOnUse"
       gradientTransform="matrix(0.66666668,0,0,0.80000003,-0.35277794,-0.58208332)" />
    <linearGradient
       inkscape:collect="always"
       id="linearGradient1723">
      <stop
         style="stop-color:#1088d6;stop-opacity:1;"
         offset="0"
         id="stop1719" />
      <stop
         style="stop-color:#076cbe;stop-opacity:1"
         offset="1"
         id="stop1721" />
    </linearGradient>
    <linearGradient
       inkscape:collect="always"
       xlink:href="#linearGradient6911"
       id="linearGradient59378"
       x1="35.875587"
       y1="-37.89032"
       x2="55.549019"
       y2="-19.004301"
       gradientUnits="userSpaceOnUse"
       gradientTransform="matrix(0.07257485,0,0,0.07278997,-0.14803408,5.2560278)" />
    <linearGradient
       inkscape:collect="always"
       id="linearGradient6911">
      <stop
         style="stop-color:#50b10e;stop-opacity:1;"
         offset="0"
         id="stop6907" />
      <stop
         style="stop-color:#18840f;stop-opacity:1"
         offset="1"
         id="stop6909" />
    </linearGradient>
  </defs>
  <path
     id="rect261617"
     style="fill:#797774;stroke-width:0.109727;stroke-linecap:round;stroke-linejoin:round"
     d="m 0.5291667,0.26458334 h 3.1749999 c 0.2931583,0 0.5291667,0.23600831 0.5291667,0.52916671 V 3.4395835 c 0,0.2931583 -0.2360084,0.5291667 -0.5291667,0.5291667 H 0.5291667 C 0.23600835,3.9687502 0,3.7327418 0,3.4395835 V 0.79375005 C 0,0.50059165 0.23600835,0.26458334 0.5291667,0.26458334 Z"
     sodipodi:nodetypes="sssssssss" />
  <path
     id="rect1043"
     style="fill:#fafafa;fill-opacity:1;stroke-width:0.79375;stroke-linecap:round;stroke-linejoin:round"
     d="M 0.52916659,1.0583333 H 3.7041666 c 0.1465792,0 0.2645834,0.1180042 0.2645834,0.2645833 v 2.1166666 c 0,0.146579 -0.1180042,0.264583 -0.2645834,0.264583 H 0.52916659 c -0.14657912,0 -0.26458329,-0.118004 -0.26458329,-0.264583 V 1.3229166 c 0,-0.1465791 0.11800417,-0.2645833 0.26458329,-0.2645833 z"
     sodipodi:nodetypes="sssssssss" />
  <path
     id="rect1066"
     style="fill:#c4c4c4;fill-opacity:1;stroke-width:0.396875;stroke-linecap:round;stroke-linejoin:round"
     d="m 2.6458334,0.52916665 v 0.2645833 h 0.2645833 v -0.2645833 z m 0.5291667,0 v 0.2645833 h 0.2645833 v -0.2645833 z m 0.5291666,0 v 0.2645833 H 3.96875 v -0.2645833 z" />
  <rect
     style="fill:url(#linearGradient1725);fill-opacity:1;stroke:none;stroke-width:0.0862906;stroke-linecap:round;stroke-linejoin:round"
     id="rect261621"
     width="1.0583334"
     height="2.1166668"
     x="1.5875"
     y="1.3229166" />
  <path
     id="rect845"
     style="fill:#bebebe;fill-opacity:1;stroke-width:0.561266;stroke-linecap:round;stroke-linejoin:round"
     d="M 0.52916667,1.3229167 V 1.5875 H 1.3229167 V 1.3229167 Z m 2.38124993,0 V 1.5875 H 3.7041668 V 1.3229167 Z M 0.52916667,1.8520836 V 2.1166669 H 1.3229167 V 1.8520836 Z m 2.38124993,0 V 2.1166669 H 3.7041668 V 1.8520836 Z M 0.52916667,2.3812503 V 2.6458337 H 1.3229167 V 2.3812503 Z m 2.38124993,0 V 2.6458337 H 3.7041668 V 2.3812503 Z M 0.52916667,2.9104169 V 3.1750002 H 1.3229167 V 2.9104169 Z m 2.38125003,0 v 0.2645833 h 0.79375 V 2.9104169 Z"
     sodipodi:nodetypes="cccccccccccccccccccccccccccccccccccccccc" />
  <circle
     style="fill:url(#linearGradient59378);fill-opacity:1;stroke-width:0.0576917;stroke-linecap:round;stroke-linejoin:round"
     id="path55509"
     cx="3.1750002"
     cy="3.1750002"
     r="1.0583334" />
  <path
     id="path69248"
     style="opacity:0.2;fill:#4d4d4d;fill-opacity:0.996078;stroke-width:0.456994;stroke-linecap:round;stroke-linejoin:round"
     d="M 12 8 C 9.7908609 8 8 9.7908616 8 12 C 8 14.209139 9.7908609 16 12 16 C 14.209138 16 16 14.209139 16 12 C 16 9.7908616 14.209138 8 12 8 z M 12 9 C 13.656854 9 15 10.343146 15 12 C 15 13.656854 13.656854 15 12 15 C 10.343145 15 9 13.656854 9 12 C 9 10.343146 10.343145 9 12 9 z "
     transform="scale(0.26458333)" />
  <path
     id="rect1469"
     style="fill:#ffffff;stroke-width:0.529151;stroke-linecap:round;stroke-linejoin:round"
     d="M 3.0101164,3.7377875 2.5103416,3.2380107 c -0.05182,-0.05182 -0.05182,-0.1352613 1e-7,-0.1870839 0.05182,-0.05182 0.1352615,-0.05182 0.1870839,0 L 3.0101351,3.3636391 3.6970134,2.6767608 c 0.05182,-0.05182 0.1352615,-0.05182 0.1870839,0 0.05182,0.05182 0.05182,0.1352615 10e-8,0.187084 z"
     sodipodi:nodetypes="cccccsccc" />
</svg>
