<?xml version="1.0" encoding="UTF-8" standalone="no"?>
<!-- Created with Inkscape (http://www.inkscape.org/) -->

<svg
   width="16"
   height="16"
   viewBox="0 0 4.2333332 4.2333335"
   version="1.1"
   id="svg5"
   inkscape:version="1.1.2 (0a00cf5339, 2022-02-04)"
   sodipodi:docname="preferences-desktop-theme-aaplication.svg"
   xmlns:inkscape="http://www.inkscape.org/namespaces/inkscape"
   xmlns:sodipodi="http://sodipodi.sourceforge.net/DTD/sodipodi-0.dtd"
   xmlns:xlink="http://www.w3.org/1999/xlink"
   xmlns="http://www.w3.org/2000/svg"
   xmlns:svg="http://www.w3.org/2000/svg">
  <sodipodi:namedview
     id="namedview7"
     pagecolor="#ffffff"
     bordercolor="#666666"
     borderopacity="1.0"
     inkscape:pageshadow="2"
     inkscape:pageopacity="0.0"
     inkscape:pagecheckerboard="0"
     inkscape:document-units="px"
     showgrid="false"
     units="px"
     height="64px"
     inkscape:zoom="61.75"
     inkscape:cx="8"
     inkscape:cy="8.4939271"
     inkscape:window-width="1920"
     inkscape:window-height="1011"
     inkscape:window-x="0"
     inkscape:window-y="0"
     inkscape:window-maximized="1"
     inkscape:current-layer="svg5" />
  <defs
     id="defs2">
    <linearGradient
       inkscape:collect="always"
       xlink:href="#linearGradient6060"
       id="linearGradient6062"
       x1="1.0583334"
       y1="1.0583338"
       x2="15.345835"
       y2="13.229167"
       gradientUnits="userSpaceOnUse"
       gradientTransform="matrix(0.125,0,0,0.125,1.0583333,1.3775567)" />
    <linearGradient
       inkscape:collect="always"
       id="linearGradient6060">
      <stop
         style="stop-color:#8a8f97;stop-opacity:1;"
         offset="0"
         id="stop6056" />
      <stop
         style="stop-color:#8a8f97;stop-opacity:1"
         offset="0.14573747"
         id="stop6576" />
      <stop
         style="stop-color:#616e7a;stop-opacity:1"
         offset="0.89999998"
         id="stop6770" />
      <stop
         style="stop-color:#616e7a;stop-opacity:1"
         offset="1"
         id="stop6058" />
    </linearGradient>
    <linearGradient
       inkscape:collect="always"
       xlink:href="#linearGradient7024"
       id="linearGradient7026"
       x1="14.634075"
       y1="13.653037"
       x2="4.0507412"
       y2="3.0697033"
       gradientUnits="userSpaceOnUse"
       gradientTransform="matrix(0.11111112,0,0,0.11111112,1.0786212,1.5051264)" />
    <linearGradient
       inkscape:collect="always"
       id="linearGradient7024">
      <stop
         style="stop-color:#ffffff;stop-opacity:1;"
         offset="0"
         id="stop7020" />
      <stop
         style="stop-color:#f0f0f0;stop-opacity:1"
         offset="0.25"
         id="stop7732" />
      <stop
         style="stop-color:#cccccc;stop-opacity:1"
         offset="1"
         id="stop7022" />
    </linearGradient>
    <linearGradient
       inkscape:collect="always"
       xlink:href="#linearGradient8250"
       id="linearGradient8252"
       x1="5.458415"
       y1="4.8895097"
       x2="12.337581"
       y2="11.768677"
       gradientUnits="userSpaceOnUse"
       gradientTransform="matrix(0.125,0,0,0.125,0.97134413,1.3599571)" />
    <linearGradient
       inkscape:collect="always"
       id="linearGradient8250">
      <stop
         style="stop-color:#0568ba;stop-opacity:1;"
         offset="0"
         id="stop8246" />
      <stop
         style="stop-color:#0568ba;stop-opacity:1"
         offset="0.23999999"
         id="stop9054" />
      <stop
         style="stop-color:#0f4c8a;stop-opacity:1"
         offset="0.80000001"
         id="stop8830" />
      <stop
         style="stop-color:#0f4c8f;stop-opacity:1"
         offset="1"
         id="stop8248" />
    </linearGradient>
  </defs>
  <path
     id="rect261617"
     style="fill:#797774;stroke-width:0.109727;stroke-linecap:round;stroke-linejoin:round"
     d="m 0.5291667,0.26458334 h 3.1749999 c 0.2931583,0 0.5291667,0.23600831 0.5291667,0.52916671 V 3.4395835 c 0,0.2931583 -0.2360084,0.5291667 -0.5291667,0.5291667 H 0.5291667 C 0.23600835,3.9687502 0,3.7327418 0,3.4395835 V 0.79375005 C 0,0.50059165 0.23600835,0.26458334 0.5291667,0.26458334 Z"
     sodipodi:nodetypes="sssssssss" />
  <path
     id="rect1043"
     style="fill:#fafafa;fill-opacity:1;stroke-width:0.79375;stroke-linecap:round;stroke-linejoin:round"
     d="M 0.52916659,1.0583333 H 3.7041666 c 0.1465792,0 0.2645834,0.1180042 0.2645834,0.2645833 v 2.1166666 c 0,0.146579 -0.1180042,0.264583 -0.2645834,0.264583 H 0.52916659 c -0.14657912,0 -0.26458329,-0.118004 -0.26458329,-0.264583 V 1.3229166 c 0,-0.1465791 0.11800417,-0.2645833 0.26458329,-0.2645833 z"
     sodipodi:nodetypes="sssssssss" />
  <path
     id="rect1066"
     style="fill:#c4c4c4;fill-opacity:1;stroke-width:0.396875;stroke-linecap:round;stroke-linejoin:round"
     d="m 2.6458334,0.52916665 v 0.2645833 h 0.2645833 v -0.2645833 z m 0.5291667,0 v 0.2645833 h 0.2645833 v -0.2645833 z m 0.5291666,0 v 0.2645833 H 3.96875 v -0.2645833 z" />
  <path
     id="path5884"
     style="fill:url(#linearGradient6062);fill-opacity:1;stroke-width:0.0330729"
     d="m 1.7877462,1.4300729 c -0.1389835,0.045566 -0.2670135,0.1194455 -0.3760107,0.2169764 0.059495,0.1190866 0.055323,0.2600694 -0.01111,0.3754293 -0.066747,0.1134982 -0.1854383,0.1865038 -0.3168412,0.1948847 -0.016052,0.07176 -0.024582,0.1449981 -0.025451,0.2185267 9.916e-4,0.073564 0.00965,0.1468237 0.025838,0.2185914 0.1312496,0.00849 0.2497672,0.081456 0.3164536,0.1948201 0.066197,0.1148777 0.070657,0.2552244 0.011886,0.3740728 C 1.5210386,3.3203593 1.6484046,3.3939154 1.786648,3.4394464 1.860214,3.3290937 1.9840406,3.2627814 2.1166666,3.262713 2.2493491,3.2627023 2.3732601,3.3289966 2.446879,3.4393818 2.5858315,3.3936571 2.7137963,3.3196232 2.8226959,3.2219532 2.7638571,3.1037996 2.7676098,2.9641252 2.8327082,2.8493015 2.8993792,2.7359123 3.0178994,2.6629228 3.1491617,2.6544168 3.1653443,2.5826702 3.1740039,2.5094322 3.175,2.43589 3.1741312,2.3623614 3.1656015,2.2891236 3.1495493,2.2173633 3.0181464,2.2089824 2.8994548,2.1359768 2.8327082,2.0224786 2.7672681,1.9071704 2.7637297,1.7668 2.8232772,1.6483412 2.7139034,1.5501469 2.5852748,1.475812 2.4455871,1.4300729 2.3727562,1.5409638 2.2493326,1.6081293 2.1166666,1.6090671 1.9840006,1.6081293 1.8605771,1.5409638 1.7877462,1.4300729 Z"
     sodipodi:nodetypes="ccccccccccccccccccccc" />
  <circle
     style="fill:url(#linearGradient7026);fill-opacity:1;stroke-width:0.0293981"
     id="path6952"
     cx="2.1166666"
     cy="2.4341667"
     r="0.5291667" />
  <circle
     style="fill:url(#linearGradient8252);fill-opacity:1;stroke-width:0.0330727"
     id="path8010"
     cx="2.1166666"
     cy="2.4341667"
     r="0.39687499" />
</svg>
