<?xml version="1.0" encoding="UTF-8" standalone="no"?>
<!-- Created with Inkscape (http://www.inkscape.org/) -->

<svg
   width="16"
   height="16"
   viewBox="0 0 4.2333333 4.2333335"
   version="1.1"
   id="svg69118"
   inkscape:version="1.1.2 (0a00cf5339, 2022-02-04, custom)"
   sodipodi:docname="system-error.svg"
   xmlns:inkscape="http://www.inkscape.org/namespaces/inkscape"
   xmlns:sodipodi="http://sodipodi.sourceforge.net/DTD/sodipodi-0.dtd"
   xmlns:xlink="http://www.w3.org/1999/xlink"
   xmlns="http://www.w3.org/2000/svg"
   xmlns:svg="http://www.w3.org/2000/svg">
  <sodipodi:namedview
     id="namedview69120"
     pagecolor="#ffffff"
     bordercolor="#666666"
     borderopacity="1.0"
     inkscape:pageshadow="2"
     inkscape:pageopacity="0.0"
     inkscape:pagecheckerboard="0"
     inkscape:document-units="px"
     showgrid="false"
     units="px"
     inkscape:zoom="6.4416668"
     inkscape:cx="33.842173"
     inkscape:cy="0.23285899"
     inkscape:window-width="1920"
     inkscape:window-height="1004"
     inkscape:window-x="0"
     inkscape:window-y="24"
     inkscape:window-maximized="1"
     inkscape:current-layer="svg69118" />
  <defs
     id="defs69115">
    <linearGradient
       inkscape:collect="always"
       xlink:href="#linearGradient59376"
       id="linearGradient59378"
       x1="45.787689"
       y1="-43.129013"
       x2="45.870358"
       y2="-13.964334"
       gradientUnits="userSpaceOnUse"
       gradientTransform="matrix(0.14514971,0,0,0.14557996,-4.529403,6.2787203)" />
    <linearGradient
       inkscape:collect="always"
       id="linearGradient59376">
      <stop
         style="stop-color:#e96311;stop-opacity:1"
         offset="0"
         id="stop59372" />
      <stop
         style="stop-color:#da3f04;stop-opacity:1"
         offset="1"
         id="stop59374" />
    </linearGradient>
  </defs>
  <circle
     style="fill:url(#linearGradient59378);fill-opacity:1;stroke-width:0.115383;stroke-linecap:round;stroke-linejoin:round"
     id="path55509"
     cx="2.1166668"
     cy="2.1166668"
     r="2.1166668" />
  <path
     id="path69248"
     style="opacity:0.2;fill:#4d4d4d;fill-opacity:0.996078;stroke-width:0.241826;stroke-linecap:round;stroke-linejoin:round"
     d="M 2.1166667,0 C 0.947664,-2e-8 -2.1166667e-8,0.94766396 0,2.1166668 c 0,1.1690027 0.947664,2.1166667 2.1166667,2.1166667 1.1690028,0 2.1166667,-0.947664 2.1166667,-2.1166667 C 4.2333334,0.94766396 3.2856695,0 2.1166667,0 Z m 0,0.26458334 c 1.0228776,0 1.8520834,0.82920606 1.8520834,1.85208346 0,1.0228773 -0.829206,1.8520833 -1.8520834,1.8520833 -1.0228773,0 -1.85208336,-0.8292057 -1.85208336,-1.8520833 0,-1.0228774 0.82920606,-1.85208349 1.85208336,-1.85208346 z" />
  <path
     id="rect101289"
     style="opacity:1;fill:#ffffff;fill-opacity:1;stroke-width:0.39688;stroke-linecap:round;stroke-linejoin:round"
     d="m 3.1361318,1.1876889 c -0.051824,-0.051824 -0.1352667,-0.051824 -0.1870909,0 L 2.1619103,1.9748195 1.3747797,1.1876889 c -0.051824,-0.051824 -0.1352667,-0.051824 -0.1870908,0 -0.051824,0.051824 -0.051824,0.1352667 0,0.1870908 L 1.9748195,2.1619103 1.1876889,2.9490409 c -0.051824,0.051824 -0.051824,0.1352667 0,0.1870909 0.051824,0.051824 0.1352667,0.051824 0.1870908,0 L 2.1619103,2.3490012 2.9490409,3.1361318 c 0.051824,0.051824 0.1352667,0.051824 0.1870909,0 0.051824,-0.051824 0.051824,-0.1352667 0,-0.1870909 L 2.3490012,2.1619103 3.1361318,1.3747797 c 0.051824,-0.051824 0.051824,-0.1352667 0,-0.1870908 z"
     sodipodi:nodetypes="ssccsccssscssscss" />
</svg>
