<?xml version="1.0" encoding="UTF-8" standalone="no"?>
<!-- Created with Inkscape (http://www.inkscape.org/) -->

<svg
   width="16"
   height="16"
   viewBox="0 0 4.2333332 4.2333335"
   version="1.1"
   id="svg5"
   inkscape:version="1.2.1 (9c6d41e410, 2022-07-14, custom)"
   sodipodi:docname="emblem-symbolic-link.svg"
   xmlns:inkscape="http://www.inkscape.org/namespaces/inkscape"
   xmlns:sodipodi="http://sodipodi.sourceforge.net/DTD/sodipodi-0.dtd"
   xmlns:xlink="http://www.w3.org/1999/xlink"
   xmlns="http://www.w3.org/2000/svg"
   xmlns:svg="http://www.w3.org/2000/svg">
  <sodipodi:namedview
     id="namedview7"
     pagecolor="#ffffff"
     bordercolor="#666666"
     borderopacity="1.0"
     inkscape:pageshadow="2"
     inkscape:pageopacity="0.0"
     inkscape:pagecheckerboard="0"
     inkscape:document-units="px"
     showgrid="false"
     units="px"
     height="22px"
     showguides="false"
     inkscape:zoom="51.25"
     inkscape:cx="7.9902439"
     inkscape:cy="8"
     inkscape:window-width="1920"
     inkscape:window-height="1029"
     inkscape:window-x="0"
     inkscape:window-y="0"
     inkscape:window-maximized="1"
     inkscape:current-layer="svg5"
     inkscape:showpageshadow="2"
     inkscape:deskcolor="#d1d1d1" />
  <defs
     id="defs2">
    <linearGradient
       inkscape:collect="always"
       id="linearGradient2733">
      <stop
         style="stop-color:#1b9de2;stop-opacity:1;"
         offset="0"
         id="stop2729" />
      <stop
         style="stop-color:#0178d4;stop-opacity:1"
         offset="1"
         id="stop2731" />
    </linearGradient>
    <linearGradient
       inkscape:collect="always"
       xlink:href="#linearGradient8163"
       id="linearGradient8165"
       x1="5.7449827"
       y1="8.3089285"
       x2="5.7449827"
       y2="19.347616"
       gradientUnits="userSpaceOnUse"
       gradientTransform="matrix(0.33679347,0,0,0.38349968,0.41678188,-3.1864713)" />
    <linearGradient
       inkscape:collect="always"
       id="linearGradient8163">
      <stop
         style="stop-color:#e8ebf1;stop-opacity:1;"
         offset="0"
         id="stop8159" />
      <stop
         style="stop-color:#c6cfdd;stop-opacity:1"
         offset="1"
         id="stop8161" />
    </linearGradient>
    <linearGradient
       inkscape:collect="always"
       xlink:href="#linearGradient2733"
       id="linearGradient2735"
       x1="10.259241"
       y1="6.7407818"
       x2="16.000286"
       y2="11.454827"
       gradientUnits="userSpaceOnUse"
       gradientTransform="matrix(0.26458333,0,0,0.26458333,-1.0584172,-0.52908173)" />
  </defs>
  <rect
     style="fill:url(#linearGradient8165);fill-opacity:1;stroke-width:0.0950885;stroke-linejoin:round"
     id="rect858"
     height="4.2333331"
     x="0"
     y="0"
     width="4.2333331"
     ry="0.52916664" />
  <path
     id="rect964"
     style="fill:#ffffff;stroke-width:0.264583;stroke-linejoin:round"
     d="M 0.52916665,0.26458336 H 3.7041665 c 0.1465791,0 0.2645833,0.11800416 0.2645833,0.26458331 V 3.7041665 c 0,0.1465791 -0.1180042,0.2645833 -0.2645833,0.2645833 H 0.52916665 c -0.14657915,0 -0.26458331,-0.1180042 -0.26458331,-0.2645833 V 0.52916667 c 0,-0.14657915 0.11800416,-0.26458331 0.26458331,-0.26458331 z"
     sodipodi:nodetypes="sssssssss" />
  <path
     id="rect1721"
     style="fill:url(#linearGradient2735);fill-opacity:1;stroke-width:0.324046;stroke-linejoin:round"
     d="m 1.7755185,1.0584182 c -0.105138,0.0053 -0.1881024,0.091939 -0.1881024,0.1984375 0,0.1099344 0.088503,0.1984375 0.1984375,0.1984375 h 0.7121012 l -1.381311,1.3807942 c -0.077739,0.077731 -0.077735,0.2028677 0,0.280603 0.077735,0.077735 0.2028638,0.077732 0.2806031,0 L 2.7780411,1.736413 v 0.7110677 c 0,0.1099343 0.088503,0.1984375 0.1984375,0.1984375 0.1099344,0 0.1984375,-0.088503 0.1984375,-0.1984375 V 1.267191 c 1.709e-4,-0.00339 0,-0.0069 0,-0.010335 0,-0.1064989 -0.082964,-0.1931424 -0.1881023,-0.1984375 -0.00339,-1.708e-4 -0.0069,0 -0.010335,0 H 2.9661435 1.7858536 c -0.00344,0 -0.00694,-1.708e-4 -0.010335,-3e-7 z"
     sodipodi:nodetypes="cssccsccssscssscsc" />
</svg>
