<?xml version="1.0" encoding="UTF-8" standalone="no"?>
<!-- Created with Inkscape (http://www.inkscape.org/) -->

<svg
   width="16"
   height="16"
   viewBox="0 0 4.2333332 4.2333335"
   version="1.1"
   id="svg5"
   inkscape:version="1.2.1 (9c6d41e410, 2022-07-14, custom)"
   sodipodi:docname="emblem-unreadable.svg"
   xmlns:inkscape="http://www.inkscape.org/namespaces/inkscape"
   xmlns:sodipodi="http://sodipodi.sourceforge.net/DTD/sodipodi-0.dtd"
   xmlns:xlink="http://www.w3.org/1999/xlink"
   xmlns="http://www.w3.org/2000/svg"
   xmlns:svg="http://www.w3.org/2000/svg">
  <sodipodi:namedview
     id="namedview7"
     pagecolor="#ffffff"
     bordercolor="#666666"
     borderopacity="1.0"
     inkscape:pageshadow="2"
     inkscape:pageopacity="0.0"
     inkscape:pagecheckerboard="0"
     inkscape:document-units="px"
     showgrid="false"
     units="px"
     height="22px"
     showguides="false"
     inkscape:zoom="51.25"
     inkscape:cx="7.6292683"
     inkscape:cy="8"
     inkscape:window-width="1920"
     inkscape:window-height="1029"
     inkscape:window-x="0"
     inkscape:window-y="0"
     inkscape:window-maximized="1"
     inkscape:current-layer="svg5"
     inkscape:showpageshadow="2"
     inkscape:deskcolor="#d1d1d1" />
  <defs
     id="defs2">
    <linearGradient
       inkscape:collect="always"
       xlink:href="#linearGradient8163"
       id="linearGradient8165"
       x1="5.7449827"
       y1="8.3089285"
       x2="5.7449827"
       y2="19.347616"
       gradientUnits="userSpaceOnUse"
       gradientTransform="matrix(0.33679347,0,0,0.38349968,0.41678188,-3.1864713)" />
    <linearGradient
       inkscape:collect="always"
       id="linearGradient8163">
      <stop
         style="stop-color:#e8ebf1;stop-opacity:1;"
         offset="0"
         id="stop8159" />
      <stop
         style="stop-color:#c6cfdd;stop-opacity:1"
         offset="1"
         id="stop8161" />
    </linearGradient>
    <linearGradient
       inkscape:collect="always"
       xlink:href="#linearGradient2733"
       id="linearGradient1062"
       x1="2.1115689"
       y1="2.7119792"
       x2="3.7554185"
       y2="2.7119792"
       gradientUnits="userSpaceOnUse"
       gradientTransform="rotate(45,3.4716829,1.5554007)" />
    <linearGradient
       inkscape:collect="always"
       id="linearGradient2733">
      <stop
         style="stop-color:#ed6767;stop-opacity:1"
         offset="0"
         id="stop2729" />
      <stop
         style="stop-color:#d40101;stop-opacity:1"
         offset="1"
         id="stop2731" />
    </linearGradient>
  </defs>
  <rect
     style="fill:url(#linearGradient8165);fill-opacity:1;stroke-width:0.0950885;stroke-linejoin:round"
     id="rect858"
     height="4.2333331"
     x="0"
     y="0"
     width="4.2333331"
     ry="0.52916664" />
  <path
     id="rect964"
     style="fill:#ffffff;stroke-width:0.264583;stroke-linejoin:round"
     d="M 0.52916665,0.26458336 H 3.7041665 c 0.1465791,0 0.2645833,0.11800416 0.2645833,0.26458331 V 3.7041665 c 0,0.1465791 -0.1180042,0.2645833 -0.2645833,0.2645833 H 0.52916665 c -0.14657915,0 -0.26458331,-0.1180042 -0.26458331,-0.2645833 V 0.52916667 c 0,-0.14657915 0.11800416,-0.26458331 0.26458331,-0.26458331 z"
     sodipodi:nodetypes="sssssssss" />
  <path
     id="rect853"
     style="fill:url(#linearGradient1062);fill-opacity:1;stroke-width:0.264583;stroke-linejoin:round"
     d="m 3.2391165,0.99421684 c -0.077735,-0.077735 -0.2028979,-0.0777351 -0.280633,0 L 2.1166667,1.8360336 1.2748498,0.99421684 c -0.077735,-0.077735 -0.2028976,-0.077735 -0.28063296,0 -0.077735,0.077735 -0.0777351,0.20289796 0,0.28063296 L 1.8360337,2.1166666 0.99421684,2.9584835 c -0.077735,0.077735 -0.077735,0.2028976 0,0.280633 0.077735,0.077735 0.20289796,0.077735 0.28063296,0 L 2.1166667,2.3972996 2.9584835,3.2391165 c 0.077735,0.077735 0.2028976,0.077735 0.280633,0 0.077735,-0.077735 0.077735,-0.2028979 0,-0.280633 L 2.3972997,2.1166666 3.2391165,1.2748498 c 0.077735,-0.077735 0.077735,-0.2028976 0,-0.28063296 z"
     sodipodi:nodetypes="sscssscssscssscss" />
</svg>
