<?xml version="1.0" encoding="UTF-8" standalone="no"?>
<svg
   width="22"
   height="22"
   version="1.1"
   viewBox="0 0 22 22"
   id="svg7"
   sodipodi:docname="nm-signal-75.svg"
   inkscape:version="1.1.1 (3bf5ae0d25, 2021-09-20, custom)"
   xmlns:inkscape="http://www.inkscape.org/namespaces/inkscape"
   xmlns:sodipodi="http://sodipodi.sourceforge.net/DTD/sodipodi-0.dtd"
   xmlns="http://www.w3.org/2000/svg"
   xmlns:svg="http://www.w3.org/2000/svg">
  <sodipodi:namedview
     id="namedview9"
     pagecolor="#ffffff"
     bordercolor="#666666"
     borderopacity="1.0"
     inkscape:pageshadow="2"
     inkscape:pageopacity="0.0"
     inkscape:pagecheckerboard="0"
     showgrid="false"
     inkscape:zoom="28.636364"
     inkscape:cx="11.296825"
     inkscape:cy="15.138095"
     inkscape:window-width="1920"
     inkscape:window-height="999"
     inkscape:window-x="0"
     inkscape:window-y="0"
     inkscape:window-maximized="1"
     inkscape:current-layer="svg7" />
  <defs
     id="defs3">
    <style
       id="current-color-scheme"
       type="text/css">.ColorScheme-Text { color:#363636; }</style>
  </defs>
  <path
     id="path859"
     style="opacity:0.25;fill:currentColor;fill-opacity:1"
     d="m 11,5.5976562 c -3.021,0 -5.873725,1.3332032 -7.828125,3.6582032 -0.2596,0.30878 -0.2194333,0.7697266 0.089844,1.0292966 0.1368299,0.11493 0.3026899,0.169922 0.46875,0.169922 0.2084399,0 0.4159168,-0.08784 0.5605468,-0.259766 C 5.9664156,8.2019125 8.4115,7.0585937 11,7.0585938 c 2.5885,0 5.033684,1.1438187 6.708984,3.1367182 0.14465,0.171921 0.352077,0.259766 0.560547,0.259766 0.16609,0 0.333873,-0.0545 0.470703,-0.169922 0.30878,-0.25913 0.347491,-0.7210166 0.08789,-1.0292966 C 16.874225,6.9307594 14.021,5.5976562 11,5.5976562 Z m 0,3.09375 c -2.158,0 -4.1959969,0.9529813 -5.5917969,2.6132818 -0.25958,0.30878 -0.2194292,0.769726 0.089844,1.029296 0.13683,0.11493 0.30266,0.169922 0.46875,0.169922 0.20844,0 0.4163869,-0.08786 0.5605469,-0.259765 C 7.6440434,10.915041 9.2745,10.152344 11,10.152344 c 1.7255,0 3.355456,0.762677 4.472656,2.091797 0.14465,0.17242 0.352597,0.259765 0.560547,0.259765 0.16609,0 0.33189,-0.0545 0.46875,-0.169922 0.30925,-0.25958 0.349394,-0.720996 0.08984,-1.029296 C 15.195497,9.6443875 13.158,8.6914063 11,8.6914062 Z"
     sodipodi:nodetypes="sccscscsccssccscscsccs" />
  <path
     id="path1931"
     style="opacity:1;fill:currentColor;stroke-width:1.28132;stroke-linejoin:round"
     d="M 11 8.6914062 C 8.842 8.6914062 6.8040031 9.6443867 5.4082031 11.304688 C 5.1486231 11.613468 5.1887737 12.074414 5.4980469 12.333984 C 5.6348769 12.448914 5.8007069 12.503906 5.9667969 12.503906 C 6.1752369 12.503906 6.3831838 12.416046 6.5273438 12.244141 C 7.6440431 10.915041 9.2745 10.152344 11 10.152344 C 12.7255 10.152344 14.355457 10.915021 15.472656 12.244141 C 15.617306 12.416561 15.825253 12.503906 16.033203 12.503906 C 16.199293 12.503906 16.365093 12.449406 16.501953 12.333984 C 16.811203 12.074404 16.851351 11.612987 16.591797 11.304688 C 15.195502 9.6443867 13.158 8.6914062 11 8.6914062 z M 11 11.90625 C 9.7045004 11.90625 8.4811313 12.476666 7.6445312 13.472656 C 7.3849313 13.781436 7.425095 14.242383 7.734375 14.501953 C 7.871205 14.616883 8.0389881 14.673828 8.2050781 14.673828 C 8.4135181 14.673828 8.6195119 14.584029 8.7636719 14.412109 C 9.3223019 13.747309 10.1375 13.367186 11 13.367188 C 11.86252 13.367188 12.677728 13.747349 13.236328 14.412109 C 13.380978 14.584529 13.586952 14.673828 13.794922 14.673828 C 13.961012 14.673828 14.128785 14.617383 14.265625 14.501953 C 14.574905 14.242353 14.615039 13.781406 14.355469 13.472656 C 13.518749 12.476696 12.2954 11.90625 11 11.90625 z M 11 14.673828 A 1.2025 1.2025 0 0 0 9.796875 15.875 A 1.2025 1.2025 0 0 0 11 17.078125 A 1.2025 1.2025 0 0 0 12.201172 15.875 A 1.2025 1.2025 0 0 0 11 14.673828 z " />
</svg>
