<?xml version="1.0" encoding="UTF-8" standalone="no"?>
<svg
   width="22"
   height="22"
   version="1.1"
   viewBox="0 0 22 22"
   id="svg7"
   sodipodi:docname="nm-signal-0.svg"
   inkscape:version="1.1.1 (3bf5ae0d25, 2021-09-20, custom)"
   xmlns:inkscape="http://www.inkscape.org/namespaces/inkscape"
   xmlns:sodipodi="http://sodipodi.sourceforge.net/DTD/sodipodi-0.dtd"
   xmlns="http://www.w3.org/2000/svg"
   xmlns:svg="http://www.w3.org/2000/svg">
  <sodipodi:namedview
     id="namedview9"
     pagecolor="#ffffff"
     bordercolor="#666666"
     borderopacity="1.0"
     inkscape:pageshadow="2"
     inkscape:pageopacity="0.0"
     inkscape:pagecheckerboard="0"
     showgrid="false"
     inkscape:zoom="28.636364"
     inkscape:cx="11.296825"
     inkscape:cy="15.138095"
     inkscape:window-width="1920"
     inkscape:window-height="999"
     inkscape:window-x="0"
     inkscape:window-y="0"
     inkscape:window-maximized="1"
     inkscape:current-layer="svg7" />
  <defs
     id="defs3">
    <style
       id="current-color-scheme"
       type="text/css">.ColorScheme-Text { color:#363636; }</style>
  </defs>
  <path
     id="path1931"
     style="opacity:0.35;fill:#dfdfdf;stroke-width:1.28132;stroke-linejoin:round"
     d="m 11,5.5976562 c -3.021,0 -5.873725,1.3332032 -7.828125,3.6582032 -0.2596,0.30878 -0.2194334,0.7697266 0.089844,1.0292966 0.1368298,0.11493 0.3026898,0.169922 0.46875,0.169922 0.2084398,0 0.4159168,-0.08784 0.5605468,-0.259766 C 5.9664156,8.201913 8.4115,7.0585936 11,7.0585938 c 2.5885,0 5.033684,1.1438192 6.708984,3.1367182 0.14465,0.171922 0.352077,0.259766 0.560547,0.259766 0.16609,0 0.333873,-0.0545 0.470703,-0.169922 0.30878,-0.25913 0.347491,-0.7210166 0.08789,-1.0292966 C 16.874225,6.9307594 14.021,5.5976562 11,5.5976562 Z m 0,3.09375 c -1.483625,0 -2.910831,0.4504475 -4.1113281,1.2714844 -0.1091361,0.074639 -0.2169993,0.1517164 -0.3222657,0.2324214 -0.4210653,0.322822 -0.8092531,0.6943 -1.1582031,1.109376 -0.032447,0.0386 -0.060844,0.08038 -0.083984,0.123046 -0.023141,0.04266 -0.040734,0.08551 -0.054688,0.13086 -0.055814,0.181383 -0.039524,0.379747 0.046875,0.548828 0.0216,0.04227 0.047936,0.08305 0.078125,0.121094 0.030189,0.03805 0.064856,0.07302 0.1035157,0.105468 0.13683,0.11493 0.30266,0.169922 0.46875,0.169922 0.05211,0 0.1032375,-0.0047 0.1542969,-0.01563 0.051059,-0.01092 0.1023597,-0.0271 0.1503906,-0.04883 C 6.3675461,12.396 6.4552638,12.330093 6.5273438,12.244141 7.6440431,10.915041 9.2745,10.152344 11,10.152344 c 1.7255,0 3.355457,0.762677 4.472656,2.091797 0.07232,0.08621 0.159798,0.151923 0.25586,0.195312 0.04803,0.02169 0.09939,0.03795 0.15039,0.04883 0.051,0.01088 0.10231,0.01563 0.154297,0.01563 0.16609,0 0.33189,-0.0545 0.46875,-0.169922 0.03866,-0.03245 0.07333,-0.06741 0.103516,-0.105468 0.03019,-0.03806 0.05653,-0.07881 0.07813,-0.121094 0.08639,-0.169157 0.102682,-0.367492 0.04687,-0.548828 -0.01395,-0.04533 -0.03155,-0.08823 -0.05469,-0.13086 -0.02314,-0.04263 -0.05154,-0.08451 -0.08398,-0.123046 C 16.155455,10.785843 15.657015,10.336089 15.111328,9.9628906 14.783916,9.7389715 14.439654,9.5421686 14.082031,9.375 13.128369,8.9292172 12.079,8.6914063 11,8.6914062 Z m 0,3.2148438 c -1.2954996,0 -2.5188687,0.570416 -3.3554688,1.566406 -0.2595999,0.30878 -0.2194362,0.769727 0.089844,1.029297 0.13683,0.11493 0.3046131,0.171875 0.4707031,0.171875 0.20844,0 0.4144338,-0.0898 0.5585938,-0.261719 C 9.3223019,13.747309 10.1375,13.367185 11,13.367188 c 0.86252,0 1.677728,0.380161 2.236328,1.044921 0.14465,0.17242 0.350624,0.261719 0.558594,0.261719 0.16609,0 0.333863,-0.05645 0.470703,-0.171875 0.30928,-0.2596 0.349414,-0.720547 0.08984,-1.029297 C 13.518749,12.476696 12.2954,11.90625 11,11.90625 Z m 0,2.767578 A 1.2025,1.2025 0 0 0 9.796875,15.875 1.2025,1.2025 0 0 0 11,17.078125 1.2025,1.2025 0 0 0 12.201172,15.875 1.2025,1.2025 0 0 0 11,14.673828 Z" />
</svg>
