<?xml version="1.0" encoding="UTF-8" standalone="no"?>
<!-- Created with Inkscape (http://www.inkscape.org/) -->

<svg
   width="22"
   height="22"
   viewBox="0 0 5.8208332 5.8208336"
   version="1.1"
   id="svg851"
   inkscape:version="1.1.2 (0a00cf5339, 2022-02-04, custom)"
   sodipodi:docname="network-wired.svg"
   xmlns:inkscape="http://www.inkscape.org/namespaces/inkscape"
   xmlns:sodipodi="http://sodipodi.sourceforge.net/DTD/sodipodi-0.dtd"
   xmlns="http://www.w3.org/2000/svg"
   xmlns:svg="http://www.w3.org/2000/svg">
  <sodipodi:namedview
     id="namedview853"
     pagecolor="#ffffff"
     bordercolor="#666666"
     borderopacity="1.0"
     inkscape:pageshadow="2"
     inkscape:pageopacity="0.0"
     inkscape:pagecheckerboard="0"
     inkscape:document-units="px"
     showgrid="false"
     units="px"
     showguides="false"
     inkscape:zoom="24.84375"
     inkscape:cx="3.6226415"
     inkscape:cy="16.805031"
     inkscape:window-width="1920"
     inkscape:window-height="1004"
     inkscape:window-x="0"
     inkscape:window-y="24"
     inkscape:window-maximized="1"
     inkscape:current-layer="svg851" />
  <defs
     id="defs848">
    <style
       id="current-color-scheme"
       type="text/css">.ColorScheme-Text { color:#363636; }</style>
  </defs>
  <path
     id="rect934"
     style="fill:currentColor;fill-opacity:1;stroke-width:1.05833;stroke-linecap:round;stroke-linejoin:round"
     d="m 3.9687501,0.79375001 c -0.1465792,0 -0.2645834,0.11800417 -0.2645834,0.26458329 V 2.38125 c 0,0.1465792 0.1180042,0.2645834 0.2645834,0.2645834 h 0.2645833 v 2.38125 h 0.2645834 v -2.38125 h 0.2645833 c 0.1465792,0 0.2645833,-0.1180042 0.2645833,-0.2645834 V 1.0583333 c 0,-0.14657912 -0.1180041,-0.26458329 -0.2645833,-0.26458329 z M 1.3229167,1.0583333 c -0.2931584,0 -0.52916669,0.2360084 -0.52916669,0.5291667 v 2.1166667 c 0,0.2931584 0.23600829,0.5291667 0.52916669,0.5291667 H 2.38125 V 4.7625001 H 1.8520834 V 5.0270834 H 3.9687501 V 4.7625001 H 3.4395834 V 4.2333334 H 3.9687501 V 3.9687501 H 1.3229167 c -0.1465792,0 -0.2645834,-0.1180042 -0.2645834,-0.2645834 V 1.5875 c 0,-0.1465792 0.1180042,-0.2645833 0.2645834,-0.2645833 H 3.4395834 V 1.0583333 Z m 2.6458334,0 h 0.79375 v 0.2645834 h -0.79375 z m 0,0.5291667 h 0.79375 v 0.79375 h -0.79375 z M 2.6458334,4.2333334 H 3.1750001 V 4.7625001 H 2.6458334 Z" />
</svg>
