<?xml version="1.0" encoding="UTF-8" standalone="no"?>
<svg
   width="22"
   height="22"
   version="1.1"
   viewBox="0 0 22 22"
   id="svg7"
   sodipodi:docname="nm-signal-25.svg"
   inkscape:version="1.1.1 (3bf5ae0d25, 2021-09-20, custom)"
   xmlns:inkscape="http://www.inkscape.org/namespaces/inkscape"
   xmlns:sodipodi="http://sodipodi.sourceforge.net/DTD/sodipodi-0.dtd"
   xmlns="http://www.w3.org/2000/svg"
   xmlns:svg="http://www.w3.org/2000/svg">
  <sodipodi:namedview
     id="namedview9"
     pagecolor="#ffffff"
     bordercolor="#666666"
     borderopacity="1.0"
     inkscape:pageshadow="2"
     inkscape:pageopacity="0.0"
     inkscape:pagecheckerboard="0"
     showgrid="false"
     inkscape:zoom="28.636364"
     inkscape:cx="11.296825"
     inkscape:cy="15.138095"
     inkscape:window-width="1920"
     inkscape:window-height="999"
     inkscape:window-x="0"
     inkscape:window-y="0"
     inkscape:window-maximized="1"
     inkscape:current-layer="svg7" />
  <defs
     id="defs3">
    <style
       id="current-color-scheme"
       type="text/css">.ColorScheme-Text { color:#363636; }</style>
  </defs>
  <path
     id="path859"
     style="color:#363636;fill:#dfdfdf;fill-opacity:1;opacity:0.25"
     d="M 11 5.5976562 C 7.979 5.5976562 5.126275 6.9308594 3.171875 9.2558594 C 2.912275 9.5646394 2.9524416 10.025586 3.2617188 10.285156 C 3.3985486 10.400086 3.5644086 10.455078 3.7304688 10.455078 C 3.9389086 10.455078 4.1463856 10.367234 4.2910156 10.195312 C 5.9664156 8.201913 8.4115 7.0585936 11 7.0585938 C 13.5885 7.0585938 16.033684 8.202413 17.708984 10.195312 C 17.853634 10.367234 18.061061 10.455078 18.269531 10.455078 C 18.435621 10.455078 18.603404 10.400576 18.740234 10.285156 C 19.049014 10.026026 19.087725 9.5641394 18.828125 9.2558594 C 16.874225 6.9307594 14.021 5.5976562 11 5.5976562 z M 11 8.6914062 C 8.842 8.6914062 6.8040031 9.644387 5.4082031 11.304688 C 5.1486231 11.613467 5.1887739 12.074414 5.4980469 12.333984 C 5.6348769 12.448914 5.8007069 12.503906 5.9667969 12.503906 C 6.1752369 12.503906 6.3831838 12.416051 6.5273438 12.244141 C 7.6440434 10.915041 9.2745 10.152344 11 10.152344 C 12.7255 10.152344 14.355456 10.915021 15.472656 12.244141 C 15.617306 12.416561 15.825253 12.503906 16.033203 12.503906 C 16.199293 12.503906 16.365093 12.449404 16.501953 12.333984 C 16.811203 12.074404 16.851347 11.612987 16.591797 11.304688 C 15.195497 9.644387 13.158 8.6914064 11 8.6914062 z M 11 11.90625 C 9.7045004 11.90625 8.4811312 12.476666 7.6445312 13.472656 C 7.3849313 13.781436 7.425095 14.242383 7.734375 14.501953 C 7.871205 14.616883 8.0389881 14.673828 8.2050781 14.673828 C 8.4135181 14.673828 8.6195119 14.584029 8.7636719 14.412109 C 9.3223019 13.747309 10.1375 13.367187 11 13.367188 C 11.86252 13.367188 12.677728 13.747349 13.236328 14.412109 C 13.380978 14.584529 13.586952 14.673828 13.794922 14.673828 C 13.961012 14.673828 14.128785 14.617383 14.265625 14.501953 C 14.574905 14.242353 14.615039 13.781406 14.355469 13.472656 C 13.518749 12.476696 12.2954 11.90625 11 11.90625 z " />
  <circle
     style="opacity:1;fill:#dfdfdf;stroke-width:1.28132;stroke-linejoin:round"
     id="path1931"
     cx="10.999499"
     cy="15.8755"
     r="1.2025" />
</svg>
