<?xml version="1.0" encoding="UTF-8" standalone="no"?>
<svg
   width="22"
   height="22"
   version="1.1"
   viewBox="0 0 22 22"
   id="svg7"
   sodipodi:docname="network-wireless-secure-signal-excellent.svg"
   inkscape:version="1.1.1 (3bf5ae0d25, 2021-09-20, custom)"
   xmlns:inkscape="http://www.inkscape.org/namespaces/inkscape"
   xmlns:sodipodi="http://sodipodi.sourceforge.net/DTD/sodipodi-0.dtd"
   xmlns="http://www.w3.org/2000/svg"
   xmlns:svg="http://www.w3.org/2000/svg">
  <sodipodi:namedview
     id="namedview9"
     pagecolor="#ffffff"
     bordercolor="#666666"
     borderopacity="1.0"
     inkscape:pageshadow="2"
     inkscape:pageopacity="0.0"
     inkscape:pagecheckerboard="0"
     showgrid="false"
     inkscape:zoom="6.1171875"
     inkscape:cx="-17.083014"
     inkscape:cy="24.275862"
     inkscape:window-width="1920"
     inkscape:window-height="999"
     inkscape:window-x="0"
     inkscape:window-y="0"
     inkscape:window-maximized="1"
     inkscape:current-layer="svg7"
     showguides="true" />
  <defs
     id="defs3">
    <style
       id="current-color-scheme"
       type="text/css">.ColorScheme-Text { color:#363636; }</style>
  </defs>
  <path
     id="path1931"
     style="opacity:1;fill:#currentColor;stroke-width:1.28132;stroke-linejoin:round"
     d="m 10.999312,5.26 c -3.021,0 -5.873725,1.3332032 -7.828125,3.6582032 C 2.911587,9.2269831 2.9517533,9.68793 3.261031,9.9475 c 0.1368298,0.11493 0.3026898,0.169922 0.46875,0.169922 0.2084398,0 0.4159168,-0.08784 0.5605468,-0.2597657 1.6753998,-1.993399 4.1204844,-3.136719 6.7089842,-3.1367188 2.5885,0 5.033684,1.1438198 6.708984,3.1367188 0.14465,0.1719217 0.352077,0.2597657 0.560547,0.2597657 0.16609,0 0.333873,-0.0545 0.470703,-0.169922 0.30878,-0.25913 0.347492,-0.7210168 0.08789,-1.0292968 C 16.873538,6.5931032 14.020312,5.26 10.999312,5.26 Z m 0,3.09375 c -1.483625,0 -2.910831,0.4504475 -4.1113281,1.2714844 C 6.7788478,9.6998734 6.6709847,9.7769513 6.5657182,9.8576563 6.144653,10.180478 5.7564651,10.551955 5.4075151,10.967031 c -0.032447,0.0386 -0.060844,0.08038 -0.083984,0.123047 -0.023141,0.04266 -0.040734,0.08551 -0.054688,0.13086 -0.055814,0.181383 -0.039524,0.379747 0.046875,0.548828 0.0216,0.04227 0.047936,0.08305 0.078125,0.121093 0.030189,0.03805 0.064856,0.07302 0.1035157,0.105469 0.13683,0.11493 0.30266,0.169922 0.46875,0.169922 0.05211,0 0.1032375,-0.0047 0.1542969,-0.01563 0.051059,-0.01092 0.1023597,-0.0271 0.1503906,-0.04883 0.096062,-0.04345 0.1837795,-0.109354 0.2558595,-0.195306 1.1166993,-1.3291 2.7471562,-2.0917965 4.4726562,-2.0917965 1.7255,0 3.355457,0.7626765 4.472656,2.0917965 0.07232,0.08621 0.159798,0.151924 0.25586,0.195313 0.04803,0.02169 0.09939,0.03795 0.15039,0.04883 0.051,0.01088 0.10231,0.01563 0.154297,0.01563 0.16609,0 0.33189,-0.0545 0.46875,-0.169922 0.03866,-0.03245 0.07333,-0.06741 0.103516,-0.105469 0.03019,-0.03806 0.05653,-0.07881 0.07813,-0.121093 0.08639,-0.169157 0.102687,-0.367492 0.04687,-0.548828 -0.01395,-0.04533 -0.03155,-0.08823 -0.05469,-0.13086 -0.02314,-0.04263 -0.05154,-0.08451 -0.08398,-0.123047 C 16.154765,10.448186 15.656327,9.9984328 15.11064,9.6252344 14.783228,9.4013153 14.438966,9.2045124 14.081343,9.0373438 13.127681,8.591561 12.078312,8.3537501 10.999312,8.35375 Z m 0,3.214844 c -1.2954996,0 -2.5188686,0.570416 -3.3554688,1.566406 -0.2595998,0.30878 -0.2194364,0.769727 0.089844,1.029296 0.13683,0.11493 0.3046131,0.171875 0.4707031,0.171876 0.20844,0 0.4144338,-0.0898 0.5585938,-0.261719 0.5586296,-0.6648 1.3738279,-1.044925 2.2363279,-1.044922 0.86252,0 1.677728,0.380162 2.236328,1.044922 0.14465,0.17242 0.350624,0.261718 0.558594,0.261719 0.16609,0 0.333863,-0.05645 0.470703,-0.171876 0.30928,-0.2596 0.349418,-0.720546 0.08984,-1.029296 -0.836712,-0.99596 -2.060065,-1.566406 -3.355465,-1.566406 z m 0,2.767578 c -0.663848,-3.45e-4 -1.202392,0.537323 -1.203125,1.201171 -3.455e-4,0.664611 0.538514,1.203471 1.203125,1.203125 0.663848,-7.33e-4 1.201517,-0.539277 1.201172,-1.203125 -7.32e-4,-0.663086 -0.538086,-1.20044 -1.201172,-1.201171 z" />
  <path
     id="path2843"
     style="fill:currentColor;fill-opacity:1;stroke-linejoin:round"
     d="m 16.499312,13.000234 c -0.828427,0 -1.5,0.671573 -1.5,1.5 v 0.5 c -0.554,0 -1,0.446 -1,1 v 2 c 0,0.554 0.446,1 1,1 h 3 c 0.554,0 1,-0.446 1,-1 v -2 c 0,-0.554 -0.446,-1 -1,-1 v -0.5 c 0,-0.828427 -0.671573,-1.5 -1.5,-1.5 z m 0,1 c 0.276142,0 0.5,0.223858 0.5,0.5 v 0.5 h -1 v -0.5 c 0,-0.276142 0.223858,-0.5 0.5,-0.5 z m -1.5,2 h 3 v 2 h -3 z" />
</svg>
