<?xml version="1.0" encoding="UTF-8" standalone="no"?>
<svg
   width="22"
   height="22"
   version="1.1"
   viewBox="0 0 22 22"
   id="svg7"
   sodipodi:docname="nm-signal-100.svg"
   inkscape:version="1.1.1 (3bf5ae0d25, 2021-09-20, custom)"
   xmlns:inkscape="http://www.inkscape.org/namespaces/inkscape"
   xmlns:sodipodi="http://sodipodi.sourceforge.net/DTD/sodipodi-0.dtd"
   xmlns="http://www.w3.org/2000/svg"
   xmlns:svg="http://www.w3.org/2000/svg">
  <sodipodi:namedview
     id="namedview9"
     pagecolor="#ffffff"
     bordercolor="#666666"
     borderopacity="1.0"
     inkscape:pageshadow="2"
     inkscape:pageopacity="0.0"
     inkscape:pagecheckerboard="0"
     showgrid="false"
     inkscape:zoom="28.636364"
     inkscape:cx="11.296825"
     inkscape:cy="15.138095"
     inkscape:window-width="1920"
     inkscape:window-height="999"
     inkscape:window-x="0"
     inkscape:window-y="0"
     inkscape:window-maximized="1"
     inkscape:current-layer="svg7" />
  <defs
     id="defs3">
    <style
       id="current-color-scheme"
       type="text/css">.ColorScheme-Text { color:#363636; }</style>
  </defs>
  <path
     id="path1931"
     style="opacity:1;fill:currentColor;stroke-width:1.28132;stroke-linejoin:round"
     d="M 11 5.5976562 C 7.979 5.5976562 5.126275 6.9308594 3.171875 9.2558594 C 2.912275 9.5646394 2.9524416 10.025586 3.2617188 10.285156 C 3.3985486 10.400086 3.5644086 10.455078 3.7304688 10.455078 C 3.9389086 10.455078 4.1463856 10.367234 4.2910156 10.195312 C 5.9664156 8.201913 8.4115 7.0585936 11 7.0585938 C 13.5885 7.0585938 16.033684 8.202413 17.708984 10.195312 C 17.853634 10.367234 18.061061 10.455078 18.269531 10.455078 C 18.435621 10.455078 18.603404 10.400576 18.740234 10.285156 C 19.049014 10.026026 19.087725 9.5641394 18.828125 9.2558594 C 16.874225 6.9307594 14.021 5.5976562 11 5.5976562 z M 11 8.6914062 C 9.516375 8.6914062 8.089169 9.1418537 6.8886719 9.9628906 C 6.7795358 10.03753 6.6716726 10.114607 6.5664062 10.195312 C 6.1453409 10.518134 5.7571531 10.889612 5.4082031 11.304688 C 5.3757556 11.343285 5.3473594 11.385072 5.3242188 11.427734 C 5.3010781 11.470397 5.2834847 11.513248 5.2695312 11.558594 C 5.2137174 11.739977 5.2300068 11.938341 5.3164062 12.107422 C 5.3380061 12.149692 5.364342 12.190467 5.3945312 12.228516 C 5.4247205 12.266564 5.4593877 12.301538 5.4980469 12.333984 C 5.6348769 12.448914 5.8007069 12.503906 5.9667969 12.503906 C 6.0189069 12.503906 6.0700344 12.499204 6.1210938 12.488281 C 6.1721531 12.477358 6.2234535 12.46118 6.2714844 12.439453 C 6.3675461 12.396 6.4552638 12.330093 6.5273438 12.244141 C 7.6440431 10.915041 9.2745 10.152344 11 10.152344 C 12.7255 10.152344 14.355457 10.915021 15.472656 12.244141 C 15.544981 12.330351 15.632454 12.396064 15.728516 12.439453 C 15.776547 12.461147 15.827908 12.477399 15.878906 12.488281 C 15.929904 12.499164 15.981216 12.503906 16.033203 12.503906 C 16.199293 12.503906 16.365093 12.449406 16.501953 12.333984 C 16.540609 12.301537 16.575282 12.266577 16.605469 12.228516 C 16.635656 12.190454 16.661995 12.149711 16.683594 12.107422 C 16.769987 11.938265 16.786276 11.73993 16.730469 11.558594 C 16.716517 11.51326 16.69892 11.470363 16.675781 11.427734 C 16.652643 11.385105 16.624241 11.343225 16.591797 11.304688 C 16.155455 10.785843 15.657015 10.336089 15.111328 9.9628906 C 14.783916 9.7389715 14.439654 9.5421686 14.082031 9.375 C 13.128369 8.9292172 12.079 8.6914063 11 8.6914062 z M 11 11.90625 C 9.7045004 11.90625 8.4811313 12.476666 7.6445312 13.472656 C 7.3849313 13.781436 7.425095 14.242383 7.734375 14.501953 C 7.871205 14.616883 8.0389881 14.673828 8.2050781 14.673828 C 8.4135181 14.673828 8.6195119 14.584029 8.7636719 14.412109 C 9.3223019 13.747309 10.1375 13.367185 11 13.367188 C 11.86252 13.367188 12.677728 13.747349 13.236328 14.412109 C 13.380978 14.584529 13.586952 14.673828 13.794922 14.673828 C 13.961012 14.673828 14.128785 14.617383 14.265625 14.501953 C 14.574905 14.242353 14.615039 13.781406 14.355469 13.472656 C 13.518749 12.476696 12.2954 11.90625 11 11.90625 z M 11 14.673828 A 1.2025 1.2025 0 0 0 9.796875 15.875 A 1.2025 1.2025 0 0 0 11 17.078125 A 1.2025 1.2025 0 0 0 12.201172 15.875 A 1.2025 1.2025 0 0 0 11 14.673828 z " />
</svg>
