<?xml version="1.0" encoding="UTF-8" standalone="no"?>
<svg
   width="16px"
   height="16px"
   version="1.1"
   viewBox="0 0 16 16"
   id="svg115"
   sodipodi:docname="org.gnome.Settings-multitasking-symbolic.svg"
   inkscape:version="1.1.2 (0a00cf5339, 2022-02-04, custom)"
   xmlns:inkscape="http://www.inkscape.org/namespaces/inkscape"
   xmlns:sodipodi="http://sodipodi.sourceforge.net/DTD/sodipodi-0.dtd"
   xmlns="http://www.w3.org/2000/svg"
   xmlns:svg="http://www.w3.org/2000/svg">
  <defs
     id="defs119" />
  <sodipodi:namedview
     id="namedview117"
     pagecolor="#ffffff"
     bordercolor="#666666"
     borderopacity="1.0"
     inkscape:pageshadow="2"
     inkscape:pageopacity="0.0"
     inkscape:pagecheckerboard="0"
     showgrid="false"
     inkscape:zoom="7.380427"
     inkscape:cx="-23.304885"
     inkscape:cy="16.801196"
     inkscape:window-width="1920"
     inkscape:window-height="998"
     inkscape:window-x="0"
     inkscape:window-y="0"
     inkscape:window-maximized="1"
     inkscape:current-layer="svg115" />
  <filter
     id="a"
     x="0"
     y="0"
     width="1"
     height="1">
    <feColorMatrix
       in="SourceGraphic"
       values="0 0 0 0 1 0 0 0 0 1 0 0 0 0 1 0 0 0 1 0"
       id="feColorMatrix2" />
  </filter>
  <mask
     id="b">
    <g
       filter="url(#a)"
       id="g7">
      <path
         d="m0 0h16v16h-16z"
         fill-opacity=".3"
         id="path5" />
    </g>
  </mask>
  <clipPath
     id="c">
    <path
       d="m0 0h1024v800h-1024z"
       id="path10" />
  </clipPath>
  <mask
     id="d">
    <g
       filter="url(#a)"
       id="g15">
      <path
         d="m0 0h16v16h-16z"
         fill-opacity=".05"
         id="path13" />
    </g>
  </mask>
  <clipPath
     id="e">
    <path
       d="m0 0h1024v800h-1024z"
       id="path18" />
  </clipPath>
  <mask
     id="f">
    <g
       filter="url(#a)"
       id="g23">
      <path
         d="m0 0h16v16h-16z"
         fill-opacity=".05"
         id="path21" />
    </g>
  </mask>
  <clipPath
     id="g">
    <path
       d="m0 0h1024v800h-1024z"
       id="path26" />
  </clipPath>
  <mask
     id="h">
    <g
       filter="url(#a)"
       id="g31">
      <path
         d="m0 0h16v16h-16z"
         fill-opacity=".05"
         id="path29" />
    </g>
  </mask>
  <clipPath
     id="i">
    <path
       d="m0 0h1024v800h-1024z"
       id="path34" />
  </clipPath>
  <mask
     id="j">
    <g
       filter="url(#a)"
       id="g39">
      <path
         d="m0 0h16v16h-16z"
         fill-opacity=".05"
         id="path37" />
    </g>
  </mask>
  <clipPath
     id="k">
    <path
       d="m0 0h1024v800h-1024z"
       id="path42" />
  </clipPath>
  <mask
     id="l">
    <g
       filter="url(#a)"
       id="g47">
      <path
         d="m0 0h16v16h-16z"
         fill-opacity=".05"
         id="path45" />
    </g>
  </mask>
  <clipPath
     id="m">
    <path
       d="m0 0h1024v800h-1024z"
       id="path50" />
  </clipPath>
  <mask
     id="n">
    <g
       filter="url(#a)"
       id="g55">
      <path
         d="m0 0h16v16h-16z"
         fill-opacity=".05"
         id="path53" />
    </g>
  </mask>
  <clipPath
     id="o">
    <path
       d="m0 0h1024v800h-1024z"
       id="path58" />
  </clipPath>
  <mask
     id="p">
    <g
       filter="url(#a)"
       id="g63">
      <path
         d="m0 0h16v16h-16z"
         fill-opacity=".3"
         id="path61" />
    </g>
  </mask>
  <clipPath
     id="q">
    <path
       d="m0 0h1024v800h-1024z"
       id="path66" />
  </clipPath>
  <mask
     id="r">
    <g
       filter="url(#a)"
       id="g71">
      <path
         d="m0 0h16v16h-16z"
         fill-opacity=".5"
         id="path69" />
    </g>
  </mask>
  <clipPath
     id="s">
    <path
       d="m0 0h1024v800h-1024z"
       id="path74" />
  </clipPath>
  <path
     d="m4 1c-0.554 0-1 0.446-1 1v1h-2c-0.554 0-1 0.446-1 1v8c0 0.554 0.446 1 1 1h2v1c0 0.554 0.446 1 1 1h8c0.554 0 1-0.446 1-1v-1h2c0.554 0 1-0.446 1-1v-8c0-0.554-0.446-1-1-1h-2v-1c0-0.554-0.446-1-1-1h-8zm0 1h8v12h-8v-12zm-3 2h2v8h-2v-8zm12 0h2v8h-2v-8z"
     fill="#363636"
     style="paint-order:stroke fill markers"
     id="path113" />
</svg>
