<?xml version="1.0" encoding="UTF-8" standalone="no"?>
<!-- Created with Inkscape (http://www.inkscape.org/) -->

<svg
   width="64"
   height="64"
   viewBox="0 0 16.933333 16.933334"
   version="1.1"
   id="svg69118"
   inkscape:version="1.2.1 (9c6d41e410, 2022-07-14)"
   sodipodi:docname="dialog-information.svg"
   xmlns:inkscape="http://www.inkscape.org/namespaces/inkscape"
   xmlns:sodipodi="http://sodipodi.sourceforge.net/DTD/sodipodi-0.dtd"
   xmlns:xlink="http://www.w3.org/1999/xlink"
   xmlns="http://www.w3.org/2000/svg"
   xmlns:svg="http://www.w3.org/2000/svg">
  <sodipodi:namedview
     id="namedview69120"
     pagecolor="#ffffff"
     bordercolor="#666666"
     borderopacity="1.0"
     inkscape:pageshadow="2"
     inkscape:pageopacity="0.0"
     inkscape:pagecheckerboard="0"
     inkscape:document-units="px"
     showgrid="false"
     units="px"
     inkscape:zoom="13.2"
     inkscape:cx="32.007576"
     inkscape:cy="31.969697"
     inkscape:window-width="1920"
     inkscape:window-height="1007"
     inkscape:window-x="0"
     inkscape:window-y="0"
     inkscape:window-maximized="1"
     inkscape:current-layer="svg69118"
     width="64px"
     inkscape:showpageshadow="2"
     inkscape:deskcolor="#d1d1d1" />
  <defs
     id="defs69115">
    <linearGradient
       inkscape:collect="always"
       xlink:href="#linearGradient59376"
       id="linearGradient59378"
       x1="45.787689"
       y1="-43.129013"
       x2="45.593357"
       y2="-14.11183"
       gradientUnits="userSpaceOnUse"
       gradientTransform="matrix(0.54431138,0,0,0.54592482,-16.456093,24.074367)" />
    <linearGradient
       inkscape:collect="always"
       id="linearGradient59376">
      <stop
         style="stop-color:#189ae1;stop-opacity:1;"
         offset="0"
         id="stop59372" />
      <stop
         style="stop-color:#037cd6;stop-opacity:0.99607843"
         offset="1"
         id="stop59374" />
    </linearGradient>
  </defs>
  <ellipse
     style="fill:url(#linearGradient59378);fill-opacity:1;stroke-width:0.432686;stroke-linecap:round;stroke-linejoin:round"
     id="path55509"
     cx="8.4666662"
     cy="8.4666662"
     rx="7.9375"
     ry="7.9374995" />
  <path
     id="path69248"
     style="opacity:0.2;fill:#4d4d4d;fill-opacity:0.996078;stroke-width:0.906846;stroke-linecap:round;stroke-linejoin:round"
     d="M 8.4666675,0.5291669 A 7.9374998,7.9374998 0 0 0 0.52916761,8.4666668 7.9374998,7.9374998 0 0 0 8.4666675,16.404167 7.9374998,7.9374998 0 0 0 16.404167,8.4666668 7.9374998,7.9374998 0 0 0 8.4666675,0.5291669 Z m 0,0.5291667 A 7.4083332,7.4083332 0 0 1 15.875,8.4666668 7.4083332,7.4083332 0 0 1 8.4666675,15.875 7.4083332,7.4083332 0 0 1 1.0583343,8.4666668 7.4083332,7.4083332 0 0 1 8.4666675,1.0583336 Z" />
  <path
     id="path929"
     style="opacity:1;fill:#ffffff;stroke-width:0.090056;stroke-linecap:round;stroke-linejoin:round"
     d="M 8.4470297 3.175 C 8.018122 3.1858 7.6729161 3.5372247 7.6729167 3.96875 C 7.6729161 4.4071272 8.0282912 4.7625 8.4666667 4.7625 C 8.9050429 4.7625 9.2604175 4.4071272 9.2604168 3.96875 C 9.2604175 3.5303739 8.9050429 3.175 8.4666667 3.175 C 8.4598168 3.175 8.4538325 3.1748272 8.4470297 3.175 z M 8.4666667 6.3500001 C 8.0269297 6.3500001 7.6729167 6.704013 7.6729167 7.1437501 L 7.6729167 12.964583 C 7.6729167 13.404321 8.0269297 13.758333 8.4666667 13.758333 C 8.9064038 13.758333 9.2604168 13.404321 9.2604168 12.964583 L 9.2604168 7.1437501 C 9.2604168 6.704013 8.9064038 6.3500001 8.4666667 6.3500001 z " />
</svg>
