<?xml version="1.0" encoding="UTF-8" standalone="no"?>
<!-- Created with Inkscape (http://www.inkscape.org/) -->

<svg
   width="64"
   height="64"
   viewBox="0 0 16.933333 16.933334"
   version="1.1"
   id="svg69118"
   inkscape:version="1.2.1 (9c6d41e410, 2022-07-14)"
   sodipodi:docname="dialog-password.svg"
   xmlns:inkscape="http://www.inkscape.org/namespaces/inkscape"
   xmlns:sodipodi="http://sodipodi.sourceforge.net/DTD/sodipodi-0.dtd"
   xmlns:xlink="http://www.w3.org/1999/xlink"
   xmlns="http://www.w3.org/2000/svg"
   xmlns:svg="http://www.w3.org/2000/svg">
  <sodipodi:namedview
     id="namedview69120"
     pagecolor="#ffffff"
     bordercolor="#666666"
     borderopacity="1.0"
     inkscape:pageshadow="2"
     inkscape:pageopacity="0.0"
     inkscape:pagecheckerboard="0"
     inkscape:document-units="px"
     showgrid="false"
     units="px"
     inkscape:zoom="6.663793"
     inkscape:cx="22.359638"
     inkscape:cy="33.31436"
     inkscape:window-width="1920"
     inkscape:window-height="1007"
     inkscape:window-x="0"
     inkscape:window-y="0"
     inkscape:window-maximized="1"
     inkscape:current-layer="svg69118"
     inkscape:showpageshadow="2"
     inkscape:deskcolor="#d1d1d1" />
  <defs
     id="defs69115">
    <linearGradient
       inkscape:collect="always"
       id="linearGradient115183">
      <stop
         style="stop-color:#fedf00;stop-opacity:1;"
         offset="0"
         id="stop115179" />
      <stop
         style="stop-color:#ffbb01;stop-opacity:1"
         offset="1"
         id="stop115181" />
    </linearGradient>
    <linearGradient
       inkscape:collect="always"
       xlink:href="#linearGradient115183"
       id="linearGradient8763"
       x1="16"
       y1="1.0351562"
       x2="16"
       y2="29.9375"
       gradientUnits="userSpaceOnUse"
       gradientTransform="matrix(0.52916668,0,0,0.53095464,0,0.24412904)" />
    <linearGradient
       inkscape:collect="always"
       xlink:href="#linearGradient129670"
       id="linearGradient9363"
       gradientUnits="userSpaceOnUse"
       gradientTransform="matrix(0.52916667,0,0,0.53095462,2.0375e-7,0.24412846)"
       x1="16"
       y1="1.0351573"
       x2="16"
       y2="29.9375" />
    <linearGradient
       inkscape:collect="always"
       id="linearGradient129670">
      <stop
         style="stop-color:#26ade9;stop-opacity:1;"
         offset="0"
         id="stop129666" />
      <stop
         style="stop-color:#0580d8;stop-opacity:0.99607843"
         offset="1"
         id="stop129668" />
    </linearGradient>
  </defs>
  <path
     id="path5150"
     style="color:#000000;fill:url(#linearGradient8763);fill-opacity:1;stroke-width:0.53006;stroke-linecap:round;stroke-linejoin:round;-inkscape-stroke:none"
     d="M 8.4666667,0.79375001 C 7.0867477,0.89073833 6.1586269,1.0074102 4.9237306,1.8286967 3.7467262,2.4813244 2.4060186,2.3475148 1.5885336,2.3679476 1.2958914,2.3674036 1.0583621,2.6052708 1.0583333,2.8989022 v 5.3095463 0.00104 c 0.00197,1.6928862 1.1762079,3.5911455 2.7057781,5.1581415 1.3798084,1.413522 3.0653127,2.564609 4.7025553,2.771956 C 10.103909,15.93224 11.789414,14.781152 13.169223,13.36763 14.698793,11.800634 15.873032,9.9023747 15.875,8.2094885 V 8.2084485 2.8989022 C 15.874972,2.6052708 15.637442,2.3674036 15.3448,2.3679476 14.527315,2.3475148 13.186608,2.4802874 12.009603,1.8276597 10.774707,1.0063733 9.8465859,0.89073865 8.4666667,0.79375001 Z"
     sodipodi:nodetypes="cccccscccsccccc" />
  <path
     id="path5150-06"
     style="color:#000000;fill:url(#linearGradient9363);fill-opacity:1;stroke-width:0.530061;stroke-linecap:round;stroke-linejoin:round;-inkscape-stroke:none"
     d="m 8.4666668,0.79375002 c -0.021127,0.001485 -0.040061,0.003671 -0.060978,0.005168 V 8.1834799 H 15.875 V 2.8990479 C 15.874972,2.6054165 15.637442,2.3672702 15.3448,2.3678141 14.527314,2.3473814 13.186609,2.4799063 12.009603,1.8272786 10.774707,1.0059921 9.8465869,0.89073865 8.4666668,0.79375002 Z M 8.4056888,8.1834799 H 1.0583333 v 0.024805 0.00103 c 0.00197,1.6928862 1.1762079,3.5913471 2.7057781,5.1583421 1.362747,1.396044 3.023454,2.535924 4.6415774,2.763655 z" />
  <path
     id="path2206"
     style="color:#000000;opacity:0.2;fill:#000000;stroke-width:0.529167;stroke-linecap:round;stroke-linejoin:round"
     d="M 8.4666667,0.79375001 C 7.0867491,0.89073791 6.1586255,1.0075432 4.9237305,1.828829 3.7467272,2.481456 2.4060167,2.3473814 1.5885335,2.3678142 1.2958908,2.3672702 1.0583623,2.6054168 1.0583333,2.8990479 v 5.3092367 0.00103 c 0.002,1.6928846 1.1762096,3.5913464 2.7057781,5.1583414 1.3798072,1.41352 3.0653144,2.564577 4.7025553,2.771923 C 10.103908,15.932238 11.789415,14.78118 13.169222,13.36766 14.698791,11.800665 15.873032,9.9022027 15.875,8.2093181 V 8.2082846 2.8990479 C 15.874972,2.6054168 15.637442,2.3672702 15.3448,2.3678142 14.527316,2.3473812 13.186607,2.4804225 12.009603,1.8277954 10.774708,1.0065097 9.8465845,0.89073861 8.4666667,0.79375001 Z m 0,0.26665039 c 1.3602945,0.096068 2.2097023,0.1991445 3.3966923,0.9885702 a 0.26460981,0.26460981 0 0 0 0.01757,0.00982 c 1.264832,0.7013265 2.675515,0.5545882 3.457153,0.5741252 a 0.26460981,0.26460981 0 0 0 0.0078,0 c 0.149003,-2.77e-4 0.265603,0.11466 0.265617,0.2656168 V 8.2088014 C 15.60965,9.7795658 14.482844,11.644693 12.980603,13.183692 11.635568,14.56159 9.9958712,15.656664 8.4666667,15.863115 6.9374722,15.656659 5.2982822,14.56159 3.9532471,13.183692 2.4510078,11.644695 1.3242557,9.7795728 1.3223999,8.2088014 V 2.8985311 C 1.3224148,2.7475733 1.4390126,2.6326373 1.5880168,2.6329143 a 0.26460981,0.26460981 0 0 0 0.00775,0 C 2.3771843,2.6133831 3.7879854,2.7617236 5.0529216,2.0603394 a 0.26460981,0.26460981 0 0 0 0.01757,-0.011369 c 1.1877142,-0.789907 2.0347227,-0.8924578 3.3961751,-0.98857 z" />
</svg>
