<?xml version="1.0" encoding="UTF-8" standalone="no"?>
<!-- Created with Inkscape (http://www.inkscape.org/) -->

<svg
   width="64"
   height="64"
   viewBox="0 0 16.933333 16.933333"
   version="1.1"
   id="svg5"
   inkscape:version="1.2.1 (9c6d41e410, 2022-07-14)"
   sodipodi:docname="weather-clouds-night.svg"
   xmlns:inkscape="http://www.inkscape.org/namespaces/inkscape"
   xmlns:sodipodi="http://sodipodi.sourceforge.net/DTD/sodipodi-0.dtd"
   xmlns:xlink="http://www.w3.org/1999/xlink"
   xmlns="http://www.w3.org/2000/svg"
   xmlns:svg="http://www.w3.org/2000/svg">
  <sodipodi:namedview
     id="namedview7"
     pagecolor="#ffffff"
     bordercolor="#666666"
     borderopacity="1.0"
     inkscape:pageshadow="2"
     inkscape:pageopacity="0.0"
     inkscape:pagecheckerboard="0"
     inkscape:document-units="px"
     showgrid="false"
     units="px"
     height="48px"
     inkscape:zoom="12.40625"
     inkscape:cx="32"
     inkscape:cy="32"
     inkscape:window-width="1920"
     inkscape:window-height="1006"
     inkscape:window-x="0"
     inkscape:window-y="0"
     inkscape:window-maximized="1"
     inkscape:current-layer="svg5"
     inkscape:lockguides="true"
     inkscape:showpageshadow="2"
     inkscape:deskcolor="#d1d1d1" />
  <defs
     id="defs2">
    <linearGradient
       inkscape:collect="always"
       id="linearGradient1014">
      <stop
         style="stop-color:#ffde4a;stop-opacity:1"
         offset="0"
         id="stop1010" />
      <stop
         style="stop-color:#feb315;stop-opacity:1"
         offset="1"
         id="stop1012" />
    </linearGradient>
    <linearGradient
       inkscape:collect="always"
       xlink:href="#linearGradient1014"
       id="linearGradient1016"
       x1="9.3874187"
       y1="6.625165"
       x2="4.6441574"
       y2="15.119643"
       gradientUnits="userSpaceOnUse"
       gradientTransform="matrix(-0.86206897,0,0,0.86206897,15.765516,1.1678155)" />
    <linearGradient
       inkscape:collect="always"
       xlink:href="#linearGradient1468"
       id="linearGradient1368"
       x1="16"
       y1="31"
       x2="60"
       y2="59"
       gradientUnits="userSpaceOnUse"
       gradientTransform="matrix(0.26458333,0,0,0.26458333,-5e-8,-0.26458339)" />
    <linearGradient
       inkscape:collect="always"
       id="linearGradient1468">
      <stop
         style="stop-color:#d6eeff;stop-opacity:1"
         offset="0"
         id="stop1464" />
      <stop
         style="stop-color:#ebf6ff;stop-opacity:1"
         offset="0.46016201"
         id="stop4677" />
      <stop
         style="stop-color:#e4f1f5;stop-opacity:1"
         offset="0.59705883"
         id="stop4225" />
      <stop
         style="stop-color:#d9e8f1;stop-opacity:1;"
         offset="0.73483342"
         id="stop4611" />
      <stop
         style="stop-color:#bdd8f0;stop-opacity:1"
         offset="1"
         id="stop1466" />
    </linearGradient>
    <linearGradient
       inkscape:collect="always"
       xlink:href="#linearGradient1964"
       id="linearGradient5809"
       x1="55"
       y1="56"
       x2="25.534029"
       y2="42.667934"
       gradientUnits="userSpaceOnUse"
       gradientTransform="matrix(0.26458333,0,0,0.26458333,-5e-8,-0.26458339)" />
    <linearGradient
       inkscape:collect="always"
       id="linearGradient1964">
      <stop
         style="stop-color:#ebf6ff;stop-opacity:1"
         offset="0.46016201"
         id="stop1956" />
      <stop
         style="stop-color:#bdd8f0;stop-opacity:1"
         offset="1"
         id="stop1962" />
    </linearGradient>
  </defs>
  <path
     id="path850"
     style="fill:url(#linearGradient1016);fill-opacity:1;stroke-width:2.57898;stroke-linecap:round;stroke-linejoin:round;stroke-dasharray:30.9477, 2.57898"
     d="M 11.099772,2.4037766 A 6.6145833,6.6145833 0 0 1 15.08125,8.4666663 6.6145833,6.6145833 0 0 1 8.4666669,15.08125 6.6145833,6.6145833 0 0 1 2.4037764,11.099772 6.6145833,6.6145833 0 0 0 5.0368819,11.651466 6.6145833,6.6145833 0 0 0 11.651466,5.0368823 6.6145833,6.6145833 0 0 0 11.099772,2.4037766 Z" />
  <path
     id="path852"
     style="fill:url(#linearGradient1368);fill-opacity:1;stroke-width:0.246944"
     d="m 10.054167,7.9374999 c -1.6392297,5.903e-4 -3.083133,1.0785248 -3.5496547,2.6499681 -1.2703567,0.05878 -2.2703306,1.1054 -2.2711791,2.377115 0,1.315129 1.0661218,2.38125 2.3812499,2.38125 h 6.6145829 c 1.465792,0 2.645834,-1.180041 2.645834,-2.645833 0,-1.407053 -1.087476,-2.550742 -2.471167,-2.640149 C 12.791845,8.7639907 11.487269,7.9374102 10.054167,7.9374999 Z"
     sodipodi:nodetypes="cccccscc" />
  <path
     id="path2276"
     style="fill:url(#linearGradient5809);fill-opacity:1;stroke-width:0.264583"
     d="m 10.054167,9.2604167 c -1.2571007,7.14e-4 -2.3401282,0.8858983 -2.5910569,2.1177003 -0.018252,-6.6e-4 -0.036513,-10e-4 -0.054777,-10e-4 -0.8767519,0 -1.5874999,0.710749 -1.5874999,1.5875 0,0.876752 0.710748,1.5875 1.5874999,1.5875 H 12.7 c 1.026054,0 1.852083,-0.826029 1.852083,-1.852083 0,-1.026054 -0.826029,-1.852083 -1.852083,-1.852083 H 12.479342 C 12.058492,9.8836277 11.106292,9.2603257 10.054167,9.2604167 Z"
     sodipodi:nodetypes="cccsccsscc" />
</svg>
