<?xml version="1.0" encoding="UTF-8" standalone="no"?>
<!-- Created with Inkscape (http://www.inkscape.org/) -->

<svg
   width="64"
   height="64"
   viewBox="0 0 16.933333 16.933333"
   version="1.1"
   id="svg5"
   inkscape:version="1.2.1 (9c6d41e410, 2022-07-14)"
   sodipodi:docname="weather-few-clouds-night.svg"
   xmlns:inkscape="http://www.inkscape.org/namespaces/inkscape"
   xmlns:sodipodi="http://sodipodi.sourceforge.net/DTD/sodipodi-0.dtd"
   xmlns:xlink="http://www.w3.org/1999/xlink"
   xmlns="http://www.w3.org/2000/svg"
   xmlns:svg="http://www.w3.org/2000/svg">
  <sodipodi:namedview
     id="namedview7"
     pagecolor="#ffffff"
     bordercolor="#666666"
     borderopacity="1.0"
     inkscape:pageshadow="2"
     inkscape:pageopacity="0.0"
     inkscape:pagecheckerboard="0"
     inkscape:document-units="px"
     showgrid="false"
     units="px"
     height="48px"
     inkscape:zoom="5.2966297"
     inkscape:cx="10.383962"
     inkscape:cy="24.921508"
     inkscape:window-width="1920"
     inkscape:window-height="1006"
     inkscape:window-x="0"
     inkscape:window-y="0"
     inkscape:window-maximized="1"
     inkscape:current-layer="svg5"
     inkscape:lockguides="true"
     inkscape:showpageshadow="2"
     inkscape:deskcolor="#d1d1d1" />
  <defs
     id="defs2">
    <linearGradient
       inkscape:collect="always"
       id="linearGradient1014">
      <stop
         style="stop-color:#ffde4a;stop-opacity:1"
         offset="0"
         id="stop1010" />
      <stop
         style="stop-color:#feb315;stop-opacity:1"
         offset="1"
         id="stop1012" />
    </linearGradient>
    <linearGradient
       inkscape:collect="always"
       xlink:href="#linearGradient1014"
       id="linearGradient1016"
       x1="9.3874187"
       y1="6.625165"
       x2="4.6441574"
       y2="15.119643"
       gradientUnits="userSpaceOnUse"
       gradientTransform="matrix(-0.86206897,0,0,0.86206897,15.765516,1.1678155)" />
    <linearGradient
       inkscape:collect="always"
       xlink:href="#linearGradient1964"
       id="linearGradient1952"
       x1="7.6729164"
       y1="5.5562501"
       x2="4.5532098"
       y2="4.7661171"
       gradientUnits="userSpaceOnUse"
       gradientTransform="matrix(1.9999999,0,0,1.9999999,-6.3500003,-6.3500003)" />
    <linearGradient
       inkscape:collect="always"
       id="linearGradient1964">
      <stop
         style="stop-color:#ebf6ff;stop-opacity:1"
         offset="0.46016201"
         id="stop1956" />
      <stop
         style="stop-color:#bdd8f0;stop-opacity:1"
         offset="1"
         id="stop1962" />
    </linearGradient>
    <linearGradient
       inkscape:collect="always"
       xlink:href="#linearGradient1468"
       id="linearGradient1141"
       x1="3.7041667"
       y1="3.7041664"
       x2="8.2020826"
       y2="6.614583"
       gradientUnits="userSpaceOnUse"
       gradientTransform="matrix(1.9999999,0,0,1.9999999,-6.3500003,-6.3500003)" />
    <linearGradient
       inkscape:collect="always"
       id="linearGradient1468">
      <stop
         style="stop-color:#d6eeff;stop-opacity:1"
         offset="0"
         id="stop1464" />
      <stop
         style="stop-color:#ebf6ff;stop-opacity:1"
         offset="0.46016201"
         id="stop4677" />
      <stop
         style="stop-color:#e4f1f5;stop-opacity:1"
         offset="0.59705883"
         id="stop4225" />
      <stop
         style="stop-color:#d9e8f1;stop-opacity:1;"
         offset="0.73483342"
         id="stop4611" />
      <stop
         style="stop-color:#bdd8f0;stop-opacity:1"
         offset="1"
         id="stop1466" />
    </linearGradient>
  </defs>
  <path
     id="path850"
     style="fill:url(#linearGradient1016);fill-opacity:1;stroke-width:2.57898;stroke-linecap:round;stroke-linejoin:round;stroke-dasharray:30.9477, 2.57898"
     d="M 11.099772,2.4037766 A 6.6145833,6.6145833 0 0 1 15.08125,8.4666663 6.6145833,6.6145833 0 0 1 8.4666669,15.08125 6.6145833,6.6145833 0 0 1 2.4037764,11.099772 6.6145833,6.6145833 0 0 0 5.0368819,11.651466 6.6145833,6.6145833 0 0 0 11.651466,5.0368823 6.6145833,6.6145833 0 0 0 11.099772,2.4037766 Z" />
  <path
     id="path379"
     style="fill:url(#linearGradient1141);fill-opacity:1;stroke-width:0.926042;stroke-linecap:round;stroke-linejoin:round"
     d="M 5.5562487,1.0583328 C 4.2526323,1.0593628 3.1087109,1.9271216 2.7564202,3.1822341 1.796895,3.2622931 1.0587598,4.0642236 1.0583328,5.027082 c 0,1.0228774 0.829206,1.8520828 1.8520831,1.8520828 0,0 4.4979136,-1e-6 4.7624976,0 1.3151271,-1e-6 2.3812485,-1.0661214 2.3812485,-2.3812485 C 10.053888,3.2339837 9.0661806,2.19047 7.8041715,2.1208002 7.2514588,1.4482934 6.4267401,1.0584952 5.5562487,1.0583328 Z"
     sodipodi:nodetypes="cccccccc" />
  <path
     id="path1143"
     style="fill:url(#linearGradient1952);fill-opacity:1;stroke-width:1.05833;stroke-linecap:round;stroke-linejoin:round"
     d="m 5.5562487,2.1166662 c -0.9654204,6.99e-4 -1.8080411,0.6545596 -2.0484532,1.5895674 -0.022716,-0.0013 -0.045462,-0.002 -0.068212,-0.0021 -0.7306267,0 -1.3229167,0.5922897 -1.3229167,1.3229164 0,0.7306267 0.59229,1.3229151 1.3229167,1.3229151 h 3.968748 c 0.8767527,0 1.5874991,-0.7107474 1.5874991,-1.5874991 0,-0.8767514 -0.7107464,-1.5874993 -1.5874991,-1.5874993 -0.0062,3.082e-4 -0.0124,6.526e-4 -0.0186,0.00103 C 7.0118138,2.5206148 6.3128141,2.116739 5.5562487,2.1166662 Z"
     sodipodi:nodetypes="cccsccsccc" />
</svg>
