<?xml version="1.0" encoding="UTF-8" standalone="no"?>
<!-- Created with Inkscape (http://www.inkscape.org/) -->

<svg
   width="64"
   height="64"
   viewBox="0 0 16.933333 16.933333"
   version="1.1"
   id="svg5"
   inkscape:version="1.1.2 (0a00cf5339, 2022-02-04, custom)"
   sodipodi:docname="weather-clouds-night.svg"
   xmlns:inkscape="http://www.inkscape.org/namespaces/inkscape"
   xmlns:sodipodi="http://sodipodi.sourceforge.net/DTD/sodipodi-0.dtd"
   xmlns:xlink="http://www.w3.org/1999/xlink"
   xmlns="http://www.w3.org/2000/svg"
   xmlns:svg="http://www.w3.org/2000/svg">
  <sodipodi:namedview
     id="namedview7"
     pagecolor="#ffffff"
     bordercolor="#666666"
     borderopacity="1.0"
     inkscape:pageshadow="2"
     inkscape:pageopacity="0.0"
     inkscape:pagecheckerboard="0"
     inkscape:document-units="px"
     showgrid="false"
     units="px"
     height="48px"
     inkscape:zoom="12.28125"
     inkscape:cx="32"
     inkscape:cy="32"
     inkscape:window-width="1920"
     inkscape:window-height="1004"
     inkscape:window-x="0"
     inkscape:window-y="0"
     inkscape:window-maximized="1"
     inkscape:current-layer="svg5"
     inkscape:lockguides="true" />
  <defs
     id="defs2">
    <linearGradient
       inkscape:collect="always"
       id="linearGradient5807">
      <stop
         style="stop-color:#000000;stop-opacity:1;"
         offset="0"
         id="stop5803" />
      <stop
         style="stop-color:#000000;stop-opacity:0;"
         offset="1"
         id="stop5805" />
    </linearGradient>
    <linearGradient
       inkscape:collect="always"
       id="linearGradient1468">
      <stop
         style="stop-color:#d6eeff;stop-opacity:1"
         offset="0"
         id="stop1464" />
      <stop
         style="stop-color:#ebf6ff;stop-opacity:1"
         offset="0.46016201"
         id="stop4677" />
      <stop
         style="stop-color:#e4f1f5;stop-opacity:1"
         offset="0.59705883"
         id="stop4225" />
      <stop
         style="stop-color:#d9e8f1;stop-opacity:1;"
         offset="0.73483342"
         id="stop4611" />
      <stop
         style="stop-color:#bdd8f0;stop-opacity:1"
         offset="1"
         id="stop1466" />
    </linearGradient>
    <linearGradient
       inkscape:collect="always"
       id="linearGradient1014">
      <stop
         style="stop-color:#ffde4a;stop-opacity:1"
         offset="0"
         id="stop1010" />
      <stop
         style="stop-color:#feb315;stop-opacity:1"
         offset="1"
         id="stop1012" />
    </linearGradient>
    <linearGradient
       inkscape:collect="always"
       xlink:href="#linearGradient1014"
       id="linearGradient1016"
       x1="2.3812497"
       y1="4.2333331"
       x2="13.493751"
       y2="14.287499"
       gradientUnits="userSpaceOnUse"
       gradientTransform="matrix(3.5188706,0,0,3.5188706,2.2068965,2.2068965)" />
    <linearGradient
       inkscape:collect="always"
       xlink:href="#linearGradient1468"
       id="linearGradient1368"
       x1="16"
       y1="31"
       x2="60"
       y2="59"
       gradientUnits="userSpaceOnUse" />
    <linearGradient
       inkscape:collect="always"
       xlink:href="#linearGradient5807"
       id="linearGradient5809"
       x1="28"
       y1="44"
       x2="57.166016"
       y2="58"
       gradientUnits="userSpaceOnUse" />
  </defs>
  <path
     id="path850"
     style="fill:url(#linearGradient1016);fill-opacity:1;stroke-width:10.5271;stroke-linecap:round;stroke-linejoin:round;stroke-dasharray:126.325, 10.5271"
     d="M 21.251953 7.2519531 A 26.999999 26.999999 0 0 0 5 32 A 26.999999 26.999999 0 0 0 32 59 A 26.999999 26.999999 0 0 0 56.748047 42.748047 A 26.999999 26.999999 0 0 1 46 45 A 26.999999 26.999999 0 0 1 19 18 A 26.999999 26.999999 0 0 1 21.251953 7.2519531 z "
     transform="scale(0.26458333)" />
  <path
     id="path852"
     style="fill:url(#linearGradient1368);fill-opacity:1;stroke-width:0.933332"
     d="M 38,31 C 31.804487,31.002231 26.347216,35.076315 24.583984,41.015625 19.782636,41.237799 16.003207,45.193515 16,50 c 0,4.970563 4.029437,9 9,9 H 50 C 55.54,59 60,54.54 60,49 60,43.682002 55.889856,39.359398 50.660156,39.021484 48.347132,34.123745 43.41645,30.999661 38,31 Z"
     transform="scale(0.26458333)"
     sodipodi:nodetypes="cccccscc" />
  <path
     id="path2276"
     style="fill:url(#linearGradient5809);fill-opacity:1;stroke-width:0.999999;opacity:0.05"
     d="m 38,36 c -4.751243,0.0027 -8.844577,3.348278 -9.792969,8.003906 C 28.138048,44.001413 28.069028,44.000111 28,44 c -3.313708,0 -6,2.686292 -6,6 0,3.313708 2.686292,6 6,6 h 20 c 3.878,0 7,-3.122 7,-7 0,-3.878 -3.122,-7 -7,-7 H 47.166016 C 45.575402,38.355445 41.976536,35.999656 38,36 Z"
     transform="scale(0.26458333)"
     sodipodi:nodetypes="cccsccsscc" />
</svg>
