<?xml version="1.0" encoding="UTF-8" standalone="no"?>
<!-- Created with Inkscape (http://www.inkscape.org/) -->

<svg
   width="22"
   height="22"
   viewBox="0 0 5.8208333 5.8208336"
   version="1.1"
   id="svg5"
   inkscape:version="1.1.1 (3bf5ae0d25, 2021-09-20, custom)"
   sodipodi:docname="folder-template.svg"
   xmlns:inkscape="http://www.inkscape.org/namespaces/inkscape"
   xmlns:sodipodi="http://sodipodi.sourceforge.net/DTD/sodipodi-0.dtd"
   xmlns:xlink="http://www.w3.org/1999/xlink"
   xmlns="http://www.w3.org/2000/svg"
   xmlns:svg="http://www.w3.org/2000/svg">
  <sodipodi:namedview
     id="namedview7"
     pagecolor="#ffffff"
     bordercolor="#666666"
     borderopacity="1.0"
     inkscape:pageshadow="2"
     inkscape:pageopacity="0.0"
     inkscape:pagecheckerboard="0"
     inkscape:document-units="px"
     showgrid="false"
     units="px"
     height="64px"
     inkscape:zoom="24.15625"
     inkscape:cx="15.979301"
     inkscape:cy="14.344114"
     inkscape:window-width="1920"
     inkscape:window-height="996"
     inkscape:window-x="0"
     inkscape:window-y="0"
     inkscape:window-maximized="1"
     inkscape:current-layer="svg5" />
  <defs
     id="defs2">
    <linearGradient
       inkscape:collect="always"
       id="linearGradient5539">
      <stop
         style="stop-color:#ffffff;stop-opacity:0"
         offset="0"
         id="stop5535" />
      <stop
         style="stop-color:#ffffff;stop-opacity:0.33664191"
         offset="1"
         id="stop5537" />
    </linearGradient>
    <linearGradient
       inkscape:collect="always"
       id="linearGradient5001">
      <stop
         style="stop-color:#ffffff;stop-opacity:0"
         offset="0"
         id="stop4997" />
      <stop
         style="stop-color:#ffffff;stop-opacity:1"
         offset="1"
         id="stop4999" />
    </linearGradient>
    <linearGradient
       inkscape:collect="always"
       id="linearGradient4263">
      <stop
         style="stop-color:#ffffff;stop-opacity:1"
         offset="0"
         id="stop4259" />
      <stop
         style="stop-color:#ffffff;stop-opacity:0.50196081"
         offset="1"
         id="stop4261" />
    </linearGradient>
    <linearGradient
       inkscape:collect="always"
       id="linearGradient11972">
      <stop
         style="stop-color:#4ad2e3;stop-opacity:1"
         offset="0"
         id="stop11968" />
      <stop
         style="stop-color:#8660c5;stop-opacity:1"
         offset="1"
         id="stop11970" />
    </linearGradient>
    <linearGradient
       inkscape:collect="always"
       xlink:href="#linearGradient4263"
       id="linearGradient4265"
       x1="8.4584417"
       y1="6.3224587"
       x2="8.4666672"
       y2="9.5250006"
       gradientUnits="userSpaceOnUse"
       gradientTransform="matrix(0.76923084,0,0,0.77777776,-3.602404,-4.6743055)" />
    <linearGradient
       inkscape:collect="always"
       xlink:href="#linearGradient5001"
       id="linearGradient5003"
       x1="19"
       y1="44.711914"
       x2="32"
       y2="36"
       gradientUnits="userSpaceOnUse"
       gradientTransform="matrix(0.20352567,0,0,0.20578704,-3.602404,-4.6743055)" />
    <linearGradient
       inkscape:collect="always"
       xlink:href="#linearGradient5539"
       id="linearGradient5541"
       x1="11.853752"
       y1="12.168457"
       x2="8.4666672"
       y2="9.5250006"
       gradientUnits="userSpaceOnUse"
       gradientTransform="matrix(0.76923084,0,0,0.77777776,-3.602404,-4.6743055)" />
    <linearGradient
       inkscape:collect="always"
       xlink:href="#linearGradient11972"
       id="linearGradient939"
       gradientUnits="userSpaceOnUse"
       gradientTransform="matrix(0.76923084,0,0,0.77777776,-3.6022931,-4.6743412)"
       x1="5.320261"
       y1="6.4749041"
       x2="11.797989"
       y2="13.101656" />
  </defs>
  <path
     id="path3182-6"
     style="color:#000000;fill:url(#linearGradient939);fill-opacity:1;stroke:none;stroke-width:0.773639;stroke-linecap:round;stroke-linejoin:round;stroke-miterlimit:4;stroke-dasharray:none"
     d="m 2.9104112,0.26458336 c -0.1126589,0 -0.2251083,0.0234733 -0.3303315,0.0707389 L 0.74834895,1.1588722 c -0.19116642,0.085829 -0.33786973,0.2405876 -0.41738681,0.4276516 -0.004569,0.010736 -0.009,0.021606 -0.0131168,0.032558 -7.0092e-4,0.00188 -0.001299,0.00373 -0.001985,0.0056 -0.004754,0.012941 -0.009,0.02579 -0.0131185,0.038989 -0.004062,0.01302 -0.008101,0.026133 -0.0115269,0.039387 -3.231e-5,1.244e-4 3.215e-5,2.777e-4 0,4.02e-4 -0.003146,0.012206 -0.006146,0.024586 -0.008745,0.036976 -7.9231e-4,0.00373 -0.001646,0.00747 -0.002385,0.011262 -6.0446e-4,0.00311 -0.001023,0.00614 -0.001593,0.00924 -0.001462,0.00789 -0.002747,0.015758 -0.003977,0.023715 -0.001823,0.011839 -0.003454,0.023801 -0.004769,0.035771 -7.1239e-4,0.00646 -0.001423,0.012836 -0.001985,0.019298 -5.3162e-4,0.00615 -8.0001e-4,0.012272 -0.001192,0.018488 -4.2232e-4,0.00653 -9.2308e-4,0.013099 -0.001192,0.019694 -3.215e-5,7.778e-4 2.97e-5,0.00163 0,0.00242 -3.7931e-4,0.010129 -7.9223e-4,0.020343 -7.9223e-4,0.03054 v 2.2636573 c 3.784e-5,0.07116 0.00936,0.1409489 0.0266332,0.2077966 0.002469,0.00955 0.005153,0.018706 0.007951,0.028133 0.0671046,0.2264687 0.22854386,0.4170118 0.44918761,0.5160751 L 2.5796886,5.750067 h 3.979e-4 c 0.013046,0.00584 0.026093,0.011353 0.039354,0.016481 1.143e-4,4.36e-5 2.831e-4,-4.44e-5 3.973e-4,0 0.013261,0.00514 0.026699,0.010081 0.040147,0.014466 1.182e-4,3.89e-5 2.792e-4,-3.81e-5 3.974e-4,0 0.027018,0.00878 0.054288,0.016239 0.081888,0.022104 1.248e-4,2.64e-5 2.725e-4,-2.67e-5 3.974e-4,0 0.055324,0.011721 0.1115489,0.017687 0.1677494,0.017687 0.014078,0 0.02846,-4.721e-4 0.042534,-0.00116 C 3.051426,5.814505 3.1490762,5.791467 3.2411464,5.750113 L 5.0724777,4.9265564 C 5.3021917,4.8234201 5.4683149,4.6210875 5.5300146,4.3823445 5.5472884,4.3154946 5.5562131,4.2457077 5.55625,4.174548 V 1.9108906 C 5.5562424,1.8966566 5.5557833,1.8823926 5.55506,1.8682846 5.5543357,1.8542056 5.55331,1.8404176 5.55188,1.8264866 5.55066,1.8145036 5.54926,1.8025696 5.54751,1.7907176 c -2.915e-4,-0.00202 -4.896e-4,-0.00404 -7.923e-4,-0.00607 -3.754e-4,-0.00242 -7.922e-4,-0.00483 -0.00119,-0.00723 -0.00186,-0.011314 -0.00406,-0.022579 -0.00635,-0.033764 -0.00558,-0.027086 -0.012508,-0.053809 -0.02067,-0.079987 C 5.4493916,1.4421956 5.2894342,1.2562818 5.0724737,1.1588722 L 3.2411405,0.33532223 C 3.1359173,0.28805668 3.0230704,0.26458336 2.9104112,0.26458336 Z" />
  <path
     style="color:#000000;opacity:0.4;fill:url(#linearGradient4265);fill-opacity:1;stroke:none;stroke-width:0.773639;stroke-linecap:round;stroke-linejoin:round;stroke-miterlimit:4;stroke-dasharray:none"
     d="M 2.5798755,0.33547743 0.74837587,1.1588887 C 0.45434414,1.2909012 0.26475623,1.5855972 0.26458352,1.9108973 v 2.2636213 c 1.7271e-4,0.3252999 0.18976062,0.619996 0.48379235,0.7520091 L 2.5798755,5.7499391 c 0.2104464,0.094526 0.4506365,0.094526 0.6610828,0 L 5.0724581,4.9265277 C 5.3664896,4.7945146 5.5560773,4.4998185 5.5562495,4.1745186 V 1.9108973 C 5.5560773,1.5855975 5.3664896,1.2909012 5.0724581,1.1588887 L 3.2409583,0.33547743 c -0.2104463,-0.0945255 -0.4506364,-0.0945255 -0.6610828,0 z"
     id="path3182"
     sodipodi:nodetypes="ccccccccccccc" />
  <path
     id="rect3501"
     style="opacity:0.4;fill:url(#linearGradient5003);fill-opacity:1;stroke-width:0.773593;stroke-linecap:round;stroke-linejoin:round"
     d="m 0.33096792,1.5865238 c -0.0427954,0.1006649 -0.0663238,0.2105408 -0.0663846,0.3243557 v 2.2636574 c 1.7277e-4,0.3252992 0.18973921,0.6199939 0.48377089,0.752007 L 2.5796878,5.7500937 c 0.1052235,0.047264 0.21807,0.070738 0.3307292,0.070738 V 2.7340276 Z" />
  <path
     id="rect3501-7"
     style="opacity:0.4;fill:url(#linearGradient5541);fill-opacity:1;stroke-width:0.773593;stroke-linecap:round;stroke-linejoin:round"
     d="M 5.489865,1.5865237 C 5.532657,1.6871889 5.556188,1.7970646 5.55625,1.9108795 V 4.1745371 C 5.5560764,4.4998364 5.3665102,4.7945309 5.0724789,4.926544 L 3.2411455,5.7500938 C 3.1359221,5.7973596 3.0230756,5.8208323 2.910417,5.8208323 V 2.7340277 Z" />
</svg>
