<?xml version="1.0" encoding="UTF-8" standalone="no"?>
<!-- Created with Inkscape (http://www.inkscape.org/) -->

<svg
   width="22"
   height="22"
   viewBox="0 0 5.8208333 5.8208336"
   version="1.1"
   id="svg5"
   inkscape:version="1.2.1 (9c6d41e410, 2022-07-14)"
   sodipodi:docname="folder-vbox.svg"
   xmlns:inkscape="http://www.inkscape.org/namespaces/inkscape"
   xmlns:sodipodi="http://sodipodi.sourceforge.net/DTD/sodipodi-0.dtd"
   xmlns:xlink="http://www.w3.org/1999/xlink"
   xmlns="http://www.w3.org/2000/svg"
   xmlns:svg="http://www.w3.org/2000/svg">
  <sodipodi:namedview
     id="namedview7"
     pagecolor="#ffffff"
     bordercolor="#666666"
     borderopacity="1.0"
     inkscape:pageshadow="2"
     inkscape:pageopacity="0.0"
     inkscape:pagecheckerboard="0"
     inkscape:document-units="px"
     showgrid="false"
     units="px"
     height="64px"
     inkscape:zoom="8.2708333"
     inkscape:cx="18.075567"
     inkscape:cy="33.732997"
     inkscape:window-width="1920"
     inkscape:window-height="1006"
     inkscape:window-x="0"
     inkscape:window-y="0"
     inkscape:window-maximized="1"
     inkscape:current-layer="svg5"
     inkscape:showpageshadow="2"
     inkscape:deskcolor="#d1d1d1" />
  <defs
     id="defs2">
    <linearGradient
       inkscape:collect="always"
       id="linearGradient4405">
      <stop
         style="stop-color:#fcbc19;stop-opacity:1;"
         offset="0"
         id="stop4401" />
      <stop
         style="stop-color:#f4b61f;stop-opacity:1"
         offset="1"
         id="stop4403" />
    </linearGradient>
    <linearGradient
       inkscape:collect="always"
       id="linearGradient12673">
      <stop
         style="stop-color:#ffffff;stop-opacity:1;"
         offset="0"
         id="stop12669" />
      <stop
         style="stop-color:#ffffff;stop-opacity:0;"
         offset="1"
         id="stop12671" />
    </linearGradient>
    <linearGradient
       inkscape:collect="always"
       id="linearGradient11972">
      <stop
         style="stop-color:#fce798;stop-opacity:1"
         offset="0"
         id="stop11968" />
      <stop
         style="stop-color:#ffc937;stop-opacity:1"
         offset="1"
         id="stop11970" />
    </linearGradient>
    <linearGradient
       inkscape:collect="always"
       xlink:href="#linearGradient11972"
       id="linearGradient11974"
       x1="5.2916665"
       y1="5.5562496"
       x2="9.7049484"
       y2="10.200397"
       gradientUnits="userSpaceOnUse"
       gradientTransform="matrix(0.50000002,0,0,0.50000002,1.7958333e-7,-0.52916679)" />
    <linearGradient
       inkscape:collect="always"
       xlink:href="#linearGradient4405"
       id="linearGradient4407"
       x1="32"
       y1="10.5"
       x2="32"
       y2="18.5"
       gradientUnits="userSpaceOnUse"
       gradientTransform="matrix(0.13229168,0,0,0.13229168,1.7958333e-7,-0.66145855)" />
    <linearGradient
       inkscape:collect="always"
       xlink:href="#linearGradient12673"
       id="linearGradient5594"
       x1="1.9999999"
       y1="27"
       x2="42.036999"
       y2="27.197477"
       gradientUnits="userSpaceOnUse"
       gradientTransform="matrix(0.13229168,0,0,0.13229168,1.7958333e-7,-0.66145855)" />
    <linearGradient
       inkscape:collect="always"
       id="linearGradient2083">
      <stop
         style="stop-color:#bf910d;stop-opacity:1;"
         offset="0"
         id="stop2079" />
      <stop
         style="stop-color:#a87704;stop-opacity:1"
         offset="1"
         id="stop2081" />
    </linearGradient>
    <linearGradient
       inkscape:collect="always"
       xlink:href="#linearGradient2083"
       id="linearGradient12811"
       x1="5.0273447"
       y1="2.910152"
       x2="5.0273447"
       y2="5.0281096"
       gradientUnits="userSpaceOnUse"
       gradientTransform="translate(-0.39714275,-0.26458334)" />
  </defs>
  <path
     id="rect846"
     style="fill:url(#linearGradient4407);fill-opacity:1;stroke-width:0.264584;stroke-linecap:round;stroke-linejoin:round;stroke-dasharray:3.175, 0.264584"
     d="M 0.66145837,0.52916671 C 0.46915205,0.53013151 0.26499497,0.71395679 0.26458335,0.92604176 L 0.26458334,4.7625 H 5.5562498 V 1.5875001 c 0,-0.14658 -0.118004,-0.2645834 -0.2645832,-0.2645834 H 2.7781252 L 2.2489586,0.79374986 C 2.0683466,0.61697768 1.9396606,0.52916667 1.7197918,0.52916668 Z"
     sodipodi:nodetypes="ccccssccsc" />
  <path
     id="rect1170"
     style="fill:url(#linearGradient11974);fill-opacity:1;stroke-width:0.350012;stroke-linecap:round;stroke-linejoin:round;stroke-dasharray:4.20012, 0.350012"
     d="m 3.0427084,1.5874999 -0.79375,0.5291666 H 0.79375026 c -0.29315842,0 -0.52916674,0.2360084 -0.52916674,0.5291668 v 2.3812501 c 0,0.14658 0.1180042,0.2645834 0.26458334,0.2645834 H 5.2916666 c 0.14658,0 0.2645832,-0.118004 0.2645832,-0.2645834 V 1.8520833 c 0,-0.14658 -0.118004,-0.2645834 -0.2645832,-0.2645834 z"
     sodipodi:nodetypes="ccsccccccsc" />
  <path
     id="rect1170-2"
     style="fill:#e4a729;fill-opacity:1;stroke-width:0.350012;stroke-linecap:round;stroke-linejoin:round;stroke-dasharray:4.20012, 0.350012"
     d="m 0.26458334,4.7625 v 0.2645834 c 0,0.14658 0.118004,0.2645834 0.2645834,0.2645834 H 5.2916666 c 0.14658,0 0.2645834,-0.118004 0.2645834,-0.2645834 V 4.7625 c 0,0.146578 -0.118004,0.2645834 -0.2645834,0.2645834 H 0.52916674 c -0.14658,0 -0.2645834,-0.118004 -0.2645834,-0.2645834 z"
     sodipodi:nodetypes="csssscssc" />
  <path
     id="rect1170-75"
     style="opacity:0.3;fill:url(#linearGradient5594);fill-opacity:1;stroke-width:0.350012;stroke-linecap:round;stroke-linejoin:round;stroke-dasharray:4.20012, 0.350012"
     d="m 3.0427084,1.5874999 -0.79375,0.5291666 H 0.79375016 c -0.29315832,0 -0.52916664,0.2360084 -0.52916664,0.5291668 v 0.2645834 c 0,-0.2931584 0.2365142,-0.511952 0.52916664,-0.5291668 H 2.2489584 l 0.79375,-0.5291666 h 2.2489583 c 0.14658,0 0.2645834,0.118004 0.2645834,0.2645832 V 1.8520831 c 0,-0.14658 -0.118004,-0.2645832 -0.2645834,-0.2645832 z"
     sodipodi:nodetypes="ccsscsccscssc" />
  <path
     style="color:#000000;fill:url(#linearGradient12811);fill-opacity:1;stroke:none;stroke-linecap:round;stroke-linejoin:round;-inkscape-stroke:none"
     d="M 2.7766854,2.645573 C 2.7213194,2.6462358 2.6722221,2.681305 2.6536386,2.733464 L 2.0969979,4.2920573 1.8372323,3.7764323 C 1.8147669,3.7323158 1.7695513,3.7044328 1.7200448,3.7041667 H 1.4557303 c -0.07347,-2.899e-4 -0.1331025,0.059342 -0.1328125,0.1328125 7.865e-4,0.072706 0.060103,0.13115 0.1328125,0.1308594 h 0.1822833 l 0.359375,0.7207031 c 0.051097,0.1062978 0.2052309,0.097666 0.2441406,-0.013672 L 2.7805917,3.1631511 3.0501229,3.8838542 c 0.042712,0.1149756 0.205335,0.1149756 0.2480469,0 L 3.5716073,3.1533855 3.8450448,3.8838542 c 0.01986,0.050621 0.06867,0.083935 0.1230469,0.083984 H 4.365097 C 4.437807,3.9681288 4.4971227,3.9096852 4.4979095,3.8369792 4.4981994,3.7635091 4.4385671,3.7038768 4.365097,3.7041667 H 4.0598885 L 3.6946542,2.7315105 c -0.044089,-0.1115783 -0.2020045,-0.1115783 -0.2460938,0 L 3.1751229,3.4600261 2.9016854,2.7315105 c -0.019478,-0.052059 -0.069418,-0.086393 -0.125,-0.085937 z"
     id="path724"
     sodipodi:nodetypes="cccccccccccccccccccccccccc" />
</svg>
