<?xml version="1.0" encoding="UTF-8" standalone="no"?>
<!-- Created with Inkscape (http://www.inkscape.org/) -->

<svg
   width="22"
   height="22"
   viewBox="0 0 5.8208333 5.8208336"
   version="1.1"
   id="svg5"
   inkscape:version="1.1.1 (3bf5ae0d25, 2021-09-20, custom)"
   sodipodi:docname="folder-downloads.svg"
   xmlns:inkscape="http://www.inkscape.org/namespaces/inkscape"
   xmlns:sodipodi="http://sodipodi.sourceforge.net/DTD/sodipodi-0.dtd"
   xmlns:xlink="http://www.w3.org/1999/xlink"
   xmlns="http://www.w3.org/2000/svg"
   xmlns:svg="http://www.w3.org/2000/svg">
  <sodipodi:namedview
     id="namedview7"
     pagecolor="#ffffff"
     bordercolor="#666666"
     borderopacity="1.0"
     inkscape:pageshadow="2"
     inkscape:pageopacity="0.0"
     inkscape:pagecheckerboard="0"
     inkscape:document-units="px"
     showgrid="false"
     units="px"
     height="64px"
     inkscape:zoom="12.42258"
     inkscape:cx="7.9693591"
     inkscape:cy="-1.4892237"
     inkscape:window-width="1920"
     inkscape:window-height="996"
     inkscape:window-x="0"
     inkscape:window-y="0"
     inkscape:window-maximized="1"
     inkscape:current-layer="svg5"
     showguides="false" />
  <defs
     id="defs2">
    <linearGradient
       inkscape:collect="always"
       id="linearGradient11972">
      <stop
         style="stop-color:#38c494;stop-opacity:1"
         offset="0"
         id="stop11968" />
      <stop
         style="stop-color:#0099a6;stop-opacity:1"
         offset="1"
         id="stop11970" />
    </linearGradient>
    <linearGradient
       inkscape:collect="always"
       xlink:href="#linearGradient11972"
       id="linearGradient2648"
       x1="4"
       y1="1.0000001"
       x2="18"
       y2="21"
       gradientUnits="userSpaceOnUse" />
  </defs>
  <path
     id="rect2106"
     style="fill:url(#linearGradient2648);fill-opacity:1;stroke-width:3;stroke-linecap:round;stroke-linejoin:round"
     d="M 11,1 C 10.446,1 10,1.446 10,2 V 14.583984 L 6.0507812,10.634766 c -0.391737,-0.391737 -1.022325,-0.391737 -1.4140624,0 -0.3917371,0.391737 -0.3917371,1.022325 0,1.414062 l 5.6347652,5.634766 0.02149,0.02148 c 0.0079,0.0079 0.01531,0.01584 0.02344,0.02344 0.01005,0.0094 0.02089,0.01842 0.03125,0.02734 0.0056,0.0048 0.0099,0.0109 0.01563,0.01563 0.0018,0.0015 0.004,0.0024 0.0059,0.0039 0.0065,0.0053 0.01292,0.01052 0.01953,0.01563 0.0086,0.0066 0.01666,0.01322 0.02539,0.01953 0.02154,0.01557 0.04361,0.03111 0.06641,0.04492 0.0089,0.0054 0.01831,0.01048 0.02734,0.01563 0.005,0.0028 0.01052,0.0051 0.01563,0.0078 0.01829,0.01002 0.03594,0.01865 0.05469,0.02734 0.01485,0.0069 0.02971,0.01333 0.04492,0.01953 0.01081,0.0044 0.02224,0.0097 0.0332,0.01367 0.0043,0.0016 0.0094,0.0024 0.01367,0.0039 0.02627,0.0091 0.05285,0.0184 0.08008,0.02539 0.0038,9.84e-4 0.0079,9.53e-4 0.01172,0.002 0.02638,0.0064 0.05292,0.01132 0.08008,0.01563 0.002,3.23e-4 0.0038,0.0016 0.0059,0.002 0.0027,4.08e-4 0.0051,0.0016 0.0078,0.002 0.01402,0.002 0.02876,0.0025 0.04297,0.0039 0.0019,1.93e-4 0.004,-1.83e-4 0.0059,0 0.01493,0.0014 0.02979,0.0031 0.04492,0.0039 0.05586,0.0028 0.11236,7.61e-4 0.167969,-0.0059 0.0116,-0.0014 0.0237,-0.0022 0.03516,-0.0039 0.02925,-0.0044 0.05758,-0.01066 0.08594,-0.01758 0.015,-0.0037 0.03009,-0.0073 0.04492,-0.01172 0,0 0.002,0 0.002,0 0.01546,-0.0046 0.02967,-0.01026 0.04492,-0.01563 0.03073,-0.0107 0.0606,-0.02358 0.08984,-0.03711 0.02404,-0.01119 0.04898,-0.02197 0.07227,-0.03516 0.0078,-0.0044 0.01573,-0.009 0.02344,-0.01367 0.02566,-0.01542 0.05012,-0.03318 0.07422,-0.05078 0.01387,-0.01013 0.02771,-0.0204 0.04101,-0.03125 0.0074,-0.0061 0.01415,-0.01322 0.02149,-0.01953 0.01055,-0.0091 0.02112,-0.01786 0.03125,-0.02734 0.0079,-0.0074 0.01573,-0.01573 0.02344,-0.02344 l 0.02149,-0.02148 5.634765,-5.634766 c 0.391737,-0.391737 0.391737,-1.022325 0,-1.414062 -0.391737,-0.391737 -1.022325,-0.391737 -1.414062,0 L 12,14.583984 V 2 C 12,1.446 11.554,1 11,1 Z M 5,19 c -0.554,0 -1,0.446 -1,1 0,0.554 0.446,1 1,1 h 12 c 0.554,0 1,-0.446 1,-1 0,-0.554 -0.446,-1 -1,-1 z"
     transform="scale(0.26458334)" />
</svg>
