<?xml version="1.0" encoding="UTF-8" standalone="no"?>
<!-- Created with Inkscape (http://www.inkscape.org/) -->

<svg
   width="22"
   height="22"
   viewBox="0 0 22 22"
   version="1.1"
   id="svg2112"
   inkscape:version="1.2.1 (9c6d41e410, 2022-07-14, custom)"
   sodipodi:docname="network-workgroup.svg"
   xmlns:inkscape="http://www.inkscape.org/namespaces/inkscape"
   xmlns:sodipodi="http://sodipodi.sourceforge.net/DTD/sodipodi-0.dtd"
   xmlns:xlink="http://www.w3.org/1999/xlink"
   xmlns="http://www.w3.org/2000/svg"
   xmlns:svg="http://www.w3.org/2000/svg">
  <sodipodi:namedview
     id="namedview2114"
     pagecolor="#ffffff"
     bordercolor="#000000"
     borderopacity="0.25"
     inkscape:showpageshadow="2"
     inkscape:pageopacity="0.0"
     inkscape:pagecheckerboard="0"
     inkscape:deskcolor="#d1d1d1"
     inkscape:document-units="px"
     showgrid="false"
     inkscape:zoom="38.772727"
     inkscape:cx="11"
     inkscape:cy="11"
     inkscape:window-width="1920"
     inkscape:window-height="1029"
     inkscape:window-x="0"
     inkscape:window-y="0"
     inkscape:window-maximized="1"
     inkscape:current-layer="svg2112" />
  <defs
     id="defs2109">
    <linearGradient
       inkscape:collect="always"
       xlink:href="#linearGradient2986"
       id="linearGradient2988"
       x1="0.092814192"
       y1="13.470937"
       x2="-3.2895818"
       y2="13.470937"
       gradientUnits="userSpaceOnUse"
       gradientTransform="matrix(2.3651875,0,0,0.3059441,15.780478,16.878647)" />
    <linearGradient
       inkscape:collect="always"
       id="linearGradient2986">
      <stop
         style="stop-color:#818990;stop-opacity:1;"
         offset="0"
         id="stop2982" />
      <stop
         style="stop-color:#bcc5cf;stop-opacity:1"
         offset="1"
         id="stop2984" />
    </linearGradient>
    <linearGradient
       inkscape:collect="always"
       xlink:href="#linearGradient1116"
       id="linearGradient1340"
       x1="0.82682294"
       y1="4.0845051"
       x2="6.1184893"
       y2="4.0845051"
       gradientUnits="userSpaceOnUse"
       gradientTransform="matrix(3.7795275,0,0,3.7795275,-1.125,-4.4375001)" />
    <linearGradient
       inkscape:collect="always"
       id="linearGradient1116">
      <stop
         style="stop-color:#555a5f;stop-opacity:1;"
         offset="0"
         id="stop1112" />
      <stop
         style="stop-color:#4b4f53;stop-opacity:1"
         offset="1"
         id="stop1114" />
    </linearGradient>
    <linearGradient
       inkscape:collect="always"
       xlink:href="#linearGradient2301"
       id="linearGradient1929"
       x1="0.5291667"
       y1="0.79374999"
       x2="5.2916665"
       y2="3.96875"
       gradientUnits="userSpaceOnUse"
       gradientTransform="matrix(3.7795275,0,0,3.7795275,0.9999999,1.9999999)" />
    <linearGradient
       inkscape:collect="always"
       id="linearGradient2301">
      <stop
         style="stop-color:#3fe3e7;stop-opacity:1;"
         offset="0"
         id="stop2297" />
      <stop
         style="stop-color:#066bbc;stop-opacity:1"
         offset="1"
         id="stop2299" />
    </linearGradient>
    <linearGradient
       id="linearGradient883"
       x1="4"
       x2="59.861"
       y1="31.360001"
       y2="31.360001"
       gradientTransform="matrix(0.19641912,0,0,0.19641912,-0.78551431,0.21430568)"
       gradientUnits="userSpaceOnUse">
      <stop
         stop-color="#b0d6df"
         offset="0"
         id="stop9" />
      <stop
         stop-color="#e1f8fc"
         offset=".21709"
         id="stop11" />
      <stop
         stop-color="#96c3ce"
         offset="1"
         id="stop13" />
    </linearGradient>
    <radialGradient
       id="radialGradient875"
       cx="20.107"
       cy="28.705"
       r="28"
       gradientTransform="matrix(0.21708035,0.12258503,-0.09658526,0.17103717,1.7655139,-1.6942092)"
       gradientUnits="userSpaceOnUse">
      <stop
         stop-color="#5ab5e2"
         offset="0"
         id="stop2" />
      <stop
         stop-color="#4189ac"
         offset=".45901"
         id="stop4" />
      <stop
         stop-color="#295e76"
         offset="1"
         id="stop6" />
    </radialGradient>
  </defs>
  <path
     id="rect958"
     style="fill:#bcc5cf;stroke-width:4.08249;stroke-linecap:round;stroke-linejoin:round"
     d="m 11.000001,18 h 2.000001 L 13,20 h -2 z"
     sodipodi:nodetypes="ccccc" />
  <path
     id="rect2848"
     style="fill:url(#linearGradient2988);stroke-width:1.12535;stroke-linecap:round;stroke-linejoin:round"
     d="m 8.0000003,20 h 8.0000007 v 1 H 8.0000003 Z" />
  <path
     id="rect1538"
     style="fill:url(#linearGradient1340);stroke-width:0.500001;stroke-linejoin:round"
     d="M 4.0000001,3.9999998 H 20 c 1.107999,0 2,0.8920003 2,2.0000001 V 16 c 0,1.108 -0.892001,2 -2,2 H 4.0000001 C 2.8920001,18 2,17.108 2,16 V 5.9999999 C 2,4.8920001 2.8920001,3.9999998 4.0000001,3.9999998 Z" />
  <path
     id="rect1841"
     style="fill:url(#linearGradient1929);stroke-width:0.500001;stroke-linejoin:round"
     d="M 4.0000001,4.9999997 H 20 c 0.553999,0 0.999999,0.4460001 0.999999,0.9999999 v 9.9999994 c 0,0.554001 -0.446,1 -0.999999,1 H 4.0000001 c -0.554,0 -1,-0.445999 -1,-1 V 5.9999996 c 0,-0.5539998 0.446,-0.9999999 1,-0.9999999 z" />
  <rect
     x="0.00023476459"
     y="1"
     width="10.999765"
     height="10.999765"
     rx="5.4998827"
     ry="5.4998827"
     fill="url(#radialGradient875)"
     id="rect30"
     style="fill:url(#radialGradient875);stroke-width:0.19642" />
  <path
     d="M 5.5285337,1.2749946 C 5.1043645,1.3050759 4.6894165,1.3829415 4.2847535,1.5141105 4.140385,1.519748 3.8266318,1.7056914 4.0797736,1.7929543 4.1975827,1.9188074 4.4788269,1.9588585 4.4446724,2.1645083 4.4901042,2.3452709 4.0245182,2.3370692 4.1794864,2.5007891 4.2893663,2.6453954 4.3992438,2.79001 4.5091304,2.9346204 4.7120217,2.869452 4.7789733,2.6616611 4.8915372,2.5017245 5.2048654,2.3635175 5.6483213,2.321772 5.8553913,2.0558124 5.9202772,1.8676801 5.9851632,1.6795649 6.0500511,1.4914329 5.87621,1.4192861 5.7023667,1.3471393 5.5285342,1.2749753 Z m -1.5081779,0.048331 c -0.1943484,-0.020965 -0.318663,0.098472 -0.4637316,0.176776 -0.178566,0.021871 -0.3803169,0.088332 -0.4928445,0.231949 0.2003051,0.090901 0.3264546,-0.00595 0.4993526,-0.074627 C 3.7236642,1.5751808 4.2696656,1.5408672 4.0203558,1.3233067 Z M 2.7662361,1.9001718 C 2.6663198,2.0526869 2.8364183,2.2734319 2.6078545,2.3534724 2.495032,2.4962964 2.3964374,2.7307278 2.6784327,2.6456631 2.747417,2.434028 2.9617128,2.1371614 3.2055961,2.261111 3.4512392,2.327111 3.6785859,2.7398938 3.8791482,2.4129421 3.8790668,2.3279066 3.5671763,2.2781647 3.5741426,2.0701338 3.4353556,2.0105926 3.1386804,2.1187904 3.1490386,1.9024126 2.9485326,1.8133824 2.8907823,2.2570086 2.8197241,2.009052 2.8018931,1.972763 2.7840621,1.936475 2.7662284,1.9001697 Z M 8.2091027,2.0924533 C 7.9717832,2.1399095 7.7373775,2.1941186 7.5500885,2.3572355 7.6044527,2.5745916 7.3240434,2.6111657 7.1993248,2.7318141 c -0.09049,0.051063 0.00165,0.4455096 0.080928,0.3842775 0.1685785,-0.2224159 0.255781,-0.030557 0.4124907,0.079274 C 7.8337929,3.3263704 7.9233543,2.9520879 7.8484346,2.8465815 7.8044776,2.6765385 8.0183295,2.5507442 8.0952874,2.4114864 8.3305724,2.2605615 8.1317587,2.6040381 8.1242292,2.7239538 8.0054641,3.0783282 8.6510266,2.7346476 8.2254941,2.9994607 8.1113508,3.1134495 8.0695563,3.2823192 7.8941625,3.3665585 7.7994598,3.4821503 7.4380206,3.4279714 7.486695,3.2476546 7.3547065,3.0407849 7.3872849,3.496634 7.3424415,3.4944512 7.1236938,3.4292689 7.0585932,3.673433 6.921408,3.790253 6.8164222,3.9108637 6.4457962,3.8360289 6.7224956,4.0228623 6.924304,4.2557274 6.6822784,4.2126628 6.5153327,4.2746825 6.2794059,4.315308 6.3188409,4.5207843 6.3249459,4.7063137 6.3285514,4.8085577 6.5550065,4.9602435 6.6696779,4.8889333 6.8987297,4.8644039 6.8409338,4.583305 7.0101578,4.4975808 7.1507635,4.3772216 7.249439,4.2662184 7.4605614,4.2633409 c 0.097472,0.093024 0.2944821,0.232865 0.3743763,0.3089096 -0.2204894,0.2402342 0.1012715,0.2206559 0.1320508,0.00178 0.1087603,-0.120523 -0.3582437,-0.4041324 -0.050277,-0.2795223 0.203844,0.067247 0.1569682,0.2754895 0.2476607,0.4160658 0.161213,0.2725198 0.1784757,0.069161 0.1934845,-0.1416523 0.2678408,-0.084142 0.3404396,0.4664112 0.7014516,0.337292 0.270557,0.071093 0.1423446,0.2460454 -0.028483,0.359013 C 8.8748092,5.3790283 8.6421679,5.3010295 8.4709381,5.2392467 8.3015407,5.152278 8.0973855,5.2021389 8.008214,5.3751044 7.8102556,5.2042609 7.670118,4.9328592 7.3825298,4.917827 7.1102303,4.9037206 6.8353275,4.9761208 6.5725437,5.0501534 6.2813797,5.3918614 5.9663648,5.7246586 5.8307013,6.161405 5.689878,6.3344625 5.9915169,6.43814 5.7622351,6.5956386 c -0.1596265,0.149039 0.054364,0.333127 0.087402,0.50025 0.1717851,0.2037145 0.4351507,0.8738034 0.7004463,0.6146128 0.1492999,-0.2358895 0.2483018,0.1545169 0.4238581,-0.090485 0.1477661,-0.1348801 0.2674406,0.13552 0.4746586,0.03935 0.1842639,0.09185 0.2002861,0.2718961 0.1029204,0.4441897 -0.062527,0.1749282 0.2708866,0.2468534 0.1760226,0.4510641 -0.044722,0.1997002 0.042881,0.3692241 0.142087,0.53611 -0.2205088,0.2301687 -0.193926,0.5711239 -0.1388815,0.8595384 0.1078892,0.3954054 0.2623995,0.7919474 0.2469628,1.2082874 0.1932102,0.05068 0.3357317,-0.07728 0.495503,-0.144471 0.3049525,0.04313 0.4708478,-0.282255 0.6602084,-0.468883 C 8.9911675,10.353972 9.2502847,10.271454 9.3573955,10.147743 9.1971814,10.009165 9.0910184,9.8746201 9.3390621,9.7665461 9.4534822,9.6503301 9.6678274,9.5846336 9.7054089,9.4225275 9.6068773,9.1289071 9.6629947,8.8169363 9.6485022,8.5133614 9.7699844,8.2685246 9.8989666,8.0288963 10.10074,7.8398455 10.181205,7.5743489 10.374616,7.3309964 10.355861,7.0460116 9.8855458,7.1867125 10.027553,6.9862514 10.288193,6.7956571 10.469066,6.6630038 10.726239,6.5392697 10.781238,6.3130969 10.820719,6.0898745 10.646264,5.7432904 10.494492,6.071249 10.420765,5.966732 10.161053,5.8698065 10.164646,5.7057441 10.109032,5.3748904 10.254113,5.57361 10.383101,5.729857 10.683119,5.5074594 11.074656,6.3436626 10.948029,5.746995 10.776493,4.4556922 10.121726,3.2357451 9.1409324,2.3786805 9.0512452,2.4741842 8.9015777,2.830257 8.7929736,2.6247263 8.6392199,2.46162 8.5185474,2.3143674 8.8317421,2.374921 9.1386719,2.2916217 8.8329063,2.2431892 8.6720264,2.2241957 8.5106723,2.2053619 8.3610443,2.146258 8.2090829,2.0924036 Z m -6.0075211,0.00801 C 1.9985257,2.178674 2.3027008,2.4768803 1.9386504,2.3813843 1.5395242,2.562241 1.2736415,3.0011471 0.99622744,3.3429277 0.34912978,4.2574129 -0.00267946,5.3749511 1.5367047e-5,6.4950946 0.10619323,6.7142446 0.3677008,6.7885135 0.56334992,6.9094934 0.76218976,6.9775119 1.0125987,6.967237 1.1115601,7.1869072 1.2222415,7.3028106 1.3707512,7.4582332 1.5288728,7.4708111 1.771857,7.3929484 1.8061217,7.6132623 1.6835356,7.7762371 1.6702549,7.9547499 1.4715711,8.0987315 1.4937165,8.2557356 c 0.044268,0.1759187 -0.2213141,0.3696831 -0.042404,0.5306278 0.188223,0.3365011 0.3896666,0.6632854 0.6442193,0.9539174 0.1583284,0.1387127 0.139555,0.3297002 0.1214816,0.5204732 -0.062831,0.201626 0.1277386,0.318259 0.2300242,0.464503 -0.2492555,0.457002 0.4258733,0.548336 0.708439,0.748167 0.1420589,-0.129908 0.1533506,-0.340169 0.389025,-0.346035 0.1429134,-0.100121 0.173423,-0.326143 0.271584,-0.476418 C 3.8129414,10.491353 3.710723,10.342192 3.8766727,10.16834 4.0017131,10.062801 4.2597395,10.133186 4.3062869,9.9128515 4.4761407,9.737892 4.3387048,9.4954107 4.3387048,9.2831346 4.4706446,9.1024008 4.6982689,8.9636642 4.673006,8.713933 4.7015886,8.3414625 4.0309865,8.3582009 3.7946934,8.1323752 3.5042447,8.1240605 3.5629833,7.7282621 3.3368832,7.675684 3.1124146,7.6869719 3.0307963,7.5111013 2.9512314,7.3325463 2.8275983,7.2482231 2.5949123,7.4195856 2.4655365,7.3139123 2.319002,7.2367171 2.1875543,6.9487563 2.0226127,7.1287115 1.8055324,7.2861092 1.5920453,7.4460003 1.3861116,7.1824768 1.2525587,7.0621325 1.4203591,6.7205055 1.2312662,6.7420275 0.8275931,6.8880447 1.3592044,6.1556867 0.98131493,6.2528497 0.8918143,6.3931357 0.72014391,6.6095912 0.55322231,6.4435866 0.38559276,6.3647129 0.46828306,6.1082589 0.47575848,5.9546653 0.48300931,5.7750144 0.71036501,5.6854464 0.84102401,5.6034978 1.0944405,5.7168328 1.042429,5.3790846 1.2542301,5.4919879 1.4596866,5.4482309 1.5524519,5.7778161 1.635867,5.7901 1.6848894,5.6277317 1.5963898,5.3904237 1.7470754,5.2834501 1.9231406,5.1352505 2.1555151,5.0298515 2.1989641,4.7808524 2.2025849,4.5148598 2.5253457,4.7390259 2.6054789,4.5578867 2.6793549,4.3503394 2.8948275,4.3633023 3.0768371,4.3241431 3.1763921,4.2317721 3.4266112,3.947254 3.1174931,4.0306694 3.0049023,4.0154529 2.5516466,4.0757779 2.85942,3.967328 3.0110268,3.8525669 3.1947848,3.8684694 3.3649694,3.8459295 3.4989982,3.732459 3.7332958,3.6944448 3.7435989,3.487851 3.6323573,3.336557 3.3967212,3.3653535 3.496746,3.1483598 3.4870798,2.8645109 3.2370782,3.0467386 3.1549465,3.0251488 3.2883329,2.8395279 2.9815026,2.7226551 2.8785225,2.7200523 2.8085314,2.8949783 2.6117599,3.0459008 2.6812044,3.2472343 2.476041,3.2805544 2.3799208,3.4290512 2.3182672,3.6139297 2.2567552,3.6353559 2.2767568,3.2513397 2.0413299,3.2867229 1.8750368,3.2827107 1.6694644,3.0345717 1.8445438,2.9368575 2.0845768,2.7849869 2.3830188,2.6661165 2.5347973,2.4235349 2.6220814,2.206271 2.4611139,2.0729168 2.2467682,2.1037714 l -0.029885,-0.00208 z M 6.240145,2.3506218 C 6.1076691,2.453683 5.8402302,2.3825009 5.7837648,2.4818643 5.7600114,2.6822802 6.071207,2.679146 6.1954862,2.5685036 6.3986134,2.4934011 6.3895592,2.5071071 6.2401341,2.350617 Z M 3.2973414,2.4533414 C 3.0158024,2.5361787 3.2458763,2.7205796 3.4296625,2.7181237 3.6489417,2.7004313 3.4449296,2.4549182 3.2973414,2.4533414 Z M 6.6546531,3.0065565 C 6.6345112,3.1858962 6.8067867,3.2978842 6.7356378,3.493259 6.6236034,3.7393788 6.7823026,3.8132796 6.9737645,3.6619995 7.2294718,3.505542 6.7821488,3.1628083 6.7225472,3.0065566 h -0.0679 z M 6.5703298,3.2949643 C 6.3405435,3.2384805 6.4132395,3.719391 6.5711243,3.5538251 6.7411537,3.5241429 6.577871,3.3931292 6.5703298,3.2949643 Z M 3.637791,3.7284095 C 3.6715272,3.9107866 3.6836574,4.1999154 3.817177,3.8893503 3.8169938,3.8289928 3.6852602,3.7817753 3.637791,3.7284095 Z M 9.1866222,5.6035031 C 9.4567035,5.8389899 9.566114,6.1800385 9.7183504,6.492945 9.9448734,6.6118795 9.8107806,6.79377 9.8423341,6.9466107 10.157733,7.2227511 9.5229363,7.0756798 9.5999711,6.7744198 9.5485003,6.424519 9.3237666,6.1909565 9.1402174,5.9379071 9.1257799,5.8039617 8.9820983,5.6511803 9.1866273,5.6035147 Z"
     fill="url(#linearGradient883)"
     id="path32"
     style="fill:url(#linearGradient883);stroke-width:0.19642" />
</svg>
