<?xml version="1.0" encoding="UTF-8" standalone="no"?>
<!-- Created with Inkscape (http://www.inkscape.org/) -->

<svg
   width="22"
   height="22"
   viewBox="0 0 22 22.000001"
   version="1.1"
   id="svg5"
   inkscape:version="1.2.1 (9c6d41e410, 2022-07-14, custom)"
   sodipodi:docname="system-lock-screen.svg"
   xmlns:inkscape="http://www.inkscape.org/namespaces/inkscape"
   xmlns:sodipodi="http://sodipodi.sourceforge.net/DTD/sodipodi-0.dtd"
   xmlns:xlink="http://www.w3.org/1999/xlink"
   xmlns="http://www.w3.org/2000/svg"
   xmlns:svg="http://www.w3.org/2000/svg">
  <sodipodi:namedview
     id="namedview7"
     pagecolor="#ffffff"
     bordercolor="#000000"
     borderopacity="0.25"
     inkscape:showpageshadow="2"
     inkscape:pageopacity="0.0"
     inkscape:pagecheckerboard="0"
     inkscape:deskcolor="#d1d1d1"
     inkscape:document-units="px"
     showgrid="false"
     inkscape:zoom="37.272727"
     inkscape:cx="10.986585"
     inkscape:cy="11"
     inkscape:window-width="1920"
     inkscape:window-height="1029"
     inkscape:window-x="0"
     inkscape:window-y="0"
     inkscape:window-maximized="1"
     inkscape:current-layer="svg5" />
  <defs
     id="defs2">
    <linearGradient
       inkscape:collect="always"
       id="linearGradient4736">
      <stop
         style="stop-color:#e69a10;stop-opacity:1;"
         offset="0"
         id="stop4732" />
      <stop
         style="stop-color:#ffd283;stop-opacity:1;"
         offset="1"
         id="stop4734" />
    </linearGradient>
    <linearGradient
       inkscape:collect="always"
       id="linearGradient2353">
      <stop
         style="stop-color:#c6d0d7;stop-opacity:1;"
         offset="0"
         id="stop2349" />
      <stop
         style="stop-color:#82888b;stop-opacity:1"
         offset="1"
         id="stop2351" />
    </linearGradient>
    <linearGradient
       inkscape:collect="always"
       xlink:href="#linearGradient2353"
       id="linearGradient2600"
       x1="11"
       y1="1"
       x2="16"
       y2="17"
       gradientUnits="userSpaceOnUse" />
    <linearGradient
       inkscape:collect="always"
       xlink:href="#linearGradient4736"
       id="linearGradient4730"
       x1="14.999781"
       y1="21"
       x2="6.9997807"
       y2="9.000001"
       gradientUnits="userSpaceOnUse" />
  </defs>
  <path
     id="rect899"
     style="opacity:1;fill:url(#linearGradient2600);stroke-width:2;stroke-linecap:round;fill-opacity:1"
     d="M 11 1 C 8.2300028 1 6 3.2300028 6 6 L 6 12 C 6 14.769997 8.2300028 17 11 17 C 13.769997 17 16 14.769997 16 12 L 16 6 C 16 3.2300028 13.769997 1 11 1 z M 11 3 C 12.661998 3 14 4.3380017 14 6 L 14 12 C 14 13.661998 12.661998 15 11 15 C 9.3380017 15 8 13.661998 8 12 L 8 6 C 8 4.3380017 9.3380017 3 11 3 z " />
  <rect
     style="opacity:1;fill:url(#linearGradient4730);stroke-width:2;stroke-linecap:round;fill-opacity:1"
     id="rect789"
     width="16"
     height="12"
     x="2.9997799"
     y="9.000001"
     ry="2" />
</svg>
