<?xml version="1.0" encoding="UTF-8" standalone="no"?>
<!-- Created with Inkscape (http://www.inkscape.org/) -->

<svg
   width="64"
   height="64"
   viewBox="0 0 16.933333 16.933334"
   version="1.1"
   id="svg5"
   inkscape:version="1.1.1 (3bf5ae0d25, 2021-09-20, custom)"
   sodipodi:docname="accessories-document-viewer.svg"
   xmlns:inkscape="http://www.inkscape.org/namespaces/inkscape"
   xmlns:sodipodi="http://sodipodi.sourceforge.net/DTD/sodipodi-0.dtd"
   xmlns:xlink="http://www.w3.org/1999/xlink"
   xmlns="http://www.w3.org/2000/svg"
   xmlns:svg="http://www.w3.org/2000/svg">
  <sodipodi:namedview
     id="namedview7"
     pagecolor="#ffffff"
     bordercolor="#666666"
     borderopacity="1.0"
     inkscape:pageshadow="2"
     inkscape:pageopacity="0.0"
     inkscape:pagecheckerboard="0"
     inkscape:document-units="px"
     showgrid="false"
     units="px"
     width="64px"
     inkscape:zoom="12.883333"
     inkscape:cx="31.979301"
     inkscape:cy="32.018111"
     inkscape:window-width="1920"
     inkscape:window-height="996"
     inkscape:window-x="0"
     inkscape:window-y="0"
     inkscape:window-maximized="1"
     inkscape:current-layer="svg5" />
  <defs
     id="defs2">
    <linearGradient
       inkscape:collect="always"
       id="linearGradient7005">
      <stop
         style="stop-color:#0f7199;stop-opacity:1"
         offset="0"
         id="stop7001" />
      <stop
         style="stop-color:#78aed9;stop-opacity:1"
         offset="1"
         id="stop7003" />
    </linearGradient>
    <linearGradient
       inkscape:collect="always"
       id="linearGradient2287">
      <stop
         style="stop-color:#6b7c85;stop-opacity:1"
         offset="0"
         id="stop2283" />
      <stop
         style="stop-color:#92a0a7;stop-opacity:1"
         offset="1"
         id="stop2285" />
    </linearGradient>
    <linearGradient
       inkscape:collect="always"
       id="linearGradient1353">
      <stop
         style="stop-color:#fafafa;stop-opacity:1;"
         offset="0"
         id="stop1349" />
      <stop
         style="stop-color:#c7cdd1;stop-opacity:1"
         offset="1"
         id="stop1351" />
    </linearGradient>
    <linearGradient
       inkscape:collect="always"
       xlink:href="#linearGradient1353"
       id="linearGradient1355"
       x1="3.96875"
       y1="-1.047058e-07"
       x2="14.552083"
       y2="14.2875"
       gradientUnits="userSpaceOnUse" />
    <linearGradient
       inkscape:collect="always"
       xlink:href="#linearGradient2287"
       id="linearGradient2289"
       x1="11.641666"
       y1="3.3072917"
       x2="12.964584"
       y2="1.7197917"
       gradientUnits="userSpaceOnUse" />
    <linearGradient
       inkscape:collect="always"
       id="linearGradient984">
      <stop
         style="stop-color:#26b4eb;stop-opacity:1;"
         offset="0"
         id="stop980" />
      <stop
         style="stop-color:#017adc;stop-opacity:1"
         offset="1"
         id="stop982" />
    </linearGradient>
    <linearGradient
       inkscape:collect="always"
       xlink:href="#linearGradient984"
       id="linearGradient2759"
       x1="2.3812499"
       y1="2.6458335"
       x2="12.435417"
       y2="16.404167"
       gradientUnits="userSpaceOnUse" />
    <linearGradient
       inkscape:collect="always"
       xlink:href="#linearGradient7005"
       id="linearGradient5921"
       x1="13.493751"
       y1="10.980208"
       x2="6.0854168"
       y2="4.630208"
       gradientUnits="userSpaceOnUse"
       gradientTransform="translate(0,0.52916663)" />
  </defs>
  <rect
     style="fill:url(#linearGradient2759);fill-opacity:1;stroke-width:1.08733;stroke-linecap:round;stroke-linejoin:round"
     id="rect846"
     width="10.054167"
     height="13.758333"
     x="2.3812499"
     y="2.6458335"
     ry="0.5291667" />
  <path
     id="rect848"
     style="fill:url(#linearGradient1355);fill-opacity:1;stroke-width:1.08733;stroke-linecap:round;stroke-linejoin:round"
     d="M 5.0270834,0.5291667 H 11.1125 L 14.552083,3.96875 v 9.789583 c 0,0.293159 -0.236008,0.529167 -0.529166,0.529167 H 5.0270834 c -0.2931584,0 -0.5291667,-0.236008 -0.5291667,-0.529167 V 1.0583334 c 0,-0.29315835 0.2360083,-0.5291667 0.5291667,-0.5291667 z"
     sodipodi:nodetypes="sccssssss" />
  <path
     id="rect1786"
     style="fill:url(#linearGradient2289);fill-opacity:1;stroke-width:1.05833;stroke-linecap:round;stroke-linejoin:round"
     d="M 11.1125,0.5291667 14.552084,3.96875 h -2.910417 c -0.293158,0 -0.529167,-0.2360083 -0.529167,-0.5291667 z"
     sodipodi:nodetypes="ccscc" />
  <path
     id="rect870"
     style="fill:url(#linearGradient5921);fill-opacity:1;stroke-width:0.79375;stroke-linecap:round;stroke-linejoin:round"
     d="m 6.3500002,5.8208334 c -0.1465792,0 -0.2645833,0.1180041 -0.2645833,0.2645833 C 6.0854169,6.2319959 6.203421,6.35 6.3500002,6.35 h 3.1749995 c 0.14658,0 0.264584,-0.1180041 0.264584,-0.2645833 0,-0.1465792 -0.118004,-0.2645833 -0.264584,-0.2645833 z m 4.4979158,0 c -0.146579,0 -0.264583,0.1180041 -0.264583,0.2645833 V 7.9375 c 0,0.1465792 0.118004,0.2645834 0.264583,0.2645834 H 12.7 c 0.146579,0 0.264583,-0.1180042 0.264583,-0.2645834 V 6.0854167 c 0,-0.1465792 -0.118004,-0.2645833 -0.264583,-0.2645833 z m -4.4979158,1.5875 c -0.1465792,0 -0.2645833,0.1180042 -0.2645833,0.2645833 0,0.1465792 0.1180041,0.2645834 0.2645833,0.2645834 h 3.1749995 c 0.14658,0 0.264584,-0.1180042 0.264584,-0.2645834 0,-0.1465791 -0.118004,-0.2645833 -0.264584,-0.2645833 z m 0,1.5875 c -0.1465792,0 -0.2645833,0.1180041 -0.2645833,0.2645833 0,0.1465792 0.1180041,0.2645836 0.2645833,0.2645836 H 12.7 c 0.146579,0 0.264583,-0.1180044 0.264583,-0.2645836 0,-0.1465792 -0.118004,-0.2645833 -0.264583,-0.2645833 z m 0,1.3229166 c -0.1465792,0 -0.2645833,0.118004 -0.2645833,0.264584 0,0.146579 0.1180041,0.264583 0.2645833,0.264583 H 12.7 c 0.146579,0 0.264583,-0.118004 0.264583,-0.264583 0,-0.14658 -0.118004,-0.264584 -0.264583,-0.264584 z"
     sodipodi:nodetypes="sssssssssssssssssssssssssssssssssssss" />
  <path
     id="rect870-3"
     style="opacity:0.2;fill:#8d8d8d;fill-opacity:1;stroke-width:0.79375;stroke-linecap:round;stroke-linejoin:round"
     d="m 6.1210737,6.2177084 c -0.022482,0.03893 -0.035657,0.083927 -0.035657,0.1322916 0,0.1465792 0.1180041,0.2645834 0.2645833,0.2645834 h 3.1749997 c 0.14658,0 0.264584,-0.1180042 0.264584,-0.2645834 0,-0.048365 -0.01317,-0.093361 -0.03566,-0.1322916 C 9.7082737,6.2967644 9.6232117,6.35 9.5249967,6.35 H 6.3500002 C 6.2517862,6.35 6.1667278,6.296764 6.1210737,6.2177084 Z m 4.4622593,1.719792 v 0.2645834 c 0,0.1465791 0.118004,0.2645833 0.264583,0.2645833 H 12.7 c 0.146579,0 0.264583,-0.1180042 0.264583,-0.2645833 V 7.9375004 c 0,0.146579 -0.118004,0.2645834 -0.264583,0.2645834 h -1.852084 c -0.146579,0 -0.264583,-0.1180044 -0.264583,-0.2645834 z M 6.1210737,7.8052084 c -0.022482,0.03893 -0.035657,0.083927 -0.035657,0.1322917 0,0.1465791 0.1180041,0.2645833 0.2645833,0.2645833 h 3.1749997 c 0.14658,0 0.264584,-0.1180042 0.264584,-0.2645833 0,-0.048365 -0.01317,-0.093361 -0.03566,-0.1322917 -0.04565,0.079056 -0.130712,0.1322917 -0.228927,0.1322917 H 6.3500002 c -0.098214,0 -0.1832724,-0.053236 -0.2289265,-0.1322917 z m 0,1.5875004 c -0.022482,0.03893 -0.035657,0.083926 -0.035657,0.1322915 0,0.146579 0.1180041,0.264583 0.2645833,0.264583 h 6.35 c 0.146579,0 0.264583,-0.118004 0.264583,-0.264583 0,-0.04837 -0.01317,-0.093361 -0.03566,-0.1322915 -0.04565,0.079055 -0.130712,0.1322915 -0.228926,0.1322915 H 6.3500002 c -0.098214,0 -0.1832724,-0.05324 -0.2289265,-0.1322915 z m 0,1.3229172 c -0.022482,0.03893 -0.035657,0.08393 -0.035657,0.132292 0,0.146578 0.1180041,0.264582 0.2645833,0.264582 h 6.35 c 0.146579,0 0.264583,-0.118004 0.264583,-0.264582 0,-0.04837 -0.01317,-0.09336 -0.03566,-0.132292 -0.04565,0.07906 -0.130712,0.132292 -0.228926,0.132292 H 6.3500002 c -0.098214,0 -0.1832724,-0.05324 -0.2289265,-0.132292 z"
     sodipodi:nodetypes="csssscssccsssscssccsssscssccsssscssccsssscssc" />
</svg>
