<?xml version="1.0" encoding="UTF-8" standalone="no"?>
<!-- Created with Inkscape (http://www.inkscape.org/) -->

<svg
   width="64"
   height="64"
   viewBox="0 0 16.933333 16.933334"
   version="1.1"
   id="svg5"
   inkscape:version="1.1.1 (3bf5ae0d25, 2021-09-20, custom)"
   sodipodi:docname="applications-internet.svg"
   xmlns:inkscape="http://www.inkscape.org/namespaces/inkscape"
   xmlns:sodipodi="http://sodipodi.sourceforge.net/DTD/sodipodi-0.dtd"
   xmlns:xlink="http://www.w3.org/1999/xlink"
   xmlns="http://www.w3.org/2000/svg"
   xmlns:svg="http://www.w3.org/2000/svg">
  <sodipodi:namedview
     id="namedview7"
     pagecolor="#ffffff"
     bordercolor="#666666"
     borderopacity="1.0"
     inkscape:pageshadow="2"
     inkscape:pageopacity="0.0"
     inkscape:pagecheckerboard="0"
     inkscape:document-units="px"
     showgrid="false"
     units="px"
     width="64px"
     inkscape:zoom="1"
     inkscape:cx="32"
     inkscape:cy="31.5"
     inkscape:window-width="1920"
     inkscape:window-height="996"
     inkscape:window-x="0"
     inkscape:window-y="0"
     inkscape:window-maximized="1"
     inkscape:current-layer="svg5" />
  <defs
     id="defs2">
    <linearGradient
       inkscape:collect="always"
       id="linearGradient3933">
      <stop
         style="stop-color:#93daee;stop-opacity:1"
         offset="0"
         id="stop3929" />
      <stop
         style="stop-color:#afe5e3;stop-opacity:1"
         offset="1"
         id="stop3931" />
    </linearGradient>
    <linearGradient
       inkscape:collect="always"
       id="linearGradient984">
      <stop
         style="stop-color:#26b4eb;stop-opacity:1;"
         offset="0"
         id="stop980" />
      <stop
         style="stop-color:#15b393;stop-opacity:1"
         offset="1"
         id="stop982" />
    </linearGradient>
    <linearGradient
       inkscape:collect="always"
       xlink:href="#linearGradient984"
       id="linearGradient7450"
       x1="2.9104171"
       y1="3.1750004"
       x2="14.552084"
       y2="12.700001"
       gradientUnits="userSpaceOnUse" />
    <linearGradient
       inkscape:collect="always"
       xlink:href="#linearGradient3933"
       id="linearGradient3935"
       x1="10.794922"
       y1="12"
       x2="53.220703"
       y2="50"
       gradientUnits="userSpaceOnUse" />
  </defs>
  <circle
     style="fill:url(#linearGradient7450);fill-opacity:1;stroke-width:1.12664;stroke-linecap:round;stroke-linejoin:round"
     id="path7362"
     cx="8.4666672"
     cy="8.4666672"
     r="7.6729169" />
  <path
     id="path8048"
     style="fill:url(#linearGradient3935);fill-opacity:1;stroke-width:4.26455;stroke-linecap:round;stroke-linejoin:round;opacity:0.6"
     d="M 32 3 A 8.9999998 29.000001 0 0 1 40.175781 20 L 23.824219 20 A 8.9999998 29.000001 0 0 1 32 3 z M 32 3 A 29.000001 29.000001 0 0 0 22.912109 4.4765625 C 18.228635 7.8001925 13.792866 13.284356 11.238281 20 L 5.6171875 20 A 29.000001 29.000001 0 0 0 4.7949219 22 L 10.544922 22 C 9.5645341 25.134 9 28.496811 9 32 C 9.0000001 35.499682 9.5564149 38.863114 10.523438 42 L 4.7949219 42 A 29.000001 29.000001 0 0 0 5.6171875 44 L 11.205078 44 C 13.695771 50.64223 18.010587 56.087379 22.630859 59.423828 A 29.000001 29.000001 0 0 0 32 61 A 8.9999998 29.000001 0 0 1 23.824219 44 L 40.175781 44 A 8.9999998 29.000001 0 0 1 32 61 A 29.000001 29.000001 0 0 0 41.369141 59.423828 C 45.989413 56.087379 50.304229 50.64223 52.794922 44 L 58.382812 44 A 29.000001 29.000001 0 0 0 59.205078 42 L 53.476562 42 C 54.443586 38.863114 55 35.499682 55 32 C 55 28.496811 54.435466 25.134 53.455078 22 L 59.220703 22 A 29.000001 29.000001 0 0 0 58.398438 20 L 52.761719 20 C 50.200506 13.266934 45.747693 7.7720998 41.050781 4.4511719 A 29.000001 29.000001 0 0 0 32 3 z M 27.3125 4.0117188 A 11 31.000001 0 0 0 21.875 20 L 13.265625 20 C 16.275839 12.228575 21.851745 6.2878156 27.3125 4.0117188 z M 36.6875 4.0117188 C 42.148255 6.2878156 47.724161 12.228575 50.734375 20 L 42.125 20 A 11 31.000001 0 0 0 36.6875 4.0117188 z M 12.5625 22 L 21.605469 22 A 11 31.000001 0 0 0 21 32 A 11 31.000001 0 0 0 21.605469 42 L 12.595703 42 C 11.586364 38.884162 11 35.516833 11 32 C 11 28.486928 11.572834 25.118748 12.5625 22 z M 23.570312 22 L 40.429688 22 A 8.9999998 29.000001 0 0 1 41 32 A 8.9999998 29.000001 0 0 1 40.429688 42 L 23.570312 42 A 8.9999998 29.000001 0 0 1 23 32 A 8.9999998 29.000001 0 0 1 23.570312 22 z M 42.394531 22 L 51.4375 22 C 52.427166 25.118748 53 28.486928 53 32 C 53 35.516833 52.413636 38.884162 51.404297 42 L 42.394531 42 A 11 31.000001 0 0 0 43 32 A 11 31.000001 0 0 0 42.394531 22 z M 13.314453 44 L 21.875 44 A 11 31.000001 0 0 0 27.230469 59.882812 C 21.892359 57.53385 16.342066 51.663454 13.314453 44 z M 42.125 44 L 50.685547 44 C 47.657934 51.663454 42.107642 57.53385 36.769531 59.882812 A 11 31.000001 0 0 0 42.125 44 z "
     transform="scale(0.26458334)" />
</svg>
