<?xml version="1.0" encoding="UTF-8" standalone="no"?>
<!-- Created with Inkscape (http://www.inkscape.org/) -->

<svg
   width="64"
   height="64"
   viewBox="0 0 16.933333 16.933333"
   version="1.1"
   id="svg5"
   inkscape:version="1.1.1 (3bf5ae0d25, 2021-09-20, custom)"
   sodipodi:docname="calligrasheets.svg"
   xmlns:inkscape="http://www.inkscape.org/namespaces/inkscape"
   xmlns:sodipodi="http://sodipodi.sourceforge.net/DTD/sodipodi-0.dtd"
   xmlns="http://www.w3.org/2000/svg"
   xmlns:svg="http://www.w3.org/2000/svg">
  <sodipodi:namedview
     id="namedview7"
     pagecolor="#ffffff"
     bordercolor="#666666"
     borderopacity="1.0"
     inkscape:pageshadow="2"
     inkscape:pageopacity="0.0"
     inkscape:pagecheckerboard="0"
     inkscape:document-units="px"
     showgrid="false"
     units="px"
     height="48px"
     inkscape:zoom="5.6568542"
     inkscape:cx="24.837126"
     inkscape:cy="41.454135"
     inkscape:window-width="1920"
     inkscape:window-height="1009"
     inkscape:window-x="0"
     inkscape:window-y="0"
     inkscape:window-maximized="1"
     inkscape:current-layer="svg5"
     inkscape:lockguides="true"
     showguides="false" />
  <defs
     id="defs2" />
  <path
     id="rect932"
     style="fill:#26c55c;fill-opacity:1;stroke-width:0.51092;stroke-linecap:round;stroke-linejoin:round"
     d="M 1.8520831,2.38125 H 15.08125 c 0.439737,0 0.79375,0.3540124 0.79375,0.7937498 V 14.022917 c 0,0.439737 -0.354013,0.79375 -0.79375,0.79375 H 1.8520831 c -0.4397374,0 -0.7937498,-0.354013 -0.7937498,-0.79375 V 3.1749998 c 0,-0.4397374 0.3540124,-0.7937498 0.7937498,-0.7937498 z"
     sodipodi:nodetypes="sssssssss" />
  <path
     id="rect1181-6"
     style="fill:#0faf3d;fill-opacity:1;stroke-width:0.300008;stroke-linecap:round;stroke-linejoin:round"
     d="m 1.8520833,2.1166666 c -0.4397375,0 -0.79375,0.3540125 -0.79375,0.79375 V 5.0270832 H 15.875 V 2.9104166 c 0,-0.4397375 -0.354013,-0.79375 -0.79375,-0.79375 z"
     sodipodi:nodetypes="csccscc" />
  <path
     id="rect8880"
     style="fill:#248c43;fill-opacity:1;stroke-width:0.616458;stroke-linecap:round;stroke-linejoin:round"
     d="M 1.0583333,5.0270832 V 9.7895833 H 6.0854166 V 5.0270832 Z M 6.0854166,9.7895833 V 14.816666 H 10.847917 V 9.7895833 Z" />
  <path
     id="rect25648"
     style="fill:#27733e;fill-opacity:1;stroke-width:0.529165;stroke-linecap:round;stroke-linejoin:round"
     d="m 6.0854165,9.7895833 v 5.0270827 l -4.2333337,-10e-7 c -0.4397372,0 -0.7937495,-0.354012 -0.7937495,-0.793749 V 9.7895833 Z"
     sodipodi:nodetypes="cccscc" />
  <path
     id="rect25648-6"
     style="fill:#32ae58;fill-opacity:1;stroke-width:1.99999;stroke-linecap:round;stroke-linejoin:round"
     d="M 23 19 L 23 37 L 41 37 L 41 19 L 23 19 z M 41 37 L 41 56 L 57 56 C 58.661998 56 60 54.661998 60 53 L 60 37 L 41 37 z "
     transform="scale(0.26458333)" />
</svg>
