<?xml version="1.0" encoding="UTF-8" standalone="no"?>
<!-- Created with Inkscape (http://www.inkscape.org/) -->

<svg
   width="64"
   height="64"
   viewBox="0 0 16.933333 16.933333"
   version="1.1"
   id="svg5"
   inkscape:version="1.1.1 (3bf5ae0d25, 2021-09-20, custom)"
   sodipodi:docname="chromium.svg"
   xmlns:inkscape="http://www.inkscape.org/namespaces/inkscape"
   xmlns:sodipodi="http://sodipodi.sourceforge.net/DTD/sodipodi-0.dtd"
   xmlns="http://www.w3.org/2000/svg"
   xmlns:svg="http://www.w3.org/2000/svg">
  <sodipodi:namedview
     id="namedview7"
     pagecolor="#ffffff"
     bordercolor="#666666"
     borderopacity="1.0"
     inkscape:pageshadow="2"
     inkscape:pageopacity="0.0"
     inkscape:pagecheckerboard="0"
     inkscape:document-units="px"
     showgrid="true"
     units="px"
     height="48px"
     inkscape:zoom="7.9999996"
     inkscape:cx="18.375001"
     inkscape:cy="28.062501"
     inkscape:window-width="1920"
     inkscape:window-height="1019"
     inkscape:window-x="0"
     inkscape:window-y="0"
     inkscape:window-maximized="1"
     inkscape:current-layer="svg5"
     inkscape:lockguides="true" />
  <defs
     id="defs2" />
  <path
     style="fill:#91b0e8;fill-opacity:1;stroke:none;stroke-width:0;stroke-linecap:butt;stroke-linejoin:miter;stroke-miterlimit:4;stroke-dasharray:none;stroke-dashoffset:0;stroke-opacity:1"
     d="m 15.26601,4.9089417 c -10.7469898,8.5859123 -5.3734963,4.2929549 0,0 z m 0,0 -6.2119378,0.00241 c 1.7105588,0.2805283 3.0158158,1.7653637 3.0158318,3.5553068 -0.0012,0.880296 -0.324728,1.7296795 -0.909343,2.3878195 l -3.0807593,5.275439 c 0.1281655,0.0064 0.2571181,0.0096 0.3868641,0.0096 4.2376422,1.5e-5 7.6729322,-3.435274 7.6729172,-7.6729174 4e-6,-1.2841139 -0.315951,-2.4942241 -0.873573,-3.5577249 z"
     id="path4797"
     inkscape:connector-curvature="0"
     sodipodi:nodetypes="cccccccssc" />
  <path
     style="fill:#396bd7;fill-opacity:1;stroke-width:0.0406003"
     clip-path="none"
     d="M 8.4666658,0.79374998 C 5.708071,0.79374028 3.2898726,2.2497615 1.9376293,4.4349625 L 4.9318409,9.150433 c 0.013889,0.224432 -0.068247,-0.6676463 -0.068412,-0.6837672 1.75e-5,-1.9900052 1.6132317,-3.6032203 3.603238,-3.6032364 0.1868314,0.00149 0.5726723,0.039167 0.7570191,0.069568 L 15.26601,4.9089426 C 13.983448,2.4628373 11.420195,0.79373928 8.4666658,0.79374998 Z M 1.9367047,4.436456 c -1.8607862,8.900901 -0.9303931,4.4504509 0,0 z"
     id="path3923"
     inkscape:connector-curvature="0"
     sodipodi:nodetypes="sccccccscc" />
  <path
     style="fill:#6199f6;fill-opacity:1;stroke-width:0.0406003"
     clip-path="none"
     d="M 1.9376293,4.4349625 C 1.2126119,5.6065769 0.79374448,6.9876211 0.79374998,8.4666658 0.79373548,12.574562 4.0219286,15.928397 8.0798017,16.129912 L 11.160561,10.854483 C 10.477695,11.626182 9.4971125,12.068596 8.4666658,12.069904 6.7414085,12.068454 5.2592459,10.844342 4.9318409,9.150433 Z"
     id="path3923-1"
     inkscape:connector-curvature="0"
     sodipodi:nodetypes="csccccc" />
  <circle
     style="fill:#ffffff;fill-opacity:1;stroke:none;stroke-width:0;stroke-linecap:butt;stroke-linejoin:miter;stroke-miterlimit:4;stroke-dasharray:none;stroke-dashoffset:0;stroke-opacity:1"
     id="path4162"
     cx="8.4666634"
     cy="8.4666653"
     r="3.6032689" />
  <circle
     style="fill:#4688f4;fill-opacity:1;stroke:none;stroke-width:0;stroke-linecap:butt;stroke-linejoin:miter;stroke-miterlimit:4;stroke-dasharray:none;stroke-dashoffset:0;stroke-opacity:1"
     id="path3956"
     cx="8.4666634"
     cy="8.4666653"
     clip-path="none"
     r="2.9732609" />
  <path
     id="rect5020-5-5"
     clip-path="none"
     style="opacity:0.1;fill:#367100;fill-opacity:1;stroke:none;stroke-width:0;stroke-linecap:butt;stroke-linejoin:miter;stroke-miterlimit:4;stroke-dasharray:none;stroke-dashoffset:0;stroke-opacity:1"
     d="m 1.9393589,4.4437135 a 7.6728885,7.6728885 0 0 0 -0.00167,0.00332 L 4.9349228,9.1460354 A 3.6006014,3.6006014 0 0 1 4.8658199,8.4683282 3.6006014,3.6006014 0 0 1 5.1364036,7.1129131 Z m 13.3235331,0.4654036 -6.0402573,0.02581 0.00663,0.014988 A 3.6006014,3.6006014 0 0 1 11.075892,5.9889558 L 15.26286,4.9099521 a 7.6728885,7.6728885 0 0 0 0,-8.326e-4 z m -4.105376,5.9503399 a 3.6006014,3.6006014 0 0 1 -2.3012103,1.18807 l -0.7767826,4.078734 a 7.6728885,7.6728885 0 0 0 0.00249,8.33e-4 z" />
</svg>
