<?xml version="1.0" encoding="UTF-8" standalone="no"?>
<!-- Created with Inkscape (http://www.inkscape.org/) -->

<svg
   width="64"
   height="64"
   viewBox="0 0 16.933333 16.933334"
   version="1.1"
   id="svg5"
   inkscape:version="1.1.1 (3bf5ae0d25, 2021-09-20, custom)"
   sodipodi:docname="preferences-color.svg"
   xmlns:inkscape="http://www.inkscape.org/namespaces/inkscape"
   xmlns:sodipodi="http://sodipodi.sourceforge.net/DTD/sodipodi-0.dtd"
   xmlns="http://www.w3.org/2000/svg"
   xmlns:svg="http://www.w3.org/2000/svg">
  <sodipodi:namedview
     id="namedview7"
     pagecolor="#ffffff"
     bordercolor="#666666"
     borderopacity="1.0"
     inkscape:pageshadow="2"
     inkscape:pageopacity="0.0"
     inkscape:pagecheckerboard="0"
     inkscape:document-units="px"
     showgrid="false"
     units="px"
     height="64px"
     inkscape:zoom="12.078125"
     inkscape:cx="31.958603"
     inkscape:cy="32"
     inkscape:window-width="1920"
     inkscape:window-height="996"
     inkscape:window-x="0"
     inkscape:window-y="0"
     inkscape:window-maximized="1"
     inkscape:current-layer="svg5" />
  <defs
     id="defs2">
    <linearGradient
       id="linearGradient45680"
       x1="-102.06"
       x2="-102.06"
       y1="1.3231"
       y2="19.157"
       gradientTransform="matrix(0.85676216,0,0,0.82964373,96.711085,-0.0393396)"
       gradientUnits="userSpaceOnUse">
      <stop
         stop-color="#ffdc23"
         offset="0"
         id="stop22" />
      <stop
         stop-color="#e6628a"
         offset=".31552"
         id="stop24" />
      <stop
         stop-color="#7b5fc1"
         offset=".55428"
         id="stop26" />
      <stop
         stop-color="#1e9be1"
         offset=".79721"
         id="stop28" />
      <stop
         stop-color="#0082dc"
         offset="1"
         id="stop30" />
    </linearGradient>
    <linearGradient
       id="linearGradient1954"
       x1="-109.09"
       x2="-101.26"
       y1="11.122"
       y2="18.440001"
       gradientTransform="matrix(0.85676216,0,0,0.82964373,96.711085,-0.03934894)"
       gradientUnits="userSpaceOnUse">
      <stop
         stop-color="#64d2eb"
         offset="0"
         id="stop2" />
      <stop
         stop-color="#0082dc"
         offset="1"
         id="stop4" />
    </linearGradient>
    <linearGradient
       id="linearGradient1431"
       x1="-107.04"
       x2="-99.660004"
       y1="6.9531002"
       y2="17.895"
       gradientTransform="matrix(0.85676216,0,0,0.82964373,96.711085,-0.03938627)"
       gradientUnits="userSpaceOnUse">
      <stop
         stop-color="#a578e1"
         offset="0"
         id="stop7" />
      <stop
         stop-color="#5046a0"
         offset="1"
         id="stop9" />
    </linearGradient>
    <linearGradient
       id="linearGradient1439"
       x1="-105"
       x2="-97.016998"
       y1="4.2921"
       y2="13.799"
       gradientTransform="matrix(0.85676216,0,0,0.82964373,96.711085,-0.0390876)"
       gradientUnits="userSpaceOnUse">
      <stop
         stop-color="#eb82aa"
         offset="0"
         id="stop12" />
      <stop
         stop-color="#dc2850"
         offset="1"
         id="stop14" />
    </linearGradient>
    <linearGradient
       id="linearGradient1447"
       x1="-102.1"
       x2="-98.566002"
       y1="1.4752001"
       y2="7.8610001"
       gradientTransform="matrix(0.85676216,0,0,0.82964373,96.701446,-0.0391996)"
       gradientUnits="userSpaceOnUse">
      <stop
         stop-color="#ffdc23"
         offset="0"
         id="stop17" />
      <stop
         stop-color="#f0a019"
         offset="1"
         id="stop19" />
    </linearGradient>
  </defs>
  <path
     d="M 9.2730364,1.058343 C 9.101923,1.0570363 8.9587518,1.1885637 8.9587518,1.1885637 8.2177969,1.8137109 7.5947024,2.4077963 7.0232321,2.9846987 v 4.822e-4 C 6.3330918,3.6817479 5.7901708,4.3259354 5.3108451,4.9433451 4.170796,6.4118749 3.6300727,7.5843467 3.3125784,8.5134013 h -4.98e-4 c 4.15e-5,1.531e-4 -3.72e-5,3.284e-4 0,4.823e-4 6.15e-5,1.592e-4 -5.41e-5,3.232e-4 0,4.822e-4 C 2.8915692,9.7454519 2.9106343,10.50249 2.9106343,10.50249 c -8.7e-6,2.96702 2.4836647,5.372538 5.5475708,5.372445 0.486651,0 0.951596,-0.07742 1.3996156,-0.192438 1.5151813,-0.388982 2.7748453,-1.375381 3.4914723,-2.694202 v -9.33e-4 c 0.405456,-0.74624 0.656965,-1.583052 0.656965,-2.484853 h 0.01145 c 0,0 0.128444,-1.3273141 -0.906497,-3.0727682 -0.155711,-0.1952471 -0.428656,-0.567513 -0.630073,-0.820413 -0.154034,-0.03165 -0.305176,-0.063635 -0.454246,-0.095976 0.148742,0.032269 0.300077,0.063922 0.453745,0.0955 C 11.194275,5.4839808 9.7935026,4.8100102 9.4807313,1.7254816 9.428124,1.3530571 9.5432123,1.0584458 9.2730299,1.0584458 Z M 7.9675895,4.9221239 c 0.02529,0.019556 0.051234,0.038847 0.0777,0.058359 0.026466,0.019513 0.05352,0.03938 0.081187,0.058842 -0.027667,-0.019462 -0.054721,-0.038847 -0.081187,-0.058359 -0.026467,-0.019513 -0.05241,-0.039286 -0.0777,-0.058842 z m 0.9827478,0.5956533 c 0.063964,0.031198 0.129417,0.062209 0.1972339,0.093087 -0.067932,-0.03093 -0.133176,-0.061833 -0.1972339,-0.093087 z m 0.4502654,0.2035352 c 0.074625,0.031306 0.1516917,0.0622 0.2306123,0.093087 C 9.55241,5.7835594 9.4751185,5.7525724 9.4006027,5.7213124 Z M 5.3367921,5.9320811 c 0.012098,0.054474 0.02643,0.1091924 0.042336,0.1635039 C 5.3631791,6.04112 5.3489111,5.9867099 5.3367921,5.9320811 Z m 6.3554749,0.5059493 c 0.05525,0.012735 0.11094,0.025519 0.167355,0.038103 -0.05644,-0.012595 -0.112068,-0.025357 -0.167355,-0.038103 z M 6.8325042,7.8839732 c 0.071985,0.047629 0.1472483,0.094716 0.2251279,0.1413182 C 6.979741,7.9786893 6.904485,7.9316019 6.8325042,7.8839732 Z m 0.467692,0.279743 c 0.083955,0.045512 0.1708146,0.090229 0.260993,0.1345608 C 7.4710137,8.2539402 7.384148,8.2092244 7.3001962,8.1637162 Z M 8.4606791,8.6802684 C 8.5706069,8.7206805 8.6840045,8.760428 8.8008625,8.7994009 8.6840045,8.7604299 8.5706069,8.7206814 8.4606791,8.6802684 Z M 8.9786747,8.8572778 C 9.0990603,8.8955012 9.2227038,8.9329863 9.3502412,8.9696529 9.2227038,8.9329835 9.0990603,8.8954966 8.9786747,8.8572778 Z m 0.7655428,0.2199341 c 0.067421,0.017521 0.1354314,0.034509 0.2047134,0.051608 0.069282,0.0171 0.1373591,0.035012 0.2042121,0.053054 -0.06684,-0.018043 -0.134949,-0.035472 -0.2042121,-0.052572 -0.069277,-0.0171 -0.1372917,-0.034568 -0.2047134,-0.05209 z m 1.6411575,0.54935 C 11.48686,9.674886 11.583939,9.7245635 11.676749,9.776075 11.58393,9.7245588 11.48687,9.6748814 11.385375,9.6265619 Z m 1.113736,0.7451761 c 0.0643,0.06162 0.124617,0.124396 0.181302,0.188583 -0.05668,-0.06419 -0.117003,-0.126973 -0.181302,-0.188583 z m 0.411413,0.485686 c 0.04571,0.06781 0.08782,0.136847 0.126515,0.206914 -0.0387,-0.07007 -0.0808,-0.139097 -0.126515,-0.206914 z m -2.438075,4.371709 c -0.06153,0.05536 -0.125773,0.109743 -0.191759,0.162542 0.06599,-0.0528 0.130227,-0.107185 0.191759,-0.162542 z m -0.291875,0.240673 c -0.03385,0.02571 -0.06807,0.0512 -0.102602,0.07621 -0.01802,0.01305 -0.03606,0.02473 -0.05429,0.03618 0.01823,-0.01144 0.03627,-0.02361 0.05429,-0.03665 0.03453,-0.02501 0.06875,-0.05001 0.102602,-0.07572 z"
     fill="url(#linearGradient45680)"
     id="path35"
     style="fill:url(#linearGradient45680);stroke-width:0.843094" />
  <path
     d="M 3.3125495,8.5134977 C 2.8916817,9.7451438 2.9105443,10.502742 2.9105443,10.502742 c -8.6e-6,2.96702 2.4839539,5.372352 5.5478601,5.372258 0.486651,0 0.9515188,-0.07748 1.3995192,-0.192493 0.073937,-0.04894 0.1479614,-0.08458 0.2200294,-0.136755 0.27627,-0.200035 0.533398,-0.423329 0.727412,-0.662378 0.09701,-0.119515 0.178082,-0.242876 0.238188,-0.369559 0.06011,-0.126674 0.09927,-0.256316 0.111567,-0.388422 0.0123,-0.132106 -0.0023,-0.26676 -0.0487,-0.402572 -0.04639,-0.135802 -0.124867,-0.272948 -0.240848,-0.41071 C 10.749587,13.174348 10.596276,13.03598 10.399804,12.897965 10.203341,12.759951 9.9637936,12.622488 9.6759379,12.485967 9.3880822,12.349437 9.0517639,12.2137 8.6615756,12.080399 8.2714452,11.947089 7.8273773,11.816038 7.3241287,11.687684 6.8208223,11.55933 6.3732942,11.409154 5.975983,11.240097 5.5786429,11.071039 5.231539,10.883016 4.930199,10.679752 4.6288976,10.476497 4.3732636,10.257767 4.1580634,10.02681 3.9428729,9.7958433 3.7680294,9.5527341 3.6289931,9.3005528 3.4899569,9.0483715 3.3865737,8.7871647 3.3137736,8.5202832 c -6.169e-4,-0.00224 -7.2e-4,-0.00457 -0.00173,-0.00691 z"
     fill="url(#linearGradient1954)"
     id="path37"
     style="fill:url(#linearGradient1954);stroke-width:0.843094" />
  <path
     d="m 3.3119712,8.5134977 c 6.082e-4,0.00224 7.113e-4,0.00457 0.00173,0.00691 0.072829,0.2668909 0.1761833,0.5280977 0.3152196,0.7802696 0.1390362,0.252172 0.3138701,0.4952905 0.5290703,0.7262567 0.2152002,0.230966 0.4708341,0.449687 0.7721356,0.652942 0.3013014,0.203255 0.6483957,0.391288 1.045784,0.560345 0.3973304,0.169057 0.8448199,0.319233 1.3481457,0.447587 0.503316,0.128354 0.9474031,0.259405 1.3374468,0.392716 0.3901305,0.13331 0.7264488,0.269046 1.0143623,0.405567 0.2878557,0.13653 0.5274025,0.273994 0.7238655,0.411999 0.196473,0.138014 0.349784,0.276373 0.465764,0.414145 0.115981,0.137771 0.194458,0.274908 0.240849,0.41071 0.04639,0.135803 0.06101,0.270466 0.04869,0.402572 -0.0123,0.132106 -0.05146,0.261748 -0.111567,0.388422 -0.06011,0.126674 -0.141176,0.250035 -0.238188,0.369559 -0.194024,0.23904 -0.451142,0.462344 -0.727412,0.662379 -0.07206,0.05218 -0.1461016,0.08783 -0.2200294,0.136754 1.5151814,-0.388982 2.7747494,-1.375662 3.4913764,-2.694482 0.0027,-0.02218 0.01223,-0.04564 0.01461,-0.06774 0.03573,-0.332561 0.03158,-0.656442 -0.02037,-0.967228 -0.05195,-0.310787 -0.151586,-0.608459 -0.306372,-0.888716 -0.15478,-0.280281 -0.364746,-0.543018 -0.637527,-0.78413 C 12.126774,10.039204 11.791169,9.8198303 11.385192,9.6265339 10.979274,9.4332376 10.503158,9.2660096 9.9490466,9.1292088 9.3948292,8.9924079 8.9002746,8.8419896 8.4605634,8.680343 8.0208715,8.5186965 7.6359748,8.3457844 7.3001769,8.1637349 6.9643597,7.9816854 6.6776704,7.7906757 6.4351063,7.5926752 6.1925133,7.3946841 5.9939011,7.1899542 5.8338721,6.9804643 5.673843,6.7709836 5.5523007,6.5564816 5.464185,6.3399542 5.3760789,6.1234268 5.3214572,5.9048367 5.2946138,5.6857239 5.2677993,5.4666111 5.2690812,5.2470223 5.2928788,5.0297855 5.2963487,5.0006838 5.3065849,4.9726273 5.3106138,4.9436095 4.1705647,6.4121393 3.6300341,7.5845178 3.3125399,8.5135724 Z"
     fill="url(#linearGradient1431)"
     id="path39"
     style="fill:url(#linearGradient1431);stroke-width:0.843094" />
  <path
     d="m 5.3106234,4.9435349 c -0.00424,0.029018 -0.014564,0.057074 -0.017735,0.086176 -0.02373,0.2172461 -0.025099,0.4368349 0.00173,0.6559383 0.026815,0.2191128 0.081475,0.4377029 0.1695713,0.6542303 0.088106,0.2165274 0.209658,0.4310295 0.369687,0.6405101 0.1600291,0.2094806 0.3586413,0.4142199 0.6012342,0.612211 0.2426026,0.1979911 0.529292,0.3890008 0.8650706,0.5710596 0.3358172,0.1820496 0.7207139,0.3549523 1.1603865,0.5166082 0.439692,0.1616465 0.9342948,0.3120742 1.4884832,0.4488657 0.5542178,0.1368008 1.0303618,0.3040195 1.4362418,0.4973252 0.405938,0.1932963 0.741524,0.4126707 1.014363,0.6538007 0.272771,0.241131 0.482747,0.503859 0.637542,0.784134 0.154796,0.280275 0.25442,0.577985 0.306372,0.888715 0.05195,0.310758 0.05609,0.63464 0.02037,0.967229 -0.0024,0.02209 -0.01188,0.04557 -0.01461,0.06774 0.405581,-0.746333 0.657012,-1.583331 0.657012,-2.485319 h 0.01152 c 0,0 0.128231,-1.3275942 -0.90671,-3.0730483 C 12.955439,7.2344656 12.682543,6.8620317 12.481135,6.6091318 11.993742,6.5089835 11.524479,6.4061099 11.115737,6.2957321 10.62976,6.1645034 10.197027,6.0268906 9.8127958,5.884163 9.4285353,5.7414354 9.0926507,5.5936024 8.7998793,5.4425774 8.5070405,5.2915523 8.2571801,5.1369526 8.0454594,4.9808501 7.8337291,4.8247477 7.6599651,4.6672265 7.5190494,4.5092574 7.3781239,4.3512882 7.2700853,4.1930017 7.1896515,4.0363766 7.1091984,3.8797514 7.0565333,3.724573 7.0262875,3.5724933 6.9960417,3.4204229 6.9883309,3.2713579 6.9979309,3.1270529 7.0014007,3.0778281 7.0165236,3.0327848 7.0236369,2.9847173 6.3332653,3.6814803 5.7900937,4.3259385 5.3106716,4.9435349 Z"
     fill="url(#linearGradient1439)"
     id="path41"
     style="fill:url(#linearGradient1439);stroke-width:0.843094" />
  <path
     d="m 7.0233959,2.984624 c -0.00684,0.048077 -0.022448,0.093101 -0.025706,0.1423356 -0.00964,0.1443049 -0.00173,0.2933699 0.028357,0.4454403 0.030246,0.1520704 0.08293,0.3072489 0.163364,0.463874 C 7.2698636,4.192899 7.377883,4.3511855 7.5188084,4.5091547 7.6597242,4.6671238 7.8334882,4.824645 8.0452185,4.9807474 8.2569391,5.1368499 8.5067996,5.291459 8.7996384,5.4424747 9.0924675,5.5934998 9.4283522,5.7413234 9.8125549,5.8840603 10.196787,6.0267972 10.629539,6.1644007 11.115496,6.2956295 11.524219,6.4059979 11.993501,6.5088808 12.480894,6.6090291 11.194532,5.484158 9.7932778,4.8100008 9.4805064,1.7254722 9.4278991,1.3530477 9.543051,1.0583803 9.2728725,1.0583803 9.1017591,1.0570737 8.9589734,1.1887131 8.9589734,1.1887131 8.2180186,1.8138602 7.5948277,2.4077589 7.0233574,2.9846613 Z"
     fill="url(#linearGradient1447)"
     id="path43"
     style="fill:url(#linearGradient1447);stroke-width:0.843094" />
</svg>
