<?xml version="1.0" encoding="UTF-8" standalone="no"?>
<!-- Created with Inkscape (http://www.inkscape.org/) -->

<svg
   width="64"
   height="64"
   viewBox="0 0 16.933333 16.933334"
   version="1.1"
   id="svg5"
   inkscape:version="1.1.1 (3bf5ae0d25, 2021-09-20, custom)"
   sodipodi:docname="cs-online-accounts.svg"
   xmlns:inkscape="http://www.inkscape.org/namespaces/inkscape"
   xmlns:sodipodi="http://sodipodi.sourceforge.net/DTD/sodipodi-0.dtd"
   xmlns:xlink="http://www.w3.org/1999/xlink"
   xmlns="http://www.w3.org/2000/svg"
   xmlns:svg="http://www.w3.org/2000/svg">
  <sodipodi:namedview
     id="namedview7"
     pagecolor="#ffffff"
     bordercolor="#666666"
     borderopacity="1.0"
     inkscape:pageshadow="2"
     inkscape:pageopacity="0.0"
     inkscape:pagecheckerboard="0"
     inkscape:document-units="px"
     showgrid="false"
     units="px"
     height="64px"
     inkscape:lockguides="false"
     inkscape:zoom="12.421875"
     inkscape:cx="16.945912"
     inkscape:cy="28.699371"
     inkscape:window-width="1920"
     inkscape:window-height="1009"
     inkscape:window-x="0"
     inkscape:window-y="0"
     inkscape:window-maximized="1"
     inkscape:current-layer="layer1" />
  <defs
     id="defs2">
    <linearGradient
       inkscape:collect="always"
       id="linearGradient336935">
      <stop
         style="stop-color:#1998df;stop-opacity:1;"
         offset="0"
         id="stop336931" />
      <stop
         style="stop-color:#076cbe;stop-opacity:1"
         offset="1"
         id="stop336933" />
    </linearGradient>
    <linearGradient
       inkscape:collect="always"
       xlink:href="#linearGradient336935"
       id="linearGradient1269"
       x1="8.4666662"
       y1="-5.2838135e-07"
       x2="8.4666662"
       y2="16.933332"
       gradientUnits="userSpaceOnUse" />
  </defs>
  <g
     inkscape:label="레이어 1"
     inkscape:groupmode="layer"
     id="layer1">
    <circle
       style="fill:url(#linearGradient1269);fill-opacity:1;stroke-width:1.05833;stroke-linecap:round;stroke-linejoin:round"
       id="path1147"
       cx="8.4666662"
       cy="8.4666662"
       r="7.4083333" />
    <path
       id="path846"
       style="fill:#ffffff;fill-opacity:1;stroke-width:2.69535;stroke-linecap:round;stroke-linejoin:round;opacity:0.6"
       d="m 32,14 a 8.0000004,8.0000004 0 0 0 -8,8 8.0000004,8.0000004 0 0 0 8,8 8.0000004,8.0000004 0 0 0 8,-8 8.0000004,8.0000004 0 0 0 -8,-8 z M 20,35 c -2.215997,0 -4,1.784003 -4,4 v 1.333984 c -0.01482,5.786313 8.49335,9.661227 16,9.666016 7.506649,-0.0049 16.014804,-3.879703 16,-9.666016 V 39 c 0,-2.215997 -1.784003,-4 -4,-4 z"
       transform="scale(0.26458334)" />
  </g>
</svg>
