<?xml version="1.0" encoding="UTF-8" standalone="no"?>
<!-- Created with Inkscape (http://www.inkscape.org/) -->

<svg
   width="64"
   height="64"
   viewBox="0 0 16.933333 16.933333"
   version="1.1"
   id="svg5"
   inkscape:version="1.1.1 (3bf5ae0d25, 2021-09-20, custom)"
   sodipodi:docname="dconf-editor.svg"
   xmlns:inkscape="http://www.inkscape.org/namespaces/inkscape"
   xmlns:sodipodi="http://sodipodi.sourceforge.net/DTD/sodipodi-0.dtd"
   xmlns:xlink="http://www.w3.org/1999/xlink"
   xmlns="http://www.w3.org/2000/svg"
   xmlns:svg="http://www.w3.org/2000/svg">
  <sodipodi:namedview
     id="namedview7"
     pagecolor="#ffffff"
     bordercolor="#666666"
     borderopacity="1.0"
     inkscape:pageshadow="2"
     inkscape:pageopacity="0.0"
     inkscape:pagecheckerboard="0"
     inkscape:document-units="px"
     showgrid="false"
     units="px"
     height="48px"
     inkscape:zoom="1"
     inkscape:cx="32"
     inkscape:cy="31.5"
     inkscape:window-width="1920"
     inkscape:window-height="996"
     inkscape:window-x="0"
     inkscape:window-y="0"
     inkscape:window-maximized="1"
     inkscape:current-layer="svg5"
     inkscape:lockguides="true" />
  <defs
     id="defs2">
    <linearGradient
       inkscape:collect="always"
       id="linearGradient239772">
      <stop
         style="stop-color:#aeb7bc;stop-opacity:1;"
         offset="0"
         id="stop239768" />
      <stop
         style="stop-color:#959ea5;stop-opacity:1"
         offset="1"
         id="stop239770" />
    </linearGradient>
    <linearGradient
       inkscape:collect="always"
       xlink:href="#linearGradient239772"
       id="linearGradient1850"
       x1="32.349182"
       y1="2.0000002"
       x2="31.650818"
       y2="62"
       gradientUnits="userSpaceOnUse" />
  </defs>
  <path
     id="path1303"
     style="color:#000000;fill:url(#linearGradient1850);stroke:none;stroke-width:3.77916;stroke-linecap:round;stroke-linejoin:round;-inkscape-stroke:none;fill-opacity:1"
     d="M 28 3 C 26.03368 3.0008196 24.35891 4.430604 24.050781 6.3730469 L 22.564453 15.658203 L 13.78125 12.302734 C 11.944974 11.598375 9.8686371 12.332682 8.8847656 14.035156 L 4.8847656 20.964844 C 3.9023141 22.668139 4.3038911 24.832243 5.8320312 26.070312 L 13.128906 32 L 5.8261719 37.933594 C 4.3022059 39.173007 3.9030069 41.334214 4.8847656 43.035156 L 8.8867188 49.964844 C 9.8688933 51.665733 11.940033 52.401246 13.775391 51.701172 L 22.564453 48.34375 L 24.050781 57.634766 C 24.362161 59.574268 26.036063 60.999762 28 61 L 36 61 C 37.963936 60.999758 39.637839 59.574268 39.949219 57.634766 L 41.435547 48.34375 L 50.224609 51.701172 C 52.059967 52.401246 54.13306 51.665733 55.115234 49.964844 L 59.115234 43.035156 C 60.096993 41.334214 59.697794 39.173007 58.173828 37.933594 L 50.871094 32 L 58.167969 26.070312 C 59.696111 24.832243 60.097685 22.668139 59.115234 20.964844 L 55.115234 14.035156 C 54.131363 12.332669 52.055026 11.598375 50.21875 12.302734 L 41.435547 15.658203 L 39.949219 6.3730469 C 39.641093 4.4306051 37.966321 3.0008211 36 3 L 28 3 z M 32 23 A 8.9999998 8.9999998 0 0 1 41 32 A 8.9999998 8.9999998 0 0 1 32 41 A 8.9999998 8.9999998 0 0 1 23 32 A 8.9999998 8.9999998 0 0 1 32 23 z "
     transform="scale(0.26458333)" />
  <path
     id="rect1874"
     style="fill:#797774;stroke-width:2.11667;stroke-linecap:round;stroke-linejoin:round"
     d="m 8.7312494,10.054167 h 6.8791686 c 0.293158,0 0.529166,0.236008 0.529166,0.529166 v 5.027084 c 0,0.293158 -0.236008,0.529166 -0.529166,0.529166 H 8.7312494 c -0.2931579,0 -0.5291658,-0.236008 -0.5291658,-0.529166 v -5.027084 c 0,-0.293158 0.2360079,-0.529166 0.5291658,-0.529166 z" />
  <path
     id="rect2147"
     style="fill:#fafafa;stroke-width:2.17467;stroke-linecap:round;stroke-linejoin:round"
     d="m 8.7312495,10.847917 h 6.8791665 c 0.146579,0 0.264584,0.118004 0.264584,0.264583 v 4.497917 c 0,0.146579 -0.118005,0.264583 -0.264584,0.264583 H 8.7312495 c -0.1465791,0 -0.2645833,-0.118004 -0.2645833,-0.264583 V 11.1125 c 0,-0.146579 0.1180042,-0.264583 0.2645833,-0.264583 z" />
  <path
     id="rect2612"
     style="fill:#106fd6;fill-opacity:1;stroke:none;stroke-width:2.11667;stroke-linecap:round;stroke-linejoin:round;stroke-miterlimit:4;stroke-dasharray:none;stroke-opacity:1"
     d="m 10.186458,13.402959 1.122532,1.122532 0.374178,0.374178 0.374177,-0.374178 2.245064,-2.245064 -0.374177,-0.374177 -2.245064,2.245064 -1.122532,-1.122532 z" />
</svg>
