<?xml version="1.0" encoding="UTF-8" standalone="no"?>
<!-- Created with Inkscape (http://www.inkscape.org/) -->

<svg
   width="64"
   height="64"
   viewBox="0 0 16.933333 16.933334"
   version="1.1"
   id="svg5"
   inkscape:version="1.1.1 (3bf5ae0d25, 2021-09-20, custom)"
   sodipodi:docname="gnome-todo.svg"
   xmlns:inkscape="http://www.inkscape.org/namespaces/inkscape"
   xmlns:sodipodi="http://sodipodi.sourceforge.net/DTD/sodipodi-0.dtd"
   xmlns:xlink="http://www.w3.org/1999/xlink"
   xmlns="http://www.w3.org/2000/svg"
   xmlns:svg="http://www.w3.org/2000/svg">
  <sodipodi:namedview
     id="namedview7"
     pagecolor="#ffffff"
     bordercolor="#666666"
     borderopacity="1.0"
     inkscape:pageshadow="2"
     inkscape:pageopacity="0.0"
     inkscape:pagecheckerboard="0"
     inkscape:document-units="px"
     showgrid="false"
     units="px"
     height="64px"
     inkscape:zoom="5.6568542"
     inkscape:cx="9.0156115"
     inkscape:cy="22.715805"
     inkscape:window-width="1920"
     inkscape:window-height="996"
     inkscape:window-x="0"
     inkscape:window-y="0"
     inkscape:window-maximized="1"
     inkscape:current-layer="svg5" />
  <defs
     id="defs2">
    <linearGradient
       inkscape:collect="always"
       xlink:href="#linearGradient401210"
       id="linearGradient401212"
       x1="50.377018"
       y1="-172.56784"
       x2="64.770966"
       y2="-172.56903"
       gradientUnits="userSpaceOnUse"
       gradientTransform="matrix(-0.69152244,0.69152244,-0.47247808,-0.47247808,-31.344022,-112.67617)" />
    <linearGradient
       inkscape:collect="always"
       id="linearGradient401210">
      <stop
         style="stop-color:#56adfd;stop-opacity:1;"
         offset="0"
         id="stop401206" />
      <stop
         style="stop-color:#4190fd;stop-opacity:1"
         offset="1"
         id="stop401208" />
    </linearGradient>
  </defs>
  <path
     id="rect384720"
     style="fill:#185abd;stroke-width:0.318836;stroke-linecap:round;stroke-linejoin:round"
     d="M 9.2843123,11.8098 3.560792,6.0862803 C 3.3343044,5.8597927 2.9696348,5.8597929 2.7431469,6.0862808 L 0.69903334,8.1303948 C 0.47254467,8.3568827 0.47254467,8.7215523 0.69903226,8.9480399 L 6.4225523,14.67156 c 0.2264877,0.226488 0.5911574,0.226487 0.8176451,0 l 2.0441143,-2.044115 c 0.2264878,-0.226488 0.2264881,-0.591157 6e-7,-0.817645 z"
     sodipodi:nodetypes="csscscssc" />
  <path
     id="rect391649"
     style="fill:url(#linearGradient401212);stroke-width:0.427761;stroke-linecap:round;stroke-linejoin:round"
     d="M 16.234301,5.6774591 7.2401977,14.671561 c -0.2264876,0.226487 -0.5911571,0.226489 -0.8176454,10e-7 L 4.3784385,12.627448 c -0.2264876,-0.226488 -0.2264876,-0.59116 0,-0.817648 L 13.372541,2.8156991 c 0.226488,-0.2264876 0.591159,-0.2264877 0.817646,0 L 16.2343,4.8598138 c 0.226489,0.2264873 0.226489,0.5911577 10e-7,0.8176453 z"
     sodipodi:nodetypes="ssssssscs" />
</svg>
