<?xml version="1.0" encoding="UTF-8" standalone="no"?>
<!-- Created with Inkscape (http://www.inkscape.org/) -->

<svg
   width="64"
   height="64"
   viewBox="0 0 16.933333 16.933333"
   version="1.1"
   id="svg5"
   inkscape:version="1.1.1 (3bf5ae0d25, 2021-09-20, custom)"
   sodipodi:docname="google-chrome-beta.svg"
   xmlns:inkscape="http://www.inkscape.org/namespaces/inkscape"
   xmlns:sodipodi="http://sodipodi.sourceforge.net/DTD/sodipodi-0.dtd"
   xmlns:xlink="http://www.w3.org/1999/xlink"
   xmlns="http://www.w3.org/2000/svg"
   xmlns:svg="http://www.w3.org/2000/svg">
  <sodipodi:namedview
     id="namedview7"
     pagecolor="#ffffff"
     bordercolor="#666666"
     borderopacity="1.0"
     inkscape:pageshadow="2"
     inkscape:pageopacity="0.0"
     inkscape:pagecheckerboard="0"
     inkscape:document-units="px"
     showgrid="true"
     units="px"
     height="48px"
     inkscape:zoom="5.656854"
     inkscape:cx="51.353632"
     inkscape:cy="58.071147"
     inkscape:window-width="1541"
     inkscape:window-height="947"
     inkscape:window-x="45"
     inkscape:window-y="29"
     inkscape:window-maximized="0"
     inkscape:current-layer="svg5"
     inkscape:lockguides="true" />
  <defs
     id="defs2">
    <linearGradient
       inkscape:collect="always"
       xlink:href="#linearGradient8986"
       id="linearGradient8988"
       x1="343.89917"
       y1="131.7724"
       x2="288.6394"
       y2="105.74506"
       gradientUnits="userSpaceOnUse"
       gradientTransform="translate(27.10082,13.354545)" />
    <linearGradient
       inkscape:collect="always"
       id="linearGradient8986">
      <stop
         style="stop-color:#055524;stop-opacity:0.40000001"
         offset="0"
         id="stop8982" />
      <stop
         style="stop-color:#055524;stop-opacity:0.00243676"
         offset="0.33000001"
         id="stop9592" />
      <stop
         style="stop-color:#055524;stop-opacity:0;"
         offset="1"
         id="stop8984" />
    </linearGradient>
    <linearGradient
       inkscape:collect="always"
       xlink:href="#linearGradient5320"
       id="linearGradient5322"
       x1="339.97534"
       y1="29.645454"
       x2="359.89917"
       y2="91.645454"
       gradientUnits="userSpaceOnUse"
       gradientTransform="translate(27.100816,13.354545)" />
    <linearGradient
       inkscape:collect="always"
       id="linearGradient5320">
      <stop
         style="stop-color:#ea6100;stop-opacity:0.3019608"
         offset="0"
         id="stop5316" />
      <stop
         style="stop-color:#ea6100;stop-opacity:0.00289255"
         offset="0.66000003"
         id="stop5388" />
      <stop
         style="stop-color:#ea6100;stop-opacity:0;"
         offset="1"
         id="stop5318" />
    </linearGradient>
    <linearGradient
       inkscape:collect="always"
       xlink:href="#linearGradient7553"
       id="linearGradient7555"
       x1="257.79175"
       y1="63.645454"
       x2="308.25464"
       y2="33.645454"
       gradientUnits="userSpaceOnUse"
       gradientTransform="translate(27.190663,13.454155)" />
    <linearGradient
       inkscape:collect="always"
       id="linearGradient7553">
      <stop
         style="stop-color:#a52714;stop-opacity:0.99215686"
         offset="0"
         id="stop7549" />
      <stop
         style="stop-color:#a52714;stop-opacity:0"
         offset="0.66000003"
         id="stop7777" />
      <stop
         style="stop-color:#a52714;stop-opacity:0;"
         offset="1"
         id="stop7551" />
    </linearGradient>
    <radialGradient
       inkscape:collect="always"
       xlink:href="#linearGradient29324"
       id="radialGradient29326"
       cx="359.70151"
       cy="117.08517"
       fx="359.70151"
       fy="117.08517"
       r="19.409994"
       gradientTransform="matrix(3.4729536,0,0,3.5600214,-905.19043,-322.30696)"
       gradientUnits="userSpaceOnUse" />
    <linearGradient
       inkscape:collect="always"
       id="linearGradient29324">
      <stop
         style="stop-color:#263238;stop-opacity:0.2"
         offset="0"
         id="stop29320" />
      <stop
         style="stop-color:#263238;stop-opacity:0;"
         offset="1"
         id="stop29322" />
    </linearGradient>
    <radialGradient
       inkscape:collect="always"
       xlink:href="#linearGradient27513"
       id="radialGradient27515"
       cx="349"
       cy="20.275003"
       fx="349"
       fy="20.275003"
       r="39.200001"
       gradientTransform="matrix(2.020408,0,0,1.8998723,-356.12236,10.480081)"
       gradientUnits="userSpaceOnUse" />
    <linearGradient
       inkscape:collect="always"
       id="linearGradient27513">
      <stop
         style="stop-color:#3e2723;stop-opacity:0.2"
         offset="0"
         id="stop27509" />
      <stop
         style="stop-color:#3e2723;stop-opacity:0"
         offset="1"
         id="stop27511" />
    </linearGradient>
    <radialGradient
       inkscape:collect="always"
       xlink:href="#linearGradient27513"
       id="radialGradient35106"
       cx="274.87961"
       cy="46.549999"
       fx="274.87961"
       fy="46.549999"
       r="28.625"
       gradientTransform="matrix(2.3973753,0,0,2.4393014,-384.09686,-71.986974)"
       gradientUnits="userSpaceOnUse" />
  </defs>
  <g
     id="g38077"
     transform="matrix(0.08719223,0,0,0.08719223,-21.963423,0.70655775)">
    <path
       id="path2795"
       style="fill:#db4437;fill-opacity:1;stroke-width:0.951353"
       d="M 349,1 A 88,88 0 0 0 274.89258,41.562503 L 314.34961,109 C 315.29922,108.6 349,49.000003 349,49.000003 h 78.35547 A 88,88 0 0 0 349,1 Z" />
    <path
       id="path2999"
       style="fill:#0f9d58;fill-opacity:1;stroke-width:1.04222"
       d="M 274.9082,41.535153 A 88,88 0 0 0 261,89.000003 88,88 0 0 0 345.07617,176.71875 l 38.66406,-67.61914 h -69.30078 z" />
    <path
       id="path2999-9"
       style="fill:url(#linearGradient8988);fill-opacity:1;stroke-width:1.04222"
       d="M 274.9082,41.535153 A 88,88 0 0 0 261,89.000003 88,88 0 0 0 345.07617,176.71875 l 38.66406,-67.61914 h -69.30078 z" />
    <path
       id="path4009"
       style="fill:#ffcd40;fill-opacity:1;stroke-width:0.940164"
       d="m 349,49.000003 34.74023,60.099607 -38.66406,67.61914 c 1.30568,0.12298 2.61395,0.21675 3.92383,0.28125 48.60106,0 88,-39.39894 88,-87.999997 -0.009,-13.90814 -3.31392,-27.61616 -9.64453,-40 z"
       sodipodi:nodetypes="ccccccc" />
    <path
       id="path4009-7"
       style="fill:url(#linearGradient5322);fill-opacity:1;stroke-width:0.940164"
       d="m 349,49.000003 34.74023,60.099617 -38.66406,67.61913 c 1.30568,0.12298 2.61395,0.21675 3.92383,0.28125 48.60106,0 88,-39.39894 88,-87.999995 -0.009,-13.908142 -3.31392,-27.616162 -9.64453,-40.000002 z"
       sodipodi:nodetypes="ccccccc" />
    <path
       id="rect37027"
       style="fill:#3e2723;fill-opacity:0.14902"
       d="m 274.55273,39.644531 a 88,88 0 0 0 -0.5664,0.75586 l -0.0781,0.134765 39.53907,67.800784 0.86132,-0.5 z"
       transform="translate(1,1)" />
    <path
       id="path2795-2"
       style="fill:url(#linearGradient7555);fill-opacity:1;stroke-width:0.951353"
       d="m 349.08984,1.09961 a 88,88 0 0 0 -74.10742,40.562503 l 39.45703,67.437497 c 0.94961,-0.4 34.65039,-59.999997 34.65039,-59.999997 h 78.35547 A 88,88 0 0 0 349.08984,1.09961 Z" />
    <path
       id="path10302"
       style="fill:#3e2723;fill-opacity:0.2;stroke-width:0.860913"
       d="m 348,47 c -22.09139,0 -40,17.90861 -40,40 0.012,0.166747 0.025,0.333417 0.0391,0.5 C 308.31254,65.619325 326.11762,48.019659 348,48 h 78.35547 a 88,88 0 0 0 -0.58985,-1 z"
       transform="translate(1,1)" />
    <path
       id="rect11816"
       style="fill:url(#radialGradient29326);fill-opacity:1"
       d="m 383.89616,108.81875 -17.86,-10.3 -20.95999,78.2 z"
       sodipodi:nodetypes="cccc" />
    <path
       id="rect12627"
       style="fill:#ffffff;fill-opacity:0.2"
       d="M 376.80664,60.263672 C 383.98405,67.713816 387.99593,77.654963 388,88 l -5.25977,20.09961 -38.66406,67.61914 c 0.26779,0.0252 0.53669,0.0358 0.80469,0.0586 l 37.48047,-64.76562 c 0.48828,-0.78008 0.94949,-1.57678 1.38281,-2.38867 l 0.98047,-1.69532 -0.0762,0.0371 C 387.48169,101.39845 388.97197,95.245896 389,89 388.99522,78.165136 384.59528,67.795701 376.80664,60.263672 Z"
       transform="translate(1,1)" />
    <path
       id="path13191"
       style="fill:#3e2723;fill-opacity:0.1;stroke-width:0.986001"
       d="M 349,48 A 40,40 0 0 0 348.74219,48.01758 40,40 0 0 1 388,88 40,40 0 0 1 348.5,127.96484 40,40 0 0 0 349,128 40,40 0 0 0 389,88 40,40 0 0 0 349,48 Z"
       transform="translate(1,1)" />
    <path
       id="path13191-8"
       style="fill:#3e2723;fill-opacity:0.1;stroke-width:0.986001"
       d="m 350,48.999956 a 40,40 0 0 0 -0.25781,0.01758 A 40,40 0 0 1 389,88.999956 40,40 0 0 1 349.5,128.9648 40,40 0 0 0 350,129 a 40,40 0 0 0 40,-40.000004 40,40 0 0 0 -40,-40 z" />
    <path
       id="rect14116"
       style="fill:url(#radialGradient27515);fill-opacity:1"
       d="m 349,49.000004 h 78.4 L 349,69.950005 Z"
       sodipodi:nodetypes="cccc" />
    <path
       id="path111-3"
       d="m 273.9082,40.535156 a 88,88 0 0 0 -0.17773,0.316406 l 39.82031,68.248048 c 6.92,11.94 19.79961,20 34.59961,20 12.63154,0 23.8492,-5.87576 31.17188,-15.02344 l 3.30859,-5.78515 c -6.94681,11.83259 -19.76124,19.80859 -34.48047,19.80859 -14.8,0 -27.69961,-8.06 -34.59961,-20 h -0.041 -0.0703 z"
       style="fill:#ffffff;fill-opacity:0.1"
       transform="translate(1,1)" />
    <path
       id="path33289"
       style="fill:#ffffff;fill-opacity:0.2;stroke-width:0.905648"
       d="m 348,0 a 88,88 0 0 0 -88,88 88,88 0 0 0 0.0352,0.5 A 88,88 0 0 1 348,1 88,88 0 0 1 435.98242,88.253906 88,88 0 0 0 436,88 88,88 0 0 0 348,0 Z"
       transform="translate(1,1)" />
    <path
       id="rect34189"
       style="fill:url(#radialGradient35106);fill-opacity:1"
       d="m 274.89258,41.562503 57.25,57.239999 -17.78,10.409998 z"
       sodipodi:nodetypes="cccc" />
    <path
       id="path35564"
       style="fill:#3e2723;fill-opacity:0.14902;stroke-width:0.98282"
       d="M 435.98242,87.253906 A 88,88 0 0 1 348,175 88,88 0 0 1 260.03516,87.5 88,88 0 0 0 260,88 a 88,88 0 0 0 88,88 88,88 0 0 0 88,-88 88,88 0 0 0 -0.0176,-0.746094 z"
       transform="translate(1,1)" />
    <path
       id="rect35898"
       style="fill:#263238;fill-opacity:0.14902"
       d="m 382.63086,108.29102 -1.66016,0.88086 -38.01172,66.46679 a 88,88 0 0 0 1.10547,0.0801 z"
       transform="translate(1,1)" />
    <circle
       style="fill:#f1f1f1;fill-opacity:1;stroke-width:1.07656"
       id="path10697"
       cx="349"
       cy="89"
       r="40" />
    <circle
       style="fill:#4285f4;fill-opacity:1;stroke-width:1.34765"
       id="path11362"
       cx="349"
       cy="89"
       r="32" />
  </g>
  <path
     id="path898"
     style="fill:#414242;fill-opacity:1;stroke-width:1.09613;stroke-linecap:round;stroke-linejoin:round"
     d="m 1.1159523,10.658929 a 7.6729169,7.6729169 0 0 0 7.3507144,5.480654 7.6729169,7.6729169 0 0 0 7.3507143,-5.480654 z" />
  <path
     id="path59350"
     style="font-size:33.394px;line-height:1.25;font-family:'Google Sans';-inkscape-font-specification:'Google Sans';fill:#ffffff;stroke-width:0.0718855"
     d="m 5.7263391,11.75506 v 2.058792 h 0.7794277 c 0.1092649,0 0.2111005,-0.02498 0.3050295,-0.07482 0.095846,-0.04984 0.171331,-0.118193 0.2269219,-0.206374 0.057507,-0.0901 0.08633,-0.191385 0.08633,-0.302568 0,-0.113102 -0.032661,-0.211647 -0.097839,-0.295993 -0.065175,-0.08436 -0.1497186,-0.143915 -0.2532328,-0.178419 v -0.01151 c 0.086262,-0.04026 0.1540614,-0.09791 0.2039011,-0.172664 0.051757,-0.07477 0.078107,-0.161779 0.078107,-0.261461 0,-0.105432 -0.0269,-0.200135 -0.080573,-0.284481 -0.053674,-0.08436 -0.1266882,-0.150227 -0.2187005,-0.19815 -0.090095,-0.04791 -0.1867158,-0.07235 -0.2902301,-0.07235 z m 3.4243853,0.178418 v 0.41439 H 8.895026 v 0.221172 h 0.2556984 v 0.860021 c 0,0.06901 0.0096,0.127205 0.028777,0.175131 0.01917,0.04792 0.04799,0.09019 0.086329,0.126618 0.034506,0.03258 0.076775,0.05811 0.1266158,0.07728 0.051758,0.01917 0.1074787,0.02878 0.1669031,0.02878 0.046006,0 0.083062,-0.0025 0.1118166,-0.0082 0.030671,-0.0057 0.060864,-0.01536 0.089617,-0.02877 v -0.238438 c -0.051757,0.03258 -0.1055566,0.04851 -0.161147,0.04851 -0.069009,0 -0.1214375,-0.02114 -0.1578587,-0.06331 -0.030671,-0.03833 -0.046042,-0.09791 -0.046042,-0.178418 V 12.56904 H 9.7517394 V 12.347868 H 9.3957347 v -0.414389 z m -3.1826639,0.05509 h 0.5089301 c 0.067093,0 0.1252847,0.01591 0.1751248,0.04851 0.051757,0.03258 0.091556,0.07486 0.1183942,0.126619 0.028756,0.04984 0.042752,0.10035 0.042752,0.152106 0,0.05368 -0.014001,0.106928 -0.042752,0.158685 -0.028757,0.04985 -0.070476,0.09075 -0.1241496,0.123332 -0.051757,0.03258 -0.1118705,0.04851 -0.1808801,0.04851 H 5.9680605 Z m 2.0842297,0.313259 c -0.141852,0 -0.2659228,0.03513 -0.3732704,0.106063 -0.1073474,0.07093 -0.1905183,0.16563 -0.2499432,0.284482 -0.057507,0.118852 -0.08633,0.249513 -0.08633,0.391367 0,0.147607 0.030742,0.280739 0.092084,0.399591 0.063257,0.116935 0.1502715,0.209166 0.2614538,0.276259 0.1111809,0.06709 0.2366237,0.100308 0.376559,0.100308 0.1533537,0 0.2840106,-0.03459 0.391358,-0.103598 0.1092649,-0.06901 0.1949069,-0.162341 0.2581653,-0.281193 l -0.207189,-0.101127 c -0.1015973,0.17636 -0.2462535,0.264749 -0.4341119,0.264749 -0.080511,0 -0.1579176,-0.0192 -0.232677,-0.05756 -0.072844,-0.03833 -0.1329571,-0.09598 -0.1808801,-0.172663 -0.047923,-0.07668 -0.074823,-0.170834 -0.080574,-0.282018 h 1.1584535 c 0.00575,-0.02109 0.00904,-0.04607 0.00904,-0.07482 0,-0.14569 -0.028822,-0.274979 -0.08633,-0.388081 -0.05559,-0.113098 -0.1362889,-0.200663 -0.2417202,-0.263924 -0.1054307,-0.06518 -0.2303231,-0.09784 -0.374092,-0.09784 z m 2.5134068,0 c -0.122683,0 -0.234675,0.02498 -0.336271,0.07482 -0.09968,0.04985 -0.178459,0.118192 -0.2359654,0.206372 l 0.1841684,0.138131 c 0.04026,-0.06326 0.09461,-0.111847 0.163612,-0.146351 0.06901,-0.03642 0.145317,-0.05509 0.227745,-0.05509 0.116932,0 0.213553,0.03403 0.29023,0.101127 0.07668,0.06518 0.115105,0.152193 0.115105,0.261462 v 0.08962 c -0.04026,-0.02492 -0.09927,-0.04743 -0.175947,-0.0666 -0.07476,-0.01917 -0.156009,-0.02878 -0.244188,-0.02878 -0.178273,0 -0.326221,0.04419 -0.443154,0.132375 -0.1169322,0.08626 -0.1751251,0.207316 -0.1751251,0.362589 0,0.09393 0.023059,0.177655 0.069063,0.252417 0.046,0.07285 0.111335,0.13049 0.19568,0.172662 0.08434,0.04218 0.180414,0.06331 0.287763,0.06331 0.105431,1e-6 0.20013,-0.02498 0.284474,-0.07482 0.08434,-0.04984 0.147752,-0.109956 0.189924,-0.180883 h 0.01151 v 0.209664 h 0.232676 v -0.928264 c 0,-0.180196 -0.05764,-0.322384 -0.172657,-0.425901 C 10.921238,12.35426 10.765054,12.30183 10.565693,12.30183 Z m -2.5158737,0.221168 c 0.099679,0 0.1823017,0.02113 0.2474768,0.06331 0.067093,0.04217 0.1156772,0.09404 0.1463482,0.155393 0.030671,0.06134 0.047963,0.122832 0.051798,0.184175 h -0.894534 c 0.02492,-0.120769 0.076799,-0.218215 0.1553925,-0.29106 0.080511,-0.07476 0.1785034,-0.11182 0.2935184,-0.11182 z m -2.0817628,0.353549 h 0.5401731 c 0.072843,0 0.1376217,0.0173 0.1932125,0.0518 0.055591,0.03258 0.098413,0.07679 0.1290825,0.132373 0.030671,0.05368 0.046043,0.109398 0.046043,0.166907 0,0.05751 -0.015374,0.11378 -0.046043,0.169373 -0.028756,0.05368 -0.071024,0.09787 -0.1266158,0.132375 -0.053674,0.03451 -0.1151598,0.0518 -0.1841686,0.0518 H 5.9680605 Z m 4.6231245,0.198149 c 0.07476,0 0.145851,0.0096 0.212945,0.02878 0.06709,0.01917 0.124185,0.04414 0.170191,0.07482 0,0.08434 -0.02114,0.162577 -0.06331,0.233505 -0.04217,0.07093 -0.09926,0.127201 -0.170191,0.169374 -0.07092,0.04218 -0.14696,0.06331 -0.229387,0.06331 -0.09393,0 -0.17216,-0.02498 -0.2335,-0.07482 -0.06133,-0.04984 -0.09209,-0.115173 -0.09209,-0.195685 0,-0.08818 0.03403,-0.159825 0.101127,-0.215417 0.06901,-0.05559 0.170023,-0.08385 0.304207,-0.08385 z" />
</svg>
