<?xml version="1.0" encoding="UTF-8" standalone="no"?>
<!-- Created with Inkscape (http://www.inkscape.org/) -->

<svg
   width="64"
   height="64"
   viewBox="0 0 16.933333 16.933334"
   version="1.1"
   id="svg5"
   inkscape:version="1.2.1 (9c6d41e410, 2022-07-14)"
   sodipodi:docname="google-chrome.svg"
   xmlns:inkscape="http://www.inkscape.org/namespaces/inkscape"
   xmlns:sodipodi="http://sodipodi.sourceforge.net/DTD/sodipodi-0.dtd"
   xmlns:xlink="http://www.w3.org/1999/xlink"
   xmlns="http://www.w3.org/2000/svg"
   xmlns:svg="http://www.w3.org/2000/svg">
  <sodipodi:namedview
     id="namedview7"
     pagecolor="#ffffff"
     bordercolor="#666666"
     borderopacity="1.0"
     inkscape:pageshadow="2"
     inkscape:pageopacity="0.0"
     inkscape:pagecheckerboard="0"
     inkscape:document-units="px"
     showgrid="false"
     units="px"
     inkscape:zoom="4.3586504"
     inkscape:cx="-12.274442"
     inkscape:cy="68.369787"
     inkscape:window-width="1920"
     inkscape:window-height="1007"
     inkscape:window-x="0"
     inkscape:window-y="0"
     inkscape:window-maximized="1"
     inkscape:current-layer="svg5"
     inkscape:showpageshadow="2"
     inkscape:deskcolor="#d1d1d1" />
  <defs
     id="defs2">
    <linearGradient
       inkscape:collect="always"
       xlink:href="#linearGradient12495"
       id="linearGradient12497"
       x1="3.7041574"
       y1="5.15939"
       x2="8.9958239"
       y2="5.15939"
       gradientUnits="userSpaceOnUse"
       gradientTransform="matrix(1.6470588,0,0,1.6470588,-1.9921569,-1.9921511)" />
    <linearGradient
       inkscape:collect="always"
       id="linearGradient12495">
      <stop
         style="stop-color:#db3328;stop-opacity:1;"
         offset="0"
         id="stop12491" />
      <stop
         style="stop-color:#e53d30;stop-opacity:1"
         offset="1"
         id="stop12493" />
    </linearGradient>
    <linearGradient
       inkscape:collect="always"
       xlink:href="#linearGradient13171"
       id="linearGradient13173"
       x1="4.4023013"
       y1="4.2994838"
       x2="5.9898009"
       y2="7.474484"
       gradientUnits="userSpaceOnUse"
       gradientTransform="matrix(1.6470588,0,0,1.6470588,-1.9921569,-1.9921511)" />
    <linearGradient
       inkscape:collect="always"
       id="linearGradient13171">
      <stop
         style="stop-color:#32a651;stop-opacity:1;"
         offset="0"
         id="stop13167" />
      <stop
         style="stop-color:#279847;stop-opacity:1"
         offset="1"
         id="stop13169" />
    </linearGradient>
  </defs>
  <path
     d="m 8.4666513,1.058339 c -2.7420238,0 -5.1342652,1.4907763 -6.4152616,3.7050663 L 2.293049,9.0839929 5.2586919,10.318763 8.4666513,8.466722 V 4.7625304 H 14.881473 C 13.600258,2.5487872 11.208346,1.058339 8.4666513,1.058339 Z"
     style="fill:url(#linearGradient12497);fill-opacity:1;stroke-width:0.0289387"
     id="path1309" />
  <path
     d="m 1.0583767,8.466722 c 0,4.091487 3.3166773,7.408273 7.4082736,7.408273 L 11.715847,14.138046 11.67461,10.318763 8.4666503,8.466722 5.2586919,10.318763 2.0513891,4.7634053 C 1.4209864,5.8531266 1.0583332,7.1170387 1.0583332,8.4666128"
     style="fill:url(#linearGradient13173);fill-opacity:1;stroke-width:0.0289387"
     id="path1449"
     sodipodi:nodetypes="cccccccc" />
  <path
     d="m 8.4667282,8.466722 3.2079588,1.852041 -3.2079588,5.556232 c 4.0914858,0 7.4082718,-3.316786 7.4082718,-7.408273 0,-1.3497927 -0.362771,-2.6141643 -0.993527,-3.7041916 H 8.4666513 Z"
     style="fill:#fbbf12;stroke-width:0.0289387"
     id="path1829" />
  <path
     d="m 12.17092,8.466722 c 0,2.045743 -1.658448,3.704191 -3.7041918,3.704191 -2.0457442,0 -3.7041922,-1.658448 -3.7041922,-3.704191 0,-2.0457439 1.658448,-3.7041916 3.7041922,-3.7041916 2.0457438,0 3.7041918,1.6584477 3.7041918,3.7041916"
     style="fill:#ffffff;stroke-width:0.0289387"
     id="path2229" />
  <path
     d="m 11.377083,8.4666675 c 0,1.6073555 -1.303062,2.9104145 -2.9104162,2.9104145 -1.6073558,0 -2.9104168,-1.303059 -2.9104168,-2.9104145 0,-1.6073551 1.303061,-2.910416 2.9104168,-2.910416 1.6073542,0 2.9104162,1.3030609 2.9104162,2.910416"
     style="fill:#4688f4;fill-opacity:1;stroke-width:0.0279845"
     id="path2029" />
</svg>
