<?xml version="1.0" encoding="UTF-8" standalone="no"?>
<!-- Created with Inkscape (http://www.inkscape.org/) -->

<svg
   width="64"
   height="64"
   viewBox="0 0 16.933333 16.933334"
   version="1.1"
   id="svg5"
   inkscape:version="1.1.1 (3bf5ae0d25, 2021-09-20, custom)"
   sodipodi:docname="kblackbox.svg"
   xmlns:inkscape="http://www.inkscape.org/namespaces/inkscape"
   xmlns:sodipodi="http://sodipodi.sourceforge.net/DTD/sodipodi-0.dtd"
   xmlns:xlink="http://www.w3.org/1999/xlink"
   xmlns="http://www.w3.org/2000/svg"
   xmlns:svg="http://www.w3.org/2000/svg">
  <sodipodi:namedview
     id="namedview7"
     pagecolor="#ffffff"
     bordercolor="#666666"
     borderopacity="1.0"
     inkscape:pageshadow="2"
     inkscape:pageopacity="0.0"
     inkscape:pagecheckerboard="0"
     inkscape:document-units="px"
     showgrid="false"
     units="px"
     height="32px"
     inkscape:lockguides="false"
     inkscape:zoom="6.0390624"
     inkscape:cx="8.1138423"
     inkscape:cy="38.664942"
     inkscape:window-width="1920"
     inkscape:window-height="996"
     inkscape:window-x="0"
     inkscape:window-y="0"
     inkscape:window-maximized="1"
     inkscape:current-layer="svg5" />
  <defs
     id="defs2">
    <linearGradient
       inkscape:collect="always"
       id="linearGradient223269">
      <stop
         style="stop-color:#555556;stop-opacity:1;"
         offset="0"
         id="stop223265" />
      <stop
         style="stop-color:#2d2d2d;stop-opacity:1"
         offset="1"
         id="stop223267" />
    </linearGradient>
    <linearGradient
       inkscape:collect="always"
       xlink:href="#linearGradient223269"
       id="linearGradient1364"
       x1="1.0583333"
       y1="8.4667711"
       x2="8.4667339"
       y2="15.345938"
       gradientUnits="userSpaceOnUse"
       gradientTransform="matrix(1.9999819,0,0,1.9999819,-1.0583142,-15.874921)" />
    <linearGradient
       inkscape:collect="always"
       xlink:href="#linearGradient7209"
       id="linearGradient7211"
       x1="3.1750002"
       y1="3.1749995"
       x2="15.875"
       y2="15.875"
       gradientUnits="userSpaceOnUse"
       gradientTransform="matrix(3.7795275,0,0,3.7795275,-0.80077534,-2.8156526)" />
    <linearGradient
       inkscape:collect="always"
       id="linearGradient7209">
      <stop
         style="stop-color:#f6f5f4;stop-opacity:1"
         offset="0"
         id="stop7205" />
      <stop
         style="stop-color:#cccccc;stop-opacity:1"
         offset="1"
         id="stop7207" />
    </linearGradient>
  </defs>
  <path
     id="rect950"
     style="fill:url(#linearGradient1364);fill-opacity:1;stroke-width:3.17499;stroke-linecap:round;stroke-linejoin:round"
     d="M 2.1166667,1.0584032 H 14.816667 c 0.586317,0 1.058333,0.4720167 1.058333,1.0583333 V 14.816733 c 0,0.586316 -0.472016,1.058334 -1.058333,1.058334 H 2.1166667 c -0.5863167,0 -1.0583334,-0.472018 -1.0583334,-1.058334 V 2.1167365 c 0,-0.5863166 0.4720167,-1.0583333 1.0583334,-1.0583333 z" />
  <path
     id="rect1335"
     style="fill:url(#linearGradient7211);fill-opacity:1;stroke-width:0.999999"
     d="M 31.847656 12 C 27.667015 12 24.364425 14.012566 21.990234 16.748047 L 24.673828 19.226562 C 26.480278 17.162049 28.751389 15.921875 31.332031 15.921875 C 35.048156 15.921875 36.90625 18.399323 36.90625 21.496094 C 36.90625 27.638023 27.718323 30.94124 28.957031 39.921875 L 33.138672 39.921875 C 32.209641 31.818659 41.5 28.774589 41.5 21.1875 C 41.5 15.510087 37.679908 12 31.847656 12 z M 31.177734 44.826172 C 29.268059 44.826172 27.822266 46.271713 27.822266 48.439453 C 27.822266 50.55558 29.268059 52 31.177734 52 C 33.08741 52 34.634766 50.55558 34.634766 48.439453 C 34.634766 46.271713 33.08741 44.826172 31.177734 44.826172 z "
     transform="scale(0.26458334)" />
</svg>
