<?xml version="1.0" encoding="UTF-8" standalone="no"?>
<!-- Created with Inkscape (http://www.inkscape.org/) -->

<svg
   width="64"
   height="64"
   viewBox="0 0 16.933333 16.933334"
   version="1.1"
   id="svg5"
   inkscape:version="1.1.1 (3bf5ae0d25, 2021-09-20, custom)"
   sodipodi:docname="kile.svg"
   xmlns:inkscape="http://www.inkscape.org/namespaces/inkscape"
   xmlns:sodipodi="http://sodipodi.sourceforge.net/DTD/sodipodi-0.dtd"
   xmlns:xlink="http://www.w3.org/1999/xlink"
   xmlns="http://www.w3.org/2000/svg"
   xmlns:svg="http://www.w3.org/2000/svg">
  <sodipodi:namedview
     id="namedview7"
     pagecolor="#ffffff"
     bordercolor="#666666"
     borderopacity="1.0"
     inkscape:pageshadow="2"
     inkscape:pageopacity="0.0"
     inkscape:pagecheckerboard="0"
     inkscape:document-units="px"
     showgrid="false"
     units="px"
     height="64px"
     inkscape:zoom="8"
     inkscape:cx="41.125"
     inkscape:cy="38.9375"
     inkscape:window-width="1920"
     inkscape:window-height="996"
     inkscape:window-x="0"
     inkscape:window-y="0"
     inkscape:window-maximized="1"
     inkscape:current-layer="svg5" />
  <defs
     id="defs2">
    <linearGradient
       inkscape:collect="always"
       id="linearGradient2818">
      <stop
         style="stop-color:#000000;stop-opacity:0.40000001"
         offset="0"
         id="stop2814" />
      <stop
         style="stop-color:#000000;stop-opacity:0;"
         offset="1"
         id="stop2816" />
    </linearGradient>
    <linearGradient
       inkscape:collect="always"
       id="linearGradient1552">
      <stop
         style="stop-color:#75d4f0;stop-opacity:1;"
         offset="0"
         id="stop1548" />
      <stop
         style="stop-color:#40b0d1;stop-opacity:1"
         offset="1"
         id="stop1550" />
    </linearGradient>
    <linearGradient
       inkscape:collect="always"
       xlink:href="#linearGradient1552"
       id="linearGradient1554"
       x1="2.1166668"
       y1="10.318751"
       x2="13.761553"
       y2="10.338392"
       gradientUnits="userSpaceOnUse"
       gradientTransform="translate(0.52916663,-2.6458333)" />
    <linearGradient
       inkscape:collect="always"
       xlink:href="#linearGradient2818"
       id="linearGradient3170"
       x1="8.4666729"
       y1="14.287501"
       x2="8.4666729"
       y2="16.404167"
       gradientUnits="userSpaceOnUse"
       gradientTransform="matrix(1.2727273,0,0,1,-1.6356065,-2.1166674)" />
  </defs>
  <rect
     style="fill:#974711;fill-opacity:1;stroke-width:0.209795"
     id="rect939"
     width="10.054167"
     height="14.816667"
     x="4.2333336"
     y="1.0583332"
     ry="0.5291667" />
  <rect
     style="fill:url(#linearGradient3170);fill-opacity:1;stroke-width:0.29849"
     id="rect3082"
     width="14.816667"
     height="2.1166668"
     x="1.0583332"
     y="12.170833"
     transform="matrix(0,1,1,0,0,0)" />
  <rect
     style="fill:url(#linearGradient1554);fill-opacity:1;stroke-width:0.264583"
     id="rect1392"
     width="10.583333"
     height="14.816667"
     x="2.6458335"
     y="1.0583334"
     ry="0.5291667" />
  <rect
     style="fill:#006e8f;fill-opacity:1;stroke-width:0.264583"
     id="rect3688"
     width="6.8791666"
     height="1.0583334"
     x="4.7625003"
     y="3.96875"
     ry="0.26458335" />
  <rect
     style="fill:#006e8f;fill-opacity:1;stroke-width:0.264583"
     id="rect7473"
     width="6.8791666"
     height="1.0583334"
     x="4.7625003"
     y="6.614584"
     ry="0.26458335" />
  <path
     id="rect2060"
     style="fill:#006e8f;stroke-width:0.264583"
     d="M 3.9687501,3.9480795 C 3.9579245,3.5179144 3.6078667,3.1750001 3.1750001,3.1750001 H 2.38125 c -0.4397375,0 -0.7937499,0.3540125 -0.7937499,0.79375 0,0.4397375 0.3540124,0.79375 0.7937499,0.79375 h 0.7937501 c 0.4397375,0 0.79375,-0.3540125 0.79375,-0.79375 0,-0.00687 1.718e-4,-0.013842 0,-0.020671 z m 0,2.9104167 C 3.9579245,6.4283311 3.6078668,6.0854168 3.1750001,6.0854168 H 2.38125 c -0.4397375,0 -0.7937499,0.3540125 -0.7937499,0.79375 0,0.4397375 0.3540124,0.79375 0.7937499,0.79375 h 0.7937501 c 0.4397375,0 0.79375,-0.3540125 0.79375,-0.79375 0,-0.00687 1.718e-4,-0.013842 0,-0.020671 z m 0,3.1749998 C 3.9579245,9.6033313 3.6078668,9.2604168 3.1750001,9.2604168 H 2.38125 c -0.4397375,0 -0.7937499,0.3540125 -0.7937499,0.7937502 0,0.439737 0.3540124,0.79375 0.7937499,0.79375 h 0.7937501 c 0.4397375,0 0.79375,-0.354013 0.79375,-0.79375 0,-0.0069 1.718e-4,-0.01384 0,-0.02067 z m 0,2.910417 c -0.010826,-0.430166 -0.3608833,-0.77308 -0.79375,-0.77308 H 2.38125 c -0.4397377,0 -0.7937499,0.354012 -0.7937499,0.79375 0,0.439737 0.3540122,0.79375 0.7937499,0.79375 h 0.7937501 c 0.4397376,0 0.79375,-0.354013 0.79375,-0.79375 0,-0.0069 1.718e-4,-0.01384 0,-0.02067 z"
     sodipodi:nodetypes="cssssssccssssssccssssssccssssssc" />
  <rect
     style="fill:#006e8f;fill-opacity:1;stroke-width:0.264583"
     id="rect7577"
     width="6.8791666"
     height="1.0583339"
     x="4.7625003"
     y="9.260417"
     ry="0.26458335" />
  <rect
     style="fill:#006e8f;fill-opacity:1;stroke-width:0.264583"
     id="rect7577-3"
     width="6.8791666"
     height="1.0583339"
     x="4.7625008"
     y="11.906247"
     ry="0.26458335" />
</svg>
