<?xml version="1.0" encoding="UTF-8" standalone="no"?>
<!-- Created with Inkscape (http://www.inkscape.org/) -->

<svg
   width="64"
   height="64"
   viewBox="0 0 16.933333 16.933334"
   version="1.1"
   id="svg5"
   inkscape:version="1.1.1 (3bf5ae0d25, 2021-09-20, custom)"
   sodipodi:docname="korganizer.svg"
   xmlns:inkscape="http://www.inkscape.org/namespaces/inkscape"
   xmlns:sodipodi="http://sodipodi.sourceforge.net/DTD/sodipodi-0.dtd"
   xmlns:xlink="http://www.w3.org/1999/xlink"
   xmlns="http://www.w3.org/2000/svg"
   xmlns:svg="http://www.w3.org/2000/svg">
  <sodipodi:namedview
     id="namedview7"
     pagecolor="#ffffff"
     bordercolor="#666666"
     borderopacity="1.0"
     inkscape:pageshadow="2"
     inkscape:pageopacity="0.0"
     inkscape:pagecheckerboard="0"
     inkscape:document-units="px"
     showgrid="false"
     units="px"
     width="64px"
     inkscape:zoom="1.5449219"
     inkscape:cx="-85.117573"
     inkscape:cy="-19.094817"
     inkscape:window-width="1920"
     inkscape:window-height="1007"
     inkscape:window-x="0"
     inkscape:window-y="0"
     inkscape:window-maximized="1"
     inkscape:current-layer="svg5" />
  <defs
     id="defs2">
    <linearGradient
       inkscape:collect="always"
       id="linearGradient2231">
      <stop
         style="stop-color:#000000;stop-opacity:1;"
         offset="0"
         id="stop2227" />
      <stop
         style="stop-color:#000000;stop-opacity:0;"
         offset="1"
         id="stop2229" />
    </linearGradient>
    <linearGradient
       inkscape:collect="always"
       id="linearGradient984">
      <stop
         style="stop-color:#26b4eb;stop-opacity:1;"
         offset="0"
         id="stop980" />
      <stop
         style="stop-color:#017adc;stop-opacity:1"
         offset="1"
         id="stop982" />
    </linearGradient>
    <linearGradient
       inkscape:collect="always"
       xlink:href="#linearGradient4296"
       id="linearGradient986"
       x1="1.878782"
       y1="3.2796519"
       x2="15.996696"
       y2="14.14062"
       gradientUnits="userSpaceOnUse"
       gradientTransform="matrix(1.123288,0,0,1.0712272,-1.5812458,1.2492475)" />
    <radialGradient
       inkscape:collect="always"
       xlink:href="#linearGradient2231"
       id="radialGradient2233-3"
       cx="3.1703956"
       cy="3.1790876"
       fx="3.1703956"
       fy="3.1790876"
       r="1.0583334"
       gradientTransform="matrix(-0.01190055,1.2527563,-0.96347377,-0.00915253,16.580715,-0.78741256)"
       gradientUnits="userSpaceOnUse" />
    <radialGradient
       inkscape:collect="always"
       xlink:href="#linearGradient2231"
       id="radialGradient2233-3-3"
       cx="3.1703956"
       cy="3.1790876"
       fx="3.1703956"
       fy="3.1790876"
       r="1.0583334"
       gradientTransform="matrix(-0.01190055,1.2527563,-0.96347377,-0.00915253,6.5330951,-0.7874126)"
       gradientUnits="userSpaceOnUse" />
    <linearGradient
       inkscape:collect="always"
       id="linearGradient4296">
      <stop
         style="stop-color:#f2f2f2;stop-opacity:1"
         offset="0"
         id="stop4292" />
      <stop
         style="stop-color:#cacaca;stop-opacity:1"
         offset="1"
         id="stop4294" />
    </linearGradient>
    <linearGradient
       inkscape:collect="always"
       xlink:href="#linearGradient984"
       id="linearGradient1025"
       x1="2.0000002"
       y1="17.5"
       x2="62"
       y2="61.5"
       gradientUnits="userSpaceOnUse" />
  </defs>
  <path
     id="rect846"
     style="fill:url(#linearGradient986);stroke-width:0.580469;stroke-linecap:round;stroke-linejoin:round;fill-opacity:1.0"
     d="M 16.404167,3.4395831 V 15.610416 c 0,0.439738 -0.354013,0.79375 -0.79375,0.79375 H 1.3229167 c -0.43973751,0 -0.79375,-0.354012 -0.79375,-0.79375 V 3.4395831 Z"
     sodipodi:nodetypes="csssscc" />
  <path
     id="rect990"
     style="fill:#848484;stroke-width:0.666482;stroke-linecap:round;stroke-linejoin:round;fill-opacity:1"
     d="M 1.3229163,1.8520833 H 15.610416 c 0.439738,0 0.79375,0.3540125 0.79375,0.79375 l 1e-6,2.1166665 H 0.52916752 l -1.18e-6,-2.1166665 c -2.4e-7,-0.4397375 0.3540125,-0.79375 0.79374996,-0.79375 z"
     sodipodi:nodetypes="sssccss" />
  <path
     id="rect1986-5-2"
     style="fill:url(#radialGradient2233-3-3);fill-opacity:1;stroke-width:0.529167;stroke-linecap:round;stroke-linejoin:round"
     d="m 4.7690473,1.8520834 v 2.1166665 c 0,0.5863167 -1.001184,1.0583334 -1.587501,1.0583334 -0.586316,0 -1.131056,-0.4765443 -1.058333,-1.0583334 V 1.8520834 Z"
     sodipodi:nodetypes="cssscc" />
  <path
     id="rect1986-5"
     style="fill:url(#radialGradient2233-3);fill-opacity:1;stroke-width:0.529167;stroke-linecap:round;stroke-linejoin:round"
     d="m 14.816667,1.8520834 v 2.1166665 c 0,0.5863167 -1.001184,1.0583334 -1.587501,1.0583334 -0.586316,0 -1.131056,-0.4765443 -1.058333,-1.0583334 V 1.8520834 Z"
     sodipodi:nodetypes="cssscc" />
  <rect
     style="fill:#d3d3d3;fill-opacity:1;stroke-width:0.529167;stroke-linecap:round;stroke-linejoin:round"
     id="rect1882"
     width="1.5874996"
     height="3.7041669"
     x="12.699998"
     y="0.5291667"
     ry="0.73402196" />
  <rect
     style="fill:#d3d3d3;fill-opacity:1;stroke-width:0.529167;stroke-linecap:round;stroke-linejoin:round"
     id="rect1602"
     width="1.5875"
     height="3.7041667"
     x="2.6458333"
     y="0.5291667"
     ry="0.79375005" />
  <path
     id="rect4401"
     style="fill:url(#linearGradient1025);fill-opacity:1;stroke-width:1.55556;stroke-linecap:round;stroke-linejoin:round"
     d="M 23 25 L 23 32 L 30 32 L 30 25 L 23 25 z M 34 25 L 34 32 L 41 32 L 41 25 L 34 25 z M 45 25 L 45 32 L 52 32 L 52 25 L 45 25 z M 12 36 L 12 43 L 19 43 L 19 36 L 12 36 z M 23 36 L 23 43 L 30 43 L 30 36 L 23 36 z M 34 36 L 34 43 L 41 43 L 41 36 L 34 36 z M 45 36 L 45 43 L 52 43 L 52 36 L 45 36 z M 12 47 L 12 54 L 19 54 L 19 47 L 12 47 z M 23 47 L 23 54 L 30 54 L 30 47 L 23 47 z M 34 47 L 34 54 L 41 54 L 41 47 L 34 47 z "
     transform="scale(0.26458334)" />
</svg>
