<?xml version="1.0" encoding="UTF-8" standalone="no"?>
<!-- Created with Inkscape (http://www.inkscape.org/) -->

<svg
   width="64"
   height="64"
   viewBox="0 0 16.933333 16.933334"
   version="1.1"
   id="svg5"
   inkscape:version="1.1.1 (3bf5ae0d25, 2021-09-20, custom)"
   sodipodi:docname="latte-dock.svg"
   xmlns:inkscape="http://www.inkscape.org/namespaces/inkscape"
   xmlns:sodipodi="http://sodipodi.sourceforge.net/DTD/sodipodi-0.dtd"
   xmlns:xlink="http://www.w3.org/1999/xlink"
   xmlns="http://www.w3.org/2000/svg"
   xmlns:svg="http://www.w3.org/2000/svg">
  <sodipodi:namedview
     id="namedview7"
     pagecolor="#ffffff"
     bordercolor="#666666"
     borderopacity="1.0"
     inkscape:pageshadow="2"
     inkscape:pageopacity="0.0"
     inkscape:pagecheckerboard="0"
     inkscape:document-units="px"
     showgrid="false"
     units="px"
     height="64px"
     inkscape:zoom="7.9999996"
     inkscape:cx="19.562501"
     inkscape:cy="22.812501"
     inkscape:window-width="1920"
     inkscape:window-height="1007"
     inkscape:window-x="0"
     inkscape:window-y="0"
     inkscape:window-maximized="1"
     inkscape:current-layer="svg5"
     showguides="false" />
  <defs
     id="defs2">
    <linearGradient
       inkscape:collect="always"
       id="linearGradient1591">
      <stop
         style="stop-color:#58411f;stop-opacity:1"
         offset="0"
         id="stop1587" />
      <stop
         style="stop-color:#5e4903;stop-opacity:1"
         offset="1"
         id="stop1589" />
    </linearGradient>
    <linearGradient
       inkscape:collect="always"
       id="linearGradient11972">
      <stop
         style="stop-color:#c8b190;stop-opacity:1"
         offset="0"
         id="stop11968" />
      <stop
         style="stop-color:#907635;stop-opacity:1"
         offset="1"
         id="stop11970" />
    </linearGradient>
    <linearGradient
       inkscape:collect="always"
       xlink:href="#linearGradient11972"
       id="linearGradient1924"
       x1="0.5291667"
       y1="1.5875"
       x2="8.4666672"
       y2="7.9375"
       gradientUnits="userSpaceOnUse"
       gradientTransform="matrix(2,0,0,2,-0.52916674,-1.0583331)" />
    <linearGradient
       inkscape:collect="always"
       xlink:href="#linearGradient1591"
       id="linearGradient1379"
       x1="0.26458335"
       y1="12.170834"
       x2="16.139584"
       y2="12.170834"
       gradientUnits="userSpaceOnUse"
       gradientTransform="translate(0.26458333,1.8520836)" />
  </defs>
  <rect
     style="fill:url(#linearGradient1924);fill-opacity:1;stroke-width:1.5875;stroke-linecap:round;stroke-linejoin:round"
     id="rect1836"
     width="15.875"
     height="12.7"
     x="0.5291667"
     y="2.1166668"
     ry="0.5291667" />
  <path
     id="rect1409"
     style="fill:url(#linearGradient1379);fill-opacity:1;stroke-width:0.543685;stroke-linecap:round;stroke-linejoin:round"
     d="M 16.404167,13.229167 V 14.2875 c 0,0.293159 -0.236009,0.529168 -0.529167,0.529168 H 1.0583334 c -0.29315838,0 -0.52916673,-0.236009 -0.52916673,-0.529168 v -1.058333 z"
     sodipodi:nodetypes="csssscc" />
  <path
     id="rect863"
     style="fill:#f8f5ef;fill-opacity:1;stroke-width:3.99999;stroke-linecap:round;stroke-linejoin:round"
     d="M 12 45 C 10.892 45 10 45.892 10 47 L 10 51 C 10 52.108 10.892 53 12 53 L 16 53 C 17.108 53 18 52.108 18 51 L 18 47 C 18 45.892 17.108 45 16 45 L 12 45 z M 24 45 C 22.892 45 22 45.892 22 47 L 22 51 C 22 52.108 22.892 53 24 53 L 28 53 C 29.108 53 30 52.108 30 51 L 30 47 C 30 45.892 29.108 45 28 45 L 24 45 z M 36 45 C 34.892 45 34 45.892 34 47 L 34 51 C 34 52.108 34.892 53 36 53 L 40 53 C 41.108 53 42 52.108 42 51 L 42 47 C 42 45.892 41.108 45 40 45 L 36 45 z M 48 45 C 46.892 45 46 45.892 46 47 L 46 51 C 46 52.108 46.892 53 48 53 L 52 53 C 53.108 53 54 52.108 54 51 L 54 47 C 54 45.892 53.108 45 52 45 L 48 45 z "
     transform="scale(0.26458334)" />
  <path
     id="rect17878"
     style="fill:#ffffff;stroke-width:0.500001;stroke-linejoin:round"
     d="M 24 13 L 24 41.417969 L 40 41.417969 L 40 38.234375 L 27.582031 38.234375 L 27.582031 13 L 24 13 z "
     transform="scale(0.26458334)" />
</svg>
