<?xml version="1.0" encoding="UTF-8" standalone="no"?>
<!-- Created with Inkscape (http://www.inkscape.org/) -->

<svg
   width="64"
   height="64"
   viewBox="0 0 16.933333 16.933334"
   version="1.1"
   id="svg5"
   inkscape:version="1.1.1 (3bf5ae0d25, 2021-09-20, custom)"
   sodipodi:docname="libreoffice-calc.svg"
   xmlns:inkscape="http://www.inkscape.org/namespaces/inkscape"
   xmlns:sodipodi="http://sodipodi.sourceforge.net/DTD/sodipodi-0.dtd"
   xmlns:xlink="http://www.w3.org/1999/xlink"
   xmlns="http://www.w3.org/2000/svg"
   xmlns:svg="http://www.w3.org/2000/svg">
  <sodipodi:namedview
     id="namedview7"
     pagecolor="#ffffff"
     bordercolor="#666666"
     borderopacity="1.0"
     inkscape:pageshadow="2"
     inkscape:pageopacity="0.0"
     inkscape:pagecheckerboard="0"
     inkscape:document-units="px"
     showgrid="false"
     units="px"
     height="64px"
     showguides="true"
     inkscape:zoom="4.8802994"
     inkscape:cx="7.1716911"
     inkscape:cy="24.281297"
     inkscape:window-width="1920"
     inkscape:window-height="996"
     inkscape:window-x="0"
     inkscape:window-y="0"
     inkscape:window-maximized="1"
     inkscape:current-layer="svg5" />
  <defs
     id="defs2">
    <linearGradient
       inkscape:collect="always"
       id="linearGradient3723">
      <stop
         style="stop-color:#369a26;stop-opacity:1"
         offset="0"
         id="stop3719" />
      <stop
         style="stop-color:#3fb12c;stop-opacity:1"
         offset="1"
         id="stop3721" />
    </linearGradient>
    <linearGradient
       inkscape:collect="always"
       id="linearGradient3529">
      <stop
         style="stop-color:#6ed85e;stop-opacity:1"
         offset="0"
         id="stop3525" />
      <stop
         style="stop-color:#41ba2f;stop-opacity:1"
         offset="1"
         id="stop3527" />
    </linearGradient>
    <linearGradient
       inkscape:collect="always"
       xlink:href="#linearGradient3529"
       id="linearGradient3173"
       x1="2.6458333"
       y1="1.0583334"
       x2="14.287499"
       y2="15.875"
       gradientUnits="userSpaceOnUse"
       gradientTransform="scale(3.7795275)" />
    <linearGradient
       inkscape:collect="always"
       xlink:href="#linearGradient3723"
       id="linearGradient3725"
       x1="54"
       y1="14"
       x2="44"
       y2="4"
       gradientUnits="userSpaceOnUse"
       gradientTransform="scale(0.26458334)" />
  </defs>
  <path
     id="rect3085"
     style="fill:url(#linearGradient3173);fill-opacity:1;stroke-width:3.99999;stroke-linecap:round;stroke-linejoin:round"
     d="m 14,4 c -2.216,0 -4,1.7839999 -4,4 v 48 c 0,2.216 1.784,4 4,4 h 36 c 2.216,0 4,-1.784 4,-4 V 26 c 0.0061,-2.482935 -0.258806,-3.258806 -2.000001,-5 l -15.05,-15.0000001 C 35.488846,4.6158077 34.698996,4 32.449999,4 Z"
     sodipodi:nodetypes="ssssssccccs"
     transform="scale(0.26458334)" />
  <path
     id="rect2140"
     style="fill:url(#linearGradient3725);fill-opacity:1;stroke-width:1.05833;stroke-linecap:round;stroke-linejoin:round"
     d="m 10.451042,1.4552083 3.439583,3.4395835 c 0.114148,0.1183186 0.39618,0.028516 0.396875,-0.2645834 V 2.1166667 c 0,-0.5863167 -0.472016,-1.0583333 -1.058333,-1.0583333 h -2.513542 c -0.273132,0.00156 -0.375055,0.2799957 -0.264583,0.3968749 z"
     sodipodi:nodetypes="cccsscc" />
  <path
     id="rect1255"
     style="fill:#fafafa;stroke-width:1.05833;stroke-linecap:round;stroke-linejoin:round;fill-opacity:1"
     d="m 3.96875,1.8520833 h 4.4979167 c 0.4001196,-0.00473 0.6631022,0.1263617 0.9260417,0.3968751 l 3.7041666,3.7041667 c 0.237403,0.2720848 0.396875,0.4653507 0.396875,0.9260417 v 7.6729172 c 0,0.293158 -0.236008,0.529166 -0.529167,0.529166 H 3.96875 c -0.2931584,0 -0.5291667,-0.236008 -0.5291667,-0.529166 V 2.38125 c 0,-0.2931583 0.2360083,-0.5291667 0.5291667,-0.5291667 z"
     sodipodi:nodetypes="sccccssssss" />
  <path
     id="rect67109"
     style="fill:#39a128;stroke-width:1.05833;stroke-linecap:round;stroke-linejoin:round;fill-opacity:1"
     d="m 5.8208334,7.4083333 h 5.2916656 c 0.293159,0 0.529167,0.2360083 0.529167,0.5291667 v 4.233333 c 0,0.293158 -0.236008,0.529167 -0.529167,0.529167 H 5.8208334 C 5.527675,12.7 5.2916667,12.463991 5.2916667,12.170833 V 7.9375 c 0,-0.2931584 0.2360083,-0.5291667 0.5291667,-0.5291667 z"
     sodipodi:nodetypes="sssssssss" />
  <path
     id="rect67897"
     style="fill:#6ed85e;fill-opacity:1;stroke-width:1.05833;stroke-linecap:round;stroke-linejoin:round"
     d="m 11.641666,8.7312498 v -0.79375 c 0,-0.293158 -0.236008,-0.529166 -0.529167,-0.529166 H 5.8208334 c -0.2931584,0 -0.5291667,0.236008 -0.5291667,0.529166 v 0.79375 z"
     sodipodi:nodetypes="csssscc" />
  <path
     id="rect68390"
     style="fill:#369a26;fill-opacity:1;stroke-width:0.9969;stroke-linecap:round;stroke-linejoin:round"
     d="m 5.2916668,11.377084 v 0.79375 c 0,0.293158 0.2360083,0.529166 0.5291667,0.529166 H 11.1125 c 0.293159,0 0.366552,-0.285244 0.529167,-0.529166 v -0.79375 z"
     sodipodi:nodetypes="csssscc" />
  <path
     id="rect71991"
     style="fill:#3fb12c;stroke-width:1.05833;stroke-linecap:round;stroke-linejoin:round;fill-opacity:1"
     d="M 5.2916667,8.7312498 H 11.641666 V 10.054167 H 5.2916667 Z"
     sodipodi:nodetypes="ccccc" />
  <rect
     style="fill:#41ba2f;fill-opacity:1;stroke-width:0.401047;stroke-linecap:round;stroke-linejoin:round"
     id="rect76988"
     width="2.1166668"
     height="1.3229166"
     x="5.291667"
     y="10.054167" />
  <rect
     style="fill:#41ba2f;fill-opacity:1;stroke-width:1.05833;stroke-linecap:round;stroke-linejoin:round"
     id="rect78678"
     width="2.1166668"
     height="1.322917"
     x="7.4083328"
     y="8.7312498" />
  <rect
     style="fill:#41ba2f;fill-opacity:1;stroke-width:1.05833;stroke-linecap:round;stroke-linejoin:round"
     id="rect78782"
     width="2.1166675"
     height="1.3229172"
     x="9.5250006"
     y="10.054167" />
  <rect
     style="fill:#40b52d;fill-opacity:1;stroke-width:1.05833;stroke-linecap:round;stroke-linejoin:round"
     id="rect78784"
     width="2.1166658"
     height="1.322917"
     x="7.4083352"
     y="11.377084" />
  <path
     id="rect84235"
     style="fill:#47c931;fill-opacity:1;stroke-width:3.99999;stroke-linecap:round;stroke-linejoin:round"
     d="M 20 43 L 20 46 C 20 47.107999 20.892 48 22 48 L 28 48 L 28 43 L 20 43 z "
     transform="scale(0.26458334)" />
  <rect
     style="fill:#47c931;fill-opacity:1;stroke-width:1.05833;stroke-linecap:round;stroke-linejoin:round"
     id="rect85339"
     width="2.1166654"
     height="1.322917"
     x="9.5250006"
     y="8.7312498" />
</svg>
