<?xml version="1.0" encoding="UTF-8" standalone="no"?>
<!-- Created with Inkscape (http://www.inkscape.org/) -->

<svg
   width="64"
   height="64"
   viewBox="0 0 16.933333 16.933334"
   version="1.1"
   id="svg5"
   inkscape:version="1.1.1 (3bf5ae0d25, 2021-09-20, custom)"
   sodipodi:docname="libreoffice-draw.svg"
   xmlns:inkscape="http://www.inkscape.org/namespaces/inkscape"
   xmlns:sodipodi="http://sodipodi.sourceforge.net/DTD/sodipodi-0.dtd"
   xmlns:xlink="http://www.w3.org/1999/xlink"
   xmlns="http://www.w3.org/2000/svg"
   xmlns:svg="http://www.w3.org/2000/svg">
  <sodipodi:namedview
     id="namedview7"
     pagecolor="#ffffff"
     bordercolor="#666666"
     borderopacity="1.0"
     inkscape:pageshadow="2"
     inkscape:pageopacity="0.0"
     inkscape:pagecheckerboard="0"
     inkscape:document-units="px"
     showgrid="false"
     units="px"
     height="64px"
     showguides="true"
     inkscape:zoom="6.9017856"
     inkscape:cx="21.443726"
     inkscape:cy="19.922381"
     inkscape:window-width="1920"
     inkscape:window-height="996"
     inkscape:window-x="0"
     inkscape:window-y="0"
     inkscape:window-maximized="1"
     inkscape:current-layer="svg5" />
  <defs
     id="defs2">
    <linearGradient
       inkscape:collect="always"
       id="linearGradient3723">
      <stop
         style="stop-color:#e37a00;stop-opacity:1"
         offset="0"
         id="stop3719" />
      <stop
         style="stop-color:#ff9316;stop-opacity:1"
         offset="1"
         id="stop3721" />
    </linearGradient>
    <linearGradient
       inkscape:collect="always"
       id="linearGradient3529">
      <stop
         style="stop-color:#f6be00;stop-opacity:1"
         offset="0"
         id="stop3525" />
      <stop
         style="stop-color:#ff9c0a;stop-opacity:1"
         offset="1"
         id="stop3527" />
    </linearGradient>
    <linearGradient
       inkscape:collect="always"
       xlink:href="#linearGradient3529"
       id="linearGradient3173"
       x1="2.6458333"
       y1="1.0583334"
       x2="14.287499"
       y2="15.875"
       gradientUnits="userSpaceOnUse"
       gradientTransform="scale(3.7795275)" />
    <linearGradient
       inkscape:collect="always"
       xlink:href="#linearGradient3723"
       id="linearGradient3725"
       x1="54"
       y1="14"
       x2="44"
       y2="4"
       gradientUnits="userSpaceOnUse"
       gradientTransform="scale(0.26458334)" />
  </defs>
  <path
     id="rect3085"
     style="fill:url(#linearGradient3173);fill-opacity:1;stroke-width:3.99999;stroke-linecap:round;stroke-linejoin:round"
     d="m 14,4 c -2.216,0 -4,1.7839999 -4,4 v 48 c 0,2.216 1.784,4 4,4 h 36 c 2.216,0 4,-1.784 4,-4 V 26 c 0.0061,-2.482935 -0.258806,-3.258806 -2.000001,-5 l -15.05,-15.0000001 C 35.488846,4.6158077 34.698996,4 32.449999,4 Z"
     sodipodi:nodetypes="ssssssccccs"
     transform="scale(0.26458334)" />
  <path
     id="rect2140"
     style="fill:url(#linearGradient3725);fill-opacity:1;stroke-width:1.05833;stroke-linecap:round;stroke-linejoin:round"
     d="m 10.451042,1.4552083 3.439583,3.4395835 c 0.114148,0.1183186 0.39618,0.028516 0.396875,-0.2645834 V 2.1166667 c 0,-0.5863167 -0.472016,-1.0583333 -1.058333,-1.0583333 h -2.513542 c -0.273132,0.00156 -0.375055,0.2799957 -0.264583,0.3968749 z"
     sodipodi:nodetypes="cccsscc" />
  <path
     id="rect1255"
     style="fill:#fafafa;stroke-width:1.05833;stroke-linecap:round;stroke-linejoin:round;fill-opacity:1"
     d="m 3.96875,1.8520833 h 4.4979167 c 0.4001196,-0.00473 0.6631022,0.1263617 0.9260417,0.3968751 l 3.7041666,3.7041667 c 0.237403,0.2720848 0.396875,0.4653507 0.396875,0.9260417 v 7.6729172 c 0,0.293158 -0.236008,0.529166 -0.529167,0.529166 H 3.96875 c -0.2931584,0 -0.5291667,-0.236008 -0.5291667,-0.529166 V 2.38125 c 0,-0.2931583 0.2360083,-0.5291667 0.5291667,-0.5291667 z"
     sodipodi:nodetypes="sccccssssss" />
  <circle
     style="fill:#f6be00;fill-opacity:1;stroke-width:0.446484;stroke-linecap:round;stroke-linejoin:round"
     id="path12373"
     cx="7.1437497"
     cy="8.9958334"
     r="2.3812497" />
  <path
     id="rect14425"
     style="fill:#ff9c0a;fill-opacity:1;stroke-width:0.529165;stroke-linecap:round;stroke-linejoin:round"
     d="m 8.5989576,7.6729167 h 3.1750004 c 0.219868,0 0.396875,0.1770063 0.396875,0.396875 v 3.1750003 c 0,0.219868 -0.177007,0.396875 -0.396875,0.396875 H 8.5989576 c -0.2198686,0 -0.3968749,-0.177007 -0.3968749,-0.396875 V 8.0697917 c 0,-0.2198687 0.1770063,-0.396875 0.3968749,-0.396875 z" />
  <path
     id="path14298"
     style="color:#000000;fill:#e37a00;fill-opacity:1;stroke:none;stroke-width:0.529105;stroke-linecap:round;stroke-linejoin:round;-inkscape-stroke:none"
     d="M 8.3343746,8.4666673 A 0.26454863,0.26460973 0 0 0 8.1039509,8.6002508 L 5.8555125,12.569 a 0.26454863,0.26460973 0 0 0 0.2304236,0.395583 H 10.583071 A 0.26454863,0.26460973 0 0 0 10.813236,12.569 L 8.5647983,8.6002508 A 0.26454863,0.26460973 0 0 0 8.3343746,8.4666673 Z" />
</svg>
