<?xml version="1.0" encoding="UTF-8" standalone="no"?>
<!-- Created with Inkscape (http://www.inkscape.org/) -->

<svg
   width="64"
   height="64"
   viewBox="0 0 16.933333 16.933334"
   version="1.1"
   id="svg5"
   inkscape:version="1.1.1 (3bf5ae0d25, 2021-09-20, custom)"
   sodipodi:docname="libreoffice-oasis-web.svg"
   xmlns:inkscape="http://www.inkscape.org/namespaces/inkscape"
   xmlns:sodipodi="http://sodipodi.sourceforge.net/DTD/sodipodi-0.dtd"
   xmlns:xlink="http://www.w3.org/1999/xlink"
   xmlns="http://www.w3.org/2000/svg"
   xmlns:svg="http://www.w3.org/2000/svg">
  <sodipodi:namedview
     id="namedview7"
     pagecolor="#ffffff"
     bordercolor="#666666"
     borderopacity="1.0"
     inkscape:pageshadow="2"
     inkscape:pageopacity="0.0"
     inkscape:pagecheckerboard="0"
     inkscape:document-units="px"
     showgrid="false"
     units="px"
     height="64px"
     showguides="true"
     inkscape:zoom="13.803571"
     inkscape:cx="26.514878"
     inkscape:cy="39.808539"
     inkscape:window-width="1920"
     inkscape:window-height="996"
     inkscape:window-x="0"
     inkscape:window-y="0"
     inkscape:window-maximized="1"
     inkscape:current-layer="svg5" />
  <defs
     id="defs2">
    <linearGradient
       inkscape:collect="always"
       id="linearGradient1381">
      <stop
         style="stop-color:#666666;stop-opacity:1;"
         offset="0"
         id="stop1377" />
      <stop
         style="stop-color:#808080;stop-opacity:1"
         offset="1"
         id="stop1379" />
    </linearGradient>
    <linearGradient
       inkscape:collect="always"
       id="linearGradient3723">
      <stop
         style="stop-color:#404040;stop-opacity:1"
         offset="0"
         id="stop3719" />
      <stop
         style="stop-color:#595959;stop-opacity:1"
         offset="1"
         id="stop3721" />
    </linearGradient>
    <linearGradient
       inkscape:collect="always"
       id="linearGradient3529">
      <stop
         style="stop-color:#848484;stop-opacity:1"
         offset="0"
         id="stop3525" />
      <stop
         style="stop-color:#616161;stop-opacity:1"
         offset="1"
         id="stop3527" />
    </linearGradient>
    <linearGradient
       inkscape:collect="always"
       xlink:href="#linearGradient3529"
       id="linearGradient3173"
       x1="2.6458333"
       y1="1.0583334"
       x2="14.287499"
       y2="15.875"
       gradientUnits="userSpaceOnUse"
       gradientTransform="scale(3.7795275)" />
    <linearGradient
       inkscape:collect="always"
       xlink:href="#linearGradient3723"
       id="linearGradient3725"
       x1="54"
       y1="14"
       x2="44"
       y2="4"
       gradientUnits="userSpaceOnUse"
       gradientTransform="scale(0.26458334)" />
    <linearGradient
       inkscape:collect="always"
       xlink:href="#linearGradient1381"
       id="linearGradient1383"
       x1="44"
       y1="50"
       x2="20"
       y2="26"
       gradientUnits="userSpaceOnUse" />
  </defs>
  <path
     id="rect3085"
     style="fill:url(#linearGradient3173);fill-opacity:1;stroke-width:3.99999;stroke-linecap:round;stroke-linejoin:round"
     d="m 14,4 c -2.216,0 -4,1.7839999 -4,4 v 48 c 0,2.216 1.784,4 4,4 h 36 c 2.216,0 4,-1.784 4,-4 V 26 c 0.0061,-2.482935 -0.258806,-3.258806 -2.000001,-5 l -15,-15.0000001 C 35.538846,4.6158077 34.748996,4 32.499999,4 Z"
     transform="scale(0.26458334)"
     sodipodi:nodetypes="ssssssccccs" />
  <path
     id="rect2140"
     style="fill:url(#linearGradient3725);fill-opacity:1;stroke-width:1.05833;stroke-linecap:round;stroke-linejoin:round"
     d="m 10.451042,1.4552083 3.439583,3.4395835 c 0.114148,0.1183186 0.39618,0.028516 0.396875,-0.2645834 V 2.1166667 c 0,-0.5863167 -0.472016,-1.0583333 -1.058333,-1.0583333 h -2.513542 c -0.273132,0.00156 -0.375055,0.2799957 -0.264583,0.3968749 z"
     sodipodi:nodetypes="cccsscc" />
  <path
     id="rect1255"
     style="fill:#fafafa;fill-opacity:1;stroke-width:1.05833;stroke-linecap:round;stroke-linejoin:round"
     d="m 3.9687501,1.8522069 h 4.4979164 c 0.40012,-0.00473 0.663103,0.1263617 0.926042,0.3968751 l 3.7041665,3.7041667 c 0.237403,0.2720848 0.396875,0.4653507 0.396875,0.9260417 v 7.6729166 c 0,0.293158 -0.236008,0.529166 -0.529167,0.529166 H 3.9687501 c -0.2931584,0 -0.5291667,-0.236008 -0.5291667,-0.529166 V 2.3813736 c 0,-0.2931583 0.2360083,-0.5291667 0.5291667,-0.5291667 z"
     sodipodi:nodetypes="sccccssssss" />
  <path
     id="path853"
     style="fill:url(#linearGradient1383);stroke-width:4.36362;stroke-linecap:round;stroke-linejoin:round;fill-opacity:1"
     d="M 32 26 A 12 12 0 0 0 31.263672 26.027344 C 29.814707 26.331781 28.573337 29.385425 27.943359 33 L 36.056641 33 C 35.421844 29.357774 34.166364 26.2857 32.703125 26.021484 A 12 12 0 0 0 32 26 z M 34.507812 26.265625 C 35.620451 27.701606 36.523117 30.208031 37.035156 33 L 42.908203 33 A 12 12 0 0 0 34.507812 26.265625 z M 29.486328 26.271484 A 12 12 0 0 0 21.097656 33 L 26.964844 33 C 27.476097 30.212316 28.376048 27.708562 29.486328 26.271484 z M 20.695312 34 A 12 12 0 0 0 20 38 A 12 12 0 0 0 20.523438 41.5 L 26.730469 41.5 C 26.580686 40.337988 26.5 39.153978 26.5 38 C 26.5 36.680144 26.605101 35.320347 26.798828 34 L 20.695312 34 z M 27.785156 34 C 27.601213 35.320831 27.5 36.6872 27.5 38 C 27.5 39.147826 27.578315 40.336446 27.720703 41.5 L 36.279297 41.5 C 36.421685 40.336446 36.5 39.147826 36.5 38 C 36.5 36.6872 36.398787 35.320831 36.214844 34 L 27.785156 34 z M 37.201172 34 C 37.394899 35.320347 37.5 36.680144 37.5 38 C 37.5 39.153978 37.419314 40.337988 37.269531 41.5 L 43.476562 41.5 A 12 12 0 0 0 44 38 A 12 12 0 0 0 43.3125 34 L 37.201172 34 z M 20.880859 42.5 A 12 12 0 0 0 29.488281 49.728516 C 28.310908 48.20649 27.369369 45.487026 26.876953 42.5 L 20.880859 42.5 z M 27.859375 42.5 C 28.458228 46.326324 29.745689 49.650155 31.259766 49.972656 A 12 12 0 0 0 32 50 A 12 12 0 0 0 32.740234 49.972656 C 34.254311 49.650155 35.541772 46.326324 36.140625 42.5 L 27.859375 42.5 z M 37.123047 42.5 C 36.630631 45.487026 35.689092 48.20649 34.511719 49.728516 A 12 12 0 0 0 43.119141 42.5 L 37.123047 42.5 z "
     transform="scale(0.26458334)" />
</svg>
