<?xml version="1.0" encoding="UTF-8" standalone="no"?>
<!-- Created with Inkscape (http://www.inkscape.org/) -->

<svg
   width="64"
   height="64"
   viewBox="0 0 16.933333 16.933334"
   version="1.1"
   id="svg5"
   inkscape:version="1.1.1 (3bf5ae0d25, 2021-09-20, custom)"
   sodipodi:docname="lollypop.svg"
   xmlns:inkscape="http://www.inkscape.org/namespaces/inkscape"
   xmlns:sodipodi="http://sodipodi.sourceforge.net/DTD/sodipodi-0.dtd"
   xmlns:xlink="http://www.w3.org/1999/xlink"
   xmlns="http://www.w3.org/2000/svg"
   xmlns:svg="http://www.w3.org/2000/svg">
  <sodipodi:namedview
     id="namedview7"
     pagecolor="#ffffff"
     bordercolor="#666666"
     borderopacity="1.0"
     inkscape:pageshadow="2"
     inkscape:pageopacity="0.0"
     inkscape:pagecheckerboard="0"
     inkscape:document-units="px"
     showgrid="false"
     units="px"
     height="64px"
     inkscape:zoom="12.883333"
     inkscape:cx="31.979301"
     inkscape:cy="44.437257"
     inkscape:window-width="1920"
     inkscape:window-height="996"
     inkscape:window-x="0"
     inkscape:window-y="0"
     inkscape:window-maximized="1"
     inkscape:current-layer="svg5" />
  <defs
     id="defs2">
    <linearGradient
       inkscape:collect="always"
       id="linearGradient3143">
      <stop
         style="stop-color:#d2d2d2;stop-opacity:1;"
         offset="0"
         id="stop3139" />
      <stop
         style="stop-color:#ffffff;stop-opacity:1"
         offset="1"
         id="stop3141" />
    </linearGradient>
    <linearGradient
       inkscape:collect="always"
       id="linearGradient1130">
      <stop
         style="stop-color:#e23c71;stop-opacity:1"
         offset="0"
         id="stop1126" />
      <stop
         style="stop-color:#fa93bc;stop-opacity:1"
         offset="1"
         id="stop1128" />
    </linearGradient>
    <linearGradient
       inkscape:collect="always"
       xlink:href="#linearGradient1130"
       id="linearGradient1132"
       x1="13.758333"
       y1="13.229166"
       x2="3.7041652"
       y2="3.7041662"
       gradientUnits="userSpaceOnUse" />
    <linearGradient
       inkscape:collect="always"
       xlink:href="#linearGradient1130"
       id="linearGradient4303"
       x1="8.9958334"
       y1="12.832399"
       x2="5.8208337"
       y2="7.0115657"
       gradientUnits="userSpaceOnUse"
       gradientTransform="matrix(0.88888896,0,0,0.87997135,0.97013843,-0.03156817)" />
    <linearGradient
       inkscape:collect="always"
       xlink:href="#linearGradient3143"
       id="linearGradient1040"
       x1="13.758333"
       y1="14.287499"
       x2="2.6458318"
       y2="3.1749995"
       gradientUnits="userSpaceOnUse"
       gradientTransform="scale(3.7795275)" />
  </defs>
  <circle
     style="fill:url(#linearGradient1132);fill-opacity:1;stroke-width:0.529167;stroke-linecap:round;stroke-linejoin:round;stroke-dasharray:6.35, 0.529167"
     id="path846"
     cx="8.4666662"
     cy="8.4666662"
     r="7.9375" />
  <path
     id="path952"
     style="fill:url(#linearGradient1040);fill-opacity:1;stroke-width:3.99999;stroke-linecap:round;stroke-linejoin:round"
     d="M 24.523438 2.9667969 A 30 30 0 0 0 11.40625 10.197266 C 12.817961 14.101054 15.268892 17.646536 18.003906 20.689453 A 17.999999 17.999999 0 0 0 14.023438 31.378906 C 10.059941 30.121108 6.1477558 27.861345 3.1191406 23.957031 A 30 30 0 0 0 2 32 A 30 30 0 0 0 2.8203125 38.933594 C 6.906635 39.663341 11.202419 39.313768 15.205078 38.466797 A 17.999999 17.999999 0 0 0 22.472656 47.257812 C 19.401611 50.061246 15.489128 52.319751 10.59375 52.990234 A 30 30 0 0 0 23.414062 60.736328 C 26.088626 57.562102 27.933389 53.667345 29.201172 49.777344 A 17.999999 17.999999 0 0 0 32 50 A 17.999999 17.999999 0 0 0 40.451172 47.876953 C 41.344076 51.938782 41.344012 56.457521 39.476562 61.033203 A 30 30 0 0 0 52.59375 53.802734 C 51.182039 49.898946 48.731108 46.353464 45.996094 43.310547 A 17.999999 17.999999 0 0 0 49.976562 32.621094 C 53.940059 33.878892 57.852242 36.138655 60.880859 40.042969 A 30 30 0 0 0 62 32 A 30 30 0 0 0 61.1875 25.068359 C 57.099542 24.337025 52.801508 24.685988 48.796875 25.533203 A 17.999999 17.999999 0 0 0 41.535156 16.734375 C 44.609888 13.929912 48.527577 11.673591 53.429688 11.007812 A 30 30 0 0 0 40.589844 3.2578125 C 37.912897 6.4325482 36.067359 10.328947 34.798828 14.220703 A 17.999999 17.999999 0 0 0 32 14 A 17.999999 17.999999 0 0 0 23.548828 16.123047 C 22.655924 12.061218 22.655988 7.5424791 24.523438 2.9667969 z "
     transform="scale(0.26458334)" />
  <path
     style="color:#000000;fill:url(#linearGradient4303);fill-opacity:1;stroke-width:0.88449;stroke-linecap:round;stroke-linejoin:round;-inkscape-stroke:none"
     d="M 6.807307,5.5942336 C 6.689099,5.6538267 6.614643,5.7740193 6.6145834,5.9053414 v 5.1221096 c 2.4e-4,0.28559 0.3277591,0.450216 0.560808,0.281887 L 10.703444,8.7482834 c 0.19263,-0.1395467 0.19263,-0.424228 0,-0.5637756 L 7.1753914,5.6234536 C 7.0680492,5.5458586 6.9257674,5.5345639 6.807307,5.5942336 Z"
     id="path3173"
     sodipodi:nodetypes="cccccccc" />
</svg>
