<?xml version="1.0" encoding="UTF-8" standalone="no"?>
<svg
   version="1.1"
   id="Layer_1"
   width="64"
   height="64"
   viewBox="0 0 64 64"
   sodipodi:docname="microsoft-edge-beta.svg"
   inkscape:version="1.1.2 (0a00cf5339, 2022-02-04)"
   xmlns:inkscape="http://www.inkscape.org/namespaces/inkscape"
   xmlns:sodipodi="http://sodipodi.sourceforge.net/DTD/sodipodi-0.dtd"
   xmlns="http://www.w3.org/2000/svg"
   xmlns:svg="http://www.w3.org/2000/svg"
   xmlns:rdf="http://www.w3.org/1999/02/22-rdf-syntax-ns#"
   xmlns:cc="http://creativecommons.org/ns#"
   xmlns:dc="http://purl.org/dc/elements/1.1/">
  <sodipodi:namedview
     id="namedview65"
     pagecolor="#ffffff"
     bordercolor="#666666"
     borderopacity="1.0"
     inkscape:pageshadow="2"
     inkscape:pageopacity="0.0"
     inkscape:pagecheckerboard="0"
     showgrid="false"
     inkscape:zoom="6.1640625"
     inkscape:cx="12.00507"
     inkscape:cy="40.963245"
     inkscape:window-width="1920"
     inkscape:window-height="1011"
     inkscape:window-x="0"
     inkscape:window-y="0"
     inkscape:window-maximized="1"
     inkscape:current-layer="Layer_1" />
  <defs
     id="defs48">
    <style
       id="style2">.cls-1{fill:url(#linear-gradient);}.cls-2{opacity:0.35;fill:url(#radial-gradient);}.cls-2,.cls-4{isolation:isolate;}.cls-3{fill:url(#linear-gradient-2);}.cls-4{opacity:0.41;fill:url(#radial-gradient-2);}.cls-5{fill:url(#radial-gradient-3);}.cls-6{fill:url(#radial-gradient-4);}</style>
    <linearGradient
       id="linear-gradient"
       x1="63.330002"
       y1="84.029999"
       x2="241.67"
       y2="84.029999"
       gradientTransform="matrix(0.22654833,0,0,-0.22654833,1.955612,62.14724)"
       gradientUnits="userSpaceOnUse">
      <stop
         offset="0"
         stop-color="#0c59a4"
         id="stop4" />
      <stop
         offset="1"
         stop-color="#114a8b"
         id="stop6" />
    </linearGradient>
    <radialGradient
       id="radial-gradient"
       cx="161.83"
       cy="68.910004"
       r="95.379997"
       gradientTransform="matrix(0.22654833,0,0,-0.21522092,1.955612,58.25967)"
       gradientUnits="userSpaceOnUse">
      <stop
         offset="0.72"
         stop-opacity="0"
         id="stop9" />
      <stop
         offset="0.95"
         stop-opacity="0.53"
         id="stop11" />
      <stop
         offset="1"
         id="stop13" />
    </radialGradient>
    <linearGradient
       id="linear-gradient-2"
       x1="157.35001"
       y1="161.39"
       x2="45.959999"
       y2="40.060001"
       gradientTransform="matrix(0.22654833,0,0,-0.22654833,1.955612,62.14724)"
       gradientUnits="userSpaceOnUse">
      <stop
         offset="0"
         stop-color="#1b9de2"
         id="stop16" />
      <stop
         offset="0.16"
         stop-color="#1595df"
         id="stop18" />
      <stop
         offset="0.67"
         stop-color="#0680d7"
         id="stop20" />
      <stop
         offset="1"
         stop-color="#0078d4"
         id="stop22" />
    </linearGradient>
    <radialGradient
       id="radial-gradient-2"
       cx="-340.29001"
       cy="62.990002"
       r="143.24001"
       gradientTransform="matrix(0.03398224,-0.22428285,-0.18123868,-0.0271858,41.97311,-26.523779)"
       gradientUnits="userSpaceOnUse">
      <stop
         offset="0.76"
         stop-opacity="0"
         id="stop25" />
      <stop
         offset="0.95"
         stop-opacity="0.5"
         id="stop27" />
      <stop
         offset="1"
         id="stop29" />
    </radialGradient>
    <radialGradient
       id="radial-gradient-3"
       cx="113.37"
       cy="570.21002"
       r="202.42999"
       gradientTransform="matrix(-0.00906193,0.22654833,0.48254797,0.01812387,-265.26723,-22.28506)"
       gradientUnits="userSpaceOnUse">
      <stop
         offset="0"
         stop-color="#35c1f1"
         id="stop32" />
      <stop
         offset="0.11"
         stop-color="#34c1ed"
         id="stop34" />
      <stop
         offset="0.23"
         stop-color="#2fc2df"
         id="stop36" />
      <stop
         offset="0.31"
         stop-color="#2bc3d2"
         id="stop38" />
      <stop
         offset="0.67"
         stop-color="#36c752"
         id="stop40" />
    </radialGradient>
    <radialGradient
       id="radial-gradient-4"
       cx="376.51999"
       cy="567.96997"
       r="97.339996"
       gradientTransform="matrix(0.06343354,0.2174864,0.1767077,-0.05210613,-66.860711,-31.757045)"
       gradientUnits="userSpaceOnUse">
      <stop
         offset="0"
         stop-color="#66eb6e"
         id="stop43" />
      <stop
         offset="1"
         stop-color="#66eb6e"
         stop-opacity="0"
         id="stop45" />
    </radialGradient>
  </defs>
  <title
     id="title50">Edge_Logo_265x265</title>
  <path
     class="cls-1"
     d="m 55.348524,46.166521 a 21.234377,21.234377 0 0 1 -2.387819,1.067044 23.07848,23.07848 0 0 1 -8.133085,1.463502 c -10.720267,0 -20.058589,-7.374149 -20.058589,-16.837072 a 7.1317417,7.1317417 0 0 1 3.722188,-6.187037 c -9.696269,0.407788 -12.1883,10.511843 -12.1883,16.431552 0,16.737392 15.425677,18.434239 18.749141,18.434239 1.791997,0 4.494718,-0.521061 6.116804,-1.033061 l 0.296779,-0.09967 A 29.075214,29.075214 0 0 0 56.553762,47.444261 0.90619337,0.90619337 0 0 0 55.348524,46.166527 Z"
     id="path52"
     style="fill:url(#linear-gradient);stroke-width:0.226548" />
  <path
     class="cls-2"
     d="m 55.348524,46.166521 a 21.234377,21.234377 0 0 1 -2.387819,1.067044 23.07848,23.07848 0 0 1 -8.133085,1.463502 c -10.720267,0 -20.058589,-7.374149 -20.058589,-16.837072 a 7.1317417,7.1317417 0 0 1 3.722188,-6.187037 c -9.696269,0.407788 -12.1883,10.511843 -12.1883,16.431552 0,16.737392 15.425677,18.434239 18.749141,18.434239 1.791997,0 4.494718,-0.521061 6.116804,-1.033061 l 0.296779,-0.09967 A 29.075214,29.075214 0 0 0 56.553762,47.444261 0.90619337,0.90619337 0 0 0 55.348524,46.166527 Z"
     id="path54"
     style="fill:url(#radial-gradient);stroke-width:0.226548" />
  <path
     class="cls-3"
     d="m 26.952956,57.693301 a 17.942629,17.942629 0 0 1 -5.15171,-4.834542 18.286982,18.286982 0 0 1 6.689973,-27.185801 c 0.706831,-0.333026 1.914333,-0.935644 3.520562,-0.906193 a 7.3288389,7.3288389 0 0 1 5.820027,2.94513 7.222361,7.222361 0 0 1 1.440848,4.22739 c 0,-0.04757 5.541371,-18.033246 -18.123867,-18.033246 -9.945474,0 -18.123868,9.438002 -18.123868,17.718346 A 29.485267,29.485267 0 0 0 5.768421,44.311091 28.998187,28.998187 0 0 0 41.19605,59.51475 17.115727,17.115727 0 0 1 26.973346,57.702363 Z"
     id="path56"
     style="fill:url(#linear-gradient-2);stroke-width:0.226548" />
  <path
     class="cls-4"
     d="m 26.952956,57.693301 a 17.942629,17.942629 0 0 1 -5.15171,-4.834542 18.286982,18.286982 0 0 1 6.689973,-27.185801 c 0.706831,-0.333026 1.914333,-0.935644 3.520562,-0.906193 a 7.3288389,7.3288389 0 0 1 5.820027,2.94513 7.222361,7.222361 0 0 1 1.440848,4.22739 c 0,-0.04757 5.541371,-18.033246 -18.123867,-18.033246 -9.945474,0 -18.123868,9.438002 -18.123868,17.718346 A 29.485267,29.485267 0 0 0 5.768421,44.311091 28.998187,28.998187 0 0 0 41.19605,59.51475 17.115727,17.115727 0 0 1 26.973346,57.702363 Z"
     id="path58"
     style="fill:url(#radial-gradient-2);stroke-width:0.226548" />
  <path
     class="cls-5"
     d="m 37.51011,36.723987 c -0.183506,0.237876 -0.747611,0.56637 -0.747611,1.282264 0,0.591291 0.385133,1.159927 1.069309,1.637944 3.257765,2.265483 9.39949,1.966439 9.415348,1.966439 a 13.493219,13.493219 0 0 0 6.857619,-1.891678 13.905537,13.905537 0 0 0 6.893866,-11.979875 c 0.0589,-5.076951 -1.812387,-8.45252 -2.569058,-9.947738 C 53.629023,8.4009141 43.266701,3.0000001 31.998187,3.0000001 A 28.998187,28.998187 0 0 0 3,31.590401 c 0.10875,-8.278076 8.336979,-14.963519 18.123867,-14.963519 0.79292,0 5.314825,0.07702 9.515031,2.281343 3.7018,1.943785 5.641054,4.290826 6.989016,6.617477 1.400069,2.41727 1.649272,5.471143 1.649272,6.687707 0,1.216565 -0.620742,3.019889 -1.767076,4.510578 z"
     id="path60"
     style="fill:url(#radial-gradient-3);stroke-width:0.226548" />
  <path
     class="cls-6"
     d="m 37.51011,36.723987 c -0.183506,0.237876 -0.747611,0.56637 -0.747611,1.282264 0,0.591291 0.385133,1.159927 1.069309,1.637944 3.257765,2.265483 9.39949,1.966439 9.415348,1.966439 a 13.493219,13.493219 0 0 0 6.857619,-1.891678 13.905537,13.905537 0 0 0 6.893866,-11.979875 c 0.0589,-5.076951 -1.812387,-8.45252 -2.569058,-9.947738 C 53.629023,8.4009141 43.266701,3.0000001 31.998187,3.0000001 A 28.998187,28.998187 0 0 0 3,31.590401 c 0.10875,-8.278076 8.336979,-14.963519 18.123867,-14.963519 0.79292,0 5.314825,0.07702 9.515031,2.281343 3.7018,1.943785 5.641054,4.290826 6.989016,6.617477 1.400069,2.41727 1.649272,5.471143 1.649272,6.687707 0,1.216565 -0.620742,3.019889 -1.767076,4.510578 z"
     id="path62"
     style="fill:url(#radial-gradient-4);stroke-width:0.226548" />
  <metadata
     id="metadata882">
    <rdf:RDF>
      <cc:Work
         rdf:about="">
        <dc:title>Edge_Logo_265x265</dc:title>
      </cc:Work>
    </rdf:RDF>
  </metadata>
  <path
     id="rect879"
     style="fill:#50e6ff;fill-opacity:1;stroke-width:2;stroke-linecap:round;stroke-linejoin:round;stroke-dasharray:24, 2"
     d="m 28,45 h 30 c 1.662,0 3,1.338 3,3 v 10 c 0,1.662 -1.338,3 -3,3 H 28 c -1.662,0 -3,-1.338 -3,-3 V 48 c 0,-1.662 1.338,-3 3,-3 z"
     sodipodi:nodetypes="sssssssss" />
  <path
     id="path875"
     style="fill:#000000;fill-opacity:1;stroke-width:0.063023"
     d="m 29.5,48.940204 v 8.473829 h 3.25664 c 0.961103,0 1.71961,-0.225146 2.275,-0.678126 0.555393,-0.456919 0.831251,-1.0752 0.831251,-1.85117 0,-0.531759 -0.181758,-0.983255 -0.544142,-1.353516 -0.358443,-0.370258 -0.838356,-0.592345 -1.441016,-0.667188 v -0.02188 c 0.480552,-0.133925 0.874014,-0.373719 1.181251,-0.716405 0.311177,-0.34269 0.467577,-0.743473 0.467577,-1.200392 0,-0.630231 -0.254765,-1.116263 -0.76289,-1.46289 C 34.255548,49.115838 33.529723,48.9402 32.584374,48.9402 Z m 7.757422,0 v 8.473829 h 5.080469 v -1.547657 h -3.171876 v -1.938673 h 2.772655 v -1.547655 h -2.772655 v -1.883985 h 2.977734 v -1.555858 z m 5.761327,0 v 1.555859 h 2.403516 v 6.91797 h 1.914063 v -6.91797 h 2.417187 v -1.555859 z m 9.203908,0 -3.081641,8.473829 h 2.067187 l 0.596094,-1.883985 h 3.013281 l 0.601563,1.883985 H 57.5 l -3.013281,-8.473829 z m -20.814064,1.408203 h 0.713672 c 0.929592,0 1.394532,0.310068 1.394532,0.932422 0,0.33481 -0.113341,0.599961 -0.341797,0.792968 -0.224521,0.18907 -0.533059,0.281641 -0.926953,0.281641 h -0.839454 z m 21.872267,0.106641 h 0.04922 c 0.02758,0.295422 0.0725,0.547452 0.139454,0.760155 l 0.910546,2.849219 h -2.168358 l 0.921484,-2.871094 c 0.07878,-0.244214 0.12796,-0.490127 0.147656,-0.73828 z m -21.872267,3.31953 h 1.044532 c 0.44116,0 0.78391,0.09683 1.028125,0.289844 0.248153,0.193009 0.37461,0.459691 0.37461,0.798438 0,0.354505 -0.127989,0.631892 -0.380079,0.836719 -0.248153,0.204824 -0.592432,0.308984 -1.033594,0.308984 h -1.033594 z" />
</svg>
