<?xml version="1.0" encoding="UTF-8" standalone="no"?>
<!-- Created with Inkscape (http://www.inkscape.org/) -->

<svg
   width="64"
   height="64"
   viewBox="0 0 16.933333 16.933334"
   version="1.1"
   id="svg5"
   inkscape:version="1.1.1 (3bf5ae0d25, 2021-09-20, custom)"
   sodipodi:docname="mintwelcome.svg"
   xmlns:inkscape="http://www.inkscape.org/namespaces/inkscape"
   xmlns:sodipodi="http://sodipodi.sourceforge.net/DTD/sodipodi-0.dtd"
   xmlns:xlink="http://www.w3.org/1999/xlink"
   xmlns="http://www.w3.org/2000/svg"
   xmlns:svg="http://www.w3.org/2000/svg">
  <sodipodi:namedview
     id="namedview7"
     pagecolor="#ffffff"
     bordercolor="#666666"
     borderopacity="1.0"
     inkscape:pageshadow="2"
     inkscape:pageopacity="0.0"
     inkscape:pagecheckerboard="0"
     inkscape:document-units="px"
     showgrid="false"
     units="px"
     height="64px"
     inkscape:zoom="4.6845824"
     inkscape:cx="8.2184487"
     inkscape:cy="22.307218"
     inkscape:window-width="1920"
     inkscape:window-height="1009"
     inkscape:window-x="0"
     inkscape:window-y="0"
     inkscape:window-maximized="1"
     inkscape:current-layer="svg5" />
  <defs
     id="defs2">
    <linearGradient
       inkscape:collect="always"
       id="linearGradient3175">
      <stop
         style="stop-color:#339d4e;stop-opacity:1;"
         offset="0"
         id="stop3171" />
      <stop
         style="stop-color:#6cbe64;stop-opacity:1"
         offset="1"
         id="stop3173" />
    </linearGradient>
    <linearGradient
       inkscape:collect="always"
       id="linearGradient1014">
      <stop
         style="stop-color:#77d36f;stop-opacity:1"
         offset="0"
         id="stop1010" />
      <stop
         style="stop-color:#2fb967;stop-opacity:1"
         offset="1"
         id="stop1012" />
    </linearGradient>
    <linearGradient
       inkscape:collect="always"
       xlink:href="#linearGradient1014"
       id="linearGradient3245"
       x1="18"
       y1="56"
       x2="18"
       y2="14.000001"
       gradientUnits="userSpaceOnUse"
       gradientTransform="matrix(0,0.26458334,0.26458334,0,-5.0000003e-8,7.9999999e-8)" />
    <linearGradient
       inkscape:collect="always"
       xlink:href="#linearGradient1392"
       id="linearGradient1016"
       x1="2.3812497"
       y1="4.2333331"
       x2="13.493751"
       y2="14.287499"
       gradientUnits="userSpaceOnUse"
       gradientTransform="matrix(1.0344827,0,0,1.0344827,-0.29195466,-0.29195394)" />
    <linearGradient
       inkscape:collect="always"
       id="linearGradient1392">
      <stop
         style="stop-color:#24d688;stop-opacity:1"
         offset="0"
         id="stop1388" />
      <stop
         style="stop-color:#69b74f;stop-opacity:1"
         offset="1"
         id="stop1390" />
    </linearGradient>
    <linearGradient
       inkscape:collect="always"
       xlink:href="#linearGradient3175"
       id="linearGradient3177"
       x1="12.170832"
       y1="16.404167"
       x2="12.170832"
       y2="0.52916676"
       gradientUnits="userSpaceOnUse" />
  </defs>
  <ellipse
     style="fill:url(#linearGradient1016);fill-opacity:1;stroke-width:3.09477;stroke-linecap:round;stroke-linejoin:round;stroke-dasharray:37.1371, 3.09477"
     id="path850"
     cx="8.4666662"
     cy="8.4666662"
     rx="7.9375"
     ry="7.9374995" />
  <path
     id="rect3063"
     style="opacity:1;fill:url(#linearGradient3245);fill-opacity:1;stroke:none;stroke-width:1.05833;stroke-linecap:round;stroke-linejoin:round;stroke-miterlimit:4;stroke-dasharray:none;stroke-opacity:1"
     d="M 8.4666671,0.52916678 A 7.9375002,7.9375002 0 0 1 16.404167,8.4666669 H 8.4666671 Z" />
  <path
     id="rect843"
     style="fill:url(#linearGradient3177);fill-opacity:1;stroke-width:1.41111;stroke-linecap:round;stroke-linejoin:round"
     d="M 8.4666671,0.52916672 A 7.9375002,7.9375002 0 0 0 0.5291674,8.4666669 h 7.9374997 z m 0,7.93750018 V 16.404167 A 7.9375002,7.9375002 0 0 0 16.404167,8.4666669 Z" />
  <path
     id="rect66594"
     style="fill:#ffffff;fill-opacity:1;stroke-width:3.74163;stroke-linecap:round;stroke-linejoin:round"
     d="m 16,16 v 23 c 0,4.970563 4.029437,9 9,9 h 16 c 4.970563,0 9,-4.029437 9,-9 V 28 c 0,-3.865993 -3.134008,-6.999999 -7,-7 -0.0302,0 -0.05973,-3.81e-4 -0.08984,0 C 40.986598,21.024365 39.251209,21.825826 38,23.103516 36.683794,21.758826 34.881645,21.000657 33,21 c -3.865993,-1e-6 -7,3.134006 -7,7 v 11 h 4 V 34.322266 28 c 0,-1.656854 1.343146,-3 3,-3 1.656854,0 3,1.343146 3,3 V 34.322266 39 h 4 V 28 c 0,-1.656854 1.343146,-3 3,-3 1.656854,0 3,1.343146 3,3 v 11 c 0,2.761424 -2.238576,5 -5,5 H 25 c -2.761424,0 -5,-2.238576 -5,-5 V 16 Z"
     transform="scale(0.26458334)"
     sodipodi:nodetypes="csssssscccscccssscccssssssscc" />
</svg>
