<?xml version="1.0" encoding="UTF-8" standalone="no"?>
<svg
   width="64"
   height="64"
   version="1.1"
   viewBox="0 0 16.933 16.933"
   id="svg6"
   sodipodi:docname="mintbackup.svg"
   inkscape:version="1.1.1 (3bf5ae0d25, 2021-09-20, custom)"
   xmlns:inkscape="http://www.inkscape.org/namespaces/inkscape"
   xmlns:sodipodi="http://sodipodi.sourceforge.net/DTD/sodipodi-0.dtd"
   xmlns:xlink="http://www.w3.org/1999/xlink"
   xmlns="http://www.w3.org/2000/svg"
   xmlns:svg="http://www.w3.org/2000/svg"
   xmlns:rdf="http://www.w3.org/1999/02/22-rdf-syntax-ns#"
   xmlns:cc="http://creativecommons.org/ns#"
   xmlns:dc="http://purl.org/dc/elements/1.1/">
  <defs
     id="defs10">
    <linearGradient
       inkscape:collect="always"
       id="linearGradient58462">
      <stop
         style="stop-color:#636363;stop-opacity:1;"
         offset="0"
         id="stop58458" />
      <stop
         style="stop-color:#ababab;stop-opacity:0.99607843"
         offset="1"
         id="stop58460" />
    </linearGradient>
    <linearGradient
       inkscape:collect="always"
       id="linearGradient50927">
      <stop
         style="stop-color:#000000;stop-opacity:1;"
         offset="0"
         id="stop50923" />
      <stop
         style="stop-color:#000000;stop-opacity:0;"
         offset="1"
         id="stop50925" />
    </linearGradient>
    <linearGradient
       inkscape:collect="always"
       id="linearGradient50337">
      <stop
         style="stop-color:#ffffff;stop-opacity:1;"
         offset="0"
         id="stop50333" />
      <stop
         style="stop-color:#ffffff;stop-opacity:0;"
         offset="1"
         id="stop50335" />
    </linearGradient>
    <linearGradient
       inkscape:collect="always"
       id="linearGradient48004">
      <stop
         style="stop-color:#ffffff;stop-opacity:0"
         offset="0"
         id="stop48000" />
      <stop
         style="stop-color:#ffffff;stop-opacity:1"
         offset="0.50032598"
         id="stop48328" />
      <stop
         style="stop-color:#ffffff;stop-opacity:0;"
         offset="1"
         id="stop48002" />
    </linearGradient>
    <linearGradient
       inkscape:collect="always"
       id="linearGradient10484">
      <stop
         style="stop-color:#2e2e2e;stop-opacity:1;"
         offset="0"
         id="stop10480" />
      <stop
         style="stop-color:#616161;stop-opacity:1"
         offset="1"
         id="stop10482" />
    </linearGradient>
    <linearGradient
       inkscape:collect="always"
       xlink:href="#linearGradient10484"
       id="linearGradient10486"
       x1="5.2163401"
       y1="13.009703"
       x2="5.2163401"
       y2="16.921772"
       gradientUnits="userSpaceOnUse"
       gradientTransform="matrix(3.7714721,0,0,3.8342871,12.382634,-18.882933)" />
    <filter
       inkscape:collect="always"
       style="color-interpolation-filters:sRGB"
       id="filter30531"
       x="-0.26406024"
       y="-0.26406024"
       width="1.5281205"
       height="1.5281205">
      <feGaussianBlur
         inkscape:collect="always"
         stdDeviation="0.14555117"
         id="feGaussianBlur30533" />
    </filter>
    <linearGradient
       inkscape:collect="always"
       xlink:href="#linearGradient48004"
       id="linearGradient48006"
       x1="0.54178363"
       y1="10.597012"
       x2="3.0651259"
       y2="13.265047"
       gradientUnits="userSpaceOnUse" />
    <radialGradient
       inkscape:collect="always"
       xlink:href="#linearGradient50337"
       id="radialGradient50339"
       cx="3.5557096"
       cy="10.338881"
       fx="3.5557096"
       fy="10.338881"
       r="0.66144532"
       gradientUnits="userSpaceOnUse" />
    <linearGradient
       inkscape:collect="always"
       xlink:href="#linearGradient50927"
       id="linearGradient50929"
       x1="0.81698829"
       y1="6.6935077"
       x2="2.7050784"
       y2="7.9747996"
       gradientUnits="userSpaceOnUse" />
    <linearGradient
       inkscape:collect="always"
       xlink:href="#linearGradient50927"
       id="linearGradient51339"
       gradientUnits="userSpaceOnUse"
       x1="0.81698829"
       y1="6.6935077"
       x2="2.7050784"
       y2="7.9747996"
       gradientTransform="matrix(-1,0,0,1,16.933,0)" />
    <linearGradient
       inkscape:collect="always"
       xlink:href="#linearGradient58462"
       id="linearGradient58464"
       x1="9.5248117"
       y1="8.3342104"
       x2="9.5248108"
       y2="12.56746"
       gradientUnits="userSpaceOnUse" />
    <linearGradient
       inkscape:collect="always"
       xlink:href="#linearGradient48004"
       id="linearGradient71108"
       gradientUnits="userSpaceOnUse"
       x1="0.54178363"
       y1="10.597012"
       x2="3.0651259"
       y2="13.265047"
       gradientTransform="matrix(-1,0,0,1,16.932998,0)" />
    <linearGradient
       inkscape:collect="always"
       xlink:href="#linearGradient1611"
       id="linearGradient945"
       x1="8.4666672"
       y1="4.2529297e-07"
       x2="8.4666672"
       y2="16.933334"
       gradientUnits="userSpaceOnUse"
       gradientTransform="matrix(0.43749135,0,0,0.43749135,9.5248139,1.8520465)" />
    <linearGradient
       inkscape:collect="always"
       id="linearGradient1611">
      <stop
         style="stop-color:#9ca3a8;stop-opacity:1;"
         offset="0"
         id="stop1607" />
      <stop
         style="stop-color:#63737d;stop-opacity:1"
         offset="1"
         id="stop1609" />
    </linearGradient>
    <linearGradient
       inkscape:collect="always"
       xlink:href="#linearGradient3161"
       id="linearGradient3163"
       x1="8.4666662"
       y1="15.345833"
       x2="8.4666662"
       y2="1.5874995"
       gradientUnits="userSpaceOnUse"
       gradientTransform="matrix(0.46152935,0,0,0.46152935,9.321292,1.648525)" />
    <linearGradient
       inkscape:collect="always"
       id="linearGradient3161">
      <stop
         style="stop-color:#c7ccd1;stop-opacity:1;"
         offset="0"
         id="stop3157" />
      <stop
         style="stop-color:#fdfdfd;stop-opacity:1"
         offset="1"
         id="stop3159" />
    </linearGradient>
    <linearGradient
       inkscape:collect="always"
       xlink:href="#linearGradient1392"
       id="linearGradient2192"
       x1="35"
       y1="8.5039082"
       x2="54.007812"
       y2="36.50391"
       gradientUnits="userSpaceOnUse" />
    <linearGradient
       inkscape:collect="always"
       id="linearGradient1392">
      <stop
         style="stop-color:#24d688;stop-opacity:1"
         offset="0"
         id="stop1388" />
      <stop
         style="stop-color:#69b74f;stop-opacity:1"
         offset="1"
         id="stop1390" />
    </linearGradient>
  </defs>
  <sodipodi:namedview
     id="namedview8"
     pagecolor="#ffffff"
     bordercolor="#666666"
     borderopacity="1.0"
     inkscape:pageshadow="2"
     inkscape:pageopacity="0.0"
     inkscape:pagecheckerboard="0"
     showgrid="false"
     inkscape:zoom="8"
     inkscape:cx="28.6875"
     inkscape:cy="37.125"
     inkscape:window-width="1920"
     inkscape:window-height="1006"
     inkscape:window-x="0"
     inkscape:window-y="0"
     inkscape:window-maximized="1"
     inkscape:current-layer="svg6" />
  <metadata
     id="metadata2">
    <rdf:RDF>
      <cc:Work
         rdf:about="">
        <dc:format>image/svg+xml</dc:format>
        <dc:type
           rdf:resource="http://purl.org/dc/dcmitype/StillImage" />
      </cc:Work>
    </rdf:RDF>
  </metadata>
  <path
     id="rect31485"
     style="opacity:1;fill:#e1e3e6;fill-opacity:1;stroke-width:2;stroke-linecap:round;stroke-linejoin:round;stroke-dasharray:24, 2"
     d="m 17.957031,19 c -0.890892,-0.0049 -1.586398,0.272667 -1.914062,0.595703 L 4.5859375,31.585938 6,31 H 18 46 58 L 59.414062,31.585938 47.957031,19.595703 C 47.629366,19.272661 46.933864,18.995087 46.04297,19 Z"
     sodipodi:nodetypes="ccccccccccc"
     transform="scale(0.26457812)" />
  <path
     id="rect31485-9"
     style="fill:url(#linearGradient50929);fill-opacity:1;stroke-width:0.529156;stroke-linecap:round;stroke-linejoin:round;stroke-dasharray:6.34987, 0.529156;opacity:0.3"
     d="m 4.7510375,5.0269843 c -0.2357105,-0.0013 -0.4197262,0.072142 -0.5064189,0.15761 l -3.0312799,3.1723538 0.37413,-0.1550263 h 3.1749375 7.4081878 3.174937 l 0.37413,0.1550263 -3.03128,-3.1723538 c -0.08669,-0.08547 -0.270707,-0.1589098 -0.506419,-0.15761 z"
     sodipodi:nodetypes="ccccccccccc" />
  <path
     id="rect31485-9-0"
     style="opacity:0.3;fill:url(#linearGradient51339);fill-opacity:1;stroke-width:0.529156;stroke-linecap:round;stroke-linejoin:round;stroke-dasharray:6.34987, 0.529156"
     d="m 12.181962,5.0269843 c 0.235711,-0.0013 0.419726,0.072142 0.506419,0.15761 l 3.03128,3.1723539 -0.37413,-0.1550263 H 12.170593 4.7624057 1.5874687 l -0.37413,0.1550263 3.03128,-3.1723538 c 0.08669,-0.08547 0.270707,-0.1589098 0.506419,-0.15761 z"
     sodipodi:nodetypes="ccccccccccc" />
  <path
     id="rect849"
     style="fill:url(#linearGradient58464);stroke-width:0.529156;stroke-linecap:round;stroke-linejoin:round;stroke-dasharray:6.34987, 0.529156;fill-opacity:1"
     d="M 1.5874687,8.2019214 H 15.34553 c 0.293153,0 0.529156,0.236004 0.529156,0.529157 v 3.4395146 c 0,0.293153 -0.236003,0.529156 -0.529156,0.529156 H 1.5874687 c -0.293153,0 -0.529157,-0.236003 -0.529157,-0.529156 V 8.7310784 c 0,-0.293153 0.236004,-0.529157 0.529157,-0.529157 z" />
  <path
     id="rect849-5"
     style="opacity:0.4;fill:url(#linearGradient48006);fill-opacity:1;stroke-width:0.529156;stroke-linecap:round;stroke-linejoin:round;stroke-dasharray:6.34987, 0.529156"
     d="M 1.5874687,8.2019219 H 15.34553 c 0.293153,0 0.529156,0.236004 0.529156,0.529157 v 3.4395141 c 0,0.293153 -0.236003,0.529156 -0.529156,0.529156 H 1.5874687 c -0.293153,0 -0.529157,-0.236003 -0.529157,-0.529156 V 8.7310789 c 0,-0.293153 0.236004,-0.529157 0.529157,-0.529157 z" />
  <path
     id="rect849-5-8"
     style="opacity:0.4;fill:url(#linearGradient71108);fill-opacity:1;stroke-width:0.529156;stroke-linecap:round;stroke-linejoin:round;stroke-dasharray:6.34987, 0.529156"
     d="M 15.345529,8.2019219 H 1.5874677 c -0.293153,0 -0.529156,0.236004 -0.529156,0.529157 v 3.4395141 c 0,0.293153 0.236003,0.529156 0.529156,0.529156 H 15.345529 c 0.293153,0 0.529157,-0.236003 0.529157,-0.529156 V 8.7310789 c 0,-0.293153 -0.236004,-0.529157 -0.529157,-0.529157 z" />
  <path
     id="rect1094"
     style="fill:url(#linearGradient10486);stroke-width:2.01225;stroke-linecap:round;stroke-linejoin:round;stroke-dasharray:24.147, 2.01225"
     d="M 6 31 L 6 44 C 6 45.108002 6.8919999 46 8 46 L 56 46 C 57.107998 46 58 45.108002 58 44 L 58 31 L 6 31 z "
     transform="scale(0.26457812)" />
  <circle
     style="fill:#12ff12;fill-opacity:1;stroke-width:0.5725;stroke-linecap:round;stroke-linejoin:round;stroke-dasharray:6.86999, 0.5725;filter:url(#filter30531);opacity:1"
     id="path25907"
     cx="3.8363829"
     cy="10.186257"
     r="0.66144532" />
  <circle
     style="fill:#12ff12;fill-opacity:1;stroke-width:0.529156;stroke-linecap:round;stroke-linejoin:round;stroke-dasharray:6.34987, 0.529156"
     id="path30449"
     cx="3.8363829"
     cy="10.186257"
     r="0.66144532" />
  <circle
     style="opacity:0.7;fill:url(#radialGradient50339);fill-opacity:1;stroke-width:0.529156;stroke-linecap:round;stroke-linejoin:round;stroke-dasharray:6.34987, 0.529156"
     id="path50091"
     cx="3.8363829"
     cy="10.186257"
     r="0.66144532" />
  <path
     id="path49923"
     style="opacity:0.2;fill:#000000;fill-opacity:1;stroke-width:2;stroke-linecap:round;stroke-linejoin:round;stroke-dasharray:24, 2"
     d="M 15.820312 36.679688 A 2.25 2.25 0 0 1 16.25 38 A 2.25 2.25 0 0 1 14 40.25 A 2.25 2.25 0 0 1 12.679688 39.820312 A 2.25 2.25 0 0 0 14.5 40.75 A 2.25 2.25 0 0 0 16.75 38.5 A 2.25 2.25 0 0 0 15.820312 36.679688 z "
     transform="scale(0.26457812)" />
  <circle
     style="fill:url(#linearGradient945);fill-opacity:1;stroke-width:0.347259;stroke-linecap:round;stroke-linejoin:round"
     id="path857"
     cx="13.228907"
     cy="5.5561409"
     r="3.7040937" />
  <circle
     style="fill:url(#linearGradient3163);fill-opacity:1;stroke-width:0.122113"
     id="path2899"
     cx="13.228907"
     cy="5.5561404"
     r="3.1749375" />
  <path
     id="rect1008"
     style="fill:#000000;stroke-width:3;stroke-linecap:round;stroke-linejoin:round"
     d="M 50 12 C 49.446 12 49 12.446 49 13 L 49 21 C 49 21.554 49.446 22 50 22 L 58 22 C 58.554 22 59 21.554 59 21 C 59 20.446 58.554 20 58 20 L 51 20 L 51 13 C 51 12.446 50.554 12 50 12 z "
     transform="scale(0.26457812)" />
  <path
     id="path1699"
     style="color:#000000;fill:url(#linearGradient2192);fill-rule:evenodd;stroke:none;stroke-width:1;stroke-linecap:round;stroke-linejoin:round;-inkscape-stroke:none;fill-opacity:1.0"
     d="m 40,6 c -0.553999,0 -1,0.4459999 -1,1 v 6 c 0,0.554 0.446001,1 1,1 h 6 c 0.553999,0 1,-0.446 1,-1 0,-0.554 -0.446001,-1 -1,-1 H 42.119141 C 44.29073,10.087569 47.088494,9.0187394 50,9.0078125 c 6.62955,0 11.992187,5.3626375 11.992188,11.9921875 0,6.628883 -5.361607,11.991111 -11.990235,11.992188 -3.176563,-0.01141 -6.218523,-1.281316 -8.458984,-3.533204 -0.326302,-0.347963 -0.973513,-0.369914 -1.399704,-0.02867 -0.432168,0.360004 -0.296806,1.103178 -0.02412,1.448595 2.616308,2.629782 6.16937,4.115459 9.878906,4.128906 6.51e-4,10e-7 0.0013,10e-7 0.002,0 C 57.729796,35.00786 64.007812,28.72984 64.007812,21 64.007812,13.27016 57.729842,6.9921875 50,6.9921875 c -6.51e-4,-1.3e-6 -0.0013,-1.3e-6 -0.002,0 C 46.689368,7.0041889 43.506036,8.1889082 41,10.310547 V 7 C 41,6.4459999 40.553999,6 40,6 Z"
     transform="scale(0.26457812)"
     sodipodi:nodetypes="sssssssccsccccscssccss" />
</svg>
