<?xml version="1.0" encoding="UTF-8" standalone="no"?>
<!-- Created with Inkscape (http://www.inkscape.org/) -->

<svg
   width="64"
   height="64"
   viewBox="0 0 16.933333 16.933334"
   version="1.1"
   id="svg5"
   inkscape:version="1.1.1 (3bf5ae0d25, 2021-09-20, custom)"
   sodipodi:docname="mintinstall.svg"
   xmlns:inkscape="http://www.inkscape.org/namespaces/inkscape"
   xmlns:sodipodi="http://sodipodi.sourceforge.net/DTD/sodipodi-0.dtd"
   xmlns:xlink="http://www.w3.org/1999/xlink"
   xmlns="http://www.w3.org/2000/svg"
   xmlns:svg="http://www.w3.org/2000/svg">
  <sodipodi:namedview
     id="namedview7"
     pagecolor="#ffffff"
     bordercolor="#666666"
     borderopacity="1.0"
     inkscape:pageshadow="2"
     inkscape:pageopacity="0.0"
     inkscape:pagecheckerboard="0"
     inkscape:document-units="px"
     showgrid="false"
     units="px"
     height="64px"
     inkscape:zoom="8"
     inkscape:cx="15"
     inkscape:cy="31.9375"
     inkscape:window-width="1920"
     inkscape:window-height="996"
     inkscape:window-x="0"
     inkscape:window-y="0"
     inkscape:window-maximized="1"
     inkscape:current-layer="svg5" />
  <defs
     id="defs2">
    <linearGradient
       inkscape:collect="always"
       id="linearGradient1392">
      <stop
         style="stop-color:#69b73f;stop-opacity:1;"
         offset="0"
         id="stop1388" />
      <stop
         style="stop-color:#44e09c;stop-opacity:1"
         offset="1"
         id="stop1390" />
    </linearGradient>
    <linearGradient
       inkscape:collect="always"
       id="linearGradient1837">
      <stop
         style="stop-color:#d5d5d5;stop-opacity:1;"
         offset="0"
         id="stop1833" />
      <stop
         style="stop-color:#8f8f8f;stop-opacity:1"
         offset="1"
         id="stop1835" />
    </linearGradient>
    <linearGradient
       inkscape:collect="always"
       id="linearGradient7209">
      <stop
         style="stop-color:#f6f5f4;stop-opacity:1"
         offset="0"
         id="stop7205" />
      <stop
         style="stop-color:#cccccc;stop-opacity:1"
         offset="1"
         id="stop7207" />
    </linearGradient>
    <linearGradient
       inkscape:collect="always"
       id="linearGradient6605">
      <stop
         style="stop-color:#d4d4d4;stop-opacity:1"
         offset="0"
         id="stop6601" />
      <stop
         style="stop-color:#9e9e9e;stop-opacity:1"
         offset="1"
         id="stop6603" />
    </linearGradient>
    <linearGradient
       inkscape:collect="always"
       xlink:href="#linearGradient1837"
       id="linearGradient5273"
       x1="12.170835"
       y1="1.0583334"
       x2="12.175638"
       y2="4.7453794"
       gradientUnits="userSpaceOnUse" />
    <linearGradient
       inkscape:collect="always"
       xlink:href="#linearGradient1837"
       id="linearGradient5963"
       x1="18"
       y1="4"
       x2="18"
       y2="18"
       gradientUnits="userSpaceOnUse"
       gradientTransform="scale(0.26458334)" />
    <linearGradient
       inkscape:collect="always"
       xlink:href="#linearGradient6605"
       id="linearGradient6607"
       x1="8.4666691"
       y1="1.0583334"
       x2="8.4666691"
       y2="2.1166668"
       gradientUnits="userSpaceOnUse" />
    <linearGradient
       inkscape:collect="always"
       xlink:href="#linearGradient7209"
       id="linearGradient7211"
       x1="3.1750002"
       y1="3.1749995"
       x2="15.875"
       y2="15.875"
       gradientUnits="userSpaceOnUse" />
    <linearGradient
       inkscape:collect="always"
       xlink:href="#linearGradient1392"
       id="linearGradient1394"
       x1="12.679054"
       y1="13.738046"
       x2="4.7624998"
       y2="6.3499999"
       gradientUnits="userSpaceOnUse" />
  </defs>
  <path
     id="rect1335"
     style="fill:url(#linearGradient7211);stroke-width:0.264583;fill-opacity:1"
     d="m 1.8520834,3.1750001 c -0.4397375,0 -0.79375,0.3540125 -0.79375,0.79375 v 7.6729169 c 0,2.345267 1.8880667,4.233333 4.2333334,4.233333 h 6.3500002 c 2.345267,0 4.233333,-1.888066 4.233333,-4.233333 V 3.9687501 c 0,-0.4397375 -0.354012,-0.79375 -0.79375,-0.79375 z" />
  <path
     id="rect846"
     style="fill:url(#linearGradient5963);fill-opacity:1.0;stroke-width:0.247495"
     d="M 5.2916668,1.0583334 A 1.0583334,1.0583336 0 0 0 4.2333334,2.1166667 v 2.3812501 c 0,0.1465792 0.1180042,0.2645833 0.2645834,0.2645833 h 0.5291667 c 0.1465791,0 0.2645833,-0.1180041 0.2645833,-0.2645833 V 2.1166667 Z" />
  <path
     id="rect1529"
     style="fill:url(#linearGradient5273);fill-opacity:1.0;stroke-width:0.264583"
     d="m 11.641668,1.0583334 a 1.0583334,1.0583334 0 0 1 1.058334,1.0583333 v 2.3812501 c 0,0.1465792 -0.118004,0.2645833 -0.264584,0.2645833 h -0.529167 c -0.146579,0 -0.264583,-0.1180041 -0.264583,-0.2645833 V 2.1166667 Z" />
  <rect
     style="fill:url(#linearGradient6607);fill-opacity:1;stroke-width:0.264583"
     id="rect5041"
     width="6.3499999"
     height="1.0583334"
     x="5.291667"
     y="1.0583334" />
  <path
     id="path4130-5"
     style="display:inline;overflow:visible;visibility:visible;fill:url(#linearGradient1394);fill-opacity:1;fill-rule:evenodd;stroke:none;stroke-width:0.107968;marker:none;enable-background:accumulate"
     d="m 4.7625,6.3500001 v 4.8988529 c 0,0.540516 0.1978079,1.014541 0.5825876,1.397829 0.3288863,0.324622 0.724214,0.535063 1.1686007,0.582588 h 3.6310787 c 0.557952,0 1.048068,-0.207406 1.443521,-0.610004 h 0.0019 c 0.336316,-0.345546 0.532902,-0.759741 0.580678,-1.225718 l -0.0037,-2.4084999 c 0,-0.441064 -0.162615,-0.831934 -0.472544,-1.144993 -0.310037,-0.313231 -0.695809,-0.474447 -1.130143,-0.474447 -0.426331,0 -0.7995637,0.158649 -1.1012037,0.448935 -0.300843,-0.289824 -0.671315,-0.448938 -1.097462,-0.448935 -0.43433,0 -0.82007,0.161222 -1.130143,0.474447 -0.309979,0.313062 -0.472597,0.703926 -0.472592,1.144993 v 2.2294429 h 1.01096 V 8.9850481 c 0,-0.169053 0.05521,-0.301116 0.175919,-0.423041 0.121101,-0.122329 0.249295,-0.177823 0.415807,-0.177823 0.170001,0 0.296344,0.05521 0.417711,0.177823 0.1207,0.121925 0.175918,0.253992 0.175918,0.423041 V 11.214491 H 9.9707341 V 8.9850481 c 0,-0.169053 0.05521,-0.301116 0.1759179,-0.423041 0.121361,-0.122604 0.247705,-0.177823 0.417713,-0.177823 0.166511,0 0.294703,0.05549 0.415806,0.177823 0.120697,0.121925 0.175918,0.253992 0.175918,0.423041 l 0.0053,2.2306759 c 0,0.555712 -0.529075,1.024288 -1.2089639,1.024288 l -3.2609628,-0.01291 c -0.5246659,0 -0.9728829,-0.510796 -0.9728829,-1.167077 V 6.3500001 Z"
     sodipodi:nodetypes="csccscccccsccccccscscsccscssccccscc" />
</svg>
