<?xml version="1.0" encoding="UTF-8" standalone="no"?>
<!-- Created with Inkscape (http://www.inkscape.org/) -->

<svg
   width="64"
   height="64"
   viewBox="0 0 16.933333 16.933333"
   version="1.1"
   id="svg5"
   inkscape:version="1.1.1 (3bf5ae0d25, 2021-09-20, custom)"
   sodipodi:docname="ms-exchange.svg"
   xmlns:inkscape="http://www.inkscape.org/namespaces/inkscape"
   xmlns:sodipodi="http://sodipodi.sourceforge.net/DTD/sodipodi-0.dtd"
   xmlns="http://www.w3.org/2000/svg"
   xmlns:svg="http://www.w3.org/2000/svg">
  <sodipodi:namedview
     id="namedview7"
     pagecolor="#ffffff"
     bordercolor="#666666"
     borderopacity="1.0"
     inkscape:pageshadow="2"
     inkscape:pageopacity="0.0"
     inkscape:pagecheckerboard="0"
     inkscape:document-units="px"
     showgrid="false"
     units="px"
     height="48px"
     inkscape:zoom="3.9999998"
     inkscape:cx="4.0000002"
     inkscape:cy="47.250002"
     inkscape:window-width="1512"
     inkscape:window-height="937"
     inkscape:window-x="56"
     inkscape:window-y="50"
     inkscape:window-maximized="0"
     inkscape:current-layer="svg5"
     inkscape:lockguides="true" />
  <defs
     id="defs2" />
  <path
     style="fill:#50d9ff;stroke-width:0.0897976"
     inkscape:connector-curvature="0"
     id="path8"
     d="M 7.7890125,2.7763609 C 7.7351335,2.7045226 7.6363565,2.5967649 7.4836995,2.5159465 7.322063,2.4261485 7.1783868,2.3992093 7.088588,2.3902294 c -1.1763528,0 -2.343727,0 -3.5200803,0 -0.1526576,0 -0.4130709,0.02694 -0.6106264,0.2155154 -0.2065354,0.1975549 -0.2514334,0.4759292 -0.2514334,0.6285858 0,0.4669495 0,0.9249192 0,1.3918683 h 5.1095056 c 0.5028677,0 0.9159384,0.4130714 0.9159384,0.9159395 V 8.2001593 C 8.9743456,7.9128048 9.1180216,7.5446335 9.1180216,7.1495228 V 4.1951689 C 8.6780119,3.7282195 8.2290232,3.2522902 7.7890125,2.7763609 Z"
     class="st2" />
  <path
     style="fill:#0078d4;stroke-width:0.0897976;enable-background:new"
     inkscape:connector-curvature="0"
     id="path10"
     d="m 7.5285985,12.573321 h -5.908707 c -0.4579698,0 -0.82614166,-0.368171 -0.82614166,-0.826142 V 5.8384718 c 0,-0.4579695 0.36817186,-0.8261411 0.82614166,-0.8261411 h 5.899727 c 0.4579687,0 0.8261407,0.3681716 0.8261407,0.8261411 v 5.8997262 c 0.0089,0.466952 -0.359192,0.835123 -0.8171607,0.835123 z"
     class="st3" />
  <path
     class="st4"
     d="M 5.8852958,11.127571 H 3.2631944 V 6.4670576 H 5.777538 V 7.1225834 H 4.0354571 v 1.3200305 h 1.598404 v 0.6555247 h -1.598404 v 1.3828884 h 1.8408587 v 0.646544 z"
     id="path12"
     inkscape:connector-curvature="0"
     style="fill:#ffffff;stroke-width:0.0897976" />
  <path
     style="fill:#28a8ea;stroke-width:0.0897976"
     inkscape:connector-curvature="0"
     id="path16"
     d="m 14.694474,2.3812498 c -1.023696,0 -2.047392,0 -3.07109,0 -0.44001,0 -0.862061,0.1795947 -1.176353,0.484909 -0.6645037,0.6645051 -1.3379894,1.3379899 -2.0024931,2.0024948 0.179594,0.1706174 0.287353,0.4040913 0.287353,0.6645049 v 6.4923935 c 0,0.50287 -0.4130717,0.915941 -0.9159394,0.915941 H 2.7064469 v 1.418808 c 0,0.502869 0.4130706,0.915939 0.9159395,0.915939 h 3.0710907 c 0.4400106,0 0.8620604,-0.179603 1.1763534,-0.484908 C 10.321315,12.339846 12.772799,9.8883603 15.224283,7.436876 15.475727,7.1854407 15.610415,6.8442098 15.610415,6.4939968 V 3.297189 c 0,-0.5118485 -0.413071,-0.9159392 -0.915941,-0.9159392 z"
     class="st5" />
  <path
     style="fill:#0078d4;stroke-width:0.0897976;enable-background:new"
     inkscape:connector-curvature="0"
     id="path18"
     d="m 13.760575,8.8197649 c 0,-0.0089 0,-0.01797 0,-0.02694 h -2.999252 c -0.9069577,0 -1.6433014,0.7363424 -1.6433014,1.6433021 v 2.945379 c 0.4400107,0.475928 0.8889994,0.94288 1.3290094,1.418808 0.05388,0.07186 0.152658,0.179603 0.305313,0.260425 0.161638,0.08981 0.305312,0.116745 0.395109,0.125734 1.176355,0 2.343728,0 3.520082,0 0.152662,0 0.413071,-0.02709 0.610629,-0.215522 0.206544,-0.197563 0.251444,-0.475932 0.251444,-0.628586 0,-1.212272 0,-2.433528 0,-3.645801 -0.592677,-0.628598 -1.185346,-1.2571824 -1.769033,-1.8767891 z"
     class="st3" />
</svg>
