<?xml version="1.0" encoding="UTF-8" standalone="no"?>
<svg
   width="64"
   height="64"
   viewBox="0 0 16.93312 16.93312"
   version="1.1"
   id="svg1886"
   inkscape:version="1.1.1 (3bf5ae0d25, 2021-09-20, custom)"
   sodipodi:docname="multimedia-photo-viewer.svg"
   xmlns:inkscape="http://www.inkscape.org/namespaces/inkscape"
   xmlns:sodipodi="http://sodipodi.sourceforge.net/DTD/sodipodi-0.dtd"
   xmlns:xlink="http://www.w3.org/1999/xlink"
   xmlns="http://www.w3.org/2000/svg"
   xmlns:svg="http://www.w3.org/2000/svg"
   xmlns:rdf="http://www.w3.org/1999/02/22-rdf-syntax-ns#"
   xmlns:cc="http://creativecommons.org/ns#"
   xmlns:dc="http://purl.org/dc/elements/1.1/">
  <defs
     id="defs1880">
    <linearGradient
       inkscape:collect="always"
       id="linearGradient1431">
      <stop
         style="stop-color:#26aee8;stop-opacity:1;"
         offset="0"
         id="stop1427" />
      <stop
         style="stop-color:#8e8ae3;stop-opacity:1"
         offset="1"
         id="stop1429" />
    </linearGradient>
    <linearGradient
       inkscape:collect="always"
       xlink:href="#linearGradient1431"
       id="linearGradient1433"
       x1="0.79373997"
       y1="0.52916038"
       x2="16.13938"
       y2="15.874802"
       gradientUnits="userSpaceOnUse" />
  </defs>
  <sodipodi:namedview
     id="base"
     pagecolor="#ffffff"
     bordercolor="#666666"
     borderopacity="1.0"
     inkscape:pageopacity="0.0"
     inkscape:pageshadow="2"
     inkscape:zoom="12.078125"
     inkscape:cx="31.958603"
     inkscape:cy="32"
     inkscape:document-units="px"
     inkscape:current-layer="svg1886"
     inkscape:document-rotation="0"
     showgrid="false"
     units="px"
     inkscape:window-width="1920"
     inkscape:window-height="996"
     inkscape:window-x="0"
     inkscape:window-y="0"
     inkscape:window-maximized="1"
     inkscape:pagecheckerboard="0" />
  <metadata
     id="metadata1883">
    <rdf:RDF>
      <cc:Work
         rdf:about="">
        <dc:format>image/svg+xml</dc:format>
        <dc:type
           rdf:resource="http://purl.org/dc/dcmitype/StillImage" />
      </cc:Work>
    </rdf:RDF>
  </metadata>
  <path
     id="rect1750"
     style="fill:url(#linearGradient1433);stroke-width:0.26458;fill-opacity:1"
     d="M 1.5874799,0.79373997 H 15.34564 c 0.439732,0 0.79374,0.35400803 0.79374,0.79373993 V 15.34564 c 0,0.439732 -0.354008,0.79374 -0.79374,0.79374 H 1.5874799 c -0.4397319,0 -0.79373993,-0.354008 -0.79373993,-0.79374 V 1.5874799 c 0,-0.4397319 0.35400803,-0.79373993 0.79373993,-0.79373993 z" />
  <circle
     style="fill:#ffffff;fill-opacity:1;stroke-width:1.10242;stroke-linecap:round;stroke-linejoin:round"
     id="path1951"
     cx="12.435259"
     cy="4.49786"
     r="1.3229001" />
  <path
     id="rect2573"
     style="fill:#3f6bcc;fill-opacity:1;stroke-width:5;stroke-linecap:round;stroke-linejoin:round"
     d="M 48.03125 31.947266 C 46.753154 31.947266 45.475437 32.436673 44.496094 33.416016 L 19.041016 58.871094 C 18.425311 59.486799 18.002054 60.222367 17.773438 61 L 58 61 C 59.662 61 61 59.662 61 58 L 61 42.847656 L 51.568359 33.416016 C 50.589016 32.436673 49.309346 31.947266 48.03125 31.947266 z "
     transform="scale(0.26458)" />
  <path
     id="rect3104"
     style="fill:#113f7d;fill-opacity:1;stroke-width:5;stroke-linecap:round;stroke-linejoin:round"
     d="M 22 21.228516 C 21.233143 21.228516 20.466512 21.521769 19.878906 22.109375 L 3 38.988281 L 3 58 C 3 59.662 4.3379998 61 6 61 L 58 61 C 59.362245 61 60.504492 60.100744 60.873047 58.861328 L 24.121094 22.109375 C 23.533488 21.521769 22.766857 21.228516 22 21.228516 z "
     transform="scale(0.26458)" />
</svg>
