<?xml version="1.0" encoding="UTF-8" standalone="no"?>
<svg
   width="64"
   height="64"
   viewBox="0 0 16.93312 16.93312"
   version="1.1"
   id="svg1886"
   inkscape:version="1.1.1 (3bf5ae0d25, 2021-09-20, custom)"
   sodipodi:docname="multimedia-photo-manager.svg"
   xmlns:inkscape="http://www.inkscape.org/namespaces/inkscape"
   xmlns:sodipodi="http://sodipodi.sourceforge.net/DTD/sodipodi-0.dtd"
   xmlns:xlink="http://www.w3.org/1999/xlink"
   xmlns="http://www.w3.org/2000/svg"
   xmlns:svg="http://www.w3.org/2000/svg"
   xmlns:rdf="http://www.w3.org/1999/02/22-rdf-syntax-ns#"
   xmlns:cc="http://creativecommons.org/ns#"
   xmlns:dc="http://purl.org/dc/elements/1.1/">
  <defs
     id="defs1880">
    <linearGradient
       inkscape:collect="always"
       id="linearGradient3867">
      <stop
         style="stop-color:#fafafa;stop-opacity:1;"
         offset="0"
         id="stop3863" />
      <stop
         style="stop-color:#c0c5c7;stop-opacity:1"
         offset="1"
         id="stop3865" />
    </linearGradient>
    <linearGradient
       inkscape:collect="always"
       id="linearGradient1301">
      <stop
         style="stop-color:#666666;stop-opacity:1"
         offset="0"
         id="stop1297" />
      <stop
         style="stop-color:#333333;stop-opacity:1"
         offset="1"
         id="stop1299" />
    </linearGradient>
    <linearGradient
       inkscape:collect="always"
       id="linearGradient1431">
      <stop
         style="stop-color:#26aee8;stop-opacity:1;"
         offset="0"
         id="stop1427" />
      <stop
         style="stop-color:#8e8ae3;stop-opacity:1"
         offset="1"
         id="stop1429" />
    </linearGradient>
    <linearGradient
       inkscape:collect="always"
       xlink:href="#linearGradient1301"
       id="linearGradient1303"
       x1="0.79373997"
       y1="1.0583204"
       x2="16.13938"
       y2="15.874801"
       gradientUnits="userSpaceOnUse" />
    <linearGradient
       inkscape:collect="always"
       xlink:href="#linearGradient1431"
       id="linearGradient2951"
       x1="25"
       y1="29.713867"
       x2="55"
       y2="55.713867"
       gradientUnits="userSpaceOnUse" />
    <linearGradient
       inkscape:collect="always"
       xlink:href="#linearGradient3867"
       id="linearGradient3869"
       x1="0.79373997"
       y1="1.0583204"
       x2="16.13938"
       y2="15.874801"
       gradientUnits="userSpaceOnUse"
       gradientTransform="scale(3.7795752)" />
  </defs>
  <sodipodi:namedview
     id="base"
     pagecolor="#ffffff"
     bordercolor="#666666"
     borderopacity="1.0"
     inkscape:pageopacity="0.0"
     inkscape:pageshadow="2"
     inkscape:zoom="8.5405241"
     inkscape:cx="7.2009632"
     inkscape:cy="44.025401"
     inkscape:document-units="px"
     inkscape:current-layer="svg1886"
     inkscape:document-rotation="0"
     showgrid="false"
     units="px"
     inkscape:window-width="1920"
     inkscape:window-height="1006"
     inkscape:window-x="0"
     inkscape:window-y="0"
     inkscape:window-maximized="1"
     inkscape:pagecheckerboard="0"
     showguides="false" />
  <metadata
     id="metadata1883">
    <rdf:RDF>
      <cc:Work
         rdf:about="">
        <dc:format>image/svg+xml</dc:format>
        <dc:type
           rdf:resource="http://purl.org/dc/dcmitype/StillImage" />
      </cc:Work>
    </rdf:RDF>
  </metadata>
  <path
     id="rect1750"
     style="fill:url(#linearGradient1303);fill-opacity:1;stroke-width:0.26458"
     d="M 1.3229,1.3229 H 15.61022 V 15.61022 H 1.3229 Z"
     sodipodi:nodetypes="ccccc" />
  <circle
     style="fill:#ffffff;fill-opacity:1;stroke-width:1.10242;stroke-linecap:round;stroke-linejoin:round"
     id="path1951"
     cx="12.43526"
     cy="4.49786"
     r="1.3229001" />
  <path
     id="rect2377"
     style="fill:url(#linearGradient2951);fill-opacity:1;stroke-width:1.98285;stroke-opacity:0.992157"
     d="m 32,30.427734 c -1.278096,0 -2.555813,0.489407 -3.535156,1.46875 L 5,55.361328 V 56 c 0,1.662 1.3380001,3 3,3 h 48 c 1.662,0 3.013869,-0.998985 3,-3 V 55.361328 L 35.535156,31.896484 C 34.555813,30.917141 33.278096,30.427734 32,30.427734 Z"
     transform="scale(0.26458)"
     sodipodi:nodetypes="sscsssccss" />
  <path
     id="rect3601"
     style="fill:url(#linearGradient3869);fill-opacity:1;stroke-width:2;stroke-opacity:0.992157"
     d="M 6 3 C 4.3380001 3 3 4.3380001 3 6 L 3 58 C 3 59.662 4.3380001 61 6 61 L 58 61 C 59.662 61 61 59.662 61 58 L 61 6 C 61 4.3380001 59.662 3 58 3 L 6 3 z M 8 6 L 56 6 C 57.108 6 58 6.8919997 58 8 L 58 56 C 58 57.108 57.108 58 56 58 L 8 58 C 6.8919997 58 6 57.108 6 56 L 6 8 C 6 6.8919997 6.8919997 6 8 6 z "
     transform="scale(0.26458)" />
</svg>
