<?xml version="1.0" encoding="UTF-8" standalone="no"?>
<!-- Created with Inkscape (http://www.inkscape.org/) -->

<svg
   width="64"
   height="64"
   viewBox="0 0 16.933333 16.933334"
   version="1.1"
   id="svg5"
   inkscape:version="1.1.1 (3bf5ae0d25, 2021-09-20, custom)"
   sodipodi:docname="preferences-desktop-hotcorners.svg"
   xmlns:inkscape="http://www.inkscape.org/namespaces/inkscape"
   xmlns:sodipodi="http://sodipodi.sourceforge.net/DTD/sodipodi-0.dtd"
   xmlns:xlink="http://www.w3.org/1999/xlink"
   xmlns="http://www.w3.org/2000/svg"
   xmlns:svg="http://www.w3.org/2000/svg">
  <sodipodi:namedview
     id="namedview7"
     pagecolor="#ffffff"
     bordercolor="#666666"
     borderopacity="1.0"
     inkscape:pageshadow="2"
     inkscape:pageopacity="0.0"
     inkscape:pagecheckerboard="0"
     inkscape:document-units="px"
     showgrid="false"
     units="px"
     height="64px"
     inkscape:zoom="5.656854"
     inkscape:cx="27.135224"
     inkscape:cy="23.688078"
     inkscape:window-width="1920"
     inkscape:window-height="1006"
     inkscape:window-x="0"
     inkscape:window-y="0"
     inkscape:window-maximized="1"
     inkscape:current-layer="svg5" />
  <defs
     id="defs2">
    <linearGradient
       inkscape:collect="always"
       id="linearGradient1591">
      <stop
         style="stop-color:#0f4f68;stop-opacity:1;"
         offset="0"
         id="stop1587" />
      <stop
         style="stop-color:#03355e;stop-opacity:1"
         offset="1"
         id="stop1589" />
    </linearGradient>
    <linearGradient
       inkscape:collect="always"
       id="linearGradient11972">
      <stop
         style="stop-color:#4accfe;stop-opacity:1"
         offset="0"
         id="stop11968" />
      <stop
         style="stop-color:#2d78b3;stop-opacity:1"
         offset="1"
         id="stop11970" />
    </linearGradient>
    <linearGradient
       inkscape:collect="always"
       xlink:href="#linearGradient11972"
       id="linearGradient1924"
       x1="0.5291667"
       y1="1.5875"
       x2="8.4666672"
       y2="7.9375"
       gradientUnits="userSpaceOnUse"
       gradientTransform="matrix(2,0,0,2,-0.52916674,-1.0583331)" />
    <linearGradient
       inkscape:collect="always"
       xlink:href="#linearGradient1591"
       id="linearGradient1379"
       x1="0.26458335"
       y1="12.170834"
       x2="16.139584"
       y2="12.170834"
       gradientUnits="userSpaceOnUse"
       gradientTransform="translate(0.26458333,1.8520836)" />
  </defs>
  <rect
     style="fill:url(#linearGradient1924);fill-opacity:1;stroke-width:1.5875;stroke-linecap:round;stroke-linejoin:round"
     id="rect1836"
     width="15.875"
     height="12.7"
     x="0.5291667"
     y="2.1166668"
     ry="0.5291667" />
  <path
     id="rect1409"
     style="fill:url(#linearGradient1379);fill-opacity:1;stroke-width:0.543685;stroke-linecap:round;stroke-linejoin:round"
     d="M 16.404167,13.229167 V 14.2875 c 0,0.293159 -0.236009,0.529168 -0.529167,0.529168 H 1.0583334 c -0.29315838,0 -0.52916673,-0.236009 -0.52916673,-0.529168 v -1.058333 z"
     sodipodi:nodetypes="csssscc" />
  <path
     id="path934"
     style="fill:#000000;stroke-width:0.681815;opacity:0.2"
     d="M 4 8 C 2.8919999 8 2 8.8919999 2 10 L 2 23 A 15 15 0 0 0 17 8 L 4 8 z M 47 8 A 15 15 0 0 0 62 23 L 62 10 C 62 8.8919999 61.108 8 60 8 L 47 8 z M 2 41 L 2 54 C 2 55.108 2.8919999 56 4 56 L 17 56 A 15 15 0 0 0 2 41 z M 62 41 A 15 15 0 0 0 47 56 L 60 56 C 61.108 56 62 55.108 62 54 L 62 41 z "
     transform="scale(0.26458334)" />
</svg>
