<?xml version="1.0" encoding="UTF-8" standalone="no"?>
<!-- Created with Inkscape (http://www.inkscape.org/) -->

<svg
   width="64"
   height="64"
   viewBox="0 0 16.933333 16.933334"
   version="1.1"
   id="svg5"
   inkscape:version="1.2.1 (9c6d41e410, 2022-07-14)"
   sodipodi:docname="preferences-desktop-activities.svg"
   xmlns:inkscape="http://www.inkscape.org/namespaces/inkscape"
   xmlns:sodipodi="http://sodipodi.sourceforge.net/DTD/sodipodi-0.dtd"
   xmlns:xlink="http://www.w3.org/1999/xlink"
   xmlns="http://www.w3.org/2000/svg"
   xmlns:svg="http://www.w3.org/2000/svg">
  <sodipodi:namedview
     id="namedview7"
     pagecolor="#ffffff"
     bordercolor="#666666"
     borderopacity="1.0"
     inkscape:pageshadow="2"
     inkscape:pageopacity="0.0"
     inkscape:pagecheckerboard="0"
     inkscape:document-units="px"
     showgrid="false"
     units="px"
     height="64px"
     inkscape:zoom="8.7504464"
     inkscape:cx="45.654814"
     inkscape:cy="33.255446"
     inkscape:window-width="1920"
     inkscape:window-height="1007"
     inkscape:window-x="0"
     inkscape:window-y="0"
     inkscape:window-maximized="1"
     inkscape:current-layer="svg5"
     inkscape:showpageshadow="2"
     inkscape:deskcolor="#d1d1d1" />
  <defs
     id="defs2">
    <linearGradient
       inkscape:collect="always"
       id="linearGradient11972">
      <stop
         style="stop-color:#4accfe;stop-opacity:1"
         offset="0"
         id="stop11968" />
      <stop
         style="stop-color:#2d78b3;stop-opacity:1"
         offset="1"
         id="stop11970" />
    </linearGradient>
    <linearGradient
       inkscape:collect="always"
       xlink:href="#linearGradient223269"
       id="linearGradient1924"
       x1="0.5291667"
       y1="1.5875"
       x2="8.4666672"
       y2="7.9375"
       gradientUnits="userSpaceOnUse"
       gradientTransform="matrix(2,0,0,2,-5.6250001e-8,-2.1166665)" />
    <linearGradient
       inkscape:collect="always"
       xlink:href="#linearGradient11972"
       id="linearGradient924"
       x1="2.3812487"
       y1="1.5874999"
       x2="8.7312469"
       y2="4.4979162"
       gradientUnits="userSpaceOnUse"
       gradientTransform="matrix(2,0,0,2,-2.6458305,-1.0583333)" />
    <linearGradient
       inkscape:collect="always"
       id="linearGradient223269">
      <stop
         style="stop-color:#555556;stop-opacity:1;"
         offset="0"
         id="stop223265" />
      <stop
         style="stop-color:#2d2d2d;stop-opacity:1"
         offset="1"
         id="stop223267" />
    </linearGradient>
  </defs>
  <path
     id="rect1836"
     style="fill:url(#linearGradient1924);fill-opacity:1;stroke-width:1.5875;stroke-linecap:round;stroke-linejoin:round"
     d="M 2.1166667,1.0583333 H 14.816665 c 0.586317,0 1.058334,0.4720166 1.058334,1.0583334 V 14.816665 c 0,0.586317 -0.472017,1.058334 -1.058334,1.058334 H 2.1166667 c -0.5863166,0 -1.0583334,-0.472017 -1.0583334,-1.058334 V 2.1166667 c 0,-0.5863168 0.4720168,-1.0583334 1.0583334,-1.0583334 z"
     sodipodi:nodetypes="sssssssss" />
  <path
     id="rect1280"
     style="opacity:1;fill:url(#linearGradient924);fill-opacity:1;stroke-width:1.05833;stroke-linecap:round;stroke-linejoin:round"
     d="M 2.6458333,2.1166663 H 14.287498 c 0.293158,0 0.529166,0.2360082 0.529166,0.5291666 v 4.7624995 c 0,0.2931582 -0.236008,0.5291666 -0.529166,0.5291666 H 2.6458333 c -0.2931582,0 -0.5291666,-0.2360084 -0.5291666,-0.5291666 V 2.6458329 c 0,-0.2931584 0.2360084,-0.5291666 0.5291666,-0.5291666 z"
     sodipodi:nodetypes="sssssssss" />
  <path
     id="rect1486"
     style="opacity:0.5;fill:#ffffff;stroke-width:1.05833;stroke-linecap:round;stroke-linejoin:round"
     d="M 2.6458333,8.9958326 H 14.287498 c 0.293158,0 0.529166,0.236008 0.529166,0.529167 v 4.7624994 c 0,0.293158 -0.236008,0.529167 -0.529166,0.529167 H 2.6458333 c -0.2931582,0 -0.5291666,-0.236009 -0.5291666,-0.529167 V 9.5249996 c 0,-0.293159 0.2360084,-0.529167 0.5291666,-0.529167 z"
     sodipodi:nodetypes="sssssssss" />
</svg>
