<?xml version="1.0" encoding="UTF-8" standalone="no"?>
<svg
   width="64"
   height="64"
   version="1.1"
   viewBox="0 0 16.933 16.933"
   id="svg6"
   sodipodi:docname="preferences-smart-status.svg"
   inkscape:version="1.2.1 (9c6d41e410, 2022-07-14)"
   xmlns:inkscape="http://www.inkscape.org/namespaces/inkscape"
   xmlns:sodipodi="http://sodipodi.sourceforge.net/DTD/sodipodi-0.dtd"
   xmlns:xlink="http://www.w3.org/1999/xlink"
   xmlns="http://www.w3.org/2000/svg"
   xmlns:svg="http://www.w3.org/2000/svg"
   xmlns:rdf="http://www.w3.org/1999/02/22-rdf-syntax-ns#"
   xmlns:cc="http://creativecommons.org/ns#"
   xmlns:dc="http://purl.org/dc/elements/1.1/">
  <defs
     id="defs10">
    <linearGradient
       inkscape:collect="always"
       id="linearGradient58462">
      <stop
         style="stop-color:#636363;stop-opacity:1;"
         offset="0"
         id="stop58458" />
      <stop
         style="stop-color:#ababab;stop-opacity:0.99607843"
         offset="1"
         id="stop58460" />
    </linearGradient>
    <linearGradient
       inkscape:collect="always"
       id="linearGradient50927">
      <stop
         style="stop-color:#000000;stop-opacity:1;"
         offset="0"
         id="stop50923" />
      <stop
         style="stop-color:#000000;stop-opacity:0;"
         offset="1"
         id="stop50925" />
    </linearGradient>
    <linearGradient
       inkscape:collect="always"
       id="linearGradient50337">
      <stop
         style="stop-color:#ffffff;stop-opacity:1;"
         offset="0"
         id="stop50333" />
      <stop
         style="stop-color:#ffffff;stop-opacity:0;"
         offset="1"
         id="stop50335" />
    </linearGradient>
    <linearGradient
       inkscape:collect="always"
       id="linearGradient48004">
      <stop
         style="stop-color:#ffffff;stop-opacity:0"
         offset="0"
         id="stop48000" />
      <stop
         style="stop-color:#ffffff;stop-opacity:1"
         offset="0.50032598"
         id="stop48328" />
      <stop
         style="stop-color:#ffffff;stop-opacity:0;"
         offset="1"
         id="stop48002" />
    </linearGradient>
    <linearGradient
       inkscape:collect="always"
       id="linearGradient10484">
      <stop
         style="stop-color:#2e2e2e;stop-opacity:1;"
         offset="0"
         id="stop10480" />
      <stop
         style="stop-color:#616161;stop-opacity:1"
         offset="1"
         id="stop10482" />
    </linearGradient>
    <linearGradient
       inkscape:collect="always"
       xlink:href="#linearGradient10484"
       id="linearGradient10486"
       x1="5.2163401"
       y1="13.009703"
       x2="5.2163401"
       y2="16.921772"
       gradientUnits="userSpaceOnUse"
       gradientTransform="matrix(3.7714721,0,0,3.8342871,12.382634,-18.882933)" />
    <filter
       inkscape:collect="always"
       style="color-interpolation-filters:sRGB"
       id="filter30531"
       x="-0.26406024"
       y="-0.26406024"
       width="1.5281205"
       height="1.5281205">
      <feGaussianBlur
         inkscape:collect="always"
         stdDeviation="0.14555117"
         id="feGaussianBlur30533" />
    </filter>
    <linearGradient
       inkscape:collect="always"
       xlink:href="#linearGradient48004"
       id="linearGradient48006"
       x1="0.54178363"
       y1="10.597012"
       x2="3.0651259"
       y2="13.265047"
       gradientUnits="userSpaceOnUse" />
    <radialGradient
       inkscape:collect="always"
       xlink:href="#linearGradient50337"
       id="radialGradient50339"
       cx="3.5557096"
       cy="10.338881"
       fx="3.5557096"
       fy="10.338881"
       r="0.66144532"
       gradientUnits="userSpaceOnUse" />
    <linearGradient
       inkscape:collect="always"
       xlink:href="#linearGradient50927"
       id="linearGradient50929"
       x1="0.81698829"
       y1="6.6935077"
       x2="2.7050784"
       y2="7.9747996"
       gradientUnits="userSpaceOnUse" />
    <linearGradient
       inkscape:collect="always"
       xlink:href="#linearGradient50927"
       id="linearGradient51339"
       gradientUnits="userSpaceOnUse"
       x1="0.81698829"
       y1="6.6935077"
       x2="2.7050784"
       y2="7.9747996"
       gradientTransform="matrix(-1,0,0,1,16.933,0)" />
    <linearGradient
       inkscape:collect="always"
       xlink:href="#linearGradient58462"
       id="linearGradient58464"
       x1="9.5248117"
       y1="8.3342104"
       x2="9.5248108"
       y2="12.56746"
       gradientUnits="userSpaceOnUse" />
    <linearGradient
       inkscape:collect="always"
       xlink:href="#linearGradient48004"
       id="linearGradient71108"
       gradientUnits="userSpaceOnUse"
       x1="0.54178363"
       y1="10.597012"
       x2="3.0651259"
       y2="13.265047"
       gradientTransform="matrix(-1,0,0,1,16.932998,0)" />
    <linearGradient
       inkscape:collect="always"
       xlink:href="#linearGradient59376"
       id="linearGradient59378"
       x1="45.787689"
       y1="-43.129013"
       x2="45.593357"
       y2="-14.11183"
       gradientUnits="userSpaceOnUse"
       gradientTransform="matrix(0.23586362,0,0,0.23656276,2.6938346,13.906817)" />
    <linearGradient
       inkscape:collect="always"
       id="linearGradient59376">
      <stop
         style="stop-color:#189ae1;stop-opacity:1;"
         offset="0"
         id="stop59372" />
      <stop
         style="stop-color:#037cd6;stop-opacity:0.99607843"
         offset="1"
         id="stop59374" />
    </linearGradient>
  </defs>
  <sodipodi:namedview
     id="namedview8"
     pagecolor="#ffffff"
     bordercolor="#666666"
     borderopacity="1.0"
     inkscape:pageshadow="2"
     inkscape:pageopacity="0.0"
     inkscape:pagecheckerboard="0"
     showgrid="false"
     inkscape:zoom="10.633333"
     inkscape:cx="30.94044"
     inkscape:cy="31.692792"
     inkscape:window-width="1920"
     inkscape:window-height="1006"
     inkscape:window-x="0"
     inkscape:window-y="0"
     inkscape:window-maximized="1"
     inkscape:current-layer="svg6"
     inkscape:showpageshadow="2"
     inkscape:deskcolor="#d1d1d1" />
  <metadata
     id="metadata2">
    <rdf:RDF>
      <cc:Work
         rdf:about="">
        <dc:format>image/svg+xml</dc:format>
        <dc:type
           rdf:resource="http://purl.org/dc/dcmitype/StillImage" />
      </cc:Work>
    </rdf:RDF>
  </metadata>
  <path
     id="rect31485"
     style="opacity:1;fill:#e1e3e6;fill-opacity:1;stroke-width:2;stroke-linecap:round;stroke-linejoin:round;stroke-dasharray:24, 2"
     d="m 17.957031,19 c -0.890892,-0.0049 -1.586398,0.272667 -1.914062,0.595703 L 4.5859375,31.585938 6,31 H 18 46 58 L 59.414062,31.585938 47.957031,19.595703 C 47.629366,19.272661 46.933864,18.995087 46.04297,19 Z"
     sodipodi:nodetypes="ccccccccccc"
     transform="scale(0.26457812)" />
  <path
     id="rect31485-9"
     style="fill:url(#linearGradient50929);fill-opacity:1;stroke-width:0.529156;stroke-linecap:round;stroke-linejoin:round;stroke-dasharray:6.34987, 0.529156;opacity:0.3"
     d="m 4.7510375,5.0269843 c -0.2357105,-0.0013 -0.4197262,0.072142 -0.5064189,0.15761 l -3.0312799,3.1723538 0.37413,-0.1550263 h 3.1749375 7.4081878 3.174937 l 0.37413,0.1550263 -3.03128,-3.1723538 c -0.08669,-0.08547 -0.270707,-0.1589098 -0.506419,-0.15761 z"
     sodipodi:nodetypes="ccccccccccc" />
  <path
     id="rect31485-9-0"
     style="opacity:0.3;fill:url(#linearGradient51339);fill-opacity:1;stroke-width:0.529156;stroke-linecap:round;stroke-linejoin:round;stroke-dasharray:6.34987, 0.529156"
     d="m 12.181962,5.0269843 c 0.235711,-0.0013 0.419726,0.072142 0.506419,0.15761 l 3.03128,3.1723539 -0.37413,-0.1550263 H 12.170593 4.7624057 1.5874687 l -0.37413,0.1550263 3.03128,-3.1723538 c 0.08669,-0.08547 0.270707,-0.1589098 0.506419,-0.15761 z"
     sodipodi:nodetypes="ccccccccccc" />
  <path
     id="rect849"
     style="fill:url(#linearGradient58464);stroke-width:0.529156;stroke-linecap:round;stroke-linejoin:round;stroke-dasharray:6.34987, 0.529156;fill-opacity:1"
     d="M 1.5874687,8.2019214 H 15.34553 c 0.293153,0 0.529156,0.236004 0.529156,0.529157 v 3.4395146 c 0,0.293153 -0.236003,0.529156 -0.529156,0.529156 H 1.5874687 c -0.293153,0 -0.529157,-0.236003 -0.529157,-0.529156 V 8.7310784 c 0,-0.293153 0.236004,-0.529157 0.529157,-0.529157 z" />
  <path
     id="rect849-5"
     style="opacity:0.4;fill:url(#linearGradient48006);fill-opacity:1;stroke-width:0.529156;stroke-linecap:round;stroke-linejoin:round;stroke-dasharray:6.34987, 0.529156"
     d="M 1.5874687,8.2019219 H 15.34553 c 0.293153,0 0.529156,0.236004 0.529156,0.529157 v 3.4395141 c 0,0.293153 -0.236003,0.529156 -0.529156,0.529156 H 1.5874687 c -0.293153,0 -0.529157,-0.236003 -0.529157,-0.529156 V 8.7310789 c 0,-0.293153 0.236004,-0.529157 0.529157,-0.529157 z" />
  <path
     id="rect849-5-8"
     style="opacity:0.4;fill:url(#linearGradient71108);fill-opacity:1;stroke-width:0.529156;stroke-linecap:round;stroke-linejoin:round;stroke-dasharray:6.34987, 0.529156"
     d="M 15.345529,8.2019219 H 1.5874677 c -0.293153,0 -0.529156,0.236004 -0.529156,0.529157 v 3.4395141 c 0,0.293153 0.236003,0.529156 0.529156,0.529156 H 15.345529 c 0.293153,0 0.529157,-0.236003 0.529157,-0.529156 V 8.7310789 c 0,-0.293153 -0.236004,-0.529157 -0.529157,-0.529157 z" />
  <path
     id="rect1094"
     style="fill:url(#linearGradient10486);stroke-width:2.01225;stroke-linecap:round;stroke-linejoin:round;stroke-dasharray:24.147, 2.01225"
     d="M 6 31 L 6 44 C 6 45.108002 6.8919999 46 8 46 L 56 46 C 57.107998 46 58 45.108002 58 44 L 58 31 L 6 31 z "
     transform="scale(0.26457812)" />
  <circle
     style="fill:#12ff12;fill-opacity:1;stroke-width:0.5725;stroke-linecap:round;stroke-linejoin:round;stroke-dasharray:6.86999, 0.5725;filter:url(#filter30531);opacity:1"
     id="path25907"
     cx="3.8363829"
     cy="10.186257"
     r="0.66144532" />
  <circle
     style="fill:#12ff12;fill-opacity:1;stroke-width:0.529156;stroke-linecap:round;stroke-linejoin:round;stroke-dasharray:6.34987, 0.529156"
     id="path30449"
     cx="3.8363829"
     cy="10.186257"
     r="0.66144532" />
  <circle
     style="opacity:0.7;fill:url(#radialGradient50339);fill-opacity:1;stroke-width:0.529156;stroke-linecap:round;stroke-linejoin:round;stroke-dasharray:6.34987, 0.529156"
     id="path50091"
     cx="3.8363829"
     cy="10.186257"
     r="0.66144532" />
  <path
     id="path49923"
     style="opacity:0.2;fill:#000000;fill-opacity:1;stroke-width:2;stroke-linecap:round;stroke-linejoin:round;stroke-dasharray:24, 2"
     d="M 15.820312 36.679688 A 2.25 2.25 0 0 1 16.25 38 A 2.25 2.25 0 0 1 14 40.25 A 2.25 2.25 0 0 1 12.679688 39.820312 A 2.25 2.25 0 0 0 14.5 40.75 A 2.25 2.25 0 0 0 16.75 38.5 A 2.25 2.25 0 0 0 15.820312 36.679688 z "
     transform="scale(0.26457812)" />
  <circle
     style="fill:url(#linearGradient59378);fill-opacity:1;stroke-width:0.187495;stroke-linecap:round;stroke-linejoin:round"
     id="path55509"
     cx="13.493484"
     cy="7.143609"
     r="3.4395151" />
  <path
     id="path69248"
     style="opacity:0.2;fill:#4d4d4d;fill-opacity:0.996078;stroke-width:0.392958;stroke-linecap:round;stroke-linejoin:round"
     d="m 13.493484,3.7040952 c -1.899588,0 -3.439515,1.5399279 -3.439515,3.4395172 0,1.8995898 1.539927,3.4395166 3.439515,3.4395166 1.899587,0 3.439516,-1.5399298 3.439516,-3.4395166 0,-1.8995893 -1.539929,-3.4395171 -3.439516,-3.4395172 z m 0,0.2645781 a 3.1749375,3.1749375 0 0 1 3.174938,3.174939 3.1749375,3.1749375 0 0 1 -3.174938,3.1749387 3.1749375,3.1749375 0 0 1 -3.174937,-3.1749387 3.1749375,3.1749375 0 0 1 3.174937,-3.174939 z" />
  <path
     id="path1233"
     style="fill:#ffffff;stroke-width:0.132289;stroke-linejoin:round"
     d="m 13.493485,5.2915641 c -0.14612,0 -0.264578,0.1184601 -0.264578,0.2645783 0,0.14612 0.11846,0.264578 0.264578,0.264578 0.14612,0 0.264578,-0.11846 0.264578,-0.264578 0,-0.1461202 -0.11846,-0.2645783 -0.264578,-0.2645783 z m 0,1.0583126 c -0.14658,0 -0.264578,0.118 -0.264578,0.2645783 v 2.1166252 c 0,0.14658 0.118,0.264578 0.264578,0.264578 0.14658,0 0.264578,-0.1179989 0.264578,-0.264578 V 6.614455 c 0,-0.1465803 -0.118,-0.2645783 -0.264578,-0.2645783 z"
     sodipodi:nodetypes="ssssssssssss" />
</svg>
