<?xml version="1.0" encoding="UTF-8" standalone="no"?>
<!-- Created with Inkscape (http://www.inkscape.org/) -->

<svg
   width="64"
   height="64"
   viewBox="0 0 16.933333 16.933334"
   version="1.1"
   id="svg5"
   inkscape:version="1.1.1 (3bf5ae0d25, 2021-09-20, custom)"
   sodipodi:docname="preferences-system-windows.svg"
   xmlns:inkscape="http://www.inkscape.org/namespaces/inkscape"
   xmlns:sodipodi="http://sodipodi.sourceforge.net/DTD/sodipodi-0.dtd"
   xmlns="http://www.w3.org/2000/svg"
   xmlns:svg="http://www.w3.org/2000/svg">
  <sodipodi:namedview
     id="namedview7"
     pagecolor="#ffffff"
     bordercolor="#666666"
     borderopacity="1.0"
     inkscape:pageshadow="2"
     inkscape:pageopacity="0.0"
     inkscape:pagecheckerboard="0"
     inkscape:document-units="px"
     showgrid="false"
     units="px"
     height="64px"
     inkscape:zoom="12.078125"
     inkscape:cx="31.958603"
     inkscape:cy="32"
     inkscape:window-width="1920"
     inkscape:window-height="996"
     inkscape:window-x="0"
     inkscape:window-y="0"
     inkscape:window-maximized="1"
     inkscape:current-layer="svg5" />
  <defs
     id="defs2" />
  <path
     id="rect261617"
     style="fill:#797774;stroke-width:0.214833;stroke-linecap:round;stroke-linejoin:round"
     d="M 1.5875001,2.6458335 H 15.345833 c 0.586317,0 1.058334,0.4720167 1.058334,1.0583334 V 13.758334 c 0,0.586316 -0.472017,1.058333 -1.058334,1.058333 H 1.5875001 c -0.5863167,0 -1.0583334,-0.472017 -1.0583334,-1.058333 V 3.7041669 c 0,-0.5863167 0.4720167,-1.0583334 1.0583334,-1.0583334 z" />
  <path
     id="rect261619"
     style="fill:#fafafa;stroke-width:0.789524;stroke-linecap:round;stroke-linejoin:round"
     d="M 5 14 C 3.8919998 14 3 14.892 3 16 L 3 52 C 3 53.662002 4.338 55 6 55 L 58 55 C 59.661998 55 61 53.662002 61 52 L 61 16 C 61 14.892 60.107999 14 59 14 L 5 14 z "
     transform="scale(0.26458334)" />
  <path
     id="rect1066"
     style="fill:#c4c4c4;fill-opacity:1;stroke-width:3;stroke-linecap:round;stroke-linejoin:round"
     d="M 48 11 L 48 13 L 50 13 L 50 11 L 48 11 z M 52 11 L 52 13 L 54 13 L 54 11 L 52 11 z M 56 11 L 56 13 L 58 13 L 58 11 L 56 11 z "
     transform="scale(0.26458334)" />
</svg>
