<?xml version="1.0" encoding="UTF-8" standalone="no"?>
<!-- Created with Inkscape (http://www.inkscape.org/) -->

<svg
   width="64"
   height="64"
   viewBox="0 0 16.933333 16.933334"
   version="1.1"
   id="svg5"
   inkscape:version="1.1.1 (3bf5ae0d25, 2021-09-20, custom)"
   sodipodi:docname="preferences-desktop-notification.svg"
   xmlns:inkscape="http://www.inkscape.org/namespaces/inkscape"
   xmlns:sodipodi="http://sodipodi.sourceforge.net/DTD/sodipodi-0.dtd"
   xmlns:xlink="http://www.w3.org/1999/xlink"
   xmlns="http://www.w3.org/2000/svg"
   xmlns:svg="http://www.w3.org/2000/svg">
  <sodipodi:namedview
     id="namedview7"
     pagecolor="#ffffff"
     bordercolor="#666666"
     borderopacity="1.0"
     inkscape:pageshadow="2"
     inkscape:pageopacity="0.0"
     inkscape:pagecheckerboard="0"
     inkscape:document-units="px"
     showgrid="false"
     units="px"
     height="64px"
     inkscape:zoom="6.2109375"
     inkscape:cx="9.7408805"
     inkscape:cy="35.018868"
     inkscape:window-width="1920"
     inkscape:window-height="1009"
     inkscape:window-x="0"
     inkscape:window-y="0"
     inkscape:window-maximized="1"
     inkscape:current-layer="svg5" />
  <defs
     id="defs2">
    <linearGradient
       inkscape:collect="always"
       id="linearGradient1977">
      <stop
         style="stop-color:#28c3fa;stop-opacity:1;"
         offset="0"
         id="stop1973" />
      <stop
         style="stop-color:#0b82d9;stop-opacity:1"
         offset="1"
         id="stop1975" />
    </linearGradient>
    <linearGradient
       inkscape:collect="always"
       xlink:href="#linearGradient1977"
       id="linearGradient1979"
       x1="6"
       y1="7.9997106"
       x2="6.1248212"
       y2="57.866936"
       gradientUnits="userSpaceOnUse" />
  </defs>
  <path
     id="path1484"
     style="color:#000000;fill:url(#linearGradient1979);fill-opacity:1;stroke:none;stroke-width:3.7782;stroke-linecap:round;stroke-linejoin:round;-inkscape-stroke:none"
     d="M 7 6 C 5.338 6 4 7.338 4 9 L 4 43 C 4 44.661998 5.338 46 7 46 L 23.666016 46 L 30.291016 57.033203 A 2.0001458 2.000111 0 0 0 33.716797 57.033203 L 40.335938 46 L 57 46 C 58.662002 46 60 44.661998 60 43 L 60 9 C 60 7.338 58.662002 6 57 6 L 7 6 z "
     transform="scale(0.26458334)" />
  <path
     id="rect1983"
     style="opacity:0.6;fill:#ffffff;stroke-width:1.05833;stroke-linecap:round;stroke-linejoin:round"
     d="m 3.4395833,3.175 h 3.7041669 c 0.1465792,0 0.2645833,0.1180041 0.2645833,0.2645833 V 3.96875 c 0,0.1465792 -0.1180041,0.2645833 -0.2645833,0.2645833 H 3.4395833 C 3.2930041,4.2333333 3.175,4.1153292 3.175,3.96875 V 3.4395833 C 3.175,3.2930041 3.2930041,3.175 3.4395833,3.175 Z" />
  <path
     id="rect2109"
     style="fill:#ffffff;stroke-width:1.05833;stroke-linecap:round;stroke-linejoin:round"
     d="m 3.4395835,9.5249987 h 6.3499999 c 0.1465792,0 0.2645836,0.1180041 0.2645836,0.2645833 v 0.529167 c 0,0.146579 -0.1180044,0.264583 -0.2645836,0.264583 H 3.4395835 c -0.1465791,0 -0.2645833,-0.118004 -0.2645833,-0.264583 V 9.789582 c 0,-0.1465792 0.1180042,-0.2645833 0.2645833,-0.2645833 z" />
  <path
     id="rect2213"
     style="fill:#ffffff;stroke-width:1.3127;stroke-linecap:round;stroke-linejoin:round"
     d="M 3.4395835,5.291667 H 13.49375 c 0.146579,0 0.264583,0.1180042 0.264583,0.2645833 V 6.085417 c 0,0.1465792 -0.118004,0.2645834 -0.264583,0.2645834 H 3.4395835 c -0.1465791,0 -0.2645833,-0.1180042 -0.2645833,-0.2645834 V 5.5562503 c 0,-0.1465791 0.1180042,-0.2645833 0.2645833,-0.2645833 z" />
  <path
     id="rect2317"
     style="opacity:0.6;fill:#ffffff;stroke-width:1.05833;stroke-linecap:round;stroke-linejoin:round"
     d="M 3.4395835,7.4083338 H 13.493751 c 0.146579,0 0.264583,0.1180042 0.264583,0.2645833 v 0.5291667 c 0,0.1465792 -0.118004,0.2645834 -0.264583,0.2645834 H 3.4395835 c -0.1465791,0 -0.2645833,-0.1180042 -0.2645833,-0.2645834 V 7.6729171 c 0,-0.1465791 0.1180042,-0.2645833 0.2645833,-0.2645833 z" />
</svg>
