<?xml version="1.0" encoding="UTF-8" standalone="no"?>
<!-- Created with Inkscape (http://www.inkscape.org/) -->

<svg
   width="64"
   height="64"
   viewBox="0 0 16.933333 16.933334"
   version="1.1"
   id="svg5"
   inkscape:version="1.1.1 (3bf5ae0d25, 2021-09-20, custom)"
   sodipodi:docname="preferences-desktop-effects.svg"
   xmlns:inkscape="http://www.inkscape.org/namespaces/inkscape"
   xmlns:sodipodi="http://sodipodi.sourceforge.net/DTD/sodipodi-0.dtd"
   xmlns:xlink="http://www.w3.org/1999/xlink"
   xmlns="http://www.w3.org/2000/svg"
   xmlns:svg="http://www.w3.org/2000/svg">
  <sodipodi:namedview
     id="namedview7"
     pagecolor="#ffffff"
     bordercolor="#666666"
     borderopacity="1.0"
     inkscape:pageshadow="2"
     inkscape:pageopacity="0.0"
     inkscape:pagecheckerboard="0"
     inkscape:document-units="px"
     showgrid="false"
     units="px"
     height="64px"
     inkscape:zoom="8.0937493"
     inkscape:cx="27.428574"
     inkscape:cy="39.845563"
     inkscape:window-width="1920"
     inkscape:window-height="1000"
     inkscape:window-x="0"
     inkscape:window-y="0"
     inkscape:window-maximized="1"
     inkscape:current-layer="svg5"
     showguides="false" />
  <defs
     id="defs2">
    <linearGradient
       inkscape:collect="always"
       id="linearGradient1134">
      <stop
         style="stop-color:#ffffff;stop-opacity:1;"
         offset="0"
         id="stop1130" />
      <stop
         style="stop-color:#ffffff;stop-opacity:0.7"
         offset="1"
         id="stop1132" />
    </linearGradient>
    <linearGradient
       inkscape:collect="always"
       id="linearGradient1591">
      <stop
         style="stop-color:#0f4f68;stop-opacity:1;"
         offset="0"
         id="stop1587" />
      <stop
         style="stop-color:#03355e;stop-opacity:1"
         offset="1"
         id="stop1589" />
    </linearGradient>
    <linearGradient
       inkscape:collect="always"
       id="linearGradient11972">
      <stop
         style="stop-color:#37d4e1;stop-opacity:1"
         offset="0"
         id="stop11968" />
      <stop
         style="stop-color:#086ebd;stop-opacity:1"
         offset="1"
         id="stop11970" />
    </linearGradient>
    <linearGradient
       inkscape:collect="always"
       xlink:href="#linearGradient11972"
       id="linearGradient1924"
       x1="0.5291667"
       y1="1.5875"
       x2="8.4666672"
       y2="7.9375"
       gradientUnits="userSpaceOnUse"
       gradientTransform="matrix(2,0,0,2,-0.52916674,-1.0583331)" />
    <linearGradient
       inkscape:collect="always"
       xlink:href="#linearGradient1591"
       id="linearGradient1379"
       x1="0.26458335"
       y1="12.170834"
       x2="16.139584"
       y2="12.170834"
       gradientUnits="userSpaceOnUse"
       gradientTransform="translate(0.26458333,1.8520836)" />
    <linearGradient
       inkscape:collect="always"
       xlink:href="#linearGradient1134"
       id="linearGradient1136"
       x1="7.1689491"
       y1="9.2869771"
       x2="8.7564493"
       y2="9.2869771"
       gradientUnits="userSpaceOnUse" />
    <linearGradient
       inkscape:collect="always"
       xlink:href="#linearGradient1134"
       id="linearGradient1717"
       x1="7.1689487"
       y1="4.7890606"
       x2="8.7564497"
       y2="4.7890606"
       gradientUnits="userSpaceOnUse" />
  </defs>
  <rect
     style="fill:url(#linearGradient1924);fill-opacity:1;stroke-width:1.5875;stroke-linecap:round;stroke-linejoin:round"
     id="rect1836"
     width="15.875"
     height="12.7"
     x="0.5291667"
     y="2.1166668"
     ry="0.5291667" />
  <path
     id="rect1409"
     style="fill:url(#linearGradient1379);fill-opacity:1;stroke-width:0.543685;stroke-linecap:round;stroke-linejoin:round"
     d="M 16.404167,13.229167 V 14.2875 c 0,0.293159 -0.236009,0.529168 -0.529167,0.529168 H 1.0583334 c -0.29315838,0 -0.52916673,-0.236009 -0.52916673,-0.529168 v -1.058333 z"
     sodipodi:nodetypes="csssscc" />
  <g
     id="g2013"
     transform="matrix(-0.70710678,-0.70710678,-0.70710678,0.70710678,19.937473,7.8487408)">
    <path
       id="rect854"
       style="opacity:1;fill:url(#linearGradient1717);fill-opacity:1;stroke-width:0.529167;stroke-linecap:round;stroke-linejoin:round"
       d="m 7.433532,3.8630188 h 1.0583333 c 0.1465792,0 0.2645833,0.1180041 0.2645833,0.2645833 l 7e-7,1.5875 H 7.1689494 l -7e-7,-1.5875 C 7.1689486,3.9810229 7.2869528,3.8630188 7.433532,3.8630188 Z"
       sodipodi:nodetypes="sssccss" />
    <path
       id="rect856"
       style="opacity:0.576078;fill:url(#linearGradient1136);fill-opacity:1;stroke-width:0.529167;stroke-linecap:round;stroke-linejoin:round"
       d="m 8.7564493,5.7151021 v 6.8791669 c 0,0.146579 -0.1180041,0.264583 -0.2645833,0.264583 H 7.4335325 c -0.1465792,0 -0.2645834,-0.118004 -0.2645834,-0.264583 V 5.7151021 Z"
       sodipodi:nodetypes="csssscc" />
  </g>
  <path
     id="rect2037"
     style="opacity:1;fill:#ffffff;fill-opacity:1;stroke-width:0.3175;stroke-linecap:round;stroke-linejoin:round"
     d="m 7.9375003,3.1750001 a 0.79374999,0.79375031 0 0 1 -0.7937501,0.79375 0.79374999,0.79375031 0 0 1 0.7937501,0.7937501 0.79374999,0.79375031 0 0 1 0.79375,-0.7937501 0.79374999,0.79375031 0 0 1 -0.79375,-0.79375 z" />
  <path
     id="rect2037-7"
     style="fill:#ffffff;fill-opacity:1;stroke-width:0.211666;stroke-linecap:round;stroke-linejoin:round"
     d="M 6.6145836,6.6145835 A 0.52916662,0.52916684 0 0 1 6.0854169,7.1437501 0.52916662,0.52916684 0 0 1 6.6145836,7.6729168 0.52916662,0.52916684 0 0 1 7.1437502,7.1437501 0.52916662,0.52916684 0 0 1 6.6145836,6.6145835 Z" />
  <path
     id="rect2037-7-5"
     style="fill:#ffffff;fill-opacity:1;stroke-width:0.264583;stroke-linecap:round;stroke-linejoin:round"
     d="M 5.6885419,4.7625 A 0.6614583,0.66145858 0 0 1 5.0270835,5.4239583 0.6614583,0.66145858 0 0 1 5.6885419,6.0854167 0.6614583,0.66145858 0 0 1 6.3500002,5.4239583 0.6614583,0.66145858 0 0 1 5.6885419,4.7625 Z" />
  <path
     id="rect2037-7-5-3"
     style="fill:#ffffff;fill-opacity:1;stroke-width:0.15875;stroke-linecap:round;stroke-linejoin:round"
     d="M 7.540625,5.2916667 A 0.39687497,0.39687514 0 0 1 7.14375,5.6885417 0.39687497,0.39687514 0 0 1 7.540625,6.0854167 0.39687497,0.39687514 0 0 1 7.9375,5.6885417 0.39687497,0.39687514 0 0 1 7.540625,5.2916667 Z" />
</svg>
