<?xml version="1.0" encoding="UTF-8" standalone="no"?>
<!-- Created with Inkscape (http://www.inkscape.org/) -->

<svg
   width="64"
   height="64"
   viewBox="0 0 16.933333 16.933334"
   version="1.1"
   id="svg5"
   inkscape:version="1.1.2 (0a00cf5339, 2022-02-04, custom)"
   sodipodi:docname="preferences-desktop-keyboard-shortcuts.svg"
   xmlns:inkscape="http://www.inkscape.org/namespaces/inkscape"
   xmlns:sodipodi="http://sodipodi.sourceforge.net/DTD/sodipodi-0.dtd"
   xmlns:xlink="http://www.w3.org/1999/xlink"
   xmlns="http://www.w3.org/2000/svg"
   xmlns:svg="http://www.w3.org/2000/svg">
  <sodipodi:namedview
     id="namedview7"
     pagecolor="#ffffff"
     bordercolor="#666666"
     borderopacity="1.0"
     inkscape:pageshadow="2"
     inkscape:pageopacity="0.0"
     inkscape:pagecheckerboard="0"
     inkscape:document-units="px"
     showgrid="false"
     units="px"
     height="64px"
     inkscape:zoom="6.3002807"
     inkscape:cx="48.727988"
     inkscape:cy="64.203489"
     inkscape:window-width="1920"
     inkscape:window-height="1028"
     inkscape:window-x="0"
     inkscape:window-y="0"
     inkscape:window-maximized="1"
     inkscape:current-layer="svg5" />
  <defs
     id="defs2">
    <linearGradient
       inkscape:collect="always"
       id="linearGradient23571">
      <stop
         style="stop-color:#b6bec5;stop-opacity:1;"
         offset="0"
         id="stop23567" />
      <stop
         style="stop-color:#9ba3aa;stop-opacity:1"
         offset="1"
         id="stop23569" />
    </linearGradient>
    <linearGradient
       inkscape:collect="always"
       xlink:href="#linearGradient23571"
       id="linearGradient23573"
       x1="0.5291667"
       y1="5.0270834"
       x2="16.404167"
       y2="12.170834"
       gradientUnits="userSpaceOnUse" />
    <linearGradient
       inkscape:collect="always"
       xlink:href="#linearGradient8163"
       id="linearGradient8165"
       x1="5.7449827"
       y1="8.3089285"
       x2="5.7449827"
       y2="19.347616"
       gradientUnits="userSpaceOnUse"
       gradientTransform="matrix(0.37885288,0,0,0.43143711,12.110497,5.6756368)" />
    <linearGradient
       inkscape:collect="always"
       id="linearGradient8163">
      <stop
         style="stop-color:#e8ebf1;stop-opacity:1;"
         offset="0"
         id="stop8159" />
      <stop
         style="stop-color:#c6cfdd;stop-opacity:1"
         offset="1"
         id="stop8161" />
    </linearGradient>
    <linearGradient
       inkscape:collect="always"
       xlink:href="#linearGradient2733"
       id="linearGradient2735"
       x1="10.259241"
       y1="6.7407818"
       x2="16.000286"
       y2="11.454827"
       gradientUnits="userSpaceOnUse"
       gradientTransform="matrix(0.26458333,0,0,0.26458333,11.1125,8.7312501)" />
    <linearGradient
       inkscape:collect="always"
       id="linearGradient2733">
      <stop
         style="stop-color:#1b9de2;stop-opacity:1;"
         offset="0"
         id="stop2729" />
      <stop
         style="stop-color:#0178d4;stop-opacity:1"
         offset="1"
         id="stop2731" />
    </linearGradient>
  </defs>
  <rect
     style="fill:url(#linearGradient23573);fill-opacity:1;stroke-width:0.264583;stroke-linejoin:round"
     id="rect858"
     width="15.875"
     height="7.1437502"
     x="0.5291667"
     y="5.0270834"
     ry="0.5291667" />
  <path
     id="rect1064"
     style="fill:#edeef0;fill-opacity:1;stroke-width:0.264583;stroke-linejoin:round"
     d="m 1.1839071,5.5562501 c -0.070092,0.00353 -0.1255737,0.061292 -0.1255737,0.1322917 v 0.5291667 c 0,0.07329 0.059002,0.1322917 0.1322916,0.1322917 h 1.0583334 c 0.07329,0 0.1322917,-0.059002 0.1322917,-0.1322917 V 5.6885418 c 0,-0.07329 -0.059002,-0.1322917 -0.1322917,-0.1322917 H 1.190625 c -0.00229,0 -0.00446,-1.137e-4 -0.00672,0 z m 1.5874999,0 c -0.070092,0.00353 -0.1255736,0.061292 -0.1255736,0.1322917 v 0.5291667 c 0,0.07329 0.059002,0.1322917 0.1322917,0.1322917 h 0.79375 c 0.07329,0 0.1322917,-0.059002 0.1322917,-0.1322917 V 5.6885418 c 0,-0.07329 -0.059002,-0.1322917 -0.1322917,-0.1322917 h -0.79375 c -0.0023,0 -0.00446,-1.137e-4 -0.00672,0 z m 1.3229167,0 c -0.070092,0.00353 -0.1255736,0.061292 -0.1255736,0.1322917 v 0.5291667 c 0,0.07329 0.059002,0.1322917 0.1322917,0.1322917 h 0.79375 c 0.07329,0 0.1322917,-0.059002 0.1322917,-0.1322917 V 5.6885418 c 0,-0.07329 -0.059002,-0.1322917 -0.1322917,-0.1322917 h -0.79375 c -0.0023,0 -0.00446,-1.137e-4 -0.00672,0 z m 1.3229167,0 c -0.070092,0.00353 -0.1255736,0.061292 -0.1255736,0.1322917 v 0.5291667 c 0,0.07329 0.059002,0.1322917 0.1322917,0.1322917 h 0.79375 c 0.07329,0 0.1322917,-0.059002 0.1322917,-0.1322917 V 5.6885418 c 0,-0.07329 -0.059002,-0.1322917 -0.1322917,-0.1322917 h -0.79375 c -0.0023,0 -0.00446,-1.137e-4 -0.00672,0 z m 1.3229167,0 c -0.070092,0.00353 -0.1255736,0.061292 -0.1255736,0.1322917 v 0.5291667 c 0,0.07329 0.059002,0.1322917 0.1322917,0.1322917 h 0.79375 c 0.07329,0 0.1322917,-0.059002 0.1322917,-0.1322917 V 5.6885418 c 0,-0.07329 -0.059002,-0.1322917 -0.1322917,-0.1322917 h -0.79375 c -0.0023,0 -0.00446,-1.137e-4 -0.00672,0 z m 1.3229167,0 c -0.070092,0.00353 -0.1255736,0.061292 -0.1255736,0.1322917 v 0.5291667 c 0,0.07329 0.059002,0.1322917 0.1322917,0.1322917 h 0.79375 c 0.07329,0 0.1322917,-0.059002 0.1322917,-0.1322917 V 5.6885418 c 0,-0.07329 -0.059002,-0.1322917 -0.1322917,-0.1322917 h -0.79375 c -0.0023,0 -0.00446,-1.137e-4 -0.00672,0 z m 1.3229167,0 c -0.070092,0.00353 -0.1255736,0.061292 -0.1255736,0.1322917 v 0.5291667 c 0,0.07329 0.059002,0.1322917 0.1322917,0.1322917 h 0.7937504 c 0.07329,0 0.132291,-0.059002 0.132291,-0.1322917 V 5.6885418 c 0,-0.07329 -0.059,-0.1322917 -0.132291,-0.1322917 H 9.3927086 c -0.0023,0 -0.00446,-1.137e-4 -0.00672,0 z m 1.3229165,0 c -0.07009,0.00353 -0.125573,0.061292 -0.125573,0.1322917 v 0.5291667 c 0,0.07329 0.059,0.1322917 0.132291,0.1322917 h 0.79375 c 0.07329,0 0.132292,-0.059002 0.132292,-0.1322917 V 5.6885418 c 0,-0.07329 -0.059,-0.1322917 -0.132292,-0.1322917 h -0.79375 c -0.0023,0 -0.0045,-1.137e-4 -0.0067,0 z m 1.322917,0 c -0.07009,0.00353 -0.125574,0.061292 -0.125574,0.1322917 v 0.5291667 c 0,0.07329 0.059,0.1322917 0.132292,0.1322917 h 0.79375 c 0.07329,0 0.132292,-0.059002 0.132292,-0.1322917 V 5.6885418 c 0,-0.07329 -0.059,-0.1322917 -0.132292,-0.1322917 h -0.79375 c -0.0023,0 -0.0045,-1.137e-4 -0.0067,0 z m 1.322917,0 c -0.07009,0.00353 -0.125574,0.061292 -0.125574,0.1322917 v 0.5291667 c 0,0.07329 0.059,0.1322917 0.132292,0.1322917 h 0.79375 c 0.07329,0 0.132291,-0.059002 0.132291,-0.1322917 V 5.6885418 c 0,-0.07329 -0.059,-0.1322917 -0.132291,-0.1322917 h -0.79375 c -0.0023,0 -0.0045,-1.137e-4 -0.0067,0 z m 1.322916,0 c -0.07009,0.00353 -0.125573,0.061292 -0.125573,0.1322917 v 0.5291667 c 0,0.07329 0.059,0.1322917 0.132291,0.1322917 h 1.058334 c 0.07329,0 0.132291,-0.059002 0.132291,-0.1322917 V 5.6885418 c 0,-0.07329 -0.059,-0.1322917 -0.132291,-0.1322917 h -1.058334 c -0.0023,0 -0.0045,-1.137e-4 -0.0067,0 z M 1.1839071,6.6145835 c -0.070092,0.00353 -0.1255737,0.061292 -0.1255737,0.1322917 v 0.79375 c 0,0.07329 0.059002,0.1322917 0.1322916,0.1322917 h 1.0583334 c 0.07329,0 0.1322917,-0.059002 0.1322917,-0.1322917 v -0.79375 c 0,-0.07329 -0.059002,-0.1322917 -0.1322917,-0.1322917 H 1.190625 c -0.00229,0 -0.00446,-1.138e-4 -0.00672,0 z m 1.5874999,0 c -0.070092,0.00353 -0.1255736,0.061292 -0.1255736,0.1322917 v 0.79375 c 0,0.07329 0.059002,0.1322917 0.1322917,0.1322917 h 0.79375 c 0.07329,0 0.1322917,-0.059002 0.1322917,-0.1322917 v -0.79375 c 0,-0.07329 -0.059002,-0.1322917 -0.1322917,-0.1322917 h -0.79375 c -0.0023,0 -0.00446,-1.138e-4 -0.00672,0 z m 1.3229167,0 c -0.070092,0.00353 -0.1255736,0.061292 -0.1255736,0.1322917 v 0.79375 c 0,0.07329 0.059002,0.1322917 0.1322917,0.1322917 h 0.79375 c 0.07329,0 0.1322917,-0.059002 0.1322917,-0.1322917 v -0.79375 c 0,-0.07329 -0.059002,-0.1322917 -0.1322917,-0.1322917 h -0.79375 c -0.0023,0 -0.00446,-1.138e-4 -0.00672,0 z m 1.3229167,0 c -0.070092,0.00353 -0.1255736,0.061292 -0.1255736,0.1322917 v 0.79375 c 0,0.07329 0.059002,0.1322917 0.1322917,0.1322917 h 0.79375 c 0.07329,0 0.1322917,-0.059002 0.1322917,-0.1322917 v -0.79375 c 0,-0.07329 -0.059002,-0.1322917 -0.1322917,-0.1322917 h -0.79375 c -0.0023,0 -0.00446,-1.138e-4 -0.00672,0 z m 1.3229167,0 c -0.070092,0.00353 -0.1255736,0.061292 -0.1255736,0.1322917 v 0.79375 c 0,0.07329 0.059002,0.1322917 0.1322917,0.1322917 h 0.79375 c 0.07329,0 0.1322917,-0.059002 0.1322917,-0.1322917 v -0.79375 c 0,-0.07329 -0.059002,-0.1322917 -0.1322917,-0.1322917 h -0.79375 c -0.0023,0 -0.00446,-1.138e-4 -0.00672,0 z m 1.3229167,0 c -0.070092,0.00353 -0.1255736,0.061292 -0.1255736,0.1322917 v 0.79375 c 0,0.07329 0.059002,0.1322917 0.1322917,0.1322917 h 0.79375 c 0.07329,0 0.1322917,-0.059002 0.1322917,-0.1322917 v -0.79375 c 0,-0.07329 -0.059002,-0.1322917 -0.1322917,-0.1322917 h -0.79375 c -0.0023,0 -0.00446,-1.138e-4 -0.00672,0 z m 1.3229167,0 c -0.070092,0.00353 -0.1255736,0.061292 -0.1255736,0.1322917 v 0.79375 c 0,0.07329 0.059002,0.1322917 0.1322917,0.1322917 h 0.7937504 c 0.07329,0 0.132291,-0.059002 0.132291,-0.1322917 v -0.79375 c 0,-0.07329 -0.059,-0.1322917 -0.132291,-0.1322917 H 9.3927086 c -0.0023,0 -0.00446,-1.138e-4 -0.00672,0 z m 1.3229165,0 c -0.07009,0.00353 -0.125573,0.061292 -0.125573,0.1322917 v 0.79375 c 0,0.07329 0.059,0.1322917 0.132291,0.1322917 h 0.79375 c 0.07329,0 0.132292,-0.059002 0.132292,-0.1322917 v -0.79375 c 0,-0.07329 -0.059,-0.1322917 -0.132292,-0.1322917 h -0.79375 c -0.0023,0 -0.0045,-1.138e-4 -0.0067,0 z m 1.322917,0 c -0.07009,0.00353 -0.125574,0.061292 -0.125574,0.1322917 v 0.79375 c 0,0.07329 0.059,0.1322917 0.132292,0.1322917 h 0.79375 c 0.07329,0 0.132292,-0.059002 0.132292,-0.1322917 v -0.79375 c 0,-0.07329 -0.059,-0.1322917 -0.132292,-0.1322917 h -0.79375 c -0.0023,0 -0.0045,-1.138e-4 -0.0067,0 z m 1.322917,0 c -0.07009,0.00353 -0.125574,0.061292 -0.125574,0.1322917 v 0.79375 c 0,0.07329 0.059,0.1322917 0.132292,0.1322917 h 0.79375 c 0.07329,0 0.132291,-0.059002 0.132291,-0.1322917 v -0.79375 c 0,-0.07329 -0.059,-0.1322917 -0.132291,-0.1322917 h -0.79375 c -0.0023,0 -0.0045,-1.138e-4 -0.0067,0 z m 1.322916,0 c -0.07009,0.00353 -0.125573,0.061292 -0.125573,0.1322917 v 0.79375 c 0,0.07329 0.059,0.1322917 0.132291,0.1322917 h 1.058334 c 0.07329,0 0.132291,-0.059002 0.132291,-0.1322917 v -0.79375 c 0,-0.07329 -0.059,-0.1322917 -0.132291,-0.1322917 h -1.058334 c -0.0023,0 -0.0045,-1.138e-4 -0.0067,0 z M 1.1839071,7.9375002 c -0.070092,0.00353 -0.1255737,0.061292 -0.1255737,0.1322917 v 0.79375 c 0,0.07329 0.059002,0.1322917 0.1322916,0.1322917 h 1.8520834 c 0.07329,0 0.1322917,-0.059002 0.1322917,-0.1322917 v -0.79375 c 0,-0.07329 -0.059002,-0.1322917 -0.1322917,-0.1322917 H 1.190625 c -0.00229,0 -0.00446,-1.138e-4 -0.00672,0 z m 2.38125,0 c -0.070092,0.00353 -0.1255737,0.061292 -0.1255737,0.1322917 v 0.79375 c 0,0.07329 0.059002,0.1322917 0.1322917,0.1322917 h 0.79375 c 0.07329,0 0.1322917,-0.059002 0.1322917,-0.1322917 v -0.79375 c 0,-0.07329 -0.059002,-0.1322917 -0.1322917,-0.1322917 h -0.79375 c -0.0023,0 -0.00446,-1.138e-4 -0.00672,0 z m 1.3229167,0 c -0.070092,0.00353 -0.1255737,0.061292 -0.1255737,0.1322917 v 0.79375 c 0,0.07329 0.059002,0.1322917 0.1322917,0.1322917 h 0.79375 c 0.07329,0 0.1322917,-0.059002 0.1322917,-0.1322917 v -0.79375 c 0,-0.07329 -0.059002,-0.1322917 -0.1322917,-0.1322917 h -0.79375 c -0.0023,0 -0.00446,-1.138e-4 -0.00672,0 z m 1.3229167,0 c -0.070092,0.00353 -0.1255737,0.061292 -0.1255737,0.1322917 v 0.79375 c 0,0.07329 0.059002,0.1322917 0.1322917,0.1322917 h 0.79375 c 0.07329,0 0.1322917,-0.059002 0.1322917,-0.1322917 v -0.79375 c 0,-0.07329 -0.059002,-0.1322917 -0.1322917,-0.1322917 h -0.79375 c -0.0023,0 -0.00446,-1.138e-4 -0.00672,0 z m 1.3229167,0 c -0.070092,0.00353 -0.1255737,0.061292 -0.1255737,0.1322917 v 0.79375 c 0,0.07329 0.059002,0.1322917 0.1322917,0.1322917 h 0.79375 c 0.07329,0 0.1322917,-0.059002 0.1322917,-0.1322917 v -0.79375 c 0,-0.07329 -0.059002,-0.1322917 -0.1322917,-0.1322917 h -0.79375 c -0.0023,0 -0.00446,-1.138e-4 -0.00672,0 z m 1.3229167,0 c -0.070092,0.00353 -0.1255737,0.061292 -0.1255737,0.1322917 v 0.79375 c 0,0.07329 0.059002,0.1322917 0.1322917,0.1322917 h 0.79375 c 0.07329,0 0.1322917,-0.059002 0.1322917,-0.1322917 v -0.79375 c 0,-0.07329 -0.059002,-0.1322917 -0.1322917,-0.1322917 h -0.79375 c -0.0023,0 -0.00446,-1.138e-4 -0.00672,0 z m 1.3229171,0 c -0.07009,0.00353 -0.125574,0.061292 -0.125574,0.1322917 v 0.79375 c 0,0.07329 0.059,0.1322917 0.132292,0.1322917 h 0.79375 c 0.07329,0 0.132291,-0.059002 0.132291,-0.1322917 v -0.79375 c 0,-0.07329 -0.059,-0.1322917 -0.132291,-0.1322917 h -0.79375 c -0.0023,0 -0.0045,-1.138e-4 -0.0067,0 z m 1.322916,0 c -0.07009,0.00353 -0.125573,0.061292 -0.125573,0.1322917 v 0.79375 c 0,0.07329 0.059,0.1322917 0.132291,0.1322917 h 0.79375 c 0.07329,0 0.132292,-0.059002 0.132292,-0.1322917 v -0.79375 c 0,-0.07329 -0.059,-0.1322917 -0.132292,-0.1322917 h -0.79375 c -0.0023,0 -0.0045,-1.138e-4 -0.0067,0 z m 1.322917,0 C 12.755482,7.9410303 12.7,7.9987925 12.7,8.0697919 v 0.79375 c 0,0.07329 0.059,0.1322917 0.132292,0.1322917 h 0.79375 c 0.07329,0 0.132292,-0.059002 0.132292,-0.1322917 v -0.79375 c 0,-0.07329 -0.059,-0.1322917 -0.132292,-0.1322917 h -0.79375 c -0.0023,0 -0.0045,-1.138e-4 -0.0067,0 z m 1.322917,0 c -0.07009,0.00353 -0.125574,0.061292 -0.125574,0.1322917 v 0.79375 c 0,0.07329 0.059,0.1322917 0.132292,0.1322917 h 1.5875 c 0.07329,0 0.132291,-0.059002 0.132291,-0.1322917 v -0.79375 c 0,-0.07329 -0.059,-0.1322917 -0.132291,-0.1322917 h -1.5875 c -0.0023,0 -0.0045,-1.138e-4 -0.0067,0 z M 1.190625,9.2604169 c -0.07329,0 -0.1322916,0.059002 -0.1322916,0.1322917 v 0.7937504 c 0,0.07329 0.059002,0.132291 0.1322916,0.132291 h 2.3812501 c 0.07329,0 0.1322917,-0.059 0.1322917,-0.132291 V 9.3927086 c 0,-0.07329 -0.059002,-0.1322917 -0.1322917,-0.1322917 z m 2.9036987,0 c -0.070092,0.00353 -0.1255736,0.061292 -0.1255736,0.1322917 v 0.7937504 c 0,0.07329 0.059002,0.132291 0.1322917,0.132291 h 0.79375 c 0.07329,0 0.1322917,-0.059 0.1322917,-0.132291 V 9.3927086 c 0,-0.07329 -0.059002,-0.1322917 -0.1322917,-0.1322917 h -0.79375 c -0.0023,0 -0.00446,-1.138e-4 -0.00672,0 z m 1.3229167,0 c -0.070092,0.00353 -0.1255736,0.061292 -0.1255736,0.1322917 v 0.7937504 c 0,0.07329 0.059002,0.132291 0.1322917,0.132291 h 0.79375 c 0.07329,0 0.1322917,-0.059 0.1322917,-0.132291 V 9.3927086 c 0,-0.07329 -0.059002,-0.1322917 -0.1322917,-0.1322917 h -0.79375 c -0.0023,0 -0.00446,-1.138e-4 -0.00672,0 z m 1.3229167,0 c -0.070092,0.00353 -0.1255736,0.061292 -0.1255736,0.1322917 v 0.7937504 c 0,0.07329 0.059002,0.132291 0.1322917,0.132291 h 0.79375 c 0.07329,0 0.1322917,-0.059 0.1322917,-0.132291 V 9.3927086 c 0,-0.07329 -0.059002,-0.1322917 -0.1322917,-0.1322917 h -0.79375 c -0.0023,0 -0.00446,-1.138e-4 -0.00672,0 z m 1.3229167,0 C 7.992982,9.263947 7.9375002,9.3217092 7.9375002,9.3927086 v 0.7937504 c 0,0.07329 0.059002,0.132291 0.1322917,0.132291 h 0.79375 c 0.07329,0 0.1322917,-0.059 0.1322917,-0.132291 V 9.3927086 c 0,-0.07329 -0.059002,-0.1322917 -0.1322917,-0.1322917 h -0.79375 c -0.0023,0 -0.00446,-1.138e-4 -0.00672,0 z m 1.3229167,0 c -0.070092,0.00353 -0.1255736,0.061292 -0.1255736,0.1322917 v 0.7937504 c 0,0.07329 0.059002,0.132291 0.1322917,0.132291 h 0.7937504 c 0.07329,0 0.132291,-0.059 0.132291,-0.132291 V 9.3927086 c 0,-0.07329 -0.059,-0.1322917 -0.132291,-0.1322917 H 9.3927086 c -0.0023,0 -0.00446,-1.138e-4 -0.00672,0 z m 1.3229165,0 c -0.07009,0.00353 -0.125573,0.061292 -0.125573,0.1322917 v 0.7937504 c 0,0.07329 0.059,0.132291 0.132291,0.132291 h 0.79375 c 0.07329,0 0.132292,-0.059 0.132292,-0.132291 V 9.3927086 c 0,-0.07329 -0.059,-0.1322917 -0.132292,-0.1322917 h -0.79375 c -0.0023,0 -0.0045,-1.138e-4 -0.0067,0 z m 1.322917,0 c -0.07009,0.00353 -0.125574,0.061292 -0.125574,0.1322917 v 0.7937504 c 0,0.07329 0.059,0.132291 0.132292,0.132291 h 0.79375 c 0.07329,0 0.132292,-0.059 0.132292,-0.132291 V 9.3927086 c 0,-0.07329 -0.059,-0.1322917 -0.132292,-0.1322917 h -0.79375 c -0.0023,0 -0.0045,-1.138e-4 -0.0067,0 z m 1.329635,0 c -0.07329,0 -0.132292,0.059002 -0.132292,0.1322917 v 0.7937504 c 0,0.07329 0.059,0.132291 0.132292,0.132291 h 2.38125 c 0.07329,0 0.132291,-0.059 0.132291,-0.132291 V 9.3927086 c 0,-0.07329 -0.059,-0.1322917 -0.132291,-0.1322917 z M 1.1839071,10.583334 c -0.070092,0.0035 -0.1255737,0.06129 -0.1255737,0.132291 v 0.79375 c 0,0.07329 0.059002,0.132292 0.1322916,0.132292 h 1.0583334 c 0.07329,0 0.1322917,-0.059 0.1322917,-0.132292 v -0.79375 c 0,-0.07329 -0.059002,-0.132291 -0.1322917,-0.132291 H 1.190625 c -0.00229,0 -0.00446,-1.14e-4 -0.00672,0 z m 1.5874999,0 c -0.070092,0.0035 -0.1255736,0.06129 -0.1255736,0.132291 v 0.79375 c 0,0.07329 0.059002,0.132292 0.1322917,0.132292 h 0.79375 c 0.07329,0 0.1322917,-0.059 0.1322917,-0.132292 v -0.79375 c 0,-0.07329 -0.059002,-0.132291 -0.1322917,-0.132291 h -0.79375 c -0.0023,0 -0.00446,-1.14e-4 -0.00672,0 z m 1.3229167,0 c -0.070092,0.0035 -0.1255736,0.06129 -0.1255736,0.132291 v 0.79375 c 0,0.07329 0.059002,0.132292 0.1322917,0.132292 h 0.79375 c 0.07329,0 0.1322917,-0.059 0.1322917,-0.132292 v -0.79375 c 0,-0.07329 -0.059002,-0.132291 -0.1322917,-0.132291 h -0.79375 c -0.0023,0 -0.00446,-1.14e-4 -0.00672,0 z m 1.3296348,0 c -0.07329,0 -0.1322917,0.059 -0.1322917,0.132291 v 0.79375 c 0,0.07329 0.059002,0.132292 0.1322917,0.132292 h 6.0854165 c 0.07329,0 0.132292,-0.059 0.132292,-0.132292 v -0.79375 c 0,-0.07329 -0.059,-0.132291 -0.132292,-0.132291 z m 6.6078655,0 c -0.07009,0.0035 -0.125574,0.06129 -0.125574,0.132291 v 0.79375 c 0,0.07329 0.059,0.132292 0.132292,0.132292 h 0.79375 c 0.07329,0 0.132292,-0.059 0.132292,-0.132292 v -0.79375 c 0,-0.07329 -0.059,-0.132291 -0.132292,-0.132291 h -0.79375 c -0.0023,0 -0.0045,-1.14e-4 -0.0067,0 z m 1.322917,0 c -0.07009,0.0035 -0.125574,0.06129 -0.125574,0.132291 v 0.79375 c 0,0.07329 0.059,0.132292 0.132292,0.132292 h 0.79375 c 0.07329,0 0.132291,-0.059 0.132291,-0.132292 v -0.79375 c 0,-0.07329 -0.059,-0.132291 -0.132291,-0.132291 h -0.79375 c -0.0023,0 -0.0045,-1.14e-4 -0.0067,0 z m 1.322916,0 c -0.07009,0.0035 -0.125573,0.06129 -0.125573,0.132291 v 0.79375 c 0,0.07329 0.059,0.132292 0.132291,0.132292 h 1.058334 c 0.07329,0 0.132291,-0.059 0.132291,-0.132292 v -0.79375 c 0,-0.07329 -0.059,-0.132291 -0.132291,-0.132291 h -1.058334 c -0.0023,0 -0.0045,-1.14e-4 -0.0067,0 z" />
  <path
     id="rect1064-9"
     style="fill:#979ea5;fill-opacity:0.996078;stroke-width:0.264583;stroke-linejoin:round"
     d="m 1.0583334,6.2177085 v 0.2645833 c 0,0.07329 0.059002,0.1322917 0.1322916,0.1322917 h 1.0583334 c 0.07329,0 0.1322917,-0.059002 0.1322917,-0.1322917 V 6.2177085 c 0,0.07329 -0.059002,0.1322917 -0.1322917,0.1322917 H 1.190625 c -0.07329,0 -0.1322916,-0.059003 -0.1322916,-0.1322917 z m 1.5875,0 v 0.2645833 c 0,0.07329 0.059002,0.1322917 0.1322917,0.1322917 h 0.79375 c 0.07329,0 0.1322917,-0.059002 0.1322917,-0.1322917 V 6.2177085 c 0,0.07329 -0.059002,0.1322917 -0.1322917,0.1322917 h -0.79375 c -0.07329,0 -0.1322917,-0.059003 -0.1322917,-0.1322917 z m 1.3229167,0 v 0.2645833 c 0,0.07329 0.059002,0.1322917 0.1322917,0.1322917 h 0.79375 c 0.07329,0 0.1322917,-0.059002 0.1322917,-0.1322917 V 6.2177085 c 0,0.07329 -0.059002,0.1322917 -0.1322917,0.1322917 h -0.79375 c -0.07329,0 -0.1322917,-0.059003 -0.1322917,-0.1322917 z m 1.3229167,0 v 0.2645833 c 0,0.07329 0.059002,0.1322917 0.1322917,0.1322917 h 0.79375 c 0.07329,0 0.1322917,-0.059002 0.1322917,-0.1322917 V 6.2177085 c 0,0.07329 -0.059002,0.1322917 -0.1322917,0.1322917 h -0.79375 c -0.07329,0 -0.1322917,-0.059003 -0.1322917,-0.1322917 z m 1.3229167,0 v 0.2645833 c 0,0.07329 0.059001,0.1322917 0.1322917,0.1322917 h 0.79375 c 0.07329,0 0.1322917,-0.059002 0.1322917,-0.1322917 V 6.2177085 c 0,0.07329 -0.059002,0.1322917 -0.1322917,0.1322917 h -0.79375 c -0.073291,0 -0.1322917,-0.059003 -0.1322917,-0.1322917 z m 1.3229167,0 v 0.2645833 c 0,0.07329 0.059,0.1322917 0.1322917,0.1322917 h 0.79375 c 0.07329,0 0.1322917,-0.059002 0.1322917,-0.1322917 V 6.2177085 c 0,0.07329 -0.059002,0.1322917 -0.1322917,0.1322917 h -0.79375 c -0.073291,0 -0.1322917,-0.059003 -0.1322917,-0.1322917 z m 1.3229167,0 v 0.2645833 c 0,0.07329 0.059,0.1322917 0.1322917,0.1322917 h 0.7937504 c 0.07329,0 0.132291,-0.059002 0.132291,-0.1322917 V 6.2177085 c 0,0.07329 -0.059,0.1322917 -0.132291,0.1322917 H 9.3927086 c -0.073292,0 -0.1322917,-0.059003 -0.1322917,-0.1322917 z m 1.3229171,0 v 0.2645833 c 0,0.07329 0.059,0.1322917 0.132291,0.1322917 h 0.79375 c 0.07329,0 0.132292,-0.059002 0.132292,-0.1322917 V 6.2177085 c 0,0.07329 -0.059,0.1322917 -0.132292,0.1322917 h -0.79375 c -0.07329,0 -0.132291,-0.059003 -0.132291,-0.1322917 z m 1.322916,0 v 0.2645833 c 0,0.07329 0.059,0.1322917 0.132292,0.1322917 h 0.79375 c 0.07329,0 0.132292,-0.059002 0.132292,-0.1322917 V 6.2177085 c 0,0.07329 -0.059,0.1322917 -0.132292,0.1322917 h -0.79375 c -0.07329,0 -0.132292,-0.059003 -0.132292,-0.1322917 z m 1.322917,0 v 0.2645833 c 0,0.07329 0.059,0.1322917 0.132292,0.1322917 h 0.79375 c 0.07329,0 0.132291,-0.059002 0.132291,-0.1322917 V 6.2177085 c 0,0.07329 -0.059,0.1322917 -0.132291,0.1322917 h -0.79375 c -0.07329,0 -0.132292,-0.059003 -0.132292,-0.1322917 z m 1.322917,0 v 0.2645833 c 0,0.07329 0.059,0.1322917 0.132291,0.1322917 h 1.058334 c 0.07329,0 0.132291,-0.059002 0.132291,-0.1322917 V 6.2177085 c 0,0.07329 -0.059,0.1322917 -0.132291,0.1322917 h -1.058334 c -0.07329,0 -0.132291,-0.059003 -0.132291,-0.1322917 z M 1.0583334,7.5406252 v 0.2645833 c 0,0.07329 0.059002,0.1322917 0.1322916,0.1322917 h 1.0583334 c 0.07329,0 0.1322917,-0.059002 0.1322917,-0.1322917 V 7.5406252 c 0,0.07329 -0.059002,0.1322917 -0.1322917,0.1322917 H 1.190625 c -0.07329,0 -0.1322916,-0.059003 -0.1322916,-0.1322917 z m 1.5875,0 v 0.2645833 c 0,0.07329 0.059002,0.1322917 0.1322917,0.1322917 h 0.2645833 0.5224487 0.00672 c 0.07329,0 0.1322917,-0.059002 0.1322917,-0.1322917 V 7.5406252 c 0,0.07329 -0.059002,0.1322917 -0.1322917,0.1322917 h -0.79375 c -0.07329,0 -0.1322917,-0.059003 -0.1322917,-0.1322917 z m 1.3229167,0 v 0.2645833 c 0,0.07329 0.059002,0.1322917 0.1322917,0.1322917 h 0.2645833 0.5224487 0.00672 c 0.07329,0 0.1322917,-0.059002 0.1322917,-0.1322917 V 7.5406252 c 0,0.07329 -0.059002,0.1322917 -0.1322917,0.1322917 h -0.79375 c -0.07329,0 -0.1322917,-0.059003 -0.1322917,-0.1322917 z m 1.3229167,0 v 0.2645833 c 0,0.07329 0.059002,0.1322917 0.1322917,0.1322917 h 0.2645833 0.5224487 0.00672 c 0.07329,0 0.1322917,-0.059002 0.1322917,-0.1322917 V 7.5406252 c 0,0.07329 -0.059002,0.1322917 -0.1322917,0.1322917 h -0.79375 c -0.07329,0 -0.1322917,-0.059003 -0.1322917,-0.1322917 z m 1.3229167,0 v 0.2645833 c 0,0.07329 0.059001,0.1322917 0.1322917,0.1322917 h 0.2645833 0.5224487 0.00672 c 0.07329,0 0.1322917,-0.059002 0.1322917,-0.1322917 V 7.5406252 c 0,0.07329 -0.059002,0.1322917 -0.1322917,0.1322917 h -0.79375 c -0.073291,0 -0.1322917,-0.059003 -0.1322917,-0.1322917 z m 1.3229167,0 v 0.2645833 c 0,0.07329 0.059,0.1322917 0.1322917,0.1322917 h 0.2645833 0.5224487 0.00672 c 0.07329,0 0.1322917,-0.059002 0.1322917,-0.1322917 V 7.5406252 c 0,0.07329 -0.059002,0.1322917 -0.1322917,0.1322917 h -0.79375 c -0.073291,0 -0.1322917,-0.059003 -0.1322917,-0.1322917 z m 1.3229167,0 v 0.2645833 c 0,0.07329 0.059,0.1322917 0.1322917,0.1322917 h 0.2645833 0.5224491 0.0067 c 0.07329,0 0.132291,-0.059002 0.132291,-0.1322917 V 7.5406252 c 0,0.07329 -0.059,0.1322917 -0.132291,0.1322917 H 9.3927086 c -0.073292,0 -0.1322917,-0.059003 -0.1322917,-0.1322917 z m 1.3229171,0 v 0.2645833 c 0,0.07329 0.059,0.1322917 0.132291,0.1322917 h 0.264584 0.522448 0.0067 c 0.07329,0 0.132292,-0.059002 0.132292,-0.1322917 V 7.5406252 c 0,0.07329 -0.059,0.1322917 -0.132292,0.1322917 h -0.79375 c -0.07329,0 -0.132291,-0.059003 -0.132291,-0.1322917 z m 1.322916,0 v 0.2645833 c 0,0.07329 0.059,0.1322917 0.132292,0.1322917 h 0.264583 0.522449 0.0067 c 0.07329,0 0.132292,-0.059002 0.132292,-0.1322917 V 7.5406252 c 0,0.07329 -0.059,0.1322917 -0.132292,0.1322917 h -0.79375 c -0.07329,0 -0.132292,-0.059003 -0.132292,-0.1322917 z m 1.322917,0 v 0.2645833 c 0,0.07329 0.059,0.1322917 0.132292,0.1322917 h 0.264583 0.522449 0.0067 c 0.07329,0 0.132291,-0.059002 0.132291,-0.1322917 V 7.5406252 c 0,0.07329 -0.059,0.1322917 -0.132291,0.1322917 h -0.79375 c -0.07329,0 -0.132292,-0.059003 -0.132292,-0.1322917 z m 1.322917,0 v 0.2645833 c 0,0.07329 0.059,0.1322917 0.132291,0.1322917 h 1.058334 c 0.07329,0 0.132291,-0.059002 0.132291,-0.1322917 V 7.5406252 c 0,0.07329 -0.059,0.1322917 -0.132291,0.1322917 h -1.058334 c -0.07329,0 -0.132291,-0.059003 -0.132291,-0.1322917 z M 1.0583334,8.8635419 v 0.2645833 c 0,0.073289 0.059002,0.1322917 0.1322916,0.1322917 h 1.8520834 c 0.07329,0 0.1322917,-0.059002 0.1322917,-0.1322917 V 8.8635419 c 0,0.07329 -0.059002,0.1322917 -0.1322917,0.1322917 H 1.190625 c -0.07329,0 -0.1322916,-0.059003 -0.1322916,-0.1322917 z m 2.38125,0 v 0.2645833 c 0,0.073289 0.059002,0.1322917 0.1322917,0.1322917 h 0.5224486 0.2713014 c 0.07329,0 0.1322917,-0.059002 0.1322917,-0.1322917 V 8.8635419 c 0,0.07329 -0.059002,0.1322917 -0.1322917,0.1322917 h -0.79375 c -0.07329,0 -0.1322917,-0.059003 -0.1322917,-0.1322917 z m 1.3229167,0 v 0.2645833 c 0,0.073289 0.059002,0.1322917 0.1322917,0.1322917 h 0.5224486 0.2713014 c 0.07329,0 0.1322917,-0.059002 0.1322917,-0.1322917 V 8.8635419 c 0,0.07329 -0.059002,0.1322917 -0.1322917,0.1322917 h -0.79375 c -0.07329,0 -0.1322917,-0.059003 -0.1322917,-0.1322917 z m 1.3229167,0 v 0.2645833 c 0,0.073289 0.059001,0.1322917 0.1322917,0.1322917 h 0.5224486 0.2713014 c 0.07329,0 0.1322917,-0.059002 0.1322917,-0.1322917 V 8.8635419 c 0,0.07329 -0.059002,0.1322917 -0.1322917,0.1322917 h -0.79375 c -0.073292,0 -0.1322917,-0.059003 -0.1322917,-0.1322917 z m 1.3229167,0 v 0.2645833 c 0,0.073289 0.059001,0.1322917 0.1322917,0.1322917 h 0.5224486 0.2713014 c 0.07329,0 0.1322917,-0.059002 0.1322917,-0.1322917 V 8.8635419 c 0,0.07329 -0.059002,0.1322917 -0.1322917,0.1322917 h -0.79375 c -0.073291,0 -0.1322917,-0.059003 -0.1322917,-0.1322917 z m 1.3229167,0 v 0.2645833 c 0,0.073289 0.059,0.1322917 0.1322917,0.1322917 h 0.5224486 0.2713014 c 0.07329,0 0.1322917,-0.059002 0.1322917,-0.1322917 V 8.8635419 c 0,0.07329 -0.059002,0.1322917 -0.1322917,0.1322917 h -0.79375 c -0.073291,0 -0.1322917,-0.059003 -0.1322917,-0.1322917 z m 1.3229168,0 v 0.2645833 c 0,0.073289 0.059,0.1322917 0.132292,0.1322917 h 0.522448 0.271302 c 0.07329,0 0.132291,-0.059002 0.132291,-0.1322917 V 8.8635419 c 0,0.07329 -0.059,0.1322917 -0.132291,0.1322917 h -0.79375 c -0.07329,0 -0.132292,-0.059003 -0.132292,-0.1322917 z m 1.322917,0 v 0.2645833 c 0,0.073289 0.059,0.1322917 0.132291,0.1322917 h 0.522449 0.271301 c 0.07329,0 0.132292,-0.059002 0.132292,-0.1322917 V 8.8635419 c 0,0.07329 -0.059,0.1322917 -0.132292,0.1322917 h -0.79375 c -0.07329,0 -0.132291,-0.059003 -0.132291,-0.1322917 z m 1.322916,0 v 0.2645833 c 0,0.073289 0.059,0.1322917 0.132292,0.1322917 h 0.529167 0.264583 c 0.07329,0 0.132292,-0.059002 0.132292,-0.1322917 V 8.8635419 c 0,0.07329 -0.059,0.1322917 -0.132292,0.1322917 h -0.79375 C 12.759001,8.9958336 12.7,8.9368309 12.7,8.8635419 Z m 1.322917,0 v 0.2645833 c 0,0.073289 0.059,0.1322917 0.132292,0.1322917 h 1.5875 c 0.07329,0 0.132291,-0.059002 0.132291,-0.1322917 V 8.8635419 c 0,0.07329 -0.059,0.1322917 -0.132291,0.1322917 h -1.5875 c -0.07329,0 -0.132292,-0.059003 -0.132292,-0.1322917 z M 1.0583334,10.186459 v 0.264583 c 0,0.07329 0.059002,0.132292 0.1322916,0.132292 H 2.2489584 2.771407 3.5718751 c 0.07329,0 0.1322917,-0.059 0.1322917,-0.132292 v -0.264583 c 0,0.07329 -0.059002,0.132291 -0.1322917,0.132291 H 1.190625 c -0.07329,0 -0.1322916,-0.059 -0.1322916,-0.132291 z m 2.9104167,0 v 0.264583 c 0,0.07329 0.059002,0.132292 0.1322917,0.132292 h 0.79375 c 0.07329,0 0.1322917,-0.059 0.1322917,-0.132292 v -0.264583 c 0,0.07329 -0.059002,0.132291 -0.1322917,0.132291 h -0.79375 c -0.07329,0 -0.1322917,-0.059 -0.1322917,-0.132291 z m 1.3229167,0 v 0.264583 c 0,0.07329 0.059002,0.132292 0.1322917,0.132292 h 0.79375 c 0.07329,0 0.1322917,-0.059 0.1322917,-0.132292 v -0.264583 c 0,0.07329 -0.059002,0.132291 -0.1322917,0.132291 h -0.79375 c -0.07329,0 -0.1322917,-0.059 -0.1322917,-0.132291 z m 1.3229167,0 v 0.264583 c 0,0.07329 0.059001,0.132292 0.1322917,0.132292 h 0.79375 c 0.07329,0 0.1322917,-0.059 0.1322917,-0.132292 v -0.264583 c 0,0.07329 -0.059002,0.132291 -0.1322917,0.132291 h -0.79375 c -0.073291,0 -0.1322917,-0.059 -0.1322917,-0.132291 z m 1.3229167,0 v 0.264583 c 0,0.07329 0.059,0.132292 0.1322917,0.132292 h 0.79375 c 0.07329,0 0.1322917,-0.059 0.1322917,-0.132292 v -0.264583 c 0,0.07329 -0.059002,0.132291 -0.1322917,0.132291 h -0.79375 c -0.073291,0 -0.1322917,-0.059 -0.1322917,-0.132291 z m 1.3229167,0 v 0.264583 c 0,0.07329 0.059,0.132292 0.1322917,0.132292 h 0.7937504 c 0.07329,0 0.132291,-0.059 0.132291,-0.132292 v -0.264583 c 0,0.07329 -0.059,0.132291 -0.132291,0.132291 H 9.3927086 c -0.073292,0 -0.1322917,-0.059 -0.1322917,-0.132291 z m 1.3229171,0 v 0.264583 c 0,0.07329 0.059,0.132292 0.132291,0.132292 h 0.79375 c 0.07329,0 0.132292,-0.059 0.132292,-0.132292 v -0.264583 c 0,0.07329 -0.059,0.132291 -0.132292,0.132291 h -0.79375 c -0.07329,0 -0.132291,-0.059 -0.132291,-0.132291 z m 1.322916,0 v 0.264583 c 0,0.07329 0.059,0.132292 0.132292,0.132292 h 0.79375 c 0.07329,0 0.132292,-0.059 0.132292,-0.132292 v -0.264583 c 0,0.07329 -0.059,0.132291 -0.132292,0.132291 h -0.79375 c -0.07329,0 -0.132292,-0.059 -0.132292,-0.132291 z m 1.322917,0 v 0.264583 c 0,0.07329 0.059,0.132292 0.132292,0.132292 h 0.79375 0.522448 1.065052 c 0.07329,0 0.132291,-0.059 0.132291,-0.132292 v -0.264583 c 0,0.07329 -0.059,0.132291 -0.132291,0.132291 h -2.38125 c -0.07329,0 -0.132292,-0.059 -0.132292,-0.132291 z M 1.0583334,11.509375 v 0.264584 c 0,0.07329 0.059002,0.132291 0.1322916,0.132291 h 1.0583334 c 0.07329,0 0.1322917,-0.059 0.1322917,-0.132291 v -0.264584 c 0,0.07329 -0.059002,0.132292 -0.1322917,0.132292 H 1.190625 c -0.07329,0 -0.1322916,-0.059 -0.1322916,-0.132292 z m 1.5875,0 v 0.264584 c 0,0.07329 0.059002,0.132291 0.1322917,0.132291 h 0.79375 c 0.07329,0 0.1322917,-0.059 0.1322917,-0.132291 v -0.264584 c 0,0.07329 -0.059002,0.132292 -0.1322917,0.132292 h -0.79375 c -0.07329,0 -0.1322917,-0.059 -0.1322917,-0.132292 z m 1.3229167,0 v 0.264584 c 0,0.07329 0.059002,0.132291 0.1322917,0.132291 h 0.79375 c 0.07329,0 0.1322917,-0.059 0.1322917,-0.132291 v -0.264584 c 0,0.07329 -0.059002,0.132292 -0.1322917,0.132292 h -0.79375 c -0.07329,0 -0.1322917,-0.059 -0.1322917,-0.132292 z m 1.3229167,0 v 0.264584 c 0,0.07329 0.059002,0.132291 0.1322917,0.132291 h 6.0854165 c 0.07329,0 0.132292,-0.059 0.132292,-0.132291 v -0.264584 c 0,0.07329 -0.059,0.132292 -0.132292,0.132292 H 5.4239585 c -0.07329,0 -0.1322917,-0.059 -0.1322917,-0.132292 z m 6.6145832,0 v 0.264584 c 0,0.07329 0.059,0.132291 0.132292,0.132291 h 0.79375 c 0.07329,0 0.132292,-0.059 0.132292,-0.132291 v -0.264584 c 0,0.07329 -0.059,0.132292 -0.132292,0.132292 h -0.79375 c -0.07329,0 -0.132292,-0.059 -0.132292,-0.132292 z m 1.322917,0 v 0.264584 c 0,0.07329 0.059,0.132291 0.132292,0.132291 h 0.79375 c 0.07329,0 0.132291,-0.059 0.132291,-0.132291 v -0.264584 c 0,0.07329 -0.059,0.132292 -0.132291,0.132292 h -0.79375 c -0.07329,0 -0.132292,-0.059 -0.132292,-0.132292 z m 1.322917,0 v 0.264584 c 0,0.07329 0.059,0.132291 0.132291,0.132291 h 1.058334 c 0.07329,0 0.132291,-0.059 0.132291,-0.132291 v -0.264584 c 0,0.07329 -0.059,0.132292 -0.132291,0.132292 h -1.058334 c -0.07329,0 -0.132291,-0.059 -0.132291,-0.132292 z" />
  <rect
     style="fill:url(#linearGradient8165);fill-opacity:1;stroke-width:0.106969;stroke-linejoin:round"
     id="rect858-3"
     height="4.7624998"
     x="11.641667"
     y="9.2604179"
     width="4.7620001"
     ry="0.52916664" />
  <path
     id="rect964"
     style="fill:#ffffff;stroke-width:0.264583;stroke-linejoin:round"
     d="M 12.170833,9.5249993 H 15.875 c 0.146579,0 0.264583,0.118004 0.264583,0.264584 v 3.7041657 c 0,0.146579 -0.118004,0.264583 -0.264583,0.264583 h -3.704167 c -0.146579,0 -0.264583,-0.118004 -0.264583,-0.264583 V 9.7895833 c 0,-0.14658 0.118004,-0.264584 0.264583,-0.264584 z" />
  <path
     id="rect1721"
     style="fill:url(#linearGradient2735);fill-opacity:1;stroke-width:0.324046;stroke-linejoin:round"
     d="m 13.946436,10.318749 c -0.105138,0.0053 -0.188103,0.09194 -0.188103,0.198438 0,0.109934 0.0885,0.198437 0.198438,0.198437 h 0.712101 l -1.910478,1.909961 c -0.07774,0.07773 -0.07774,0.202868 0,0.280603 0.07774,0.07774 0.202864,0.07773 0.280603,0 l 1.909961,-1.909444 v 0.711068 c 0,0.109934 0.0885,0.198437 0.198438,0.198437 0.109934,0 0.198437,-0.0885 0.198437,-0.198437 v -1.18029 c 1.71e-4,-0.0034 0,-0.0069 0,-0.01034 0,-0.106499 -0.08296,-0.193143 -0.188102,-0.198438 -0.0034,-1.71e-4 -0.0069,0 -0.01033,0 h -0.01033 -1.18029 c -0.0034,0 -0.0069,-1.71e-4 -0.01033,0 z" />
</svg>
