<?xml version="1.0" encoding="UTF-8" standalone="no"?>
<svg
   width="64"
   height="64"
   viewBox="0 0 16.93312 16.93312"
   version="1.1"
   id="svg1886"
   inkscape:version="1.1.1 (3bf5ae0d25, 2021-09-20, custom)"
   sodipodi:docname="shotwell.svg"
   xmlns:inkscape="http://www.inkscape.org/namespaces/inkscape"
   xmlns:sodipodi="http://sodipodi.sourceforge.net/DTD/sodipodi-0.dtd"
   xmlns:xlink="http://www.w3.org/1999/xlink"
   xmlns="http://www.w3.org/2000/svg"
   xmlns:svg="http://www.w3.org/2000/svg"
   xmlns:rdf="http://www.w3.org/1999/02/22-rdf-syntax-ns#"
   xmlns:cc="http://creativecommons.org/ns#"
   xmlns:dc="http://purl.org/dc/elements/1.1/">
  <defs
     id="defs1880">
    <linearGradient
       inkscape:collect="always"
       id="linearGradient1431">
      <stop
         style="stop-color:#83bfed;stop-opacity:1"
         offset="0"
         id="stop1427" />
      <stop
         style="stop-color:#3941a7;stop-opacity:1"
         offset="1"
         id="stop1429" />
    </linearGradient>
    <linearGradient
       inkscape:collect="always"
       xlink:href="#linearGradient1431"
       id="linearGradient1433"
       x1="0.79373997"
       y1="0.52916038"
       x2="16.13938"
       y2="15.874802"
       gradientUnits="userSpaceOnUse" />
  </defs>
  <sodipodi:namedview
     id="base"
     pagecolor="#ffffff"
     bordercolor="#666666"
     borderopacity="1.0"
     inkscape:pageopacity="0.0"
     inkscape:pageshadow="2"
     inkscape:zoom="1"
     inkscape:cx="18"
     inkscape:cy="24.5"
     inkscape:document-units="px"
     inkscape:current-layer="svg1886"
     inkscape:document-rotation="0"
     showgrid="false"
     units="px"
     inkscape:window-width="1920"
     inkscape:window-height="996"
     inkscape:window-x="0"
     inkscape:window-y="0"
     inkscape:window-maximized="1"
     inkscape:pagecheckerboard="0" />
  <metadata
     id="metadata1883">
    <rdf:RDF>
      <cc:Work
         rdf:about="">
        <dc:format>image/svg+xml</dc:format>
        <dc:type
           rdf:resource="http://purl.org/dc/dcmitype/StillImage" />
      </cc:Work>
    </rdf:RDF>
  </metadata>
  <path
     id="rect1750"
     style="fill:url(#linearGradient1433);stroke-width:0.26458;fill-opacity:1"
     d="M 1.5874799,0.79373997 H 15.34564 c 0.439732,0 0.79374,0.35400803 0.79374,0.79373993 V 15.34564 c 0,0.439732 -0.354008,0.79374 -0.79374,0.79374 H 1.5874799 c -0.4397319,0 -0.79373993,-0.354008 -0.79373993,-0.79374 V 1.5874799 c 0,-0.4397319 0.35400803,-0.79373993 0.79373993,-0.79373993 z" />
  <circle
     style="fill:#ffffff;fill-opacity:1;stroke-width:1.10242;stroke-linecap:round;stroke-linejoin:round"
     id="path1951"
     cx="12.964418"
     cy="4.49786"
     r="1.3229001" />
  <path
     id="rect1042"
     style="fill:#353e50;fill-opacity:1;stroke-width:5;stroke-linecap:round;stroke-linejoin:round;stroke:none"
     d="M 47.595703 13.949219 C 47.543696 13.94867 47.490969 13.951646 47.439453 13.958984 C 47.100009 14.010719 46.808636 14.228524 46.662109 14.539062 L 41.076172 26.337891 L 40.9375 26.490234 L 36.023438 21.271484 C 35.222093 20.431731 34.639144 21.504773 35.117188 22.5625 L 39.576172 28.121094 L 32.580078 36.046875 L 31.085938 35.023438 L 29.697266 26.658203 C 29.66067 26.446702 29.558803 26.252555 29.40625 26.101562 L 28.550781 25.230469 L 31.695312 21.841797 C 32.461409 20.99798 32.034848 20.691174 31.013672 21.197266 L 27.298828 23.875 L 22.169922 18.783203 C 21.371481 18.294035 21.435547 19.144531 21.435547 19.144531 L 26.519531 28.878906 L 26.292969 31.765625 L 13.033203 23.509766 C 13.033203 23.509766 13.017835 24.874229 13.859375 25.757812 L 18.675781 30.542969 L 10.738281 31.427734 C 9.4935496 31.550891 9.9437936 32.443266 11.189453 32.556641 L 22.912109 34.748047 L 29.285156 41.175781 L 29.285156 50 L 3 50 L 3 58 C 3 59.662 4.3379998 61 6 61 L 58 61 C 59.662 61 61 59.662 61 58 L 61 50 L 35.251953 50 L 35.251953 40.921875 L 42.761719 30.917969 L 52.601562 27.460938 C 53.838481 27.189126 54.82724 26.159227 53.5625 26.224609 L 45.007812 27.384766 L 46.693359 23.224609 L 54.53125 21.279297 C 55.746467 21.016397 54.950258 20.622129 53.707031 20.636719 L 47.521484 20.167969 L 48.59375 15.21875 C 48.747356 14.573038 48.2594 13.953018 47.595703 13.949219 z "
     transform="scale(0.26458)" />
</svg>
