<?xml version="1.0" encoding="UTF-8" standalone="no"?>
<!-- Created with Inkscape (http://www.inkscape.org/) -->

<svg
   width="64"
   height="64"
   viewBox="0 0 16.933333 16.933333"
   version="1.1"
   id="svg5"
   inkscape:version="1.1.1 (3bf5ae0d25, 2021-09-20, custom)"
   sodipodi:docname="skype.svg"
   xmlns:inkscape="http://www.inkscape.org/namespaces/inkscape"
   xmlns:sodipodi="http://sodipodi.sourceforge.net/DTD/sodipodi-0.dtd"
   xmlns="http://www.w3.org/2000/svg"
   xmlns:svg="http://www.w3.org/2000/svg">
  <sodipodi:namedview
     id="namedview7"
     pagecolor="#ffffff"
     bordercolor="#666666"
     borderopacity="1.0"
     inkscape:pageshadow="2"
     inkscape:pageopacity="0.0"
     inkscape:pagecheckerboard="0"
     inkscape:document-units="px"
     showgrid="false"
     units="px"
     height="48px"
     inkscape:zoom="5.656854"
     inkscape:cx="21.920311"
     inkscape:cy="41.984467"
     inkscape:window-width="1920"
     inkscape:window-height="1019"
     inkscape:window-x="0"
     inkscape:window-y="0"
     inkscape:window-maximized="1"
     inkscape:current-layer="svg5"
     inkscape:lockguides="true" />
  <defs
     id="defs2">
    <linearGradient
       gradientUnits="userSpaceOnUse"
       y2="18.354"
       x2="11.125"
       y1="1.1059999"
       x1="8.3929996"
       id="a"
       gradientTransform="matrix(0.49845811,0,0,0.49845811,0.55987531,0.55987531)">
      <stop
         id="stop2"
         stop-color="#00b7f0"
         offset=".012" />
      <stop
         id="stop4"
         stop-color="#009de5"
         offset=".339" />
      <stop
         id="stop6"
         stop-color="#0082d9"
         offset=".755" />
      <stop
         id="stop8"
         stop-color="#0078d4"
         offset="1" />
    </linearGradient>
    <linearGradient
       gradientUnits="userSpaceOnUse"
       y2="17.889"
       x2="29.546"
       y1="26.645"
       x1="14.379"
       id="b"
       gradientTransform="matrix(0.49845811,0,0,0.49845811,0.55987531,0.55987531)">
      <stop
         id="stop11"
         stop-color="#0078d4"
         offset="0" />
      <stop
         id="stop13"
         stop-color="#007ad5"
         offset=".37" />
      <stop
         id="stop15"
         stop-color="#0082d9"
         offset=".573" />
      <stop
         id="stop17"
         stop-color="#0090df"
         offset=".735" />
      <stop
         id="stop19"
         stop-color="#00a3e7"
         offset=".875" />
      <stop
         id="stop21"
         stop-color="#00bcf2"
         offset="1" />
    </linearGradient>
    <linearGradient
       gradientUnits="userSpaceOnUse"
       y2="30.662001"
       x2="24.291"
       y1="6.6890001"
       x1="10.45"
       id="c"
       gradientTransform="matrix(0.49845811,0,0,0.49845811,0.55987531,0.55987531)">
      <stop
         id="stop24"
         stop-color="#00b7f0"
         offset="0" />
      <stop
         id="stop26"
         stop-color="#007cc1"
         offset="1" />
    </linearGradient>
  </defs>
  <path
     id="path31"
     style="fill:url(#a);stroke-width:0.498458"
     d="M 9.7903223,5.4098724 A 4.3659944,4.3515389 0 0 1 5.4243278,9.7614111 4.3659944,4.3515389 0 0 1 1.0583333,5.4098724 4.3659944,4.3515389 0 0 1 5.4243278,1.0583333 4.3659944,4.3515389 0 0 1 9.7903223,5.4098724" />
  <path
     id="path33"
     style="fill:url(#b);stroke-width:0.498458"
     d="M 15.874999,11.659041 A 4.36749,4.3530346 0 0 1 11.50751,16.012076 4.36749,4.3530346 0 0 1 7.1400201,11.659041 4.36749,4.3530346 0 0 1 11.50751,7.3060073 4.36749,4.3530346 0 0 1 15.874999,11.659041" />
  <path
     id="path35"
     opacity="0.05"
     fill-rule="evenodd"
     d="M 1.0742841,5.7822208 A 4.3654961,4.3654961 0 1 0 5.9676472,1.09173 7.9329608,7.9329608 0 0 0 1.0742841,5.7822208 Z"
     style="stroke-width:0.498458" />
  <path
     id="path37"
     opacity="0.05"
     fill-rule="evenodd"
     d="m 15.863536,11.346508 a 4.3669915,4.3669915 0 1 0 -4.751801,4.647624 7.9329608,7.9329608 0 0 0 4.751801,-4.648122 z"
     style="stroke-width:0.498458" />
  <path
     id="path39"
     opacity="0.1"
     fill-rule="evenodd"
     d="M 1.2786518,6.7771431 A 4.3640006,4.3640006 0 1 0 6.9600773,1.335476 7.4235365,7.4235365 0 0 0 1.2786518,6.7771431 Z"
     style="stroke-width:0.498458" />
  <path
     id="path41"
     opacity="0.1"
     fill-rule="evenodd"
     d="m 15.665149,10.323673 a 4.3654961,4.3654961 0 1 0 -5.578743,5.452633 7.4235365,7.4235365 0 0 0 5.578743,-5.452633 z"
     style="stroke-width:0.498458" />
  <path
     id="path43"
     opacity="0.1"
     fill-rule="evenodd"
     d="M 1.4391553,7.1898664 A 4.3630038,4.3630038 0 1 0 7.367816,1.5124287 7.1713167,7.1713167 0 0 0 1.4391553,7.1898664 Z"
     style="stroke-width:0.498458" />
  <path
     id="path45"
     opacity="0.1"
     fill-rule="evenodd"
     d="M 15.504148,9.9024751 A 4.3644992,4.3644992 0 1 0 9.6657083,15.606831 7.1708183,7.1708183 0 0 0 15.504148,9.9024751 Z"
     style="stroke-width:0.498458" />
  <path
     id="path47"
     style="fill:url(#c);stroke-width:0.498458"
     d="M 15.382524,8.5676051 A 6.9151093,6.8921802 0 0 1 8.4674143,15.459784 6.9151093,6.8921802 0 0 1 1.5523055,8.5676051 6.9151093,6.8921802 0 0 1 8.4674143,1.6754249 6.9151093,6.8921802 0 0 1 15.382524,8.5676051" />
  <path
     id="path49"
     fill-rule="evenodd"
     fill="#ffffff"
     d="M 6.5229295,8.3283451 A 2.1722804,2.1722804 0 0 1 5.8415373,7.6095682 1.9868539,1.9868539 0 0 1 5.6082589,6.6161413 1.7854769,1.7854769 0 0 1 6.0289576,5.4138603 2.5321672,2.5321672 0 0 1 7.1255654,4.6811268 4.2344016,4.2344016 0 0 1 8.5611243,4.4393747 a 5.5747554,5.5747554 0 0 1 0.955046,0.073273 3.4483331,3.4483331 0 0 1 0.6624507,0.1709712 1.2840281,1.2840281 0 0 1 0.518396,0.3309763 0.66992769,0.66992769 0 0 1 0.160005,0.445123 A 0.64500478,0.64500478 0 0 1 10.688544,5.923783 0.5602669,0.5602669 0 0 1 10.265353,6.1002371 0.76214244,0.76214244 0 0 1 9.9508263,6.029456 5.69937,5.69937 0 0 0 9.2016433,5.7553041 2.719089,2.719089 0 0 0 8.4798763,5.6655815 1.647404,1.647404 0 0 0 7.575673,5.8968661 0.75217328,0.75217328 0 0 0 7.2147894,6.5722769 0.67939839,0.67939839 0 0 0 7.4022096,7.0473074 1.7077175,1.7077175 0 0 0 7.9071473,7.4086896 q 0.317518,0.1575127 0.947071,0.4177079 a 0.98196246,0.98196246 0 0 1 0.13558,0.054333 6.727689,6.727689 0 0 1 1.1723727,0.6026356 2.3636883,2.3636883 0 0 1 0.721769,0.740709 1.9539557,1.9539557 0 0 1 0.260692,1.0288169 2.0690996,2.0690996 0 0 1 -0.360883,1.240164 2.1453637,2.1453637 0 0 1 -1.0093777,0.749182 4.2553368,4.2553368 0 0 1 -1.517306,0.247235 4.7802133,4.7802133 0 0 1 -2.0681032,-0.391288 1.1255184,1.1255184 0 0 1 -0.4256832,-0.330977 0.74419795,0.74419795 0 0 1 -0.1385707,-0.450605 0.58867902,0.58867902 0 0 1 0.1819371,-0.458582 0.67042615,0.67042615 0 0 1 0.4690491,-0.165488 1.1997887,1.1997887 0 0 1 0.548304,0.141062 q 0.3150255,0.157513 0.4969627,0.236269 a 2.4962782,2.4962782 0 0 0 0.4286739,0.135576 2.4524138,2.4524138 0 0 0 0.5507963,0.05683 1.4704514,1.4704514 0 0 0 0.925637,-0.246733 0.81497899,0.81497899 0 0 0 0.312034,-0.67591 0.71777968,0.71777968 0 0 0 -0.195395,-0.4934729 2.0770749,2.0770749 0 0 0 -0.575221,-0.418705 Q 8.3871633,9.2270651 7.6977952,8.9389561 A 6.6250066,6.6250066 0 0 1 6.5229295,8.3283451"
     style="stroke-width:0.498458" />
</svg>
