<?xml version="1.0" encoding="UTF-8" standalone="no"?>
<!-- Created with Inkscape (http://www.inkscape.org/) -->

<svg
   width="64"
   height="64"
   viewBox="0 0 16.933333 16.933333"
   version="1.1"
   id="svg5"
   inkscape:version="1.1.1 (3bf5ae0d25, 2021-09-20, custom)"
   sodipodi:docname="stardew-valley.svg"
   xmlns:inkscape="http://www.inkscape.org/namespaces/inkscape"
   xmlns:sodipodi="http://sodipodi.sourceforge.net/DTD/sodipodi-0.dtd"
   xmlns="http://www.w3.org/2000/svg"
   xmlns:svg="http://www.w3.org/2000/svg">
  <sodipodi:namedview
     id="namedview7"
     pagecolor="#ffffff"
     bordercolor="#666666"
     borderopacity="1.0"
     inkscape:pageshadow="2"
     inkscape:pageopacity="0.0"
     inkscape:pagecheckerboard="0"
     inkscape:document-units="px"
     showgrid="false"
     units="px"
     height="48px"
     inkscape:zoom="6.1640626"
     inkscape:cx="43.477819"
     inkscape:cy="46.965779"
     inkscape:window-width="1920"
     inkscape:window-height="1019"
     inkscape:window-x="0"
     inkscape:window-y="0"
     inkscape:window-maximized="1"
     inkscape:current-layer="svg5"
     inkscape:lockguides="true" />
  <defs
     id="defs2" />
  <g
     id="g58351"
     transform="matrix(1.4499999,0,0,1.4499999,-11.437284,-8.0789082)">
    <path
       id="rect858"
       style="opacity:1;fill:#703404;fill-opacity:1;stroke-width:0.754547;stroke-linecap:round;stroke-linejoin:round"
       d="m 12.403947,6.1190753 v 0.6614583 h 1.984375 V 7.441992 h 0.661459 V 6.1190753 Z m 1.984375,1.3229167 h -1.322916 v 0.6614583 h 0.661458 v 0.6614584 h 0.661458 z m 0,1.3229167 v 1.9843753 h 0.661459 v -0.661459 h 0.661458 V 9.426367 H 15.049781 V 8.7649087 Z m 1.322917,0.6614583 h 2.645833 V 8.7649087 h -2.645833 z m 2.645833,0 v 1.322917 h 0.661459 V 9.426367 Z m 0,1.322917 h -0.661458 v 0.661458 h 0.661458 z m 0,0.661458 v 1.322917 h 0.661459 v -1.322917 z m 0,1.322917 h -0.661458 v 1.322916 h 0.661458 z m -0.661458,1.322916 h -0.661458 v 1.322917 h 0.661458 z m -0.661458,1.322917 h -1.322917 v 0.661459 h 1.322917 z m -1.322917,0.661459 h -0.661458 v 0.661458 h 0.661458 z m -0.661458,0 v -0.661459 h -1.322917 v 0.661459 z M 13.726864,8.7649087 h -0.661458 v 1.9843753 h 0.661458 z M 12.403947,6.7805336 H 11.742489 V 7.441992 h 0.661458 z M 11.742489,7.441992 h -0.661458 v 0.6614583 h 0.661458 z m -0.661458,0.6614583 h -0.661459 v 0.6614584 h 0.661459 z m 0,0.6614584 v 1.3229163 h 0.661458 V 8.7649087 Z m -0.661459,0 H 9.7581138 V 10.087825 H 10.419572 Z M 9.7581138,10.087825 H 9.0966555 v 0.661459 h 0.6614583 z m 0,0.661459 v 0.661458 h 0.6614582 v -0.661458 z m 0,0.661458 H 9.0966555 V 12.0722 H 9.7581138 Z M 9.0966555,12.0722 H 8.4351971 v 1.984375 h 0.6614584 z m 0,1.984375 v 0.661459 h 0.6614583 v -0.661459 z m 0.6614583,0.661459 v 0.661458 h 0.6614582 v -0.661458 z m 0.6614582,0.661458 v 0.661459 h 1.322917 v -0.661459 z m 0,0.661459 H 9.7581138 v 0.661458 h 0.6614582 z m 3.96875,-3.968751 v 0.661459 h 0.661459 V 12.0722 Z m 0.661459,0.661459 v 0.661458 h 1.322916 v -0.661458 z m 1.322916,0 h 0.661459 V 12.0722 h -0.661459 z m -3.96875,3.307292 v 0.661458 h 0.661459 v -0.661458 z" />
    <path
       id="rect8073"
       style="opacity:1;fill:#ffe2ac;fill-opacity:1;stroke-width:2.38125;stroke-linecap:round;stroke-linejoin:round"
       d="m 11.742489,8.1034503 v 1.9843747 h 0.661458 v 0.661459 h -0.661458 v 0.661458 H 11.081031 V 12.0722 h -0.661459 v 0.661459 h 0.661459 v 0.661458 h 0.661458 v -0.661458 h 0.661458 v 0.661458 h 0.661459 v 0.661458 h -0.661459 v -0.661458 h -0.661458 v 0.661458 h -0.661458 v 0.661459 h 0.661458 v 0.661458 h 0.661458 v -0.661458 h 0.661459 v 0.661458 h 0.661458 v -0.661458 h 0.661458 v 0.661458 h 0.661459 v -0.661458 h 1.322916 v -0.661459 h 0.661459 V 13.395117 H 14.388322 V 12.733659 H 13.726864 V 12.0722 h -0.661458 v -0.661458 h 1.322916 v -1.322917 h -0.661458 v 0.661459 H 13.065406 V 8.7649087 H 12.403947 V 8.1034503 Z m 2.645833,3.3072917 V 12.0722 h 0.661459 v 0.661459 h 0.661458 V 12.0722 h 0.661458 v -0.661458 h 0.661459 v 1.984375 h 0.661458 v -2.645833 h -0.661458 v -0.661459 h 1.322916 V 9.426367 h -1.984375 v 0.661458 h -0.661458 v 0.661459 h -0.661458 v 0.661458 z m -3.307291,2.645833 v -0.661458 h -0.661459 v 0.661458 z" />
    <path
       id="rect14079"
       style="opacity:1;fill:#e2a052;fill-opacity:1;stroke-width:2.38125;stroke-linecap:round;stroke-linejoin:round"
       d="m 11.081031,8.1034503 v 0.6614584 h 0.661458 V 8.1034503 Z m 0,0.6614584 h -0.661459 v 1.3229163 h 0.661459 z m 1.322916,-0.6614584 v 0.6614584 h 1.322917 V 8.1034503 Z m 1.322917,0.6614584 v 1.3229163 h 0.661458 V 8.7649087 Z m 1.984375,0.6614583 v 0.661458 h 0.661458 V 9.426367 Z m 0,0.661458 h -0.661458 v 0.661459 h 0.661458 z m -0.661458,0.661459 h -0.661459 v 0.661458 h 0.661459 z m -0.661459,0.661458 H 13.065406 V 12.0722 h 0.661458 v 0.661459 h 0.661458 z m 0,1.322917 v 0.661458 h 0.661459 v -0.661458 z m -2.645833,-2.645834 v 0.661459 h 0.661458 v -0.661459 z m 0,0.661459 h -0.661458 v 0.661458 h 0.661458 z m -0.661458,0.661458 H 9.7581138 V 12.0722 H 9.0966555 v 1.984375 h 1.3229165 v -0.661458 h 0.661459 V 12.733659 H 10.419572 V 12.0722 h 0.661459 z m 0,1.984375 v 0.661458 h 0.661458 v -0.661458 z m 0.661458,0 h 0.661458 v -0.661458 h -0.661458 z m 0.661458,0 v 0.661458 h 0.661459 v -0.661458 z m -1.322916,0.661458 h -0.661459 v 0.661459 h 0.661459 z m 0,0.661459 v 0.661458 h 0.661458 v -0.661458 z m 5.953125,-4.630209 v 0.661459 h 1.322916 v -0.661459 z m -0.661459,1.322917 V 12.0722 h 0.661459 v -0.661458 z m 0,0.661458 h -0.661458 v 0.661459 h 0.661458 z m 0,0.661459 v 0.661458 h 0.661459 v -0.661458 z m 1.322917,-1.322917 v 1.322917 h 0.661458 v -1.322917 z m -1.322917,2.645833 v 0.661459 h 0.661459 v -0.661459 z m 0,0.661459 h -1.322916 v 0.661458 h 1.322916 z m -3.96875,0 v 0.661458 h 0.661459 v -0.661458 z m 1.322917,0 v 0.661458 h 0.661458 v -0.661458 z" />
    <path
       id="rect18298"
       style="opacity:1;fill:#9f4b00;fill-opacity:1;stroke-width:2.38125;stroke-linecap:round;stroke-linejoin:round"
       d="m 10.419572,10.749284 v 0.661458 h 0.661459 v -0.661458 z m 6.614584,2.645833 v 0.661458 h 0.661458 v -0.661458 z m -7.2760422,0.661458 v 0.661459 h 0.6614582 v -0.661459 z m 0.6614582,0.661459 v 0.661458 h 0.661459 v -0.661458 z m 5.953125,0 v 0.661458 h 0.661459 v -0.661458 z m -4.630208,0.661458 v 0.661459 h 1.984375 v -0.661459 z m 3.307292,0 v 0.661459 h 0.661458 v -0.661459 z" />
    <path
       id="rect23960"
       style="opacity:1;fill:#ffde00;fill-opacity:1;stroke-width:2.38125;stroke-linecap:round;stroke-linejoin:round"
       d="m 9.7581138,10.087825 v 0.661459 h 1.9843752 v -0.661459 z m 0.6614582,5.953126 v 0.661458 h 1.322917 v -0.661458 z m 3.307292,0 v 0.661458 h 1.322917 v -0.661458 z" />
    <path
       id="rect26915"
       style="opacity:1;fill:#e9922c;fill-opacity:1;stroke-width:2.38125;stroke-linecap:round;stroke-linejoin:round"
       d="m 11.742489,16.040951 v 0.661458 h 0.661458 v -0.661458 z m 1.322917,0 v 0.661458 h 0.661458 v -0.661458 z" />
    <path
       id="rect49962"
       style="opacity:1;fill:#cd0000;fill-opacity:1;stroke-width:2.38125;stroke-linecap:round;stroke-linejoin:round"
       d="M 13.726864,6.7805336 V 7.441992 h 0.661458 V 6.7805336 Z M 11.742489,7.441992 v 0.6614583 h 0.661458 V 7.441992 Z" />
    <path
       id="rect54420"
       style="opacity:1;fill:#ff2e00;stroke-width:2.38125;stroke-linecap:round;stroke-linejoin:round"
       d="m 12.403947,6.7805336 h 1.322916 V 7.441992 h -0.661457 l -10e-7,0.6614584 h -0.661458 z"
       sodipodi:nodetypes="ccccccc" />
  </g>
</svg>
