<?xml version="1.0" encoding="UTF-8" standalone="no"?>
<!-- Created with Inkscape (http://www.inkscape.org/) -->

<svg
   width="64"
   height="64"
   viewBox="0 0 16.933333 16.933333"
   version="1.1"
   id="svg5"
   inkscape:version="1.1.1 (3bf5ae0d25, 2021-09-20, custom)"
   sodipodi:docname="steam.svg"
   xmlns:inkscape="http://www.inkscape.org/namespaces/inkscape"
   xmlns:sodipodi="http://sodipodi.sourceforge.net/DTD/sodipodi-0.dtd"
   xmlns:xlink="http://www.w3.org/1999/xlink"
   xmlns="http://www.w3.org/2000/svg"
   xmlns:svg="http://www.w3.org/2000/svg">
  <sodipodi:namedview
     id="namedview7"
     pagecolor="#ffffff"
     bordercolor="#666666"
     borderopacity="1.0"
     inkscape:pageshadow="2"
     inkscape:pageopacity="0.0"
     inkscape:pagecheckerboard="0"
     inkscape:document-units="px"
     showgrid="false"
     units="px"
     height="48px"
     inkscape:zoom="5.656854"
     inkscape:cx="52.149127"
     inkscape:cy="55.949827"
     inkscape:window-width="1920"
     inkscape:window-height="1019"
     inkscape:window-x="0"
     inkscape:window-y="0"
     inkscape:window-maximized="1"
     inkscape:current-layer="svg5"
     inkscape:lockguides="true" />
  <defs
     id="defs2">
    <linearGradient
       inkscape:collect="always"
       id="linearGradient2277">
      <stop
         style="stop-color:#111d2e;stop-opacity:1;"
         offset="0"
         id="stop2273" />
      <stop
         style="stop-color:#051839;stop-opacity:1"
         offset="0.2"
         id="stop2921" />
      <stop
         style="stop-color:#0a1b48;stop-opacity:1"
         offset="0.40000001"
         id="stop3435" />
      <stop
         style="stop-color:#132e62;stop-opacity:1"
         offset="0.60000002"
         id="stop3693" />
      <stop
         style="stop-color:#144b7e;stop-opacity:1"
         offset="0.69999999"
         id="stop3951" />
      <stop
         style="stop-color:#136497;stop-opacity:1"
         offset="0.87"
         id="stop4145" />
      <stop
         style="stop-color:#1387b8;stop-opacity:1"
         offset="1"
         id="stop2275" />
    </linearGradient>
    <linearGradient
       inkscape:collect="always"
       xlink:href="#linearGradient2277"
       id="linearGradient948"
       x1="7.937499"
       y1="-2.7838135e-07"
       x2="7.9375005"
       y2="16.933332"
       gradientUnits="userSpaceOnUse"
       gradientTransform="matrix(0.9666666,0,0,0.9666666,0.28222315,0.28222315)" />
  </defs>
  <circle
     style="fill:url(#linearGradient948);fill-opacity:1;stroke-width:1.02305;stroke-linecap:round;stroke-linejoin:round"
     id="path940"
     cx="8.4666662"
     cy="8.4666662"
     r="7.6729164" />
  <path
     id="path21"
     style="fill:#ffffff;stroke-width:0.0661482"
     d="m 11.568304,3.5342208 c -1.6140165,0 -2.9267986,1.3151318 -2.9267986,2.9317929 0,0.012971 -1.507e-4,0.025793 4.995e-4,0.037965 L 6.7562458,9.2434494 C 6.4507735,9.2295566 6.1442344,9.2830706 5.8535792,9.4028024 5.7254503,9.4550569 5.6055624,9.5190409 5.4929123,9.5931267 L 0.87317754,7.3786713 a 7.6729161,7.6729161 0 0 0 -0.079427,1.0879953 7.6729161,7.6729161 0 0 0 0.1728405,1.6030204 l 3.61616116,1.777859 c 0.1469814,0.656852 0.5975455,1.232945 1.2623346,1.510106 1.0876745,0.454437 2.3419665,-0.0633 2.7944199,-1.151437 0.117744,-0.284437 0.1722861,-0.58302 0.1643482,-0.880687 L 11.502364,9.3973075 c 0.02182,6.496e-4 0.0441,0.0015 0.06594,0.0015 1.614678,0 2.927298,-1.3162631 2.927298,-2.9327923 0,-1.6166611 -1.31262,-2.9317929 -2.927298,-2.9317929 z m 0,0.9785965 c 1.075568,0 1.950699,0.8766349 1.950699,1.9531964 0,1.0774212 -0.875131,1.9536962 -1.950699,1.9536962 -1.07491,0 -1.9502005,-0.876275 -1.9502005,-1.9536962 0,-1.0765615 0.8752905,-1.9531964 1.9502005,-1.9531964 z m 0.0035,0.4820547 c -0.808331,0 -1.464648,0.6576311 -1.464648,1.4681447 0,0.8105796 0.656317,1.4671454 1.464648,1.4671454 0.808991,0 1.465147,-0.6565658 1.465147,-1.4671454 0,-0.8105136 -0.656156,-1.4681447 -1.465147,-1.4681447 z M 6.6843123,9.7314988 c 0.2059937,0.00166 0.4150791,0.042379 0.6169303,0.1263837 0.4070095,0.1693395 0.7228235,0.4882005 0.8901782,0.8956735 0.167355,0.407473 0.1668347,0.857182 -0.0025,1.263334 C 7.8387362,12.857634 6.8722332,13.256493 6.032416,12.906568 5.6449862,12.745167 5.3529432,12.449386 5.1841992,12.096816 l 0.9526203,0.395135 C 6.7561633,12.749928 7.4669034,12.456201 7.724352,11.837055 7.9825947,11.217248 7.689471,10.505501 7.0704559,10.247523 L 6.0853652,9.8393995 C 6.2754091,9.7672985 6.4783185,9.729846 6.6843123,9.7314988 Z" />
</svg>
