<?xml version="1.0" encoding="UTF-8" standalone="no"?>
<svg
   width="64"
   height="64"
   viewBox="0 0 16.93312 16.93312"
   version="1.1"
   id="svg1886"
   inkscape:version="1.1.1 (3bf5ae0d25, 2021-09-20, custom)"
   sodipodi:docname="utilities-tweak-tool.svg"
   xmlns:inkscape="http://www.inkscape.org/namespaces/inkscape"
   xmlns:sodipodi="http://sodipodi.sourceforge.net/DTD/sodipodi-0.dtd"
   xmlns:xlink="http://www.w3.org/1999/xlink"
   xmlns="http://www.w3.org/2000/svg"
   xmlns:svg="http://www.w3.org/2000/svg"
   xmlns:rdf="http://www.w3.org/1999/02/22-rdf-syntax-ns#"
   xmlns:cc="http://creativecommons.org/ns#"
   xmlns:dc="http://purl.org/dc/elements/1.1/">
  <defs
     id="defs1880">
    <linearGradient
       inkscape:collect="always"
       id="linearGradient24598">
      <stop
         style="stop-color:#000000;stop-opacity:1;"
         offset="0"
         id="stop24594" />
      <stop
         style="stop-color:#000000;stop-opacity:0;"
         offset="1"
         id="stop24596" />
    </linearGradient>
    <linearGradient
       inkscape:collect="always"
       id="linearGradient17820">
      <stop
         style="stop-color:#26aee7;stop-opacity:1;"
         offset="0"
         id="stop17816" />
      <stop
         style="stop-color:#037ed6;stop-opacity:1"
         offset="1"
         id="stop17818" />
    </linearGradient>
    <linearGradient
       inkscape:collect="always"
       id="linearGradient5821">
      <stop
         style="stop-color:#3bcaf5;stop-opacity:1;"
         offset="0"
         id="stop5817" />
      <stop
         style="stop-color:#1b9ee4;stop-opacity:1"
         offset="1"
         id="stop5819" />
    </linearGradient>
    <linearGradient
       inkscape:collect="always"
       id="linearGradient33432">
      <stop
         style="stop-color:#0271cb;stop-opacity:1;"
         offset="0"
         id="stop33428" />
      <stop
         style="stop-color:#0b5aa7;stop-opacity:1"
         offset="1"
         id="stop33430" />
    </linearGradient>
    <linearGradient
       inkscape:collect="always"
       xlink:href="#linearGradient5821"
       id="linearGradient8998"
       x1="8.4665594"
       y1="3.1749599"
       x2="8.4383011"
       y2="15.352538"
       gradientUnits="userSpaceOnUse"
       gradientTransform="translate(-0.26457997,-0.79374)" />
    <linearGradient
       inkscape:collect="always"
       xlink:href="#linearGradient17820"
       id="linearGradient10673"
       x1="7.2768879"
       y1="4.8618474"
       x2="7.2742996"
       y2="9.5925112"
       gradientUnits="userSpaceOnUse"
       gradientTransform="matrix(1.2069326,0,0,1.2366342,-0.67130768,-1.5499654)" />
    <linearGradient
       inkscape:collect="always"
       xlink:href="#linearGradient33432"
       id="linearGradient18679"
       x1="13.49358"
       y1="4.7624402"
       x2="13.493581"
       y2="5.8207603"
       gradientUnits="userSpaceOnUse" />
    <linearGradient
       inkscape:collect="always"
       xlink:href="#linearGradient33432"
       id="linearGradient19205"
       x1="13.49358"
       y1="6.8790798"
       x2="13.493581"
       y2="7.9373999"
       gradientUnits="userSpaceOnUse" />
    <linearGradient
       inkscape:collect="always"
       xlink:href="#linearGradient33432"
       id="linearGradient19811"
       x1="11.906099"
       y1="8.9957209"
       x2="11.9061"
       y2="10.05404"
       gradientUnits="userSpaceOnUse" />
    <linearGradient
       inkscape:collect="always"
       xlink:href="#linearGradient33432"
       id="linearGradient23862"
       x1="8.2846289"
       y1="11.360404"
       x2="8.2846298"
       y2="12.418723"
       gradientUnits="userSpaceOnUse"
       gradientTransform="translate(0.18193122,0.01653646)" />
    <radialGradient
       inkscape:collect="always"
       xlink:href="#linearGradient24598"
       id="radialGradient24600"
       cx="5.55618"
       cy="7.4082398"
       fx="5.55618"
       fy="7.4082398"
       r="3.7041199"
       gradientUnits="userSpaceOnUse"
       gradientTransform="matrix(0.85714273,0,0,0.85714285,0.79374068,1.05832)" />
  </defs>
  <sodipodi:namedview
     id="base"
     pagecolor="#ffffff"
     bordercolor="#666666"
     borderopacity="1.0"
     inkscape:pageopacity="0.0"
     inkscape:pageshadow="2"
     inkscape:zoom="11.313708"
     inkscape:cx="36.769553"
     inkscape:cy="46.890019"
     inkscape:document-units="px"
     inkscape:current-layer="svg1886"
     inkscape:document-rotation="0"
     showgrid="false"
     units="px"
     inkscape:window-width="1920"
     inkscape:window-height="996"
     inkscape:window-x="0"
     inkscape:window-y="0"
     inkscape:window-maximized="1"
     inkscape:pagecheckerboard="0"
     showguides="false" />
  <metadata
     id="metadata1883">
    <rdf:RDF>
      <cc:Work
         rdf:about="">
        <dc:format>image/svg+xml</dc:format>
        <dc:type
           rdf:resource="http://purl.org/dc/dcmitype/StillImage" />
      </cc:Work>
    </rdf:RDF>
  </metadata>
  <path
     id="rect1750"
     style="fill:url(#linearGradient8998);fill-opacity:1;stroke-width:0.26458"
     d="M 1.3228999,2.38122 H 15.61022 c 0.439732,0 0.79374,0.354008 0.79374,0.7937399 V 13.75816 c 0,0.439732 -0.354008,0.79374 -0.79374,0.79374 H 1.3228999 C 0.88316803,14.5519 0.52916,14.197892 0.52916,13.75816 V 3.1749599 C 0.52916,2.735228 0.88316803,2.38122 1.3228999,2.38122 Z"
     sodipodi:nodetypes="sssssssss" />
  <path
     id="rect9516"
     style="opacity:0.5;fill:#ffffff;stroke-width:0.551687;stroke-linecap:round;stroke-linejoin:round"
     d="m 2.11664,3.43954 h 12.69984 c 0.293155,0 0.52916,0.2360054 0.52916,0.52916 v 8.99572 c 0,0.293155 -0.236005,0.52916 -0.52916,0.52916 H 2.11664 c -0.2931547,0 -0.52916,-0.236005 -0.52916,-0.52916 V 3.9687 c 0,-0.2931546 0.2360053,-0.52916 0.52916,-0.52916 z"
     sodipodi:nodetypes="sssssssss" />
  <circle
     style="opacity:1;fill:url(#radialGradient24600);fill-opacity:1;stroke:none;stroke-width:0.52916;stroke-linecap:round;stroke-linejoin:round;stroke-miterlimit:4;stroke-dasharray:none;stroke-opacity:1"
     id="path24396"
     cx="5.55618"
     cy="7.4082398"
     r="3.7041199" />
  <path
     id="rect12137"
     style="opacity:1;fill:#0a56a0;fill-opacity:1;stroke:none;stroke-width:0.52916;stroke-linecap:round;stroke-linejoin:round;stroke-miterlimit:4;stroke-dasharray:none;stroke-opacity:1"
     d="M 10.169277,5.02702 C 9.8165001,5.035898 9.53378,5.3186403 9.5248801,5.671417 c -1.429e-4,0.00569 0,0.011323 0,0.017053 V 6.6145 7.14366 c -1.77e-5,0.1465773 -0.1180019,0.26458 -0.26458,0.26458 h -0.26458 -1.3229 V 7.9374 h 1.3229 0.39687 c 0.366444,0 0.6614499,-0.2950064 0.6614499,-0.66145 V 6.6145 5.82076 c 0,-0.1465773 0.118002,-0.26458 0.26458,-0.26458 h 0.26458 1.05832 V 5.02702 H 10.5832 10.18633 Z" />
  <circle
     style="opacity:1;fill:url(#linearGradient10673);fill-opacity:1;stroke:none;stroke-width:0.646471;stroke-linecap:round;stroke-linejoin:round;stroke-miterlimit:4;stroke-dasharray:none;stroke-opacity:1"
     id="path10577"
     cx="5.55618"
     cy="7.4082398"
     r="2.9103799" />
  <path
     id="rect11079"
     style="opacity:1;fill:#ffffff;fill-opacity:1;stroke:none;stroke-width:0.52916;stroke-linecap:round;stroke-linejoin:round;stroke-miterlimit:4;stroke-dasharray:none;stroke-opacity:1"
     d="m 5.5561801,4.49786 a 2.91038,2.91038 0 0 0 -0.26458,0.013436 V 7.67282 H 8.4531245 A 2.91038,2.91038 0 0 0 8.4665605,7.40824 2.91038,2.91038 0 0 0 5.5561801,4.49786 Z" />
  <path
     id="rect11229"
     style="opacity:1;fill:#f18c0a;fill-opacity:1;stroke:none;stroke-width:0.582076;stroke-linecap:round;stroke-linejoin:round;stroke-miterlimit:4;stroke-dasharray:none;stroke-opacity:1"
     d="m 5.5561801,4.49786 v 2.91038 h 2.91038 a 2.91038,2.91038 0 0 0 -2.91038,-2.91038 z" />
  <path
     id="rect11825"
     style="opacity:1;fill:#0e93e2;stroke-width:0.52916;stroke-linecap:round;stroke-linejoin:round"
     d="m 11.906101,4.4978602 h 1.58748 c 0.439732,0 0.79374,0.354008 0.79374,0.79374 0,0.4397319 -0.354008,0.7937399 -0.79374,0.7937399 h -1.58748 c -0.439732,0 -0.79374,-0.354008 -0.79374,-0.7937399 0,-0.439732 0.354008,-0.79374 0.79374,-0.79374 z" />
  <path
     id="rect11929"
     style="opacity:1;fill:#0e93e2;stroke-width:0.52916;stroke-linecap:round;stroke-linejoin:round"
     d="m 11.906101,6.6145003 h 1.58748 c 0.439732,0 0.79374,0.354008 0.79374,0.7937399 v 2e-7 c 0,0.4397319 -0.354008,0.7937399 -0.79374,0.7937399 h -1.58748 c -0.439732,0 -0.79374,-0.354008 -0.79374,-0.7937399 v -2e-7 c 0,-0.4397319 0.354008,-0.7937399 0.79374,-0.7937399 z" />
  <path
     id="rect12033"
     style="opacity:1;fill:#0e93e2;stroke-width:0.52916;stroke-linecap:round;stroke-linejoin:round"
     d="m 11.906101,8.7311404 h 1.58748 c 0.439732,0 0.79374,0.354008 0.79374,0.7937399 v 6e-7 c 0,0.439732 -0.354008,0.7937401 -0.79374,0.7937401 h -1.58748 c -0.439732,0 -0.79374,-0.3540081 -0.79374,-0.7937401 v -6e-7 c 0,-0.4397319 0.354008,-0.7937399 0.79374,-0.7937399 z" />
  <path
     id="rect17985"
     style="opacity:1;fill:#ffffff;stroke-width:0.52916;stroke-linecap:round;stroke-linejoin:round"
     d="m 11.9061,4.76244 h 1.58748 c 0.293154,0 0.52916,0.2360053 0.52916,0.52916 0,0.2931546 -0.236006,0.52916 -0.52916,0.52916 H 11.9061 c -0.293155,0 -0.52916,-0.2360054 -0.52916,-0.52916 0,-0.2931547 0.236005,-0.52916 0.52916,-0.52916 z" />
  <path
     id="rect18286"
     style="opacity:1;fill:#ffffff;stroke-width:0.52916;stroke-linecap:round;stroke-linejoin:round"
     d="m 11.9061,6.87908 h 1.58748 c 0.293154,0 0.52916,0.2360053 0.52916,0.52916 0,0.2931546 -0.236006,0.52916 -0.52916,0.52916 H 11.9061 c -0.293155,0 -0.52916,-0.2360054 -0.52916,-0.52916 0,-0.2931547 0.236005,-0.52916 0.52916,-0.52916 z" />
  <path
     id="rect18329"
     style="opacity:1;fill:#ffffff;stroke-width:0.52916;stroke-linecap:round;stroke-linejoin:round"
     d="m 11.9061,8.99572 h 1.587479 c 0.293155,0 0.52916,0.2360053 0.52916,0.52916 0,0.2931546 -0.236005,0.52916 -0.52916,0.52916 H 11.9061 c -0.293155,0 -0.52916,-0.2360054 -0.52916,-0.52916 0,-0.2931547 0.236005,-0.52916 0.52916,-0.52916 z" />
  <circle
     style="opacity:1;fill:url(#linearGradient18679);fill-opacity:1;stroke:none;stroke-width:0.52916;stroke-linecap:round;stroke-linejoin:round;stroke-miterlimit:4;stroke-dasharray:none;stroke-opacity:1"
     id="path18591"
     cx="13.49358"
     cy="5.2916002"
     r="0.52916002" />
  <circle
     style="opacity:1;fill:url(#linearGradient19205);fill-opacity:1;stroke:none;stroke-width:0.52916;stroke-linecap:round;stroke-linejoin:round;stroke-miterlimit:4;stroke-dasharray:none;stroke-opacity:1"
     id="path19117"
     cx="13.49358"
     cy="7.4082398"
     r="0.52916002" />
  <circle
     style="opacity:1;fill:url(#linearGradient19811);fill-opacity:1;stroke:none;stroke-width:0.52916;stroke-linecap:round;stroke-linejoin:round;stroke-miterlimit:4;stroke-dasharray:none;stroke-opacity:1"
     id="path19723"
     cx="11.9061"
     cy="9.5248804"
     r="0.52916002" />
  <path
     id="rect20137"
     style="opacity:1;fill:#0175d2;stroke-width:0.52916;stroke-linecap:round;stroke-linejoin:round;fill-opacity:1"
     d="M 2.9103801,11.64152 H 14.02274 c 0.146577,0 0.26458,0.118002 0.26458,0.26458 0,0.146577 -0.118003,0.26458 -0.26458,0.26458 H 2.9103801 c -0.1465773,0 -0.26458,-0.118003 -0.26458,-0.26458 0,-0.146578 0.1180027,-0.26458 0.26458,-0.26458 z" />
  <path
     id="rect20656"
     style="opacity:1;fill:#f18c0a;stroke-width:0.52916;stroke-linecap:round;stroke-linejoin:round;fill-opacity:1"
     d="m 2.9103801,11.64152 h 5.2915997 c 0.1465774,0 0.2645801,0.118002 0.2645801,0.26458 0,0.146577 -0.1180027,0.26458 -0.2645801,0.26458 H 2.9103801 c -0.1465773,0 -0.26458,-0.118003 -0.26458,-0.26458 0,-0.146578 0.1180027,-0.26458 0.26458,-0.26458 z" />
  <circle
     style="opacity:1;fill:#ffffff;fill-opacity:1;stroke:none;stroke-width:0.39687;stroke-linecap:round;stroke-linejoin:round;stroke-miterlimit:4;stroke-dasharray:none;stroke-opacity:1"
     id="path23648"
     cx="8.4665604"
     cy="11.906099"
     r="0.79373997" />
  <circle
     style="opacity:1;fill:url(#linearGradient23862);fill-opacity:1;stroke:none;stroke-width:0.52916;stroke-linecap:round;stroke-linejoin:round;stroke-miterlimit:4;stroke-dasharray:none;stroke-opacity:1"
     id="path23774"
     cx="8.4665604"
     cy="11.9061"
     r="0.52916002" />
</svg>
