<?xml version="1.0" encoding="UTF-8" standalone="no"?>
<!-- Created with Inkscape (http://www.inkscape.org/) -->

<svg
   width="64"
   height="64"
   viewBox="0 0 16.933333 16.933334"
   version="1.1"
   id="svg5"
   inkscape:version="1.1.1 (3bf5ae0d25, 2021-09-20, custom)"
   sodipodi:docname="xfce-terminal-settings.svg"
   xmlns:inkscape="http://www.inkscape.org/namespaces/inkscape"
   xmlns:sodipodi="http://sodipodi.sourceforge.net/DTD/sodipodi-0.dtd"
   xmlns:xlink="http://www.w3.org/1999/xlink"
   xmlns="http://www.w3.org/2000/svg"
   xmlns:svg="http://www.w3.org/2000/svg">
  <sodipodi:namedview
     id="namedview7"
     pagecolor="#ffffff"
     bordercolor="#666666"
     borderopacity="1.0"
     inkscape:pageshadow="2"
     inkscape:pageopacity="0.0"
     inkscape:pagecheckerboard="0"
     inkscape:document-units="px"
     showgrid="false"
     units="px"
     width="64px"
     inkscape:zoom="11.313708"
     inkscape:cx="27.444582"
     inkscape:cy="43.08932"
     inkscape:window-width="1920"
     inkscape:window-height="1009"
     inkscape:window-x="0"
     inkscape:window-y="0"
     inkscape:window-maximized="1"
     inkscape:current-layer="svg5" />
  <defs
     id="defs2">
    <linearGradient
       inkscape:collect="always"
       id="linearGradient3366">
      <stop
         style="stop-color:#cccccc;stop-opacity:1;"
         offset="0"
         id="stop3362" />
      <stop
         style="stop-color:#cfcfcf;stop-opacity:1"
         offset="1"
         id="stop3364" />
    </linearGradient>
    <linearGradient
       inkscape:collect="always"
       id="linearGradient3102">
      <stop
         style="stop-color:#979797;stop-opacity:1;"
         offset="0"
         id="stop3098" />
      <stop
         style="stop-color:#999999;stop-opacity:1"
         offset="1"
         id="stop3100" />
    </linearGradient>
    <linearGradient
       inkscape:collect="always"
       id="linearGradient3000">
      <stop
         style="stop-color:#616161;stop-opacity:1;"
         offset="0"
         id="stop2996" />
      <stop
         style="stop-color:#636363;stop-opacity:1"
         offset="1"
         id="stop2998" />
    </linearGradient>
    <linearGradient
       inkscape:collect="always"
       id="linearGradient962">
      <stop
         style="stop-color:#4f4f4f;stop-opacity:1;"
         offset="0"
         id="stop958" />
      <stop
         style="stop-color:#303030;stop-opacity:1"
         offset="1"
         id="stop960" />
    </linearGradient>
    <linearGradient
       inkscape:collect="always"
       xlink:href="#linearGradient962"
       id="linearGradient1795"
       x1="0.5291667"
       y1="8.4666672"
       x2="16.404167"
       y2="8.4666672"
       gradientUnits="userSpaceOnUse" />
    <linearGradient
       inkscape:collect="always"
       xlink:href="#linearGradient3000"
       id="linearGradient3002"
       x1="11.112499"
       y1="3.175"
       x2="16.404167"
       y2="3.175"
       gradientUnits="userSpaceOnUse" />
    <linearGradient
       inkscape:collect="always"
       xlink:href="#linearGradient3102"
       id="linearGradient3104"
       x1="5.8208332"
       y1="3.1750002"
       x2="11.1125"
       y2="3.1750002"
       gradientUnits="userSpaceOnUse" />
    <linearGradient
       inkscape:collect="always"
       xlink:href="#linearGradient3366"
       id="linearGradient3368"
       x1="0.5291667"
       y1="3.175"
       x2="5.8208337"
       y2="3.175"
       gradientUnits="userSpaceOnUse" />
    <linearGradient
       inkscape:collect="always"
       xlink:href="#linearGradient3366"
       id="linearGradient3795"
       x1="7.8253856"
       y1="10.813717"
       x2="12.587885"
       y2="11.872049"
       gradientUnits="userSpaceOnUse"
       gradientTransform="translate(2.2287812,0.56336678)" />
    <linearGradient
       inkscape:collect="always"
       xlink:href="#linearGradient3366"
       id="linearGradient4373"
       x1="2.1166668"
       y1="8.5166645"
       x2="6.8791666"
       y2="9.5749969"
       gradientUnits="userSpaceOnUse"
       gradientTransform="matrix(1.0619441,-0.06194412,-0.06194412,1.0619441,0.46880949,-2.9000569)" />
    <linearGradient
       inkscape:collect="always"
       xlink:href="#linearGradient3102"
       id="linearGradient4653"
       x1="1.8182354"
       y1="13.25029"
       x2="6.5807357"
       y2="14.308622"
       gradientUnits="userSpaceOnUse"
       gradientTransform="matrix(-0.06194412,1.0619441,-1.0619441,0.06194412,21.165655,2.7018148)" />
    <linearGradient
       inkscape:collect="always"
       id="linearGradient8250">
      <stop
         style="stop-color:#0568ba;stop-opacity:1;"
         offset="0"
         id="stop8246" />
      <stop
         style="stop-color:#0568ba;stop-opacity:1"
         offset="0.23999999"
         id="stop9054" />
      <stop
         style="stop-color:#0f4c8a;stop-opacity:1"
         offset="0.80000001"
         id="stop8830" />
      <stop
         style="stop-color:#0f4c8f;stop-opacity:1"
         offset="1"
         id="stop8248" />
    </linearGradient>
    <linearGradient
       inkscape:collect="always"
       id="linearGradient7024">
      <stop
         style="stop-color:#ffffff;stop-opacity:1;"
         offset="0"
         id="stop7020" />
      <stop
         style="stop-color:#f0f0f0;stop-opacity:1"
         offset="0.25"
         id="stop7732" />
      <stop
         style="stop-color:#cccccc;stop-opacity:1"
         offset="1"
         id="stop7022" />
    </linearGradient>
    <linearGradient
       inkscape:collect="always"
       id="linearGradient6060">
      <stop
         style="stop-color:#8a8f97;stop-opacity:1;"
         offset="0"
         id="stop6056" />
      <stop
         style="stop-color:#8a8f97;stop-opacity:1"
         offset="0.14573747"
         id="stop6576" />
      <stop
         style="stop-color:#616e7a;stop-opacity:1"
         offset="0.89999998"
         id="stop6770" />
      <stop
         style="stop-color:#616e7a;stop-opacity:1"
         offset="1"
         id="stop6058" />
    </linearGradient>
    <linearGradient
       inkscape:collect="always"
       xlink:href="#linearGradient6060"
       id="linearGradient6062"
       x1="1.0583334"
       y1="1.0583338"
       x2="15.345835"
       y2="13.229167"
       gradientUnits="userSpaceOnUse"
       gradientTransform="matrix(0.25,0,0,0.25,0,0.0021239)" />
    <linearGradient
       inkscape:collect="always"
       xlink:href="#linearGradient7024"
       id="linearGradient7026"
       x1="14.634075"
       y1="13.653037"
       x2="4.0507412"
       y2="3.0697033"
       gradientUnits="userSpaceOnUse"
       gradientTransform="matrix(0.25,0,0,0.25,-0.21893547,0.02844992)" />
    <linearGradient
       inkscape:collect="always"
       xlink:href="#linearGradient8250"
       id="linearGradient8252"
       x1="5.458415"
       y1="4.8895097"
       x2="12.337581"
       y2="11.768677"
       gradientUnits="userSpaceOnUse"
       gradientTransform="matrix(0.22222222,0,0,0.22222222,0.08053766,0.20916592)" />
  </defs>
  <rect
     style="fill:url(#linearGradient1795);fill-opacity:1;stroke-width:0.264583"
     id="rect1685"
     width="15.875"
     height="12.7"
     x="0.5291667"
     y="2.1166668"
     ry="1.0583334" />
  <path
     id="rect1899"
     style="fill:url(#linearGradient3368);fill-opacity:1;stroke-width:0.264583"
     d="M 1.5875001,2.1166668 H 15.345833 c 0.586317,0 1.058334,0.4720167 1.058334,1.0583334 V 4.2333333 H 0.5291667 V 3.1750002 c 0,-0.5863167 0.4720167,-1.0583334 1.0583334,-1.0583334 z"
     sodipodi:nodetypes="sssccss" />
  <rect
     style="fill:url(#linearGradient3104);fill-opacity:1;stroke-width:0.264583"
     id="rect2168"
     width="5.2916665"
     height="2.1166668"
     x="5.8208332"
     y="2.1166668" />
  <path
     id="rect2398"
     style="fill:url(#linearGradient3002);fill-opacity:1;stroke-width:0.324047"
     d="m 11.112499,2.1166668 h 4.233335 c 0.586316,0 1.058333,0.4720167 1.058333,1.0583334 V 4.2333333 H 11.1125 Z"
     sodipodi:nodetypes="cssccc" />
  <path
     id="rect3748"
     style="fill:url(#linearGradient3795);fill-opacity:1;stroke-width:0.264583"
     d="m 10.31875,11.1125 h 4.233334 c 0.146579,0 0.264583,0.118004 0.264583,0.264584 v 1.058333 c 0,0.146579 -0.118004,0.264583 -0.264583,0.264583 H 10.31875 c -0.146579,0 -0.264583,-0.118004 -0.264583,-0.264583 v -1.058333 c 0,-0.14658 0.118004,-0.264584 0.264583,-0.264584 z" />
  <g
     id="g4959"
     transform="matrix(0.66252286,0.70710678,-0.66252286,0.70710678,5.5200583,0.09882003)">
    <path
       id="rect4127"
       style="fill:url(#linearGradient4653);stroke-width:0.280494"
       d="M 7.2465427,5.7180405 6.9843126,10.213604 c -0.00908,0.155659 -0.1417032,0.288282 -0.297362,0.297362 l -1.1238905,0.06556 C 5.4074013,10.585603 5.2893971,10.467599 5.2984768,10.31194 L 5.5607069,5.8163767 C 5.5697866,5.6607178 5.7024101,5.5280943 5.8580689,5.5190146 L 6.9819595,5.453457 c 0.1556588,-0.00908 0.273663,0.1089245 0.2645832,0.2645835 z" />
    <path
       id="rect3899"
       style="fill:url(#linearGradient4373);stroke-width:0.280494"
       d="M 2.4863962,5.7156871 6.9819595,5.453457 c 0.1556588,-0.00908 0.273663,0.1089245 0.2645832,0.2645835 L 7.1809852,6.8419312 C 7.1719055,6.9975901 7.039282,7.1302136 6.8836232,7.1392933 L 2.3880599,7.4015234 C 2.2324011,7.4106031 2.1143969,7.2925989 2.1234766,7.13694 L 2.1890341,6.0130493 C 2.1981138,5.8573904 2.3307374,5.7247668 2.4863962,5.7156871 Z" />
  </g>
  <g
     id="g890"
     transform="matrix(1.5,0,0,1.5,10.31875,9.8934324)">
    <circle
       style="fill:url(#linearGradient7026);fill-opacity:1;stroke-width:0.0661457"
       id="path6952"
       cx="2.1166666"
       cy="2.1187904"
       r="1.190625" />
    <path
       id="path5884"
       style="fill:url(#linearGradient6062);fill-opacity:1;stroke-width:0.0661458"
       d="M 1.4588257,0.10715625 A 2.1166668,2.1166668 0 0 0 0.70680442,0.54110909 0.79375001,0.79375001 0 0 1 0.68458352,1.2919677 0.79375001,0.79375001 0 0 1 0.05090129,1.6817372 2.1166668,2.1166668 0 0 0 0,2.1187906 2.1166668,2.1166668 0 0 0 0.05167643,2.5559733 0.79375001,0.79375001 0 0 1 0.68458352,2.9456136 0.79375001,0.79375001 0 0 1 0.70835468,3.6937591 2.1166668,2.1166668 0 0 0 1.4566294,4.1259033 0.79375001,0.79375001 0 0 1 2.1166667,3.7724365 0.79375001,0.79375001 0 0 1 2.7770915,4.1257741 2.1166668,2.1166668 0 0 0 3.5287252,3.6909169 0.79375001,0.79375001 0 0 1 3.5487499,2.9456136 0.79375001,0.79375001 0 0 1 4.1816569,2.5558441 2.1166668,2.1166668 0 0 0 4.2333334,2.1187906 2.1166668,2.1166668 0 0 0 4.1824321,1.6817372 0.79375001,0.79375001 0 0 1 3.5487499,1.2919677 0.79375001,0.79375001 0 0 1 3.5298879,0.54369292 2.1166668,2.1166668 0 0 0 2.7745076,0.10715625 0.79375001,0.79375001 0 0 1 2.1166667,0.46514474 0.79375001,0.79375001 0 0 1 1.4588257,0.10715625 Z M 2.1166667,1.0604573 A 1.0583334,1.0583334 0 0 1 3.175,2.1187906 1.0583334,1.0583334 0 0 1 2.1166667,3.177124 1.0583334,1.0583334 0 0 1 1.0583333,2.1187906 1.0583334,1.0583334 0 0 1 2.1166667,1.0604573 Z" />
    <circle
       style="fill:url(#linearGradient8252);fill-opacity:1;stroke-width:0.0587962"
       id="path8010"
       cx="2.1166668"
       cy="2.1188715"
       r="0.70555556" />
  </g>
</svg>
