<?xml version="1.0" encoding="UTF-8" standalone="no"?>
<svg
   width="16"
   height="16"
   version="1.1"
   viewBox="0 0 16 16"
   id="svg7"
   sodipodi:docname="audio-volume-low.svg"
   inkscape:version="1.1.1 (3bf5ae0d25, 2021-09-20, custom)"
   xmlns:inkscape="http://www.inkscape.org/namespaces/inkscape"
   xmlns:sodipodi="http://sodipodi.sourceforge.net/DTD/sodipodi-0.dtd"
   xmlns="http://www.w3.org/2000/svg"
   xmlns:svg="http://www.w3.org/2000/svg">
  <path
     id="rect844"
     style="opacity:1;fill:currentColor;stroke:none;stroke-width:0.5;stroke-linejoin:round"
     d="M 6.4746094,2 C 6.3534513,2.006 6.2360019,2.057319 6.1464844,2.1464844 L 3.2539062,5 H 1 C 0.446,5 0,5.446 0,6 v 4 c 0,0.554 0.446,1 1,1 h 2.2539062 l 2.8925782,2.853516 C 6.4614818,14.168294 6.9998256,13.945319 7,13.5 V 2.5 C 6.9995926,2.2981536 6.8778727,2.116344 6.6914062,2.0390625 6.6214104,2.0099501 6.5473042,1.9963972 6.4746094,2 Z M 6,3.7070312 V 12.292969 L 3.625,10 H 1 V 6 h 2.625 z"
     sodipodi:nodetypes="sccsssscccccsccccccc" />
  <sodipodi:namedview
     id="namedview9"
     pagecolor="#ffffff"
     bordercolor="#666666"
     borderopacity="1.0"
     inkscape:pageshadow="2"
     inkscape:pageopacity="0.0"
     inkscape:pagecheckerboard="0"
     showgrid="false"
     inkscape:zoom="34.604038"
     inkscape:cx="7.672515"
     inkscape:cy="8.394974"
     inkscape:window-width="1920"
     inkscape:window-height="999"
     inkscape:window-x="0"
     inkscape:window-y="0"
     inkscape:window-maximized="0"
     inkscape:current-layer="svg7"
     showguides="false" />
  <defs
     id="defs3">
    <style
       id="current-color-scheme"
       type="text/css">.ColorScheme-Text { color:#363636; }</style>
  </defs>
  <path
     id="path1931"
     style="opacity:0.35;fill:currentColor;stroke-width:1.12121;stroke-linejoin:round"
     d="M 12.332031 1.0019531 C 12.169028 1.0161737 12.012005 1.0932007 11.898438 1.2285156 C 11.797869 1.3482471 11.75 1.4933626 11.75 1.6386719 C 11.75 1.821065 11.826127 2.0023493 11.976562 2.1289062 C 13.720866 3.5949476 14.720704 5.734959 14.720703 8 C 14.720703 10.26504 13.720429 12.40514 11.976562 13.871094 C 11.826125 13.997669 11.75 14.178908 11.75 14.361328 C 11.75 14.506663 11.79744 14.653706 11.898438 14.773438 C 12.125186 15.043632 12.52907 15.076767 12.798828 14.849609 C 14.833383 13.139867 16 10.643495 16 8 C 16 5.356505 14.833295 2.8605684 12.798828 1.1503906 C 12.663731 1.0368105 12.495034 0.98773258 12.332031 1.0019531 z M 10.601562 2.9570312 C 10.498957 2.9559283 10.395205 2.9781394 10.302734 3.0253906 C 10.265744 3.0442916 10.230558 3.067334 10.197266 3.09375 C 10.163976 3.120167 10.133859 3.1517189 10.105469 3.1855469 C 10.004901 3.3052786 9.9570313 3.4503677 9.9570312 3.5957031 C 9.9570312 3.6413011 9.9611331 3.6857898 9.9707031 3.7304688 C 9.9803031 3.7751477 9.9946619 3.8192989 10.013672 3.8613281 C 10.051692 3.9453881 10.108379 4.0228645 10.183594 4.0859375 C 11.34661 5.0630935 12.013672 6.490119 12.013672 8 C 12.013672 9.509881 11.346627 10.936469 10.183594 11.914062 C 10.108154 11.977343 10.051639 12.052661 10.013672 12.136719 C 9.9946919 12.178749 9.9802331 12.224904 9.9707031 12.269531 C 9.9612031 12.314161 9.9570312 12.358811 9.9570312 12.404297 C 9.9570312 12.549632 10.004471 12.694695 10.105469 12.814453 C 10.133859 12.848283 10.163956 12.877887 10.197266 12.904297 C 10.230576 12.930717 10.265732 12.953756 10.302734 12.972656 C 10.450753 13.048246 10.624526 13.062512 10.783203 13.013672 C 10.822873 13.001462 10.86114 12.987037 10.898438 12.966797 C 10.935738 12.946547 10.972139 12.920968 11.005859 12.892578 C 11.459869 12.510759 11.853124 12.075154 12.179688 11.597656 C 12.375625 11.311157 12.549033 11.0102 12.695312 10.697266 C 13.085391 9.862773 13.292969 8.944169 13.292969 8 C 13.292969 6.701769 12.898128 5.4528268 12.179688 4.4023438 C 12.114377 4.3068437 12.047182 4.2132057 11.976562 4.1210938 C 11.694081 3.7526447 11.369067 3.412767 11.005859 3.1074219 C 10.972089 3.0790299 10.935767 3.0534511 10.898438 3.0332031 C 10.861107 3.0129541 10.822881 2.996585 10.783203 2.984375 C 10.723684 2.9660604 10.663126 2.957693 10.601562 2.9570312 z " />
  <path
     d="m 10.479741,7.9997164 c 0,-1.133614 -0.4991357,-2.204111 -1.3706666,-2.936169 -0.270195,-0.22716 -0.673542,-0.192015 -0.900676,0.07862 -0.100568,0.119732 -0.150398,0.266549 -0.150398,0.411884 0,0.182393 0.07858,0.362646 0.229015,0.488792 0.581727,0.488823 0.91435,1.202154 0.914348,1.956876 0,0.754739 -0.332656,1.468079 -0.914348,1.956876 -0.150874,0.1265736 -0.229015,0.3068096 -0.229015,0.4887916 0,0.145335 0.0494,0.292143 0.150398,0.411884 0.22716,0.270632 0.630507,0.305751 0.900676,0.07861 0.8715049,-0.732159 1.3706666,-1.8026386 1.3706666,-2.9361646 z"
     style="opacity:1;fill:currentColor;stroke-width:1.12121;stroke-linejoin:round"
     id="path4918"
     sodipodi:nodetypes="sccscscsccs" />
</svg>
