<?xml version="1.0" encoding="UTF-8" standalone="no"?>
<svg
   width="16"
   height="16"
   version="1.1"
   viewBox="0 0 16 16"
   id="svg7"
   sodipodi:docname="audio-volume-high.svg"
   inkscape:version="1.1.1 (3bf5ae0d25, 2021-09-20, custom)"
   xmlns:inkscape="http://www.inkscape.org/namespaces/inkscape"
   xmlns:sodipodi="http://sodipodi.sourceforge.net/DTD/sodipodi-0.dtd"
   xmlns="http://www.w3.org/2000/svg"
   xmlns:svg="http://www.w3.org/2000/svg">
  <path
     id="rect844"
     style="opacity:1;fill:currentColor;stroke:none;stroke-width:0.5;stroke-linejoin:round"
     d="M 12.332031 1.0019531 C 12.169028 1.0161737 12.012005 1.0932007 11.898438 1.2285156 C 11.797869 1.3482471 11.75 1.4933626 11.75 1.6386719 C 11.75 1.821065 11.826127 2.0023493 11.976562 2.1289062 C 13.720866 3.5949476 14.720704 5.734959 14.720703 8 C 14.720703 10.26504 13.720429 12.40514 11.976562 13.871094 C 11.826125 13.997669 11.75 14.178908 11.75 14.361328 C 11.75 14.506663 11.79744 14.653706 11.898438 14.773438 C 12.125186 15.043632 12.52907 15.076767 12.798828 14.849609 C 14.833383 13.139867 16 10.643495 16 8 C 16 5.356505 14.833295 2.8605684 12.798828 1.1503906 C 12.663731 1.0368105 12.495034 0.98773258 12.332031 1.0019531 z M 6.4746094 2 C 6.3534513 2.006 6.2360019 2.057319 6.1464844 2.1464844 L 3.2539062 5 L 1 5 C 0.446 5 0 5.446 0 6 L 0 10 C 0 10.554 0.446 11 1 11 L 3.2539062 11 L 6.1464844 13.853516 C 6.4614818 14.168294 6.9998256 13.945319 7 13.5 L 7 2.5 C 6.9995926 2.2981536 6.8778728 2.116344 6.6914062 2.0390625 C 6.6214104 2.0099501 6.5473042 1.9963972 6.4746094 2 z M 10.539062 2.9589844 C 10.457335 2.9658933 10.376711 2.9875896 10.302734 3.0253906 C 10.265744 3.0442916 10.230558 3.067334 10.197266 3.09375 C 10.163976 3.120167 10.133859 3.1517189 10.105469 3.1855469 C 10.004901 3.3052786 9.9570312 3.4503677 9.9570312 3.5957031 C 9.9570312 3.6413011 9.9611331 3.6857898 9.9707031 3.7304688 C 9.9803031 3.7751477 9.9946619 3.8192989 10.013672 3.8613281 C 10.051692 3.9453881 10.108379 4.0228645 10.183594 4.0859375 C 11.34661 5.0630935 12.013672 6.490119 12.013672 8 C 12.013672 9.509881 11.346627 10.936469 10.183594 11.914062 C 10.108154 11.977343 10.051639 12.052661 10.013672 12.136719 C 9.9946919 12.178749 9.9802331 12.224904 9.9707031 12.269531 C 9.9612031 12.314161 9.9570312 12.358811 9.9570312 12.404297 C 9.9570312 12.549632 10.004471 12.694695 10.105469 12.814453 C 10.133859 12.848283 10.163956 12.877887 10.197266 12.904297 C 10.230576 12.930717 10.265732 12.953756 10.302734 12.972656 C 10.450753 13.048246 10.624526 13.062512 10.783203 13.013672 C 10.822873 13.001462 10.861139 12.987037 10.898438 12.966797 C 10.935738 12.946547 10.972139 12.920968 11.005859 12.892578 C 11.459869 12.510759 11.853125 12.075154 12.179688 11.597656 C 12.375625 11.311157 12.549033 11.0102 12.695312 10.697266 C 13.085391 9.862773 13.292969 8.944169 13.292969 8 C 13.292969 6.701769 12.898128 5.4528268 12.179688 4.4023438 C 12.114377 4.3068437 12.047182 4.2132057 11.976562 4.1210938 C 11.694081 3.7526447 11.369067 3.412767 11.005859 3.1074219 C 10.972089 3.0790299 10.935767 3.0534511 10.898438 3.0332031 C 10.861107 3.0129541 10.822881 2.996585 10.783203 2.984375 C 10.703845 2.9599555 10.62079 2.9520755 10.539062 2.9589844 z M 6 3.7070312 L 6 12.292969 L 3.625 10 L 1 10 L 1 6 L 3.625 6 L 6 3.7070312 z M 8.6425781 4.9160156 C 8.4795752 4.9302363 8.3225514 5.0072606 8.2089844 5.1425781 C 8.1084164 5.2623101 8.0585937 5.4093525 8.0585938 5.5546875 C 8.0585938 5.7370805 8.1366744 5.9168227 8.2871094 6.0429688 C 8.8688364 6.5317918 9.2011739 7.245278 9.2011719 8 C 9.2011719 8.754739 8.8688014 9.4682343 8.2871094 9.9570312 C 8.1362354 10.083605 8.0585938 10.26333 8.0585938 10.445312 C 8.0585938 10.590647 8.1079864 10.737681 8.2089844 10.857422 C 8.4361444 11.128054 8.839206 11.162688 9.109375 10.935547 C 9.9808799 10.203388 10.480469 9.133526 10.480469 8 C 10.480469 6.866386 9.9809059 5.7965111 9.109375 5.0644531 C 8.9742775 4.9508731 8.805581 4.901795 8.6425781 4.9160156 z " />
  <sodipodi:namedview
     id="namedview9"
     pagecolor="#ffffff"
     bordercolor="#666666"
     borderopacity="1.0"
     inkscape:pageshadow="2"
     inkscape:pageopacity="0.0"
     inkscape:pagecheckerboard="0"
     showgrid="false"
     inkscape:zoom="48.9375"
     inkscape:cx="8"
     inkscape:cy="8"
     inkscape:window-width="1920"
     inkscape:window-height="999"
     inkscape:window-x="0"
     inkscape:window-y="0"
     inkscape:window-maximized="0"
     inkscape:current-layer="svg7"
     showguides="false" />
  <defs
     id="defs3">
    <style
       id="current-color-scheme"
       type="text/css">.ColorScheme-Text { color:#363636; }</style>
  </defs>
</svg>
