<?xml version="1.0" encoding="UTF-8" standalone="no"?>
<svg
   width="16"
   height="16"
   version="1.1"
   viewBox="0 0 16 16"
   id="svg7"
   sodipodi:docname="audio-volume-muted.svg"
   inkscape:version="1.1.1 (3bf5ae0d25, 2021-09-20, custom)"
   xmlns:inkscape="http://www.inkscape.org/namespaces/inkscape"
   xmlns:sodipodi="http://sodipodi.sourceforge.net/DTD/sodipodi-0.dtd"
   xmlns="http://www.w3.org/2000/svg"
   xmlns:svg="http://www.w3.org/2000/svg">
  <path
     id="rect844"
     style="opacity:1;fill:currentColor;stroke:none;stroke-width:0.5;stroke-linejoin:round"
     d="M 6.4746094 2 C 6.3534513 2.006 6.2360019 2.057319 6.1464844 2.1464844 L 3.2539062 5 L 1 5 C 0.446 5 0 5.446 0 6 L 0 10 C 0 10.554 0.446 11 1 11 L 3.2539062 11 L 6.1464844 13.853516 C 6.4614818 14.168294 6.9998256 13.945319 7 13.5 L 7 2.5 C 6.9995926 2.2981536 6.8778728 2.116344 6.6914062 2.0390625 C 6.6214104 2.0099501 6.5473042 1.9963972 6.4746094 2 z M 6 3.7070312 L 6 12.292969 L 3.625 10 L 1 10 L 1 6 L 3.625 6 L 6 3.7070312 z M 8.7324219 4.7324219 C 8.6046124 4.7324219 8.4768405 4.780972 8.3789062 4.8789062 C 8.1830375 5.0747747 8.1830376 5.3900689 8.3789062 5.5859375 L 10.792969 8 L 8.3789062 10.414062 C 8.1830376 10.609931 8.1830375 10.925226 8.3789062 11.121094 C 8.5747747 11.316963 8.8900694 11.316963 9.0859375 11.121094 L 11.5 8.7070312 L 13.914062 11.121094 C 14.109931 11.316963 14.425226 11.316963 14.621094 11.121094 C 14.816963 10.925226 14.816963 10.609932 14.621094 10.414062 L 12.207031 8 L 14.621094 5.5859375 C 14.816963 5.3900687 14.816963 5.0747748 14.621094 4.8789062 C 14.425226 4.6830377 14.10993 4.6830376 13.914062 4.8789062 L 11.5 7.2929688 L 9.0859375 4.8789062 C 8.9880035 4.7809719 8.8602314 4.7324219 8.7324219 4.7324219 z " />
  <sodipodi:namedview
     id="namedview9"
     pagecolor="#ffffff"
     bordercolor="#666666"
     borderopacity="1.0"
     inkscape:pageshadow="2"
     inkscape:pageopacity="0.0"
     inkscape:pagecheckerboard="0"
     showgrid="false"
     inkscape:zoom="8.6510095"
     inkscape:cx="-5.6062821"
     inkscape:cy="12.888669"
     inkscape:window-width="1920"
     inkscape:window-height="999"
     inkscape:window-x="0"
     inkscape:window-y="0"
     inkscape:window-maximized="0"
     inkscape:current-layer="svg7"
     showguides="false" />
  <defs
     id="defs3">
    <style
       id="current-color-scheme"
       type="text/css">.ColorScheme-Text { color:#363636; }</style>
  </defs>
</svg>
