<?xml version="1.0" encoding="UTF-8" standalone="no"?>
<svg
   width="16"
   height="16"
   version="1.1"
   viewBox="0 0 16 16"
   id="svg7"
   sodipodi:docname="audio-volume-medium.svg"
   inkscape:version="1.1.1 (3bf5ae0d25, 2021-09-20, custom)"
   xmlns:inkscape="http://www.inkscape.org/namespaces/inkscape"
   xmlns:sodipodi="http://sodipodi.sourceforge.net/DTD/sodipodi-0.dtd"
   xmlns="http://www.w3.org/2000/svg"
   xmlns:svg="http://www.w3.org/2000/svg">
  <path
     id="rect844"
     style="opacity:1;fill:currentColor;stroke:none;stroke-width:0.5;stroke-linejoin:round"
     d="M 6.4746094,2 C 6.3534513,2.006 6.2360019,2.057319 6.1464844,2.1464844 L 3.2539062,5 H 1 C 0.446,5 0,5.446 0,6 v 4 c 0,0.554 0.446,1 1,1 h 2.2539062 l 2.8925782,2.853516 C 6.4614818,14.168294 6.9998256,13.945319 7,13.5 V 2.5 C 6.9995926,2.2981536 6.8778727,2.116344 6.6914062,2.0390625 6.6214104,2.0099501 6.5473042,1.9963972 6.4746094,2 Z M 6,3.7070312 V 12.292969 L 3.625,10 H 1 V 6 h 2.625 z"
     sodipodi:nodetypes="sccsssscccccsccccccc" />
  <sodipodi:namedview
     id="namedview9"
     pagecolor="#ffffff"
     bordercolor="#666666"
     borderopacity="1.0"
     inkscape:pageshadow="2"
     inkscape:pageopacity="0.0"
     inkscape:pagecheckerboard="0"
     showgrid="false"
     inkscape:zoom="48.9375"
     inkscape:cx="5.8748404"
     inkscape:cy="7.1417625"
     inkscape:window-width="1920"
     inkscape:window-height="999"
     inkscape:window-x="0"
     inkscape:window-y="0"
     inkscape:window-maximized="0"
     inkscape:current-layer="svg7"
     showguides="false" />
  <defs
     id="defs3">
    <style
       id="current-color-scheme"
       type="text/css">.ColorScheme-Text { color:#363636; }</style>
  </defs>
  <path
     id="path1931"
     style="opacity:0.35;fill:currentColor;stroke-width:1.12121;stroke-linejoin:round"
     d="m 16.000012,7.9997164 c 0,-2.643495 -1.166606,-5.1397433 -3.201073,-6.8499211 -0.270195,-0.22716029 -0.673542,-0.19201289 -0.900676,0.078617 -0.100568,0.1197315 -0.148688,0.2648656 -0.148688,0.4101749 0,0.1823931 0.07687,0.3639438 0.227305,0.4905008 1.744304,1.4660414 2.744754,3.6055874 2.744753,5.8706284 0,2.2650396 -1.000887,4.4046736 -2.744753,5.8706276 -0.150438,0.126575 -0.227305,0.308081 -0.227305,0.490501 0,0.145335 0.04769,0.292152 0.148688,0.411884 0.226749,0.270195 0.630918,0.304068 0.900676,0.07691 2.034555,-1.709742 3.201073,-4.206428 3.201073,-6.8499226 z"
     sodipodi:nodetypes="sccscscsccs" />
  <path
     d="m 13.292858,7.9997164 c 0,-1.298231 -0.39416,-2.547093 -1.1126,-3.597576 -0.06531,-0.0955 -0.132758,-0.189883 -0.203378,-0.281995 -0.282482,-0.368449 -0.60754,-0.7081289 -0.970748,-1.013474 -0.03377,-0.028392 -0.07034,-0.053241 -0.10767,-0.073489 -0.03733,-0.020249 -0.07483,-0.035644 -0.114508,-0.047854 -0.158717,-0.048839 -0.332293,-0.034585 -0.480246,0.041017 -0.03699,0.018901 -0.07267,0.041946 -0.105962,0.068362 -0.03329,0.026417 -0.0639,0.056752 -0.09229,0.09058 -0.100568,0.1197317 -0.1486887,0.2648395 -0.1486887,0.4101749 0,0.045598 0.0041,0.090337 0.01367,0.1350159 0.0096,0.044679 0.02372,0.089569 0.04273,0.1315982 0.03802,0.08406 0.09569,0.160815 0.170905,0.223888 1.163016,0.977156 1.830406,2.403871 1.830406,3.913752 0,1.509881 -0.667373,2.9361576 -1.830406,3.9137516 -0.07544,0.06328 -0.132938,0.13983 -0.170905,0.223888 -0.01898,0.04203 -0.0332,0.08697 -0.04273,0.131597 -0.0095,0.04463 -0.01367,0.08953 -0.01367,0.135016 0,0.145335 0.04769,0.290417 0.1486877,0.410175 0.02839,0.03383 0.05898,0.06417 0.09229,0.09058 0.03331,0.02642 0.06896,0.04947 0.105962,0.06837 0.148019,0.07559 0.32157,0.08985 0.480247,0.04101 0.03967,-0.01221 0.07721,-0.02761 0.114508,-0.04785 0.0373,-0.02025 0.07395,-0.0451 0.10767,-0.07349 0.45401,-0.381819 0.847563,-0.817973 1.174126,-1.295471 0.195938,-0.286499 0.368149,-0.587742 0.514428,-0.900676 0.390078,-0.8344926 0.598172,-1.7527316 0.598172,-2.6969006 z m -2.813117,0 c 0,-1.133614 -0.4991357,-2.204111 -1.3706666,-2.936169 -0.270195,-0.22716 -0.673542,-0.192015 -0.900676,0.07862 -0.100568,0.119732 -0.150398,0.266549 -0.150398,0.411884 0,0.182393 0.07858,0.362646 0.229015,0.488792 0.581727,0.488823 0.91435,1.202154 0.914348,1.956876 0,0.754739 -0.332656,1.468079 -0.914348,1.956876 -0.150874,0.1265736 -0.229015,0.3068096 -0.229015,0.4887916 0,0.145335 0.0494,0.292143 0.150398,0.411884 0.22716,0.270632 0.630507,0.305751 0.900676,0.07861 0.8715049,-0.732159 1.3706666,-1.8026386 1.3706666,-2.9361646 z"
     style="opacity:1;fill:currentColor;stroke-width:1.12121;stroke-linejoin:round"
     id="path4918" />
</svg>
