<?xml version="1.0" encoding="UTF-8" standalone="no"?>
<svg
   width="16"
   height="16"
   version="1.1"
   id="svg6"
   sodipodi:docname="battery-060-charged.svg"
   inkscape:version="1.1.1 (3bf5ae0d25, 2021-09-20, custom)"
   xmlns:inkscape="http://www.inkscape.org/namespaces/inkscape"
   xmlns:sodipodi="http://sodipodi.sourceforge.net/DTD/sodipodi-0.dtd"
   xmlns="http://www.w3.org/2000/svg"
   xmlns:svg="http://www.w3.org/2000/svg">
  <defs
     id="defs10" />
  <sodipodi:namedview
     id="namedview8"
     pagecolor="#ffffff"
     bordercolor="#666666"
     borderopacity="1.0"
     inkscape:pageshadow="2"
     inkscape:pageopacity="0.0"
     inkscape:pagecheckerboard="0"
     showgrid="false"
     inkscape:zoom="45.254834"
     inkscape:cx="2.3091456"
     inkscape:cy="8.9382717"
     inkscape:window-width="1920"
     inkscape:window-height="999"
     inkscape:window-x="0"
     inkscape:window-y="0"
     inkscape:window-maximized="1"
     inkscape:current-layer="svg6" />
  <path
     id="path2"
     style="fill:#dedede;fill-opacity:1;paint-order:stroke fill markers"
     d="M 1,1 V 3 H 0 v 2.5 c 0,0.29167 0.046875,0.57292 0.140625,0.84375 0.10417,0.27084 0.244795,0.515625 0.421875,0.734375 0.17708,0.21875 0.38542,0.40625 0.625,0.5625 0.25,0.14583 0.52083,0.25 0.8125,0.3125 V 13 H 3 V 7.953125 c 0.29167,-0.0625 0.557295,-0.16667 0.796875,-0.3125 0.25,-0.15625 0.463545,-0.34374 0.640625,-0.5625 C 4.61458,6.859365 4.75,6.61458 4.84375,6.34375 4.947917,6.07292 5,5.79167 5,5.5 V 3 H 4 V 1 H 3 V 3 H 2 V 1 Z m 5,2 v 1 h 6 c 0.554,0 1,0.446 1,1 v 6 c 0,0.554 -0.446,1 -1,1 H 4 v 1 h 8 c 1.108,0 2,-0.892 2,-2 v -1 h 1 c 0.554,0 1,-0.446 1,-1 V 7 C 16,6.446 15.554,6 15,6 H 14 V 5 C 14,3.892 13.108,3 12,3 Z M 1,4 H 4 V 5.5 C 4,5.91667 3.85417,6.27083 3.5625,6.5625 3.27083,6.85417 2.91667,7 2.5,7 2.08333,7 1.72917,6.85417 1.4375,6.5625 1.14583,6.27083 1,5.91667 1,5.5 Z M 6,5 V 5.5 C 5.9984275,6.8504136 5.2201106,8.0794549 4,8.6582031 V 11 H 8 V 5 Z"
     sodipodi:nodetypes="cccscsccccccscsccccccccccssssccsscsssscsscccssssscccccccc" />
  <g
     transform="translate(-0.0696,-3e-5)"
     fill="#363636"
     stroke-linecap="round"
     stroke-linejoin="round"
     stroke-width="4"
     style="paint-order:stroke fill markers"
     aria-label=""
     id="g8" />
</svg>
