<?xml version="1.0" encoding="UTF-8" standalone="no"?>
<svg
   width="16"
   height="16"
   version="1.1"
   viewBox="0 0 16 16"
   id="svg7"
   sodipodi:docname="network-wireless-secure-signal-ok.svg"
   inkscape:version="1.1.1 (3bf5ae0d25, 2021-09-20, custom)"
   xmlns:inkscape="http://www.inkscape.org/namespaces/inkscape"
   xmlns:sodipodi="http://sodipodi.sourceforge.net/DTD/sodipodi-0.dtd"
   xmlns="http://www.w3.org/2000/svg"
   xmlns:svg="http://www.w3.org/2000/svg">
  <sodipodi:namedview
     id="namedview9"
     pagecolor="#ffffff"
     bordercolor="#666666"
     borderopacity="1.0"
     inkscape:pageshadow="2"
     inkscape:pageopacity="0.0"
     inkscape:pagecheckerboard="0"
     showgrid="false"
     inkscape:zoom="48.9375"
     inkscape:cx="8"
     inkscape:cy="5.5478927"
     inkscape:window-width="1920"
     inkscape:window-height="999"
     inkscape:window-x="0"
     inkscape:window-y="0"
     inkscape:window-maximized="1"
     inkscape:current-layer="svg7"
     showguides="true" />
  <defs
     id="defs3">
    <style
       id="current-color-scheme"
       type="text/css">.ColorScheme-Text { color:#363636; }</style>
  </defs>
  <path
     id="path1931"
     style="opacity:1;fill:#dfdfdf;stroke-width:1.28132;stroke-linejoin:round"
     d="m 8,8.5683594 c -1.2954996,0 -2.5188686,0.570416 -3.3554688,1.5664066 -0.2595998,0.30878 -0.2194364,0.769727 0.089844,1.029296 0.13683,0.11493 0.3046131,0.171875 0.4707031,0.171876 0.20844,0 0.4144338,-0.0898 0.5585938,-0.261719 C 6.3223017,10.409419 7.1375,10.029294 8,10.029297 c 0.86252,0 1.677728,0.380162 2.236328,1.044922 0.14465,0.17242 0.350624,0.261718 0.558594,0.261719 0.16609,0 0.333863,-0.05645 0.470703,-0.171876 0.30928,-0.2596 0.349418,-0.720546 0.08984,-1.029296 C 10.518753,9.1388054 9.2954,8.5683594 8,8.5683594 Z M 8,11.335938 C 7.3361519,11.335593 6.797608,11.873261 6.796875,12.537109 6.7965295,13.20172 7.3353893,13.74058 8,13.740234 8.6638478,13.739501 9.2015173,13.200957 9.2011719,12.537109 9.20044,11.874023 8.6630856,11.336669 8,11.335938 Z"
     sodipodi:nodetypes="sccscccsccsccccc" />
  <path
     id="path2843"
     style="fill:#dfdfdf;fill-opacity:1;stroke-linejoin:round"
     d="M 13.5 10 C 12.671573 10 12 10.671573 12 11.5 L 12 12 C 11.446 12 11 12.446 11 13 L 11 15 C 11 15.554 11.446 16 12 16 L 15 16 C 15.554 16 16 15.554 16 15 L 16 13 C 16 12.446 15.554 12 15 12 L 15 11.5 C 15 10.671573 14.328427 10 13.5 10 z M 13.5 11 C 13.776142 11 14 11.223858 14 11.5 L 14 12 L 13 12 L 13 11.5 C 13 11.223858 13.223858 11 13.5 11 z M 12 13 L 15 13 L 15 15 L 12 15 L 12 13 z " />
  <path
     d="m 8,2.2597656 c -3.021,0 -5.873725,1.3332033 -7.8281251,3.6582032 -0.2596,0.3087799 -0.2194336,0.7697268 0.0898438,1.0292968 0.1368298,0.11493 0.3026898,0.1699219 0.46875,0.1699219 0.2084398,0 0.4159168,-0.087844 0.5605468,-0.2597656 C 2.9664154,4.864023 5.4115,3.720703 8,3.7207032 c 2.5885,0 5.033684,1.1438198 6.708984,3.1367187 0.14465,0.171922 0.352077,0.2597656 0.560547,0.2597656 0.16609,0 0.333873,-0.054502 0.470703,-0.1699219 0.30878,-0.25913 0.347492,-0.7210168 0.08789,-1.0292968 C 13.874226,3.5928689 11.021,2.2597656 8,2.2597656 Z m 0,3.09375 C 6.516375,5.3535156 5.089169,5.8039631 3.8886719,6.625 3.7795358,6.699639 3.6716727,6.7767169 3.5664062,6.8574219 3.145341,7.1802439 2.7571531,7.5517209 2.4082031,7.9667969 c -0.032447,0.038597 -0.060844,0.080385 -0.083984,0.1230469 -0.023141,0.042663 -0.040734,0.085513 -0.054688,0.1308593 -0.055814,0.181383 -0.039524,0.3797472 0.046875,0.5488281 0.0216,0.04227 0.047936,0.083045 0.078125,0.1210938 0.030189,0.038048 0.064856,0.073023 0.1035157,0.1054688 0.13683,0.1149299 0.30266,0.1699218 0.46875,0.1699218 0.05211,0 0.1032375,-0.0047 0.1542969,-0.015625 0.051059,-0.010923 0.1023597,-0.027101 0.1503906,-0.048828 C 3.3675464,9.0581095 3.4552638,8.992202 3.5273438,8.90625 4.6440431,7.57715 6.2745,6.8144531 8,6.8144531 c 1.7255,0 3.355457,0.7626769 4.472656,2.0917969 0.07232,0.08621 0.159798,0.1519235 0.25586,0.1953125 0.04803,0.021694 0.09939,0.037946 0.15039,0.048828 0.051,0.010883 0.10231,0.015625 0.154297,0.015625 0.16609,0 0.33189,-0.0545 0.46875,-0.1699218 0.03866,-0.032447 0.07333,-0.067408 0.103516,-0.1054688 0.03019,-0.038062 0.05653,-0.078805 0.07813,-0.1210938 0.08639,-0.169157 0.102687,-0.3674921 0.04687,-0.5488281 -0.01395,-0.045334 -0.03155,-0.08823 -0.05469,-0.1308593 -0.02314,-0.042629 -0.05154,-0.08451 -0.08398,-0.1230469 C 13.155453,7.4479519 12.657015,6.9981984 12.111328,6.625 11.783916,6.4010809 11.439654,6.204278 11.082031,6.0371094 10.128369,5.5913266 9.079,5.3535157 8,5.3535156 Z"
     style="opacity:0.35;fill:#dfdfdf;stroke-width:1.28132;stroke-linejoin:round"
     id="path4240" />
</svg>
