<?xml version="1.0" encoding="UTF-8" standalone="no"?>
<!-- Created with Inkscape (http://www.inkscape.org/) -->

<svg
   width="48"
   height="48"
   viewBox="0 0 12.7 12.7"
   version="1.1"
   id="svg884"
   inkscape:version="1.1.2 (0a00cf5339, 2022-02-04, custom)"
   sodipodi:docname="android-package-archive.svg"
   xmlns:inkscape="http://www.inkscape.org/namespaces/inkscape"
   xmlns:sodipodi="http://sodipodi.sourceforge.net/DTD/sodipodi-0.dtd"
   xmlns:xlink="http://www.w3.org/1999/xlink"
   xmlns="http://www.w3.org/2000/svg"
   xmlns:svg="http://www.w3.org/2000/svg">
  <sodipodi:namedview
     id="namedview886"
     pagecolor="#ffffff"
     bordercolor="#666666"
     borderopacity="1.0"
     inkscape:pageshadow="2"
     inkscape:pageopacity="0.0"
     inkscape:pagecheckerboard="0"
     inkscape:document-units="px"
     showgrid="false"
     units="px"
     inkscape:zoom="8.3958333"
     inkscape:cx="27.037221"
     inkscape:cy="33.230769"
     inkscape:window-width="1920"
     inkscape:window-height="1007"
     inkscape:window-x="0"
     inkscape:window-y="0"
     inkscape:window-maximized="1"
     inkscape:current-layer="svg884" />
  <defs
     id="defs881">
    <linearGradient
       inkscape:collect="always"
       id="linearGradient56461">
      <stop
         style="stop-color:#86d893;stop-opacity:1"
         offset="0"
         id="stop56457-9" />
      <stop
         style="stop-color:#8acf09;stop-opacity:1"
         offset="1"
         id="stop56459-1" />
    </linearGradient>
    <linearGradient
       inkscape:collect="always"
       xlink:href="#linearGradient56461"
       id="linearGradient4951"
       x1="-8.6979141"
       y1="2.8557918"
       x2="-2.8770823"
       y2="11.851625"
       gradientUnits="userSpaceOnUse"
       gradientTransform="translate(11.079164,0.5836707)" />
    <linearGradient
       inkscape:collect="always"
       id="linearGradient1951">
      <stop
         style="stop-color:#c3f57d;stop-opacity:1"
         offset="0"
         id="stop1947" />
      <stop
         style="stop-color:#9de785;stop-opacity:1"
         offset="1"
         id="stop1949" />
    </linearGradient>
    <linearGradient
       inkscape:collect="always"
       id="linearGradient2299">
      <stop
         style="stop-color:#77b437;stop-opacity:1"
         offset="0"
         id="stop2295" />
      <stop
         style="stop-color:#467633;stop-opacity:1"
         offset="1"
         id="stop2297" />
    </linearGradient>
    <linearGradient
       inkscape:collect="always"
       xlink:href="#linearGradient2299"
       id="linearGradient1657"
       x1="10.054167"
       y1="3.4394622"
       x2="8.9958334"
       y2="7.2759194"
       gradientUnits="userSpaceOnUse" />
    <linearGradient
       inkscape:collect="always"
       xlink:href="#linearGradient2299"
       id="linearGradient2079"
       x1="2.3812499"
       y1="3.4394622"
       x2="4.233335"
       y2="4.233212"
       gradientUnits="userSpaceOnUse" />
    <linearGradient
       inkscape:collect="always"
       xlink:href="#linearGradient1951"
       id="linearGradient2503"
       x1="5.0270853"
       y1="0.79374987"
       x2="10.054167"
       y2="3.4394622"
       gradientUnits="userSpaceOnUse" />
    <linearGradient
       inkscape:collect="always"
       xlink:href="#linearGradient1951"
       id="linearGradient2785"
       x1="11.641667"
       y1="3.1748788"
       x2="8.2020817"
       y2="4.7623792"
       gradientUnits="userSpaceOnUse" />
    <linearGradient
       inkscape:collect="always"
       xlink:href="#linearGradient1951"
       id="linearGradient2831"
       x1="2.9104187"
       y1="1.3227957"
       x2="2.3812504"
       y2="3.4394622"
       gradientUnits="userSpaceOnUse" />
    <linearGradient
       inkscape:collect="always"
       id="linearGradient70845">
      <stop
         style="stop-color:#74ba0f;stop-opacity:1"
         offset="0"
         id="stop70841-7" />
      <stop
         style="stop-color:#75b236;stop-opacity:1"
         offset="1"
         id="stop70843-0" />
    </linearGradient>
    <linearGradient
       inkscape:collect="always"
       xlink:href="#linearGradient70845"
       id="linearGradient3163"
       x1="8.2020817"
       y1="4.7623792"
       x2="10.054167"
       y2="11.112378"
       gradientUnits="userSpaceOnUse" />
  </defs>
  <path
     id="rect1310"
     style="fill:url(#linearGradient2503);fill-opacity:1;stroke-width:0.264583;stroke-linejoin:round"
     d="M 5.0270853,0.79374987 10.847917,2.1166664 10.054167,3.4394623 6.3500021,3.7040456 4.2333354,2.1165448 Z"
     sodipodi:nodetypes="cccccc" />
  <path
     id="rect1727"
     style="fill:url(#linearGradient2831);fill-opacity:1;stroke-width:0.264583;stroke-linejoin:round"
     d="M 1.0583333,2.6457123 2.9104187,1.3227957 4.2333354,2.1165456 3.4395836,3.4394621 2.38125,3.4394625 Z"
     sodipodi:nodetypes="cccccc" />
  <path
     d="m 2.3812503,3.4394621 1.8520848,-1.3229167 1.5875002,7.6729148 -1.5875002,10e-7 -1.8520848,1.3229168 z"
     style="fill:url(#linearGradient2079);fill-opacity:1;stroke-width:0.0700042;stroke-linejoin:round"
     id="path2897"
     sodipodi:nodetypes="cccccc" />
  <path
     d="M 4.2333353,2.1165448 10.054167,3.4394623 V 11.112378 L 8.2020819,12.435294 4.2333353,9.7894602 Z"
     style="fill:url(#linearGradient1657);fill-opacity:1;stroke-width:0.0700042;stroke-linejoin:round"
     id="path3818"
     sodipodi:nodetypes="cccccc" />
  <path
     id="rect2751"
     style="fill:url(#linearGradient3163);fill-opacity:1;stroke-width:0.264583;stroke-linejoin:round"
     d="M 8.2020819,4.762379 10.054167,3.4394623 v 7.6729157 l -1.8520851,1.322917 z"
     sodipodi:nodetypes="ccccc" />
  <path
     d="M 8.2020819,4.762379 10.054167,3.4394623 11.641667,3.1748789 9.7895817,4.4977958 Z"
     style="fill:url(#linearGradient2785);fill-opacity:1;stroke-width:0.0700042;stroke-linejoin:round"
     id="path1888"
     sodipodi:nodetypes="ccccc" />
  <path
     d="M 5.0270861,0.52916667 10.847918,1.8520829 10.847917,2.1166664 5.0270853,0.79374987 Z"
     style="fill:#6da736;fill-opacity:1;stroke-width:0.0700042"
     id="path5763"
     sodipodi:nodetypes="ccccc" />
  <path
     id="rect969"
     style="fill:url(#linearGradient4951);fill-opacity:1;stroke-width:0.264583;stroke-linejoin:round"
     d="M 2.38125,3.4394623 8.2020819,4.762379 v 7.672915 L 2.38125,11.112377 Z"
     sodipodi:nodetypes="ccccc" />
  <path
     id="path870"
     style="opacity:0.6;fill:#ffffff;stroke-width:0.764348;stroke-linecap:round;stroke-linejoin:round"
     d="m 3.2258238,8.7358904 c -0.043962,-0.010248 -0.087909,-0.00379 -0.1215947,0.022049 -0.06737,0.051673 -0.06737,0.1601185 0,0.2431897 L 3.4777464,9.462026 C 3.1292512,9.6955465 2.9104166,10.099999 2.9104167,10.60656 L 6.35,11.408118 c 7e-7,-0.506559 -0.2191702,-1.013085 -0.567665,-1.4090308 L 6.1558515,9.7122753 c 0.067371,-0.051664 0.067371,-0.1601175 0,-0.2431892 C 6.0884812,9.3860155 5.9800331,9.3607433 5.9126626,9.4124133 L 5.5018609,9.7278212 C 5.2461946,9.5175557 4.948451,9.3617088 4.6302085,9.2875457 4.311966,9.2133827 4.0138864,9.2303797 3.7582203,9.3214819 L 3.3474184,8.8146109 C 3.3137336,8.7730783 3.2697851,8.746138 3.2258238,8.7358932 Z m 0.6822065,1.3406656 a 0.19318166,0.15310379 48.323054 0 1 0.1719792,0.212059 0.19318166,0.15310379 48.323054 0 1 -0.1719792,0.131899 0.19318166,0.15310379 48.323054 0 1 -0.1719792,-0.212056 0.19318166,0.15310379 48.323054 0 1 0.1719792,-0.131902 z m 1.3758334,0.320625 a 0.19318166,0.15310379 48.323054 0 1 0.1719792,0.212056 0.19318166,0.15310379 48.323054 0 1 -0.1719792,0.131902 0.19318166,0.15310379 48.323054 0 1 -0.1719792,-0.212057 0.19318166,0.15310379 48.323054 0 1 0.1719792,-0.131901 z" />
</svg>
