<?xml version="1.0" encoding="UTF-8" standalone="no"?>
<!-- Created with Inkscape (http://www.inkscape.org/) -->

<svg
   width="48"
   height="48"
   viewBox="0 0 12.7 12.7"
   version="1.1"
   id="svg5"
   inkscape:version="1.1.2 (0a00cf5339, 2022-02-04, custom)"
   sodipodi:docname="application-vnd.ms-powerpoint.svg"
   xmlns:inkscape="http://www.inkscape.org/namespaces/inkscape"
   xmlns:sodipodi="http://sodipodi.sourceforge.net/DTD/sodipodi-0.dtd"
   xmlns="http://www.w3.org/2000/svg"
   xmlns:svg="http://www.w3.org/2000/svg">
  <sodipodi:namedview
     id="namedview7"
     pagecolor="#ffffff"
     bordercolor="#666666"
     borderopacity="1.0"
     inkscape:pageshadow="2"
     inkscape:pageopacity="0.0"
     inkscape:pagecheckerboard="0"
     inkscape:document-units="px"
     showgrid="false"
     units="px"
     height="64px"
     inkscape:zoom="16.791667"
     inkscape:cx="24"
     inkscape:cy="24"
     inkscape:window-width="1920"
     inkscape:window-height="1007"
     inkscape:window-x="0"
     inkscape:window-y="0"
     inkscape:window-maximized="1"
     inkscape:current-layer="svg5" />
  <defs
     id="defs2" />
  <path
     id="rect846"
     style="fill:#7d7d7b;stroke-width:0.529167;stroke-linecap:round;stroke-linejoin:round"
     d="M 2.1166667,0.52916667 H 7.9375 L 10.583333,3.175 v 8.995834 H 2.1166667 Z"
     sodipodi:nodetypes="cccccc" />
  <path
     id="rect1454"
     style="fill:#fafafa;stroke-width:0.529167;stroke-linecap:round;stroke-linejoin:round"
     d="M 2.3812501,0.79375008 V 11.906251 H 10.31875 V 3.5718751 H 7.8052086 c -0.14658,0 -0.2947802,-0.1211482 -0.2645833,-0.2645833 V 0.79375008 Z m 5.4239585,0 V 3.3072918 H 10.31875 Z"
     sodipodi:nodetypes="ccccsscccccc" />
  <path
     id="path844"
     style="opacity:1;fill:#c0c5cb;fill-opacity:1;stroke-width:0.529167;stroke-linejoin:round"
     d="m 7.6729166,5.0270833 c -1.0228773,0 -1.8520833,0.8292061 -1.8520833,1.8520834 0,1.0228773 0.829206,1.8520833 1.8520833,1.8520833 1.0228773,0 1.8520833,-0.829206 1.8520833,-1.8520833 H 7.6729166 Z M 3.4395833,9.7895835 V 10.054167 H 9.525 V 9.7895835 Z m 0,0.7937505 v 0.264583 H 9.525 v -0.264583 z"
     sodipodi:nodetypes="cssccccccccccccc" />
  <path
     id="path1336"
     style="opacity:1;fill:#e8ab72;fill-opacity:1;stroke-width:2;stroke-linejoin:round"
     d="M 30 19.070312 L 30 25 L 35.929688 25 C 35.491122 21.934435 33.065565 19.508878 30 19.070312 z "
     transform="scale(0.26458333)" />
  <rect
     style="fill:#cb3a22;fill-opacity:1;stroke-width:0.529167;stroke-linejoin:round"
     id="rect844"
     width="5.2916665"
     height="5.2916665"
     x="0.26458332"
     y="3.96875"
     ry="0.52916664" />
  <path
     id="rect16145"
     style="fill:#ffffff;fill-opacity:1;stroke-width:0.323096;stroke-linecap:round;stroke-linejoin:round"
     d="m 1.8520834,5.0270834 v 3.175 h 0.499788 v -1.201931 h 0.4781221 c 0.689268,0 1.1975137,-0.3187224 1.1975137,-1.0079902 0,-0.7194231 -0.5082628,-0.9650788 -1.2147623,-0.9650788 z m 0.499788,0.4051313 h 0.4135451 c 0.5040271,0 0.7667204,0.1377711 0.7667204,0.5599475 0,0.4092527 -0.2455455,0.6030692 -0.7452648,0.6030692 H 2.3518714 Z" />
</svg>
