<?xml version="1.0" encoding="UTF-8" standalone="no"?>
<!-- Created with Inkscape (http://www.inkscape.org/) -->

<svg
   width="48"
   height="48"
   viewBox="0 0 12.7 12.7"
   version="1.1"
   id="svg5"
   inkscape:version="1.1.2 (0a00cf5339, 2022-02-04, custom)"
   sodipodi:docname="application-vnd.ms-powerpoint.template.macroenabled.12.svg"
   xmlns:inkscape="http://www.inkscape.org/namespaces/inkscape"
   xmlns:sodipodi="http://sodipodi.sourceforge.net/DTD/sodipodi-0.dtd"
   xmlns="http://www.w3.org/2000/svg"
   xmlns:svg="http://www.w3.org/2000/svg">
  <sodipodi:namedview
     id="namedview7"
     pagecolor="#ffffff"
     bordercolor="#666666"
     borderopacity="1.0"
     inkscape:pageshadow="2"
     inkscape:pageopacity="0.0"
     inkscape:pagecheckerboard="0"
     inkscape:document-units="px"
     showgrid="false"
     units="px"
     height="64px"
     inkscape:zoom="16.791667"
     inkscape:cx="24"
     inkscape:cy="24"
     inkscape:window-width="1920"
     inkscape:window-height="1007"
     inkscape:window-x="0"
     inkscape:window-y="0"
     inkscape:window-maximized="1"
     inkscape:current-layer="svg5" />
  <defs
     id="defs2" />
  <path
     id="rect1054"
     style="fill:#7d7d7b;stroke-width:0.79375;stroke-linecap:round;stroke-linejoin:round"
     d="m 2.1166667,0.52916667 7.6729166,1e-7 1.3229197,0.26458309 -1e-6,11.37708514 H 3.175 V 11.1125 H 2.1166667 Z"
     sodipodi:nodetypes="cccccccc" />
  <rect
     style="fill:#fafafa;fill-opacity:1;stroke-width:0.53627;stroke-linejoin:round"
     id="rect1365"
     width="7.4083333"
     height="10.054167"
     x="2.3812499"
     y="0.79374999" />
  <path
     id="rect6964"
     style="fill:#efa276;fill-opacity:1;stroke:none;stroke-width:0.737648;stroke-linecap:round;stroke-linejoin:round"
     d="m 2.1166667,0.52916667 7.6729166,1e-7 V 2.9104167 H 2.1166667 Z"
     sodipodi:nodetypes="ccccc" />
  <path
     id="rect2071"
     style="fill:#fafafa;stroke-width:0.529167;stroke-linejoin:round"
     d="M 3.4395833,11.1125 H 10.054167 V 1.0583333 h 0.793749 V 11.90625 H 3.4395833 Z"
     sodipodi:nodetypes="ccccccc" />
  <path
     id="rect13579"
     style="fill:#dc772e;fill-opacity:1;stroke-width:0.746175;stroke-linecap:round;stroke-linejoin:round"
     d="M 9.7895833,0.52916677 V 1.0583335 L 11.1125,1.3229169 V 0.79375017 Z M 2.1166667,2.6458333 V 2.9104167 H 9.7895833 V 2.6458333 Z"
     sodipodi:nodetypes="cccccccccc" />
  <path
     id="path844"
     style="fill:#c0c5cb;fill-opacity:1;stroke-width:0.529167;stroke-linejoin:round"
     d="m 7.6729166,5.0270834 c -1.0228773,0 -1.8520833,0.8292061 -1.8520833,1.8520834 0,1.0228773 0.829206,1.8520833 1.8520833,1.8520833 1.0228773,0 1.8520835,-0.829206 1.8520835,-1.8520833 H 7.6729166 Z"
     sodipodi:nodetypes="cssccc" />
  <path
     id="path1336"
     style="fill:#e8ab72;fill-opacity:1;stroke-width:0.529167;stroke-linejoin:round"
     d="M 7.9374999,5.0456867 V 6.6145833 H 9.5063961 C 9.3903591,5.8034859 8.7485973,5.161724 7.9374999,5.0456867 Z" />
  <rect
     style="fill:#cb3a22;fill-opacity:1;stroke-width:0.529167;stroke-linejoin:round"
     id="rect844"
     width="5.2916665"
     height="5.2916665"
     x="0.26458332"
     y="3.96875"
     ry="0.52916664" />
  <path
     id="rect16145"
     style="fill:#ffffff;fill-opacity:1;stroke-width:0.323096;stroke-linecap:round;stroke-linejoin:round"
     d="m 1.8520834,5.0270835 v 3.175 h 0.499788 v -1.201931 h 0.4781221 c 0.689268,0 1.1975137,-0.3187224 1.1975137,-1.0079902 0,-0.7194231 -0.5082628,-0.9650788 -1.2147623,-0.9650788 z m 0.499788,0.4051313 h 0.4135451 c 0.5040271,0 0.7667204,0.1377711 0.7667204,0.5599475 0,0.4092527 -0.2455455,0.6030692 -0.7452648,0.6030692 H 2.3518714 Z" />
</svg>
