<?xml version="1.0" encoding="UTF-8" standalone="no"?>
<!-- Created with Inkscape (http://www.inkscape.org/) -->

<svg
   width="48"
   height="48"
   viewBox="0 0 12.7 12.7"
   version="1.1"
   id="svg5"
   inkscape:version="1.2.1 (9c6d41e410, 2022-07-14, custom)"
   sodipodi:docname="application-x-ms-dos-executable.svg"
   xmlns:inkscape="http://www.inkscape.org/namespaces/inkscape"
   xmlns:sodipodi="http://sodipodi.sourceforge.net/DTD/sodipodi-0.dtd"
   xmlns:xlink="http://www.w3.org/1999/xlink"
   xmlns="http://www.w3.org/2000/svg"
   xmlns:svg="http://www.w3.org/2000/svg">
  <sodipodi:namedview
     id="namedview7"
     pagecolor="#ffffff"
     bordercolor="#666666"
     borderopacity="1.0"
     inkscape:pageshadow="2"
     inkscape:pageopacity="0.0"
     inkscape:pagecheckerboard="0"
     inkscape:document-units="px"
     showgrid="false"
     units="px"
     height="64px"
     inkscape:zoom="17.229167"
     inkscape:cx="24"
     inkscape:cy="24"
     inkscape:window-width="1920"
     inkscape:window-height="1029"
     inkscape:window-x="0"
     inkscape:window-y="0"
     inkscape:window-maximized="1"
     inkscape:current-layer="svg5"
     inkscape:showpageshadow="2"
     inkscape:deskcolor="#d1d1d1" />
  <defs
     id="defs2">
    <linearGradient
       inkscape:collect="always"
       id="linearGradient1394">
      <stop
         style="stop-color:#1088d6;stop-opacity:1;"
         offset="0"
         id="stop1390" />
      <stop
         style="stop-color:#076cbe;stop-opacity:1"
         offset="1"
         id="stop1392" />
    </linearGradient>
    <linearGradient
       inkscape:collect="always"
       xlink:href="#linearGradient1394"
       id="linearGradient1800"
       x1="8.4666662"
       y1="3.4395833"
       x2="8.4666662"
       y2="9.7895832"
       gradientUnits="userSpaceOnUse" />
  </defs>
  <rect
     style="fill:#797774;stroke-width:0.529167;stroke-linejoin:round;fill-opacity:1"
     id="rect924"
     width="11.641666"
     height="8.4666662"
     x="0.52916664"
     y="2.1166666"
     ry="0.79374999" />
  <rect
     style="fill:#ffffff;stroke-width:0.529167;stroke-linejoin:round"
     id="rect1289"
     width="11.1125"
     height="7.4083333"
     x="0.79374999"
     y="2.9104166"
     ry="0.52916664" />
  <rect
     style="fill:url(#linearGradient1800);stroke-width:0.529167;stroke-linejoin:round;fill-opacity:1"
     id="rect1712"
     width="4.2333331"
     height="6.3499999"
     x="4.2333331"
     y="3.4395833"
     ry="0.52916664" />
  <path
     d="M 1.3229167,3.7041667 V 3.96875 h 2.38125 V 3.7041667 Z m 7.6729166,0 V 3.96875 H 11.377083 V 3.7041667 Z M 1.3229167,4.7625 v 0.2645833 h 2.38125 V 4.7625 Z m 7.6729166,0 V 5.0270833 H 11.377083 V 4.7625 Z M 1.3229167,5.8208333 v 0.2645834 h 2.38125 V 5.8208333 Z m 7.6729166,0 V 6.0854167 H 11.377083 V 5.8208333 Z M 1.3229167,6.8791667 V 7.14375 h 2.38125 V 6.8791667 Z m 7.6729166,0 V 7.14375 H 11.377083 V 6.8791667 Z M 1.3229167,7.9375 v 0.2645833 h 2.38125 V 7.9375 Z m 7.6729166,0 V 8.2020833 H 11.377083 V 7.9375 Z M 1.3229167,8.9958333 v 0.2645834 h 2.38125 V 8.9958333 Z m 7.6729166,0 V 9.2604167 H 11.377083 V 8.9958333 Z"
     style="fill:#bebebe;fill-opacity:1;stroke-width:0.869511;stroke-linecap:round;stroke-linejoin:round"
     id="path302" />
  <path
     id="rect1066"
     style="fill:#c4c4c4;fill-opacity:1;stroke-width:0.396875;stroke-linecap:round;stroke-linejoin:round"
     d="M 10.054167,2.3812499 V 2.6458332 H 10.31875 V 2.3812499 Z m 0.529167,0 v 0.2645833 h 0.264584 V 2.3812499 Z m 0.529167,0 v 0.2645833 h 0.264583 V 2.3812499 Z" />
</svg>
