<?xml version="1.0" encoding="UTF-8" standalone="no"?>
<!-- Created with Inkscape (http://www.inkscape.org/) -->

<svg
   width="48"
   height="48"
   viewBox="0 0 12.7 12.7"
   version="1.1"
   id="svg5"
   inkscape:version="1.1.2 (0a00cf5339, 2022-02-04, custom)"
   sodipodi:docname="application-msword-template.svg"
   xmlns:inkscape="http://www.inkscape.org/namespaces/inkscape"
   xmlns:sodipodi="http://sodipodi.sourceforge.net/DTD/sodipodi-0.dtd"
   xmlns="http://www.w3.org/2000/svg"
   xmlns:svg="http://www.w3.org/2000/svg">
  <sodipodi:namedview
     id="namedview7"
     pagecolor="#ffffff"
     bordercolor="#666666"
     borderopacity="1.0"
     inkscape:pageshadow="2"
     inkscape:pageopacity="0.0"
     inkscape:pagecheckerboard="0"
     inkscape:document-units="px"
     showgrid="false"
     units="px"
     height="64px"
     inkscape:zoom="16.791667"
     inkscape:cx="24"
     inkscape:cy="24"
     inkscape:window-width="1920"
     inkscape:window-height="1007"
     inkscape:window-x="0"
     inkscape:window-y="0"
     inkscape:window-maximized="1"
     inkscape:current-layer="svg5" />
  <defs
     id="defs2" />
  <path
     id="rect1054"
     style="fill:#7d7d7b;stroke-width:0.79375;stroke-linecap:round;stroke-linejoin:round"
     d="m 2.1166667,0.52916667 7.6729166,1e-7 1.3229197,0.26458309 -1e-6,11.37708514 H 3.175 V 11.1125 H 2.1166667 Z"
     sodipodi:nodetypes="cccccccc" />
  <rect
     style="fill:#fafafa;fill-opacity:1;stroke-width:0.53627;stroke-linejoin:round"
     id="rect1365"
     width="7.4083333"
     height="10.054167"
     x="2.3812499"
     y="0.79374999" />
  <path
     id="rect6964"
     style="fill:#4a7fe7;fill-opacity:1;stroke:none;stroke-width:0.737648;stroke-linecap:round;stroke-linejoin:round"
     d="m 2.1166667,0.52916667 7.6729166,1e-7 V 2.9104167 H 2.1166667 Z"
     sodipodi:nodetypes="ccccc" />
  <path
     id="rect2071"
     style="fill:#fafafa;stroke-width:0.529167;stroke-linejoin:round"
     d="M 3.4395833,11.1125 H 10.054167 V 1.0583333 h 0.793749 V 11.90625 H 3.4395833 Z"
     sodipodi:nodetypes="ccccccc" />
  <path
     id="rect13579"
     style="fill:#1859bb;fill-opacity:1;stroke-width:0.746175;stroke-linecap:round;stroke-linejoin:round"
     d="M 9.7895833,0.52916677 V 1.0583335 L 11.1125,1.3229169 V 0.79375017 Z M 2.1166667,2.6458333 V 2.9104167 H 9.7895833 V 2.6458333 Z"
     sodipodi:nodetypes="cccccccccc" />
  <path
     id="rect847"
     style="fill:#c0c5cb;fill-opacity:1;stroke-width:0.529167;stroke-linejoin:round"
     d="M 6.0854167,5.0270835 V 5.2916668 H 9.2604166 V 5.0270835 Z m 0,0.79375 V 6.0854168 H 9.2604166 V 5.8208335 Z m 0,0.79375 V 6.8791668 H 9.2604166 V 6.6145835 Z m 0,0.7937499 V 7.6729168 H 9.2604166 V 7.4083334 Z m 0,0.79375 V 8.4666668 H 9.2604166 V 8.2020834 Z"
     sodipodi:nodetypes="ccccccccccccccccccccccccc" />
  <rect
     style="fill:#1859bb;fill-opacity:1;stroke-width:0.529167;stroke-linejoin:round"
     id="rect844"
     width="5.2916665"
     height="5.2916665"
     x="0.26458332"
     y="3.96875"
     ry="0.52916664" />
  <path
     id="rect8731"
     style="fill:#ffffff;fill-opacity:1;stroke-width:0.327987;stroke-linecap:round;stroke-linejoin:round"
     d="M 1.0583333,5.0270835 1.7100377,8.2501606 H 2.3265091 L 2.7508004,6.4613897 C 2.8032784,6.2077455 2.8557993,5.9672457 2.9039044,5.72235 h 0.017509 c 0.043731,0.2448957 0.096141,0.4853955 0.1486193,0.7390397 L 3.5028656,8.2501606 H 4.1283053 L 4.7625,5.0270835 H 4.2769247 L 3.9709312,6.702042 C 3.918453,7.0431473 3.8659234,7.3886812 3.8090727,7.7385337 h -0.02178 C 3.7129487,7.3886812 3.6429775,7.0431473 3.5686339,6.702042 L 3.1530975,5.0270835 H 2.7027552 L 2.2914897,6.702042 C 2.2171466,7.0431473 2.1384292,7.3886812 2.0728313,7.7385337 H 2.0555351 C 1.9943109,7.3886812 1.9372885,7.04752 1.8804376,6.702042 L 1.5787147,5.0270835 Z" />
</svg>
