<?xml version="1.0" encoding="UTF-8" standalone="no"?>
<!-- Created with Inkscape (http://www.inkscape.org/) -->

<svg
   width="48"
   height="48"
   viewBox="0 0 12.7 12.7"
   version="1.1"
   id="svg884"
   inkscape:version="1.1.2 (0a00cf5339, 2022-02-04, custom)"
   sodipodi:docname="application-x-deb.svg"
   xmlns:inkscape="http://www.inkscape.org/namespaces/inkscape"
   xmlns:sodipodi="http://sodipodi.sourceforge.net/DTD/sodipodi-0.dtd"
   xmlns:xlink="http://www.w3.org/1999/xlink"
   xmlns="http://www.w3.org/2000/svg"
   xmlns:svg="http://www.w3.org/2000/svg">
  <sodipodi:namedview
     id="namedview886"
     pagecolor="#ffffff"
     bordercolor="#666666"
     borderopacity="1.0"
     inkscape:pageshadow="2"
     inkscape:pageopacity="0.0"
     inkscape:pagecheckerboard="0"
     inkscape:document-units="px"
     showgrid="false"
     units="px"
     inkscape:zoom="17.145833"
     inkscape:cx="23.970838"
     inkscape:cy="24"
     inkscape:window-width="1920"
     inkscape:window-height="1028"
     inkscape:window-x="0"
     inkscape:window-y="0"
     inkscape:window-maximized="1"
     inkscape:current-layer="svg884" />
  <defs
     id="defs881">
    <linearGradient
       inkscape:collect="always"
       id="linearGradient40996">
      <stop
         style="stop-color:#f57da7;stop-opacity:1"
         offset="0"
         id="stop40992" />
      <stop
         style="stop-color:#f775a4;stop-opacity:1"
         offset="1"
         id="stop40994" />
    </linearGradient>
    <linearGradient
       inkscape:collect="always"
       id="linearGradient26892">
      <stop
         style="stop-color:#cb6085;stop-opacity:1"
         offset="0"
         id="stop26888" />
      <stop
         style="stop-color:#832949;stop-opacity:1"
         offset="1"
         id="stop26890" />
    </linearGradient>
    <linearGradient
       inkscape:collect="always"
       id="linearGradient56461">
      <stop
         style="stop-color:#fb95b9;stop-opacity:1"
         offset="0"
         id="stop56457-9" />
      <stop
         style="stop-color:#f63479;stop-opacity:1"
         offset="1"
         id="stop56459-1" />
    </linearGradient>
    <linearGradient
       inkscape:collect="always"
       id="linearGradient70845">
      <stop
         style="stop-color:#d04d79;stop-opacity:1"
         offset="0"
         id="stop70841-7" />
      <stop
         style="stop-color:#b63664;stop-opacity:1"
         offset="1"
         id="stop70843-0" />
    </linearGradient>
    <linearGradient
       inkscape:collect="always"
       xlink:href="#linearGradient26892"
       id="linearGradient3169"
       x1="-8.6979141"
       y1="5.5016246"
       x2="-6.8756237"
       y2="5.8664618"
       gradientUnits="userSpaceOnUse"
       gradientTransform="translate(11.079164,0.5836707)" />
    <linearGradient
       inkscape:collect="always"
       xlink:href="#linearGradient26892"
       id="linearGradient3915"
       x1="-1.0249975"
       y1="2.8557916"
       x2="-2.2618506"
       y2="6.1070709"
       gradientUnits="userSpaceOnUse"
       gradientTransform="translate(11.079164,0.5836707)" />
    <linearGradient
       inkscape:collect="always"
       xlink:href="#linearGradient70845"
       id="linearGradient4193"
       x1="-3.6708312"
       y1="4.1787086"
       x2="-1.2895792"
       y2="10.528708"
       gradientUnits="userSpaceOnUse"
       gradientTransform="translate(11.343746,0.5836707)" />
    <linearGradient
       inkscape:collect="always"
       xlink:href="#linearGradient40996"
       id="linearGradient4395"
       x1="-8.168746"
       y1="0.73912501"
       x2="-8.6979141"
       y2="2.8557916"
       gradientUnits="userSpaceOnUse"
       gradientTransform="translate(11.079164,0.5836707)" />
    <linearGradient
       inkscape:collect="always"
       xlink:href="#linearGradient40996"
       id="linearGradient4749"
       x1="-0.23124598"
       y1="2.5912082"
       x2="-3.6708307"
       y2="4.1787086"
       gradientUnits="userSpaceOnUse"
       gradientTransform="translate(11.872913,0.5836707)" />
    <linearGradient
       inkscape:collect="always"
       xlink:href="#linearGradient56461"
       id="linearGradient4951"
       x1="-8.6979141"
       y1="2.8557918"
       x2="-2.8770823"
       y2="11.851625"
       gradientUnits="userSpaceOnUse"
       gradientTransform="translate(11.079164,0.5836707)" />
    <linearGradient
       inkscape:collect="always"
       xlink:href="#linearGradient40996"
       id="linearGradient5955"
       x1="-5.7874956"
       y1="-0.054504178"
       x2="-1.0249975"
       y2="2.8557916"
       gradientUnits="userSpaceOnUse"
       gradientTransform="translate(11.079164,0.5836707)" />
  </defs>
  <path
     id="rect1310"
     style="fill:url(#linearGradient5955);fill-opacity:1;stroke-width:0.264583;stroke-linejoin:round"
     d="M 5.0270853,0.79374987 10.847917,2.1166664 10.054167,3.4394623 6.3500021,3.7040456 4.2333354,2.1165448 Z"
     sodipodi:nodetypes="cccccc" />
  <path
     id="rect1727"
     style="fill:url(#linearGradient4395);fill-opacity:1;stroke-width:0.264583;stroke-linejoin:round"
     d="M 1.0583333,2.6457123 2.9104187,1.3227957 4.2333354,2.1165456 3.4395836,3.4394621 2.38125,3.4394625 Z"
     sodipodi:nodetypes="cccccc" />
  <path
     d="m 2.3812503,3.4394621 1.8520848,-1.3229167 1.5875002,7.6729148 -1.5875002,10e-7 -1.8520848,1.3229168 z"
     style="fill:url(#linearGradient3169);fill-opacity:1;stroke-width:0.0700042;stroke-linejoin:round"
     id="path2897"
     sodipodi:nodetypes="cccccc" />
  <path
     d="M 4.2333353,2.1165448 10.054167,3.4394623 V 11.112378 L 8.2020819,12.435294 4.2333353,9.7894602 Z"
     style="fill:url(#linearGradient3915);fill-opacity:1;stroke-width:0.0700042;stroke-linejoin:round"
     id="path3818"
     sodipodi:nodetypes="cccccc" />
  <path
     id="rect2751"
     style="fill:url(#linearGradient4193);fill-opacity:1;stroke-width:0.264583;stroke-linejoin:round"
     d="M 8.2020819,4.762379 10.054167,3.4394623 v 7.6729157 l -1.8520851,1.322917 z"
     sodipodi:nodetypes="ccccc" />
  <path
     d="M 8.2020819,4.762379 10.054167,3.4394623 11.641667,3.1748789 9.7895817,4.4977958 Z"
     style="fill:url(#linearGradient4749);fill-opacity:1;stroke-width:0.0700042;stroke-linejoin:round"
     id="path1888"
     sodipodi:nodetypes="ccccc" />
  <path
     d="M 5.0270861,0.52916667 10.847918,1.8520829 10.847917,2.1166664 5.0270853,0.79374987 Z"
     style="fill:#c65981;fill-opacity:1;stroke-width:0.0700042"
     id="path5763"
     sodipodi:nodetypes="ccccc" />
  <path
     id="rect969"
     style="fill:url(#linearGradient4951);fill-opacity:1;stroke-width:0.264583;stroke-linejoin:round"
     d="M 2.38125,3.4394623 8.2020819,4.762379 v 7.672915 L 2.38125,11.112377 Z"
     sodipodi:nodetypes="ccccc" />
  <path
     id="path2"
     style="opacity:0.6;fill:#ffffff;stroke-width:0.0119061"
     d="m 4.2738153,8.0346098 c -0.045893,-0.012863 -0.091598,-0.02718 -0.1367341,-0.037781 l 0.019883,0.00997 c 0.03321,-8.67e-5 0.081622,0.023059 0.1168523,0.027836 z M 4.0732256,7.9826925 C 3.9985615,7.9600698 3.8949886,7.9612466 3.9269567,7.9375 3.8050972,7.9475463 3.5887793,7.9450938 3.4674083,8.0147326 l -0.00379,-0.026898 c -0.05562,0.046523 -0.2425176,0.111139 -0.2574126,0.1921936 l -0.014883,-0.00199 c -0.028942,0.038468 -0.047667,0.087193 -0.070623,0.1292601 -0.037865,0.050721 -0.055505,0.00462 -0.050111,0.016688 -0.074449,0.1238604 -0.1114304,0.237251 -0.1433844,0.3296439 0.022763,0.042312 5.542e-4,0.2050524 0.00917,0.3448939 -0.037395,0.6615723 0.4738551,1.5032199 1.0326922,1.8579459 0.081915,0.0591 0.2037301,0.102286 0.3073492,0.14303 C 4.1541661,10.92004 4.1383602,10.93075 4.0192983,10.84588 3.9333963,10.77416 3.9145718,10.721121 3.8537295,10.646185 l 0.024075,0.05129 c -0.1193113,-0.08566 -0.069407,-0.07754 -0.1664771,-0.143606 l 0.025714,-0.02421 C 3.6983583,10.512647 3.6346066,10.427203 3.6171643,10.386383 l -0.042293,-0.01373 c -0.050838,-0.08123 -0.077926,-0.136251 -0.075948,-0.170558 l -0.013686,0.01938 C 3.4697574,10.189236 3.2981991,9.9181418 3.3871979,9.9991123 3.370657,9.977969 3.3486902,9.9604831 3.3248537,9.9085204 l 0.01811,-0.014097 c -0.042828,-0.070675 -0.078828,-0.1544547 -0.076089,-0.1769598 0.022848,0.039176 0.038693,0.050715 0.054386,0.061721 C 3.2131173,9.4714678 3.2070354,9.7228013 3.1251109,9.4346218 l 0.017325,0.00488 c -0.013294,-0.024859 -0.021342,-0.049519 -0.032021,-0.074744 l 0.00755,-0.072411 C 3.0400866,9.173971 3.0961904,8.9016338 3.1074225,8.7451544 3.11523,8.6826943 3.1724116,8.634012 3.2159256,8.5408502 l -0.026517,-0.014208 c 0.050651,-0.069941 0.2893247,-0.2496635 0.3998365,-0.1957244 0.053569,-0.047758 -0.010642,-0.00412 -0.021117,-0.024866 0.1176084,-0.078911 0.1545945,-0.029713 0.23396,-0.022725 0.085604,-0.019658 -0.073446,-0.00691 -0.032857,-0.031332 0.1479571,0.016058 0.1048525,-0.047751 0.2978857,0.00327 0.020359,0.019002 -0.04725,7.072e-4 -0.064227,0.00956 C 4.1261655,8.2493638 4.393043,8.3602188 4.56636,8.5033706 4.7675135,8.6705941 4.9934568,9.0306781 5.0023746,9.295346 l 0.010159,0.00642 c -0.00514,0.102067 0.015891,0.2298771 -0.020577,0.3269975 l 0.02502,-0.043098 2.39e-5,8.4e-6 c 0.00296,0.080501 -0.023208,0.109501 -0.046813,0.1691333 l -0.042435,0.00578 c -0.034752,0.05481 0.00334,0.044043 -0.02151,0.088655 -0.054237,0.028466 -0.1645793,0.090947 -0.1998922,0.087467 -0.025752,-0.00993 0.017493,-0.024043 0.023143,-0.033693 -0.072591,0.023445 -0.058263,0.053621 -0.1692677,0.043527 l -0.00322,-0.00838 c -0.2738584,0.02912 -0.6542034,-0.3645914 -0.649191,-0.711068 -0.00296,0.021041 -0.00834,0.013571 -0.014393,0.020295 C 3.8793036,9.0630423 3.9762035,8.9183047 4.1395891,8.9042756 4.2994524,8.8833314 4.486798,8.9840124 4.6012994,9.1323919 4.5384083,9.0271107 4.4132563,8.8942355 4.2649052,8.8484069 4.1195551,8.7978211 3.983606,8.8406781 3.9382317,8.9243997 c -0.074449,0.019788 -0.083083,0.1504526 -0.1155266,0.1631227 -0.043631,0.304905 0.0821,0.4892593 0.294816,0.7297004 0.03348,0.03476 0.00943,0.029436 0.013962,0.048273 C 4.0608091,9.8066878 3.9960765,9.7331623 3.9428691,9.652623 3.9711031,9.704251 4.0015681,9.7555 4.0409551,9.8014075 3.974328,9.7545688 3.8852974,9.5832789 3.8593195,9.5681686 3.974177,9.8156387 4.3253588,10.098487 4.5092483,10.088517 4.4241688,10.060707 4.3160618,10.019954 4.2204552,9.9498054 4.1803222,9.9145504 4.1257012,9.8518334 4.1354392,9.8473784 4.3864077,10.032485 4.6456614,10.104114 4.862781,10.00907 c 0.055253,-0.022917 0.1156039,-0.074137 0.1330356,-0.068806 -0.026261,0.029931 0.0045,0.02061 -0.015705,0.048118 0.055068,-0.068729 -0.023902,-0.044833 0.056899,-0.1326045 l 0.029835,0.051968 c -0.011092,-0.077712 0.09154,-0.1298466 0.081132,-0.2501718 0.023516,-0.027083 0.026247,0.047893 0.00128,0.1207982 0.034669,-0.078341 0.00916,-0.102229 0.018071,-0.1740358 0.00965,0.028736 0.02223,0.060113 0.028722,0.089097 -0.022557,-0.0961 0.023175,-0.1395998 0.03449,-0.1865715 -0.01116,-0.00903 -0.034863,0.026171 -0.040281,-0.079633 7.714e-4,-0.04482 0.012561,-0.019054 0.017081,-0.028504 -0.00884,-0.00835 -0.032085,-0.051326 -0.046203,-0.1227846 0.010237,-0.011855 0.027393,0.050368 0.041322,0.057735 -0.00897,-0.056 -0.024399,-0.101799 -0.025042,-0.1424775 -0.040725,-0.099941 -0.014413,0.00611 -0.047437,-0.05382 -0.043354,-0.1509965 0.035974,-0.018277 0.041322,-0.077766 0.065724,0.1191126 0.1031819,0.2802668 0.1203636,0.3476229 C 5.278539,9.3279535 5.2573383,9.2480787 5.2314374,9.1688226 5.251405,9.1844894 5.1993005,9.0038254 5.2573901,9.1320384 5.1953743,8.8811971 4.9918955,8.5938498 4.8046952,8.4256319 c 0.022911,0.029295 0.051833,0.066138 0.041438,0.066475 C 4.7530407,8.4028101 4.7694163,8.4044616 4.7560715,8.3761873 4.6802407,8.3177389 4.6752423,8.3492131 4.6250115,8.3285322 4.4820775,8.2007128 4.4545478,8.198756 4.3229856,8.103354 l 0.00597,0.030138 C 4.2342666,8.067486 4.218631,8.105284 4.1162737,8.056177 4.1100437,8.048987 4.1490597,8.050517 4.1811987,8.057527 4.0896407,8.03628 4.0939197,8.007724 4.0043278,7.996436 4.0264108,7.988986 4.0497458,7.987256 4.0733008,7.98264 Z m 0.074042,0.044106 c 0.026202,0.014227 0.056643,0.028942 0.052361,0.033641 0.028658,0.00412 0.035171,7.07e-4 -0.052361,-0.033641 z m 0.052361,0.033641 -0.01854,-0.00296 0.017254,0.00476 z M 2.9911591,8.2023613 c -2.57e-5,0.00161 1.086e-4,0.00289 3.516e-4,0.00412 -9.96e-5,-0.00135 -2.031e-4,-0.00277 -3.516e-4,-0.00412 z m 3.516e-4,0.00412 c 0.00495,0.069668 -0.052392,0.074368 0.013147,0.052406 0.033878,-0.063978 -0.00888,-0.031358 -0.013147,-0.052406 z m -0.05481,0.2009884 c -0.042513,0.038887 -0.019556,0.058821 -0.024042,0.094171 0.015383,-0.041631 0.018168,-0.068975 0.024042,-0.094171 z M 4.6869678,9.372886 c -0.00611,-0.00206 -0.013872,0.010541 -0.017794,0.025991 0.00912,0.00809 0.016392,0.068309 0.025251,0.03591 0.00296,-0.043148 -0.00142,-0.05985 -0.00747,-0.061908 z m 0.5370071,0.3444903 c -7.7e-6,5.72e-5 -1.22e-5,1.195e-4 -2.39e-5,1.775e-4 l 7.2e-5,-1.595e-4 z m -2.39e-5,1.775e-4 -0.00713,0.015312 C 5.203584,9.8220078 5.175023,9.9045908 5.131225,9.9748513 5.179536,9.9015403 5.210851,9.8135188 5.223962,9.7175562 Z M 4.6551818,9.5434461 c -0.00657,0.030188 -0.024236,0.051891 -0.040898,0.075503 -0.091807,0.024378 -0.00864,-0.037473 -4.95e-5,-0.069363 -0.098702,0.088326 -0.013557,0.069572 -0.017138,0.1029625 0.02925,-0.0297 0.050568,-0.066159 0.058095,-0.1091027 z M 4.4550119,9.660292 C 4.4150839,9.655532 4.3744649,9.640961 4.3335079,9.622306 4.2843939,9.605128 4.3427879,9.65099 4.4068969,9.6842 4.4246149,9.67682 4.4406979,9.668668 4.4550149,9.660279 Z M 3.8352184,9.4410729 c 0.010823,0.043766 0.032991,0.086045 0.053628,0.1283697 l -0.015126,-0.050059 c -0.017081,-0.025116 -0.027187,-0.051531 -0.038508,-0.07831 z m -0.037788,0.053517 -0.00685,0.031943 c 0.032265,0.055595 0.05787,0.1124271 0.099085,0.1617057 C 3.8600213,9.6195457 3.8379915,9.5876103 3.797461,9.4945992 Z" />
</svg>
