<?xml version="1.0" encoding="UTF-8" standalone="no"?>
<!-- Created with Inkscape (http://www.inkscape.org/) -->

<svg
   width="48"
   height="48"
   viewBox="0 0 12.7 12.7"
   version="1.1"
   id="svg5"
   inkscape:version="1.1.2 (0a00cf5339, 2022-02-04, custom)"
   sodipodi:docname="text-x-kvt.svg"
   xmlns:inkscape="http://www.inkscape.org/namespaces/inkscape"
   xmlns:sodipodi="http://sodipodi.sourceforge.net/DTD/sodipodi-0.dtd"
   xmlns="http://www.w3.org/2000/svg"
   xmlns:svg="http://www.w3.org/2000/svg">
  <sodipodi:namedview
     id="namedview7"
     pagecolor="#ffffff"
     bordercolor="#666666"
     borderopacity="1.0"
     inkscape:pageshadow="2"
     inkscape:pageopacity="0.0"
     inkscape:pagecheckerboard="0"
     inkscape:document-units="px"
     showgrid="false"
     units="px"
     height="64px"
     inkscape:zoom="16.125"
     inkscape:cx="24"
     inkscape:cy="24"
     inkscape:window-width="1920"
     inkscape:window-height="998"
     inkscape:window-x="0"
     inkscape:window-y="0"
     inkscape:window-maximized="1"
     inkscape:current-layer="svg5" />
  <defs
     id="defs2">
    <linearGradient
       id="linearGradient45680"
       x1="-102.06"
       x2="-102.06"
       y1="1.3231"
       y2="19.157"
       gradientTransform="matrix(0.33658507,0,0,0.32593141,41.083588,3.8021048)"
       gradientUnits="userSpaceOnUse">
      <stop
         stop-color="#ffdc23"
         offset="0"
         id="stop22" />
      <stop
         stop-color="#e6628a"
         offset=".31552"
         id="stop24" />
      <stop
         stop-color="#7b5fc1"
         offset=".55428"
         id="stop26" />
      <stop
         stop-color="#1e9be1"
         offset=".79721"
         id="stop28" />
      <stop
         stop-color="#0082dc"
         offset="1"
         id="stop30" />
    </linearGradient>
    <linearGradient
       id="linearGradient1954"
       x1="-109.09"
       x2="-101.26"
       y1="11.122"
       y2="18.440001"
       gradientTransform="matrix(0.33658507,0,0,0.32593141,41.083588,3.8021012)"
       gradientUnits="userSpaceOnUse">
      <stop
         stop-color="#64d2eb"
         offset="0"
         id="stop2" />
      <stop
         stop-color="#0082dc"
         offset="1"
         id="stop4" />
    </linearGradient>
    <linearGradient
       id="linearGradient1431"
       x1="-107.04"
       x2="-99.660004"
       y1="6.9531002"
       y2="17.895"
       gradientTransform="matrix(0.33658507,0,0,0.32593141,41.083588,3.8020865)"
       gradientUnits="userSpaceOnUse">
      <stop
         stop-color="#a578e1"
         offset="0"
         id="stop7" />
      <stop
         stop-color="#5046a0"
         offset="1"
         id="stop9" />
    </linearGradient>
    <linearGradient
       id="linearGradient1439"
       x1="-105"
       x2="-97.016998"
       y1="4.2921"
       y2="13.799"
       gradientTransform="matrix(0.33658507,0,0,0.32593141,41.083588,3.8022038)"
       gradientUnits="userSpaceOnUse">
      <stop
         stop-color="#eb82aa"
         offset="0"
         id="stop12" />
      <stop
         stop-color="#dc2850"
         offset="1"
         id="stop14" />
    </linearGradient>
    <linearGradient
       id="linearGradient1447"
       x1="-102.1"
       x2="-98.566002"
       y1="1.4752001"
       y2="7.8610001"
       gradientTransform="matrix(0.33658507,0,0,0.32593141,41.079801,3.8021598)"
       gradientUnits="userSpaceOnUse">
      <stop
         stop-color="#ffdc23"
         offset="0"
         id="stop17" />
      <stop
         stop-color="#f0a019"
         offset="1"
         id="stop19" />
    </linearGradient>
  </defs>
  <path
     id="rect846"
     style="fill:#7d7d7b;stroke-width:0.529167;stroke-linecap:round;stroke-linejoin:round"
     d="M 2.1166667,0.52916667 H 7.9375 L 10.583333,3.175 v 8.995834 H 2.1166667 Z"
     sodipodi:nodetypes="cccccc" />
  <path
     id="rect1454"
     style="fill:#fafafa;stroke-width:0.529167;stroke-linecap:round;stroke-linejoin:round"
     d="M 2.3812501,0.79375008 V 11.906251 H 10.31875 V 3.5718751 H 7.8052086 c -0.14658,0 -0.2947802,-0.1211482 -0.2645833,-0.2645833 V 0.79375008 Z m 5.4239585,0 V 3.3072918 H 10.31875 Z"
     sodipodi:nodetypes="ccccsscccccc" />
  <path
     d="M 6.7329337,4.2333372 C 6.6657104,4.2328225 6.6094646,4.284495 6.6094646,4.284495 6.3183752,4.5300885 6.0735883,4.7634792 5.8490819,4.9901194 v 1.894e-4 C 5.5779556,5.2639604 5.3646651,5.517034 5.1763587,5.7595878 4.7284823,6.3365101 4.5160554,6.7971239 4.3913254,7.1621096 h -1.956e-4 c 1.63e-5,6.01e-5 -1.46e-5,1.288e-4 0,1.893e-4 2.42e-5,6.29e-5 -2.12e-5,1.273e-4 0,1.898e-4 -0.1652008,0.4836409 -0.1577109,0.7810486 -0.1577109,0.7810486 -3.5e-6,1.1656156 0.9757252,2.1106407 2.1794023,2.1106047 0.1911843,0 0.3738414,-0.03041 0.5498492,-0.0756 0.595249,-0.1528143 1.0901164,-0.5403283 1.3716488,-1.0584373 v -3.66e-4 C 8.4936055,8.6265709 8.5924117,8.2978229 8.5924117,7.9435444 h 0.0045 c 0,0 0.05046,-0.5214455 -0.3561233,-1.2071593 C 8.1795917,6.6596806 8.0723668,6.5134336 7.9932383,6.4140801 7.9327226,6.4016461 7.8733478,6.389081 7.8147846,6.3763752 7.8732181,6.3890527 7.9326723,6.4014874 7.9930419,6.4138931 7.4877056,5.9719803 6.9374026,5.7072062 6.8145279,4.4954273 6.7938597,4.3491177 6.8390736,4.2333775 6.732931,4.2333775 Z M 6.2200796,5.7512509 c 0.00994,0.00768 0.020126,0.015261 0.030525,0.022926 0.010399,0.00767 0.021026,0.015471 0.031896,0.023116 -0.01087,-0.00765 -0.021497,-0.015262 -0.031896,-0.022927 -0.010399,-0.00767 -0.02059,-0.015434 -0.030525,-0.023117 z m 0.3860791,0.2340066 c 0.025127,0.012256 0.050843,0.024439 0.077485,0.03657 -0.026687,-0.012151 -0.052319,-0.024292 -0.077485,-0.03657 z m 0.1768904,0.07996 c 0.029315,0.012299 0.059589,0.024436 0.090597,0.03657 -0.030957,-0.012116 -0.061325,-0.024289 -0.090597,-0.03657 z m -1.5964969,0.082802 c 0.00475,0.021401 0.010383,0.042897 0.016632,0.064234 -0.00626,-0.021397 -0.011871,-0.042773 -0.016632,-0.064234 z m 2.4967926,0.1987658 c 0.021701,0.005 0.043584,0.010026 0.065749,0.014969 -0.022173,-0.00495 -0.044024,-0.00996 -0.065749,-0.014969 z M 5.774153,6.9148343 c 0.028278,0.018712 0.057848,0.037211 0.088443,0.055518 -0.0306,-0.018307 -0.060165,-0.036807 -0.088443,-0.055518 z m 0.1837362,0.109899 c 0.03298,0.017879 0.067106,0.035448 0.1025329,0.052863 -0.035424,-0.017419 -0.069552,-0.034984 -0.1025329,-0.052863 z m 0.4559039,0.2029311 c 0.043186,0.015875 0.087735,0.031491 0.1336437,0.046803 -0.045909,-0.01531 -0.090458,-0.030926 -0.1336437,-0.046803 z m 0.2034984,0.06954 c 0.047294,0.015015 0.095868,0.029743 0.1459724,0.044148 -0.050104,-0.014406 -0.098678,-0.029134 -0.1459724,-0.044148 z m 0.3007488,0.086403 c 0.026486,0.00691 0.053209,0.013561 0.080423,0.020279 0.027217,0.00668 0.053963,0.01375 0.080226,0.020837 -0.026259,-0.00707 -0.053012,-0.013939 -0.080226,-0.020649 -0.027217,-0.00668 -0.053939,-0.013577 -0.080423,-0.02046 z m 0.6447403,0.215816 c 0.039867,0.018983 0.078006,0.0385 0.1144679,0.05874 -0.036465,-0.02024 -0.074596,-0.039757 -0.1144679,-0.05874 z m 0.4375386,0.2927477 c 0.025261,0.024208 0.048958,0.048871 0.071225,0.074085 -0.022267,-0.025214 -0.045964,-0.049885 -0.071225,-0.074085 z m 0.1616261,0.1908052 c 0.017954,0.026644 0.034501,0.053759 0.049704,0.081288 -0.015203,-0.027532 -0.031743,-0.054647 -0.049704,-0.081288 z M 7.2041311,9.8004339 c -0.024176,0.02175 -0.049413,0.04311 -0.075334,0.06386 0.025928,-0.02074 0.051158,-0.04211 0.075334,-0.06386 z m -0.1146653,0.09455 c -0.013294,0.0101 -0.026738,0.02012 -0.040307,0.02994 -0.00707,0.0051 -0.014166,0.0097 -0.021332,0.01421 0.00715,-0.0045 0.014253,-0.0093 0.021332,-0.0144 0.013569,-0.0098 0.027005,-0.01965 0.040307,-0.02975 z"
     fill="url(#linearGradient45680)"
     id="path35"
     style="fill:url(#linearGradient45680);stroke-width:0.331215" />
  <path
     d="m 4.3913141,7.1621473 c -0.1653409,0.4838605 -0.1579306,0.781489 -0.1579306,0.781489 -3.4e-6,1.1656156 0.9758389,2.1105677 2.1795163,2.1105307 0.1911843,0 0.3738107,-0.03044 0.5498107,-0.07563 0.029048,-0.01923 0.058127,-0.03323 0.08644,-0.05373 0.1085347,-0.07858 0.209549,-0.166308 0.2857687,-0.26022 0.038115,-0.04695 0.06996,-0.09542 0.093574,-0.145184 0.023619,-0.04977 0.039003,-0.100695 0.043827,-0.152594 0.00479,-0.0519 -8.643e-4,-0.104799 -0.019132,-0.158153 -0.018221,-0.05335 -0.049052,-0.10723 -0.094619,-0.161351 C 7.3130068,8.9931929 7.2527771,8.9388379 7.1755919,8.8846169 7.0984104,8.8303949 7.0043023,8.7763939 6.891216,8.7227609 6.7781297,8.6691239 6.6460051,8.6157989 6.4927169,8.5634309 6.3394512,8.5110589 6.164996,8.4595739 5.9672914,8.4091492 5.7695637,8.3587244 5.5937492,8.2997267 5.4376628,8.2333119 5.281565,8.1668962 5.1452027,8.0930297 5.0268191,8.013176 4.9084507,7.9333262 4.8080231,7.8473966 4.7234802,7.7566631 4.6389411,7.6659257 4.5702526,7.570419 4.5156312,7.4713475 4.4610099,7.372276 4.420395,7.2696593 4.391795,7.1648132 c -2.423e-4,-8.643e-4 -2.829e-4,-0.00181 -6.797e-4,-0.00271 z"
     fill="url(#linearGradient1954)"
     id="path37"
     style="fill:url(#linearGradient1954);stroke-width:0.331215" />
  <path
     d="m 4.3910869,7.1621473 c 2.389e-4,8.643e-4 2.795e-4,0.00181 6.796e-4,0.00271 0.028612,0.10485 0.069215,0.2074667 0.1238363,0.3065343 0.054621,0.099068 0.1233061,0.1945782 0.207849,0.2853156 0.084543,0.090737 0.1849705,0.1766631 0.303339,0.2565129 0.1183684,0.07985 0.2547268,0.1537202 0.4108436,0.2201359 0.156094,0.066416 0.3318935,0.1254125 0.5296287,0.1758373 0.1977313,0.050427 0.372194,0.1019096 0.5254252,0.1542806 0.1532657,0.05237 0.2853904,0.105698 0.3984994,0.159331 0.1130863,0.05364 0.2071936,0.10764 0.2843759,0.161857 0.077189,0.05422 0.1374149,0.108574 0.1829784,0.1627 0.045564,0.05413 0.076395,0.107999 0.094619,0.16135 0.018229,0.05335 0.023964,0.106255 0.019132,0.158154 -0.00479,0.0519 -0.020216,0.102829 -0.043827,0.152594 -0.023611,0.04977 -0.055464,0.09823 -0.093574,0.145183 -0.076222,0.09391 -0.177234,0.181635 -0.2857687,0.2602213 -0.028309,0.0205 -0.057396,0.03451 -0.08644,0.05373 0.5952497,-0.1528146 1.0900795,-0.5404386 1.3716111,-1.0585476 0.0011,-0.0087 0.00479,-0.01793 0.00574,-0.02661 0.014041,-0.130649 0.012406,-0.257888 -0.008,-0.379983 C 8.3116184,8.3913528 8.2724741,8.2744102 8.2116645,8.1643097 8.1508581,8.0541989 8.0683715,7.9509812 7.9612079,7.8562586 7.8540436,7.7615282 7.7221992,7.6753456 7.5627083,7.5994079 7.4032405,7.5234694 7.216195,7.4577727 6.9985092,7.4040299 6.7807807,7.3502869 6.5864915,7.2911938 6.4137479,7.22769 6.2410118,7.1641897 6.0898023,7.09626 5.9578817,7.0247408 5.8259536,6.9532212 5.7133258,6.8781815 5.6180325,6.8003958 5.5227281,6.7226136 5.4447021,6.642184 5.3818336,6.5598844 5.3189649,6.4775885 5.2712162,6.3933198 5.2365993,6.3082555 5.2019863,6.2231912 5.1805277,6.1373166 5.1699821,6.0512366 5.1594478,5.9651565 5.1599514,5.8788895 5.1693005,5.7935465 c 0.00137,-0.011433 0.00538,-0.022455 0.00697,-0.033855 C 4.7283923,6.3366138 4.516041,6.7971909 4.3913111,7.1621765 Z"
     fill="url(#linearGradient1431)"
     id="path39"
     style="fill:url(#linearGradient1431);stroke-width:0.331215" />
  <path
     d="m 5.1762716,5.7596623 c -0.00167,0.0114 -0.00572,0.022422 -0.00697,0.033855 -0.00932,0.085347 -0.00986,0.1716136 6.796e-4,0.25769 0.010534,0.08608 0.032008,0.1719547 0.066618,0.257019 0.034613,0.085064 0.082366,0.169333 0.1452341,0.2516289 0.062869,0.082296 0.1408948,0.1627292 0.2361991,0.2405114 0.095308,0.077782 0.2079361,0.1528217 0.3398492,0.2243448 0.1319281,0.07152 0.2831376,0.1394454 0.4558659,0.2029531 0.1727361,0.063505 0.3670447,0.1226005 0.5847614,0.1763403 0.2177282,0.053743 0.4047848,0.1194356 0.5642376,0.1953773 0.1594751,0.075939 0.2913125,0.1621211 0.3984988,0.2568507 0.1071604,0.09473 0.189651,0.197945 0.2504629,0.3080526 0.060814,0.1101084 0.099951,0.2270659 0.1203604,0.3491385 0.020413,0.122083 0.022039,0.249323 0.008,0.379983 -9.429e-4,0.0087 -0.00464,0.0179 -0.00574,0.02661 0.1593357,-0.293203 0.2581121,-0.622023 0.2581121,-0.9763754 h 0.0046 c 0,0 0.05038,-0.5215555 -0.3562076,-1.2072694 C 8.1795909,6.6596707 8.0723817,6.5133573 7.9932572,6.4140038 7.801781,6.3746599 7.6174283,6.3342453 7.4568514,6.2908826 7.2659315,6.2393284 7.0959299,6.1852663 6.9449816,6.1291947 6.7940224,6.0731232 6.6620678,6.0150459 6.5470502,5.9557147 6.4320068,5.8963834 6.3338471,5.8356478 6.2506714,5.7743219 6.1674914,5.712996 6.099227,5.6511126 6.0438675,5.5890533 5.9885037,5.526994 5.9460598,5.4648101 5.9144612,5.4032787 5.8828546,5.3417474 5.8621644,5.2807845 5.8502825,5.2210389 5.8383985,5.1612972 5.8353696,5.1027358 5.839141,5.0460445 5.840511,5.0267065 5.846451,5.0090105 5.849241,4.9901265 5.5780239,5.2638553 5.3646353,5.5170352 5.1762909,5.7596623 Z"
     fill="url(#linearGradient1439)"
     id="path41"
     style="fill:url(#linearGradient1439);stroke-width:0.331215" />
  <path
     d="m 5.8491463,4.9900903 c -0.00267,0.018887 -0.00882,0.036575 -0.0101,0.055918 -0.00377,0.056691 -6.679e-4,0.1152525 0.011141,0.1749944 0.011884,0.059742 0.03258,0.1207049 0.064179,0.1822362 0.031605,0.061532 0.074043,0.1237152 0.1294059,0.1857746 0.05536,0.062059 0.1236243,0.1239425 0.2068043,0.1852685 0.083176,0.061326 0.1813354,0.1220652 0.2963789,0.1813928 0.1150403,0.059332 0.2469949,0.1174048 0.3979314,0.1734801 0.1509482,0.056075 0.3209577,0.1101337 0.5118697,0.1616878 0.1605691,0.043359 0.3449296,0.083777 0.5364058,0.1231213 C 7.4878062,5.9720499 6.9373138,5.7072025 6.8144391,4.4954236 6.7937725,4.349114 6.8390108,4.2333519 6.7328693,4.2333519 6.6656459,4.2328385 6.6095518,4.284554 6.6095518,4.284554 6.3184624,4.5301474 6.0736374,4.7634648 5.8491314,4.990105 Z"
     fill="url(#linearGradient1447)"
     id="path43"
     style="fill:url(#linearGradient1447);stroke-width:0.331215" />
</svg>
