<?xml version="1.0" encoding="UTF-8" standalone="no"?>
<!-- Created with Inkscape (http://www.inkscape.org/) -->

<svg
   width="48"
   height="48"
   viewBox="0 0 12.7 12.7"
   version="1.1"
   id="svg5"
   inkscape:version="1.1.2 (0a00cf5339, 2022-02-04, custom)"
   sodipodi:docname="text-x-rust.svg"
   xmlns:inkscape="http://www.inkscape.org/namespaces/inkscape"
   xmlns:sodipodi="http://sodipodi.sourceforge.net/DTD/sodipodi-0.dtd"
   xmlns:xlink="http://www.w3.org/1999/xlink"
   xmlns="http://www.w3.org/2000/svg"
   xmlns:svg="http://www.w3.org/2000/svg">
  <sodipodi:namedview
     id="namedview7"
     pagecolor="#ffffff"
     bordercolor="#666666"
     borderopacity="1.0"
     inkscape:pageshadow="2"
     inkscape:pageopacity="0.0"
     inkscape:pagecheckerboard="0"
     inkscape:document-units="px"
     showgrid="false"
     units="px"
     height="64px"
     inkscape:zoom="6.0390626"
     inkscape:cx="22.851229"
     inkscape:cy="51.580853"
     inkscape:window-width="1920"
     inkscape:window-height="1028"
     inkscape:window-x="0"
     inkscape:window-y="0"
     inkscape:window-maximized="1"
     inkscape:current-layer="svg5" />
  <defs
     id="defs2">
    <linearGradient
       inkscape:collect="always"
       xlink:href="#linearGradient6322"
       id="linearGradient6324"
       x1="4.4979196"
       y1="5.8207517"
       x2="12.435461"
       y2="13.229085"
       gradientUnits="userSpaceOnUse"
       gradientTransform="matrix(0.66666313,0,0,0.66667693,0.70556917,1.3228596)" />
    <linearGradient
       inkscape:collect="always"
       id="linearGradient6322">
      <stop
         style="stop-color:#333333;stop-opacity:1;"
         offset="0"
         id="stop6318" />
      <stop
         style="stop-color:#683f2b;stop-opacity:1"
         offset="1"
         id="stop6320" />
    </linearGradient>
  </defs>
  <path
     id="rect846"
     style="fill:#7d7d7b;stroke-width:0.529167;stroke-linecap:round;stroke-linejoin:round"
     d="M 2.1166667,0.52916667 H 7.9375 L 10.583333,3.175 v 8.995834 H 2.1166667 Z"
     sodipodi:nodetypes="cccccc" />
  <path
     id="rect1454"
     style="fill:#fafafa;stroke-width:0.529167;stroke-linecap:round;stroke-linejoin:round"
     d="M 2.3812501,0.79375008 V 11.906251 H 10.31875 V 3.5718751 H 7.8052086 c -0.14658,0 -0.2947802,-0.1211482 -0.2645833,-0.2645833 V 0.79375008 Z m 5.4239585,0 V 3.3072918 H 10.31875 Z"
     sodipodi:nodetypes="ccccsscccccc" />
  <path
     id="path15"
     d="m 6.3500034,5.0270833 c -0.025466,1.003e-4 -0.050962,0.011349 -0.064768,0.033762 L 6.1474327,5.2834025 6.0826657,5.2896024 5.9045551,5.0983968 C 5.8684213,5.059735 5.7952697,5.0740949 5.7767428,5.12389 L 5.6854483,5.368151 5.6224033,5.3870993 5.4108755,5.2348236 C 5.3678618,5.2037558 5.2987979,5.2325369 5.290298,5.2847787 L 5.2482675,5.5421312 5.1907345,5.5731377 4.9530242,5.4649601 c -0.048274,-0.022068 -0.1102021,0.019413 -0.1081753,0.072348 l 0.00896,0.2614868 -0.049954,0.041342 -0.2545911,-0.06029 c -0.051714,-0.012047 -0.1044749,0.040614 -0.092328,0.09233 l 0.059941,0.2545959 -0.040996,0.049955 -0.2614814,-0.00896 c -0.052734,-0.00153 -0.094307,0.059796 -0.072347,0.1081776 l 0.1081758,0.2377151 -0.031006,0.057878 -0.2573472,0.041686 c -0.052326,0.00849 -0.080826,0.07756 -0.049952,0.1205815 l 0.1522719,0.2115317 -0.018948,0.063046 -0.244256,0.091296 c -0.049594,0.01852 -0.064254,0.091574 -0.025494,0.127815 l 0.1912018,0.1781142 -0.0062,0.064768 -0.222552,0.1378059 c -0.04504,0.027834 -0.04504,0.1021478 0,0.1298822 l 0.222552,0.137806 0.0062,0.064769 -0.1912018,0.1781143 c -0.03876,0.036133 -0.0241,0.1091941 0.025494,0.1278146 l 0.244256,0.091297 0.018948,0.063046 -0.1522726,0.2115316 c -0.030967,0.043113 -0.00234,0.111836 0.049954,0.120236 l 0.2573472,0.042033 0.031006,0.05788 -0.1081753,0.2373707 c -0.022061,0.048273 0.019619,0.1106491 0.072346,0.1085221 l 0.2614815,-0.0093 0.040996,0.0503 -0.059944,0.254597 c -0.012146,0.05162 0.040614,0.104125 0.092328,0.09198 l 0.2545911,-0.05995 0.049954,0.04099 -0.00896,0.261487 c -0.002,0.05293 0.059902,0.09442 0.1081753,0.07235 l 0.2377103,-0.108178 0.057533,0.03101 0.04203,0.2573527 c 0.0085,0.05243 0.077564,0.08082 0.1205776,0.04995 l 0.2115276,-0.1526207 0.063045,0.01929 0.091295,0.2442597 c 0.01852,0.04959 0.091341,0.06435 0.1274678,0.02549 l 0.1784551,-0.191206 0.064767,0.0065 0.1374586,0.222212 c 0.027734,0.04483 0.1023902,0.04493 0.130224,0 l 0.1378031,-0.222212 0.064768,-0.0065 0.1781105,0.191206 c 0.036134,0.03887 0.1092854,0.02409 0.1278123,-0.02549 l 0.091294,-0.2442597 0.063045,-0.01929 0.2115279,0.1526197 c 0.043014,0.03087 0.1117337,0.0024 0.1202337,-0.04995 l 0.042033,-0.2573527 0.05788,-0.03101 0.237366,0.108178 c 0.048273,0.02207 0.1104461,-0.01931 0.1085195,-0.07235 l -0.0093,-0.261488 0.0503,-0.041 0.2545914,0.05995 c 0.05172,0.01214 0.1041301,-0.04036 0.091983,-0.09199 l -0.059946,-0.254596 0.040993,-0.0503 0.2614813,0.0093 c 0.052726,0.0021 0.094514,-0.06025 0.072347,-0.1085224 L 8.4497803,8.8325712 8.4807873,8.7746912 8.738134,8.7326582 C 8.79056,8.7242582 8.819161,8.6555442 8.788087,8.6124228 L 8.635816,8.4009046 8.654763,8.3378586 8.899019,8.2465626 c 0.049693,-0.01862 0.06436,-0.091681 0.025493,-0.1278153 l -0.1912018,-0.1781087 0.00653,-0.064768 0.2222074,-0.137806 c 0.04504,-0.027734 0.045046,-0.1020478 0,-0.1298822 L 8.7398433,7.4703757 8.73331,7.4056067 8.9245116,7.2274924 c 0.038866,-0.03624 0.0242,-0.1092936 -0.025493,-0.1278142 L 8.6547617,7.0083818 8.6358151,6.9453355 8.7880877,6.7338033 c 0.031073,-0.043021 0.00273,-0.1119732 -0.049606,-0.12058 L 8.4807893,6.5715368 8.4497828,6.5136585 8.5579582,6.2759433 C 8.5801248,6.2275615 8.5388517,6.1657389 8.4856113,6.1677657 l -0.2611366,0.00896 -0.04134,-0.049955 0.059946,-0.2545964 c 0.012147,-0.051716 -0.040266,-0.104477 -0.091983,-0.09233 l -0.2545913,0.06029 -0.0503,-0.041342 0.0093,-0.2614868 c 0.002,-0.052935 -0.059893,-0.094316 -0.1081754,-0.072348 L 7.5096211,5.5731329 7.4517414,5.5421264 7.4097083,5.2847739 c -0.0085,-0.052216 -0.077226,-0.080929 -0.1202331,-0.049949 L 7.0779475,5.3871012 7.0149025,5.3681528 6.923608,5.1238917 C 6.9050878,5.0740967 6.8319295,5.0597363 6.7957957,5.0983977 L 6.6176851,5.2896033 6.5529175,5.2834033 6.4151144,5.0608467 c -0.013857,-0.022413 -0.039301,-0.033661 -0.064767,-0.033761 z m -0.00827,0.4661285 c 0.078661,0 0.1574801,0.052553 0.1574401,0.1574433 -8.88e-5,0.2096339 -0.3144555,0.2096339 -0.3145356,0 -4.4e-5,-0.1048904 0.078434,-0.1574433 0.1570955,-0.1574433 z M 6.7069143,5.752287 c 0.559108,0.1047303 1.0439282,0.4501245 1.3256654,0.9443152 L 7.84689,7.1155323 c -0.032033,0.072522 7.333e-4,0.1573487 0.073036,0.189483 l 0.3572544,0.1584769 c 0.011107,0.1117239 0.012187,0.2242826 0.0038,0.3362465 H 8.0825461 c -0.019887,0 -0.027907,0.013241 -0.027907,0.032729 v 0.090952 c 0,0.2147743 -0.1212601,0.261658 -0.2273748,0.2735446 C 7.7261913,8.208351 7.6143866,8.1547646 7.6005666,8.092921 7.5409523,7.7576024 7.4415215,7.6857477 7.2846528,7.5620234 7.4793293,7.4383924 7.6818702,7.2559551 7.6818702,7.0118332 7.6818702,6.7482241 7.5011825,6.5823406 7.3780145,6.5009177 7.2051987,6.3870071 7.0138144,6.3762035 6.9621936,6.3762035 H 4.9075497 C 5.1915937,6.0587922 5.5721491,5.8317343 5.9906819,5.7526314 l 0.2421889,0.2542522 c 0.054754,0.057335 0.1456275,0.059612 0.202915,0.00482 z M 4.465547,6.9170917 c 0.078661,0 0.1571356,0.052546 0.1570955,0.1574433 -8.8e-5,0.2096273 -0.3144554,0.2096273 -0.3145355,0 -4.39e-5,-0.1048904 0.078779,-0.1574433 0.15744,-0.1574433 z m 3.7523784,0.00758 c 0.078661,0 0.1574798,0.052202 0.1574398,0.1570989 -8.8e-5,0.2096273 -0.3144557,0.2096273 -0.3145357,0 -4.4e-5,-0.1048971 0.078434,-0.1570988 0.1570959,-0.1570989 z M 4.7955846,6.9866833 H 5.0270938 L 5.0264071,8.2124677 H 4.4875957 C 4.4192547,7.9724123 4.3979617,7.6961111 4.4248954,7.447989 l 0.338651,-0.1505529 c 0.072368,-0.032134 0.1051695,-0.1169674 0.073036,-0.1894832 z m 1.0455808,0 H 6.556708 c 0.033754,0 0.2383994,0.01376 0.2383994,0.1667453 0,0.1270109 -0.1568995,0.189483 -0.2859414,0.189483 H 5.8411654 Z m 0,0.8140885 h 0.5708493 c 0.045694,0 0.2441378,0.064105 0.3076454,0.3179877 0.019887,0.078082 0.063846,0.3320949 0.093706,0.4134178 0.029754,0.09119 0.1506452,0.2862918 0.2797404,0.2862918 h 0.8171724 c -0.0548,0.073349 -0.1145367,0.1297887 -0.1791444,0.194651 l -0.3327942,-0.07166 c -0.077474,-0.0166 -0.1535865,0.032613 -0.1701868,0.1102454 L 7.1492613,9.4203363 C 6.6355338,9.6530443 6.0456832,9.6500473 5.5342091,9.4124133 L 5.4553168,9.0441272 C 5.4387169,8.9666037 5.3625578,8.9172346 5.2851301,8.9338818 L 4.9599148,9.0038181 C 4.8994873,8.9415825 4.843349,8.8882381 4.7917951,8.8184691 H 6.3500034 V 8.207989 H 5.8411654 Z M 5.17661,9.1337003 c 0.078661,0 0.1574801,0.05221 0.1574401,0.157098 -8.8e-5,0.209628 -0.3147934,0.209628 -0.31488,0 -4.4e-5,-0.104896 0.078779,-0.157098 0.1574399,-0.157098 z m 2.3302505,0.0072 c 0.078661,0 0.1574798,0.05255 0.1574398,0.157443 -8.8e-5,0.209634 -0.3144556,0.209634 -0.3145355,0 -4.41e-5,-0.104897 0.078435,-0.157443 0.1570957,-0.157443 z"
     style="fill:url(#linearGradient6324);fill-opacity:1;stroke-width:0.17639" />
</svg>
