<?xml version="1.0" encoding="UTF-8" standalone="no"?>
<!-- Created with Inkscape (http://www.inkscape.org/) -->

<svg
   width="48"
   height="48"
   viewBox="0 0 12.7 12.7"
   version="1.1"
   id="svg5"
   inkscape:version="1.1.2 (0a00cf5339, 2022-02-04, custom)"
   sodipodi:docname="text-x-go.svg"
   xmlns:inkscape="http://www.inkscape.org/namespaces/inkscape"
   xmlns:sodipodi="http://sodipodi.sourceforge.net/DTD/sodipodi-0.dtd"
   xmlns="http://www.w3.org/2000/svg"
   xmlns:svg="http://www.w3.org/2000/svg">
  <sodipodi:namedview
     id="namedview7"
     pagecolor="#ffffff"
     bordercolor="#666666"
     borderopacity="1.0"
     inkscape:pageshadow="2"
     inkscape:pageopacity="0.0"
     inkscape:pagecheckerboard="0"
     inkscape:document-units="px"
     showgrid="false"
     units="px"
     height="64px"
     inkscape:zoom="6.0390626"
     inkscape:cx="23.84476"
     inkscape:cy="51.498059"
     inkscape:window-width="1920"
     inkscape:window-height="1007"
     inkscape:window-x="0"
     inkscape:window-y="0"
     inkscape:window-maximized="1"
     inkscape:current-layer="svg5" />
  <defs
     id="defs2" />
  <path
     id="rect846"
     style="fill:#7d7d7b;stroke-width:0.529167;stroke-linecap:round;stroke-linejoin:round"
     d="M 2.1166667,0.52916667 H 7.9375 L 10.583333,3.175 v 8.995834 H 2.1166667 Z"
     sodipodi:nodetypes="cccccc" />
  <path
     id="rect1454"
     style="fill:#fafafa;stroke-width:0.529167;stroke-linecap:round;stroke-linejoin:round"
     d="M 2.3812501,0.79375008 V 11.906251 H 10.31875 V 3.5718751 H 7.8052086 c -0.14658,0 -0.2947802,-0.1211482 -0.2645833,-0.2645833 V 0.79375008 Z m 5.4239585,0 V 3.3072918 H 10.31875 Z"
     sodipodi:nodetypes="ccccsscccccc" />
  <path
     id="path17"
     style="fill:#31c6b7;stroke-width:0.0420893"
     d="M 5.0523033,5.8208333 C 4.9441612,5.8208149 4.8344499,5.8315064 4.7231762,5.8516309 4.2391486,5.9400186 3.8435351,6.188584 3.5447005,6.580015 3.2669108,6.9419834 3.1322861,7.3542618 3.187002,7.8130358 3.2333,8.2002572 3.4098623,8.5116558 3.7213234,8.7473563 4.0580384,8.9998925 4.4409412,9.0799945 4.853417,9.0252775 5.3542803,8.9579375 5.7499994,8.7097292 6.0530427,8.30988 6.1217387,8.219326 6.1808165,8.1239294 6.2300368,8.0245376 c 0.070936,0.2562565 0.2135813,0.4765546 0.4207779,0.6556575 0.2946256,0.2525358 0.6440712,0.3618964 1.0270839,0.3703144 0.109433,-0.01262 0.2229071,-0.0168 0.3365492,-0.03785 C 8.405878,8.9326906 8.7466738,8.7558847 9.0244632,8.4738854 9.4158949,8.0782454 9.5802449,7.6153797 9.5086919,7.0471733 9.4539759,6.6431173 9.2478779,6.3356846 8.9153726,6.1084021 8.5491947,5.8600748 8.145058,5.8181705 7.7157466,5.8939314 7.2148834,5.9823189 6.8445239,6.1926547 6.5372715,6.5967123 6.4055722,6.7690836 6.3068214,6.9512229 6.2459922,7.1440209 H 4.8916358 c -0.063134,0 -0.092753,0.041908 -0.1053801,0.067161 -0.058925,0.1094323 -0.1601254,0.3281488 -0.2148416,0.4586259 -0.029463,0.071552 -0.00824,0.12653 0.080148,0.1265302 h 0.812243 C 5.4217156,7.8552632 5.3881417,7.9055124 5.3502616,7.9518109 5.1608596,8.1664666 4.9210722,8.2676117 4.6348646,8.229732 4.3023589,8.1834339 4.0706139,7.9055955 4.0664061,7.5688806 4.0621984,7.2279568 4.2095108,6.9544467 4.4957184,6.7692539 4.7356279,6.6135231 4.9923346,6.5756971 5.2574975,6.7061742 c 0.088388,0.042089 0.1350102,0.088373 0.1981443,0.1599255 0.054716,0.063134 0.058573,0.058765 0.1217065,0.041929 0.2609541,-0.067342 0.4420709,-0.1178139 0.7072338,-0.1851568 0.050507,-0.012628 0.067554,-0.033733 0.042301,-0.071614 C 6.2216591,6.4071395 6.0616457,6.2052511 5.8385722,6.0579384 5.5935332,5.8915539 5.3286663,5.8208805 5.0523033,5.8208333 Z m 2.9409935,0.8107585 c 0.3269513,0.0054 0.6095414,0.2280126 0.6734676,0.5795902 0.00839,0.042089 0.00838,0.084059 0.012614,0.1387753 C 8.6583291,7.7119254 8.4775632,7.9814707 8.1450573,8.1540367 7.9219836,8.2676781 7.6904655,8.280283 7.4589749,8.179272 7.1559333,8.0445825 6.9958327,7.7120204 7.0715935,7.3837233 7.16419,6.9880836 7.4167092,6.7396455 7.8081403,6.6512579 7.8706179,6.6367887 7.9327511,6.6305917 7.9932968,6.6315918 Z" />
</svg>
