<?xml version="1.0" encoding="UTF-8" standalone="no"?>
<!-- Created with Inkscape (http://www.inkscape.org/) -->

<svg
   width="48"
   height="48"
   viewBox="0 0 12.7 12.7"
   version="1.1"
   id="svg5"
   inkscape:version="1.1.2 (0a00cf5339, 2022-02-04)"
   sodipodi:docname="video-x-generic.svg"
   xmlns:inkscape="http://www.inkscape.org/namespaces/inkscape"
   xmlns:sodipodi="http://sodipodi.sourceforge.net/DTD/sodipodi-0.dtd"
   xmlns:xlink="http://www.w3.org/1999/xlink"
   xmlns="http://www.w3.org/2000/svg"
   xmlns:svg="http://www.w3.org/2000/svg">
  <sodipodi:namedview
     id="namedview7"
     pagecolor="#ffffff"
     bordercolor="#666666"
     borderopacity="1.0"
     inkscape:pageshadow="2"
     inkscape:pageopacity="0.0"
     inkscape:pagecheckerboard="0"
     inkscape:document-units="px"
     showgrid="false"
     units="px"
     height="64px"
     inkscape:zoom="16.333333"
     inkscape:cx="24"
     inkscape:cy="24"
     inkscape:window-width="1920"
     inkscape:window-height="1011"
     inkscape:window-x="0"
     inkscape:window-y="0"
     inkscape:window-maximized="1"
     inkscape:current-layer="svg5" />
  <defs
     id="defs2">
    <linearGradient
       inkscape:collect="always"
       xlink:href="#linearGradient12418"
       id="linearGradient2216"
       x1="42"
       y1="4.9999995"
       x2="71.34687"
       y2="54.121693"
       gradientUnits="userSpaceOnUse"
       gradientTransform="matrix(0.1984375,0,0,0.1984375,-4.8947923,0.33072906)" />
    <linearGradient
       inkscape:collect="always"
       id="linearGradient12418">
      <stop
         style="stop-color:#52e4ff;stop-opacity:1;"
         offset="0"
         id="stop12414" />
      <stop
         style="stop-color:#d29eff;stop-opacity:1"
         offset="1"
         id="stop12416" />
    </linearGradient>
    <linearGradient
       inkscape:collect="always"
       xlink:href="#linearGradient27684"
       id="linearGradient27686"
       x1="86.812088"
       y1="124.12689"
       x2="106.69528"
       y2="139.01083"
       gradientUnits="userSpaceOnUse"
       gradientTransform="matrix(0.45058246,0,0,0.78037308,-36.734755,-96.336117)" />
    <linearGradient
       inkscape:collect="always"
       id="linearGradient27684">
      <stop
         style="stop-color:#4a4a4a;stop-opacity:1;"
         offset="0"
         id="stop27680" />
      <stop
         style="stop-color:#232323;stop-opacity:0.74901962"
         offset="1"
         id="stop27682" />
    </linearGradient>
  </defs>
  <path
     id="rect862"
     style="fill:url(#linearGradient27686);stroke-width:0.437276;stroke-linecap:round;stroke-linejoin:round"
     d="m 1.8520827,0.52916667 h 8.9958323 c 0.29316,0 0.529168,0.2360084 0.529168,0.52916683 V 11.641667 c 0,0.293158 -0.236008,0.529166 -0.529168,0.529166 H 1.8520827 c -0.293158,0 -0.529166,-0.236008 -0.529166,-0.529166 V 1.0583335 c 0,-0.29315843 0.236008,-0.52916683 0.529166,-0.52916683 z"
     sodipodi:nodetypes="sssssssss" />
  <path
     id="rect2063"
     style="fill:url(#linearGradient2216);fill-opacity:1;stroke-width:0.595315;stroke-linecap:round;stroke-linejoin:round"
     d="m 3.8364583,1.5875 c -0.2198686,0 -0.396875,0.1770063 -0.396875,0.3968751 v 3.704167 c 0,0.2198689 0.1770064,0.3968749 0.396875,0.3968749 h 5.0270835 c 0.2198688,0 0.3968752,-0.177006 0.3968752,-0.3968749 V 1.9843751 C 9.260417,1.7645063 9.0834106,1.5875 8.8635418,1.5875 Z m 0,5.0270836 c -0.2198686,0 -0.396875,0.177006 -0.396875,0.3968746 v 3.7041678 c 0,0.219868 0.1770064,0.396874 0.396875,0.396874 h 5.0270835 c 0.2198688,0 0.3968752,-0.177006 0.3968752,-0.396874 V 7.0114582 c 0,-0.2198686 -0.1770064,-0.3968746 -0.3968752,-0.3968746 z"
     sodipodi:nodetypes="ssssssssssssssssss" />
  <path
     id="rect2450"
     style="fill:#ffffff;stroke-width:0.529167;stroke-linecap:round;stroke-linejoin:round"
     d="m 2.1166666,1.3229167 c -0.1465791,0 -0.2645833,0.1180041 -0.2645833,0.2645833 v 0.79375 c 0,0.1465791 0.1180042,0.2645833 0.2645833,0.2645833 H 2.38125 c 0.1465791,0 0.2645833,-0.1180042 0.2645833,-0.2645833 V 1.5875 c 0,-0.1465792 -0.1180042,-0.2645833 -0.2645833,-0.2645833 z m 8.2020834,0 c -0.146579,0 -0.264583,0.1180041 -0.264583,0.2645833 v 0.79375 c 0,0.1465791 0.118004,0.2645833 0.264583,0.2645833 h 0.264583 c 0.146579,0 0.264584,-0.1180042 0.264584,-0.2645833 V 1.5875 c 0,-0.1465792 -0.118005,-0.2645833 -0.264584,-0.2645833 z M 2.1166666,3.4395833 c -0.1465791,0 -0.2645833,0.1180042 -0.2645833,0.2645833 v 0.79375 c 0,0.1465792 0.1180042,0.2645833 0.2645833,0.2645833 H 2.38125 c 0.1465791,0 0.2645833,-0.1180041 0.2645833,-0.2645833 v -0.79375 c 0,-0.1465791 -0.1180042,-0.2645833 -0.2645833,-0.2645833 z m 8.2020834,0 c -0.146579,0 -0.264583,0.1180042 -0.264583,0.2645833 v 0.79375 c 0,0.1465792 0.118004,0.2645833 0.264583,0.2645833 h 0.264583 c 0.146579,0 0.264584,-0.1180041 0.264584,-0.2645833 v -0.79375 c 0,-0.1465791 -0.118005,-0.2645833 -0.264584,-0.2645833 z M 2.1166666,5.5562499 c -0.1465791,0 -0.2645833,0.1180042 -0.2645833,0.2645834 v 0.79375 c 0,0.1465791 0.1180042,0.2645833 0.2645833,0.2645833 H 2.38125 c 0.1465791,0 0.2645833,-0.1180042 0.2645833,-0.2645833 v -0.79375 c 0,-0.1465792 -0.1180042,-0.2645834 -0.2645833,-0.2645834 z m 8.2020834,0 c -0.146579,0 -0.264583,0.1180042 -0.264583,0.2645834 v 0.79375 c 0,0.1465791 0.118004,0.2645833 0.264583,0.2645833 h 0.264583 c 0.146579,0 0.264584,-0.1180042 0.264584,-0.2645833 v -0.79375 c 0,-0.1465792 -0.118005,-0.2645834 -0.264584,-0.2645834 z M 2.1166666,7.6729166 c -0.1465791,0 -0.2645833,0.1180041 -0.2645833,0.2645833 v 0.79375 c 0,0.1465792 0.1180042,0.2645833 0.2645833,0.2645833 H 2.38125 c 0.1465791,0 0.2645833,-0.1180041 0.2645833,-0.2645833 v -0.79375 c 0,-0.1465792 -0.1180042,-0.2645833 -0.2645833,-0.2645833 z m 8.2020834,0 c -0.146579,0 -0.264583,0.1180041 -0.264583,0.2645833 v 0.79375 c 0,0.1465792 0.118004,0.2645833 0.264583,0.2645833 h 0.264583 c 0.146579,0 0.264584,-0.1180041 0.264584,-0.2645833 v -0.79375 c 0,-0.1465792 -0.118005,-0.2645833 -0.264584,-0.2645833 z M 2.1166666,9.7895832 c -0.1465791,0 -0.2645833,0.1180042 -0.2645833,0.2645838 v 0.79375 c 0,0.146579 0.1180042,0.264583 0.2645833,0.264583 H 2.38125 c 0.1465791,0 0.2645833,-0.118004 0.2645833,-0.264583 v -0.79375 c 0,-0.1465796 -0.1180042,-0.2645838 -0.2645833,-0.2645838 z m 8.2020834,0 c -0.146579,0 -0.264583,0.1180042 -0.264583,0.2645838 v 0.79375 c 0,0.146579 0.118004,0.264583 0.264583,0.264583 h 0.264583 c 0.146579,0 0.264584,-0.118004 0.264584,-0.264583 v -0.79375 c 0,-0.1465796 -0.118005,-0.2645838 -0.264584,-0.2645838 z" />
</svg>
