<?xml version="1.0" encoding="UTF-8" standalone="no"?>
<!-- Created with Inkscape (http://www.inkscape.org/) -->

<svg
   width="48"
   height="48"
   viewBox="0 0 12.7 12.7"
   version="1.1"
   id="svg5"
   inkscape:version="1.1.2 (0a00cf5339, 2022-02-04, custom)"
   sodipodi:docname="x-office-presentation.svg"
   xmlns:inkscape="http://www.inkscape.org/namespaces/inkscape"
   xmlns:sodipodi="http://sodipodi.sourceforge.net/DTD/sodipodi-0.dtd"
   xmlns="http://www.w3.org/2000/svg"
   xmlns:svg="http://www.w3.org/2000/svg">
  <sodipodi:namedview
     id="namedview7"
     pagecolor="#ffffff"
     bordercolor="#666666"
     borderopacity="1.0"
     inkscape:pageshadow="2"
     inkscape:pageopacity="0.0"
     inkscape:pagecheckerboard="0"
     inkscape:document-units="px"
     showgrid="false"
     units="px"
     height="64px"
     inkscape:zoom="16.791667"
     inkscape:cx="24"
     inkscape:cy="24"
     inkscape:window-width="1920"
     inkscape:window-height="1007"
     inkscape:window-x="0"
     inkscape:window-y="0"
     inkscape:window-maximized="1"
     inkscape:current-layer="svg5" />
  <defs
     id="defs2" />
  <path
     id="rect846"
     style="fill:#7d7d7b;stroke-width:0.529167;stroke-linecap:round;stroke-linejoin:round"
     d="M 2.1166667,0.52916667 H 7.9375 L 10.583333,3.175 v 8.995834 H 2.1166667 Z"
     sodipodi:nodetypes="cccccc" />
  <path
     id="rect1454"
     style="fill:#fafafa;stroke-width:0.529167;stroke-linecap:round;stroke-linejoin:round"
     d="M 2.3812501,0.79375008 V 11.906251 H 10.31875 V 3.5718751 H 7.8052086 c -0.14658,0 -0.2947802,-0.1211482 -0.2645833,-0.2645833 V 0.79375008 Z m 5.4239585,0 V 3.3072918 H 10.31875 Z"
     sodipodi:nodetypes="ccccsscccccc" />
  <path
     id="path844"
     style="opacity:1;fill:#c0c5cb;fill-opacity:1;stroke-width:2;stroke-linejoin:round"
     d="M 24 16 A 6.9999999 6.9999999 0 0 0 17 23 A 6.9999999 6.9999999 0 0 0 24 30 A 6.9999999 6.9999999 0 0 0 31 23 L 24 23 L 24 16 z M 13 33 L 13 34 L 35 34 L 35 33 L 13 33 z M 13 36 L 13 37 L 35 37 L 35 36 L 13 36 z M 13 39 L 13 40 L 35 40 L 35 39 L 13 39 z "
     transform="scale(0.26458333)" />
  <path
     id="path1336"
     style="opacity:1;fill:#e8ab72;fill-opacity:1;stroke-width:0.529167;stroke-linejoin:round"
     d="M 6.6145833,3.96875 V 5.8208333 H 8.4666666 A 1.8520833,1.8520833 0 0 0 6.6145833,3.96875 Z" />
</svg>
