<?xml version="1.0" encoding="UTF-8" standalone="no"?>
<svg
   width="64"
   height="64"
   version="1.1"
   viewBox="0 0 16.933 16.933"
   id="svg524"
   sodipodi:docname="input-keyboard.svg"
   inkscape:version="1.1.1 (3bf5ae0d25, 2021-09-20, custom)"
   xmlns:inkscape="http://www.inkscape.org/namespaces/inkscape"
   xmlns:sodipodi="http://sodipodi.sourceforge.net/DTD/sodipodi-0.dtd"
   xmlns="http://www.w3.org/2000/svg"
   xmlns:svg="http://www.w3.org/2000/svg"
   xmlns:rdf="http://www.w3.org/1999/02/22-rdf-syntax-ns#"
   xmlns:cc="http://creativecommons.org/ns#"
   xmlns:dc="http://purl.org/dc/elements/1.1/">
  <sodipodi:namedview
     id="namedview526"
     pagecolor="#ffffff"
     bordercolor="#666666"
     borderopacity="1.0"
     inkscape:pageshadow="2"
     inkscape:pageopacity="0.0"
     inkscape:pagecheckerboard="0"
     showgrid="false"
     inkscape:zoom="15.666835"
     inkscape:cx="28.914584"
     inkscape:cy="34.116656"
     inkscape:window-width="1920"
     inkscape:window-height="996"
     inkscape:window-x="0"
     inkscape:window-y="0"
     inkscape:window-maximized="1"
     inkscape:current-layer="svg524" />
  <defs
     id="defs12">
    <linearGradient
       id="linearGradient3627"
       x1="36.257"
       x2="48.929"
       y1="7.243"
       y2="8.9727"
       gradientUnits="userSpaceOnUse"
       gradientTransform="matrix(1.1247,0,0,1.1247,-39.16,-0.93293)">
      <stop
         stop-color="#f1f2f4"
         offset="0"
         id="stop2" />
      <stop
         stop-color="#e1e5e8"
         offset="1"
         id="stop4" />
    </linearGradient>
    <linearGradient
       id="linearGradient19237"
       x1="35.736"
       x2="48.914"
       y1="7.7553"
       y2="9.4074"
       gradientUnits="userSpaceOnUse"
       gradientTransform="matrix(1.1247,0,0,1.1247,-39.16,-0.93293)">
      <stop
         stop-color="#363739"
         offset="0"
         id="stop7" />
      <stop
         stop-color="#505356"
         offset="1"
         id="stop9" />
    </linearGradient>
  </defs>
  <metadata
     id="metadata14">
    <rdf:RDF>
      <cc:Work
         rdf:about="">
        <dc:format>image/svg+xml</dc:format>
        <dc:type
           rdf:resource="http://purl.org/dc/dcmitype/StillImage" />
      </cc:Work>
    </rdf:RDF>
  </metadata>
  <path
     d="M 1.6182479,7.2132721 5.6700921,5.9144685 c 0,0 0.347971,-0.1175311 0.7804968,0.01179 0.4325372,0.129318 9.1898111,3.0395017 9.1898111,3.0395017 0,0 0.446214,0.1722478 0.111345,0.3179077 -0.334868,0.1456599 -3.960856,1.4248831 -3.960856,1.4248831 z"
     fill="url(#linearGradient3627)"
     id="path16"
     style="fill:url(#linearGradient3627);stroke-width:1.1247" />
  <path
     d="M 1.6182479,7.2132721 1.0595082,7.4911967 11.239168,11.06808 15.870795,9.3037632 V 9.1586994 l -4.079849,1.5499496 z"
     fill="url(#linearGradient19237)"
     id="path18"
     style="fill:url(#linearGradient19237);stroke-width:1.1247" />
  <path
     d="M 5.6457986,6.1475064 6.0483512,6.041022 6.4368114,6.1464435 6.0120234,6.2588089 Z"
     fill="#c7d0d4"
     id="path20"
     style="stroke-width:1.1247" />
  <path
     d="m 5.6457986,6.1475064 -2.452e-4,0.076848 0.367327,0.099686 -0.00103,-0.065232 z"
     fill="#dddfe3"
     id="path22"
     style="stroke-width:1.1247" />
  <path
     d="m 6.0124508,6.2587392 0.00103,0.06523 0.4226735,-0.1118065 0.00146,-0.065788 z"
     fill="#505356"
     id="path24"
     style="stroke-width:1.1247" />
  <path
     d="M 6.1620359,6.3184608 6.5645885,6.2119764 6.9530487,6.3173979 6.5282607,6.4297633 Z"
     fill="#c7d0d4"
     id="path26"
     style="stroke-width:1.1247" />
  <path
     d="m 6.1620359,6.3184608 -2.463e-4,0.076848 0.367327,0.099685 -0.00103,-0.065231 z"
     fill="#dddfe3"
     id="path28"
     style="stroke-width:1.1247" />
  <path
     d="m 6.5286881,6.4298061 0.00103,0.06523 0.4226735,-0.1118064 0.00146,-0.065788 z"
     fill="#505356"
     id="path30"
     style="stroke-width:1.1247" />
  <path
     d="M 6.7030166,6.4885154 7.1055692,6.3820311 7.4940294,6.4874526 7.0692414,6.599818 Z"
     fill="#c7d0d4"
     id="path32"
     style="stroke-width:1.1247" />
  <path
     d="m 6.7030166,6.4885154 -2.463e-4,0.076849 0.367327,0.099686 -0.00103,-0.065232 z"
     fill="#dddfe3"
     id="path34"
     style="stroke-width:1.1247" />
  <path
     d="m 7.0696688,6.5998607 0.00103,0.06523 0.4226735,-0.1118065 0.00146,-0.065788 z"
     fill="#505356"
     id="path36"
     style="stroke-width:1.1247" />
  <path
     d="M 7.2192539,6.6595823 7.6218065,6.5530979 8.0102667,6.6585194 7.5854787,6.7708849 Z"
     fill="#c7d0d4"
     id="path38"
     style="stroke-width:1.1247" />
  <path
     d="m 7.2192539,6.6595823 -2.463e-4,0.076848 0.367327,0.099685 -0.00103,-0.065231 z"
     fill="#dddfe3"
     id="path40"
     style="stroke-width:1.1247" />
  <path
     d="m 7.5859061,6.7709276 0.00103,0.06523 0.4226735,-0.1118064 0.00146,-0.065788 z"
     fill="#505356"
     id="path42"
     style="stroke-width:1.1247" />
  <path
     d="M 7.7219948,6.8280624 8.1245474,6.721578 8.5130076,6.8269995 8.0882196,6.9393649 Z"
     fill="#c7d0d4"
     id="path44"
     style="stroke-width:1.1247" />
  <path
     d="m 7.7219948,6.8280624 -2.463e-4,0.076848 0.367327,0.099685 -0.00103,-0.065231 z"
     fill="#dddfe3"
     id="path46"
     style="stroke-width:1.1247" />
  <path
     d="m 8.088647,6.9392952 0.00103,0.06523 0.4226735,-0.1118064 0.00146,-0.065788 z"
     fill="#505356"
     id="path48"
     style="stroke-width:1.1247" />
  <path
     d="M 8.2382321,6.9990168 8.6407847,6.8925324 9.0292449,6.9979539 8.6044569,7.1103193 Z"
     fill="#c7d0d4"
     id="path50"
     style="stroke-width:1.1247" />
  <path
     d="m 8.2382321,6.9990168 -2.452e-4,0.076849 0.367327,0.099685 -0.00103,-0.065232 z"
     fill="#dddfe3"
     id="path52"
     style="stroke-width:1.1247" />
  <path
     d="m 8.6048843,7.1103621 0.00103,0.06523 0.4226735,-0.1118064 0.00146,-0.065788 z"
     fill="#505356"
     id="path54"
     style="stroke-width:1.1247" />
  <path
     d="M 8.7792128,7.1690714 9.1817654,7.062587 9.5702256,7.1680085 9.1454376,7.280374 Z"
     fill="#c7d0d4"
     id="path56"
     style="stroke-width:1.1247" />
  <path
     d="m 8.7792128,7.1690714 -2.463e-4,0.076848 0.367327,0.099684 -0.00103,-0.065231 z"
     fill="#dddfe3"
     id="path58"
     style="stroke-width:1.1247" />
  <path
     d="m 9.145865,7.2804167 0.00103,0.06523 0.4226735,-0.1118064 0.00146,-0.065788 z"
     fill="#505356"
     id="path60"
     style="stroke-width:1.1247" />
  <path
     d="M 9.2954501,7.3401383 9.6980027,7.2336539 10.086463,7.3390754 9.6616749,7.4514408 Z"
     fill="#c7d0d4"
     id="path62"
     style="stroke-width:1.1247" />
  <path
     d="m 9.2954501,7.3401383 -2.463e-4,0.076849 0.367327,0.099685 -0.00103,-0.065231 z"
     fill="#dddfe3"
     id="path64"
     style="stroke-width:1.1247" />
  <path
     d="m 9.6621023,7.4514836 0.00103,0.06523 0.4226737,-0.1118064 0.0015,-0.065788 z"
     fill="#505356"
     id="path66"
     style="stroke-width:1.1247" />
  <path
     d="m 9.798191,7.5172785 0.402553,-0.1064843 0.38846,0.1054215 -0.424788,0.1123654 z"
     fill="#c7d0d4"
     id="path68"
     style="stroke-width:1.1247" />
  <path
     d="m 9.798191,7.5172785 -2.452e-4,0.076849 0.3673272,0.099685 -10e-4,-0.065231 z"
     fill="#dddfe3"
     id="path70"
     style="stroke-width:1.1247" />
  <path
     d="m 10.164843,7.6285113 0.001,0.06523 0.422674,-0.1118064 0.0015,-0.065788 z"
     fill="#505356"
     id="path72"
     style="stroke-width:1.1247" />
  <path
     d="m 10.339172,7.6873332 0.402552,-0.1064844 0.38846,0.1054215 -0.424787,0.1123654 z"
     fill="#c7d0d4"
     id="path74"
     style="stroke-width:1.1247" />
  <path
     d="m 10.339172,7.6873332 -2.47e-4,0.076848 0.367327,0.099685 -10e-4,-0.065231 z"
     fill="#dddfe3"
     id="path76"
     style="stroke-width:1.1247" />
  <path
     d="m 10.705824,7.798566 10e-4,0.06523 0.422673,-0.1118064 0.0015,-0.065788 z"
     fill="#505356"
     id="path78"
     style="stroke-width:1.1247" />
  <path
     d="m 10.855409,7.8582875 0.402553,-0.1064843 0.38846,0.1054215 -0.424788,0.1123654 z"
     fill="#c7d0d4"
     id="path80"
     style="stroke-width:1.1247" />
  <path
     d="m 10.855409,7.8582875 -2.46e-4,0.076849 0.367327,0.099686 -0.001,-0.065232 z"
     fill="#dddfe3"
     id="path82"
     style="stroke-width:1.1247" />
  <path
     d="m 11.222061,7.9696329 10e-4,0.06523 0.422674,-0.1118064 0.0015,-0.065788 z"
     fill="#505356"
     id="path84"
     style="stroke-width:1.1247" />
  <path
     d="m 11.35815,8.0267676 0.402553,-0.1064843 0.38846,0.1054215 -0.424788,0.1123654 z"
     fill="#c7d0d4"
     id="path86"
     style="stroke-width:1.1247" />
  <path
     d="m 11.35815,8.0267676 -2.46e-4,0.076849 0.367327,0.099685 -0.001,-0.065231 z"
     fill="#dddfe3"
     id="path88"
     style="stroke-width:1.1247" />
  <path
     d="m 11.724802,8.1381129 10e-4,0.06523 0.422674,-0.1118065 0.0015,-0.065788 z"
     fill="#505356"
     id="path90"
     style="stroke-width:1.1247" />
  <path
     d="M 11.874387,8.1978345 12.27694,8.0913501 12.6654,8.1967716 12.240612,8.309137 Z"
     fill="#c7d0d4"
     id="path92"
     style="stroke-width:1.1247" />
  <path
     d="m 11.874387,8.1978345 -2.45e-4,0.076848 0.367327,0.099684 -0.001,-0.065232 z"
     fill="#dddfe3"
     id="path94"
     style="stroke-width:1.1247" />
  <path
     d="m 12.241039,8.3090673 10e-4,0.06523 0.422673,-0.1118065 0.0015,-0.065788 z"
     fill="#505356"
     id="path96"
     style="stroke-width:1.1247" />
  <path
     d="m 12.415368,8.3678891 0.402553,-0.1064843 0.38846,0.1054215 -0.424788,0.1123654 z"
     fill="#c7d0d4"
     id="path98"
     style="stroke-width:1.1247" />
  <path
     d="m 12.415368,8.3678891 -2.46e-4,0.076849 0.367327,0.099684 -10e-4,-0.065231 z"
     fill="#dddfe3"
     id="path100"
     style="stroke-width:1.1247" />
  <path
     d="m 12.78202,8.4791219 0.001,0.06523 0.422674,-0.1118064 0.0015,-0.065788 z"
     fill="#505356"
     id="path102"
     style="stroke-width:1.1247" />
  <path
     d="m 12.931605,8.5388435 0.402553,-0.1064843 0.38846,0.1054215 -0.424788,0.1123654 z"
     fill="#c7d0d4"
     id="path104"
     style="stroke-width:1.1247" />
  <path
     d="m 12.931605,8.5388435 -2.46e-4,0.076848 0.367327,0.099684 -10e-4,-0.065231 z"
     fill="#dddfe3"
     id="path106"
     style="stroke-width:1.1247" />
  <path
     d="m 13.298257,8.6501888 0.001,0.06523 0.422674,-0.1118065 0.0015,-0.065788 z"
     fill="#505356"
     id="path108"
     style="stroke-width:1.1247" />
  <path
     d="m 13.425349,8.7184581 0.402552,-0.1064843 0.38846,0.1054215 -0.424788,0.1123654 z"
     fill="#c7d0d4"
     id="path110"
     style="stroke-width:1.1247" />
  <path
     d="m 13.425349,8.7184581 -2.47e-4,0.076849 0.367327,0.099684 -10e-4,-0.065231 z"
     fill="#dddfe3"
     id="path112"
     style="stroke-width:1.1247" />
  <path
     d="m 13.790876,8.8298034 10e-4,0.06523 0.422674,-0.1118065 0.0015,-0.065788 z"
     fill="#505356"
     id="path114"
     style="stroke-width:1.1247" />
  <path
     d="m 13.966329,8.8885128 0.402553,-0.1064844 0.38846,0.1054215 -0.424788,0.1123654 z"
     fill="#c7d0d4"
     id="path116"
     style="stroke-width:1.1247" />
  <path
     d="m 13.966329,8.8885128 -2.46e-4,0.076848 0.367327,0.099685 -0.001,-0.065231 z"
     fill="#dddfe3"
     id="path118"
     style="stroke-width:1.1247" />
  <path
     d="m 14.331857,8.9998581 0.001,0.06523 0.422673,-0.1118064 0.0015,-0.065788 z"
     fill="#505356"
     id="path120"
     style="stroke-width:1.1247" />
  <path
     d="m 14.482567,9.0595796 0.402552,-0.1064843 0.38846,0.1054215 -0.424788,0.1123654 z"
     fill="#c7d0d4"
     id="path122"
     style="stroke-width:1.1247" />
  <path
     d="m 14.482567,9.0595796 -2.47e-4,0.076849 0.367327,0.099684 -10e-4,-0.065231 z"
     fill="#dddfe3"
     id="path124"
     style="stroke-width:1.1247" />
  <path
     d="m 14.848094,9.1709249 10e-4,0.06523 0.422673,-0.1118065 0.0015,-0.065788 z"
     fill="#505356"
     id="path126"
     style="stroke-width:1.1247" />
  <g
     transform="matrix(1.1247,0,0,1.1247,-35.095447,-2.5372021)"
     id="g134">
    <path
       d="m 34.248,8.4388 0.35135,-0.099723 0.75373,0.22833 -0.37737,0.10112 z"
       fill="#c7d0d4"
       id="path128" />
    <path
       d="m 34.248,8.4388 -3.41e-4,0.06497 0.72899,0.22275 -0.0011,-0.057996 z"
       fill="#dddfe3"
       id="path130" />
    <path
       d="m 34.976,8.6685 0.0011,0.057995 0.37549,-0.10061 0.0011,-0.058498 z"
       fill="#505356"
       id="path132" />
  </g>
  <g
     transform="matrix(1.1247,0,0,1.1247,-39.066287,-0.92363087)"
     id="g208">
    <path
       d="M 37.15,7.2033 37.50866,7.11144 37.8533,7.207886 37.47484,7.30482 Z"
       fill="#c7d0d4"
       id="path136" />
    <path
       d="m 37.15,7.2033 -7.56e-4,0.068324 0.32589,0.091199 -4.58e-4,-0.058005 z"
       fill="#dddfe3"
       id="path138" />
    <path
       d="m 37.475,7.3048 4.58e-4,0.058004 0.37658,-0.096451 0.0017,-0.058482 z"
       fill="#505356"
       id="path140" />
    <path
       d="M 37.608,7.3589 37.96666,7.26704 38.3113,7.363486 37.93284,7.46042 Z"
       fill="#c7d0d4"
       id="path142" />
    <path
       d="m 37.608,7.3589 -7.56e-4,0.068324 0.32589,0.091198 -4.58e-4,-0.058005 z"
       fill="#dddfe3"
       id="path144" />
    <path
       d="m 37.933,7.4604 4.58e-4,0.058004 0.37658,-0.096452 0.0017,-0.058482 z"
       fill="#505356"
       id="path146" />
    <path
       d="M 38.088,7.5139 38.44666,7.42204 38.7913,7.518486 38.41284,7.61542 Z"
       fill="#c7d0d4"
       id="path148" />
    <path
       d="m 38.088,7.5139 -7.56e-4,0.068324 0.32589,0.091199 -4.58e-4,-0.058005 z"
       fill="#dddfe3"
       id="path150" />
    <path
       d="m 38.413,7.6154 4.58e-4,0.058004 0.37658,-0.096451 0.0017,-0.058482 z"
       fill="#505356"
       id="path152" />
    <path
       d="m 38.546,7.6696 0.35866,-0.09186 3.124,1.0287 -0.37878,0.09693 z"
       fill="#c7d0d4"
       id="path154" />
    <path
       d="m 38.546,7.6696 -7.56e-4,0.068324 3.1051,1.0235 -4.58e-4,-0.058004 z"
       fill="#dddfe3"
       id="path156" />
    <path
       d="m 41.65,8.7034 4.58e-4,0.058004 0.37658,-0.096452 0.0017,-0.058482 z"
       fill="#505356"
       id="path158" />
    <path
       d="M 41.77,8.7608 42.12866,8.66894 42.4733,8.765386 42.09484,8.86232 Z"
       fill="#c7d0d4"
       id="path160" />
    <path
       d="m 41.77,8.7608 -7.56e-4,0.068324 0.32589,0.091198 -4.58e-4,-0.058005 z"
       fill="#dddfe3"
       id="path162" />
    <path
       d="m 42.095,8.8623 4.58e-4,0.058004 0.37658,-0.096452 0.0017,-0.058482 z"
       fill="#505356"
       id="path164" />
    <path
       d="M 42.216,8.9141 42.57466,8.82224 42.9193,8.918686 42.54084,9.01562 Z"
       fill="#c7d0d4"
       id="path166" />
    <path
       d="m 42.216,8.9141 -7.56e-4,0.068324 0.32589,0.091199 -4.58e-4,-0.058005 z"
       fill="#dddfe3"
       id="path168" />
    <path
       d="m 42.541,9.0156 4.58e-4,0.058004 0.37658,-0.096451 0.0017,-0.058482 z"
       fill="#505356"
       id="path170" />
    <path
       d="M 42.674,9.0697 43.03266,8.97784 43.3773,9.074286 42.99884,9.17122 Z"
       fill="#c7d0d4"
       id="path172" />
    <path
       d="m 42.674,9.0697 -7.56e-4,0.068324 0.32589,0.091198 -4.58e-4,-0.058005 z"
       fill="#dddfe3"
       id="path174" />
    <path
       d="m 42.999,9.1713 4.59e-4,0.058004 0.37658,-0.096451 0.0017,-0.058482 z"
       fill="#505356"
       id="path176" />
    <path
       d="M 43.153,9.2247 43.51166,9.13284 43.8563,9.229286 43.47784,9.32622 Z"
       fill="#c7d0d4"
       id="path178" />
    <path
       d="m 43.153,9.2247 -7.56e-4,0.068324 0.32589,0.091199 -4.58e-4,-0.058005 z"
       fill="#dddfe3"
       id="path180" />
    <path
       d="m 43.478,9.3262 4.58e-4,0.058004 0.37658,-0.096452 0.0017,-0.058482 z"
       fill="#505356"
       id="path182" />
    <path
       d="M 43.611,9.3804 43.96966,9.28854 44.3143,9.384986 43.93584,9.48192 Z"
       fill="#c7d0d4"
       id="path184" />
    <path
       d="m 43.611,9.3804 -7.56e-4,0.068324 0.32589,0.091199 -4.58e-4,-0.058005 z"
       fill="#dddfe3"
       id="path186" />
    <path
       d="m 43.936,9.4819 4.58e-4,0.058004 0.37658,-0.096451 0.0017,-0.058482 z"
       fill="#505356"
       id="path188" />
    <path
       d="M 44.048,9.5435 44.40666,9.45164 44.7513,9.548086 44.37284,9.64502 Z"
       fill="#c7d0d4"
       id="path190" />
    <path
       d="m 44.048,9.5435 -7.57e-4,0.068324 0.32589,0.091199 -4.58e-4,-0.058005 z"
       fill="#dddfe3"
       id="path192" />
    <path
       d="m 44.373,9.6451 4.58e-4,0.058004 0.37658,-0.096452 0.0017,-0.058482 z"
       fill="#505356"
       id="path194" />
    <path
       d="M 44.528,9.6985 44.88666,9.60664 45.2313,9.703086 44.85284,9.80002 Z"
       fill="#c7d0d4"
       id="path196" />
    <path
       d="m 44.528,9.6985 -7.56e-4,0.068324 0.32589,0.091199 -4.58e-4,-0.058005 z"
       fill="#dddfe3"
       id="path198" />
    <path
       d="m 44.853,9.8 4.58e-4,0.058004 0.37658,-0.096452 0.0017,-0.058482 z"
       fill="#505356"
       id="path200" />
    <path
       d="M 44.986,9.8542 45.34466,9.76234 45.6893,9.858786 45.31084,9.95572 Z"
       fill="#c7d0d4"
       id="path202" />
    <path
       d="m 44.986,9.8542 -7.56e-4,0.068324 0.32589,0.091198 -4.58e-4,-0.058005 z"
       fill="#dddfe3"
       id="path204" />
    <path
       d="m 45.311,9.9557 4.58e-4,0.058003 0.37658,-0.096451 0.0017,-0.058482 z"
       fill="#505356"
       id="path206" />
  </g>
  <g
     transform="matrix(1.1247,0,0,1.1247,-39.852129,-0.64717747)"
     id="g318">
    <path
       d="m 39.838,6.2954 0.35792,-0.094678 0.34539,0.093733 -0.37769,0.099907 z"
       fill="#c7d0d4"
       id="path210" />
    <path
       d="m 39.838,6.2954 -2.18e-4,0.068328 0.3266,0.088633 -9.15e-4,-0.057999 z"
       fill="#dddfe3"
       id="path212" />
    <path
       d="m 40.164,6.3943 9.15e-4,0.057998 0.37581,-0.09941 0.0013,-0.058494 z"
       fill="#505356"
       id="path214" />
    <path
       d="m 40.297,6.4474 0.35792,-0.094678 0.34539,0.093733 -0.37769,0.099907 z"
       fill="#c7d0d4"
       id="path216" />
    <path
       d="m 40.297,6.4474 -2.19e-4,0.068328 0.3266,0.088633 -9.15e-4,-0.057999 z"
       fill="#dddfe3"
       id="path218" />
    <path
       d="m 40.623,6.5464 9.15e-4,0.057998 0.37581,-0.09941 0.0013,-0.058494 z"
       fill="#505356"
       id="path220" />
    <path
       d="m 40.778,6.5986 0.35792,-0.094678 0.34539,0.093733 -0.37769,0.099907 z"
       fill="#c7d0d4"
       id="path222" />
    <path
       d="m 40.778,6.5986 -2.19e-4,0.068328 0.3266,0.088633 -9.14e-4,-0.057999 z"
       fill="#dddfe3"
       id="path224" />
    <path
       d="m 41.104,6.6976 9.14e-4,0.057998 0.37581,-0.09941 0.0013,-0.058494 z"
       fill="#505356"
       id="path226" />
    <path
       d="m 41.237,6.7507 0.35792,-0.094678 0.34539,0.093733 -0.37769,0.099907 z"
       fill="#c7d0d4"
       id="path228" />
    <path
       d="m 41.237,6.7507 -2.19e-4,0.068328 0.3266,0.088633 -9.14e-4,-0.057999 z"
       fill="#dddfe3"
       id="path230" />
    <path
       d="m 41.563,6.8497 9.14e-4,0.057998 0.37581,-0.09941 0.0013,-0.058494 z"
       fill="#505356"
       id="path232" />
    <path
       d="m 41.684,6.9005 0.35792,-0.094678 0.34539,0.093733 -0.37769,0.099907 z"
       fill="#c7d0d4"
       id="path234" />
    <path
       d="m 41.684,6.9005 -2.19e-4,0.068328 0.3266,0.088633 -9.14e-4,-0.057999 z"
       fill="#dddfe3"
       id="path236" />
    <path
       d="m 42.01,6.9994 9.14e-4,0.057998 0.37581,-0.09941 0.0013,-0.058494 z"
       fill="#505356"
       id="path238" />
    <path
       d="m 42.143,7.0525 0.35792,-0.094678 0.34539,0.093733 -0.37769,0.099907 z"
       fill="#c7d0d4"
       id="path240" />
    <path
       d="m 42.143,7.0525 -2.18e-4,0.068328 0.3266,0.088633 -9.15e-4,-0.057999 z"
       fill="#dddfe3"
       id="path242" />
    <path
       d="m 42.469,7.1515 9.15e-4,0.057998 0.37581,-0.09941 0.0013,-0.058494 z"
       fill="#505356"
       id="path244" />
    <path
       d="m 42.624,7.2037 0.35792,-0.094678 0.34539,0.093733 -0.37769,0.099907 z"
       fill="#c7d0d4"
       id="path246" />
    <path
       d="m 42.624,7.2037 -2.19e-4,0.068328 0.3266,0.088632 -9.14e-4,-0.057999 z"
       fill="#dddfe3"
       id="path248" />
    <path
       d="m 42.95,7.3027 9.14e-4,0.057998 0.37581,-0.09941 0.0013,-0.058494 z"
       fill="#505356"
       id="path250" />
    <path
       d="m 43.083,7.3558 0.35792,-0.094678 0.34539,0.093733 -0.37769,0.099907 z"
       fill="#c7d0d4"
       id="path252" />
    <path
       d="m 43.083,7.3558 -2.19e-4,0.068328 0.3266,0.088633 -9.14e-4,-0.057999 z"
       fill="#dddfe3"
       id="path254" />
    <path
       d="m 43.409,7.4548 9.14e-4,0.057998 0.37581,-0.09941 0.0013,-0.058494 z"
       fill="#505356"
       id="path256" />
    <path
       d="m 43.53,7.5133 0.35792,-0.094678 0.34539,0.093733 -0.37769,0.099907 z"
       fill="#c7d0d4"
       id="path258" />
    <path
       d="m 43.53,7.5133 -2.18e-4,0.068328 0.3266,0.088633 -9.15e-4,-0.057999 z"
       fill="#dddfe3"
       id="path260" />
    <path
       d="m 43.856,7.6122 9.15e-4,0.057998 0.37581,-0.09941 0.0013,-0.058494 z"
       fill="#505356"
       id="path262" />
    <path
       d="m 44.011,7.6645 0.35792,-0.094678 0.34539,0.093733 -0.37769,0.099907 z"
       fill="#c7d0d4"
       id="path264" />
    <path
       d="m 44.011,7.6645 -2.19e-4,0.068328 0.3266,0.088633 -9.14e-4,-0.057999 z"
       fill="#dddfe3"
       id="path266" />
    <path
       d="m 44.337,7.7634 9.14e-4,0.057998 0.37581,-0.09941 0.0013,-0.058494 z"
       fill="#505356"
       id="path268" />
    <path
       d="m 44.47,7.8165 0.35792,-0.094678 0.34539,0.093733 -0.37769,0.099907 z"
       fill="#c7d0d4"
       id="path270" />
    <path
       d="m 44.47,7.8165 -2.19e-4,0.068328 0.3266,0.088633 -9.14e-4,-0.057999 z"
       fill="#dddfe3"
       id="path272" />
    <path
       d="m 44.796,7.9155 9.14e-4,0.057998 0.37581,-0.09941 0.0013,-0.058494 z"
       fill="#505356"
       id="path274" />
    <path
       d="m 44.917,7.9663 0.35792,-0.094678 0.34539,0.093733 -0.37769,0.099907 z"
       fill="#c7d0d4"
       id="path276" />
    <path
       d="m 44.917,7.9663 -2.19e-4,0.068328 0.3266,0.088633 -9.14e-4,-0.057999 z"
       fill="#dddfe3"
       id="path278" />
    <path
       d="m 45.243,8.0653 9.14e-4,0.057998 0.37581,-0.09941 0.0013,-0.058494 z"
       fill="#505356"
       id="path280" />
    <path
       d="m 45.376,8.1184 0.35792,-0.094678 0.34539,0.093733 -0.37769,0.099907 z"
       fill="#c7d0d4"
       id="path282" />
    <path
       d="m 45.376,8.1184 -2.18e-4,0.068328 0.3266,0.088632 -9.15e-4,-0.057999 z"
       fill="#dddfe3"
       id="path284" />
    <path
       d="m 45.702,8.2173 9.15e-4,0.057998 0.37581,-0.09941 0.0013,-0.058494 z"
       fill="#505356"
       id="path286" />
    <path
       d="m 45.857,8.2696 0.35792,-0.094678 0.34539,0.093733 -0.37769,0.099907 z"
       fill="#c7d0d4"
       id="path288" />
    <path
       d="m 45.857,8.2696 -2.19e-4,0.068328 0.3266,0.088632 -9.15e-4,-0.057999 z"
       fill="#dddfe3"
       id="path290" />
    <path
       d="m 46.183,8.3685 9.15e-4,0.057998 0.37581,-0.09941 0.0013,-0.058494 z"
       fill="#505356"
       id="path292" />
    <path
       d="m 46.316,8.4216 0.35792,-0.094678 0.34539,0.093733 -0.37769,0.099907 z"
       fill="#c7d0d4"
       id="path294" />
    <path
       d="m 46.316,8.4216 -2.19e-4,0.068328 0.3266,0.088632 -9.14e-4,-0.057999 z"
       fill="#dddfe3"
       id="path296" />
    <path
       d="m 46.642,8.5206 9.14e-4,0.057998 0.37581,-0.09941 0.0013,-0.058494 z"
       fill="#505356"
       id="path298" />
    <path
       d="m 46.755,8.5813 0.35792,-0.094678 0.34539,0.093733 -0.37769,0.099907 z"
       fill="#c7d0d4"
       id="path300" />
    <path
       d="m 46.755,8.5813 -2.19e-4,0.068328 0.3266,0.088632 -9.15e-4,-0.057999 z"
       fill="#dddfe3"
       id="path302" />
    <path
       d="m 47.08,8.6803 9.15e-4,0.057998 0.37581,-0.09941 0.0013,-0.058494 z"
       fill="#505356"
       id="path304" />
    <path
       d="m 47.236,8.7325 0.35792,-0.094678 0.34539,0.093733 -0.37769,0.099907 z"
       fill="#c7d0d4"
       id="path306" />
    <path
       d="m 47.236,8.7325 -2.19e-4,0.068328 0.3266,0.088633 -9.14e-4,-0.057999 z"
       fill="#dddfe3"
       id="path308" />
    <path
       d="m 47.561,8.8315 9.14e-4,0.057998 0.37581,-0.09941 0.0013,-0.058494 z"
       fill="#505356"
       id="path310" />
    <path
       d="m 47.695,8.8846 0.35792,-0.094678 0.34539,0.093733 -0.37769,0.099907 z"
       fill="#c7d0d4"
       id="path312" />
    <path
       d="m 47.695,8.8846 -2.19e-4,0.068328 0.3266,0.088632 -9.14e-4,-0.057999 z"
       fill="#dddfe3"
       id="path314" />
    <path
       d="m 48.02,8.9836 9.14e-4,0.057998 0.37581,-0.09941 0.0013,-0.058494 z"
       fill="#505356"
       id="path316" />
  </g>
  <g
     transform="matrix(1.1247,0,0,1.1247,-40.60209,-0.38918254)"
     id="g428">
    <path
       d="m 39.838,6.2954 0.35792,-0.094678 0.34539,0.093733 -0.37769,0.099907 z"
       fill="#c7d0d4"
       id="path320" />
    <path
       d="m 39.838,6.2954 -2.18e-4,0.068328 0.3266,0.088633 -9.15e-4,-0.057999 z"
       fill="#dddfe3"
       id="path322" />
    <path
       d="m 40.164,6.3943 9.15e-4,0.057998 0.37581,-0.09941 0.0013,-0.058494 z"
       fill="#505356"
       id="path324" />
    <path
       d="m 40.297,6.4474 0.35792,-0.094678 0.34539,0.093733 -0.37769,0.099907 z"
       fill="#c7d0d4"
       id="path326" />
    <path
       d="m 40.297,6.4474 -2.19e-4,0.068328 0.3266,0.088633 -9.15e-4,-0.057999 z"
       fill="#dddfe3"
       id="path328" />
    <path
       d="m 40.623,6.5464 9.15e-4,0.057998 0.37581,-0.09941 0.0013,-0.058494 z"
       fill="#505356"
       id="path330" />
    <path
       d="m 40.778,6.5986 0.35792,-0.094678 0.34539,0.093733 -0.37769,0.099907 z"
       fill="#c7d0d4"
       id="path332" />
    <path
       d="m 40.778,6.5986 -2.19e-4,0.068328 0.3266,0.088633 -9.14e-4,-0.057999 z"
       fill="#dddfe3"
       id="path334" />
    <path
       d="m 41.104,6.6976 9.14e-4,0.057998 0.37581,-0.09941 0.0013,-0.058494 z"
       fill="#505356"
       id="path336" />
    <path
       d="m 41.237,6.7507 0.35792,-0.094678 0.34539,0.093733 -0.37769,0.099907 z"
       fill="#c7d0d4"
       id="path338" />
    <path
       d="m 41.237,6.7507 -2.19e-4,0.068328 0.3266,0.088633 -9.14e-4,-0.057999 z"
       fill="#dddfe3"
       id="path340" />
    <path
       d="m 41.563,6.8497 9.14e-4,0.057998 0.37581,-0.09941 0.0013,-0.058494 z"
       fill="#505356"
       id="path342" />
    <path
       d="m 41.684,6.9005 0.35792,-0.094678 0.34539,0.093733 -0.37769,0.099907 z"
       fill="#c7d0d4"
       id="path344" />
    <path
       d="m 41.684,6.9005 -2.19e-4,0.068328 0.3266,0.088633 -9.14e-4,-0.057999 z"
       fill="#dddfe3"
       id="path346" />
    <path
       d="m 42.01,6.9994 9.14e-4,0.057998 0.37581,-0.09941 0.0013,-0.058494 z"
       fill="#505356"
       id="path348" />
    <path
       d="m 42.143,7.0525 0.35792,-0.094678 0.34539,0.093733 -0.37769,0.099907 z"
       fill="#c7d0d4"
       id="path350" />
    <path
       d="m 42.143,7.0525 -2.18e-4,0.068328 0.3266,0.088633 -9.15e-4,-0.057999 z"
       fill="#dddfe3"
       id="path352" />
    <path
       d="m 42.469,7.1515 9.15e-4,0.057998 0.37581,-0.09941 0.0013,-0.058494 z"
       fill="#505356"
       id="path354" />
    <path
       d="m 42.624,7.2037 0.35792,-0.094678 0.34539,0.093733 -0.37769,0.099907 z"
       fill="#c7d0d4"
       id="path356" />
    <path
       d="m 42.624,7.2037 -2.19e-4,0.068328 0.3266,0.088632 -9.14e-4,-0.057999 z"
       fill="#dddfe3"
       id="path358" />
    <path
       d="m 42.95,7.3027 9.14e-4,0.057998 0.37581,-0.09941 0.0013,-0.058494 z"
       fill="#505356"
       id="path360" />
    <path
       d="m 43.083,7.3558 0.35792,-0.094678 0.34539,0.093733 -0.37769,0.099907 z"
       fill="#c7d0d4"
       id="path362" />
    <path
       d="m 43.083,7.3558 -2.19e-4,0.068328 0.3266,0.088633 -9.14e-4,-0.057999 z"
       fill="#dddfe3"
       id="path364" />
    <path
       d="m 43.409,7.4548 9.14e-4,0.057998 0.37581,-0.09941 0.0013,-0.058494 z"
       fill="#505356"
       id="path366" />
    <path
       d="m 43.53,7.5133 0.35792,-0.094678 0.34539,0.093733 -0.37769,0.099907 z"
       fill="#c7d0d4"
       id="path368" />
    <path
       d="m 43.53,7.5133 -2.18e-4,0.068328 0.3266,0.088633 -9.15e-4,-0.057999 z"
       fill="#dddfe3"
       id="path370" />
    <path
       d="m 43.856,7.6122 9.15e-4,0.057998 0.37581,-0.09941 0.0013,-0.058494 z"
       fill="#505356"
       id="path372" />
    <path
       d="m 44.011,7.6645 0.35792,-0.094678 0.34539,0.093733 -0.37769,0.099907 z"
       fill="#c7d0d4"
       id="path374" />
    <path
       d="m 44.011,7.6645 -2.19e-4,0.068328 0.3266,0.088633 -9.14e-4,-0.057999 z"
       fill="#dddfe3"
       id="path376" />
    <path
       d="m 44.337,7.7634 9.14e-4,0.057998 0.37581,-0.09941 0.0013,-0.058494 z"
       fill="#505356"
       id="path378" />
    <path
       d="m 44.47,7.8165 0.35792,-0.094678 0.34539,0.093733 -0.37769,0.099907 z"
       fill="#c7d0d4"
       id="path380" />
    <path
       d="m 44.47,7.8165 -2.19e-4,0.068328 0.3266,0.088633 -9.14e-4,-0.057999 z"
       fill="#dddfe3"
       id="path382" />
    <path
       d="m 44.796,7.9155 9.14e-4,0.057998 0.37581,-0.09941 0.0013,-0.058494 z"
       fill="#505356"
       id="path384" />
    <path
       d="m 44.917,7.9663 0.35792,-0.094678 0.34539,0.093733 -0.37769,0.099907 z"
       fill="#c7d0d4"
       id="path386" />
    <path
       d="m 44.917,7.9663 -2.19e-4,0.068328 0.3266,0.088633 -9.14e-4,-0.057999 z"
       fill="#dddfe3"
       id="path388" />
    <path
       d="m 45.243,8.0653 9.14e-4,0.057998 0.37581,-0.09941 0.0013,-0.058494 z"
       fill="#505356"
       id="path390" />
    <path
       d="m 45.376,8.1184 0.35792,-0.094678 0.34539,0.093733 -0.37769,0.099907 z"
       fill="#c7d0d4"
       id="path392" />
    <path
       d="m 45.376,8.1184 -2.18e-4,0.068328 0.3266,0.088632 -9.15e-4,-0.057999 z"
       fill="#dddfe3"
       id="path394" />
    <path
       d="m 45.702,8.2173 9.15e-4,0.057998 0.37581,-0.09941 0.0013,-0.058494 z"
       fill="#505356"
       id="path396" />
    <path
       d="m 45.857,8.2696 0.35792,-0.094678 0.34539,0.093733 -0.37769,0.099907 z"
       fill="#c7d0d4"
       id="path398" />
    <path
       d="m 45.857,8.2696 -2.19e-4,0.068328 0.3266,0.088632 -9.15e-4,-0.057999 z"
       fill="#dddfe3"
       id="path400" />
    <path
       d="m 46.183,8.3685 9.15e-4,0.057998 0.37581,-0.09941 0.0013,-0.058494 z"
       fill="#505356"
       id="path402" />
    <path
       d="m 46.316,8.4216 0.35792,-0.094678 0.34539,0.093733 -0.37769,0.099907 z"
       fill="#c7d0d4"
       id="path404" />
    <path
       d="m 46.316,8.4216 -2.19e-4,0.068328 0.3266,0.088632 -9.14e-4,-0.057999 z"
       fill="#dddfe3"
       id="path406" />
    <path
       d="m 46.642,8.5206 9.14e-4,0.057998 0.37581,-0.09941 0.0013,-0.058494 z"
       fill="#505356"
       id="path408" />
    <path
       d="m 46.755,8.5813 0.35792,-0.094678 0.34539,0.093733 -0.37769,0.099907 z"
       fill="#c7d0d4"
       id="path410" />
    <path
       d="m 46.755,8.5813 -2.19e-4,0.068328 0.3266,0.088632 -9.15e-4,-0.057999 z"
       fill="#dddfe3"
       id="path412" />
    <path
       d="m 47.08,8.6803 9.15e-4,0.057998 0.37581,-0.09941 0.0013,-0.058494 z"
       fill="#505356"
       id="path414" />
    <path
       d="m 47.236,8.7325 0.35792,-0.094678 0.34539,0.093733 -0.37769,0.099907 z"
       fill="#c7d0d4"
       id="path416" />
    <path
       d="m 47.236,8.7325 -2.19e-4,0.068328 0.3266,0.088633 -9.14e-4,-0.057999 z"
       fill="#dddfe3"
       id="path418" />
    <path
       d="m 47.561,8.8315 9.14e-4,0.057998 0.37581,-0.09941 0.0013,-0.058494 z"
       fill="#505356"
       id="path420" />
    <path
       d="m 47.695,8.8846 0.35792,-0.094678 0.34539,0.093733 -0.37769,0.099907 z"
       fill="#c7d0d4"
       id="path422" />
    <path
       d="m 47.695,8.8846 -2.19e-4,0.068328 0.3266,0.088632 -9.14e-4,-0.057999 z"
       fill="#dddfe3"
       id="path424" />
    <path
       d="m 48.02,8.9836 9.14e-4,0.057998 0.37581,-0.09941 0.0013,-0.058494 z"
       fill="#505356"
       id="path426" />
  </g>
  <path
     d="M 4.5447173,7.3133704 4.9472699,7.2068861 5.3357301,7.3123076 4.9109421,7.424673 Z"
     fill="#c7d0d4"
     id="path430"
     style="stroke-width:1.1247" />
  <path
     d="M 4.5447173,7.3133704 4.544471,7.3902189 4.911798,7.4899044 4.91077,7.424673 Z"
     fill="#dddfe3"
     id="path432"
     style="stroke-width:1.1247" />
  <path
     d="m 4.9113695,7.4247157 0.00103,0.06523 0.4226735,-0.1118065 0.00146,-0.065788 z"
     fill="#505356"
     id="path434"
     style="stroke-width:1.1247" />
  <path
     d="M 5.0620793,7.4844373 5.4646319,7.3779529 5.8530921,7.4833744 5.4283041,7.5957398 Z"
     fill="#c7d0d4"
     id="path436"
     style="stroke-width:1.1247" />
  <path
     d="M 5.0620793,7.4844373 5.061833,7.5612858 5.42916,7.6609713 5.428132,7.5957398 Z"
     fill="#dddfe3"
     id="path438"
     style="stroke-width:1.1247" />
  <path
     d="m 5.4276068,7.5956701 0.00103,0.06523 0.4226735,-0.1118065 0.00146,-0.065788 z"
     fill="#505356"
     id="path440"
     style="stroke-width:1.1247" />
  <path
     d="M 5.5648202,7.6529173 5.9673728,7.546433 6.355833,7.6518545 5.931045,7.7642199 Z"
     fill="#c7d0d4"
     id="path442"
     style="stroke-width:1.1247" />
  <path
     d="m 5.5648202,7.6529173 -2.463e-4,0.076848 0.367327,0.099686 -0.00103,-0.065232 z"
     fill="#dddfe3"
     id="path444"
     style="stroke-width:1.1247" />
  <path
     d="m 5.9303477,7.7641502 0.00103,0.06523 0.4226735,-0.1118064 0.00146,-0.065788 z"
     fill="#505356"
     id="path446"
     style="stroke-width:1.1247" />
  <path
     d="M 6.0810575,7.8238717 6.4836101,7.7173874 6.8720703,7.8228089 6.4472823,7.9351743 Z"
     fill="#c7d0d4"
     id="path448"
     style="stroke-width:1.1247" />
  <path
     d="m 6.0810575,7.8238717 -2.452e-4,0.076849 0.367327,0.099686 -0.00103,-0.065231 z"
     fill="#dddfe3"
     id="path450"
     style="stroke-width:1.1247" />
  <path
     d="m 6.446585,7.935217 0.00103,0.06523 0.4226735,-0.1118064 0.00146,-0.065788 z"
     fill="#505356"
     id="path452"
     style="stroke-width:1.1247" />
  <path
     d="M 6.6220382,7.9939264 7.0245908,7.887442 7.413051,7.9928635 6.988263,8.1052289 Z"
     fill="#c7d0d4"
     id="path454"
     style="stroke-width:1.1247" />
  <path
     d="m 6.6220382,7.9939264 -2.463e-4,0.076848 0.367327,0.099684 -0.00103,-0.065231 z"
     fill="#dddfe3"
     id="path456"
     style="stroke-width:1.1247" />
  <path
     d="m 6.9875657,8.1052717 0.00103,0.06523 0.4226735,-0.1118064 0.00146,-0.065788 z"
     fill="#505356"
     id="path458"
     style="stroke-width:1.1247" />
  <path
     d="M 7.1382755,8.1649932 7.5408281,8.0585089 7.9292883,8.1639304 7.5045003,8.2762958 Z"
     fill="#c7d0d4"
     id="path460"
     style="stroke-width:1.1247" />
  <path
     d="m 7.1382755,8.1649932 -2.463e-4,0.076849 0.367327,0.099686 -0.00103,-0.065231 z"
     fill="#dddfe3"
     id="path462"
     style="stroke-width:1.1247" />
  <path
     d="m 7.503803,8.2762261 0.00103,0.06523 0.4226735,-0.1118064 0.00146,-0.065788 z"
     fill="#505356"
     id="path464"
     style="stroke-width:1.1247" />
  <path
     d="M 7.6398917,8.342021 8.0424443,8.2355367 8.4309045,8.3409582 8.0061165,8.4533236 Z"
     fill="#c7d0d4"
     id="path466"
     style="stroke-width:1.1247" />
  <path
     d="m 7.6398917,8.342021 -2.452e-4,0.076848 0.367327,0.099686 -0.00103,-0.065232 z"
     fill="#dddfe3"
     id="path468"
     style="stroke-width:1.1247" />
  <path
     d="m 8.0065439,8.4533663 0.00103,0.06523 0.4226735,-0.1118065 0.00146,-0.065788 z"
     fill="#505356"
     id="path470"
     style="stroke-width:1.1247" />
  <path
     d="M 8.1808724,8.5120757 8.583425,8.4055913 8.9718852,8.5110128 8.5470972,8.6233782 Z"
     fill="#c7d0d4"
     id="path472"
     style="stroke-width:1.1247" />
  <path
     d="m 8.1808724,8.5120757 -2.463e-4,0.076848 0.367327,0.099686 -0.00103,-0.065232 z"
     fill="#dddfe3"
     id="path474"
     style="stroke-width:1.1247" />
  <path
     d="m 8.5475246,8.623421 0.00103,0.06523 0.4226735,-0.1118064 0.00146,-0.065788 z"
     fill="#505356"
     id="path476"
     style="stroke-width:1.1247" />
  <path
     d="M 8.6971097,8.6831425 9.0996623,8.5766582 9.4881225,8.6820797 9.0633345,8.7944451 Z"
     fill="#c7d0d4"
     id="path478"
     style="stroke-width:1.1247" />
  <path
     d="m 8.6971097,8.6831425 -2.463e-4,0.076848 0.367327,0.099686 -0.00103,-0.065231 z"
     fill="#dddfe3"
     id="path480"
     style="stroke-width:1.1247" />
  <path
     d="m 9.0637619,8.7944878 0.00103,0.06523 0.4226735,-0.1118064 0.00146,-0.065788 z"
     fill="#505356"
     id="path482"
     style="stroke-width:1.1247" />
  <path
     d="M 9.1998506,8.8516226 9.6024032,8.7451382 9.9908634,8.8505597 9.5660754,8.9629252 Z"
     fill="#c7d0d4"
     id="path484"
     style="stroke-width:1.1247" />
  <path
     d="m 9.1998506,8.8516226 -2.463e-4,0.076848 0.367327,0.099686 -0.00103,-0.065231 z"
     fill="#dddfe3"
     id="path486"
     style="stroke-width:1.1247" />
  <path
     d="m 9.5665028,8.9629679 0.00103,0.06523 0.4226735,-0.1118064 0.00146,-0.065788 z"
     fill="#505356"
     id="path488"
     style="stroke-width:1.1247" />
  <path
     d="m 9.7160879,9.022577 0.4025531,-0.1064844 0.38846,0.1054215 -0.424788,0.1123655 z"
     fill="#c7d0d4"
     id="path490"
     style="stroke-width:1.1247" />
  <path
     d="M 9.7160879,9.022577 9.7158427,9.099426 10.08317,9.19911 10.08217,9.133879 Z"
     fill="#dddfe3"
     id="path492"
     style="stroke-width:1.1247" />
  <path
     d="m 10.08274,9.1339223 0.001,0.06523 0.422674,-0.1118064 0.0015,-0.065788 z"
     fill="#505356"
     id="path494"
     style="stroke-width:1.1247" />
  <path
     d="m 10.257069,9.1926316 0.402552,-0.1064843 0.38846,0.1054215 -0.424788,0.1123654 z"
     fill="#c7d0d4"
     id="path496"
     style="stroke-width:1.1247" />
  <path
     d="m 10.257069,9.1926316 -2.47e-4,0.076848 0.367327,0.099684 -10e-4,-0.065231 z"
     fill="#dddfe3"
     id="path498"
     style="stroke-width:1.1247" />
  <path
     d="m 10.623721,9.3039769 10e-4,0.06523 0.422673,-0.1118064 0.0015,-0.065788 z"
     fill="#505356"
     id="path500"
     style="stroke-width:1.1247" />
  <path
     d="m 10.773306,9.3636985 0.402553,-0.1064843 0.38846,0.1054215 -0.424788,0.1123654 z"
     fill="#c7d0d4"
     id="path502"
     style="stroke-width:1.1247" />
  <path
     d="m 10.773306,9.3636985 -2.46e-4,0.076849 0.367327,0.099684 -0.001,-0.065231 z"
     fill="#dddfe3"
     id="path504"
     style="stroke-width:1.1247" />
  <path
     d="m 11.139958,9.4750438 10e-4,0.06523 0.422674,-0.1118065 0.0015,-0.065788 z"
     fill="#505356"
     id="path506"
     style="stroke-width:1.1247" />
  <path
     d="m 11.267049,9.5433131 0.402553,-0.1064844 0.38846,0.1054215 -0.424788,0.1123655 z"
     fill="#c7d0d4"
     id="path508"
     style="stroke-width:1.1247" />
  <path
     d="m 11.267049,9.5433131 -2.46e-4,0.076848 0.367327,0.099684 -0.001,-0.065232 z"
     fill="#dddfe3"
     id="path510"
     style="stroke-width:1.1247" />
  <path
     d="m 11.632577,9.6546584 0.001,0.06523 0.422673,-0.1118064 0.0015,-0.065788 z"
     fill="#505356"
     id="path512"
     style="stroke-width:1.1247" />
  <g
     transform="matrix(1.1247,0,0,1.1247,-26.624094,0.25981435)"
     id="g520">
    <path
       d="m 34.248,8.4388 0.35135,-0.099723 0.75373,0.22833 -0.37737,0.10112 z"
       fill="#c7d0d4"
       id="path514" />
    <path
       d="m 34.248,8.4388 -3.41e-4,0.06497 0.72899,0.22275 -0.0011,-0.057996 z"
       fill="#dddfe3"
       id="path516" />
    <path
       d="m 34.976,8.6685 0.0011,0.057995 0.37549,-0.10061 0.0011,-0.058498 z"
       fill="#505356"
       id="path518" />
  </g>
</svg>
