<?xml version="1.0" encoding="UTF-8" standalone="no"?>
<!-- Created with Inkscape (http://www.inkscape.org/) -->

<svg
   width="64"
   height="64"
   viewBox="0 0 16.933333 16.933334"
   version="1.1"
   id="svg5"
   inkscape:version="1.1.1 (3bf5ae0d25, 2021-09-20, custom)"
   sodipodi:docname="media-optical-video.svg"
   xmlns:inkscape="http://www.inkscape.org/namespaces/inkscape"
   xmlns:sodipodi="http://sodipodi.sourceforge.net/DTD/sodipodi-0.dtd"
   xmlns:xlink="http://www.w3.org/1999/xlink"
   xmlns="http://www.w3.org/2000/svg"
   xmlns:svg="http://www.w3.org/2000/svg">
  <sodipodi:namedview
     id="namedview7"
     pagecolor="#ffffff"
     bordercolor="#666666"
     borderopacity="1.0"
     inkscape:pageshadow="2"
     inkscape:pageopacity="0.0"
     inkscape:pagecheckerboard="0"
     inkscape:document-units="px"
     showgrid="false"
     units="px"
     inkscape:zoom="12.078125"
     inkscape:cx="41.728331"
     inkscape:cy="26.204398"
     inkscape:window-width="1920"
     inkscape:window-height="996"
     inkscape:window-x="0"
     inkscape:window-y="0"
     inkscape:window-maximized="1"
     inkscape:current-layer="svg5"
     showguides="false" />
  <defs
     id="defs2">
    <linearGradient
       inkscape:collect="always"
       xlink:href="#linearGradient6804"
       id="linearGradient6808"
       x1="2.3812499"
       y1="8.4666672"
       x2="6.6145835"
       y2="12.700001"
       gradientUnits="userSpaceOnUse"
       gradientTransform="matrix(1.8749999,0,0,1.8749999,0.03307277,-11.377083)" />
    <linearGradient
       inkscape:collect="always"
       id="linearGradient6804">
      <stop
         style="stop-color:#ffffff;stop-opacity:1;"
         offset="0"
         id="stop6800" />
      <stop
         style="stop-color:#ffffff;stop-opacity:0;"
         offset="1"
         id="stop6802" />
    </linearGradient>
    <linearGradient
       inkscape:collect="always"
       xlink:href="#linearGradient162116"
       id="linearGradient162118"
       x1="96.408417"
       y1="238.0069"
       x2="127.77626"
       y2="238.0069"
       gradientUnits="userSpaceOnUse"
       gradientTransform="matrix(0.50609142,0,0,0.48831324,-48.2623,-107.75526)" />
    <linearGradient
       inkscape:collect="always"
       id="linearGradient162116">
      <stop
         style="stop-color:#e3edee;stop-opacity:1;"
         offset="0"
         id="stop162112" />
      <stop
         style="stop-color:#c9cdce;stop-opacity:1"
         offset="1"
         id="stop162114" />
    </linearGradient>
    <linearGradient
       inkscape:collect="always"
       xlink:href="#linearGradient219586"
       id="linearGradient219588"
       x1="112.09232"
       y1="238.0069"
       x2="112.17286"
       y2="254.33937"
       gradientUnits="userSpaceOnUse"
       gradientTransform="matrix(0.50609142,0,0,0.48831326,-48.262298,-107.75526)" />
    <linearGradient
       inkscape:collect="always"
       id="linearGradient219586">
      <stop
         style="stop-color:#b9bfbf;stop-opacity:1;"
         offset="0"
         id="stop219582" />
      <stop
         style="stop-color:#aaacab;stop-opacity:1"
         offset="1"
         id="stop219584" />
    </linearGradient>
    <linearGradient
       inkscape:collect="always"
       xlink:href="#linearGradient2496"
       id="linearGradient2498"
       x1="16.424316"
       y1="54.63533"
       x2="32.331596"
       y2="38.452602"
       gradientUnits="userSpaceOnUse"
       gradientTransform="matrix(0.49609374,0,0,0.49609374,0.03307277,-11.377083)" />
    <linearGradient
       inkscape:collect="always"
       id="linearGradient2496">
      <stop
         style="stop-color:#ffffff;stop-opacity:0.5"
         offset="0"
         id="stop2492" />
      <stop
         style="stop-color:#ffffff;stop-opacity:0"
         offset="0.44999999"
         id="stop3080" />
      <stop
         style="stop-color:#ffffff;stop-opacity:1"
         offset="0.5"
         id="stop2756" />
      <stop
         style="stop-color:#ffffff;stop-opacity:0"
         offset="0.55000001"
         id="stop3014" />
      <stop
         style="stop-color:#ffffff;stop-opacity:0.2"
         offset="1"
         id="stop2494" />
    </linearGradient>
    <linearGradient
       inkscape:collect="always"
       xlink:href="#linearGradient7820"
       id="linearGradient7822"
       x1="14.532227"
       y1="42.393677"
       x2="19.540161"
       y2="37.501221"
       gradientUnits="userSpaceOnUse"
       gradientTransform="matrix(1.9999998,0,0,1.9999998,-1.9999993,-47.999992)" />
    <linearGradient
       inkscape:collect="always"
       id="linearGradient7820">
      <stop
         style="stop-color:#858585;stop-opacity:1"
         offset="0"
         id="stop7816" />
      <stop
         style="stop-color:#ffffff;stop-opacity:1"
         offset="0.5"
         id="stop8592" />
      <stop
         style="stop-color:#868686;stop-opacity:1"
         offset="1"
         id="stop7818" />
    </linearGradient>
    <linearGradient
       inkscape:collect="always"
       xlink:href="#linearGradient7820"
       id="linearGradient10226"
       gradientUnits="userSpaceOnUse"
       x1="14.532227"
       y1="42.393677"
       x2="19.540161"
       y2="37.501221"
       gradientTransform="matrix(3.6000003,0,0,3.6000003,-29.200003,-112.00001)" />
    <linearGradient
       inkscape:collect="always"
       xlink:href="#linearGradient11941"
       id="linearGradient11943"
       x1="5.1081543"
       y1="42.191895"
       x2="7.4692383"
       y2="33.279785"
       gradientUnits="userSpaceOnUse"
       gradientTransform="matrix(0.49609374,0,0,0.49609374,0.03307277,-11.377083)" />
    <linearGradient
       inkscape:collect="always"
       id="linearGradient11941">
      <stop
         style="stop-color:#f89af4;stop-opacity:0"
         offset="0"
         id="stop11937" />
      <stop
         style="stop-color:#f89af4;stop-opacity:0"
         offset="0.40000001"
         id="stop12523" />
      <stop
         style="stop-color:#f89af4;stop-opacity:1"
         offset="0.5"
         id="stop12201" />
      <stop
         style="stop-color:#f89af4;stop-opacity:0"
         offset="0.60000002"
         id="stop12781" />
      <stop
         style="stop-color:#f89af4;stop-opacity:0;"
         offset="1"
         id="stop11939" />
    </linearGradient>
    <linearGradient
       inkscape:collect="always"
       xlink:href="#linearGradient16450"
       id="linearGradient16452"
       x1="17.605227"
       y1="29.40974"
       x2="27.150551"
       y2="39.243584"
       gradientUnits="userSpaceOnUse"
       gradientTransform="matrix(0.49609374,0,0,0.49609374,0.03307277,-11.377083)" />
    <linearGradient
       inkscape:collect="always"
       id="linearGradient16450">
      <stop
         style="stop-color:#6fef7e;stop-opacity:0"
         offset="0"
         id="stop16446" />
      <stop
         style="stop-color:#6fef7e;stop-opacity:0"
         offset="0.44792882"
         id="stop17132" />
      <stop
         style="stop-color:#6fef7e;stop-opacity:1"
         offset="0.5"
         id="stop16680" />
      <stop
         style="stop-color:#6fef7e;stop-opacity:0"
         offset="0.55000001"
         id="stop16938" />
      <stop
         style="stop-color:#6fef7e;stop-opacity:0;"
         offset="1"
         id="stop16448" />
    </linearGradient>
    <linearGradient
       inkscape:collect="always"
       xlink:href="#linearGradient219586"
       id="linearGradient1031"
       gradientUnits="userSpaceOnUse"
       gradientTransform="matrix(0.50609142,0,0,0.48831326,-48.262298,-107.75526)"
       x1="112.09232"
       y1="238.0069"
       x2="112.17286"
       y2="254.33937" />
    <linearGradient
       inkscape:collect="always"
       id="linearGradient12418">
      <stop
         style="stop-color:#52e4ff;stop-opacity:1;"
         offset="0"
         id="stop12414" />
      <stop
         style="stop-color:#d29eff;stop-opacity:1"
         offset="1"
         id="stop12416" />
    </linearGradient>
    <linearGradient
       inkscape:collect="always"
       xlink:href="#linearGradient27684"
       id="linearGradient27686"
       x1="86.812088"
       y1="124.12689"
       x2="114.91612"
       y2="145.73866"
       gradientUnits="userSpaceOnUse"
       gradientTransform="matrix(0.22529123,0,0,0.39018654,-9.5038363,-47.903475)" />
    <linearGradient
       inkscape:collect="always"
       id="linearGradient27684">
      <stop
         style="stop-color:#4a4a4a;stop-opacity:1;"
         offset="0"
         id="stop27680" />
      <stop
         style="stop-color:#232323;stop-opacity:0.74901962"
         offset="1"
         id="stop27682" />
    </linearGradient>
    <linearGradient
       inkscape:collect="always"
       xlink:href="#linearGradient12418"
       id="linearGradient2216"
       x1="42"
       y1="4.9999995"
       x2="56"
       y2="31"
       gradientUnits="userSpaceOnUse" />
  </defs>
  <path
     id="path6272"
     style="opacity:0.4;fill:url(#linearGradient6808);fill-opacity:1;stroke-width:0.992188;stroke-linecap:round;stroke-linejoin:round"
     d="M 8.4666667,4.4979167 A 3.9687501,3.9687501 0 0 0 4.4979168,8.4666666 3.9687501,3.9687501 0 0 0 8.4666667,12.435417 3.9687501,3.9687501 0 0 0 12.435417,8.4666666 3.9687501,3.9687501 0 0 0 8.4666667,4.4979167 Z m 0,2.9765624 a 0.99218755,0.99218755 0 0 1 0.992188,0.9921875 0.99218755,0.99218755 0 0 1 -0.992188,0.9921876 0.99218755,0.99218755 0 0 1 -0.992187,-0.9921876 0.99218755,0.99218755 0 0 1 0.992187,-0.9921875 z" />
  <path
     id="path9538"
     style="fill:#d0d0d0;fill-opacity:1;stroke-width:0.992188;stroke-linecap:round;stroke-linejoin:round"
     d="M 8.4666667,4.9940104 A 3.4726563,3.4726563 0 0 0 4.9940105,8.4666666 3.4726563,3.4726563 0 0 0 8.4666667,11.939323 3.4726563,3.4726563 0 0 0 11.939324,8.4666666 3.4726563,3.4726563 0 0 0 8.4666667,4.9940104 Z m 0,0.7441406 A 2.7285155,2.7285155 0 0 1 11.195183,8.4666666 2.7285155,2.7285155 0 0 1 8.4666667,11.195183 2.7285155,2.7285155 0 0 1 5.7381507,8.4666666 2.7285155,2.7285155 0 0 1 8.4666667,5.738151 Z" />
  <path
     id="path151229"
     style="fill:url(#linearGradient162118);fill-opacity:1;stroke-width:0.657656;stroke-linecap:round;stroke-linejoin:round"
     d="M 8.4666667,0.52916674 A 7.9375005,7.9375005 0 0 0 0.52916667,8.4666674 7.9375005,7.9375005 0 0 0 8.4666667,16.404167 7.9375005,7.9375005 0 0 0 16.404167,8.4666674 7.9375005,7.9375005 0 0 0 8.4666667,0.52916674 Z m 0,4.96093746 A 2.9765624,2.9765624 0 0 1 11.44323,8.4666674 2.9765624,2.9765624 0 0 1 8.4666667,11.44323 2.9765624,2.9765624 0 0 1 5.4901037,8.4666674 2.9765624,2.9765624 0 0 1 8.4666667,5.4901042 Z" />
  <path
     id="path151229-3"
     style="fill:url(#linearGradient1031);fill-opacity:1;stroke-width:0.657656;stroke-linecap:round;stroke-linejoin:round"
     d="M 11.436447,8.6527011 A 2.9765624,2.9765624 0 0 1 8.4666667,11.44323 2.9765624,2.9765624 0 0 1 6.3640817,10.569252 l -3.5055998,3.505601 a 7.9375005,7.9375005 0 0 0 5.6081848,2.329314 7.9375005,7.9375005 0 0 0 7.9190913,-7.4423759 z" />
  <path
     id="path151229-3-3"
     style="fill:url(#linearGradient219588);fill-opacity:1;stroke-width:0.657656;stroke-linecap:round;stroke-linejoin:round"
     d="M 11.436447,8.6527011 A 2.9765624,2.9765624 0 0 1 8.4666667,11.44323 2.9765624,2.9765624 0 0 1 6.3640817,10.569252 l -3.5055998,3.505601 a 7.9375005,7.9375005 0 0 0 5.6081848,2.329314 7.9375005,7.9375005 0 0 0 7.9190913,-7.4423759 z" />
  <path
     id="rect2336"
     style="opacity:0.5;fill:url(#linearGradient2498);fill-opacity:1;stroke-width:0.992188;stroke-linecap:round;stroke-linejoin:round"
     d="M 6.5433347,0.77236871 A 7.9375005,7.9375005 0 0 0 0.67063087,7.0045464 l 4.82625583,0.9660266 0.04748,0.00776 A 2.9765624,2.9765624 0 0 1 7.7477197,5.5899042 Z M 11.38897,8.9550089 A 2.9765626,2.9765626 0 0 1 9.1856157,11.343429 L 10.39,16.160965 A 7.9375005,7.9375005 0 0 0 16.262702,9.9287865 L 11.436447,8.9627603 Z" />
  <path
     id="path7246"
     style="opacity:0.5;fill:url(#linearGradient7822);fill-opacity:1;stroke-width:4.99997;stroke-linecap:round;stroke-linejoin:round"
     d="M 32 27 A 4.9999993 4.9999993 0 0 0 27 32 A 4.9999993 4.9999993 0 0 0 32 37 A 4.9999993 4.9999993 0 0 0 37 32 A 4.9999993 4.9999993 0 0 0 32 27 z M 32 28 A 3.9999991 3.9999991 0 0 1 32.103516 28.001953 A 3.9999998 3.9999998 0 0 1 32.113281 28.001953 A 3.9999991 3.9999991 0 0 1 32.205078 28.005859 A 3.9999998 3.9999998 0 0 1 32.273438 28.009766 A 3.9999998 3.9999998 0 0 1 32.341797 28.015625 A 3.9999991 3.9999991 0 0 1 32.412109 28.021484 A 3.9999998 3.9999998 0 0 1 32.455078 28.025391 A 3.9999991 3.9999991 0 0 1 32.513672 28.033203 A 3.9999998 3.9999998 0 0 1 32.568359 28.041016 A 3.9999991 3.9999991 0 0 1 32.681641 28.058594 A 3.9999991 3.9999991 0 0 1 32.716797 28.064453 A 3.9999998 3.9999998 0 0 1 32.794922 28.080078 A 3.9999991 3.9999991 0 0 1 32.818359 28.083984 A 3.9999998 3.9999998 0 0 1 32.90625 28.103516 A 3.9999991 3.9999991 0 0 1 32.917969 28.107422 A 3.9999998 3.9999998 0 0 1 33.117188 28.160156 A 3.9999998 3.9999998 0 0 1 33.126953 28.162109 A 3.9999991 3.9999991 0 0 1 33.216797 28.189453 A 3.9999998 3.9999998 0 0 1 33.236328 28.195312 A 3.9999991 3.9999991 0 0 1 33.314453 28.222656 A 3.9999998 3.9999998 0 0 1 33.34375 28.232422 A 3.9999991 3.9999991 0 0 1 33.429688 28.265625 A 3.9999998 3.9999998 0 0 1 33.451172 28.273438 A 3.9999991 3.9999991 0 0 1 33.556641 28.316406 A 3.9999991 3.9999991 0 0 1 33.650391 28.355469 A 3.9999998 3.9999998 0 0 1 33.662109 28.361328 A 3.9999991 3.9999991 0 0 1 33.695312 28.376953 A 3.9999998 3.9999998 0 0 1 33.765625 28.410156 A 3.9999991 3.9999991 0 0 1 33.789062 28.421875 A 3.9999998 3.9999998 0 0 1 33.867188 28.462891 A 3.9999991 3.9999991 0 0 1 33.966797 28.517578 A 3.9999991 3.9999991 0 0 1 33.970703 28.519531 A 3.9999998 3.9999998 0 0 1 34 28.537109 A 3.9999991 3.9999991 0 0 1 34.058594 28.570312 A 3.9999998 3.9999998 0 0 1 34.066406 28.574219 A 3.9999991 3.9999991 0 0 1 34.146484 28.625 A 3.9999998 3.9999998 0 0 1 34.162109 28.634766 A 3.9999991 3.9999991 0 0 1 34.232422 28.681641 A 3.9999998 3.9999998 0 0 1 34.318359 28.740234 A 3.9999998 3.9999998 0 0 1 34.351562 28.763672 A 3.9999991 3.9999991 0 0 1 34.46875 28.851562 A 3.9999998 3.9999998 0 0 1 34.53125 28.904297 A 3.9999991 3.9999991 0 0 1 34.605469 28.964844 A 3.9999998 3.9999998 0 0 1 34.619141 28.976562 A 3.9999991 3.9999991 0 0 1 34.716797 29.064453 A 3.9999998 3.9999998 0 0 1 34.787109 29.130859 A 3.9999991 3.9999991 0 0 1 34.935547 29.283203 A 3.9999998 3.9999998 0 0 1 34.947266 29.294922 A 3.9999991 3.9999991 0 0 1 35.003906 29.359375 A 3.9999998 3.9999998 0 0 1 35.023438 29.380859 A 3.9999991 3.9999991 0 0 1 35.035156 29.394531 A 3.9999991 3.9999991 0 0 1 35.095703 29.46875 A 3.9999991 3.9999991 0 0 1 35.136719 29.517578 A 3.9999998 3.9999998 0 0 1 35.167969 29.556641 A 3.9999991 3.9999991 0 0 1 35.199219 29.599609 A 3.9999998 3.9999998 0 0 1 35.236328 29.648438 A 3.9999991 3.9999991 0 0 1 35.259766 29.681641 A 3.9999998 3.9999998 0 0 1 35.318359 29.767578 A 3.9999998 3.9999998 0 0 1 35.365234 29.837891 A 3.9999991 3.9999991 0 0 1 35.375 29.853516 A 3.9999998 3.9999998 0 0 1 35.425781 29.933594 A 3.9999991 3.9999991 0 0 1 35.480469 30.029297 A 3.9999998 3.9999998 0 0 1 35.482422 30.033203 A 3.9999991 3.9999991 0 0 1 35.537109 30.132812 A 3.9999991 3.9999991 0 0 1 35.578125 30.210938 A 3.9999998 3.9999998 0 0 1 35.589844 30.234375 A 3.9999991 3.9999991 0 0 1 35.623047 30.304688 A 3.9999998 3.9999998 0 0 1 35.638672 30.337891 A 3.9999991 3.9999991 0 0 1 35.644531 30.349609 A 3.9999991 3.9999991 0 0 1 35.683594 30.443359 A 3.9999991 3.9999991 0 0 1 35.726562 30.548828 A 3.9999998 3.9999998 0 0 1 35.734375 30.570312 A 3.9999991 3.9999991 0 0 1 35.742188 30.589844 A 3.9999998 3.9999998 0 0 1 35.767578 30.65625 A 3.9999991 3.9999991 0 0 1 35.777344 30.685547 A 3.9999998 3.9999998 0 0 1 35.804688 30.763672 A 3.9999991 3.9999991 0 0 1 35.810547 30.783203 A 3.9999998 3.9999998 0 0 1 35.837891 30.873047 A 3.9999991 3.9999991 0 0 1 35.839844 30.882812 A 3.9999998 3.9999998 0 0 1 35.892578 31.082031 A 3.9999998 3.9999998 0 0 1 35.896484 31.09375 A 3.9999991 3.9999991 0 0 1 35.916016 31.181641 A 3.9999998 3.9999998 0 0 1 35.919922 31.205078 A 3.9999991 3.9999991 0 0 1 35.935547 31.283203 A 3.9999998 3.9999998 0 0 1 35.941406 31.318359 A 3.9999991 3.9999991 0 0 1 35.958984 31.431641 A 3.9999991 3.9999991 0 0 1 35.966797 31.486328 A 3.9999998 3.9999998 0 0 1 35.96875 31.498047 A 3.9999991 3.9999991 0 0 1 35.978516 31.587891 A 3.9999998 3.9999998 0 0 1 35.984375 31.658203 A 3.9999991 3.9999991 0 0 1 35.988281 31.691406 A 3.9999998 3.9999998 0 0 1 35.990234 31.726562 A 3.9999998 3.9999998 0 0 1 35.994141 31.794922 A 3.9999998 3.9999998 0 0 1 35.998047 31.886719 A 3.9999991 3.9999991 0 0 1 36 32 A 3.9999991 3.9999991 0 0 1 35.988281 32.298828 A 3.9999998 3.9999998 0 0 1 35.986328 32.308594 A 3.9999998 3.9999998 0 0 1 35.972656 32.447266 A 3.9999991 3.9999991 0 0 1 35.949219 32.628906 A 3.9999998 3.9999998 0 0 1 35.929688 32.730469 A 3.9999991 3.9999991 0 0 1 35.880859 32.958984 A 3.9999998 3.9999998 0 0 1 35.861328 33.035156 A 3.9999991 3.9999991 0 0 1 35.798828 33.244141 A 3.9999998 3.9999998 0 0 1 35.746094 33.396484 A 3.9999991 3.9999991 0 0 1 35.703125 33.503906 A 3.9999998 3.9999998 0 0 1 35.625 33.685547 A 3.9999991 3.9999991 0 0 1 35.554688 33.830078 A 3.9999998 3.9999998 0 0 1 35.496094 33.939453 A 3.9999991 3.9999991 0 0 1 35.396484 34.107422 A 3.9999998 3.9999998 0 0 1 35.324219 34.222656 A 3.9999991 3.9999991 0 0 1 35.214844 34.375 A 3.9999998 3.9999998 0 0 1 35.140625 34.474609 A 3.9999991 3.9999991 0 0 1 35.023438 34.615234 A 3.9999998 3.9999998 0 0 1 34.943359 34.708984 A 3.9999991 3.9999991 0 0 1 34.720703 34.931641 A 3.9999998 3.9999998 0 0 1 34.708984 34.943359 A 3.9999991 3.9999991 0 0 1 34.615234 35.023438 A 3.9999991 3.9999991 0 0 1 34.474609 35.140625 A 3.9999998 3.9999998 0 0 1 34.375 35.214844 A 3.9999991 3.9999991 0 0 1 34.222656 35.324219 A 3.9999998 3.9999998 0 0 1 34.107422 35.396484 A 3.9999991 3.9999991 0 0 1 33.939453 35.496094 A 3.9999998 3.9999998 0 0 1 33.830078 35.554688 A 3.9999991 3.9999991 0 0 1 33.685547 35.625 A 3.9999998 3.9999998 0 0 1 33.503906 35.703125 A 3.9999991 3.9999991 0 0 1 33.396484 35.746094 A 3.9999998 3.9999998 0 0 1 33.244141 35.798828 A 3.9999991 3.9999991 0 0 1 33.035156 35.861328 A 3.9999998 3.9999998 0 0 1 32.958984 35.880859 A 3.9999991 3.9999991 0 0 1 32.730469 35.929688 A 3.9999998 3.9999998 0 0 1 32.628906 35.949219 A 3.9999991 3.9999991 0 0 1 32.447266 35.972656 A 3.9999998 3.9999998 0 0 1 32.308594 35.986328 A 3.9999998 3.9999998 0 0 1 32.298828 35.988281 A 3.9999991 3.9999991 0 0 1 32 36 A 3.9999991 3.9999991 0 0 1 31.691406 35.986328 A 3.9999998 3.9999998 0 0 1 31.552734 35.972656 A 3.9999991 3.9999991 0 0 1 31.371094 35.949219 A 3.9999998 3.9999998 0 0 1 31.269531 35.929688 A 3.9999991 3.9999991 0 0 1 31.041016 35.880859 A 3.9999998 3.9999998 0 0 1 30.964844 35.861328 A 3.9999991 3.9999991 0 0 1 30.755859 35.798828 A 3.9999998 3.9999998 0 0 1 30.603516 35.746094 A 3.9999991 3.9999991 0 0 1 30.496094 35.703125 A 3.9999998 3.9999998 0 0 1 30.314453 35.625 A 3.9999991 3.9999991 0 0 1 30.169922 35.554688 A 3.9999998 3.9999998 0 0 1 30.060547 35.496094 A 3.9999991 3.9999991 0 0 1 29.892578 35.396484 A 3.9999998 3.9999998 0 0 1 29.777344 35.324219 A 3.9999991 3.9999991 0 0 1 29.625 35.214844 A 3.9999998 3.9999998 0 0 1 29.525391 35.140625 A 3.9999991 3.9999991 0 0 1 29.384766 35.023438 A 3.9999998 3.9999998 0 0 1 29.279297 34.931641 A 3.9999991 3.9999991 0 0 1 29.056641 34.708984 A 3.9999998 3.9999998 0 0 1 28.976562 34.615234 A 3.9999991 3.9999991 0 0 1 28.859375 34.474609 A 3.9999998 3.9999998 0 0 1 28.785156 34.375 A 3.9999991 3.9999991 0 0 1 28.675781 34.222656 A 3.9999998 3.9999998 0 0 1 28.603516 34.107422 A 3.9999991 3.9999991 0 0 1 28.503906 33.939453 A 3.9999998 3.9999998 0 0 1 28.445312 33.830078 A 3.9999991 3.9999991 0 0 1 28.375 33.685547 A 3.9999998 3.9999998 0 0 1 28.296875 33.503906 A 3.9999991 3.9999991 0 0 1 28.253906 33.396484 A 3.9999998 3.9999998 0 0 1 28.201172 33.244141 A 3.9999991 3.9999991 0 0 1 28.138672 33.035156 A 3.9999998 3.9999998 0 0 1 28.119141 32.958984 A 3.9999991 3.9999991 0 0 1 28.070312 32.730469 A 3.9999998 3.9999998 0 0 1 28.050781 32.628906 A 3.9999991 3.9999991 0 0 1 28.027344 32.447266 A 3.9999998 3.9999998 0 0 1 28.013672 32.308594 A 3.9999991 3.9999991 0 0 1 28 32 A 3.9999991 3.9999991 0 0 1 28.013672 31.691406 A 3.9999998 3.9999998 0 0 1 28.027344 31.552734 A 3.9999991 3.9999991 0 0 1 28.050781 31.371094 A 3.9999998 3.9999998 0 0 1 28.070312 31.269531 A 3.9999991 3.9999991 0 0 1 28.119141 31.041016 A 3.9999998 3.9999998 0 0 1 28.138672 30.964844 A 3.9999991 3.9999991 0 0 1 28.201172 30.755859 A 3.9999998 3.9999998 0 0 1 28.253906 30.603516 A 3.9999991 3.9999991 0 0 1 28.296875 30.496094 A 3.9999998 3.9999998 0 0 1 28.375 30.314453 A 3.9999991 3.9999991 0 0 1 28.445312 30.169922 A 3.9999998 3.9999998 0 0 1 28.503906 30.060547 A 3.9999991 3.9999991 0 0 1 28.603516 29.892578 A 3.9999998 3.9999998 0 0 1 28.675781 29.777344 A 3.9999991 3.9999991 0 0 1 28.785156 29.625 A 3.9999998 3.9999998 0 0 1 28.859375 29.525391 A 3.9999991 3.9999991 0 0 1 28.976562 29.384766 A 3.9999998 3.9999998 0 0 1 29.068359 29.279297 A 3.9999991 3.9999991 0 0 1 29.291016 29.056641 A 3.9999998 3.9999998 0 0 1 29.384766 28.976562 A 3.9999991 3.9999991 0 0 1 29.525391 28.859375 A 3.9999998 3.9999998 0 0 1 29.625 28.785156 A 3.9999991 3.9999991 0 0 1 29.777344 28.675781 A 3.9999998 3.9999998 0 0 1 29.892578 28.603516 A 3.9999991 3.9999991 0 0 1 30.060547 28.503906 A 3.9999998 3.9999998 0 0 1 30.169922 28.445312 A 3.9999991 3.9999991 0 0 1 30.314453 28.375 A 3.9999998 3.9999998 0 0 1 30.496094 28.296875 A 3.9999991 3.9999991 0 0 1 30.603516 28.253906 A 3.9999998 3.9999998 0 0 1 30.755859 28.201172 A 3.9999991 3.9999991 0 0 1 30.964844 28.138672 A 3.9999998 3.9999998 0 0 1 31.041016 28.119141 A 3.9999991 3.9999991 0 0 1 31.269531 28.070312 A 3.9999998 3.9999998 0 0 1 31.371094 28.050781 A 3.9999991 3.9999991 0 0 1 31.552734 28.027344 A 3.9999998 3.9999998 0 0 1 31.691406 28.013672 A 3.9999991 3.9999991 0 0 1 32 28 z "
     transform="scale(0.26458334)" />
  <path
     id="path7246-2"
     style="opacity:0.5;fill:url(#linearGradient10226);fill-opacity:1;stroke-width:8.99996;stroke-linecap:round;stroke-linejoin:round"
     d="M 32 23 C 27.029436 22.999999 23 27.029436 23 32 C 22.999997 36.970565 27.029435 41 32 41 C 36.970564 41 41.000004 36.970564 41 32 C 41 27.029437 36.970563 23 32 23 z M 32 24 C 36.418277 24.000002 40 27.581723 40 32 C 40 36.418277 36.418277 40 32 40 C 27.581721 40 23.999999 36.418279 24 32 C 24 27.581721 27.581721 23.999999 32 24 z "
     transform="scale(0.26458334)" />
  <path
     id="path151229-7"
     style="opacity:0.5;fill:url(#linearGradient11943);fill-opacity:1;stroke-width:0.657656;stroke-linecap:round;stroke-linejoin:round"
     d="m 1.4554667,4.7546839 c -0.60679943,1.1432956 -0.92480283,2.417638 -0.92630003,3.7119827 0.0015,1.2943449 0.3195006,2.5686874 0.92630003,3.7119834 l 4.384422,-2.3215645 c -0.228142,-0.42805 -0.348221,-0.9053691 -0.349785,-1.3904189 0.0016,-0.4850497 0.121643,-0.9623688 0.349785,-1.3904187 z"
     sodipodi:nodetypes="ccccccc" />
  <path
     id="path151229-1"
     style="opacity:0.5;fill:url(#linearGradient16452);fill-opacity:1;stroke-width:0.657656;stroke-linecap:round;stroke-linejoin:round"
     d="M 10.833771,0.89057901 9.3542097,5.625755 a 2.9765624,2.9765624 0 0 1 1.8991093,1.7954327 l 4.645065,-1.741173 A 7.9375005,7.9375005 0 0 0 10.833771,0.89057901 Z" />
  <path
     id="path151229-2"
     style="fill:#d0d0d0;fill-opacity:1;stroke-width:0.657656;stroke-linecap:round;stroke-linejoin:round"
     d="M 8.4666667,0.52916667 A 7.9375005,7.9375005 0 0 0 0.52916667,8.4666666 7.9375005,7.9375005 0 0 0 8.4666667,16.404167 7.9375005,7.9375005 0 0 0 16.404167,8.4666666 7.9375005,7.9375005 0 0 0 8.4666667,0.52916667 Z m 0,0.24804684 A 7.6894535,7.6894535 0 0 1 16.15612,8.4666666 7.6894535,7.6894535 0 0 1 8.4666667,16.15612 7.6894535,7.6894535 0 0 1 0.77721357,8.4666666 7.6894535,7.6894535 0 0 1 8.4666667,0.77721351 Z" />
  <path
     id="rect862"
     style="fill:url(#linearGradient27686);stroke-width:0.218638;stroke-linecap:round;stroke-linejoin:round"
     d="m 9.7895823,0.5291667 h 6.3499997 c 0.14658,0 0.264584,0.11800417 0.264584,0.26458335 V 8.73125 c 0,0.1465792 -0.118004,0.2645834 -0.264584,0.2645834 H 9.7895823 c -0.146579,0 -0.264583,-0.1180042 -0.264583,-0.2645834 V 0.79375005 c 0,-0.14657918 0.118004,-0.26458335 0.264583,-0.26458335 z"
     sodipodi:nodetypes="sssssssss" />
  <path
     id="rect1388"
     style="fill:#ffffff;stroke-width:3;stroke-linecap:round;stroke-linejoin:round"
     d="M 38.474609,4 C 38.209695,4.0133421 38,4.2316562 38,4.5 v 2 C 38,6.777 38.223,7 38.5,7 h 1 C 39.777,7 40,6.777 40,6.5 v -2 C 40,4.223 39.777,4 39.5,4 h -1 c -0.0087,0 -0.01685,-4.304e-4 -0.02539,0 z m 20,0 C 58.209695,4.0133421 58,4.2316562 58,4.5 v 2 C 58,6.777 58.223,7 58.5,7 h 1 C 59.777,7 60,6.777 60,6.5 v -2 C 60,4.223 59.777,4 59.5,4 h -1 c -0.0087,0 -0.01685,-4.304e-4 -0.02539,0 z m -20,6 C 38.209695,10.013342 38,10.231656 38,10.5 v 2 c 0,0.277 0.223,0.5 0.5,0.5 h 1 c 0.277,0 0.5,-0.223 0.5,-0.5 v -2 C 40,10.223 39.777,10 39.5,10 h -1 c -0.0087,0 -0.01685,-4.304e-4 -0.02539,0 z m 20,0 C 58.209695,10.013342 58,10.231656 58,10.5 v 2 c 0,0.277 0.223,0.5 0.5,0.5 h 1 c 0.277,0 0.5,-0.223 0.5,-0.5 v -2 C 60,10.223 59.777,10 59.5,10 h -1 c -0.0087,0 -0.01685,-4.304e-4 -0.02539,0 z m -20,6 C 38.209695,16.013342 38,16.231656 38,16.5 v 2 c 0,0.277 0.223,0.5 0.5,0.5 h 1 c 0.277,0 0.5,-0.223 0.5,-0.5 v -2 C 40,16.223 39.777,16 39.5,16 h -1 c -0.0087,0 -0.01685,-4.3e-4 -0.02539,0 z m 20,0 C 58.209695,16.013342 58,16.231656 58,16.5 v 2 c 0,0.277 0.223,0.5 0.5,0.5 h 1 c 0.277,0 0.5,-0.223 0.5,-0.5 v -2 C 60,16.223 59.777,16 59.5,16 h -1 c -0.0087,0 -0.01685,-4.3e-4 -0.02539,0 z m -20,6 C 38.209695,22.013342 38,22.231656 38,22.5 v 2 c 0,0.277 0.223,0.5 0.5,0.5 h 1 c 0.277,0 0.5,-0.223 0.5,-0.5 v -2 C 40,22.223 39.777,22 39.5,22 h -1 c -0.0087,0 -0.01685,-4.3e-4 -0.02539,0 z m 20,0 C 58.209695,22.013342 58,22.231656 58,22.5 v 2 c 0,0.277 0.223,0.5 0.5,0.5 h 1 c 0.277,0 0.5,-0.223 0.5,-0.5 v -2 C 60,22.223 59.777,22 59.5,22 h -1 c -0.0087,0 -0.01685,-4.3e-4 -0.02539,0 z m -20,6 C 38.209695,28.013342 38,28.231656 38,28.5 v 2 c 0,0.277 0.223,0.5 0.5,0.5 h 1 c 0.277,0 0.5,-0.223 0.5,-0.5 v -2 C 40,28.223 39.777,28 39.5,28 h -1 c -0.0087,0 -0.01685,-4.3e-4 -0.02539,0 z m 20,0 C 58.209695,28.013342 58,28.231656 58,28.5 v 2 c 0,0.277 0.223,0.5 0.5,0.5 h 1 c 0.277,0 0.5,-0.223 0.5,-0.5 v -2 C 60,28.223 59.777,28 59.5,28 h -1 c -0.0087,0 -0.01685,-4.3e-4 -0.02539,0 z"
     transform="scale(0.26458334)"
     sodipodi:nodetypes="sssssssssssssssssssssssssssssssssssssssscssssssssccssssssssccssssssssccssssssssccsssssssscssssssssss" />
  <path
     id="rect2063"
     style="fill:url(#linearGradient2216);stroke-width:3;stroke-linecap:round;stroke-linejoin:round;fill-opacity:1"
     d="M 44 5 C 42.892001 5 42 5.8920001 42 7 L 42 15 C 42 16.108 42.892001 17 44 17 L 54 17 C 55.107999 17 56 16.108 56 15 L 56 7 C 56 5.8920001 55.107999 5 54 5 L 44 5 z M 44 19 C 42.892001 19 42 19.892 42 21 L 42 29 C 42 30.108 42.892001 31 44 31 L 54 31 C 55.107999 31 56 30.108 56 29 L 56 21 C 56 19.892 55.107999 19 54 19 L 44 19 z "
     transform="scale(0.26458334)" />
</svg>
