<?xml version="1.0" encoding="UTF-8" standalone="no"?>
<!-- Created with Inkscape (http://www.inkscape.org/) -->

<svg
   width="64"
   height="64"
   viewBox="0 0 16.933333 16.933334"
   version="1.1"
   id="svg5"
   inkscape:version="1.1.1 (3bf5ae0d25, 2021-09-20, custom)"
   sodipodi:docname="media-memory.svg"
   xmlns:inkscape="http://www.inkscape.org/namespaces/inkscape"
   xmlns:sodipodi="http://sodipodi.sourceforge.net/DTD/sodipodi-0.dtd"
   xmlns:xlink="http://www.w3.org/1999/xlink"
   xmlns="http://www.w3.org/2000/svg"
   xmlns:svg="http://www.w3.org/2000/svg">
  <sodipodi:namedview
     id="namedview7"
     pagecolor="#ffffff"
     bordercolor="#666666"
     borderopacity="1.0"
     inkscape:pageshadow="2"
     inkscape:pageopacity="0.0"
     inkscape:pagecheckerboard="0"
     inkscape:document-units="px"
     showgrid="false"
     units="px"
     height="64px"
     inkscape:zoom="6.1171875"
     inkscape:cx="23.621967"
     inkscape:cy="46.671775"
     inkscape:window-width="1920"
     inkscape:window-height="999"
     inkscape:window-x="0"
     inkscape:window-y="0"
     inkscape:window-maximized="1"
     inkscape:current-layer="svg5" />
  <defs
     id="defs2">
    <linearGradient
       inkscape:collect="always"
       xlink:href="#linearGradient69062"
       id="linearGradient69064"
       x1="26.943359"
       y1="4.0449219"
       x2="26.943359"
       y2="60.044922"
       gradientUnits="userSpaceOnUse"
       gradientTransform="matrix(0.26458333,0,0,0.26458333,0.01498639,-0.01188516)" />
    <linearGradient
       inkscape:collect="always"
       id="linearGradient69062">
      <stop
         style="stop-color:#6f767b;stop-opacity:1;"
         offset="0"
         id="stop69058" />
      <stop
         style="stop-color:#505559;stop-opacity:1"
         offset="1"
         id="stop69060" />
    </linearGradient>
    <linearGradient
       inkscape:collect="always"
       xlink:href="#linearGradient110928"
       id="linearGradient110930"
       x1="53"
       y1="10"
       x2="53"
       y2="56"
       gradientUnits="userSpaceOnUse"
       gradientTransform="scale(0.26458333)" />
    <linearGradient
       inkscape:collect="always"
       id="linearGradient110928">
      <stop
         style="stop-color:#dde1e6;stop-opacity:1;"
         offset="0"
         id="stop110924" />
      <stop
         style="stop-color:#aeb7c0;stop-opacity:1"
         offset="1"
         id="stop110926" />
    </linearGradient>
    <linearGradient
       inkscape:collect="always"
       xlink:href="#linearGradient91471"
       id="linearGradient88697"
       x1="17"
       y1="7"
       x2="17.344841"
       y2="58.328091"
       gradientUnits="userSpaceOnUse"
       gradientTransform="scale(0.26458333)" />
    <linearGradient
       inkscape:collect="always"
       id="linearGradient91471">
      <stop
         style="stop-color:#6f767b;stop-opacity:1;"
         offset="0"
         id="stop91467" />
      <stop
         style="stop-color:#51565a;stop-opacity:1"
         offset="1"
         id="stop91469" />
    </linearGradient>
  </defs>
  <path
     id="rect63054"
     style="fill:url(#linearGradient69064);fill-opacity:1;stroke-width:0.504936;stroke-linejoin:round"
     d="m 3.9687501,1.0583337 c -0.2931583,0 -0.5291667,0.2360083 -0.5291667,0.5291667 V 15.345834 c 0,0.293158 0.2360084,0.529166 0.5291667,0.529166 h 8.9958329 c 0.293159,0 0.529167,-0.236008 0.529167,-0.529166 V 1.5875004 c 0,-0.2931584 -0.236008,-0.5291667 -0.529167,-0.5291667 H 9.5089806 c 0.02047,0.082678 0.03088,0.1675243 0.03101,0.2526977 0,0.5845014 -0.473832,1.0583334 -1.058334,1.0583334 -0.584501,10e-8 -1.058333,-0.473832 -1.058333,-1.0583334 0.0013,-0.08532 0.01294,-0.1701689 0.03462,-0.2526977 z"
     sodipodi:nodetypes="ssssssssccsccs" />
  <path
     id="rect102042"
     style="fill:url(#linearGradient110930);fill-opacity:1;stroke-width:0.264583;stroke-linejoin:round"
     d="m 3.4395834,2.6458337 c -0.14658,0 -1.3229167,0.18415 -1.3229167,0.3307291 v 0.396875 c 0,0.1465792 1.1763367,0.3307292 1.3229167,0.3307292 H 6.5313846 V 2.6458337 Z m 7.1132616,0 V 3.704167 h 2.940905 c 0.146579,0 1.322917,-0.18415 1.322917,-0.3307292 v -0.396875 c 0,-0.1465791 -1.176338,-0.3307291 -1.322917,-0.3307291 z M 3.4395834,4.2333336 c -0.14658,0 -1.3229167,0.18415 -1.3229167,0.3307292 v 0.396875 c 0,0.1465792 1.1763367,0.3307292 1.3229167,0.3307292 H 13.49375 c 0.146579,0 1.322917,-0.18415 1.322917,-0.3307292 v -0.396875 c 0,-0.1465792 -1.176338,-0.3307292 -1.322917,-0.3307292 h -2.940905 v 0.2940389 c 0,0.1465792 -0.118004,0.2645833 -0.264584,0.2645833 H 6.7959676 c -0.146579,0 -0.264583,-0.1180041 -0.264583,-0.2645833 V 4.2333336 Z m 0,1.5875 c -0.14658,0 -1.3229167,0.18415 -1.3229167,0.3307292 v 0.396875 c 0,0.1465792 1.1763367,0.3307291 1.3229167,0.3307291 H 13.49375 c 0.146579,0 1.322917,-0.1841499 1.322917,-0.3307291 v -0.396875 c 0,-0.1465792 -1.176338,-0.3307292 -1.322917,-0.3307292 z m 0,1.5875 c -0.14658,0 -1.3229167,0.18415 -1.3229167,0.3307292 v 0.396875 c 0,0.1465791 1.1763367,0.3307291 1.3229167,0.3307291 H 13.49375 c 0.146579,0 1.322917,-0.18415 1.322917,-0.3307291 v -0.396875 c 0,-0.1465792 -1.176338,-0.3307292 -1.322917,-0.3307292 z m 0,1.5875 c -0.14658,0 -1.3229167,0.1841503 -1.3229167,0.3307292 v 0.3968747 c 0,0.146579 1.1763367,0.3307295 1.3229167,0.3307295 H 13.49375 c 0.146579,0 1.322917,-0.1841505 1.322917,-0.3307295 V 9.3265628 c 0,-0.1465789 -1.176338,-0.3307292 -1.322917,-0.3307292 z m 0,1.5875004 c -0.14658,0 -1.3229167,0.18415 -1.3229167,0.330729 v 0.396875 c 0,0.146579 1.1763367,0.330729 1.3229167,0.330729 H 13.49375 c 0.146579,0 1.322917,-0.18415 1.322917,-0.330729 v -0.396875 c 0,-0.146579 -1.176338,-0.330729 -1.322917,-0.330729 z m 0,1.5875 c -0.14658,0 -1.3229167,0.18415 -1.3229167,0.330729 v 0.396875 c 0,0.146579 1.1763367,0.330729 1.3229167,0.330729 H 13.49375 c 0.146579,0 1.322917,-0.18415 1.322917,-0.330729 v -0.396875 c 0,-0.146579 -1.176338,-0.330729 -1.322917,-0.330729 z m 0,1.5875 c -0.14658,0 -1.3229167,0.18415 -1.3229167,0.330729 v 0.396875 c 0,0.146579 1.1763367,0.330729 1.3229167,0.330729 H 13.49375 c 0.146579,0 1.322917,-0.18415 1.322917,-0.330729 v -0.396875 c 0,-0.146579 -1.176338,-0.330729 -1.322917,-0.330729 z" />
  <path
     id="rect63054-1-0"
     style="fill:#4d4d4d;fill-opacity:1;stroke-width:0.504936;stroke-linejoin:round"
     d="m 3.9687501,1.0583337 c -0.2931584,0 -0.5291667,0.2360082 -0.5291667,0.5291667 v 0.2645833 c 0,-0.2931584 0.2360083,-0.5291667 0.5291667,-0.5291667 h 3.4556025 a 1.0583333,1.0583333 0 0 1 -10e-4,-0.011886 1.0583333,1.0583333 0 0 1 0.03462,-0.2526977 z m 5.5402305,0 a 1.0583333,1.0583333 0 0 1 0.03101,0.2526977 1.0583333,1.0583333 0 0 1 -5.17e-4,0.011886 h 3.4251144 c 0.293159,0 0.529166,0.2360083 0.529166,0.5291667 V 1.5875004 c 0,-0.2931585 -0.236007,-0.5291667 -0.529166,-0.5291667 z m -2.074292,0.3824056 a 1.0583333,1.0583333 0 0 0 -0.01137,0.1348755 1.0583333,1.0583333 0 0 0 1.058334,1.0583333 1.0583333,1.0583333 0 0 0 1.058333,-1.0583333 1.0583333,1.0583333 0 0 0 -0.0083,-0.1307414 1.0583333,1.0583333 0 0 1 -1.050065,0.9244914 1.0583333,1.0583333 0 0 1 -1.046965,-0.9286255 z" />
  <path
     id="rect87987"
     style="fill:url(#linearGradient88697);fill-opacity:1;stroke-width:0.264583;stroke-linejoin:round"
     d="m 4.4979167,1.8520837 c -0.2931583,0 -0.5291666,0.2360083 -0.5291666,0.5291666 V 14.816668 c 0,0.293158 0.2360083,0.529166 0.5291666,0.529166 h 7.9375003 c 0.293158,0 0.529167,-0.236008 0.529167,-0.529166 V 2.3812503 c 0,-0.2931583 -0.236009,-0.5291666 -0.529167,-0.5291666 H 9.5089806 c 0.02046,0.082678 0.03088,0.1675243 0.03101,0.2526977 0,0.5845014 -0.473832,1.0583333 -1.058334,1.0583333 -0.584501,3e-7 -1.058333,-0.4738319 -1.058333,-1.0583333 0.0013,-0.08532 0.01294,-0.1701689 0.03462,-0.2526977 z"
     sodipodi:nodetypes="ssssssssccsccs" />
  <path
     id="rect87987-6"
     style="fill:#4d4d4d;fill-opacity:1;stroke-width:0.264583;stroke-linejoin:round"
     d="m 7.4238366,2.116667 c 4.76e-4,0.043065 0.0038,0.08544 0.0093,0.127124 0.0058,-0.042883 0.01379,-0.085196 0.0248,-0.127124 z m 2.085144,0 c 0.0098,0.039468 0.01706,0.079633 0.02222,0.1198893 0.0049,-0.039364 0.0078,-0.079306 0.0083,-0.1198893 z M 3.9687501,14.816668 v 0.264583 c 0,0.293158 0.2360083,0.529167 0.5291666,0.529167 h 7.9375003 c 0.293158,0 0.529167,-0.236009 0.529167,-0.529167 v -0.264583 c 0,0.293158 -0.236009,0.529166 -0.529167,0.529166 H 4.4979167 c -0.2931583,0 -0.5291666,-0.236008 -0.5291666,-0.529166 z"
     sodipodi:nodetypes="cccccccccsssscssc" />
  <path
     id="rect87987-9"
     style="fill:#4d4d4d;fill-opacity:1;stroke-width:0.264583;stroke-linejoin:round"
     d="m 4.4979167,1.8520837 c -0.2931583,0 -0.5291666,0.2360083 -0.5291666,0.5291666 v 0.2645834 c 0,-0.2931583 0.2360083,-0.5291667 0.5291666,-0.5291667 h 2.9259199 c -4.5e-5,-0.00399 -5.29e-4,-0.00788 -5.29e-4,-0.011886 0.0013,-0.08532 0.01295,-0.1701689 0.03463,-0.2526977 z m 5.0110639,0 c 0.02046,0.082678 0.03087,0.1675243 0.03101,0.2526977 0,0.004 -4.77e-4,0.00789 -5.3e-4,0.011886 h 2.8959604 c 0.293159,0 0.529167,0.2360084 0.529167,0.5291667 V 2.3812503 c 0,-0.2931583 -0.236008,-0.5291666 -0.529167,-0.5291666 z m 0.02222,0.3844726 c -0.06496,0.5222171 -0.50974,0.9265584 -1.049548,0.9265584 -0.537321,3e-7 -0.98037,-0.4006027 -1.048515,-0.9193237 -0.0056,0.041526 -0.0092,0.0836 -0.0098,0.1255738 0,0.5845013 0.473832,1.0583335 1.058334,1.0583332 0.584501,0 1.058333,-0.4738319 1.058333,-1.0583332 -6.8e-5,-0.044514 -0.0031,-0.088736 -0.0088,-0.1328085 z" />
  <path
     id="rect87987-3"
     style="fill:#8b9095;fill-opacity:1;stroke-width:0.264583;stroke-linejoin:round"
     d="m 4.4979167,2.116667 c -0.2931583,0 -0.5291666,0.2360084 -0.5291666,0.5291667 V 2.910417 c 0,-0.2931583 0.2360083,-0.5291667 0.5291666,-0.5291667 h 2.9259199 c -4.5e-5,-0.00399 -5.29e-4,-0.00788 -5.29e-4,-0.011886 0.0013,-0.08532 0.01295,-0.1701688 0.03463,-0.2526977 z m 5.0110639,0 c 0.02046,0.082678 0.03088,0.1675244 0.03101,0.2526978 0,0.004 -4.77e-4,0.00789 -5.3e-4,0.011886 h 2.8959604 c 0.293158,0 0.529167,0.2360083 0.529167,0.5291666 V 2.6458337 c 0,-0.2931583 -0.236009,-0.5291667 -0.529167,-0.5291667 z m 0.02222,0.3844727 c -0.06496,0.5222171 -0.50974,0.9265583 -1.049548,0.9265583 -0.53732,3e-7 -0.98037,-0.4006027 -1.048515,-0.9193236 -0.0056,0.041526 -0.0092,0.0836 -0.0098,0.1255737 0,0.5845013 0.473832,1.0583335 1.058334,1.0583333 0.584501,0 1.058333,-0.473832 1.058333,-1.0583333 -6.7e-5,-0.044514 -0.0031,-0.088736 -0.0088,-0.1328084 z" />
</svg>
