<?xml version="1.0" encoding="UTF-8" standalone="no"?>
<!-- Created with Inkscape (http://www.inkscape.org/) -->

<svg
   width="64"
   height="64"
   viewBox="0 0 16.933333 16.933334"
   version="1.1"
   id="svg5"
   inkscape:version="1.1.1 (3bf5ae0d25, 2021-09-20, custom)"
   sodipodi:docname="multimedia-player.svg"
   xmlns:inkscape="http://www.inkscape.org/namespaces/inkscape"
   xmlns:sodipodi="http://sodipodi.sourceforge.net/DTD/sodipodi-0.dtd"
   xmlns:xlink="http://www.w3.org/1999/xlink"
   xmlns="http://www.w3.org/2000/svg"
   xmlns:svg="http://www.w3.org/2000/svg">
  <sodipodi:namedview
     id="namedview7"
     pagecolor="#ffffff"
     bordercolor="#666666"
     borderopacity="1.0"
     inkscape:pageshadow="2"
     inkscape:pageopacity="0.0"
     inkscape:pagecheckerboard="0"
     inkscape:document-units="px"
     showgrid="false"
     units="px"
     inkscape:zoom="1"
     inkscape:cx="32"
     inkscape:cy="44.5"
     inkscape:window-width="1920"
     inkscape:window-height="996"
     inkscape:window-x="0"
     inkscape:window-y="0"
     inkscape:window-maximized="1"
     inkscape:current-layer="svg5" />
  <defs
     id="defs2">
    <linearGradient
       inkscape:collect="always"
       id="linearGradient2301">
      <stop
         style="stop-color:#3fe3e7;stop-opacity:1;"
         offset="0"
         id="stop2297" />
      <stop
         style="stop-color:#066bbc;stop-opacity:1"
         offset="1"
         id="stop2299" />
    </linearGradient>
    <linearGradient
       inkscape:collect="always"
       id="linearGradient1116">
      <stop
         style="stop-color:#555a5f;stop-opacity:1;"
         offset="0"
         id="stop1112" />
      <stop
         style="stop-color:#4b4f53;stop-opacity:1"
         offset="1"
         id="stop1114" />
    </linearGradient>
    <linearGradient
       inkscape:collect="always"
       xlink:href="#linearGradient1116"
       id="linearGradient1118"
       x1="1.0583334"
       y1="10.534594"
       x2="10.093162"
       y2="10.554838"
       gradientUnits="userSpaceOnUse"
       gradientTransform="matrix(1,0,0,0.97435895,2.9104165,-1.5332264)" />
    <linearGradient
       inkscape:collect="always"
       xlink:href="#linearGradient2301"
       id="linearGradient8326"
       x1="4.2333336"
       y1="0.79374999"
       x2="12.700001"
       y2="11.90625"
       gradientUnits="userSpaceOnUse" />
  </defs>
  <path
     id="rect846"
     style="fill:url(#linearGradient1118);stroke-width:1.30585;stroke-linecap:round;stroke-linejoin:round"
     d="m 4.7625,0.52916667 h 7.408334 c 0.439738,0 0.793751,0.3540125 0.793751,0.79375003 V 15.610417 c 0,0.439737 -0.354013,0.79375 -0.793751,0.79375 H 4.7625 c -0.4397375,0 -0.79375,-0.354013 -0.79375,-0.79375 V 1.3229167 c 0,-0.43973753 0.3540125,-0.79375003 0.79375,-0.79375003 z"
     sodipodi:nodetypes="sssssssss" />
  <rect
     style="opacity:1;fill:url(#linearGradient8326);fill-opacity:1;stroke-width:0.79375;stroke-linecap:round;stroke-linejoin:round"
     id="rect8238"
     width="8.4666672"
     height="11.1125"
     x="4.2333336"
     y="0.79374999"
     ry="0.5291667" />
  <path
     id="rect8588"
     style="opacity:1;fill:#b8c2cc;stroke-width:0.79375;stroke-linecap:round;stroke-linejoin:round"
     d="m 7.9375001,12.435417 h 1.0583332 c 0.5863167,0 1.0583327,0.472017 1.0583327,1.058333 v 1.058334 c 0,0.586316 -0.472016,1.058333 -1.0583327,1.058333 H 7.9375001 c -0.5863167,0 -1.0583334,-0.472017 -1.0583334,-1.058333 V 13.49375 c 0,-0.586316 0.4720167,-1.058333 1.0583334,-1.058333 z" />
  <path
     id="rect2848"
     style="fill:#818990;stroke-width:0.63162;stroke-linecap:round;stroke-linejoin:round"
     d="m 8.2020836,13.229167 h 0.5291666 c 0.2931583,0 0.5291667,0.236008 0.5291667,0.529167 V 14.2875 c 0,0.293159 -0.2360084,0.529167 -0.5291667,0.529167 H 8.2020836 c -0.2931584,0 -0.5291667,-0.236008 -0.5291667,-0.529167 v -0.529166 c 0,-0.293159 0.2360083,-0.529167 0.5291667,-0.529167 z" />
</svg>
