<?xml version="1.0" encoding="UTF-8" standalone="no"?>
<!-- Created with Inkscape (http://www.inkscape.org/) -->

<svg
   width="64"
   height="64"
   viewBox="0 0 16.933333 16.933334"
   version="1.1"
   id="svg144504"
   inkscape:version="1.1.1 (3bf5ae0d25, 2021-09-20, custom)"
   sodipodi:docname="network-wireless.svg"
   xmlns:inkscape="http://www.inkscape.org/namespaces/inkscape"
   xmlns:sodipodi="http://sodipodi.sourceforge.net/DTD/sodipodi-0.dtd"
   xmlns:xlink="http://www.w3.org/1999/xlink"
   xmlns="http://www.w3.org/2000/svg"
   xmlns:svg="http://www.w3.org/2000/svg">
  <sodipodi:namedview
     id="namedview144506"
     pagecolor="#ffffff"
     bordercolor="#666666"
     borderopacity="1.0"
     inkscape:pageshadow="2"
     inkscape:pageopacity="0.0"
     inkscape:pagecheckerboard="0"
     inkscape:document-units="px"
     showgrid="false"
     units="px"
     inkscape:zoom="10.842313"
     inkscape:cx="19.737486"
     inkscape:cy="29.28342"
     inkscape:window-width="1920"
     inkscape:window-height="996"
     inkscape:window-x="0"
     inkscape:window-y="0"
     inkscape:window-maximized="1"
     inkscape:current-layer="svg144504" />
  <defs
     id="defs144501">
    <linearGradient
       inkscape:collect="always"
       id="linearGradient329500">
      <stop
         style="stop-color:#000000;stop-opacity:0"
         offset="0"
         id="stop329496" />
      <stop
         style="stop-color:#000000;stop-opacity:0"
         offset="0.4698768"
         id="stop330200" />
      <stop
         style="stop-color:#000000;stop-opacity:1"
         offset="1"
         id="stop329498" />
    </linearGradient>
    <radialGradient
       inkscape:collect="always"
       xlink:href="#linearGradient329500"
       id="radialGradient329502"
       cx="8.4666672"
       cy="12.7"
       fx="8.4666672"
       fy="12.7"
       r="7.6729169"
       gradientUnits="userSpaceOnUse"
       gradientTransform="matrix(1.8965517,0,0,1.827586,-7.590805,-9.1874276)" />
    <radialGradient
       inkscape:collect="always"
       xlink:href="#linearGradient329500"
       id="radialGradient331953"
       cx="8.4666672"
       cy="12.170835"
       fx="8.4666672"
       fy="12.170835"
       r="4.2333336"
       gradientUnits="userSpaceOnUse"
       gradientTransform="matrix(1.7499998,0,0,1.7499999,-6.3499983,-7.805208)" />
  </defs>
  <path
     id="path332853"
     style="color:#000000;fill:#3cc2e2;stroke:none;stroke-width:0.529167;stroke-linecap:round;stroke-linejoin:round;-inkscape-stroke:none"
     d="M 8.4666669,3.1760335 C 5.8033347,3.1781767 3.2340408,4.1589659 1.2479859,5.933488 a 0.26460982,0.26460982 0 0 0 -0.015503,0.3808553 l 7.0429812,7.3613077 a 0.26460982,0.26460982 0 0 0 0.3829222,0 L 15.702918,6.3107259 A 0.26460982,0.26460982 0 0 0 15.689482,5.9298707 C 13.702063,4.1559645 11.130607,3.176364 8.4666669,3.1760335 Z" />
  <path
     id="path332859"
     style="color:#000000;fill:#1787d6;stroke-width:0.529167;stroke-linecap:round;stroke-linejoin:round;-inkscape-stroke:none"
     d="m 8.4666669,6.0859336 c -1.9125714,0.00235 -3.760369,0.695366 -5.2027832,1.9513021 a 0.26460982,0.26460982 0 0 0 -0.017571,0.3829225 l 5.0291514,5.2554928 a 0.26460982,0.26460982 0 0 0 0.3829222,0 L 13.691154,8.4139569 A 0.26460982,0.26460982 0 0 0 13.673583,8.0331016 C 12.229582,6.7778685 10.379976,6.0862018 8.4666669,6.0859336 Z" />
  <path
     id="path332865"
     style="color:#000000;fill:url(#radialGradient329502);stroke-width:0.529167;stroke-linecap:round;stroke-linejoin:round;-inkscape-stroke:none"
     d="m 8.4666669,6.0859336 c -1.9125714,0.00235 -3.760369,0.695366 -5.2027832,1.9513021 a 0.26460982,0.26460982 0 0 0 -0.017571,0.3829225 l 5.0291514,5.2554928 a 0.26460982,0.26460982 0 0 0 0.3829222,0 L 13.691154,8.4139569 A 0.26460982,0.26460982 0 0 0 13.673583,8.0331016 C 12.229582,6.7778685 10.379976,6.0862018 8.4666669,6.0859336 Z" />
  <path
     id="path332871"
     style="color:#000000;fill:#02589f;stroke-width:0.529167;stroke-linecap:round;stroke-linejoin:round;-inkscape-stroke:none"
     d="M 8.4666669,8.9963503 C 7.3092873,8.9990094 6.1964037,9.4464838 5.36143,10.247954 a 0.26460982,0.26460982 0 0 0 -0.00775,0.375171 l 2.9217864,3.052526 a 0.26460982,0.26460982 0 0 0 0.3829222,0 L 11.583789,10.61744 a 0.26460982,0.26460982 0 0 0 -0.0078,-0.373104 C 10.739175,9.4436221 9.6248799,8.9965508 8.4666669,8.9963503 Z" />
  <path
     id="path332877"
     style="color:#000000;opacity:0.2;fill:url(#radialGradient331953);stroke-width:0.529167;stroke-linecap:round;stroke-linejoin:round;-inkscape-stroke:none"
     d="M 8.4666669,8.9963503 C 7.3086811,8.9971176 6.1957642,9.4434837 5.3593628,10.244336 a 0.26460982,0.26460982 0 0 0 -0.00982,0.374654 l 2.92592,3.056661 a 0.26460982,0.26460982 0 0 0 0.3829222,0 l 2.925404,-3.058211 a 0.26460982,0.26460982 0 0 0 -0.0078,-0.373104 C 10.739095,9.4438226 9.6248037,8.9964029 8.4666669,8.9963503 Z" />
</svg>
