<?xml version="1.0" encoding="UTF-8" standalone="no"?>
<!-- Created with Inkscape (http://www.inkscape.org/) -->

<svg
   width="64"
   height="64"
   viewBox="0 0 16.933333 16.933334"
   version="1.1"
   id="svg5"
   inkscape:version="1.1.1 (3bf5ae0d25, 2021-09-20, custom)"
   sodipodi:docname="phone.svg"
   xmlns:inkscape="http://www.inkscape.org/namespaces/inkscape"
   xmlns:sodipodi="http://sodipodi.sourceforge.net/DTD/sodipodi-0.dtd"
   xmlns:xlink="http://www.w3.org/1999/xlink"
   xmlns="http://www.w3.org/2000/svg"
   xmlns:svg="http://www.w3.org/2000/svg">
  <sodipodi:namedview
     id="namedview7"
     pagecolor="#ffffff"
     bordercolor="#666666"
     borderopacity="1.0"
     inkscape:pageshadow="2"
     inkscape:pageopacity="0.0"
     inkscape:pagecheckerboard="0"
     inkscape:document-units="px"
     showgrid="false"
     units="px"
     inkscape:zoom="6.0390625"
     inkscape:cx="9.8525226"
     inkscape:cy="49.59379"
     inkscape:window-width="1920"
     inkscape:window-height="999"
     inkscape:window-x="0"
     inkscape:window-y="0"
     inkscape:window-maximized="1"
     inkscape:current-layer="svg5" />
  <defs
     id="defs2">
    <linearGradient
       inkscape:collect="always"
       id="linearGradient2301">
      <stop
         style="stop-color:#3fe3e7;stop-opacity:1;"
         offset="0"
         id="stop2297" />
      <stop
         style="stop-color:#066bbc;stop-opacity:1"
         offset="1"
         id="stop2299" />
    </linearGradient>
    <linearGradient
       inkscape:collect="always"
       id="linearGradient1116">
      <stop
         style="stop-color:#555a5f;stop-opacity:1;"
         offset="0"
         id="stop1112" />
      <stop
         style="stop-color:#4b4f53;stop-opacity:1"
         offset="1"
         id="stop1114" />
    </linearGradient>
    <linearGradient
       inkscape:collect="always"
       xlink:href="#linearGradient1116"
       id="linearGradient1118"
       x1="1.0583334"
       y1="10.534594"
       x2="9.5639954"
       y2="10.554838"
       gradientUnits="userSpaceOnUse"
       gradientTransform="matrix(1,0,0,0.97435895,3.1749998,-1.5332264)" />
    <linearGradient
       inkscape:collect="always"
       xlink:href="#linearGradient2301"
       id="linearGradient1715"
       x1="1.3229166"
       y1="2.6458333"
       x2="9.2604179"
       y2="17.991667"
       gradientUnits="userSpaceOnUse"
       gradientTransform="translate(3.1749998,-1.8520832)" />
  </defs>
  <path
     id="rect2343"
     style="opacity:1;fill:#b8c2cc;stroke-width:0.79375;stroke-linecap:round;stroke-linejoin:round"
     d="M 4.4839641,3.1750001 C 4.1971873,3.1822171 3.96875,3.4155889 3.96875,3.7041668 v 1.0583333 c 0,0.2931584 0.2360083,0.5291667 0.5291667,0.5291667 0.2931583,0 0.5291667,-0.2360083 0.5291667,-0.5291667 V 3.7041668 c 0,-0.2931584 -0.2360084,-0.5291667 -0.5291667,-0.5291667 -0.00458,0 -0.0094,-1.146e-4 -0.013953,0 z m 7.9374989,1.3229167 c -0.286866,0 -0.515214,0.2405888 -0.515214,0.5291667 v 1.0583333 c 0,0.2931584 0.236009,0.5291667 0.529167,0.5291667 0.293158,0 0.529167,-0.2360083 0.529167,-0.5291667 V 5.0270835 c 0,-0.2931584 -0.822325,-0.5291667 -0.529167,-0.5291667 h -0.01395 z M 4.4839641,5.8208335 C 4.1971873,5.8280505 3.96875,6.0614223 3.96875,6.3500002 v 1.0583333 c 0,0.2931584 0.2360083,0.5291667 0.5291667,0.5291667 0.2931583,0 0.5291667,-0.2360083 0.5291667,-0.5291667 V 6.3500002 c 0,-0.2931584 -0.2360084,-0.5291667 -0.5291667,-0.5291667 -0.00458,0 -0.0094,-1.146e-4 -0.013953,0 z"
     sodipodi:nodetypes="csssssscssssssssscssssssc" />
  <path
     id="rect846"
     style="fill:url(#linearGradient1118);stroke-width:1.30585;stroke-linecap:round;stroke-linejoin:round"
     d="M 5.0270833,0.52916667 H 11.90625 c 0.439738,0 0.793751,0.3540125 0.793751,0.79375003 V 15.610417 c 0,0.439737 -0.354013,0.79375 -0.793751,0.79375 H 5.0270833 c -0.4397375,0 -0.79375,-0.354013 -0.79375,-0.79375 V 1.3229167 c 0,-0.43973753 0.3540125,-0.79375003 0.79375,-0.79375003 z"
     sodipodi:nodetypes="sssssssss" />
  <path
     id="rect1539"
     style="opacity:1;fill:url(#linearGradient1715);stroke-width:0.79375;stroke-linecap:round;stroke-linejoin:round"
     d="M 5.0270832,0.79375007 H 11.90625 c 0.293159,0 0.529167,0.23600833 0.529167,0.52916673 V 15.610417 c 0,0.293159 -0.236008,0.529167 -0.529167,0.529167 H 5.0270832 c -0.2931583,0 -0.5291667,-0.236008 -0.5291667,-0.529167 V 1.3229168 c 0,-0.2931584 0.2360084,-0.52916673 0.5291667,-0.52916673 z"
     sodipodi:nodetypes="sssssssss" />
</svg>
