<?xml version="1.0" encoding="UTF-8" standalone="no"?>
<!-- Created with Inkscape (http://www.inkscape.org/) -->

<svg
   width="64"
   height="64"
   viewBox="0 0 16.933333 16.933334"
   version="1.1"
   id="svg5"
   inkscape:version="1.1.1 (3bf5ae0d25, 2021-09-20, custom)"
   sodipodi:docname="tablet.svg"
   xmlns:inkscape="http://www.inkscape.org/namespaces/inkscape"
   xmlns:sodipodi="http://sodipodi.sourceforge.net/DTD/sodipodi-0.dtd"
   xmlns:xlink="http://www.w3.org/1999/xlink"
   xmlns="http://www.w3.org/2000/svg"
   xmlns:svg="http://www.w3.org/2000/svg">
  <sodipodi:namedview
     id="namedview7"
     pagecolor="#ffffff"
     bordercolor="#666666"
     borderopacity="1.0"
     inkscape:pageshadow="2"
     inkscape:pageopacity="0.0"
     inkscape:pagecheckerboard="0"
     inkscape:document-units="px"
     showgrid="false"
     units="px"
     inkscape:zoom="8.5405241"
     inkscape:cx="28.569675"
     inkscape:cy="33.780128"
     inkscape:window-width="1920"
     inkscape:window-height="996"
     inkscape:window-x="0"
     inkscape:window-y="0"
     inkscape:window-maximized="1"
     inkscape:current-layer="svg5" />
  <defs
     id="defs2">
    <linearGradient
       inkscape:collect="always"
       id="linearGradient2301">
      <stop
         style="stop-color:#3fe3e7;stop-opacity:1;"
         offset="0"
         id="stop2297" />
      <stop
         style="stop-color:#066bbc;stop-opacity:1"
         offset="1"
         id="stop2299" />
    </linearGradient>
    <linearGradient
       inkscape:collect="always"
       id="linearGradient1116">
      <stop
         style="stop-color:#555a5f;stop-opacity:1;"
         offset="0"
         id="stop1112" />
      <stop
         style="stop-color:#4b4f53;stop-opacity:1"
         offset="1"
         id="stop1114" />
    </linearGradient>
    <linearGradient
       inkscape:collect="always"
       xlink:href="#linearGradient1116"
       id="linearGradient1118"
       x1="1.0583334"
       y1="10.534594"
       x2="16.443161"
       y2="10.554838"
       gradientUnits="userSpaceOnUse"
       gradientTransform="matrix(1,0,0,0.97435895,-0.26458349,1.112607)" />
    <linearGradient
       inkscape:collect="always"
       xlink:href="#linearGradient2301"
       id="linearGradient1715"
       x1="1.3229166"
       y1="2.6458333"
       x2="16.254309"
       y2="12.772667"
       gradientUnits="userSpaceOnUse"
       gradientTransform="translate(-0.26458349,0.79375016)" />
  </defs>
  <path
     id="rect2343"
     style="opacity:1;fill:#b8c2cc;stroke-width:0.79375;stroke-linecap:round;stroke-linejoin:round"
     d="M 7.1437238,3.4256308 C 7.1365068,3.138854 6.9031358,2.9104167 6.6145581,2.9104167 H 5.5562245 c -0.2931584,0 -0.5291667,0.2360083 -0.5291667,0.5291667 0,0.2931583 0.2360083,0.5291667 0.5291667,0.5291667 h 1.0583336 c 0.2931577,0 0.5291657,-0.2360084 0.5291657,-0.5291667 0,-0.00458 1.15e-4,-0.0094 0,-0.013953 z m -2.6458327,0 C 4.4906741,3.138854 4.2573023,2.9104167 3.9687244,2.9104167 H 2.9103911 c -0.2931584,0 -0.5291667,0.2360083 -0.5291667,0.5291667 0,0.2931583 0.2360083,0.5291667 0.5291667,0.5291667 h 1.0583333 c 0.2931584,0 0.5291667,-0.2360084 0.5291667,-0.5291667 0,-0.00458 1.146e-4,-0.0094 0,-0.013953 z"
     sodipodi:nodetypes="cssssssccssssssc" />
  <path
     id="rect846"
     style="fill:url(#linearGradient1118);stroke-width:1.30585;stroke-linecap:round;stroke-linejoin:round"
     d="m 1.5875,3.175 h 13.758334 c 0.439738,0 0.793751,0.3540125 0.793751,0.7937501 v 8.9958329 c 0,0.439737 -0.354013,0.79375 -0.793751,0.79375 H 1.5875 c -0.4397375,0 -0.79374999,-0.354013 -0.79374999,-0.79375 V 3.9687501 C 0.79375001,3.5290125 1.1477625,3.175 1.5875,3.175 Z"
     sodipodi:nodetypes="sssssssss" />
  <path
     id="rect1539"
     style="opacity:1;fill:url(#linearGradient1715);stroke-width:0.79375;stroke-linecap:round;stroke-linejoin:round"
     d="M 1.5874999,3.4395834 H 15.345834 c 0.293159,0 0.529167,0.2360084 0.529167,0.5291668 v 8.9958328 c 0,0.293159 -0.236008,0.529167 -0.529167,0.529167 H 1.5874999 c -0.2931583,0 -0.5291667,-0.236008 -0.5291667,-0.529167 V 3.9687502 c 0,-0.2931584 0.2360084,-0.5291668 0.5291667,-0.5291668 z"
     sodipodi:nodetypes="sssssssss" />
</svg>
