<?xml version="1.0" encoding="UTF-8" standalone="no"?>
<!-- Created with Inkscape (http://www.inkscape.org/) -->

<svg
   width="48"
   height="48"
   viewBox="0 0 12.7 12.7"
   version="1.1"
   id="svg5"
   inkscape:version="1.1.1 (3bf5ae0d25, 2021-09-20, custom)"
   sodipodi:docname="folder-script.svg"
   xmlns:inkscape="http://www.inkscape.org/namespaces/inkscape"
   xmlns:sodipodi="http://sodipodi.sourceforge.net/DTD/sodipodi-0.dtd"
   xmlns:xlink="http://www.w3.org/1999/xlink"
   xmlns="http://www.w3.org/2000/svg"
   xmlns:svg="http://www.w3.org/2000/svg">
  <sodipodi:namedview
     id="namedview7"
     pagecolor="#ffffff"
     bordercolor="#666666"
     borderopacity="1.0"
     inkscape:pageshadow="2"
     inkscape:pageopacity="0.0"
     inkscape:pagecheckerboard="0"
     inkscape:document-units="px"
     showgrid="false"
     units="px"
     height="64px"
     inkscape:zoom="5.6936829"
     inkscape:cx="-5.5324472"
     inkscape:cy="41.537263"
     inkscape:window-width="1920"
     inkscape:window-height="999"
     inkscape:window-x="0"
     inkscape:window-y="0"
     inkscape:window-maximized="1"
     inkscape:current-layer="svg5"
     showguides="true" />
  <defs
     id="defs2">
    <linearGradient
       inkscape:collect="always"
       id="linearGradient845">
      <stop
         style="stop-color:#445865;stop-opacity:1"
         offset="0"
         id="stop6086" />
      <stop
         style="stop-color:#303f4c;stop-opacity:1"
         offset="1"
         id="stop6088" />
    </linearGradient>
    <linearGradient
       inkscape:collect="always"
       id="linearGradient12673">
      <stop
         style="stop-color:#ffffff;stop-opacity:1;"
         offset="0"
         id="stop12669" />
      <stop
         style="stop-color:#ffffff;stop-opacity:0;"
         offset="1"
         id="stop12671" />
    </linearGradient>
    <linearGradient
       inkscape:collect="always"
       xlink:href="#linearGradient12673"
       id="linearGradient5594"
       x1="2"
       y1="22"
       x2="47.936607"
       y2="22.007439"
       gradientUnits="userSpaceOnUse"
       gradientTransform="translate(-0.99999998,-5)" />
    <linearGradient
       inkscape:collect="always"
       id="linearGradient11972">
      <stop
         style="stop-color:#b3c4d5;stop-opacity:1"
         offset="0"
         id="stop11968" />
      <stop
         style="stop-color:#6986a3;stop-opacity:1"
         offset="1"
         id="stop11970" />
    </linearGradient>
    <linearGradient
       inkscape:collect="always"
       id="linearGradient4405">
      <stop
         style="stop-color:#637e8d;stop-opacity:1"
         offset="0"
         id="stop4401" />
      <stop
         style="stop-color:#516775;stop-opacity:1"
         offset="1"
         id="stop4403" />
    </linearGradient>
    <linearGradient
       inkscape:collect="always"
       xlink:href="#linearGradient11972"
       id="linearGradient6679"
       x1="17"
       y1="17.5"
       x2="39"
       y2="39.5"
       gradientUnits="userSpaceOnUse" />
    <linearGradient
       inkscape:collect="always"
       xlink:href="#linearGradient4405"
       id="linearGradient7109"
       x1="24.272949"
       y1="7.7161407"
       x2="24.264668"
       y2="14.865067"
       gradientUnits="userSpaceOnUse" />
    <linearGradient
       inkscape:collect="always"
       xlink:href="#linearGradient845"
       id="linearGradient847"
       x1="0.26458333"
       y1="10.980209"
       x2="12.435417"
       y2="10.980209"
       gradientUnits="userSpaceOnUse" />
  </defs>
  <path
     id="rect846"
     style="fill:url(#linearGradient7109);fill-opacity:1;stroke-width:2;stroke-linecap:round;stroke-linejoin:round;stroke-dasharray:24, 2"
     d="M 4 5 A 3.0000003 3.0000003 0 0 0 1 8 L 1 36 L 47 36 L 47 13 C 47 11.892 46.107999 11 45 11 L 23 11 L 19 7 C 17.634743 5.6637684 16.662 5 15 5 L 4 5 z "
     transform="scale(0.26458333)" />
  <path
     id="rect1170"
     style="fill:url(#linearGradient6679);fill-opacity:1;stroke-width:2.64576;stroke-linecap:round;stroke-linejoin:round;stroke-dasharray:31.749, 2.64576"
     d="M 21 12 L 16 15 L 5 15 L 4 15 A 3 3 0 0 0 1 18 L 1 19 L 1 41 C 1 42.107999 1.8919997 43 3 43 L 45 43 C 46.107999 43 47 42.107999 47 41 L 47 14 C 47 12.892 46.108003 12 45 12 L 21 12 z "
     transform="scale(0.26458333)" />
  <path
     id="rect1170-75"
     style="opacity:0.3;fill:url(#linearGradient5594);fill-opacity:1;stroke-width:2.64576;stroke-linecap:round;stroke-linejoin:round;stroke-dasharray:31.749, 2.64576"
     d="M 21 12 L 16 15 L 4 15 A 3 3 0 0 0 1 18 L 1 19 A 3 3 0 0 1 4 16 L 16 16 L 21 13 L 45 13 C 46.108006 13 47 13.892 47 15 L 47 14 C 47 12.892 46.108006 12 45 12 L 21 12 z "
     transform="scale(0.26458333)" />
  <path
     id="rect1170-2"
     style="fill:url(#linearGradient847);fill-opacity:1;stroke-width:0.700024;stroke-linecap:round;stroke-linejoin:round;stroke-dasharray:8.40026, 0.700024"
     d="m 0.26458333,10.583334 v 0.264584 c 0,0.293158 0.23600831,0.529166 0.52916664,0.529166 H 11.90625 c 0.293158,0 0.529167,-0.236008 0.529167,-0.529166 v -0.264584 c 0,0.293158 -0.236009,0.529167 -0.529167,0.529167 H 0.79374997 c -0.2931583,0 -0.52916664,-0.236009 -0.52916664,-0.529167 z"
     sodipodi:nodetypes="csssscssc" />
  <path
     id="rect986"
     style="fill:#ffffff;stroke-width:0.264583"
     d="m 3.969185,5.2916666 c -0.067633,0 -0.135245,0.025691 -0.1870687,0.077515 -0.00324,0.00324 -0.00678,0.00646 -0.00982,0.00982 -0.094133,0.1041174 -0.09059,0.2644276 0.00982,0.3648356 L 5.3562036,7.3180306 3.7822334,8.891975 c -0.1036479,0.1036463 -0.1036471,0.2704902 0,0.3741373 0.1036472,0.1036473 0.2704895,0.1036464 0.3741374,0 l 1.7610387,-1.761013 c 0.00324,-0.00324 0.00626,-0.00646 0.0093,-0.00982 0.094136,-0.104116 0.091114,-0.2639095 -0.0093,-0.3643175 L 4.1562537,5.3691812 C 4.1044301,5.3173578 4.0368176,5.2916666 3.969185,5.2916666 Z m 2.116173,3.7042977 c -0.1465792,0 -0.2645833,0.1180042 -0.2645833,0.2645834 0,0.1465792 0.1180041,0.2645836 0.2645833,0.2645836 h 2.645915 c 0.1465792,0 0.2645833,-0.1180044 0.2645833,-0.2645836 0,-0.1465792 -0.1180041,-0.2645834 -0.2645833,-0.2645834 z"
     sodipodi:nodetypes="sscccsssscccssssssss" />
  <path
     id="rect9178-6"
     style="opacity:0.2;fill:#000000;fill-opacity:1;stroke:none;stroke-width:0.264583;stroke-linecap:round;stroke-linejoin:round;stroke-miterlimit:4;stroke-dasharray:none;stroke-opacity:1"
     d="m 3.7398646,5.6886761 c -0.058571,0.1013441 -0.044458,0.2330476 0.042375,0.319877 L 5.2239119,7.4503223 5.3562036,7.3180306 3.7822392,5.7439698 c -0.016886,-0.016888 -0.030971,-0.03557 -0.042375,-0.055294 z m 2.219403,1.7616462 c -0.00918,0.015833 -0.019825,0.030879 -0.032556,0.044958 -0.00304,0.00336 -0.00606,0.00658 -0.0093,0.00982 l -1.7610368,1.761009 c -0.1036479,0.1036463 -0.2704902,0.1036473 -0.3741374,0 -0.01676,-0.016761 -0.030518,-0.035246 -0.041858,-0.054777 -0.058787,0.1012497 -0.045029,0.2324738 0.041858,0.3193602 0.1036472,0.1036476 0.2704895,0.1036465 0.3741374,0 L 5.9174086,7.7696829 c 0.00324,-0.00324 0.00626,-0.00646 0.0093,-0.00982 0.078423,-0.086742 0.089134,-0.2120469 0.032556,-0.3095419 z M 5.8564314,9.3927084 c -0.022482,0.03893 -0.035657,0.083927 -0.035657,0.1322916 0,0.1465792 0.1180042,0.2645833 0.2645833,0.2645833 H 8.73125 c 0.1465792,0 0.2645834,-0.1180041 0.2645834,-0.2645833 0,-0.048365 -0.013174,-0.093361 -0.035657,-0.1322916 C 8.9145224,9.4717644 8.8294643,9.525 8.7312499,9.525 h -2.645892 c -0.098214,0 -0.1832723,-0.053236 -0.2289265,-0.1322916 z"
     sodipodi:nodetypes="ccccsccscsscsssccccsssscssc" />
</svg>
