<?xml version="1.0" encoding="UTF-8" standalone="no"?>
<!-- Created with Inkscape (http://www.inkscape.org/) -->

<svg
   width="48"
   height="48"
   viewBox="0 0 12.7 12.7"
   version="1.1"
   id="svg5"
   inkscape:version="1.2.1 (9c6d41e410, 2022-07-14)"
   sodipodi:docname="folder-games.svg"
   xmlns:inkscape="http://www.inkscape.org/namespaces/inkscape"
   xmlns:sodipodi="http://sodipodi.sourceforge.net/DTD/sodipodi-0.dtd"
   xmlns:xlink="http://www.w3.org/1999/xlink"
   xmlns="http://www.w3.org/2000/svg"
   xmlns:svg="http://www.w3.org/2000/svg">
  <sodipodi:namedview
     id="namedview7"
     pagecolor="#ffffff"
     bordercolor="#666666"
     borderopacity="1.0"
     inkscape:pageshadow="2"
     inkscape:pageopacity="0.0"
     inkscape:pagecheckerboard="0"
     inkscape:document-units="px"
     showgrid="false"
     units="px"
     height="64px"
     inkscape:zoom="16.541667"
     inkscape:cx="24"
     inkscape:cy="24"
     inkscape:window-width="1920"
     inkscape:window-height="1006"
     inkscape:window-x="0"
     inkscape:window-y="0"
     inkscape:window-maximized="1"
     inkscape:current-layer="svg5"
     showguides="true"
     inkscape:showpageshadow="2"
     inkscape:deskcolor="#d1d1d1" />
  <defs
     id="defs2">
    <linearGradient
       inkscape:collect="always"
       id="linearGradient12673">
      <stop
         style="stop-color:#ffffff;stop-opacity:1;"
         offset="0"
         id="stop12669" />
      <stop
         style="stop-color:#ffffff;stop-opacity:0;"
         offset="1"
         id="stop12671" />
    </linearGradient>
    <linearGradient
       inkscape:collect="always"
       xlink:href="#linearGradient12673"
       id="linearGradient5594"
       x1="2"
       y1="22"
       x2="47.936607"
       y2="22.007439"
       gradientUnits="userSpaceOnUse"
       gradientTransform="translate(-0.99999998,-5)" />
    <linearGradient
       inkscape:collect="always"
       id="linearGradient11972">
      <stop
         style="stop-color:#fce798;stop-opacity:1"
         offset="0"
         id="stop11968" />
      <stop
         style="stop-color:#ffc937;stop-opacity:1"
         offset="1"
         id="stop11970" />
    </linearGradient>
    <linearGradient
       inkscape:collect="always"
       id="linearGradient4405">
      <stop
         style="stop-color:#fcbc19;stop-opacity:1"
         offset="0"
         id="stop4401" />
      <stop
         style="stop-color:#f4b61f;stop-opacity:1"
         offset="1"
         id="stop4403" />
    </linearGradient>
    <linearGradient
       inkscape:collect="always"
       xlink:href="#linearGradient11972"
       id="linearGradient6679"
       x1="17"
       y1="17.5"
       x2="39"
       y2="39.5"
       gradientUnits="userSpaceOnUse" />
    <linearGradient
       inkscape:collect="always"
       xlink:href="#linearGradient4405"
       id="linearGradient7109"
       x1="24.272949"
       y1="7.7161407"
       x2="24.264668"
       y2="14.865067"
       gradientUnits="userSpaceOnUse" />
    <linearGradient
       inkscape:collect="always"
       xlink:href="#linearGradient6090"
       id="linearGradient5817"
       gradientUnits="userSpaceOnUse"
       x1="2"
       y1="22"
       x2="62"
       y2="22"
       gradientTransform="translate(-8.0000012,-6.0000003)" />
    <linearGradient
       inkscape:collect="always"
       id="linearGradient6090">
      <stop
         style="stop-color:#e4a729;stop-opacity:1"
         offset="0"
         id="stop6086" />
      <stop
         style="stop-color:#e2b24b;stop-opacity:0"
         offset="1"
         id="stop6088" />
    </linearGradient>
    <linearGradient
       inkscape:collect="always"
       xlink:href="#linearGradient2083"
       id="linearGradient3375"
       x1="8.4666662"
       y1="7.9375"
       x2="8.4666662"
       y2="12.170833"
       gradientUnits="userSpaceOnUse"
       gradientTransform="translate(-2.3812497,-2.6458333)" />
    <linearGradient
       inkscape:collect="always"
       id="linearGradient2083">
      <stop
         style="stop-color:#bf910d;stop-opacity:1;"
         offset="0"
         id="stop2079" />
      <stop
         style="stop-color:#a87704;stop-opacity:1"
         offset="1"
         id="stop2081" />
    </linearGradient>
  </defs>
  <path
     id="rect846"
     style="fill:url(#linearGradient7109);fill-opacity:1;stroke-width:2;stroke-linecap:round;stroke-linejoin:round;stroke-dasharray:24, 2"
     d="M 4 5 A 3.0000003 3.0000003 0 0 0 1 8 L 1 36 L 47 36 L 47 13 C 47 11.892 46.107999 11 45 11 L 23 11 L 19 7 C 17.634743 5.6637684 16.662 5 15 5 L 4 5 z "
     transform="scale(0.26458333)" />
  <path
     id="rect1170"
     style="fill:url(#linearGradient6679);fill-opacity:1;stroke-width:2.64576;stroke-linecap:round;stroke-linejoin:round;stroke-dasharray:31.749, 2.64576"
     d="M 21 12 L 16 15 L 5 15 L 4 15 A 3 3 0 0 0 1 18 L 1 19 L 1 41 C 1 42.107999 1.8919997 43 3 43 L 45 43 C 46.107999 43 47 42.107999 47 41 L 47 14 C 47 12.892 46.108003 12 45 12 L 21 12 z "
     transform="scale(0.26458333)" />
  <path
     id="rect1170-75"
     style="opacity:0.3;fill:url(#linearGradient5594);fill-opacity:1;stroke-width:2.64576;stroke-linecap:round;stroke-linejoin:round;stroke-dasharray:31.749, 2.64576"
     d="M 21 12 L 16 15 L 4 15 A 3 3 0 0 0 1 18 L 1 19 A 3 3 0 0 1 4 16 L 16 16 L 21 13 L 45 13 C 46.108006 13 47 13.892 47 15 L 47 14 C 47 12.892 46.108006 12 45 12 L 21 12 z "
     transform="scale(0.26458333)" />
  <path
     id="rect1170-2"
     style="fill:#e4a729;fill-opacity:1;stroke-width:0.700024;stroke-linecap:round;stroke-linejoin:round;stroke-dasharray:8.40026, 0.700024"
     d="m 0.26458333,10.583334 v 0.264584 c 0,0.293158 0.23600831,0.529166 0.52916664,0.529166 H 11.90625 c 0.293158,0 0.529167,-0.236008 0.529167,-0.529166 v -0.264584 c 0,0.293158 -0.236009,0.529167 -0.529167,0.529167 H 0.79374997 c -0.2931583,0 -0.52916664,-0.236009 -0.52916664,-0.529167 z"
     sodipodi:nodetypes="csssscssc" />
  <path
     id="rect1170-75-2"
     style="fill:url(#linearGradient5817);fill-opacity:1;stroke-width:2.64576;stroke-linecap:round;stroke-linejoin:round;stroke-dasharray:31.749, 2.64576"
     d="M 21 11 L 16 14 L 4 14 A 3 3 0 0 0 1 17 L 1 18 A 3 3 0 0 1 4 15 L 16 15 L 21 12 L 45 12 C 46.108003 12 47 12.892 47 14 L 47 13 C 47 11.892 46.108003 11 45 11 L 21 11 z "
     transform="scale(0.26458333)" />
  <path
     id="rect434"
     style="fill:url(#linearGradient3375);fill-opacity:1;stroke-width:0.529167;stroke-linecap:round;stroke-linejoin:round"
     d="m 4.497917,5.2916667 c -1.172632,0 -2.116667,0.944034 -2.116667,2.116667 0,1.172632 0.944035,2.116666 2.116667,2.116666 h 3.7041663 c 1.172633,0 2.1166667,-0.944034 2.1166667,-2.116666 0,-1.172633 -0.9440337,-2.116667 -2.1166667,-2.116667 z M 4.233334,6.3499997 H 4.7625 v 0.79375 h 0.79375 v 0.529167 H 4.7625 v 0.79375 H 4.233334 v -0.79375 h -0.79375 v -0.529167 h 0.79375 z m 4.2333333,0 c 0.2922505,4e-7 0.5291661,0.2369164 0.529166,0.529167 1e-7,0.2922506 -0.2369155,0.5291666 -0.529166,0.529167 -0.2922509,2e-7 -0.5291671,-0.236916 -0.529167,-0.529167 -1e-7,-0.292251 0.2369161,-0.5291672 0.529167,-0.529167 z m -1.0583336,1.058334 c 0.2922504,1e-7 0.5291662,0.2369156 0.5291666,0.529166 2e-7,0.2922508 -0.2369158,0.5291669 -0.5291666,0.529167 -0.2922508,-10e-8 -0.5291668,-0.2369162 -0.5291666,-0.529167 4e-7,-0.2922504 0.2369162,-0.5291659 0.5291666,-0.529166 z"
     sodipodi:nodetypes="ssssssscccccccccccccssssssssss" />
</svg>
