<?xml version="1.0" encoding="UTF-8" standalone="no"?>
<!-- Created with Inkscape (http://www.inkscape.org/) -->

<svg
   width="48"
   height="48"
   viewBox="0 0 12.7 12.7"
   version="1.1"
   id="svg5"
   inkscape:version="1.1.1 (3bf5ae0d25, 2021-09-20, custom)"
   sodipodi:docname="folder-music.svg"
   xmlns:inkscape="http://www.inkscape.org/namespaces/inkscape"
   xmlns:sodipodi="http://sodipodi.sourceforge.net/DTD/sodipodi-0.dtd"
   xmlns:xlink="http://www.w3.org/1999/xlink"
   xmlns="http://www.w3.org/2000/svg"
   xmlns:svg="http://www.w3.org/2000/svg">
  <sodipodi:namedview
     id="namedview7"
     pagecolor="#ffffff"
     bordercolor="#666666"
     borderopacity="1.0"
     inkscape:pageshadow="2"
     inkscape:pageopacity="0.0"
     inkscape:pagecheckerboard="0"
     inkscape:document-units="px"
     showgrid="false"
     units="px"
     height="64px"
     inkscape:zoom="11.387366"
     inkscape:cx="20.461273"
     inkscape:cy="26.388895"
     inkscape:window-width="1920"
     inkscape:window-height="996"
     inkscape:window-x="0"
     inkscape:window-y="0"
     inkscape:window-maximized="1"
     inkscape:current-layer="svg5"
     showguides="true" />
  <defs
     id="defs2">
    <linearGradient
       inkscape:collect="always"
       id="linearGradient845">
      <stop
         style="stop-color:#7f4947;stop-opacity:1"
         offset="0"
         id="stop6086" />
      <stop
         style="stop-color:#4f366f;stop-opacity:1"
         offset="1"
         id="stop6088" />
    </linearGradient>
    <linearGradient
       inkscape:collect="always"
       id="linearGradient12673">
      <stop
         style="stop-color:#ffffff;stop-opacity:1;"
         offset="0"
         id="stop12669" />
      <stop
         style="stop-color:#ffffff;stop-opacity:0;"
         offset="1"
         id="stop12671" />
    </linearGradient>
    <linearGradient
       inkscape:collect="always"
       xlink:href="#linearGradient12673"
       id="linearGradient5594"
       x1="2"
       y1="22"
       x2="47.936607"
       y2="22.007439"
       gradientUnits="userSpaceOnUse"
       gradientTransform="translate(-0.99999998,-5)" />
    <linearGradient
       inkscape:collect="always"
       id="linearGradient11972">
      <stop
         style="stop-color:#f09154;stop-opacity:1"
         offset="0"
         id="stop11968" />
      <stop
         style="stop-color:#9d66af;stop-opacity:1"
         offset="1"
         id="stop11970" />
    </linearGradient>
    <linearGradient
       inkscape:collect="always"
       id="linearGradient4405">
      <stop
         style="stop-color:#bf6413;stop-opacity:1"
         offset="0"
         id="stop4401" />
      <stop
         style="stop-color:#985433;stop-opacity:1"
         offset="1"
         id="stop4403" />
    </linearGradient>
    <linearGradient
       inkscape:collect="always"
       xlink:href="#linearGradient11972"
       id="linearGradient6679"
       x1="17"
       y1="17.5"
       x2="39"
       y2="39.5"
       gradientUnits="userSpaceOnUse" />
    <linearGradient
       inkscape:collect="always"
       xlink:href="#linearGradient4405"
       id="linearGradient7109"
       x1="24.272949"
       y1="7.7161407"
       x2="24.264668"
       y2="14.865067"
       gradientUnits="userSpaceOnUse" />
    <linearGradient
       inkscape:collect="always"
       xlink:href="#linearGradient845"
       id="linearGradient847"
       x1="0.26458333"
       y1="10.980209"
       x2="12.435417"
       y2="10.980209"
       gradientUnits="userSpaceOnUse" />
  </defs>
  <path
     id="rect846"
     style="fill:url(#linearGradient7109);fill-opacity:1;stroke-width:2;stroke-linecap:round;stroke-linejoin:round;stroke-dasharray:24, 2"
     d="M 4 5 A 3.0000003 3.0000003 0 0 0 1 8 L 1 36 L 47 36 L 47 13 C 47 11.892 46.107999 11 45 11 L 23 11 L 19 7 C 17.634743 5.6637684 16.662 5 15 5 L 4 5 z "
     transform="scale(0.26458333)" />
  <path
     id="rect1170"
     style="fill:url(#linearGradient6679);fill-opacity:1;stroke-width:2.64576;stroke-linecap:round;stroke-linejoin:round;stroke-dasharray:31.749, 2.64576"
     d="M 21 12 L 16 15 L 5 15 L 4 15 A 3 3 0 0 0 1 18 L 1 19 L 1 41 C 1 42.107999 1.8919997 43 3 43 L 45 43 C 46.107999 43 47 42.107999 47 41 L 47 14 C 47 12.892 46.108003 12 45 12 L 21 12 z "
     transform="scale(0.26458333)" />
  <path
     id="rect1170-75"
     style="opacity:0.3;fill:url(#linearGradient5594);fill-opacity:1;stroke-width:2.64576;stroke-linecap:round;stroke-linejoin:round;stroke-dasharray:31.749, 2.64576"
     d="M 21 12 L 16 15 L 4 15 A 3 3 0 0 0 1 18 L 1 19 A 3 3 0 0 1 4 16 L 16 16 L 21 13 L 45 13 C 46.108006 13 47 13.892 47 15 L 47 14 C 47 12.892 46.108006 12 45 12 L 21 12 z "
     transform="scale(0.26458333)" />
  <path
     id="rect1170-2"
     style="fill:url(#linearGradient847);fill-opacity:1;stroke-width:0.700024;stroke-linecap:round;stroke-linejoin:round;stroke-dasharray:8.40026, 0.700024"
     d="m 0.26458333,10.583334 v 0.264584 c 0,0.293158 0.23600831,0.529166 0.52916664,0.529166 H 11.90625 c 0.293158,0 0.529167,-0.236008 0.529167,-0.529166 v -0.264584 c 0,0.293158 -0.236009,0.529167 -0.529167,0.529167 H 0.79374997 c -0.2931583,0 -0.52916664,-0.236009 -0.52916664,-0.529167 z"
     sodipodi:nodetypes="csssscssc" />
  <path
     id="path862"
     style="fill:#ffffff;fill-opacity:1;stroke-width:3;stroke-linecap:round;stroke-linejoin:round"
     d="M 25.232422 16 C 24.512124 16.017444 24 16.566015 24 17.431641 L 24 18 L 24 19.431641 L 24 29.529297 A 5.9999999 5.9999999 0 0 0 20 28 A 5.9999999 5.9999999 0 0 0 14 34 A 5.9999999 5.9999999 0 0 0 20 40 A 5.9999999 5.9999999 0 0 0 26 34 L 26 22.160156 L 32.121094 24.386719 C 33.162273 24.765677 34 24.178312 34 23.070312 L 34 21.070312 C 34 19.962312 33.162273 18.765677 32.121094 18.386719 L 25.878906 16.115234 C 25.651148 16.032337 25.434105 15.995116 25.232422 16 z "
     transform="scale(0.26458333)" />
</svg>
