<?xml version="1.0" encoding="UTF-8" standalone="no"?>
<!-- Created with Inkscape (http://www.inkscape.org/) -->

<svg
   width="48"
   height="48"
   viewBox="0 0 12.7 12.7"
   version="1.1"
   id="svg5"
   inkscape:version="1.1.1 (3bf5ae0d25, 2021-09-20, custom)"
   sodipodi:docname="folder-images.svg"
   xmlns:inkscape="http://www.inkscape.org/namespaces/inkscape"
   xmlns:sodipodi="http://sodipodi.sourceforge.net/DTD/sodipodi-0.dtd"
   xmlns:xlink="http://www.w3.org/1999/xlink"
   xmlns="http://www.w3.org/2000/svg"
   xmlns:svg="http://www.w3.org/2000/svg">
  <sodipodi:namedview
     id="namedview7"
     pagecolor="#ffffff"
     bordercolor="#666666"
     borderopacity="1.0"
     inkscape:pageshadow="2"
     inkscape:pageopacity="0.0"
     inkscape:pagecheckerboard="0"
     inkscape:document-units="px"
     showgrid="false"
     units="px"
     height="64px"
     inkscape:zoom="1"
     inkscape:cx="24"
     inkscape:cy="23.5"
     inkscape:window-width="1920"
     inkscape:window-height="996"
     inkscape:window-x="0"
     inkscape:window-y="0"
     inkscape:window-maximized="1"
     inkscape:current-layer="svg5"
     showguides="true" />
  <defs
     id="defs2">
    <linearGradient
       inkscape:collect="always"
       id="linearGradient2040">
      <stop
         style="stop-color:#0a5ba8;stop-opacity:1"
         offset="0"
         id="stop2036" />
      <stop
         style="stop-color:#104a5c;stop-opacity:1"
         offset="1"
         id="stop2038" />
    </linearGradient>
    <linearGradient
       inkscape:collect="always"
       id="linearGradient4405">
      <stop
         style="stop-color:#0272cb;stop-opacity:1"
         offset="0"
         id="stop4401" />
      <stop
         style="stop-color:#0768ba;stop-opacity:1"
         offset="1"
         id="stop4403" />
    </linearGradient>
    <linearGradient
       inkscape:collect="always"
       id="linearGradient12673">
      <stop
         style="stop-color:#ffffff;stop-opacity:1;"
         offset="0"
         id="stop12669" />
      <stop
         style="stop-color:#ffffff;stop-opacity:0;"
         offset="1"
         id="stop12671" />
    </linearGradient>
    <linearGradient
       inkscape:collect="always"
       id="linearGradient11972">
      <stop
         style="stop-color:#27aee9;stop-opacity:1"
         offset="0"
         id="stop11968" />
      <stop
         style="stop-color:#0669bc;stop-opacity:1"
         offset="1"
         id="stop11970" />
    </linearGradient>
    <linearGradient
       inkscape:collect="always"
       xlink:href="#linearGradient11972"
       id="linearGradient11974"
       x1="5.2916665"
       y1="5.5562496"
       x2="11.110105"
       y2="11.929696"
       gradientUnits="userSpaceOnUse"
       gradientTransform="matrix(3.7795276,0,0,3.7795276,-0.99999998,-4.0000002)" />
    <linearGradient
       inkscape:collect="always"
       xlink:href="#linearGradient4405"
       id="linearGradient4407"
       x1="32"
       y1="10.5"
       x2="32"
       y2="18.5"
       gradientUnits="userSpaceOnUse"
       gradientTransform="translate(-0.99999999,-4.0000003)" />
    <linearGradient
       inkscape:collect="always"
       xlink:href="#linearGradient12673"
       id="linearGradient5594"
       x1="2"
       y1="22"
       x2="47.936607"
       y2="22.007439"
       gradientUnits="userSpaceOnUse"
       gradientTransform="translate(-0.99999998,-5)" />
    <linearGradient
       inkscape:collect="always"
       xlink:href="#linearGradient2040"
       id="linearGradient2042"
       x1="2"
       y1="53"
       x2="48"
       y2="53"
       gradientUnits="userSpaceOnUse"
       gradientTransform="matrix(0.26458334,0,0,0.26458334,-0.26458335,-3.4395828)" />
    <linearGradient
       inkscape:collect="always"
       xlink:href="#linearGradient1757"
       id="linearGradient1759"
       x1="9.0413561"
       y1="8.1824369"
       x2="9.0562162"
       y2="12.905893"
       gradientUnits="userSpaceOnUse"
       gradientTransform="matrix(3.7795276,0,0,3.7795276,-8.4999999,-6.9997788)" />
    <linearGradient
       inkscape:collect="always"
       id="linearGradient1757">
      <stop
         style="stop-color:#ffffff;stop-opacity:1;"
         offset="0"
         id="stop1753" />
      <stop
         style="stop-color:#cde0fc;stop-opacity:1"
         offset="1"
         id="stop1755" />
    </linearGradient>
  </defs>
  <path
     id="rect846"
     style="fill:url(#linearGradient4407);fill-opacity:1;stroke-width:2;stroke-linecap:round;stroke-linejoin:round;stroke-dasharray:24, 2"
     d="M 4 5 A 3.0000003 3.0000003 0 0 0 1 8 L 1 36 L 47 36 L 47 13 C 47 11.892 46.107999 11 45 11 L 23 11 L 19 7 C 17.634743 5.6637684 16.662 5 15 5 L 4 5 z "
     transform="scale(0.26458333)" />
  <path
     id="rect1170"
     style="fill:url(#linearGradient11974);fill-opacity:1;stroke-width:2.64576;stroke-linecap:round;stroke-linejoin:round;stroke-dasharray:31.749, 2.64576"
     d="M 21 12 L 16 15 L 5 15 L 4 15 A 3 3 0 0 0 1 18 L 1 19 L 1 41 C 1 42.107999 1.8919997 43 3 43 L 45 43 C 46.107999 43 47 42.107999 47 41 L 47 14 C 47 12.892 46.108003 12 45 12 L 21 12 z "
     transform="scale(0.26458333)" />
  <path
     id="rect1170-75"
     style="opacity:0.3;fill:url(#linearGradient5594);fill-opacity:1;stroke-width:2.64576;stroke-linecap:round;stroke-linejoin:round;stroke-dasharray:31.749, 2.64576"
     d="M 21 12 L 16 15 L 4 15 A 3 3 0 0 0 1 18 L 1 19 A 3 3 0 0 1 4 16 L 16 16 L 21 13 L 45 13 C 46.108006 13 47 13.892 47 15 L 47 14 C 47 12.892 46.108006 12 45 12 L 21 12 z "
     transform="scale(0.26458333)" />
  <path
     id="rect1170-2"
     style="fill:url(#linearGradient2042);fill-opacity:1;stroke-width:0.700024;stroke-linecap:round;stroke-linejoin:round;stroke-dasharray:8.40026, 0.700024"
     d="m 0.26458333,10.583334 v 0.264584 c 0,0.293158 0.23600831,0.529166 0.52916664,0.529166 H 11.90625 c 0.293158,0 0.529167,-0.236008 0.529167,-0.529166 v -0.264584 c 0,0.293158 -0.236009,0.529167 -0.529167,0.529167 H 0.79374997 c -0.2931583,0 -0.52916664,-0.236009 -0.52916664,-0.529167 z"
     sodipodi:nodetypes="csssscssc" />
  <path
     id="rect1377"
     style="fill:url(#linearGradient1759);fill-opacity:1;stroke-width:2.05208;stroke-linecap:round;stroke-linejoin:round"
     d="m 24,24 c -0.630166,0.01217 -1.003925,0.421753 -1.771484,1.263672 L 6.0000001,42.000001 H 42.000001 L 25.769531,25.263672 C 25.001973,24.421753 24.59294,23.988549 24,24 Z"
     transform="scale(0.26458333)"
     sodipodi:nodetypes="sccccs" />
  <circle
     style="fill:#feffff;fill-opacity:1;stroke-width:0.529168;stroke-linecap:round;stroke-linejoin:round"
     id="path1863"
     cx="9.921875"
     cy="5.1593752"
     r="0.66145831" />
</svg>
