<?xml version="1.0" encoding="UTF-8" standalone="no"?>
<!-- Created with Inkscape (http://www.inkscape.org/) -->

<svg
   width="48"
   height="48"
   viewBox="0 0 12.7 12.7"
   version="1.1"
   id="svg5"
   inkscape:version="1.1.1 (3bf5ae0d25, 2021-09-20, custom)"
   sodipodi:docname="folder-text.svg"
   xmlns:inkscape="http://www.inkscape.org/namespaces/inkscape"
   xmlns:sodipodi="http://sodipodi.sourceforge.net/DTD/sodipodi-0.dtd"
   xmlns:xlink="http://www.w3.org/1999/xlink"
   xmlns="http://www.w3.org/2000/svg"
   xmlns:svg="http://www.w3.org/2000/svg">
  <sodipodi:namedview
     id="namedview7"
     pagecolor="#ffffff"
     bordercolor="#666666"
     borderopacity="1.0"
     inkscape:pageshadow="2"
     inkscape:pageopacity="0.0"
     inkscape:pagecheckerboard="0"
     inkscape:document-units="px"
     showgrid="false"
     units="px"
     height="64px"
     inkscape:zoom="16.104167"
     inkscape:cx="23.968952"
     inkscape:cy="24"
     inkscape:window-width="1920"
     inkscape:window-height="996"
     inkscape:window-x="0"
     inkscape:window-y="0"
     inkscape:window-maximized="1"
     inkscape:current-layer="svg5"
     showguides="true" />
  <defs
     id="defs2">
    <linearGradient
       inkscape:collect="always"
       id="linearGradient845">
      <stop
         style="stop-color:#445865;stop-opacity:1"
         offset="0"
         id="stop6086" />
      <stop
         style="stop-color:#303f4c;stop-opacity:1"
         offset="1"
         id="stop6088" />
    </linearGradient>
    <linearGradient
       inkscape:collect="always"
       id="linearGradient12673">
      <stop
         style="stop-color:#ffffff;stop-opacity:1;"
         offset="0"
         id="stop12669" />
      <stop
         style="stop-color:#ffffff;stop-opacity:0;"
         offset="1"
         id="stop12671" />
    </linearGradient>
    <linearGradient
       inkscape:collect="always"
       xlink:href="#linearGradient12673"
       id="linearGradient5594"
       x1="2"
       y1="22"
       x2="47.936607"
       y2="22.007439"
       gradientUnits="userSpaceOnUse"
       gradientTransform="translate(-0.99999998,-5)" />
    <linearGradient
       inkscape:collect="always"
       id="linearGradient11972">
      <stop
         style="stop-color:#b3c4d5;stop-opacity:1"
         offset="0"
         id="stop11968" />
      <stop
         style="stop-color:#6986a3;stop-opacity:1"
         offset="1"
         id="stop11970" />
    </linearGradient>
    <linearGradient
       inkscape:collect="always"
       id="linearGradient4405">
      <stop
         style="stop-color:#637e8d;stop-opacity:1"
         offset="0"
         id="stop4401" />
      <stop
         style="stop-color:#516775;stop-opacity:1"
         offset="1"
         id="stop4403" />
    </linearGradient>
    <linearGradient
       inkscape:collect="always"
       xlink:href="#linearGradient11972"
       id="linearGradient6679"
       x1="17"
       y1="17.5"
       x2="39"
       y2="39.5"
       gradientUnits="userSpaceOnUse" />
    <linearGradient
       inkscape:collect="always"
       xlink:href="#linearGradient4405"
       id="linearGradient7109"
       x1="24.272949"
       y1="7.7161407"
       x2="24.264668"
       y2="14.865067"
       gradientUnits="userSpaceOnUse" />
    <linearGradient
       inkscape:collect="always"
       xlink:href="#linearGradient845"
       id="linearGradient847"
       x1="0.26458333"
       y1="10.980209"
       x2="12.435417"
       y2="10.980209"
       gradientUnits="userSpaceOnUse" />
  </defs>
  <path
     id="rect846"
     style="fill:url(#linearGradient7109);fill-opacity:1;stroke-width:2;stroke-linecap:round;stroke-linejoin:round;stroke-dasharray:24, 2"
     d="M 4 5 A 3.0000003 3.0000003 0 0 0 1 8 L 1 36 L 47 36 L 47 13 C 47 11.892 46.107999 11 45 11 L 23 11 L 19 7 C 17.634743 5.6637684 16.662 5 15 5 L 4 5 z "
     transform="scale(0.26458333)" />
  <path
     id="rect1170"
     style="fill:url(#linearGradient6679);fill-opacity:1;stroke-width:2.64576;stroke-linecap:round;stroke-linejoin:round;stroke-dasharray:31.749, 2.64576"
     d="M 21 12 L 16 15 L 5 15 L 4 15 A 3 3 0 0 0 1 18 L 1 19 L 1 41 C 1 42.107999 1.8919997 43 3 43 L 45 43 C 46.107999 43 47 42.107999 47 41 L 47 14 C 47 12.892 46.108003 12 45 12 L 21 12 z "
     transform="scale(0.26458333)" />
  <path
     id="rect1170-75"
     style="opacity:0.3;fill:url(#linearGradient5594);fill-opacity:1;stroke-width:2.64576;stroke-linecap:round;stroke-linejoin:round;stroke-dasharray:31.749, 2.64576"
     d="M 21 12 L 16 15 L 4 15 A 3 3 0 0 0 1 18 L 1 19 A 3 3 0 0 1 4 16 L 16 16 L 21 13 L 45 13 C 46.108006 13 47 13.892 47 15 L 47 14 C 47 12.892 46.108006 12 45 12 L 21 12 z "
     transform="scale(0.26458333)" />
  <path
     id="rect1170-2"
     style="fill:url(#linearGradient847);fill-opacity:1;stroke-width:0.700024;stroke-linecap:round;stroke-linejoin:round;stroke-dasharray:8.40026, 0.700024"
     d="m 0.26458333,10.583334 v 0.264584 c 0,0.293158 0.23600831,0.529166 0.52916664,0.529166 H 11.90625 c 0.293158,0 0.529167,-0.236008 0.529167,-0.529166 v -0.264584 c 0,0.293158 -0.236009,0.529167 -0.529167,0.529167 H 0.79374997 c -0.2931583,0 -0.52916664,-0.236009 -0.52916664,-0.529167 z"
     sodipodi:nodetypes="csssscssc" />
  <path
     id="rect870"
     style="fill:#ffffff;fill-opacity:1;stroke-width:0.79375;stroke-linecap:round;stroke-linejoin:round"
     d="m 3.4395835,5.2916667 c -0.1465792,0 -0.2645834,0.1180042 -0.2645834,0.2645833 0,0.1465792 0.1180042,0.2645834 0.2645834,0.2645834 H 9.2604167 C 9.4069959,5.8208334 9.525,5.7028292 9.525,5.55625 9.525,5.4096709 9.4069959,5.2916667 9.2604167,5.2916667 Z m 0,1.3229166 c -0.1465792,0 -0.2645834,0.1180042 -0.2645834,0.2645834 0,0.1465791 0.1180042,0.2645833 0.2645834,0.2645833 h 4.2333332 c 0.1465792,0 0.2645834,-0.1180042 0.2645834,-0.2645833 0,-0.1465792 -0.1180042,-0.2645834 -0.2645834,-0.2645834 z m 0,1.3229167 c -0.1465792,0 -0.2645834,0.1180042 -0.2645834,0.2645833 0,0.1465792 0.1180042,0.2645834 0.2645834,0.2645834 H 9.2604167 C 9.4069959,8.4666667 9.525,8.3486625 9.525,8.2020833 9.525,8.0555042 9.4069959,7.9375 9.2604167,7.9375 Z m 0,1.3229166 c -0.1465792,0 -0.2645834,0.1180042 -0.2645834,0.2645834 0,0.1465791 0.1180042,0.2645833 0.2645834,0.2645833 h 2.6458333 c 0.1465791,0 0.2645833,-0.1180042 0.2645833,-0.2645833 0,-0.1465792 -0.1180042,-0.2645834 -0.2645833,-0.2645834 z"
     sodipodi:nodetypes="ssssssssssssssssssssssssssss" />
  <path
     id="rect870-3"
     style="opacity:0.2;fill:#000000;fill-opacity:1;stroke-width:0.79375;stroke-linecap:round;stroke-linejoin:round"
     d="M 3.210657,5.6885417 C 3.188175,5.7274717 3.175,5.7724687 3.175,5.8208334 c 0,0.1465791 0.1180042,0.2645833 0.2645834,0.2645833 h 5.8208332 c 0.1465792,0 0.2645833,-0.1180042 0.2645833,-0.2645833 0,-0.048365 -0.013174,-0.093361 -0.035657,-0.1322917 -0.045654,0.079056 -0.1307121,0.1322917 -0.2289265,0.1322917 H 3.4395835 c -0.098214,0 -0.1832724,-0.053236 -0.2289265,-0.1322917 z m 0,1.3229166 C 3.188175,7.0503883 3.175,7.0953853 3.175,7.14375 c 0,0.1465792 0.1180042,0.2645833 0.2645834,0.2645833 H 7.6729166 C 7.8194958,7.4083333 7.9375,7.2903292 7.9375,7.14375 7.9375,7.095385 7.924326,7.050389 7.901843,7.0114583 7.856189,7.0905143 7.7711309,7.14375 7.6729165,7.14375 h -4.233333 c -0.098214,0 -0.1832724,-0.053236 -0.2289265,-0.1322917 z m 0,1.3229167 C 3.188175,8.373305 3.175,8.418302 3.175,8.4666667 3.175,8.6132458 3.2930042,8.73125 3.4395834,8.73125 h 5.8208332 c 0.1465789,0 0.2645833,-0.1180042 0.2645833,-0.2645833 0,-0.048365 -0.013174,-0.093361 -0.035657,-0.1322917 C 9.4436889,8.413431 9.3586308,8.4666667 9.2604164,8.4666667 H 3.4395835 c -0.098214,0 -0.1832724,-0.053236 -0.2289265,-0.1322917 z m 0,1.3229166 C 3.188175,9.6962216 3.175,9.7412186 3.175,9.7895833 c 0,0.1465792 0.1180042,0.2645837 0.2645834,0.2645837 H 6.0854167 C 6.2319956,10.054167 6.35,9.9361625 6.35,9.7895833 6.35,9.7412183 6.336826,9.6962223 6.314343,9.6572916 6.268689,9.7363476 6.1836309,9.7895833 6.0854166,9.7895833 H 3.4395835 c -0.098214,0 -0.1832724,-0.053236 -0.2289265,-0.1322917 z"
     sodipodi:nodetypes="csssscssccsssscssccsssscssccsssscssc" />
</svg>
