<?xml version="1.0" encoding="UTF-8" standalone="no"?>
<!-- Created with Inkscape (http://www.inkscape.org/) -->

<svg
   width="48"
   height="48"
   viewBox="0 0 12.7 12.7"
   version="1.1"
   id="svg5"
   inkscape:version="1.1.1 (3bf5ae0d25, 2021-09-20, custom)"
   sodipodi:docname="user-desktop.svg"
   xmlns:inkscape="http://www.inkscape.org/namespaces/inkscape"
   xmlns:sodipodi="http://sodipodi.sourceforge.net/DTD/sodipodi-0.dtd"
   xmlns:xlink="http://www.w3.org/1999/xlink"
   xmlns="http://www.w3.org/2000/svg"
   xmlns:svg="http://www.w3.org/2000/svg">
  <sodipodi:namedview
     id="namedview7"
     pagecolor="#ffffff"
     bordercolor="#666666"
     borderopacity="1.0"
     inkscape:pageshadow="2"
     inkscape:pageopacity="0.0"
     inkscape:pagecheckerboard="0"
     inkscape:document-units="px"
     showgrid="false"
     units="px"
     height="64px"
     inkscape:zoom="10.171052"
     inkscape:cx="8.8486422"
     inkscape:cy="26.693404"
     inkscape:window-width="1920"
     inkscape:window-height="996"
     inkscape:window-x="0"
     inkscape:window-y="0"
     inkscape:window-maximized="1"
     inkscape:current-layer="svg5"
     showguides="true" />
  <defs
     id="defs2">
    <linearGradient
       inkscape:collect="always"
       id="linearGradient2040">
      <stop
         style="stop-color:#0a5bb5;stop-opacity:1;"
         offset="0"
         id="stop2036" />
      <stop
         style="stop-color:#104a8d;stop-opacity:1"
         offset="1"
         id="stop2038" />
    </linearGradient>
    <linearGradient
       inkscape:collect="always"
       id="linearGradient1591">
      <stop
         style="stop-color:#0f4f68;stop-opacity:1;"
         offset="0"
         id="stop1587" />
      <stop
         style="stop-color:#03355e;stop-opacity:1"
         offset="1"
         id="stop1589" />
    </linearGradient>
    <linearGradient
       inkscape:collect="always"
       id="linearGradient4405">
      <stop
         style="stop-color:#0272cd;stop-opacity:1"
         offset="0"
         id="stop4401" />
      <stop
         style="stop-color:#056abe;stop-opacity:1"
         offset="1"
         id="stop4403" />
    </linearGradient>
    <linearGradient
       inkscape:collect="always"
       id="linearGradient12673">
      <stop
         style="stop-color:#ffffff;stop-opacity:1;"
         offset="0"
         id="stop12669" />
      <stop
         style="stop-color:#ffffff;stop-opacity:0;"
         offset="1"
         id="stop12671" />
    </linearGradient>
    <linearGradient
       inkscape:collect="always"
       id="linearGradient11972">
      <stop
         style="stop-color:#37d4e1;stop-opacity:1"
         offset="0"
         id="stop11968" />
      <stop
         style="stop-color:#086ebd;stop-opacity:1"
         offset="1"
         id="stop11970" />
    </linearGradient>
    <linearGradient
       inkscape:collect="always"
       xlink:href="#linearGradient11972"
       id="linearGradient11974"
       x1="5.2916665"
       y1="5.5562496"
       x2="11.110105"
       y2="11.929696"
       gradientUnits="userSpaceOnUse"
       gradientTransform="matrix(3.7795276,0,0,3.7795276,-0.99999998,-4.0000002)" />
    <linearGradient
       inkscape:collect="always"
       xlink:href="#linearGradient4405"
       id="linearGradient4407"
       x1="32"
       y1="10.5"
       x2="32"
       y2="18.5"
       gradientUnits="userSpaceOnUse"
       gradientTransform="matrix(0.26458334,0,0,0.26458334,-0.26458333,-1.0583334)" />
    <linearGradient
       inkscape:collect="always"
       xlink:href="#linearGradient12673"
       id="linearGradient5594"
       x1="2"
       y1="22"
       x2="47.936607"
       y2="22.007439"
       gradientUnits="userSpaceOnUse"
       gradientTransform="translate(-0.99999998,-5)" />
    <linearGradient
       inkscape:collect="always"
       xlink:href="#linearGradient1591"
       id="linearGradient1593"
       x1="0.42437294"
       y1="13.168303"
       x2="12.520005"
       y2="13.168303"
       gradientUnits="userSpaceOnUse"
       gradientTransform="matrix(1.0062172,0,0,1.0491025,-0.16242799,-4.2898989)" />
    <linearGradient
       inkscape:collect="always"
       xlink:href="#linearGradient2040"
       id="linearGradient2042"
       x1="2"
       y1="53"
       x2="48"
       y2="53"
       gradientUnits="userSpaceOnUse"
       gradientTransform="matrix(0.26458334,0,0,0.26458334,-0.26458335,-3.4395828)" />
  </defs>
  <path
     id="rect846"
     style="fill:url(#linearGradient4407);fill-opacity:1;stroke-width:0.529167;stroke-linecap:round;stroke-linejoin:round;stroke-dasharray:6.35, 0.529167"
     d="m 1.0583334,1.3229167 c -0.43973754,0 -0.79375005,0.3540125 -0.79375005,0.79375 V 9.5250002 H 12.435417 V 3.4395834 c 0,-0.2931583 -0.236009,-0.5291667 -0.529167,-0.5291667 H 6.0854169 L 5.0270835,1.8520834 C 4.6658592,1.4985388 4.4084877,1.3229167 3.9687501,1.3229167 Z"
     sodipodi:nodetypes="scccccccss" />
  <path
     id="rect1170"
     style="fill:url(#linearGradient11974);fill-opacity:1;stroke-width:2.64576;stroke-linecap:round;stroke-linejoin:round;stroke-dasharray:31.749, 2.64576"
     d="M 21 12 L 16 15 L 5 15 L 4 15 A 3 3 0 0 0 1 18 L 1 19 L 1 41 C 1 42.107999 1.8919997 43 3 43 L 45 43 C 46.107999 43 47 42.107999 47 41 L 47 14 C 47 12.892 46.108003 12 45 12 L 21 12 z "
     transform="scale(0.26458333)" />
  <path
     id="rect1170-75"
     style="opacity:0.3;fill:url(#linearGradient5594);fill-opacity:1;stroke-width:2.64576;stroke-linecap:round;stroke-linejoin:round;stroke-dasharray:31.749, 2.64576"
     d="M 21 12 L 16 15 L 4 15 A 3 3 0 0 0 1 18 L 1 19 A 3 3 0 0 1 4 16 L 16 16 L 21 13 L 45 13 C 46.108006 13 47 13.892 47 15 L 47 14 C 47 12.892 46.108006 12 45 12 L 21 12 z "
     transform="scale(0.26458333)" />
  <rect
     style="fill:#e9fefe;fill-opacity:1;stroke-width:0.529167;stroke-linecap:round;stroke-linejoin:round"
     id="rect863"
     width="1.0583334"
     height="1.0583334"
     x="1.0583333"
     y="5.2916665"
     ry="0.26458335" />
  <rect
     style="fill:#e9fefe;fill-opacity:1;stroke-width:0.529167;stroke-linecap:round;stroke-linejoin:round"
     id="rect967"
     width="1.0583333"
     height="1.0583334"
     x="1.0583334"
     y="6.8791661"
     ry="0.26458335" />
  <path
     id="rect1409"
     style="fill:url(#linearGradient1593);stroke-width:0.543685;stroke-linecap:round;stroke-linejoin:round"
     d="m 12.435417,9.5250002 v 1.3229168 c 0,0.293158 -0.236009,0.529167 -0.529167,0.529167 H 0.79375007 c -0.29315837,0 -0.52916672,-0.236009 -0.52916672,-0.529167 V 9.5250002 Z"
     sodipodi:nodetypes="csssscc" />
  <circle
     style="fill:#e9fefe;fill-opacity:1;stroke-width:0.529167;stroke-linecap:round;stroke-linejoin:round"
     id="path1093"
     cx="9.7895861"
     cy="10.31875"
     r="0.26458335" />
  <circle
     style="fill:#e9fefe;fill-opacity:1;stroke-width:0.529167;stroke-linecap:round;stroke-linejoin:round"
     id="path1197"
     cx="10.847919"
     cy="10.31875"
     r="0.26458335" />
  <path
     id="rect1170-2"
     style="fill:url(#linearGradient2042);fill-opacity:1;stroke-width:0.700024;stroke-linecap:round;stroke-linejoin:round;stroke-dasharray:8.40026, 0.700024"
     d="m 0.26458333,10.583334 v 0.264584 c 0,0.293158 0.23600831,0.529166 0.52916664,0.529166 H 11.90625 c 0.293158,0 0.529167,-0.236008 0.529167,-0.529166 v -0.264584 c 0,0.293158 -0.236009,0.529167 -0.529167,0.529167 H 0.79374997 c -0.2931583,0 -0.52916664,-0.236009 -0.52916664,-0.529167 z"
     sodipodi:nodetypes="csssscssc" />
</svg>
