<?xml version="1.0" encoding="UTF-8" standalone="no"?>
<!-- Created with Inkscape (http://www.inkscape.org/) -->

<svg
   width="22"
   height="22"
   viewBox="0 0 5.8208332 5.8208335"
   version="1.1"
   id="svg5"
   inkscape:version="1.2.1 (9c6d41e410, 2022-07-14)"
   sodipodi:docname="emblem-added.svg"
   xmlns:inkscape="http://www.inkscape.org/namespaces/inkscape"
   xmlns:sodipodi="http://sodipodi.sourceforge.net/DTD/sodipodi-0.dtd"
   xmlns="http://www.w3.org/2000/svg"
   xmlns:svg="http://www.w3.org/2000/svg">
  <sodipodi:namedview
     id="namedview7"
     pagecolor="#ffffff"
     bordercolor="#666666"
     borderopacity="1.0"
     inkscape:pageshadow="2"
     inkscape:pageopacity="0.0"
     inkscape:pagecheckerboard="0"
     inkscape:document-units="px"
     showgrid="false"
     units="px"
     height="22px"
     showguides="false"
     inkscape:zoom="44.111113"
     inkscape:cx="10.994962"
     inkscape:cy="10.994962"
     inkscape:window-width="1920"
     inkscape:window-height="1006"
     inkscape:window-x="0"
     inkscape:window-y="0"
     inkscape:window-maximized="1"
     inkscape:current-layer="svg5"
     inkscape:showpageshadow="2"
     inkscape:deskcolor="#d1d1d1" />
  <defs
     id="defs2" />
  <rect
     style="fill:#4d4d4d;fill-opacity:1;stroke-width:0.106969;stroke-linejoin:round"
     id="rect858"
     height="4.7624998"
     x="0.52916664"
     y="0.52916664"
     width="4.7624998"
     ry="0.52916664" />
  <path
     id="rect964"
     style="fill:#7e7e7e;stroke-width:0.264583;stroke-linejoin:round;fill-opacity:1"
     d="m 1.0583333,0.79374999 h 3.7041665 c 0.1465791,0 0.2645833,0.11800416 0.2645833,0.26458331 v 3.7041665 c 0,0.1465791 -0.1180042,0.2645833 -0.2645833,0.2645833 H 1.0583333 c -0.14657915,0 -0.26458331,-0.1180042 -0.26458331,-0.2645833 V 1.0583333 c 0,-0.14657915 0.11800416,-0.26458331 0.26458331,-0.26458331 z" />
  <path
     id="rect1751"
     style="fill:#ffffff;stroke-width:0.529167;stroke-linecap:round;stroke-linejoin:round"
     d="M 2.9104167 1.3229167 C 2.7638377 1.3229167 2.6458333 1.440921 2.6458333 1.5875 L 2.6458333 2.6458333 L 1.5875 2.6458333 C 1.440921 2.6458333 1.3229167 2.7638377 1.3229167 2.9104167 C 1.3229167 3.0569957 1.440921 3.175 1.5875 3.175 L 2.6458333 3.175 L 2.6458333 4.2333333 C 2.6458333 4.3799124 2.7638377 4.4979167 2.9104167 4.4979167 C 3.0569957 4.4979167 3.175 4.3799124 3.175 4.2333333 L 3.175 3.175 L 4.2333333 3.175 C 4.3799124 3.175 4.4979167 3.0569957 4.4979167 2.9104167 C 4.4979167 2.7638377 4.3799124 2.6458333 4.2333333 2.6458333 L 3.175 2.6458333 L 3.175 1.5875 C 3.175 1.440921 3.0569957 1.3229167 2.9104167 1.3229167 z " />
</svg>
