<?xml version="1.0" encoding="UTF-8" standalone="no"?>
<!-- Created with Inkscape (http://www.inkscape.org/) -->

<svg
   width="24"
   height="24"
   viewBox="0 0 6.3499999 6.3500002"
   version="1.1"
   id="svg5"
   inkscape:version="1.1.2 (0a00cf5339, 2022-02-04, custom)"
   sodipodi:docname="media-optical.svg"
   xmlns:inkscape="http://www.inkscape.org/namespaces/inkscape"
   xmlns:sodipodi="http://sodipodi.sourceforge.net/DTD/sodipodi-0.dtd"
   xmlns:xlink="http://www.w3.org/1999/xlink"
   xmlns="http://www.w3.org/2000/svg"
   xmlns:svg="http://www.w3.org/2000/svg">
  <sodipodi:namedview
     id="namedview7"
     pagecolor="#ffffff"
     bordercolor="#666666"
     borderopacity="1.0"
     inkscape:pageshadow="2"
     inkscape:pageopacity="0.0"
     inkscape:pagecheckerboard="0"
     inkscape:document-units="px"
     showgrid="false"
     units="px"
     inkscape:zoom="24.875"
     inkscape:cx="5.5879397"
     inkscape:cy="9.3467337"
     inkscape:window-width="1920"
     inkscape:window-height="1004"
     inkscape:window-x="0"
     inkscape:window-y="24"
     inkscape:window-maximized="1"
     inkscape:current-layer="svg5" />
  <defs
     id="defs2">
    <linearGradient
       inkscape:collect="always"
       xlink:href="#linearGradient162116"
       id="linearGradient162118"
       x1="96.408417"
       y1="238.0069"
       x2="127.77626"
       y2="238.0069"
       gradientUnits="userSpaceOnUse"
       gradientTransform="matrix(0.70135501,0,0,0.6767176,-66.616519,-149.06336)" />
    <linearGradient
       inkscape:collect="always"
       id="linearGradient162116">
      <stop
         style="stop-color:#e3edee;stop-opacity:1;"
         offset="0"
         id="stop162112" />
      <stop
         style="stop-color:#c9cdce;stop-opacity:1"
         offset="1"
         id="stop162114" />
    </linearGradient>
    <linearGradient
       inkscape:collect="always"
       xlink:href="#linearGradient219586"
       id="linearGradient219588"
       x1="112.09232"
       y1="238.0069"
       x2="112.17286"
       y2="254.33937"
       gradientUnits="userSpaceOnUse"
       gradientTransform="matrix(0.70135501,0,0,0.6767176,-66.616512,-149.06335)" />
    <linearGradient
       inkscape:collect="always"
       id="linearGradient219586">
      <stop
         style="stop-color:#b9bfbf;stop-opacity:1;"
         offset="0"
         id="stop219582" />
      <stop
         style="stop-color:#aaacab;stop-opacity:1"
         offset="1"
         id="stop219584" />
    </linearGradient>
    <linearGradient
       inkscape:collect="always"
       xlink:href="#linearGradient2496"
       id="linearGradient2498"
       x1="16.424316"
       y1="54.63533"
       x2="32.331596"
       y2="38.452602"
       gradientUnits="userSpaceOnUse"
       gradientTransform="matrix(0.68749991,0,0,0.68749991,0.3124998,-15.499902)" />
    <linearGradient
       inkscape:collect="always"
       id="linearGradient2496">
      <stop
         style="stop-color:#ffffff;stop-opacity:0.5"
         offset="0"
         id="stop2492" />
      <stop
         style="stop-color:#ffffff;stop-opacity:0"
         offset="0.44999999"
         id="stop3080" />
      <stop
         style="stop-color:#ffffff;stop-opacity:1"
         offset="0.5"
         id="stop2756" />
      <stop
         style="stop-color:#ffffff;stop-opacity:0"
         offset="0.55000001"
         id="stop3014" />
      <stop
         style="stop-color:#ffffff;stop-opacity:0.2"
         offset="1"
         id="stop2494" />
    </linearGradient>
    <linearGradient
       inkscape:collect="always"
       xlink:href="#linearGradient11941"
       id="linearGradient11943"
       x1="5.1081543"
       y1="42.191895"
       x2="7.4692383"
       y2="33.279785"
       gradientUnits="userSpaceOnUse"
       gradientTransform="matrix(0.68749991,0,0,0.68749991,0.3124998,-15.499902)" />
    <linearGradient
       inkscape:collect="always"
       id="linearGradient11941">
      <stop
         style="stop-color:#f89af4;stop-opacity:0"
         offset="0"
         id="stop11937" />
      <stop
         style="stop-color:#f89af4;stop-opacity:0"
         offset="0.40000001"
         id="stop12523" />
      <stop
         style="stop-color:#f89af4;stop-opacity:1"
         offset="0.5"
         id="stop12201" />
      <stop
         style="stop-color:#f89af4;stop-opacity:0"
         offset="0.60000002"
         id="stop12781" />
      <stop
         style="stop-color:#f89af4;stop-opacity:0;"
         offset="1"
         id="stop11939" />
    </linearGradient>
    <linearGradient
       inkscape:collect="always"
       xlink:href="#linearGradient16450"
       id="linearGradient16452"
       x1="17.605227"
       y1="29.40974"
       x2="27.150551"
       y2="39.243584"
       gradientUnits="userSpaceOnUse"
       gradientTransform="matrix(0.68749991,0,0,0.68749991,0.3124998,-15.499902)" />
    <linearGradient
       inkscape:collect="always"
       id="linearGradient16450">
      <stop
         style="stop-color:#6fef7e;stop-opacity:0"
         offset="0"
         id="stop16446" />
      <stop
         style="stop-color:#6fef7e;stop-opacity:0"
         offset="0.44792882"
         id="stop17132" />
      <stop
         style="stop-color:#6fef7e;stop-opacity:1"
         offset="0.5"
         id="stop16680" />
      <stop
         style="stop-color:#6fef7e;stop-opacity:0"
         offset="0.55000001"
         id="stop16938" />
      <stop
         style="stop-color:#6fef7e;stop-opacity:0;"
         offset="1"
         id="stop16448" />
    </linearGradient>
  </defs>
  <path
     id="path151229"
     style="fill:url(#linearGradient162118);fill-opacity:1;stroke-width:0.911395;stroke-linecap:round;stroke-linejoin:round"
     d="M 11.859375,1 C 5.8497656,1.0761216 0.99999989,5.9723298 1,12 c 6e-7,6.075132 4.924868,11 11,11 6.075132,0 11,-4.924868 11,-11 C 23,5.9248676 18.075132,1.0000002 12,1 11.952537,1 11.906694,0.9994006 11.859375,1 Z M 12,8 a 4.0000002,4.0000002 0 0 1 4,4 4.0000002,4.0000002 0 0 1 -4,4 4.0000002,4.0000002 0 0 1 -4,-4 4.0000002,4.0000002 0 0 1 4,-4 z"
     transform="scale(0.26458334)" />
  <path
     id="path151229-3-3"
     style="fill:url(#linearGradient219588);fill-opacity:1;stroke-width:0.911395;stroke-linecap:round;stroke-linejoin:round"
     d="M 15.986328,12.25 A 4.0000002,4.0000002 0 0 1 12,16 4.0000002,4.0000002 0 0 1 9.1757812,14.824219 l -0.087891,0.08789 -4.859375,4.859375 C 6.2888517,21.834923 9.0840537,22.996711 12,23 17.807049,22.9976 22.612425,18.483244 22.974609,12.6875 Z"
     transform="scale(0.26458334)" />
  <path
     id="rect2336"
     style="opacity:0.5;fill:url(#linearGradient2498);fill-opacity:1;stroke-width:1.375;stroke-linecap:round;stroke-linejoin:round"
     d="M 9.3359375,1.3378906 C 5.1697333,2.3811742 1.9913454,5.7538107 1.1972656,9.9746094 l 6.6875,1.3378906 0.064453,0.01172 0.1074218,0.01758 A 4.0000002,4.0000002 0 0 1 11.029297,8.1210938 L 11.001953,8.0136719 Z M 15.929688,12.738281 a 4.0000002,4.0000002 0 0 1 -2.958985,3.140625 l 0.02734,0.107422 1.666015,6.675781 c 4.166206,-1.043282 7.344592,-4.41592 8.138672,-8.636718 z"
     transform="scale(0.26458334)" />
  <path
     id="path151229-7"
     style="opacity:0.5;fill:url(#linearGradient11943);fill-opacity:1;stroke-width:0.911395;stroke-linecap:round;stroke-linejoin:round"
     d="M 2.2832031,6.8554688 C 1.4422844,8.4398784 1.0020749,10.206262 1,12 c 0.00207,1.793738 0.4422846,3.560118 1.2832031,5.144531 2.0614642,-1.090636 4.122492,-2.182116 6.1835938,-3.273437 A 4.0000002,4.0000002 0 0 1 8,12 4.0000002,4.0000002 0 0 1 8.4667969,10.128906 C 6.2863788,8.9745927 4.3444681,7.9464817 2.2832031,6.8554688 Z"
     transform="scale(0.26458334)" />
  <path
     id="path151229-1"
     style="opacity:0.5;fill:url(#linearGradient16452);fill-opacity:1;stroke-width:0.911395;stroke-linecap:round;stroke-linejoin:round"
     d="m 15.28125,1.5 -2.087891,6.6816406 a 4.0000002,4.0000002 0 0 1 2.550782,2.4140624 l 6.55664,-2.4570311 C 21.110034,4.9617058 18.519596,2.5119832 15.28125,1.5 Z"
     transform="scale(0.26458334)" />
</svg>
