<?xml version="1.0" encoding="UTF-8" standalone="no"?>
<svg
   width="16"
   height="16"
   version="1.1"
   id="svg6"
   sodipodi:docname="system-users-symbolic.svg"
   inkscape:version="1.1.1 (3bf5ae0d25, 2021-09-20, custom)"
   xmlns:inkscape="http://www.inkscape.org/namespaces/inkscape"
   xmlns:sodipodi="http://sodipodi.sourceforge.net/DTD/sodipodi-0.dtd"
   xmlns="http://www.w3.org/2000/svg"
   xmlns:svg="http://www.w3.org/2000/svg">
  <defs
     id="defs10" />
  <sodipodi:namedview
     id="namedview8"
     pagecolor="#ffffff"
     bordercolor="#666666"
     borderopacity="1.0"
     inkscape:pageshadow="2"
     inkscape:pageopacity="0.0"
     inkscape:pagecheckerboard="0"
     showgrid="false"
     inkscape:zoom="49.6875"
     inkscape:cx="8"
     inkscape:cy="8"
     inkscape:window-width="1920"
     inkscape:window-height="1009"
     inkscape:window-x="0"
     inkscape:window-y="0"
     inkscape:window-maximized="1"
     inkscape:current-layer="svg6" />
  <path
     id="path849"
     style="fill:#dedede;stroke-width:6;stroke-linecap:round;stroke-linejoin:round;fill-opacity:1"
     d="M 8 1 A 3 3 0 0 0 5 4 A 3 3 0 0 0 8 7 A 3 3 0 0 0 11 4 A 3 3 0 0 0 8 1 z M 8 2 A 2 2 0 0 1 10 4 A 2 2 0 0 1 8 6 A 2 2 0 0 1 6 4 A 2 2 0 0 1 8 2 z M 4 9 C 2.892 9 2 9.892 2 11 L 2 12 C 2 13.662 5.364969 15.0053 8 15 C 10.958518 15.003541 13.98381 13.697725 14 12 L 14 11 C 14 9.892 13.108 9 12 9 L 4 9 z M 4 10 L 12 10 C 12.554 10 13 10.446 13 11 L 13 12 C 12.986508 13.131814 10.465432 14.0023 8 14 C 5.8041408 14.003533 3 13.107997 3 12 L 3 11 C 3 10.446 3.446 10 4 10 z " />
</svg>
