<?xml version="1.0" encoding="UTF-8" standalone="no"?>
<!-- Created with Inkscape (http://www.inkscape.org/) -->

<svg
   width="24"
   height="24"
   viewBox="0 0 6.3499999 6.3500003"
   version="1.1"
   id="svg69118"
   inkscape:version="1.1.2 (0a00cf5339, 2022-02-04)"
   sodipodi:docname="applications-internet.svg"
   xmlns:inkscape="http://www.inkscape.org/namespaces/inkscape"
   xmlns:sodipodi="http://sodipodi.sourceforge.net/DTD/sodipodi-0.dtd"
   xmlns:xlink="http://www.w3.org/1999/xlink"
   xmlns="http://www.w3.org/2000/svg"
   xmlns:svg="http://www.w3.org/2000/svg">
  <sodipodi:namedview
     id="namedview69120"
     pagecolor="#ffffff"
     bordercolor="#666666"
     borderopacity="1.0"
     inkscape:pageshadow="2"
     inkscape:pageopacity="0.0"
     inkscape:pagecheckerboard="0"
     inkscape:document-units="px"
     showgrid="false"
     units="px"
     inkscape:zoom="24.15625"
     inkscape:cx="9.1901682"
     inkscape:cy="9.6662354"
     inkscape:window-width="1920"
     inkscape:window-height="1011"
     inkscape:window-x="0"
     inkscape:window-y="0"
     inkscape:window-maximized="1"
     inkscape:current-layer="svg69118" />
  <defs
     id="defs69115">
    <linearGradient
       inkscape:collect="always"
       xlink:href="#linearGradient984"
       id="linearGradient7450"
       x1="2.9104171"
       y1="3.1750004"
       x2="14.552084"
       y2="12.700001"
       gradientUnits="userSpaceOnUse"
       gradientTransform="matrix(0.34482758,0,0,0.34482758,0.25545978,0.25545973)" />
    <linearGradient
       inkscape:collect="always"
       id="linearGradient984">
      <stop
         style="stop-color:#26b4eb;stop-opacity:1;"
         offset="0"
         id="stop980" />
      <stop
         style="stop-color:#15b393;stop-opacity:1"
         offset="1"
         id="stop982" />
    </linearGradient>
  </defs>
  <circle
     style="fill:url(#linearGradient7450);fill-opacity:1;stroke-width:0.388497;stroke-linecap:round;stroke-linejoin:round"
     id="path7362"
     cx="3.175"
     cy="3.175"
     r="2.6458333" />
  <path
     id="path69248"
     style="opacity:0.2;fill:#ffffff;fill-opacity:1;stroke-width:0.302281;stroke-linecap:round;stroke-linejoin:round"
     d="m 3.1750003,0.5291669 c -1.4612534,-2e-8 -2.64583342,1.18458 -2.6458334,2.6458334 0,1.4612536 1.18458,2.6458334 2.6458334,2.6458334 1.4612533,0 2.6458334,-1.1845801 2.6458334,-2.6458334 0,-1.4612534 -1.1845798,-2.6458334 -2.6458334,-2.6458334 z m 0,0.26458334 c 0.042508,0 0.084647,0.001418 0.1266074,0.003617 0.041986,0.002201 0.083675,0.00547 0.1250569,0.009818 -0.041381,-0.004405 -0.083075,-0.007574 -0.1250569,-0.009818 -0.041983,-0.002245 -0.084084,-0.003617 -0.1266074,-0.003617 z m 0,0 A 0.79374999,2.3812503 0 0 1 3.8840011,2.116667 H 2.4659997 A 0.79374999,2.3812503 0 0 1 3.1750003,0.79375024 Z m 0.252181,0.0134358 c 0.082239,0.00866 0.163353,0.0219419 0.2428793,0.0387573 -0.079514,-0.0168127 -0.1606341,-0.0299837 -0.2428793,-0.0387573 z m -0.5622396,0.007235 c -0.021049,0.00274 -0.042175,0.0055 -0.063045,0.008785 0.020862,-0.003283 0.042007,-0.006048 0.063045,-0.008785 z M 2.6789066,0.84594343 A 1.0583335,2.6458334 0 0 0 2.2060672,2.116667 H 1.0417971 C 1.3605953,1.4753848 1.9595631,0.99836534 2.6789066,0.84594343 Z m 0.9921875,0 C 4.3904377,0.99836537 4.9894052,1.4753848 5.3082035,2.116667 H 4.1444501 A 1.0583335,2.6458334 0 0 0 3.6710941,0.84594343 Z M 1.0381798,2.1233849 c -0.039995,0.081157 -0.0752365,0.1650975 -0.10593672,0.2511475 0.0307188,-0.086042 0.065922,-0.1699998 0.10593672,-0.2511475 z m 4.2736411,0 c 0.040015,0.081148 0.075218,0.1651058 0.1059365,0.2511475 -0.0307,-0.08605 -0.065942,-0.1699905 -0.1059365,-0.2511475 z M 0.92965927,2.3812503 c 1.849e-5,-5.23e-5 4.9741e-4,5.24e-5 5.1593e-4,0 h 1.2376514 a 1.0583335,2.6458334 0 0 0 -0.05116,0.79375 1.0583335,2.6458334 0 0 0 0.05116,0.7937501 H 0.93017602 c -1.852e-5,-5.24e-5 -4.9741e-4,5.23e-5 -5.1593e-4,0 C 0.8418412,3.7203971 0.79375027,3.4534296 0.79375024,3.1750003 c 0,-0.2784293 0.048091,-0.5453967 0.13590903,-0.79375 z m 1.49861663,0 h 1.493449 a 0.79374999,2.3812503 0 0 1 0.047025,0.79375 0.79374999,2.3812503 0 0 1 -0.047025,0.7937501 h -1.493449 a 0.79374999,2.3812503 0 0 1 -0.047026,-0.7937501 0.79374999,2.3812503 0 0 1 0.047026,-0.79375 z m 1.7559651,0 h 1.2355836 c 1.85e-5,5.24e-5 5.027e-4,-5.23e-5 5.292e-4,0 0.087806,0.2483533 0.1358966,0.5153207 0.1358966,0.79375 0,0.2784293 -0.048091,0.5453968 -0.1359091,0.7937501 -1.85e-5,5.23e-5 -5.027e-4,-5.24e-5 -5.291e-4,0 H 4.184241 A 1.0583335,2.6458334 0 0 0 4.2333337,3.1750003 1.0583335,2.6458334 0 0 0 4.184241,2.3812503 Z M 0.93224308,3.9754684 C 0.96294328,4.0615184 0.99818488,4.145459 1.0381798,4.2266157 0.99816513,4.145468 0.96296192,4.0615101 0.93224308,3.9754684 Z m 4.48551432,0 C 5.3870388,4.0615101 5.3518354,4.145468 5.3118209,4.2266157 5.3518158,4.145459 5.3870575,4.0615183 5.4177574,3.9754684 Z M 1.0417971,4.2333337 H 2.2060672 A 1.0583335,2.6458334 0 0 0 2.6789066,5.5040571 C 1.9595631,5.3516354 1.3605953,4.874616 1.0417971,4.2333337 Z m 1.4242026,0 H 3.8840011 A 0.79374999,2.3812503 0 0 1 3.1750003,5.5562504 c 0.042523,0 0.084625,-0.00138 0.1266074,-0.00362 0.041982,-0.00225 0.083676,-0.00541 0.1250569,-0.00982 -0.041382,0.00435 -0.083071,0.00762 -0.1250569,0.00982 -0.04196,0.0022 -0.084099,0.00362 -0.1266074,0.00362 A 0.79374999,2.3812503 0 0 1 2.4659997,4.2333337 Z m 1.6784504,0 H 5.3082035 C 4.9894052,4.874616 4.3904375,5.3516351 3.6710941,5.5040571 A 1.0583335,2.6458334 0 0 0 4.1444501,4.2333337 Z M 3.6700606,5.5040571 c -0.079526,0.016814 -0.1606407,0.030097 -0.2428793,0.038758 0.082245,-0.00877 0.1633652,-0.021945 0.2428793,-0.038758 z m -0.8681641,0.022738 c 0.02087,0.00329 0.041997,0.00605 0.063045,0.00878 -0.021039,-0.00274 -0.042183,-0.0055 -0.063045,-0.00878 z" />
</svg>
