<?xml version="1.0" encoding="UTF-8" standalone="no"?>
<!-- Created with Inkscape (http://www.inkscape.org/) -->

<svg
   width="24"
   height="24"
   viewBox="0 0 6.3499999 6.3500003"
   version="1.1"
   id="svg5"
   inkscape:version="1.1.2 (0a00cf5339, 2022-02-04)"
   sodipodi:docname="colors.svg"
   xmlns:inkscape="http://www.inkscape.org/namespaces/inkscape"
   xmlns:sodipodi="http://sodipodi.sourceforge.net/DTD/sodipodi-0.dtd"
   xmlns="http://www.w3.org/2000/svg"
   xmlns:svg="http://www.w3.org/2000/svg">
  <sodipodi:namedview
     id="namedview7"
     pagecolor="#ffffff"
     bordercolor="#666666"
     borderopacity="1.0"
     inkscape:pageshadow="2"
     inkscape:pageopacity="0.0"
     inkscape:pagecheckerboard="0"
     inkscape:document-units="px"
     showgrid="false"
     units="px"
     height="64px"
     inkscape:zoom="6.0390625"
     inkscape:cx="30.468305"
     inkscape:cy="22.10608"
     inkscape:window-width="1920"
     inkscape:window-height="1011"
     inkscape:window-x="0"
     inkscape:window-y="0"
     inkscape:window-maximized="1"
     inkscape:current-layer="svg5" />
  <defs
     id="defs2">
    <linearGradient
       id="linearGradient45680"
       x1="-102.06"
       x2="-102.06"
       y1="1.3231"
       y2="19.157"
       gradientTransform="matrix(0.30598649,0,0,0.29630133,34.823155,0.13714061)"
       gradientUnits="userSpaceOnUse">
      <stop
         stop-color="#ffdc23"
         offset="0"
         id="stop22" />
      <stop
         stop-color="#e6628a"
         offset=".31552"
         id="stop24" />
      <stop
         stop-color="#7b5fc1"
         offset=".55428"
         id="stop26" />
      <stop
         stop-color="#1e9be1"
         offset=".79721"
         id="stop28" />
      <stop
         stop-color="#0082dc"
         offset="1"
         id="stop30" />
    </linearGradient>
    <linearGradient
       id="linearGradient1954"
       x1="-109.09"
       x2="-101.26"
       y1="11.122"
       y2="18.440001"
       gradientTransform="matrix(0.30598649,0,0,0.29630133,34.823155,0.13713728)"
       gradientUnits="userSpaceOnUse">
      <stop
         stop-color="#64d2eb"
         offset="0"
         id="stop2" />
      <stop
         stop-color="#0082dc"
         offset="1"
         id="stop4" />
    </linearGradient>
    <linearGradient
       id="linearGradient1431"
       x1="-107.04"
       x2="-99.660004"
       y1="6.9531002"
       y2="17.895"
       gradientTransform="matrix(0.30598649,0,0,0.29630133,34.823155,0.13712394)"
       gradientUnits="userSpaceOnUse">
      <stop
         stop-color="#a578e1"
         offset="0"
         id="stop7" />
      <stop
         stop-color="#5046a0"
         offset="1"
         id="stop9" />
    </linearGradient>
    <linearGradient
       id="linearGradient1439"
       x1="-105"
       x2="-97.016998"
       y1="4.2921"
       y2="13.799"
       gradientTransform="matrix(0.30598649,0,0,0.29630133,34.823155,0.13723061)"
       gradientUnits="userSpaceOnUse">
      <stop
         stop-color="#eb82aa"
         offset="0"
         id="stop12" />
      <stop
         stop-color="#dc2850"
         offset="1"
         id="stop14" />
    </linearGradient>
    <linearGradient
       id="linearGradient1447"
       x1="-102.1"
       x2="-98.566002"
       y1="1.4752001"
       y2="7.8610001"
       gradientTransform="matrix(0.30598649,0,0,0.29630133,34.819712,0.13719061)"
       gradientUnits="userSpaceOnUse">
      <stop
         stop-color="#ffdc23"
         offset="0"
         id="stop17" />
      <stop
         stop-color="#f0a019"
         offset="1"
         id="stop19" />
    </linearGradient>
  </defs>
  <path
     d="M 3.595281,0.52917013 C 3.534169,0.52870343 3.4830365,0.57567753 3.4830365,0.57567753 3.2184097,0.79894433 2.995876,1.0111177 2.7917794,1.2171543 v 1.722e-4 C 2.5453007,1.4661004 2.3514004,1.6961674 2.1802126,1.9166708 1.7730522,2.4411458 1.5799368,2.8598857 1.4665459,3.1916909 h -1.778e-4 c 1.48e-5,5.47e-5 -1.33e-5,1.173e-4 0,1.723e-4 2.2e-5,5.68e-5 -1.93e-5,1.154e-4 0,1.722e-4 -0.1501826,0.4396736 -0.1433736,0.7100444 -0.1433736,0.7100444 -3.1e-6,1.05965 0.8870231,1.9187635 1.9812753,1.9187303 0.1738039,0 0.3398557,-0.02765 0.4998627,-0.068728 C 4.3452687,5.6131601 4.7951487,5.2608748 5.0510869,4.7898673 V 4.7895341 C 5.1958926,4.5230198 5.2857173,4.2241583 5.2857173,3.9020865 h 0.00409 c 0,0 0.045873,-0.4740407 -0.323749,-1.0974172 C 4.9104466,2.7349382 4.8129662,2.6019861 4.7410316,2.5116647 4.6860194,2.5003611 4.6320401,2.4889379 4.5788008,2.4773875 4.631923,2.4889122 4.6859712,2.5002168 4.7408526,2.5114947 4.2814376,2.109755 3.7811618,1.8690512 3.6694577,0.76743393 3.6506694,0.63442513 3.6917724,0.52920683 3.5952786,0.52920683 Z M 3.1290499,1.9090918 c 0.00903,0.00698 0.018298,0.013874 0.02775,0.020843 0.00945,0.00697 0.019114,0.014064 0.028995,0.021015 -0.00988,-0.00695 -0.019543,-0.013874 -0.028995,-0.020843 -0.00945,-0.00697 -0.018718,-0.014031 -0.02775,-0.021015 z m 0.3509814,0.2127334 c 0.022844,0.011142 0.04622,0.022217 0.070441,0.033245 -0.024261,-0.011046 -0.047563,-0.022083 -0.070441,-0.033245 z m 0.1608091,0.072691 c 0.026652,0.011181 0.054176,0.022214 0.082362,0.033245 -0.028145,-0.011014 -0.055749,-0.022081 -0.082362,-0.033245 z m -1.451361,0.075275 c 0.00432,0.019455 0.00944,0.038997 0.01512,0.058394 -0.0057,-0.019452 -0.010792,-0.038884 -0.01512,-0.058394 z m 2.2698125,0.1806962 c 0.019732,0.00455 0.039621,0.00911 0.05977,0.013608 -0.020157,-0.0045 -0.040024,-0.00906 -0.05977,-0.013608 z M 2.7236623,2.9668952 c 0.025709,0.01701 0.052589,0.033827 0.080403,0.050471 -0.027818,-0.016644 -0.054695,-0.033461 -0.080403,-0.050471 z m 0.1670329,0.099908 c 0.029984,0.016254 0.061005,0.032225 0.093212,0.048057 -0.032206,-0.015835 -0.063229,-0.031804 -0.093212,-0.048057 z m 0.4144582,0.1844831 c 0.03926,0.014433 0.079759,0.028628 0.121494,0.042547 -0.041735,-0.013918 -0.082234,-0.028114 -0.121494,-0.042547 z m 0.1849984,0.063218 c 0.042995,0.013651 0.087153,0.027039 0.1327023,0.040134 -0.045549,-0.013096 -0.089707,-0.026484 -0.1327023,-0.040134 z m 0.2734081,0.078548 c 0.024079,0.00626 0.048368,0.012325 0.073112,0.018431 0.024744,0.00611 0.049057,0.012504 0.072933,0.018948 -0.023872,-0.00644 -0.048196,-0.012669 -0.072933,-0.018776 -0.024742,-0.00611 -0.049033,-0.012346 -0.073112,-0.018603 z m 0.5861277,0.196196 c 0.036245,0.017259 0.070916,0.035001 0.1040622,0.053397 -0.03315,-0.018398 -0.067814,-0.03614 -0.1040622,-0.053397 z m 0.3977629,0.2661343 c 0.022964,0.022007 0.044506,0.044427 0.064751,0.067351 -0.020243,-0.022925 -0.041787,-0.045348 -0.064751,-0.067351 z m 0.1469332,0.1734593 c 0.016325,0.024218 0.031364,0.048874 0.045184,0.073898 -0.013821,-0.025025 -0.028857,-0.049678 -0.045184,-0.073898 z M 4.0236426,5.5901666 c -0.021975,0.019771 -0.044919,0.039194 -0.068485,0.058051 0.023568,-0.018857 0.04651,-0.03828 0.068485,-0.058051 z m -0.1042411,0.085955 c -0.012089,0.00918 -0.024311,0.018286 -0.036644,0.027218 -0.00644,0.00466 -0.012879,0.00883 -0.019389,0.012921 0.00651,-0.00409 0.012954,-0.00843 0.019389,-0.013089 0.012332,-0.00893 0.024553,-0.017861 0.036644,-0.027043 z"
     fill="url(#linearGradient45680)"
     id="path35"
     style="fill:url(#linearGradient45680);stroke-width:0.301105" />
  <path
     d="M 1.4665356,3.1917254 C 1.3162257,3.631599 1.3229623,3.9021698 1.3229623,3.9021698 c -3e-6,1.05965 0.8871264,1.9186971 1.9813787,1.9186635 0.1738039,0 0.3398281,-0.027671 0.4998283,-0.068747 0.026406,-0.017479 0.052843,-0.030207 0.078582,-0.048841 0.098668,-0.071441 0.1904993,-0.151189 0.25979,-0.2365636 0.034646,-0.042684 0.063601,-0.086741 0.085067,-0.1319854 0.021468,-0.045241 0.035454,-0.091541 0.039845,-0.1387221 0.00439,-0.047181 -8.21e-4,-0.095272 -0.017392,-0.1437762 C 4.233493,5.0036973 4.2054655,4.9547166 4.1640437,4.9055158 4.1226205,4.8563148 4.0678665,4.8068976 3.997698,4.7576065 3.9275326,4.7083158 3.84198,4.6592219 3.7391744,4.6104644 3.6363688,4.5617037 3.5162551,4.5132262 3.3769021,4.4656187 3.2375698,4.418008 3.0789741,4.371204 2.8992425,4.3253633 2.7194902,4.2795226 2.5596587,4.2258883 2.4177619,4.1655108 2.2758547,4.105133 2.151889,4.0379819 2.0442676,3.9653876 1.93666,3.8927965 1.8453621,3.8146787 1.7685049,3.732194 1.6916511,3.6497059 1.629207,3.5628812 1.5795512,3.4728165 1.5298954,3.3827517 1.4929728,3.2894636 1.4669728,3.1941487 c -2.203e-4,-8e-4 -2.571e-4,-0.00163 -6.179e-4,-0.00247 z"
     fill="url(#linearGradient1954)"
     id="path37"
     style="fill:url(#linearGradient1954);stroke-width:0.301105" />
  <path
     d="m 1.4663291,3.1917254 c 2.172e-4,8e-4 2.54e-4,0.00163 6.178e-4,0.00247 0.02601,0.095318 0.062923,0.1886063 0.1125785,0.2786677 0.049656,0.090062 0.1120964,0.1768895 0.1889537,0.2593774 0.076857,0.082488 0.168155,0.1606025 0.2757627,0.2331936 0.1076076,0.072591 0.2315699,0.1397457 0.3734943,0.2001232 0.1419037,0.060378 0.3017214,0.1140118 0.4814806,0.1598525 0.1797557,0.045841 0.3383582,0.092645 0.4776596,0.1402557 0.1393323,0.047611 0.259446,0.096088 0.3622722,0.1448454 0.1028056,0.048761 0.188358,0.097855 0.2585234,0.1471425 0.070169,0.049291 0.1249229,0.098705 0.1663443,0.1479089 0.041422,0.049204 0.069449,0.098181 0.086018,0.1466822 0.016568,0.048501 0.021789,0.096595 0.017389,0.1437757 -0.00439,0.047181 -0.018379,0.093481 -0.039845,0.1387221 -0.021468,0.045241 -0.05042,0.089298 -0.085067,0.1319854 -0.069294,0.085371 -0.1611222,0.1651228 -0.25979,0.2365639 -0.025736,0.018636 -0.052179,0.031368 -0.078582,0.048841 0.5411363,-0.1389221 0.990982,-0.4913078 1.2469202,-0.962315 9.643e-4,-0.00792 0.00437,-0.0163 0.00522,-0.024193 C 5.0690373,4.6468505 5.0675551,4.5311787 5.0490016,4.4201837 5.030448,4.3091883 4.9948637,4.2028769 4.939583,4.1027851 4.8843044,4.0026848 4.8093166,3.9088501 4.7118948,3.8227387 4.614473,3.7366205 4.494614,3.6582727 4.3496223,3.5892383 4.2046515,3.5202039 4.0346101,3.4604796 3.8367132,3.4116222 3.6387784,3.3627647 3.4621518,3.3090439 3.305112,3.251313 3.1480792,3.1935821 3.0106161,3.1318277 2.8906883,3.0668101 2.7707536,3.0017924 2.6683645,2.9335746 2.5817345,2.8628602 2.4950941,2.7921491 2.4241612,2.7190312 2.367008,2.6442134 2.3098547,2.5693989 2.2664468,2.492791 2.2349769,2.4154598 2.2035104,2.3381286 2.1840027,2.2600607 2.1744157,2.1818061 2.1648357,2.1035521 2.1652957,2.025127 2.1737961,1.9475424 c 0.00124,-0.010393 0.00489,-0.020414 0.00633,-0.030777 -0.4071604,0.5244749 -0.600207,0.9431815 -0.7135978,1.2749867 z"
     fill="url(#linearGradient1431)"
     id="path39"
     style="fill:url(#linearGradient1431);stroke-width:0.301105" />
  <path
     d="m 2.1801335,1.9167386 c -0.00151,0.010364 -0.0052,0.020384 -0.00633,0.030777 -0.00847,0.077588 -0.00896,0.1560124 6.179e-4,0.2342637 0.00958,0.078254 0.029098,0.1563224 0.060561,0.2336536 0.031466,0.077331 0.074878,0.1539391 0.132031,0.2287536 0.057153,0.074815 0.1280862,0.1479357 0.2147265,0.2186468 0.086644,0.070711 0.1890329,0.1389289 0.3089538,0.2039499 0.1199347,0.065018 0.2573979,0.1267687 0.4144238,0.1845029 0.1570328,0.057731 0.3336767,0.1114551 0.5316011,0.1603092 0.197935,0.048857 0.3679864,0.1085784 0.5129435,0.1776161 0.1449779,0.069034 0.26483,0.1473824 0.3622725,0.2335003 0.097418,0.086118 0.1724097,0.1799496 0.2276936,0.2800479 0.055284,0.1000982 0.090864,0.2064232 0.1094186,0.3173982 0.018554,0.110985 0.020032,0.2266571 0.00727,0.3454389 -8.572e-4,0.00789 -0.00424,0.016275 -0.00522,0.024193 C 5.1959505,4.5232423 5.2857473,4.2243144 5.2857473,3.9021758 h 0.00411 c 0,0 0.045797,-0.4741408 -0.323825,-1.0975172 C 4.9104248,2.7349282 4.8129619,2.6019161 4.7410305,2.5115947 4.5669616,2.4758274 4.3993676,2.4390868 4.2533883,2.3996662 4.0798251,2.3527988 3.9252776,2.3036514 3.7880522,2.2526772 3.6508163,2.2017031 3.5308575,2.1489056 3.4262963,2.0949681 3.321711,2.0410306 3.2324751,1.9858164 3.1568606,1.9300655 3.0812426,1.8743146 3.0191841,1.8180571 2.968857,1.7616395 2.9185265,1.705222 2.8799413,1.6486911 2.8512149,1.5927535 2.8224817,1.5368159 2.8036727,1.4813951 2.7928706,1.4270809 2.7820686,1.3727701 2.7793147,1.3195326 2.7827433,1.2679951 c 0.00124,-0.01758 0.00664,-0.033667 0.00918,-0.050834 C 2.5453627,1.4660048 2.3513729,1.6961685 2.1801507,1.9167386 Z"
     fill="url(#linearGradient1439)"
     id="path41"
     style="fill:url(#linearGradient1439);stroke-width:0.301105" />
  <path
     d="m 2.7918379,1.2171276 c -0.00244,0.01717 -0.00802,0.03325 -0.00918,0.050834 -0.00344,0.051538 -6.178e-4,0.104775 0.010128,0.1590859 0.010802,0.054311 0.029618,0.1097317 0.058344,0.1656692 0.028733,0.055938 0.067311,0.1124685 0.117642,0.168886 0.050327,0.056418 0.1123856,0.1126752 0.1880036,0.168426 0.075614,0.055751 0.1648504,0.1109684 0.2694357,0.1649026 0.1045818,0.053938 0.2245406,0.1067317 0.3617558,0.1577092 0.1372258,0.050977 0.2917801,0.1001215 0.4653362,0.146989 0.1459725,0.039417 0.3135732,0.076161 0.4876421,0.1119284 C 4.2815294,2.1098183 3.7810815,1.8690479 3.6693774,0.76743053 3.6505891,0.63442183 3.6917148,0.52918343 3.5952224,0.52918343 3.5341105,0.52871683 3.4831156,0.57573083 3.4831156,0.57573083 3.2184889,0.79899773 2.9959207,1.0111043 2.7918242,1.2171409 Z"
     fill="url(#linearGradient1447)"
     id="path43"
     style="fill:url(#linearGradient1447);stroke-width:0.301105" />
</svg>
