<?xml version="1.0" encoding="UTF-8" standalone="no"?>
<!-- Created with Inkscape (http://www.inkscape.org/) -->

<svg
   width="24"
   height="24"
   viewBox="0 0 6.3499997 6.3500003"
   version="1.1"
   id="svg5"
   inkscape:version="1.1.2 (0a00cf5339, 2022-02-04)"
   sodipodi:docname="libreoffice-draw.svg"
   xmlns:inkscape="http://www.inkscape.org/namespaces/inkscape"
   xmlns:sodipodi="http://sodipodi.sourceforge.net/DTD/sodipodi-0.dtd"
   xmlns:xlink="http://www.w3.org/1999/xlink"
   xmlns="http://www.w3.org/2000/svg"
   xmlns:svg="http://www.w3.org/2000/svg">
  <sodipodi:namedview
     id="namedview7"
     pagecolor="#ffffff"
     bordercolor="#666666"
     borderopacity="1.0"
     inkscape:pageshadow="2"
     inkscape:pageopacity="0.0"
     inkscape:pagecheckerboard="0"
     inkscape:document-units="px"
     showgrid="false"
     units="px"
     height="64px"
     inkscape:zoom="9.0795455"
     inkscape:cx="-20.81602"
     inkscape:cy="9.0863579"
     inkscape:window-width="1920"
     inkscape:window-height="1011"
     inkscape:window-x="0"
     inkscape:window-y="0"
     inkscape:window-maximized="1"
     inkscape:current-layer="svg5" />
  <defs
     id="defs2">
    <linearGradient
       inkscape:collect="always"
       id="linearGradient3723">
      <stop
         style="stop-color:#e37a00;stop-opacity:1"
         offset="0"
         id="stop3719" />
      <stop
         style="stop-color:#ff9316;stop-opacity:1"
         offset="1"
         id="stop3721" />
    </linearGradient>
    <linearGradient
       inkscape:collect="always"
       id="linearGradient3529">
      <stop
         style="stop-color:#f6be00;stop-opacity:1"
         offset="0"
         id="stop3525" />
      <stop
         style="stop-color:#ff9c0a;stop-opacity:1"
         offset="1"
         id="stop3527" />
    </linearGradient>
    <linearGradient
       inkscape:collect="always"
       xlink:href="#linearGradient3723"
       id="linearGradient3212"
       x1="3.447747"
       y1="0.64509004"
       x2="2.7696862"
       y2="0"
       gradientUnits="userSpaceOnUse"
       gradientTransform="matrix(2.000069,0,0,2.000069,-1.472708,0.52916667)" />
    <linearGradient
       inkscape:collect="always"
       xlink:href="#linearGradient3529"
       id="linearGradient3634"
       x1="2"
       y1="-1.3228346e-07"
       x2="10.000097"
       y2="10.000122"
       gradientUnits="userSpaceOnUse"
       gradientTransform="matrix(0.52917312,0,0,0.52917312,-1.2853636e-5,0.52916667)" />
  </defs>
  <path
     id="rect857"
     style="fill:url(#linearGradient3634);fill-opacity:1;stroke-width:0.529172"
     d="m 1.5875064,0.52916667 c -0.2931619,0 -0.5291731,0.23601124 -0.5291731,0.52917313 v 4.2334498 c 0,0.293161 0.2360112,0.529173 0.5291731,0.529173 h 3.1749872 c 0.293162,0 0.5291731,-0.236012 0.5291731,-0.529173 V 3.0427083 C 5.2977551,2.7005267 5.0977337,2.471433 4.9216588,2.275664 L 3.5452724,0.89917444 C 3.3495038,0.72310034 3.1992114,0.53259009 2.778125,0.52916667 Z"
     sodipodi:nodetypes="ssssssccccs" />
  <path
     d="M 4.0668556,0.52916667 C 3.7458205,0.53180876 3.8304202,0.82929175 3.9076861,0.8991827 l 1.1290125,1.13435 c 0.06989,0.077267 0.3673761,0.1618676 0.3700162,-0.1591695 V 1.0583516 c 0,-0.29316843 -0.2360164,-0.52918493 -0.5291851,-0.52918493 z"
     style="fill:url(#linearGradient3212);fill-opacity:1;stroke-width:0.529184"
     id="path3058"
     sodipodi:nodetypes="ccccssc" />
  <path
     d="m 1.5874999,0.79375001 c -0.1465792,0 -0.2645833,0.1180041 -0.2645833,0.26458329 v 4.2333333 c 0,0.1465789 0.1180041,0.2645829 0.2645833,0.2645829 h 3.175 c 0.1465792,0 0.2645833,-0.118004 0.2645833,-0.2645829 V 3.042605 C 5.0253732,2.8320644 4.930118,2.6909033 4.8420816,2.59302 L 3.2278132,0.97875161 C 3.1299298,0.89071561 2.988769,0.79546171 2.7782284,0.79375001 Z"
     style="fill:#ffffff;fill-opacity:1;stroke-width:0.0700042"
     id="path863"
     sodipodi:nodetypes="ssssssccccs" />
  <circle
     style="fill:#f6be00;fill-opacity:1;stroke-width:0.198437;stroke-linecap:round;stroke-linejoin:round"
     id="path12373"
     cx="2.9104166"
     cy="3.4395833"
     r="1.0583333" />
  <path
     id="path14298"
     style="color:#000000;fill:#e37a00;fill-opacity:1;stroke:none;stroke-width:0.220312;stroke-linecap:round;stroke-linejoin:round;-inkscape-stroke:none"
     d="m 3.4395832,3.1750003 a 0.11138889,0.10895695 0 0 0 -0.09702,0.055005 l -0.9467113,1.634191 a 0.11138889,0.10895695 0 0 0 0.09702,0.1628871 H 4.3864027 A 0.11138889,0.10895695 0 0 0 4.4833147,4.864196 L 3.5366037,3.2300052 a 0.11138889,0.10895695 0 0 0 -0.097021,-0.055005 z" />
</svg>
