<?xml version="1.0" encoding="UTF-8" standalone="no"?>
<!-- Created with Inkscape (http://www.inkscape.org/) -->

<svg
   width="24"
   height="24"
   viewBox="0 0 6.3499997 6.3500003"
   version="1.1"
   id="svg5"
   inkscape:version="1.1.2 (0a00cf5339, 2022-02-04)"
   sodipodi:docname="libreoffice-writer.svg"
   xmlns:inkscape="http://www.inkscape.org/namespaces/inkscape"
   xmlns:sodipodi="http://sodipodi.sourceforge.net/DTD/sodipodi-0.dtd"
   xmlns:xlink="http://www.w3.org/1999/xlink"
   xmlns="http://www.w3.org/2000/svg"
   xmlns:svg="http://www.w3.org/2000/svg">
  <sodipodi:namedview
     id="namedview7"
     pagecolor="#ffffff"
     bordercolor="#666666"
     borderopacity="1.0"
     inkscape:pageshadow="2"
     inkscape:pageopacity="0.0"
     inkscape:pagecheckerboard="0"
     inkscape:document-units="px"
     showgrid="false"
     units="px"
     height="64px"
     inkscape:zoom="12.840416"
     inkscape:cx="2.8815265"
     inkscape:cy="8.2941236"
     inkscape:window-width="1920"
     inkscape:window-height="1011"
     inkscape:window-x="0"
     inkscape:window-y="0"
     inkscape:window-maximized="1"
     inkscape:current-layer="svg5" />
  <defs
     id="defs2">
    <linearGradient
       inkscape:collect="always"
       id="linearGradient3723">
      <stop
         style="stop-color:#1b4ebd;stop-opacity:1"
         offset="0"
         id="stop3719" />
      <stop
         style="stop-color:#277acc;stop-opacity:1"
         offset="1"
         id="stop3721" />
    </linearGradient>
    <linearGradient
       inkscape:collect="always"
       id="linearGradient3529">
      <stop
         style="stop-color:#0091ec;stop-opacity:1"
         offset="0"
         id="stop3525" />
      <stop
         style="stop-color:#3a73c8;stop-opacity:1"
         offset="1"
         id="stop3527" />
    </linearGradient>
    <linearGradient
       inkscape:collect="always"
       xlink:href="#linearGradient3723"
       id="linearGradient3212"
       x1="3.447747"
       y1="0.64509004"
       x2="2.7696862"
       y2="0"
       gradientUnits="userSpaceOnUse"
       gradientTransform="matrix(2.000069,0,0,2.000069,-1.4727079,0.52916667)" />
    <linearGradient
       inkscape:collect="always"
       xlink:href="#linearGradient3529"
       id="linearGradient3634"
       x1="2"
       y1="-1.3228346e-07"
       x2="10.000097"
       y2="10.000122"
       gradientUnits="userSpaceOnUse"
       gradientTransform="matrix(0.52917312,0,0,0.52917312,-1.2863333e-5,0.52916667)" />
  </defs>
  <path
     id="rect857"
     style="fill:url(#linearGradient3634);fill-opacity:1;stroke-width:0.529172"
     d="m 1.5875065,0.52916667 c -0.293162,0 -0.5291732,0.23601124 -0.5291732,0.52917313 v 4.2334499 c 0,0.293161 0.2360112,0.529173 0.5291732,0.529173 h 3.1749872 c 0.293162,0 0.5291731,-0.236012 0.5291731,-0.529173 V 3.0427084 C 5.2977552,2.7005268 5.0977338,2.4714331 4.9216589,2.2756641 L 3.5452725,0.89917444 C 3.3495039,0.72310034 3.0671783,0.53259009 2.6460919,0.52916667 Z"
     sodipodi:nodetypes="ssssssccccs" />
  <path
     d="M 4.0668557,0.52916667 C 3.7458206,0.53180876 3.8304203,0.82929175 3.9076862,0.8991827 l 1.1290125,1.1343501 c 0.06989,0.077267 0.3673761,0.1618676 0.3700162,-0.1591695 V 1.0583516 c 0,-0.29316843 -0.2360164,-0.52918493 -0.5291851,-0.52918493 z"
     style="fill:url(#linearGradient3212);fill-opacity:1;stroke-width:0.529184"
     id="path3058"
     sodipodi:nodetypes="ccccssc" />
  <path
     d="m 1.5875,0.79375001 c -0.1465793,0 -0.2645834,0.1180041 -0.2645834,0.26458329 v 4.2333334 c 0,0.1465789 0.1180041,0.2645829 0.2645834,0.2645829 h 3.175 c 0.1465792,0 0.2645833,-0.118004 0.2645833,-0.2645829 V 3.0426051 C 5.0253733,2.8320645 4.9301181,2.6909034 4.8420817,2.5930201 L 3.2278133,0.97875161 C 3.1299299,0.89071561 2.9887691,0.79546171 2.7782285,0.79375001 Z"
     style="fill:#ffffff;fill-opacity:1;stroke-width:0.0700042"
     id="path863"
     sodipodi:nodetypes="ssssssccccs" />
  <rect
     style="fill:#3babf5;fill-opacity:1;stroke-width:0.591624;stroke-linecap:round;stroke-linejoin:round"
     id="rect3695"
     width="2.6458333"
     height="0.26458335"
     x="1.8520833"
     y="3.175" />
  <rect
     style="fill:#0087df;fill-opacity:1;stroke-width:1.18325;stroke-linecap:round;stroke-linejoin:round"
     id="rect3901"
     width="2.6458333"
     height="0.26458335"
     x="1.8520838"
     y="3.7041657" />
  <rect
     style="fill:#285fd9;fill-opacity:1;stroke-width:1.18325;stroke-linecap:round;stroke-linejoin:round"
     id="rect4005"
     width="2.6458333"
     height="0.26458335"
     x="1.8520838"
     y="4.2333307" />
  <rect
     style="fill:#134ba1;fill-opacity:1;stroke-width:1.18325;stroke-linecap:round;stroke-linejoin:round"
     id="rect12632"
     width="1.3229166"
     height="0.26458335"
     x="1.8520838"
     y="4.7624974" />
</svg>
