<?xml version="1.0" encoding="UTF-8" standalone="no"?>
<!-- Created with Inkscape (http://www.inkscape.org/) -->

<svg
   width="24"
   height="24"
   viewBox="0 0 6.35 6.3500003"
   version="1.1"
   id="svg5"
   inkscape:version="1.1.2 (0a00cf5339, 2022-02-04, custom)"
   sodipodi:docname="lightdm-settings.svg"
   xmlns:inkscape="http://www.inkscape.org/namespaces/inkscape"
   xmlns:sodipodi="http://sodipodi.sourceforge.net/DTD/sodipodi-0.dtd"
   xmlns:xlink="http://www.w3.org/1999/xlink"
   xmlns="http://www.w3.org/2000/svg"
   xmlns:svg="http://www.w3.org/2000/svg">
  <sodipodi:namedview
     id="namedview7"
     pagecolor="#ffffff"
     bordercolor="#666666"
     borderopacity="1.0"
     inkscape:pageshadow="2"
     inkscape:pageopacity="0.0"
     inkscape:pagecheckerboard="0"
     inkscape:document-units="px"
     showgrid="false"
     units="px"
     height="64px"
     inkscape:zoom="18.159091"
     inkscape:cx="12.005006"
     inkscape:cy="12.913642"
     inkscape:window-width="1920"
     inkscape:window-height="1004"
     inkscape:window-x="0"
     inkscape:window-y="24"
     inkscape:window-maximized="1"
     inkscape:current-layer="svg5" />
  <defs
     id="defs2">
    <linearGradient
       inkscape:collect="always"
       id="linearGradient11972">
      <stop
         style="stop-color:#37d4e1;stop-opacity:1"
         offset="0"
         id="stop11968" />
      <stop
         style="stop-color:#086ebd;stop-opacity:1"
         offset="1"
         id="stop11970" />
    </linearGradient>
    <linearGradient
       inkscape:collect="always"
       xlink:href="#linearGradient11972"
       id="linearGradient1924"
       x1="0.5291667"
       y1="1.5875"
       x2="10.349433"
       y2="9.1792202"
       gradientUnits="userSpaceOnUse"
       gradientTransform="matrix(0.50000001,0,0,0.50000001,0.26458333,0.26458337)" />
    <linearGradient
       inkscape:collect="always"
       id="linearGradient1275">
      <stop
         style="stop-color:#ffffff;stop-opacity:1;"
         offset="0"
         id="stop1271" />
      <stop
         style="stop-color:#ffffff;stop-opacity:0;"
         offset="1"
         id="stop1273" />
    </linearGradient>
    <linearGradient
       inkscape:collect="always"
       xlink:href="#linearGradient1275"
       id="linearGradient2853"
       x1="2.7833304"
       y1="1.1060061"
       x2="2.7949314"
       y2="3.5239503"
       gradientUnits="userSpaceOnUse"
       gradientTransform="matrix(1.1999999,0,0,1.1999999,-0.15874973,1.3646638e-7)" />
    <linearGradient
       inkscape:collect="always"
       xlink:href="#linearGradient1275"
       id="linearGradient2855"
       x1="2.9250689"
       y1="3.1707692"
       x2="2.9309595"
       y2="4.6082139"
       gradientUnits="userSpaceOnUse"
       gradientTransform="translate(0.39687496,0.26458337)" />
    <linearGradient
       inkscape:collect="always"
       xlink:href="#linearGradient6060"
       id="linearGradient6062"
       x1="1.0583334"
       y1="1.0583338"
       x2="15.345835"
       y2="13.229167"
       gradientUnits="userSpaceOnUse"
       gradientTransform="matrix(0.1875,0,0,0.1875,2.9104169,2.8954072)" />
    <linearGradient
       inkscape:collect="always"
       id="linearGradient6060">
      <stop
         style="stop-color:#8a8f97;stop-opacity:1;"
         offset="0"
         id="stop6056" />
      <stop
         style="stop-color:#8a8f97;stop-opacity:1"
         offset="0.14573747"
         id="stop6576" />
      <stop
         style="stop-color:#616e7a;stop-opacity:1"
         offset="0.89999998"
         id="stop6770" />
      <stop
         style="stop-color:#616e7a;stop-opacity:1"
         offset="1"
         id="stop6058" />
    </linearGradient>
    <linearGradient
       inkscape:collect="always"
       xlink:href="#linearGradient7024"
       id="linearGradient7026"
       x1="14.634075"
       y1="13.653037"
       x2="4.0507412"
       y2="3.0697033"
       gradientUnits="userSpaceOnUse"
       gradientTransform="matrix(0.25,0,0,0.25,2.1623157,2.3756942)" />
    <linearGradient
       inkscape:collect="always"
       id="linearGradient7024">
      <stop
         style="stop-color:#ffffff;stop-opacity:1;"
         offset="0"
         id="stop7020" />
      <stop
         style="stop-color:#f0f0f0;stop-opacity:1"
         offset="0.25"
         id="stop7732" />
      <stop
         style="stop-color:#cccccc;stop-opacity:1"
         offset="1"
         id="stop7022" />
    </linearGradient>
    <linearGradient
       inkscape:collect="always"
       xlink:href="#linearGradient8250"
       id="linearGradient8252"
       x1="5.458415"
       y1="4.8895097"
       x2="12.337581"
       y2="11.768677"
       gradientUnits="userSpaceOnUse"
       gradientTransform="matrix(0.1875,0,0,0.1875,2.7799328,2.8715928)" />
    <linearGradient
       inkscape:collect="always"
       id="linearGradient8250">
      <stop
         style="stop-color:#0568ba;stop-opacity:1;"
         offset="0"
         id="stop8246" />
      <stop
         style="stop-color:#0568ba;stop-opacity:1"
         offset="0.23999999"
         id="stop9054" />
      <stop
         style="stop-color:#0f4c8a;stop-opacity:1"
         offset="0.80000001"
         id="stop8830" />
      <stop
         style="stop-color:#0f4c8f;stop-opacity:1"
         offset="1"
         id="stop8248" />
    </linearGradient>
  </defs>
  <rect
     style="fill:url(#linearGradient1924);fill-opacity:1;stroke-width:0.396875;stroke-linecap:round;stroke-linejoin:round"
     id="rect1836"
     width="5.291667"
     height="4.2333336"
     x="0.5291667"
     y="1.0583334"
     ry="0.26458335" />
  <circle
     style="opacity:0.95;fill:url(#linearGradient2853);fill-opacity:1;stroke-width:0.396874;stroke-linejoin:round"
     id="path853"
     cx="3.175"
     cy="2.3812501"
     r="0.79374999" />
  <path
     id="rect957"
     style="opacity:0.95;fill:url(#linearGradient2855);fill-opacity:1;stroke-width:0.289835;stroke-linejoin:round"
     d="m 2.38125,3.4395835 c -0.2931584,0 -0.5291667,0.2360083 -0.5291667,0.5291666 V 4.1010418 C 1.8562033,4.4589588 2.4965634,4.7509902 3.175,4.7625002 3.8112669,4.7564092 4.4970438,4.4046896 4.4979167,4.1010418 V 3.9687501 c 0,-0.2931583 -0.2360083,-0.5291666 -0.5291667,-0.5291666 z"
     sodipodi:nodetypes="sscccsss" />
  <circle
     style="fill:url(#linearGradient7026);fill-opacity:1;stroke-width:0.0661458"
     id="path6952"
     cx="4.4979167"
     cy="4.4660339"
     r="1.190625" />
  <path
     id="path5884"
     style="fill:url(#linearGradient6062);fill-opacity:1;stroke-width:0.0496093"
     d="M 4.0045359,2.9741814 A 1.5875001,1.5875001 0 0 0 3.44052,3.299646 0.5953125,0.5953125 0 0 1 3.4238542,3.8627899 0.5953125,0.5953125 0 0 1 2.9485926,4.155117 1.5875001,1.5875001 0 0 0 2.9104167,4.482907 1.5875001,1.5875001 0 0 0 2.949174,4.8107941 0.5953125,0.5953125 0 0 1 3.4238542,5.1030243 0.5953125,0.5953125 0 0 1 3.4416826,5.6641335 1.5875001,1.5875001 0 0 0 4.0028887,5.9882416 0.5953125,0.5953125 0 0 1 4.4979166,5.7231415 0.5953125,0.5953125 0 0 1 4.9932352,5.9881447 1.5875001,1.5875001 0 0 0 5.5569606,5.6620018 0.5953125,0.5953125 0 0 1 5.571979,5.1030243 0.5953125,0.5953125 0 0 1 6.0466593,4.8106972 1.5875001,1.5875001 0 0 0 6.0854167,4.482907 1.5875001,1.5875001 0 0 0 6.0472407,4.155117 0.5953125,0.5953125 0 0 1 5.571979,3.8627899 0.5953125,0.5953125 0 0 1 5.5578325,3.3015838 1.5875001,1.5875001 0 0 0 4.9912974,2.9741814 0.5953125,0.5953125 0 0 1 4.4979166,3.2426727 0.5953125,0.5953125 0 0 1 4.0045359,2.9741814 Z M 4.4979166,3.6891571 A 0.79375005,0.79375005 0 0 1 5.2916667,4.482907 0.79375005,0.79375005 0 0 1 4.4979166,5.2766571 0.79375005,0.79375005 0 0 1 3.7041666,4.482907 0.79375005,0.79375005 0 0 1 4.4979166,3.6891571 Z" />
  <circle
     style="fill:url(#linearGradient8252);fill-opacity:1;stroke-width:0.0496093"
     id="path8010"
     cx="4.4979157"
     cy="4.4829063"
     r="0.59531248" />
</svg>
