<?xml version="1.0" encoding="UTF-8" standalone="no"?>
<!-- Created with Inkscape (http://www.inkscape.org/) -->

<svg
   width="24"
   height="24"
   viewBox="0 0 6.3499999 6.3500003"
   version="1.1"
   id="svg5"
   inkscape:version="1.1.2 (0a00cf5339, 2022-02-04, custom)"
   sodipodi:docname="preferences-system-time.svg"
   xmlns:inkscape="http://www.inkscape.org/namespaces/inkscape"
   xmlns:sodipodi="http://sodipodi.sourceforge.net/DTD/sodipodi-0.dtd"
   xmlns:xlink="http://www.w3.org/1999/xlink"
   xmlns="http://www.w3.org/2000/svg"
   xmlns:svg="http://www.w3.org/2000/svg">
  <sodipodi:namedview
     id="namedview7"
     pagecolor="#ffffff"
     bordercolor="#666666"
     borderopacity="1.0"
     inkscape:pageshadow="2"
     inkscape:pageopacity="0.0"
     inkscape:pagecheckerboard="0"
     inkscape:document-units="px"
     showgrid="false"
     units="px"
     height="64px"
     inkscape:zoom="24.15625"
     inkscape:cx="6.4786546"
     inkscape:cy="13.909444"
     inkscape:window-width="1920"
     inkscape:window-height="1029"
     inkscape:window-x="0"
     inkscape:window-y="0"
     inkscape:window-maximized="1"
     inkscape:current-layer="svg5" />
  <defs
     id="defs2">
    <radialGradient
       id="radialGradient875"
       cx="20.107"
       cy="28.705"
       r="28"
       gradientTransform="matrix(0.09398593,0.05307375,-0.04181703,0.07405133,1.5581373,-0.37272015)"
       gradientUnits="userSpaceOnUse">
      <stop
         stop-color="#5ab5e2"
         offset="0"
         id="stop2" />
      <stop
         stop-color="#4189ac"
         offset=".45901"
         id="stop4" />
      <stop
         stop-color="#295e76"
         offset="1"
         id="stop6" />
    </radialGradient>
    <linearGradient
       id="linearGradient883"
       x1="4"
       x2="59.861"
       y1="31.360001"
       y2="31.360001"
       gradientTransform="matrix(0.08504056,0,0,0.08504056,0.453658,0.45358007)"
       gradientUnits="userSpaceOnUse">
      <stop
         stop-color="#b0d6df"
         offset="0"
         id="stop9" />
      <stop
         stop-color="#e1f8fc"
         offset=".21709"
         id="stop11" />
      <stop
         stop-color="#96c3ce"
         offset="1"
         id="stop13" />
    </linearGradient>
    <linearGradient
       inkscape:collect="always"
       xlink:href="#linearGradient3161"
       id="linearGradient3163"
       x1="8.4666662"
       y1="15.345833"
       x2="8.4666662"
       y2="1.5874995"
       gradientUnits="userSpaceOnUse"
       gradientTransform="matrix(0.17307693,0,0,0.17307693,0.51898886,2.9002347)" />
    <linearGradient
       inkscape:collect="always"
       id="linearGradient3161">
      <stop
         style="stop-color:#c7ccd1;stop-opacity:1;"
         offset="0"
         id="stop3157" />
      <stop
         style="stop-color:#fdfdfd;stop-opacity:1"
         offset="1"
         id="stop3159" />
    </linearGradient>
    <linearGradient
       inkscape:collect="always"
       id="linearGradient1611">
      <stop
         style="stop-color:#9ca3a8;stop-opacity:1;"
         offset="0"
         id="stop1607" />
      <stop
         style="stop-color:#63737d;stop-opacity:1"
         offset="1"
         id="stop1609" />
    </linearGradient>
    <linearGradient
       inkscape:collect="always"
       xlink:href="#linearGradient1611"
       id="linearGradient1109"
       x1="1.8368058"
       y1="2.3578029"
       x2="1.8673608"
       y2="5.5564623"
       gradientUnits="userSpaceOnUse"
       gradientTransform="matrix(0.91666669,0,0,0.91666669,0.28663193,0.72760405)" />
  </defs>
  <rect
     x="0.79385155"
     y="0.79374999"
     width="4.7623987"
     height="4.7623987"
     rx="2.3811994"
     ry="2.3811994"
     fill="url(#radialGradient875)"
     id="rect30"
     style="fill:url(#radialGradient875);stroke-width:0.085041" />
  <path
     d="m 3.1873539,0.91281019 c -0.183646,0.0130239 -0.3632996,0.0467361 -0.5385003,0.10352641 -0.062505,0.00244 -0.1983459,0.082946 -0.088747,0.1207266 0.051006,0.054489 0.1727719,0.071829 0.1579846,0.160866 0.01967,0.078262 -0.1819077,0.074711 -0.1148135,0.1455943 0.047573,0.062608 0.095145,0.1252195 0.1427209,0.1878293 0.087843,-0.028215 0.1168297,-0.118179 0.1655648,-0.1874243 0.1356569,-0.059837 0.327653,-0.077911 0.4173051,-0.1930597 0.028093,-0.081453 0.056185,-0.162898 0.084279,-0.2443506 C 3.337882,0.97528188 3.2626157,0.94404559 3.187354,0.91280182 Z m -0.6529725,0.020925 c -0.084144,-0.009077 -0.1379666,0.0426339 -0.2007747,0.076536 -0.077311,0.00947 -0.16466,0.038244 -0.2133793,0.1004233 0.086723,0.039356 0.14134,-0.00257 0.216197,-0.03231 0.069503,-0.035608 0.3058968,-0.050464 0.197957,-0.14465769 z M 1.9914045,1.1834833 c -0.043259,0.066032 0.030386,0.1616046 -0.068572,0.1962585 -0.048847,0.061836 -0.091534,0.1633345 0.030557,0.1265053 0.029867,-0.091628 0.1226474,-0.2201581 0.2282378,-0.1664936 0.1063523,0.028575 0.2047831,0.2072912 0.2916175,0.065736 -3.51e-5,-0.036816 -0.1350695,-0.058352 -0.1320534,-0.1484203 -0.060088,-0.025779 -0.1885354,0.021066 -0.1840508,-0.072616 -0.08681,-0.038546 -0.1118132,0.1535239 -0.1425782,0.04617 -0.00772,-0.015711 -0.01544,-0.031423 -0.023161,-0.047141 z m 2.3565141,0.083249 C 4.2451699,1.2872783 4.143683,1.3107483 4.0625953,1.381371 c 0.023538,0.094105 -0.097867,0.1099402 -0.1518649,0.1621755 -0.039178,0.022108 7.136e-4,0.1928854 0.035038,0.1663747 0.072987,-0.096296 0.1107418,-0.01323 0.1785899,0.034322 0.061068,0.056719 0.099844,-0.1053283 0.067407,-0.1510078 -0.019031,-0.073621 0.073557,-0.1280841 0.1068762,-0.1883764 0.1018677,-0.065344 0.015791,0.083366 0.012531,0.1352842 -0.05142,0.1534281 0.2280791,0.00463 0.043843,0.1192821 -0.049419,0.049352 -0.067514,0.122465 -0.1434515,0.1589368 -0.041002,0.050046 -0.1974888,0.026589 -0.1764151,-0.05148 -0.057145,-0.089565 -0.04304,0.1077969 -0.062455,0.1068519 -0.094708,-0.028221 -0.1228936,0.077491 -0.1822886,0.1280687 -0.045454,0.052219 -0.2059182,0.019819 -0.08612,0.1007093 0.087374,0.10082 -0.017413,0.082175 -0.089692,0.1090267 -0.1021455,0.017589 -0.085072,0.1065509 -0.082429,0.1868767 0.00157,0.044267 0.099606,0.1099401 0.1492535,0.079066 0.099169,-0.01062 0.074146,-0.1323232 0.1474122,-0.1694379 0.060876,-0.05211 0.1035979,-0.1001694 0.1950044,-0.1014152 0.042201,0.040275 0.1274973,0.1008199 0.162088,0.1337438 -0.095462,0.1040105 0.043846,0.095534 0.057172,7.715e-4 0.047088,-0.052181 -0.1551033,-0.174971 -0.021767,-0.1210205 0.088255,0.029115 0.06796,0.1192745 0.1072256,0.1801376 0.069798,0.1179887 0.077272,0.029944 0.08377,-0.061329 0.1159631,-0.03643 0.1473949,0.2019349 0.3036969,0.1460321 0.1171392,0.03078 0.061629,0.1065265 -0.012333,0.1554364 C 4.6361389,2.6896692 4.5354157,2.6558992 4.461281,2.6291502 4.38794,2.5914978 4.29955,2.6130852 4.2609429,2.6879715 4.1752357,2.614004 4.1145626,2.4964994 3.99005,2.4899911 3.8721567,2.4838837 3.7531363,2.5152296 3.6393627,2.5472825 3.513302,2.6952265 3.3769149,2.8393126 3.3181786,3.0284039 c -0.06097,0.074926 0.069626,0.1198137 -0.029643,0.1880035 -0.069111,0.064527 0.023538,0.1442289 0.037841,0.2165856 0.074375,0.088199 0.1884004,0.378317 0.3032615,0.2660992 0.06464,-0.1021294 0.1075032,0.066899 0.1835111,-0.039176 0.063976,-0.058397 0.1157898,0.058674 0.2055056,0.017036 0.079778,0.039767 0.086715,0.1177187 0.04456,0.1923139 -0.027071,0.075736 0.1172818,0.1068763 0.07621,0.1952904 -0.019362,0.086461 0.018566,0.1598574 0.061517,0.2321112 -0.09547,0.099653 -0.083961,0.2472712 -0.060129,0.3721417 0.046711,0.1711922 0.113607,0.3428768 0.1069237,0.5231333 0.083651,0.021941 0.1453564,-0.033461 0.2145302,-0.06255 0.1320305,0.018675 0.2038556,-0.122203 0.2858402,-0.2030043 -0.06159,-0.082794 0.050596,-0.1185204 0.09697,-0.172082 C 4.7757115,4.6943085 4.7297479,4.6360567 4.8371392,4.5892657 4.8866778,4.5389493 4.9794796,4.510506 4.9957509,4.4403215 4.9530909,4.3131971 4.9773852,4.1781278 4.9711122,4.0466936 5.0237082,3.9406904 5.0795521,3.8369423 5.1669105,3.7550918 5.2017495,3.6401438 5.2854863,3.5347833 5.2773663,3.4113978 5.0737421,3.472315 5.1352245,3.3855228 5.2480688,3.3030057 5.3263791,3.2455729 5.4377233,3.1920016 5.4615352,3.094079 5.4786262,2.9974339 5.4030976,2.8473788 5.3373874,2.9893699 5.305468,2.9441188 5.1930232,2.9021545 5.194579,2.8311229 c -0.02408,-0.1432446 0.038736,-0.057208 0.094581,0.01044 0.1298942,-0.096288 0.2994119,0.26575 0.2445886,0.00742 -0.074267,-0.559075 -0.3577509,-1.0872567 -0.78239,-1.4583267 -0.03883,0.041349 -0.1036298,0.1955121 -0.1506505,0.1065266 -0.066569,-0.070618 -0.118814,-0.1343713 0.016784,-0.1081543 0.1328867,-0.036065 5.1e-4,-0.057034 -0.06915,-0.065257 -0.069859,-0.00815 -0.1346411,-0.033744 -0.2004335,-0.05706 z m -2.6009838,0.00347 c -0.087914,0.033861 0.04378,0.162971 -0.1138373,0.1216256 C 1.460294,1.4701306 1.3451789,1.660157 1.2250712,1.8081325 0.94490733,2.204063 0.79258989,2.6879063 0.79375665,3.1728776 c 0.0459702,0.094882 0.1591911,0.1270369 0.24389825,0.1794157 0.086089,0.029449 0.1945043,0.025001 0.2373501,0.1201076 0.04792,0.050181 0.112218,0.1174718 0.1806774,0.1229175 0.1052012,-0.033711 0.1200362,0.061675 0.066962,0.1322356 -0.00575,0.077288 -0.091771,0.1396254 -0.082183,0.2076011 0.019166,0.076165 -0.095819,0.160056 -0.018359,0.2297379 0.081492,0.1456894 0.1687079,0.2871726 0.2789177,0.4130029 0.068549,0.060056 0.060421,0.1427451 0.052596,0.2253413 -0.027203,0.087295 0.055305,0.1377919 0.09959,0.2011082 C 1.7452898,5.2022066 2.0375899,5.2417506 2.159928,5.3282676 2.2214331,5.2720239 2.2263219,5.1809904 2.3283582,5.1784504 2.3902332,5.1351028 2.4034425,5.0372456 2.4459418,4.9721833 2.4445828,4.903075 2.4003244,4.8384947 2.4721732,4.7632251 2.52631,4.7175312 2.6380237,4.7480025 2.6581766,4.65261 2.7317156,4.5768606 2.6722121,4.4718771 2.6722121,4.3799711 2.729336,4.3017215 2.827887,4.2416552 2.8169493,4.1335325 2.8293243,3.9722699 2.538984,3.9795168 2.4366798,3.8817446 2.3109287,3.8781446 2.3363599,3.706782 2.2384688,3.6840179 2.1412841,3.6889049 2.1059471,3.612761 2.0714991,3.5354549 2.0179716,3.498947 1.9172291,3.5731391 1.8612153,3.5273873 1.7977725,3.4939651 1.7408616,3.3692913 1.6694494,3.4472037 1.5754635,3.5153498 1.4830333,3.5845752 1.3938733,3.4704815 1.336051,3.4183778 1.4087008,3.2704688 1.3268323,3.279787 1.1520602,3.3430057 1.3822237,3.0259279 1.2186148,3.0679951 1.1798653,3.1287325 1.1055396,3.222448 1.0332701,3.1505755 0.96069414,3.1164268 0.99649524,3.0053939 0.99973164,2.9388949 1.0028726,2.8611142 1.1013056,2.8223353 1.157875,2.7868553 1.2675928,2.8359242 1.2450742,2.6896946 1.3367745,2.7385766 1.4257278,2.7196316 1.465891,2.8623272 1.5020059,2.8676456 1.5232306,2.7973475 1.484914,2.6946039 1.5501541,2.6482892 1.6263823,2.5841255 1.7269899,2.5384925 1.7458014,2.4306872 1.7473674,2.3155245 1.8871098,2.4125783 1.9218038,2.3341532 1.9537889,2.2442946 2.0470786,2.249907 2.1258805,2.2329528 2.1689833,2.1929604 2.2773168,2.069777 2.1434827,2.105892 2.094736,2.099304 1.8984969,2.125422 2.0317488,2.0784681 2.0973876,2.0287818 2.1769465,2.0356668 2.2506287,2.0259081 2.3086571,1.9767805 2.4100973,1.9603221 2.4145581,1.8708763 2.3663955,1.8053729 2.2643758,1.8178405 2.307682,1.7238921 2.303497,1.6009984 2.1952576,1.6798947 2.1596983,1.6705473 2.2174486,1.5901819 2.084605,1.5395813 2.0400193,1.5384544 2.0097163,1.6141894 1.9245232,1.679532 1.9545895,1.7667002 1.8657631,1.7811263 1.8241474,1.8454187 1.7974542,1.9254627 1.7708223,1.9347392 1.7794821,1.7684777 1.6775529,1.783797 1.6055556,1.78206 1.5165521,1.674627 1.5923535,1.6323212 1.6962769,1.5665681 1.8254887,1.5151026 1.8912019,1.4100758 1.928992,1.3160104 1.8593005,1.2582741 1.7664984,1.2716327 l -0.012939,-9e-4 z m 1.7485144,0.1083054 c -0.057356,0.044621 -0.1731448,0.013802 -0.1975918,0.056822 -0.010284,0.086771 0.1244494,0.085414 0.1782565,0.037511 0.087945,-0.032516 0.084025,-0.026582 0.019331,-0.094335 z M 2.221349,1.4229808 c -0.1218936,0.035865 -0.022282,0.115702 0.057289,0.1146387 0.094938,-0.00766 0.00661,-0.113956 -0.057289,-0.1146387 z m 1.4535634,0.239517 c -0.00872,0.077646 0.065867,0.1261317 0.035063,0.2107201 -0.048506,0.1065587 0.020204,0.1385544 0.103098,0.073057 0.1107095,-0.067739 -0.082961,-0.2161271 -0.1087657,-0.283777 h -0.029398 z m -0.036508,0.1248675 c -0.099487,-0.024455 -0.068013,0.1837575 3.479e-4,0.112075 0.073615,-0.012851 0.00292,-0.069574 -3.479e-4,-0.112075 z m -1.269656,0.1876621 c 0.014606,0.078961 0.019858,0.2041406 0.077666,0.06968 -7.93e-5,-0.026132 -0.057114,-0.046575 -0.077666,-0.06968 z m 2.402392,0.8118303 C 4.888073,2.8888128 4.935443,3.0364713 5.0013545,3.1719458 5.0994285,3.2234388 5.0413725,3.3021893 5.0550335,3.3683624 5.1915869,3.4879184 4.9167489,3.4242434 4.9501017,3.2938115 4.9278183,3.1423204 4.8305176,3.0411983 4.751049,2.9316394 4.7448004,2.8736472 4.6825904,2.8074998 4.7711428,2.7868628 Z"
     fill="url(#linearGradient883)"
     id="path32"
     style="fill:url(#linearGradient883);stroke-width:0.085041" />
  <circle
     style="fill:url(#linearGradient1109);fill-opacity:1;stroke-width:0.0909508;stroke-linejoin:round"
     id="path1021"
     cx="1.984375"
     cy="4.3656244"
     r="1.4552083" />
  <circle
     style="fill:url(#linearGradient3163);fill-opacity:1;stroke-width:0.0457933"
     id="path2899"
     cx="1.9843751"
     cy="4.3656249"
     r="1.1906251" />
  <path
     id="rect1636"
     style="fill:#444444;fill-opacity:1;stroke-width:0.132292;stroke-linejoin:round"
     d="m 1.9776571,3.4395834 c -0.070092,0.00353 -0.1255737,0.061292 -0.1255737,0.1322917 V 4.358907 c -1.139e-4,0.00226 0,0.00443 0,0.00672 0,0.07329 0.059002,0.1322916 0.1322916,0.1322916 h 0.00672 0.7870321 c 0.07329,0 0.1322916,-0.059002 0.1322916,-0.1322916 0,-0.07329 -0.059002,-0.1322917 -0.1322916,-0.1322917 H 2.1166667 V 3.5718751 c 0,-0.07329 -0.059002,-0.1322917 -0.1322917,-0.1322917 -0.00229,0 -0.00446,-1.138e-4 -0.00672,0 z" />
</svg>
