<?xml version="1.0" encoding="UTF-8" standalone="no"?>
<!-- Created with Inkscape (http://www.inkscape.org/) -->

<svg
   width="24"
   height="24"
   viewBox="0 0 6.3499999 6.3500003"
   version="1.1"
   id="svg5"
   inkscape:version="1.1.2 (0a00cf5339, 2022-02-04, custom)"
   sodipodi:docname="preferences-desktop-default-applications.svg"
   xmlns:inkscape="http://www.inkscape.org/namespaces/inkscape"
   xmlns:sodipodi="http://sodipodi.sourceforge.net/DTD/sodipodi-0.dtd"
   xmlns:xlink="http://www.w3.org/1999/xlink"
   xmlns="http://www.w3.org/2000/svg"
   xmlns:svg="http://www.w3.org/2000/svg">
  <sodipodi:namedview
     id="namedview7"
     pagecolor="#ffffff"
     bordercolor="#666666"
     borderopacity="1.0"
     inkscape:pageshadow="2"
     inkscape:pageopacity="0.0"
     inkscape:pagecheckerboard="0"
     inkscape:document-units="px"
     showgrid="false"
     units="px"
     height="64px"
     inkscape:zoom="25.584409"
     inkscape:cx="10.865993"
     inkscape:cy="9.2439111"
     inkscape:window-width="1920"
     inkscape:window-height="1004"
     inkscape:window-x="0"
     inkscape:window-y="24"
     inkscape:window-maximized="1"
     inkscape:current-layer="svg5" />
  <defs
     id="defs2">
    <linearGradient
       inkscape:collect="always"
       xlink:href="#linearGradient1723"
       id="linearGradient1725"
       x1="4.4979162"
       y1="2.3812499"
       x2="4.4979162"
       y2="5.0270834"
       gradientUnits="userSpaceOnUse"
       gradientTransform="translate(-0.52916661,-0.26458314)" />
    <linearGradient
       inkscape:collect="always"
       id="linearGradient1723">
      <stop
         style="stop-color:#1088d6;stop-opacity:1;"
         offset="0"
         id="stop1719" />
      <stop
         style="stop-color:#076cbe;stop-opacity:1"
         offset="1"
         id="stop1721" />
    </linearGradient>
    <linearGradient
       inkscape:collect="always"
       xlink:href="#linearGradient6911"
       id="linearGradient59378"
       x1="35.875587"
       y1="-37.89032"
       x2="55.549019"
       y2="-19.004301"
       gradientUnits="userSpaceOnUse"
       gradientTransform="matrix(0.09071854,0,0,0.09098744,0.60870771,7.0992006)" />
    <linearGradient
       inkscape:collect="always"
       id="linearGradient6911">
      <stop
         style="stop-color:#50b10e;stop-opacity:1;"
         offset="0"
         id="stop6907" />
      <stop
         style="stop-color:#18840f;stop-opacity:1"
         offset="1"
         id="stop6909" />
    </linearGradient>
  </defs>
  <rect
     style="fill:#797774;fill-opacity:1;stroke:none;stroke-width:0.109727;stroke-linecap:round;stroke-linejoin:round"
     id="rect261617"
     width="5.2916665"
     height="4.2333336"
     x="0.5291667"
     y="1.0583334"
     ry="0.5291667" />
  <path
     id="rect1043"
     style="fill:#fafafa;fill-opacity:1;stroke-width:0.79375;stroke-linecap:round;stroke-linejoin:round"
     d="m 1.0583333,1.8520834 h 4.2333332 c 0.1465792,0 0.2645834,0.1180042 0.2645834,0.2645833 V 4.7625 c 0,0.146579 -0.1180042,0.264583 -0.2645834,0.264583 H 1.0583333 C 0.91175414,5.027083 0.79374997,4.909079 0.79374997,4.7625 V 2.1166667 c 0,-0.1465791 0.11800417,-0.2645833 0.26458333,-0.2645833 z"
     sodipodi:nodetypes="sssssssss" />
  <rect
     style="fill:url(#linearGradient1725);fill-opacity:1;stroke:none;stroke-width:0.118158;stroke-linecap:round;stroke-linejoin:round"
     id="rect261621"
     width="1.5875"
     height="2.6458333"
     x="2.3812501"
     y="2.1166668"
     ry="0.26458335" />
  <path
     id="rect845"
     style="fill:#bebebe;fill-opacity:1;stroke-width:0.561266;stroke-linecap:round;stroke-linejoin:round"
     d="M 1.0583333,2.3812501 V 2.6458334 H 2.1166667 V 2.3812501 Z m 3.175,0 V 2.6458334 H 5.2916668 V 2.3812501 Z m -3.175,0.5291669 V 3.1750003 H 2.1166667 V 2.910417 Z m 3.175,0 V 3.1750003 H 5.2916668 V 2.910417 Z m -3.175,0.5291667 V 3.7041671 H 2.1166667 V 3.4395837 Z m 3.175,0 V 3.7041671 H 5.2916668 V 3.4395837 Z m -3.175,0.5291666 V 4.2333336 H 2.1166667 V 3.9687503 Z m 3.1750001,0 V 4.2333336 H 5.2916667 V 3.9687503 Z"
     sodipodi:nodetypes="cccccccccccccccccccccccccccccccccccccccc" />
  <path
     id="rect1066"
     style="fill:#c4c4c4;fill-opacity:1;stroke-width:0.396875;stroke-linecap:round;stroke-linejoin:round"
     d="M 3.9687499,1.3229167 V 1.5875 H 4.2333332 V 1.3229167 Z m 0.5291667,0 V 1.5875 H 4.7624999 V 1.3229167 Z m 0.5291666,0 V 1.5875 H 5.2916665 V 1.3229167 Z" />
  <circle
     style="fill:url(#linearGradient59378);fill-opacity:1;stroke-width:0.0721146;stroke-linecap:round;stroke-linejoin:round"
     id="path55509"
     cx="4.7624993"
     cy="4.4979167"
     r="1.3229164" />
  <path
     id="path69248"
     style="opacity:0.2;fill:#4d4d4d;fill-opacity:0.996078;stroke-width:0.151141;stroke-linecap:round;stroke-linejoin:round"
     d="m 4.7625001,3.1750001 c -0.7306268,0 -1.3229167,0.5922902 -1.3229167,1.3229167 0,0.7306266 0.5922899,1.3229167 1.3229167,1.3229167 0.7306265,0 1.3229167,-0.5922901 1.3229167,-1.3229167 0,-0.7306265 -0.5922902,-1.3229167 -1.3229167,-1.3229167 z m 0,0.2645834 c 0.5845011,0 1.0583334,0.473832 1.0583334,1.0583333 0,0.5845012 -0.4738323,1.0583334 -1.0583334,1.0583334 -0.5845016,0 -1.0583334,-0.4738322 -1.0583334,-1.0583334 0,-0.5845013 0.4738318,-1.0583333 1.0583334,-1.0583333 z" />
  <path
     id="rect1469"
     style="fill:#ffffff;stroke-width:0.529151;stroke-linecap:round;stroke-linejoin:round"
     d="m 4.7055049,4.9799684 c -0.05206,0.04706 -0.131948,0.04527 -0.182151,-0.0049 -0.0016,-0.0016 -0.0032,-0.003 -0.0047,-0.0047 L 4.1171525,4.5688651 c -0.05182,-0.05182 -0.05182,-0.135261 0,-0.187084 0.05182,-0.05182 0.135262,-0.05182 0.187084,0 L 4.6169459,4.6944934 5.3038242,4.0076151 c 0.05182,-0.05182 0.135262,-0.05182 0.187084,0 0.05182,0.05182 0.05182,0.135262 0,0.187084 L 4.7152379,4.9703694 c -0.0015,0.0017 -0.0031,0.0031 -0.0047,0.0048 -0.0016,0.0016 -0.0032,0.0034 -0.005,0.0049 z"
     sodipodi:nodetypes="cscccccscccccc" />
</svg>
