<?xml version="1.0" encoding="UTF-8" standalone="no"?>
<!-- Created with Inkscape (http://www.inkscape.org/) -->

<svg
   width="24"
   height="24"
   viewBox="0 0 6.35 6.3500003"
   version="1.1"
   id="svg5"
   inkscape:version="1.1.2 (0a00cf5339, 2022-02-04, custom)"
   sodipodi:docname="preferences-desktop-plasma.svg"
   xmlns:inkscape="http://www.inkscape.org/namespaces/inkscape"
   xmlns:sodipodi="http://sodipodi.sourceforge.net/DTD/sodipodi-0.dtd"
   xmlns:xlink="http://www.w3.org/1999/xlink"
   xmlns="http://www.w3.org/2000/svg"
   xmlns:svg="http://www.w3.org/2000/svg">
  <sodipodi:namedview
     id="namedview7"
     pagecolor="#ffffff"
     bordercolor="#666666"
     borderopacity="1.0"
     inkscape:pageshadow="2"
     inkscape:pageopacity="0.0"
     inkscape:pagecheckerboard="0"
     inkscape:document-units="px"
     showgrid="false"
     units="px"
     height="64px"
     inkscape:zoom="11.313709"
     inkscape:cx="4.4194174"
     inkscape:cy="10.385631"
     inkscape:window-width="1920"
     inkscape:window-height="1004"
     inkscape:window-x="0"
     inkscape:window-y="24"
     inkscape:window-maximized="1"
     inkscape:current-layer="svg5" />
  <defs
     id="defs2">
    <linearGradient
       inkscape:collect="always"
       id="linearGradient1591">
      <stop
         style="stop-color:#0f4f68;stop-opacity:1;"
         offset="0"
         id="stop1587" />
      <stop
         style="stop-color:#03355e;stop-opacity:1"
         offset="1"
         id="stop1589" />
    </linearGradient>
    <linearGradient
       inkscape:collect="always"
       id="linearGradient11972">
      <stop
         style="stop-color:#37d4e1;stop-opacity:1"
         offset="0"
         id="stop11968" />
      <stop
         style="stop-color:#086ebd;stop-opacity:1"
         offset="1"
         id="stop11970" />
    </linearGradient>
    <linearGradient
       inkscape:collect="always"
       xlink:href="#linearGradient11972"
       id="linearGradient1924"
       x1="0.5291667"
       y1="1.5875"
       x2="10.349433"
       y2="9.1792202"
       gradientUnits="userSpaceOnUse"
       gradientTransform="matrix(0.50000001,0,0,0.50000001,0.26458333,0.26458337)" />
    <linearGradient
       inkscape:collect="always"
       xlink:href="#linearGradient1591"
       id="linearGradient3295"
       x1="4.7077208e-07"
       y1="4.3656249"
       x2="5.291667"
       y2="4.3656249"
       gradientUnits="userSpaceOnUse"
       gradientTransform="translate(0.52916667,0.52916668)" />
  </defs>
  <rect
     style="fill:url(#linearGradient1924);fill-opacity:1;stroke-width:0.396875;stroke-linecap:round;stroke-linejoin:round"
     id="rect1836"
     width="5.291667"
     height="4.2333336"
     x="0.5291667"
     y="1.0583334"
     ry="0.26458335" />
  <path
     id="rect1409"
     style="fill:url(#linearGradient3295);fill-opacity:1;stroke-width:0.271843;stroke-linecap:round;stroke-linejoin:round"
     d="m 5.8208338,4.4979168 v 0.5291663 c 0,0.146579 -0.1180045,0.2645835 -0.2645835,0.2645835 H 0.79375049 c -0.14657918,0 -0.26458335,-0.1180045 -0.26458335,-0.2645835 V 4.4979168 Z"
     sodipodi:nodetypes="csssscc" />
  <path
     id="path1218"
     style="fill:#e9fefe;fill-opacity:1;stroke:none;stroke-width:0.283482;stroke-linecap:round;stroke-linejoin:round"
     d="M 2.5135417,1.5875001 A 0.18898811,0.18898811 0 0 0 2.3245535,1.7764883 0.18898811,0.18898811 0 0 0 2.5135417,1.9654763 0.18898811,0.18898811 0 0 0 2.7025298,1.7764883 0.18898811,0.18898811 0 0 0 2.5135417,1.5875001 Z m 1.1575521,0 L 3.3366733,1.9219205 3.8298143,2.414323 3.3366733,2.9074641 3.6710938,3.241146 4.1642348,2.7487435 4.4979167,2.414323 4.1642348,2.0806411 Z M 2.1355655,2.5324405 A 0.28348214,0.28348214 0 0 0 1.8520833,2.8159226 0.28348214,0.28348214 0 0 0 2.1355655,3.099405 0.28348214,0.28348214 0 0 0 2.4190477,2.8159226 0.28348214,0.28348214 0 0 0 2.1355655,2.5324405 Z M 2.8915178,3.4773811 A 0.37797624,0.37797624 0 0 0 2.5135417,3.8553572 0.37797624,0.37797624 0 0 0 2.8915178,4.2333335 0.37797624,0.37797624 0 0 0 3.2694942,3.8553572 0.37797624,0.37797624 0 0 0 2.8915178,3.4773811 Z" />
</svg>
