<?xml version="1.0" encoding="UTF-8" standalone="no"?>
<!-- Created with Inkscape (http://www.inkscape.org/) -->

<svg
   width="24"
   height="24"
   viewBox="0 0 6.35 6.3500003"
   version="1.1"
   id="svg5"
   inkscape:version="1.1.2 (0a00cf5339, 2022-02-04)"
   sodipodi:docname="system-settings.svg"
   xmlns:inkscape="http://www.inkscape.org/namespaces/inkscape"
   xmlns:sodipodi="http://sodipodi.sourceforge.net/DTD/sodipodi-0.dtd"
   xmlns:xlink="http://www.w3.org/1999/xlink"
   xmlns="http://www.w3.org/2000/svg"
   xmlns:svg="http://www.w3.org/2000/svg">
  <sodipodi:namedview
     id="namedview7"
     pagecolor="#ffffff"
     bordercolor="#666666"
     borderopacity="1.0"
     inkscape:pageshadow="2"
     inkscape:pageopacity="0.0"
     inkscape:pagecheckerboard="0"
     inkscape:document-units="px"
     showgrid="false"
     units="px"
     inkscape:zoom="10.410035"
     inkscape:cx="16.138275"
     inkscape:cy="16.858733"
     inkscape:window-width="1920"
     inkscape:window-height="1011"
     inkscape:window-x="0"
     inkscape:window-y="0"
     inkscape:window-maximized="1"
     inkscape:current-layer="svg5" />
  <defs
     id="defs2">
    <linearGradient
       inkscape:collect="always"
       id="linearGradient8250">
      <stop
         style="stop-color:#0568ba;stop-opacity:1;"
         offset="0"
         id="stop8246" />
      <stop
         style="stop-color:#0568ba;stop-opacity:1"
         offset="0.23999999"
         id="stop9054" />
      <stop
         style="stop-color:#0f4c8a;stop-opacity:1"
         offset="0.80000001"
         id="stop8830" />
      <stop
         style="stop-color:#0f4c8f;stop-opacity:1"
         offset="1"
         id="stop8248" />
    </linearGradient>
    <linearGradient
       inkscape:collect="always"
       id="linearGradient7024">
      <stop
         style="stop-color:#ffffff;stop-opacity:1;"
         offset="0"
         id="stop7020" />
      <stop
         style="stop-color:#f0f0f0;stop-opacity:1"
         offset="0.25"
         id="stop7732" />
      <stop
         style="stop-color:#cccccc;stop-opacity:1"
         offset="1"
         id="stop7022" />
    </linearGradient>
    <linearGradient
       inkscape:collect="always"
       id="linearGradient6060">
      <stop
         style="stop-color:#8a8f97;stop-opacity:1;"
         offset="0"
         id="stop6056" />
      <stop
         style="stop-color:#8a8f97;stop-opacity:1"
         offset="0.14573747"
         id="stop6576" />
      <stop
         style="stop-color:#616e7a;stop-opacity:1"
         offset="0.89999998"
         id="stop6770" />
      <stop
         style="stop-color:#616e7a;stop-opacity:1"
         offset="1"
         id="stop6058" />
    </linearGradient>
    <linearGradient
       inkscape:collect="always"
       xlink:href="#linearGradient6060"
       id="linearGradient6062"
       x1="-2.203855"
       y1="-1.4312311"
       x2="18.865564"
       y2="18.12245"
       gradientUnits="userSpaceOnUse"
       gradientTransform="matrix(0.25,0,0,0.25,1.123054,1.0607926)" />
    <linearGradient
       inkscape:collect="always"
       xlink:href="#linearGradient7024"
       id="linearGradient7026"
       x1="14.634075"
       y1="13.653037"
       x2="4.0507412"
       y2="3.0697033"
       gradientUnits="userSpaceOnUse"
       gradientTransform="matrix(0.30555558,0,0,0.30555558,0.32037583,0.62013938)" />
    <linearGradient
       inkscape:collect="always"
       xlink:href="#linearGradient8250"
       id="linearGradient8252"
       x1="5.458415"
       y1="4.8895097"
       x2="12.337581"
       y2="11.768677"
       gradientUnits="userSpaceOnUse"
       gradientTransform="matrix(0.33333334,0,0,0.33333335,0.12080692,0.31044132)" />
  </defs>
  <path
     id="path5884"
     style="fill:url(#linearGradient6062);fill-opacity:1;stroke-width:0.0661458"
     d="M 4.0002728,0.66145835 C 3.8063113,0.90323638 3.5090802,1.0583333 3.1750001,1.0583334 2.8413275,1.0583333 2.5442223,0.90376274 2.3502442,0.66249187 A 2.6458334,2.6458334 0 0 0 1.4118002,1.2045777 C 1.5237341,1.4932158 1.5088373,1.82776 1.342037,2.1166667 1.1752128,2.4056146 0.89249257,2.5854889 0.58652753,2.6329143 A 2.6458334,2.6458334 0 0 0 0.52916668,3.175 2.6458334,2.6458334 0 0 0 0.58704428,3.7186363 C 0.89269239,3.7662403 1.1753588,3.9446381 1.342037,4.2333334 1.5088374,4.5222402 1.5237341,4.8567844 1.4118,5.1454226 A 2.6458334,2.6458334 0 0 0 2.350244,5.6875083 C 2.5442223,5.4462374 2.8413275,5.2916668 3.1750001,5.2916668 c 0.3336726,0 0.6307775,0.1545706 0.824756,0.3958415 A 2.6458334,2.6458334 0 0 0 4.9381999,5.1454226 C 4.826266,4.8567844 4.8411629,4.5222402 5.0079631,4.2333334 5.1748305,3.9443108 5.4574394,3.7639004 5.7634726,3.7165691 A 2.6458334,2.6458334 0 0 0 5.8208335,3.175 2.6458334,2.6458334 0 0 0 5.7650228,2.633431 C 5.4584488,2.5863847 5.1750755,2.4061138 5.0079631,2.1166667 4.8408708,1.8272542 4.8261417,1.4920082 4.9387169,1.2030274 A 2.6458334,2.6458334 0 0 0 4.0002728,0.66145835 Z" />
  <circle
     style="fill:url(#linearGradient7026);fill-opacity:1;stroke-width:0.0808447"
     id="path6952"
     cx="3.1750002"
     cy="3.1750002"
     r="1.4552084" />
  <circle
     style="fill:url(#linearGradient8252);fill-opacity:1;stroke-width:0.0881943"
     id="path8010"
     cx="3.175"
     cy="3.1750002"
     r="1.0583334" />
</svg>
