<?xml version="1.0" encoding="UTF-8" standalone="no"?>
<!-- Created with Inkscape (http://www.inkscape.org/) -->

<svg
   width="22"
   height="22"
   viewBox="0 0 5.8208333 5.8208334"
   version="1.1"
   id="svg5"
   inkscape:version="1.1.1 (3bf5ae0d25, 2021-09-20, custom)"
   sodipodi:docname="applications-all.svg"
   xmlns:inkscape="http://www.inkscape.org/namespaces/inkscape"
   xmlns:sodipodi="http://sodipodi.sourceforge.net/DTD/sodipodi-0.dtd"
   xmlns:xlink="http://www.w3.org/1999/xlink"
   xmlns="http://www.w3.org/2000/svg"
   xmlns:svg="http://www.w3.org/2000/svg">
  <sodipodi:namedview
     id="namedview7"
     pagecolor="#ffffff"
     bordercolor="#666666"
     borderopacity="1.0"
     inkscape:pageshadow="2"
     inkscape:pageopacity="0.0"
     inkscape:pagecheckerboard="0"
     inkscape:document-units="px"
     showgrid="false"
     units="px"
     height="32px"
     inkscape:lockguides="false"
     inkscape:zoom="12.078125"
     inkscape:cx="17.966365"
     inkscape:cy="3.9327297"
     inkscape:window-width="1920"
     inkscape:window-height="996"
     inkscape:window-x="0"
     inkscape:window-y="0"
     inkscape:window-maximized="1"
     inkscape:current-layer="svg5" />
  <defs
     id="defs2">
    <linearGradient
       inkscape:collect="always"
       id="linearGradient2301">
      <stop
         style="stop-color:#3fe3e7;stop-opacity:1;"
         offset="0"
         id="stop2297" />
      <stop
         style="stop-color:#066bbc;stop-opacity:1"
         offset="1"
         id="stop2299" />
    </linearGradient>
    <linearGradient
       inkscape:collect="always"
       xlink:href="#linearGradient2301"
       id="linearGradient1717"
       x1="4.1003823"
       y1="4.5457854"
       x2="1.3857501"
       y2="7.3719153"
       gradientUnits="userSpaceOnUse"
       gradientTransform="matrix(0.49757567,-0.49757567,0.49757567,0.49757567,-0.06848778,-0.06844022)" />
    <linearGradient
       inkscape:collect="always"
       id="linearGradient251123">
      <stop
         style="stop-color:#a2a2a2;stop-opacity:1;"
         offset="0"
         id="stop251119" />
      <stop
         style="stop-color:#6d6d6d;stop-opacity:1"
         offset="1"
         id="stop251121" />
    </linearGradient>
    <linearGradient
       inkscape:collect="always"
       id="linearGradient223269">
      <stop
         style="stop-color:#555556;stop-opacity:1;"
         offset="0"
         id="stop223265" />
      <stop
         style="stop-color:#2d2d2d;stop-opacity:1"
         offset="1"
         id="stop223267" />
    </linearGradient>
    <linearGradient
       inkscape:collect="always"
       xlink:href="#linearGradient251123"
       id="linearGradient863"
       x1="0.061399721"
       y1="0.077420197"
       x2="4.0089293"
       y2="3.9982955"
       gradientUnits="userSpaceOnUse"
       gradientTransform="matrix(1.4285714,0,0,1.4285714,-0.11339286,-0.11339286)" />
    <linearGradient
       inkscape:collect="always"
       xlink:href="#linearGradient223269"
       id="linearGradient1222"
       x1="0.27021921"
       y1="2.1166842"
       x2="2.1166835"
       y2="3.8620036"
       gradientUnits="userSpaceOnUse"
       gradientTransform="matrix(1.4285714,0,0,1.4285714,-0.11339286,-0.11339286)" />
  </defs>
  <path
     id="rect846"
     style="fill:url(#linearGradient863);fill-opacity:1;stroke-width:0.992196;stroke-linecap:round;stroke-linejoin:round"
     d="m 0.45357143,0.26458333 c -0.10470044,0 -0.1889881,0.0842878 -0.1889881,0.1889881 V 2.7214287 c 0,0.1047 0.0842877,0.188988 0.1889881,0.188988 H 2.7214287 c 0.1047,0 0.188988,-0.084288 0.188988,-0.188988 V 0.45357143 c 0,-0.10470044 -0.084288,-0.1889881 -0.188988,-0.1889881 z M 3.0994048,2.9104167 c -0.1047,0 -0.1889881,0.084288 -0.1889881,0.1889881 V 5.367262 c 0,0.1047 0.084288,0.188988 0.1889881,0.188988 H 5.367262 c 0.1047,0 0.188988,-0.084288 0.188988,-0.188988 V 3.0994048 c 0,-0.1047 -0.084288,-0.1889881 -0.188988,-0.1889881 z" />
  <path
     id="rect950"
     style="fill:url(#linearGradient1222);fill-opacity:1;stroke-width:0.56697;stroke-linecap:round;stroke-linejoin:round"
     d="M 0.45357313,2.9104419 H 2.7214509 c 0.1047,0 0.1889898,0.08429 0.1889898,0.1889898 v 2.2678778 c 0,0.1047 -0.08429,0.1889897 -0.1889898,0.1889897 H 0.45357313 c -0.10470044,0 -0.1889898,-0.08429 -0.1889898,-0.1889897 V 3.0994317 c 0,-0.1047 0.0842895,-0.1889898 0.1889898,-0.1889898 z" />
  <path
     id="rect1158"
     style="fill:url(#linearGradient1717);fill-opacity:1;stroke-width:0.558546;stroke-linecap:round;stroke-linejoin:round"
     d="M 2.9651177,1.4075631 4.1499696,0.22271104 c 0.072935,-0.0729342 0.1903662,-0.0729342 0.2633005,6e-8 l 1.1848519,1.184852 c 0.072935,0.072935 0.072935,0.1903662 0,0.2633003 L 4.4132701,2.8557155 c -0.072935,0.072935 -0.1903662,0.072935 -0.2633005,0 L 2.9651177,1.6708635 c -0.072935,-0.072935 -0.072935,-0.1903663 0,-0.2633004 z" />
</svg>
