<?xml version="1.0" encoding="UTF-8" standalone="no"?>
<svg
   width="22"
   height="22"
   viewBox="0 0 5.82076 5.82076"
   version="1.1"
   id="svg1886"
   inkscape:version="1.1.2 (0a00cf5339, 2022-02-04, custom)"
   sodipodi:docname="gnome-power-statistics.svg"
   xmlns:inkscape="http://www.inkscape.org/namespaces/inkscape"
   xmlns:sodipodi="http://sodipodi.sourceforge.net/DTD/sodipodi-0.dtd"
   xmlns:xlink="http://www.w3.org/1999/xlink"
   xmlns="http://www.w3.org/2000/svg"
   xmlns:svg="http://www.w3.org/2000/svg"
   xmlns:rdf="http://www.w3.org/1999/02/22-rdf-syntax-ns#"
   xmlns:cc="http://creativecommons.org/ns#"
   xmlns:dc="http://purl.org/dc/elements/1.1/">
  <defs
     id="defs1880">
    <linearGradient
       inkscape:collect="always"
       id="linearGradient2436">
      <stop
         style="stop-color:#1ebc60;stop-opacity:1"
         offset="0"
         id="stop2432" />
      <stop
         style="stop-color:#5fd35f;stop-opacity:1"
         offset="1"
         id="stop2434" />
    </linearGradient>
    <linearGradient
       inkscape:collect="always"
       xlink:href="#linearGradient2436"
       id="linearGradient1349"
       x1="8"
       y1="21"
       x2="8"
       y2="1"
       gradientUnits="userSpaceOnUse" />
    <linearGradient
       inkscape:collect="always"
       xlink:href="#linearGradient6083"
       id="linearGradient6085"
       x1="51"
       y1="32.007812"
       x2="51"
       y2="51"
       gradientUnits="userSpaceOnUse"
       gradientTransform="matrix(0.31578948,0,0,0.31578948,0.8954441,0.63221823)" />
    <linearGradient
       inkscape:collect="always"
       id="linearGradient6083">
      <stop
         style="stop-color:#000000;stop-opacity:1;"
         offset="0"
         id="stop6079" />
      <stop
         style="stop-color:#000000;stop-opacity:0;"
         offset="1"
         id="stop6081" />
    </linearGradient>
  </defs>
  <sodipodi:namedview
     id="base"
     pagecolor="#ffffff"
     bordercolor="#666666"
     borderopacity="1.0"
     inkscape:pageopacity="0.0"
     inkscape:pageshadow="2"
     inkscape:zoom="36.318182"
     inkscape:cx="10.986233"
     inkscape:cy="11"
     inkscape:document-units="px"
     inkscape:current-layer="svg1886"
     inkscape:document-rotation="0"
     showgrid="false"
     units="px"
     inkscape:window-width="1920"
     inkscape:window-height="1004"
     inkscape:window-x="0"
     inkscape:window-y="24"
     inkscape:window-maximized="1"
     inkscape:pagecheckerboard="0"
     showguides="false" />
  <metadata
     id="metadata1883">
    <rdf:RDF>
      <cc:Work
         rdf:about="">
        <dc:format>image/svg+xml</dc:format>
        <dc:type
           rdf:resource="http://purl.org/dc/dcmitype/StillImage" />
      </cc:Work>
    </rdf:RDF>
  </metadata>
  <path
     id="rect939"
     style="fill:url(#linearGradient1349);stroke-width:1;fill-opacity:1"
     d="M 9 1 C 8.446 1 8 1.446 8 2 L 8 3 L 7 3 C 5.892 3 5 3.892 5 5 L 5 19 C 5 20.108 5.892 21 7 21 L 15 21 C 16.108 21 17 20.108 17 19 L 17 5 C 17 3.892 16.108 3 15 3 L 14 3 L 14 2 C 14 1.446 13.554 1 13 1 L 9 1 z "
     transform="scale(0.26458)" />
  <path
     style="color:#000000;fill:#ffffff;stroke-linejoin:round;-inkscape-stroke:none;stroke:none"
     d="M 2.2695313,2.3828125 A 0.13230323,0.13230323 0 0 0 2.15625,2.4199219 L 1.6640625,2.9101563 H 1.3222656 v 0.265625 H 1.7207031 A 0.13230323,0.13230323 0 0 0 1.8125,3.1367188 L 2.2128906,2.7363281 2.7929688,3.8964844 A 0.13230323,0.13230323 0 0 0 3.015625,3.9160156 L 3.71875,2.9785156 3.875,3.1367188 a 0.13230323,0.13230323 0 0 0 0.09375,0.039063 H 4.4980469 V 2.9101563 H 4.0234375 L 3.796875,2.6835938 A 0.13230323,0.13230323 0 0 0 3.5976563,2.6992188 L 2.9335938,3.5859375 2.3671875,2.4550781 a 0.13230323,0.13230323 0 0 0 -0.097656,-0.072266 z"
     id="path1920" />
  <path
     id="rect5794"
     style="opacity:0.2;fill:url(#linearGradient6085);fill-opacity:1;stroke-width:1.26316;stroke-linecap:round;stroke-linejoin:round"
     d="m 8.3632812,10.341797 -1.5136718,1.513672 c -0.091518,0.0926 -0.2155395,0.145847 -0.3457032,0.148437 H 5 V 18 h 12 v -5.996094 h -2 c -0.132881,-5.43e-4 -0.260081,-0.05395 -0.353516,-0.148437 l -0.591796,-0.597657 -2.65625,3.542969 c -0.22279,0.291724 -0.673488,0.251987 -0.841797,-0.07422 z"
     transform="scale(0.26458)"
     sodipodi:nodetypes="ccccccccccccc" />
</svg>
