<?xml version="1.0" encoding="UTF-8" standalone="no"?>
<!-- Created with Inkscape (http://www.inkscape.org/) -->

<svg
   width="22"
   height="22"
   viewBox="0 0 5.8208333 5.8208336"
   version="1.1"
   id="svg5"
   inkscape:version="1.1.2 (0a00cf5339, 2022-02-04, custom)"
   sodipodi:docname="lightdm-settings.svg"
   xmlns:inkscape="http://www.inkscape.org/namespaces/inkscape"
   xmlns:sodipodi="http://sodipodi.sourceforge.net/DTD/sodipodi-0.dtd"
   xmlns:xlink="http://www.w3.org/1999/xlink"
   xmlns="http://www.w3.org/2000/svg"
   xmlns:svg="http://www.w3.org/2000/svg">
  <sodipodi:namedview
     id="namedview7"
     pagecolor="#ffffff"
     bordercolor="#666666"
     borderopacity="1.0"
     inkscape:pageshadow="2"
     inkscape:pageopacity="0.0"
     inkscape:pagecheckerboard="0"
     inkscape:document-units="px"
     showgrid="false"
     units="px"
     height="64px"
     inkscape:zoom="36.318182"
     inkscape:cx="10.821026"
     inkscape:cy="11"
     inkscape:window-width="1920"
     inkscape:window-height="1004"
     inkscape:window-x="0"
     inkscape:window-y="24"
     inkscape:window-maximized="1"
     inkscape:current-layer="svg5" />
  <defs
     id="defs2">
    <linearGradient
       inkscape:collect="always"
       id="linearGradient11972">
      <stop
         style="stop-color:#37d4e1;stop-opacity:1"
         offset="0"
         id="stop11968" />
      <stop
         style="stop-color:#086ebd;stop-opacity:1"
         offset="1"
         id="stop11970" />
    </linearGradient>
    <linearGradient
       inkscape:collect="always"
       xlink:href="#linearGradient11972"
       id="linearGradient1924"
       x1="0.5291667"
       y1="1.5875"
       x2="10.349433"
       y2="9.1792202"
       gradientUnits="userSpaceOnUse"
       gradientTransform="scale(0.50000001)" />
    <linearGradient
       inkscape:collect="always"
       id="linearGradient1275">
      <stop
         style="stop-color:#ffffff;stop-opacity:1;"
         offset="0"
         id="stop1271" />
      <stop
         style="stop-color:#ffffff;stop-opacity:0;"
         offset="1"
         id="stop1273" />
    </linearGradient>
    <linearGradient
       inkscape:collect="always"
       xlink:href="#linearGradient1275"
       id="linearGradient2853"
       x1="2.7833304"
       y1="1.1060061"
       x2="2.7949314"
       y2="3.5239503"
       gradientUnits="userSpaceOnUse"
       gradientTransform="matrix(1.1999999,0,0,1.1999999,-0.42333306,-0.26458323)" />
    <linearGradient
       inkscape:collect="always"
       xlink:href="#linearGradient1275"
       id="linearGradient2855"
       x1="2.9250689"
       y1="3.1707692"
       x2="2.9309595"
       y2="4.6082139"
       gradientUnits="userSpaceOnUse"
       gradientTransform="translate(0.13229163)" />
    <linearGradient
       inkscape:collect="always"
       xlink:href="#linearGradient6060"
       id="linearGradient6062"
       x1="1.0583334"
       y1="1.0583338"
       x2="15.345835"
       y2="13.229167"
       gradientUnits="userSpaceOnUse"
       gradientTransform="matrix(0.1875,0,0,0.1875,2.6458336,2.6308238)" />
    <linearGradient
       inkscape:collect="always"
       id="linearGradient6060">
      <stop
         style="stop-color:#8a8f97;stop-opacity:1;"
         offset="0"
         id="stop6056" />
      <stop
         style="stop-color:#8a8f97;stop-opacity:1"
         offset="0.14573747"
         id="stop6576" />
      <stop
         style="stop-color:#616e7a;stop-opacity:1"
         offset="0.89999998"
         id="stop6770" />
      <stop
         style="stop-color:#616e7a;stop-opacity:1"
         offset="1"
         id="stop6058" />
    </linearGradient>
    <linearGradient
       inkscape:collect="always"
       xlink:href="#linearGradient7024"
       id="linearGradient7026"
       x1="14.634075"
       y1="13.653037"
       x2="4.0507412"
       y2="3.0697033"
       gradientUnits="userSpaceOnUse"
       gradientTransform="matrix(0.25,0,0,0.25,1.8977324,2.1111108)" />
    <linearGradient
       inkscape:collect="always"
       id="linearGradient7024">
      <stop
         style="stop-color:#ffffff;stop-opacity:1;"
         offset="0"
         id="stop7020" />
      <stop
         style="stop-color:#f0f0f0;stop-opacity:1"
         offset="0.25"
         id="stop7732" />
      <stop
         style="stop-color:#cccccc;stop-opacity:1"
         offset="1"
         id="stop7022" />
    </linearGradient>
    <linearGradient
       inkscape:collect="always"
       xlink:href="#linearGradient8250"
       id="linearGradient8252"
       x1="5.458415"
       y1="4.8895097"
       x2="12.337581"
       y2="11.768677"
       gradientUnits="userSpaceOnUse"
       gradientTransform="matrix(0.1875,0,0,0.1875,2.5153495,2.6070094)" />
    <linearGradient
       inkscape:collect="always"
       id="linearGradient8250">
      <stop
         style="stop-color:#0568ba;stop-opacity:1;"
         offset="0"
         id="stop8246" />
      <stop
         style="stop-color:#0568ba;stop-opacity:1"
         offset="0.23999999"
         id="stop9054" />
      <stop
         style="stop-color:#0f4c8a;stop-opacity:1"
         offset="0.80000001"
         id="stop8830" />
      <stop
         style="stop-color:#0f4c8f;stop-opacity:1"
         offset="1"
         id="stop8248" />
    </linearGradient>
  </defs>
  <rect
     style="fill:url(#linearGradient1924);fill-opacity:1;stroke-width:0.396875;stroke-linecap:round;stroke-linejoin:round"
     id="rect1836"
     width="5.291667"
     height="4.2333336"
     x="0.26458335"
     y="0.79374999"
     ry="0.26458335" />
  <circle
     style="opacity:0.95;fill:url(#linearGradient2853);fill-opacity:1;stroke-width:0.396874;stroke-linejoin:round"
     id="path853"
     cx="2.9104166"
     cy="2.1166668"
     r="0.79374999" />
  <path
     id="rect957"
     style="opacity:0.95;fill:url(#linearGradient2855);fill-opacity:1;stroke-width:0.289835;stroke-linejoin:round"
     d="M 2.1166667,3.1750001 C 1.8235083,3.1750001 1.5875,3.4110084 1.5875,3.7041667 V 3.8364584 C 1.59162,4.1943754 2.2319801,4.4864068 2.9104167,4.4979168 3.5466836,4.4918258 4.2324605,4.1401062 4.2333334,3.8364584 V 3.7041667 c 0,-0.2931583 -0.2360083,-0.5291666 -0.5291667,-0.5291666 z"
     sodipodi:nodetypes="sscccsss" />
  <circle
     style="fill:url(#linearGradient7026);fill-opacity:1;stroke-width:0.0661458"
     id="path6952"
     cx="4.2333336"
     cy="4.2014503"
     r="1.190625" />
  <path
     id="path5884"
     style="fill:url(#linearGradient6062);fill-opacity:1;stroke-width:0.0496093"
     d="M 3.7399526,2.709598 A 1.5875001,1.5875001 0 0 0 3.1759367,3.0350626 0.5953125,0.5953125 0 0 1 3.1592709,3.5982065 0.5953125,0.5953125 0 0 1 2.6840093,3.8905336 1.5875001,1.5875001 0 0 0 2.6458334,4.2183236 1.5875001,1.5875001 0 0 0 2.6845907,4.5462107 0.5953125,0.5953125 0 0 1 3.1592709,4.8384409 0.5953125,0.5953125 0 0 1 3.1770993,5.3995501 1.5875001,1.5875001 0 0 0 3.7383054,5.7236582 0.5953125,0.5953125 0 0 1 4.2333333,5.4585581 0.5953125,0.5953125 0 0 1 4.7286519,5.7235613 1.5875001,1.5875001 0 0 0 5.2923773,5.3974184 0.5953125,0.5953125 0 0 1 5.3073957,4.8384409 0.5953125,0.5953125 0 0 1 5.782076,4.5461138 1.5875001,1.5875001 0 0 0 5.8208334,4.2183236 1.5875001,1.5875001 0 0 0 5.7826574,3.8905336 0.5953125,0.5953125 0 0 1 5.3073957,3.5982065 0.5953125,0.5953125 0 0 1 5.2932492,3.0370004 1.5875001,1.5875001 0 0 0 4.7267141,2.709598 0.5953125,0.5953125 0 0 1 4.2333333,2.9780893 0.5953125,0.5953125 0 0 1 3.7399526,2.709598 Z m 0.4933807,0.7149757 a 0.79375005,0.79375005 0 0 1 0.7937501,0.7937499 0.79375005,0.79375005 0 0 1 -0.7937501,0.7937501 0.79375005,0.79375005 0 0 1 -0.79375,-0.7937501 0.79375005,0.79375005 0 0 1 0.79375,-0.7937499 z" />
  <circle
     style="fill:url(#linearGradient8252);fill-opacity:1;stroke-width:0.0496093"
     id="path8010"
     cx="4.2333326"
     cy="4.2183228"
     r="0.59531248" />
</svg>
