<?xml version="1.0" encoding="UTF-8" standalone="no"?>
<!-- Created with Inkscape (http://www.inkscape.org/) -->

<svg
   width="22"
   height="22"
   viewBox="0 0 5.8208332 5.8208336"
   version="1.1"
   id="svg5"
   inkscape:version="1.1.1 (3bf5ae0d25, 2021-09-20, custom)"
   sodipodi:docname="preferences-desktop-theme-windowdecorations.svg"
   xmlns:inkscape="http://www.inkscape.org/namespaces/inkscape"
   xmlns:sodipodi="http://sodipodi.sourceforge.net/DTD/sodipodi-0.dtd"
   xmlns:xlink="http://www.w3.org/1999/xlink"
   xmlns="http://www.w3.org/2000/svg"
   xmlns:svg="http://www.w3.org/2000/svg">
  <sodipodi:namedview
     id="namedview7"
     pagecolor="#ffffff"
     bordercolor="#666666"
     borderopacity="1.0"
     inkscape:pageshadow="2"
     inkscape:pageopacity="0.0"
     inkscape:pagecheckerboard="0"
     inkscape:document-units="px"
     showgrid="false"
     units="px"
     height="64px"
     inkscape:zoom="24.15625"
     inkscape:cx="15.958603"
     inkscape:cy="15.979301"
     inkscape:window-width="1920"
     inkscape:window-height="1004"
     inkscape:window-x="0"
     inkscape:window-y="0"
     inkscape:window-maximized="1"
     inkscape:current-layer="svg5" />
  <defs
     id="defs2">
    <linearGradient
       inkscape:collect="always"
       xlink:href="#linearGradient34770"
       id="linearGradient5000"
       x1="1.3890625"
       y1="-3.175"
       x2="2.7956591"
       y2="-4.1435666"
       gradientUnits="userSpaceOnUse"
       gradientTransform="matrix(0.41376477,0.41376477,0.4303104,-0.4303104,2.8767116,1.8215698)" />
    <linearGradient
       inkscape:collect="always"
       id="linearGradient34770">
      <stop
         style="stop-color:#f8a731;stop-opacity:1;"
         offset="0"
         id="stop34766" />
      <stop
         style="stop-color:#ea631d;stop-opacity:1"
         offset="1"
         id="stop34768" />
    </linearGradient>
    <linearGradient
       inkscape:collect="always"
       xlink:href="#linearGradient2353"
       id="linearGradient1623"
       x1="1.490428"
       y1="0.96836084"
       x2="3.9701264"
       y2="1.9523772"
       gradientUnits="userSpaceOnUse"
       gradientTransform="matrix(0.48614912,0.48614912,-0.50157846,0.50157846,3.0399829,1.3253157)" />
    <linearGradient
       inkscape:collect="always"
       id="linearGradient2353">
      <stop
         style="stop-color:#c6d0d7;stop-opacity:1;"
         offset="0"
         id="stop2349" />
      <stop
         style="stop-color:#82888b;stop-opacity:1"
         offset="1"
         id="stop2351" />
    </linearGradient>
  </defs>
  <rect
     style="fill:#797774;fill-opacity:1;stroke:none;stroke-width:0.109727;stroke-linecap:round;stroke-linejoin:round"
     id="rect261617"
     width="5.2916665"
     height="4.2333336"
     x="0.26458335"
     y="0.79374999"
     ry="0.5291667" />
  <path
     id="rect1043"
     style="fill:#fafafa;fill-opacity:1;stroke-width:0.79375;stroke-linecap:round;stroke-linejoin:round"
     d="M 0.79374994,1.5875 H 5.0270832 c 0.1465792,0 0.2645834,0.1180042 0.2645834,0.2645833 v 2.6458333 c 0,0.146579 -0.1180042,0.264583 -0.2645834,0.264583 H 0.79374994 c -0.14657912,0 -0.26458329,-0.118004 -0.26458329,-0.264583 V 1.8520833 c 0,-0.1465791 0.11800417,-0.2645833 0.26458329,-0.2645833 z"
     sodipodi:nodetypes="sssssssss" />
  <path
     id="rect1066"
     style="fill:#c4c4c4;fill-opacity:1;stroke-width:0.396875;stroke-linecap:round;stroke-linejoin:round"
     d="M 3.7041666,1.0583333 V 1.3229166 H 3.9687499 V 1.0583333 Z m 0.5291667,0 V 1.3229166 H 4.4979166 V 1.0583333 Z m 0.5291666,0 V 1.3229166 H 5.0270832 V 1.0583333 Z" />
  <path
     id="path6136"
     style="color:#000000;fill:url(#linearGradient5000);stroke-width:0.157887;stroke-linecap:round;stroke-linejoin:round;-inkscape-stroke:none"
     d="M 2.4833232,3.6814669 C 1.8099273,3.5080343 1.7701153,4.1601784 1.6019507,4.3818375 c -0.030685,0.044267 -0.0072,0.063735 0.021248,0.081187 0.4999022,0.056695 1.1208098,-0.3872026 0.8601245,-0.7815576 z"
     sodipodi:nodetypes="cccc" />
  <path
     id="path2852"
     style="color:#000000;fill:url(#linearGradient1623);fill-opacity:1;stroke-width:0.18477;stroke-linecap:round;stroke-linejoin:round;-inkscape-stroke:none"
     d="m 4.214961,1.9498292 c -0.2043855,-0.20439 -1.7684149,1.3582077 -2.0475883,1.6373761 -0.00122,0.0011 -0.00229,0.00229 -0.00347,0.00347 -0.037877,0.037877 -0.037877,0.098861 0,0.1367373 l 0.2734745,0.2734775 c 0.037877,0.037877 0.098861,0.037877 0.1367373,0 0.00119,-0.00119 0.00237,-0.00224 0.00347,-0.00347 0.2791714,-0.2791762 1.8417627,-1.8432119 1.6373792,-2.047591 z"
     sodipodi:nodetypes="ccsssscc" />
</svg>
