<?xml version="1.0" encoding="UTF-8" standalone="no"?>
<!-- Created with Inkscape (http://www.inkscape.org/) -->

<svg
   width="22"
   height="22"
   viewBox="0 0 5.8208332 5.8208336"
   version="1.1"
   id="svg69118"
   inkscape:version="1.1.1 (3bf5ae0d25, 2021-09-20, custom)"
   sodipodi:docname="preferences-desktop-default-applications.svg"
   xmlns:inkscape="http://www.inkscape.org/namespaces/inkscape"
   xmlns:sodipodi="http://sodipodi.sourceforge.net/DTD/sodipodi-0.dtd"
   xmlns:xlink="http://www.w3.org/1999/xlink"
   xmlns="http://www.w3.org/2000/svg"
   xmlns:svg="http://www.w3.org/2000/svg">
  <path
     style="color:#000000;fill:url(#linearGradient2319);fill-opacity:1;stroke-width:0.321848;stroke-linejoin:round;-inkscape-stroke:none"
     d="M 2.929314,0.37043879 C 2.7279792,0.36860306 2.5430434,0.48117265 2.4521989,0.66085668 L 1.9115942,1.7320084 0.7228924,1.8941898 C 0.28822537,1.9534712 0.11026956,2.4854812 0.42178815,2.7943596 L 1.2735549,3.6392116 1.0604561,4.8197415 C 0.98290787,5.251018 1.4331102,5.5843088 1.8229602,5.3842334 l 1.06738,-0.5487767 1.0566938,0.567635 C 4.3335048,5.6104451 4.7899991,5.2846959 4.7195956,4.8518005 L 4.527241,3.667499 5.3934657,2.8377337 C 5.7101317,2.5345293 5.5419267,1.9998376 5.1087055,1.9325351 L 3.9225182,1.7496095 3.4014002,0.66902861 C 3.3136562,0.48779348 3.1306659,0.37205391 2.929314,0.37043879 Z"
     id="path1410"
     sodipodi:nodetypes="ccccccccccccccccc" />
  <sodipodi:namedview
     id="namedview69120"
     pagecolor="#ffffff"
     bordercolor="#666666"
     borderopacity="1.0"
     inkscape:pageshadow="2"
     inkscape:pageopacity="0.0"
     inkscape:pagecheckerboard="0"
     inkscape:document-units="px"
     showgrid="false"
     units="px"
     inkscape:zoom="12.078125"
     inkscape:cx="2.5252264"
     inkscape:cy="13.909444"
     inkscape:window-width="1920"
     inkscape:window-height="1004"
     inkscape:window-x="0"
     inkscape:window-y="0"
     inkscape:window-maximized="1"
     inkscape:current-layer="svg69118" />
  <defs
     id="defs69115">
    <linearGradient
       inkscape:collect="always"
       id="linearGradient2317">
      <stop
         style="stop-color:#fcdf49;stop-opacity:1;"
         offset="0"
         id="stop2313" />
      <stop
         style="stop-color:#fcbf49;stop-opacity:1"
         offset="1"
         id="stop2315" />
    </linearGradient>
    <linearGradient
       inkscape:collect="always"
       xlink:href="#linearGradient2317"
       id="linearGradient2319"
       x1="2.9097679"
       y1="0.16711558"
       x2="2.9107516"
       y2="4.9296155"
       gradientUnits="userSpaceOnUse"
       gradientTransform="translate(6.4877394e-4,0.10583346)" />
  </defs>
  <path
     id="path2066"
     style="color:#000000;opacity:0.25;fill:#000000;stroke:none;stroke-width:1;stroke-linejoin:round;-inkscape-stroke:none"
     d="M 2.9286355,0.37145031 A 0.52921962,0.52921962 0 0 0 2.4516621,0.66032158 L 1.9106098,1.7326076 0.72308532,1.8948716 A 0.52921962,0.52921962 0 0 0 0.42232847,2.7950749 L 1.2739561,3.6389513 1.0610492,4.8207911 A 0.52921962,0.52921962 0 0 0 1.8227599,5.3850979 L 2.8893615,4.8362941 3.9476949,5.4026678 A 0.52921962,0.52921962 0 0 0 4.7192239,4.8517971 L 4.5280211,3.6684069 5.3930845,2.8384833 A 0.52921962,0.52921962 0 0 0 5.1078306,1.9341457 L 3.9223734,1.7501776 3.400958,0.67014011 A 0.52921962,0.52921962 0 0 0 2.9286355,0.37145031 Z m -0.00207,0.26354983 A 0.26460982,0.26460982 0 0 1 3.1627298,0.78537857 L 3.7446065,1.990473 5.0690734,2.1935614 A 0.26460982,0.26460982 0 0 1 5.2117002,2.6467637 L 4.2448344,3.5728055 4.4577412,4.8946885 A 0.26460982,0.26460982 0 0 1 4.0727518,5.170124 L 2.8929789,4.5376044 1.701837,5.1489366 A 0.26460982,0.26460982 0 0 1 1.3209817,4.8673001 L 1.55921,3.5490343 0.60784687,2.6059393 A 0.26460982,0.26460982 0 0 1 0.75822527,2.1568711 L 2.0847594,1.9749701 2.6883401,0.77969415 A 0.26460982,0.26460982 0 0 1 2.9265685,0.63500014 Z" />
</svg>
