<?xml version="1.0" encoding="UTF-8" standalone="no"?>
<!-- Created with Inkscape (http://www.inkscape.org/) -->

<svg
   width="22"
   height="22"
   viewBox="0 0 5.8208332 5.8208336"
   version="1.1"
   id="svg5"
   inkscape:version="1.1.1 (3bf5ae0d25, 2021-09-20, custom)"
   sodipodi:docname="preferences-system-time.svg"
   xmlns:inkscape="http://www.inkscape.org/namespaces/inkscape"
   xmlns:sodipodi="http://sodipodi.sourceforge.net/DTD/sodipodi-0.dtd"
   xmlns:xlink="http://www.w3.org/1999/xlink"
   xmlns="http://www.w3.org/2000/svg"
   xmlns:svg="http://www.w3.org/2000/svg">
  <sodipodi:namedview
     id="namedview7"
     pagecolor="#ffffff"
     bordercolor="#666666"
     borderopacity="1.0"
     inkscape:pageshadow="2"
     inkscape:pageopacity="0.0"
     inkscape:pagecheckerboard="0"
     inkscape:document-units="px"
     showgrid="false"
     units="px"
     height="64px"
     inkscape:zoom="24.15625"
     inkscape:cx="6.4786546"
     inkscape:cy="13.909444"
     inkscape:window-width="1920"
     inkscape:window-height="1004"
     inkscape:window-x="0"
     inkscape:window-y="0"
     inkscape:window-maximized="1"
     inkscape:current-layer="svg5" />
  <defs
     id="defs2">
    <radialGradient
       id="radialGradient875"
       cx="20.107"
       cy="28.705"
       r="28"
       gradientTransform="matrix(0.09398593,0.05307375,-0.04181703,0.07405133,1.293554,-0.63730346)"
       gradientUnits="userSpaceOnUse">
      <stop
         stop-color="#5ab5e2"
         offset="0"
         id="stop2" />
      <stop
         stop-color="#4189ac"
         offset=".45901"
         id="stop4" />
      <stop
         stop-color="#295e76"
         offset="1"
         id="stop6" />
    </radialGradient>
    <linearGradient
       id="linearGradient883"
       x1="4"
       x2="59.861"
       y1="31.360001"
       y2="31.360001"
       gradientTransform="matrix(0.08504056,0,0,0.08504056,0.18907468,0.18899676)"
       gradientUnits="userSpaceOnUse">
      <stop
         stop-color="#b0d6df"
         offset="0"
         id="stop9" />
      <stop
         stop-color="#e1f8fc"
         offset=".21709"
         id="stop11" />
      <stop
         stop-color="#96c3ce"
         offset="1"
         id="stop13" />
    </linearGradient>
    <linearGradient
       inkscape:collect="always"
       xlink:href="#linearGradient3161"
       id="linearGradient3163"
       x1="8.4666662"
       y1="15.345833"
       x2="8.4666662"
       y2="1.5874995"
       gradientUnits="userSpaceOnUse"
       gradientTransform="matrix(0.17307693,0,0,0.17307693,0.25440554,2.6356514)" />
    <linearGradient
       inkscape:collect="always"
       id="linearGradient3161">
      <stop
         style="stop-color:#c7ccd1;stop-opacity:1;"
         offset="0"
         id="stop3157" />
      <stop
         style="stop-color:#fdfdfd;stop-opacity:1"
         offset="1"
         id="stop3159" />
    </linearGradient>
    <linearGradient
       inkscape:collect="always"
       id="linearGradient1611">
      <stop
         style="stop-color:#9ca3a8;stop-opacity:1;"
         offset="0"
         id="stop1607" />
      <stop
         style="stop-color:#63737d;stop-opacity:1"
         offset="1"
         id="stop1609" />
    </linearGradient>
    <linearGradient
       inkscape:collect="always"
       xlink:href="#linearGradient1611"
       id="linearGradient1109"
       x1="1.8368058"
       y1="2.3578029"
       x2="1.8673608"
       y2="5.5564623"
       gradientUnits="userSpaceOnUse"
       gradientTransform="matrix(0.91666669,0,0,0.91666669,0.02204861,0.46302074)" />
  </defs>
  <rect
     x="0.52926821"
     y="0.5291667"
     width="4.7623987"
     height="4.7623987"
     rx="2.3811994"
     ry="2.3811994"
     fill="url(#radialGradient875)"
     id="rect30"
     style="fill:url(#radialGradient875);stroke-width:0.085041" />
  <path
     d="m 2.9227706,0.64822688 c -0.183646,0.0130239 -0.3632996,0.0467361 -0.5385003,0.10352636 -0.062505,0.002439 -0.1983459,0.0829458 -0.088747,0.12072663 0.051006,0.0544887 0.1727719,0.071829 0.1579846,0.16086603 0.01967,0.078262 -0.1819077,0.074711 -0.1148135,0.1455943 0.047573,0.062608 0.095145,0.1252195 0.1427209,0.1878293 C 2.569258,1.3385545 2.598245,1.2485905 2.6469801,1.1793452 2.782637,1.1195078 2.9746331,1.101434 3.0642852,0.9862855 3.0923778,0.9048328 3.1204704,0.82338748 3.1485639,0.74193487 3.0732987,0.71069857 2.9980324,0.67946228 2.9227707,0.64821851 Z m -0.6529725,0.020925 c -0.084144,-0.009077 -0.1379666,0.0426339 -0.2007747,0.076536 -0.077311,0.009469 -0.16466,0.0382437 -0.2133793,0.10042335 0.086723,0.0393561 0.14134,-0.002574 0.216197,-0.03231 0.069503,-0.0356076 0.3058968,-0.0504639 0.197957,-0.14465771 z M 1.7268212,0.91889998 C 1.6835622,0.98493208 1.7572072,1.0805046 1.6582492,1.1151585 1.6094022,1.1769948 1.5667152,1.278493 1.6888062,1.2416638 1.7186735,1.1500354 1.8114536,1.0215057 1.917044,1.0751702 2.0233963,1.1037452 2.1218271,1.2824614 2.2086615,1.1409062 2.2086264,1.1040899 2.073592,1.0825538 2.0766081,0.99248587 2.0165196,0.96670717 1.8880727,1.0135522 1.8925573,0.91987027 c -0.08681,-0.0385461 -0.1118132,0.15352393 -0.1425782,0.04617 -0.00772,-0.0157113 -0.01544,-0.0314226 -0.023161,-0.0471411 z M 4.0833353,1.0021491 C 3.9805866,1.0226952 3.8790997,1.0461654 3.798012,1.1167878 3.8215497,1.2108931 3.7001448,1.226728 3.6461471,1.2789633 3.6069691,1.3010713 3.6468607,1.4718487 3.6811851,1.445338 3.7541721,1.349042 3.7919269,1.432108 3.859775,1.47966 3.920843,1.536379 3.959619,1.3743317 3.927182,1.3286522 3.908151,1.2550313 4.000739,1.2005681 4.0340582,1.1402758 4.1359259,1.0749322 4.0498492,1.2236419 4.0465892,1.27556 3.9951692,1.4289881 4.2746683,1.28019 4.0904322,1.3948421 4.0410132,1.4441941 4.0229182,1.517307 3.9469807,1.5537788 3.9059787,1.6038248 3.7494919,1.5803678 3.7705656,1.5022988 3.7134206,1.4127338 3.7275256,1.6100957 3.7081106,1.6091507 3.6134026,1.5809297 3.585217,1.6866417 3.525822,1.7372194 3.480368,1.7894384 3.3199038,1.7570384 3.439702,1.8379287 3.527076,1.9387487 3.422289,1.9201037 3.35001,1.9469554 3.2478645,1.9645444 3.264938,2.0535063 3.267581,2.1338321 c 0.00157,0.044267 0.099606,0.1099401 0.1492535,0.079066 0.099169,-0.01062 0.074146,-0.1323232 0.1474122,-0.1694379 0.060876,-0.05211 0.1035979,-0.1001694 0.1950044,-0.1014152 0.042201,0.040275 0.1274973,0.1008199 0.162088,0.1337438 -0.095462,0.1040105 0.043846,0.095534 0.057172,7.715e-4 0.047088,-0.052181 -0.1551033,-0.174971 -0.021767,-0.1210205 0.088255,0.029115 0.06796,0.1192745 0.1072256,0.1801376 0.069798,0.1179887 0.077272,0.029944 0.08377,-0.061329 0.1159631,-0.03643 0.1473949,0.2019349 0.3036969,0.1460321 0.1171392,0.03078 0.061629,0.1065265 -0.012333,0.1554364 -0.067548,0.049269 -0.1682712,0.015499 -0.2424059,-0.01125 C 4.1233567,2.3269145 4.0349667,2.3485019 3.9963596,2.4233882 3.9106524,2.3494207 3.8499793,2.2319161 3.7254667,2.2254078 3.6075734,2.2193004 3.488553,2.2506463 3.3747794,2.2826992 3.2487187,2.4306432 3.1123316,2.5747293 3.0535953,2.7638206 c -0.06097,0.074926 0.069626,0.1198137 -0.029643,0.1880035 -0.069111,0.064527 0.023538,0.1442289 0.037841,0.2165856 0.074375,0.088199 0.1884004,0.378317 0.3032615,0.2660992 0.06464,-0.1021294 0.1075032,0.066899 0.1835111,-0.039176 0.063976,-0.058397 0.1157898,0.058674 0.2055056,0.017036 0.079778,0.039767 0.086715,0.1177187 0.04456,0.1923139 -0.027071,0.075736 0.1172818,0.1068763 0.07621,0.1952904 -0.019362,0.086461 0.018566,0.1598574 0.061517,0.2321112 -0.09547,0.099653 -0.083961,0.2472712 -0.060129,0.3721417 0.046711,0.1711922 0.113607,0.3428768 0.1069237,0.5231333 0.083651,0.021941 0.1453564,-0.033461 0.2145302,-0.06255 0.1320305,0.018675 0.2038556,-0.122203 0.2858402,-0.2030043 -0.06159,-0.082794 0.050596,-0.1185204 0.09697,-0.172082 C 4.5111282,4.4297252 4.4651646,4.3714734 4.5725559,4.3246824 4.6220945,4.274366 4.7148963,4.2459227 4.7311676,4.1757382 4.6885076,4.0486138 4.7128019,3.9135445 4.7065289,3.7821103 4.7591249,3.6761071 4.8149688,3.572359 4.9023272,3.4905085 4.9371662,3.3755605 5.020903,3.2702 5.012783,3.1468145 4.8091588,3.2077317 4.8706412,3.1209395 4.9834855,3.0384224 5.0617958,2.9809896 5.17314,2.9274183 5.1969519,2.8294957 5.2140429,2.7328506 5.1385143,2.5827955 5.0728041,2.7247866 5.0408847,2.6795355 4.9284399,2.6375712 4.9299957,2.5665396 c -0.02408,-0.1432446 0.038736,-0.057208 0.094581,0.01044 0.1298942,-0.096288 0.2994119,0.26575 0.2445886,0.00742 C 5.1948986,2.0253246 4.9114144,1.4971429 4.4867753,1.1260729 4.4479448,1.1674216 4.3831455,1.321585 4.3361248,1.2325995 4.2695563,1.1619819 4.2173108,1.0982282 4.3529089,1.1244452 4.4857956,1.0883804 4.3534189,1.0674113 4.2837592,1.059188 4.2139003,1.051034 4.1491181,1.0254443 4.0833257,1.002128 Z m -2.6009838,0.00347 C 1.3944375,1.0394802 1.5261315,1.16859 1.3685142,1.1272446 1.1957107,1.2055473 1.0805956,1.3955737 0.96048788,1.5435492 0.68032401,1.9394797 0.52800657,2.423323 0.52917333,2.9082943 c 0.0459702,0.094882 0.1591911,0.1270369 0.24389829,0.1794157 0.0860886,0.029449 0.1945043,0.025001 0.23735008,0.1201076 0.04792,0.050181 0.112218,0.1174718 0.1806774,0.1229175 0.1052012,-0.033711 0.1200362,0.061675 0.066962,0.1322356 -0.00575,0.077288 -0.091771,0.1396254 -0.082183,0.2076011 0.019166,0.076165 -0.095819,0.160056 -0.018359,0.2297379 0.081492,0.1456894 0.1687079,0.2871726 0.2789177,0.4130029 0.068549,0.060056 0.060421,0.1427451 0.052596,0.2253413 -0.027203,0.087295 0.055305,0.1377919 0.09959,0.2011082 C 1.4807065,4.9376233 1.7730066,4.9771673 1.8953447,5.0636843 1.9568498,5.0074406 1.9617386,4.9164071 2.0637749,4.9138671 2.1256499,4.8705195 2.1388592,4.7726623 2.1813585,4.7076 2.1799995,4.6384917 2.1357411,4.5739114 2.2075899,4.4986418 2.2617267,4.4529479 2.3734404,4.4834192 2.3935933,4.3880267 2.4671323,4.3122773 2.4076288,4.2072938 2.4076288,4.1153878 2.4647527,4.0371382 2.5633037,3.9770719 2.552366,3.8689492 2.564741,3.7076866 2.2744007,3.7149335 2.1720965,3.6171613 2.0463454,3.6135613 2.0717766,3.4421987 1.9738855,3.4194346 1.8767008,3.4243216 1.8413638,3.3481777 1.8069158,3.2708716 1.7533883,3.2343637 1.6526458,3.3085558 1.596632,3.262804 1.5331892,3.2293818 1.4762783,3.104708 1.4048661,3.1826204 1.3108802,3.2507665 1.21845,3.3199919 1.12929,3.2058982 1.0714677,3.1537945 1.1441175,3.0058855 1.062249,3.0152037 0.88747691,3.0784224 1.1176404,2.7613446 0.95403146,2.8034118 0.91528196,2.8641492 0.84095628,2.9578647 0.76868682,2.8859922 0.69611082,2.8518435 0.73191192,2.7408106 0.73514832,2.6743116 0.73828932,2.5965309 0.83672232,2.557752 0.89329172,2.522272 1.0030095,2.5713409 0.98049092,2.4251113 1.0721912,2.4739933 1.1611445,2.4550483 1.2013077,2.5977439 1.2374226,2.6030623 1.2586473,2.5327642 1.2203307,2.4300206 1.2855708,2.3837059 1.361799,2.3195422 1.4624066,2.2739092 1.4812181,2.1661039 1.4827841,2.0509412 1.6225265,2.147995 1.6572205,2.0695699 1.6892056,1.9797113 1.7824953,1.9853237 1.8612972,1.9683695 1.9044,1.9283771 2.0127335,1.8051937 1.8788994,1.8413087 1.8301527,1.8347207 1.6339136,1.8608387 1.7671655,1.8138848 1.8328043,1.7641985 1.9123632,1.7710835 1.9860454,1.7613248 2.0440738,1.7121972 2.145514,1.6957388 2.1499748,1.606293 2.1018122,1.5407896 1.9997925,1.5532572 2.0430987,1.4593088 2.0389137,1.3364151 1.9306743,1.4153114 1.895115,1.405964 1.9528653,1.3255986 1.8200217,1.274998 1.775436,1.2738711 1.745133,1.3496061 1.6599399,1.4149487 1.6900062,1.5021169 1.6011798,1.516543 1.5595641,1.5808354 1.5328709,1.6608794 1.506239,1.6701559 1.5148988,1.5038944 1.4129696,1.5192137 1.3409723,1.5174767 1.2519688,1.4100437 1.3277702,1.3677379 1.4316936,1.3019848 1.5609054,1.2505193 1.6266186,1.1454925 1.6644087,1.0514271 1.5947172,0.99369079 1.5019151,1.0070494 l -0.012939,-9e-4 z m 1.7485144,0.1083054 c -0.057356,0.044621 -0.1731448,0.013802 -0.1975918,0.056822 -0.010284,0.086771 0.1244494,0.085414 0.1782565,0.037511 0.087945,-0.032516 0.084025,-0.026582 0.019331,-0.094335 z m -1.2741002,0.044473 c -0.1218936,0.035865 -0.022282,0.115702 0.057289,0.1146387 0.094938,-0.00766 0.00661,-0.113956 -0.057289,-0.1146387 z m 1.4535634,0.239517 c -0.00872,0.077646 0.065867,0.1261317 0.035063,0.2107201 -0.048506,0.1065587 0.020204,0.1385544 0.103098,0.073057 0.1107095,-0.067739 -0.082961,-0.2161271 -0.1087657,-0.283777 h -0.029398 z m -0.036508,0.1248675 c -0.099487,-0.024455 -0.068013,0.1837575 3.479e-4,0.112075 0.073615,-0.012851 0.00292,-0.069574 -3.479e-4,-0.112075 z m -1.269656,0.1876621 c 0.014606,0.078961 0.019858,0.2041406 0.077666,0.06968 -7.93e-5,-0.026132 -0.057114,-0.046575 -0.077666,-0.06968 z m 2.402392,0.8118303 c 0.1169326,0.1019551 0.1643026,0.2496136 0.2302141,0.3850881 0.098074,0.051493 0.040018,0.1302435 0.053679,0.1964166 C 4.9270036,3.2233351 4.6521656,3.1596601 4.6855184,3.0292282 4.663235,2.8777371 4.5659343,2.776615 4.4864657,2.6670561 4.4802171,2.6090639 4.4180071,2.5429165 4.5065595,2.5222795 Z"
     fill="url(#linearGradient883)"
     id="path32"
     style="fill:url(#linearGradient883);stroke-width:0.085041" />
  <circle
     style="fill:url(#linearGradient1109);fill-opacity:1;stroke-width:0.0909508;stroke-linejoin:round"
     id="path1021"
     cx="1.7197917"
     cy="4.1010413"
     r="1.4552083" />
  <circle
     style="fill:url(#linearGradient3163);fill-opacity:1;stroke-width:0.0457933"
     id="path2899"
     cx="1.7197918"
     cy="4.1010418"
     r="1.1906251" />
  <path
     id="rect1636"
     style="fill:#444444;stroke-width:0.500001;stroke-linejoin:round;fill-opacity:1"
     d="M 6.4746094 12 C 6.209695 12.013342 6 12.231656 6 12.5 L 6 15.474609 C 5.9995696 15.483155 6 15.491344 6 15.5 C 6 15.777 6.223 16 6.5 16 L 6.5253906 16 L 9.5 16 C 9.777 16 10 15.777 10 15.5 C 10 15.223 9.777 15 9.5 15 L 7 15 L 7 12.5 C 7 12.223 6.777 12 6.5 12 C 6.4913437 12 6.483155 11.99957 6.4746094 12 z "
     transform="scale(0.26458334)" />
</svg>
