<?xml version="1.0" encoding="UTF-8" standalone="no"?>
<!-- Created with Inkscape (http://www.inkscape.org/) -->

<svg
   width="22"
   height="22"
   viewBox="0 0 5.8208333 5.8208336"
   version="1.1"
   id="svg5"
   inkscape:version="1.2.1 (9c6d41e410, 2022-07-14)"
   sodipodi:docname="preferences-desktop-hotcorners.svg"
   xmlns:inkscape="http://www.inkscape.org/namespaces/inkscape"
   xmlns:sodipodi="http://sodipodi.sourceforge.net/DTD/sodipodi-0.dtd"
   xmlns:xlink="http://www.w3.org/1999/xlink"
   xmlns="http://www.w3.org/2000/svg"
   xmlns:svg="http://www.w3.org/2000/svg">
  <sodipodi:namedview
     id="namedview7"
     pagecolor="#ffffff"
     bordercolor="#666666"
     borderopacity="1.0"
     inkscape:pageshadow="2"
     inkscape:pageopacity="0.0"
     inkscape:pagecheckerboard="0"
     inkscape:document-units="px"
     showgrid="false"
     units="px"
     height="64px"
     inkscape:zoom="16"
     inkscape:cx="-0.25"
     inkscape:cy="9.4375"
     inkscape:window-width="1920"
     inkscape:window-height="1006"
     inkscape:window-x="0"
     inkscape:window-y="0"
     inkscape:window-maximized="1"
     inkscape:current-layer="svg5"
     inkscape:showpageshadow="2"
     inkscape:deskcolor="#d1d1d1" />
  <defs
     id="defs2">
    <linearGradient
       inkscape:collect="always"
       id="linearGradient1591">
      <stop
         style="stop-color:#0f4f68;stop-opacity:1;"
         offset="0"
         id="stop1587" />
      <stop
         style="stop-color:#03355e;stop-opacity:1"
         offset="1"
         id="stop1589" />
    </linearGradient>
    <linearGradient
       inkscape:collect="always"
       id="linearGradient11972">
      <stop
         style="stop-color:#37d4e1;stop-opacity:1"
         offset="0"
         id="stop11968" />
      <stop
         style="stop-color:#086ebd;stop-opacity:1"
         offset="1"
         id="stop11970" />
    </linearGradient>
    <linearGradient
       inkscape:collect="always"
       xlink:href="#linearGradient11972"
       id="linearGradient1924"
       x1="0.5291667"
       y1="1.5875"
       x2="10.349433"
       y2="9.1792202"
       gradientUnits="userSpaceOnUse"
       gradientTransform="scale(0.50000001)" />
    <linearGradient
       inkscape:collect="always"
       xlink:href="#linearGradient1591"
       id="linearGradient3295"
       x1="4.7077208e-07"
       y1="4.3656249"
       x2="5.291667"
       y2="4.3656249"
       gradientUnits="userSpaceOnUse"
       gradientTransform="translate(0.26458334,0.26458331)" />
  </defs>
  <rect
     style="fill:url(#linearGradient1924);fill-opacity:1;stroke-width:0.396875;stroke-linecap:round;stroke-linejoin:round"
     id="rect1836"
     width="5.291667"
     height="4.2333336"
     x="0.26458335"
     y="0.79374999"
     ry="0.26458335" />
  <path
     id="rect1409"
     style="fill:url(#linearGradient3295);fill-opacity:1;stroke-width:0.271843;stroke-linecap:round;stroke-linejoin:round"
     d="m 5.5562505,4.2333334 v 0.5291663 c 0,0.146579 -0.1180045,0.2645835 -0.2645835,0.2645835 H 0.52916716 c -0.14657918,0 -0.26458335,-0.1180045 -0.26458335,-0.2645835 V 4.2333334 Z"
     sodipodi:nodetypes="csssscc" />
  <path
     id="path481"
     style="opacity:0.2;fill:#000000;stroke-width:0.529167;stroke-linecap:round;stroke-linejoin:round"
     d="M 0.52916668 0.79375002 C 0.38258765 0.79375002 0.26458334 0.91175433 0.26458334 1.0583334 L 0.26458334 1.8520834 A 1.0583334 1.0583334 0 0 0 1.3229167 0.79375002 L 0.52916668 0.79375002 z M 4.4979168 0.79375002 A 1.0583334 1.0583334 0 0 0 5.5562501 1.8520834 L 5.5562501 1.0583334 C 5.5562501 0.91175433 5.4382458 0.79375002 5.2916668 0.79375002 L 4.4979168 0.79375002 z M 0.26458334 3.9687501 L 0.26458334 4.7625001 C 0.26458334 4.9090791 0.38258765 5.0270834 0.52916668 5.0270834 L 1.3229167 5.0270834 A 1.0583334 1.0583334 0 0 0 0.26458334 3.9687501 z M 5.5562501 3.9687501 A 1.0583334 1.0583334 0 0 0 4.4979168 5.0270834 L 5.2916668 5.0270834 C 5.4382458 5.0270834 5.5562501 4.9090791 5.5562501 4.7625001 L 5.5562501 3.9687501 z " />
</svg>
