<?xml version="1.0" encoding="UTF-8" standalone="no"?>
<!-- Created with Inkscape (http://www.inkscape.org/) -->

<svg
   width="22"
   height="22"
   viewBox="0 0 5.8208333 5.8208336"
   version="1.1"
   id="svg5"
   inkscape:version="1.1.2 (0a00cf5339, 2022-02-04, custom)"
   sodipodi:docname="preferences-desktop-keyboard-shortcuts.svg"
   xmlns:inkscape="http://www.inkscape.org/namespaces/inkscape"
   xmlns:sodipodi="http://sodipodi.sourceforge.net/DTD/sodipodi-0.dtd"
   xmlns:xlink="http://www.w3.org/1999/xlink"
   xmlns="http://www.w3.org/2000/svg"
   xmlns:svg="http://www.w3.org/2000/svg">
  <sodipodi:namedview
     id="namedview7"
     pagecolor="#ffffff"
     bordercolor="#666666"
     borderopacity="1.0"
     inkscape:pageshadow="2"
     inkscape:pageopacity="0.0"
     inkscape:pagecheckerboard="0"
     inkscape:document-units="px"
     showgrid="false"
     units="px"
     height="64px"
     inkscape:zoom="37.409091"
     inkscape:cx="10.986634"
     inkscape:cy="11"
     inkscape:window-width="1920"
     inkscape:window-height="1028"
     inkscape:window-x="0"
     inkscape:window-y="0"
     inkscape:window-maximized="1"
     inkscape:current-layer="svg5"
     showguides="false" />
  <defs
     id="defs2">
    <linearGradient
       inkscape:collect="always"
       id="linearGradient23571">
      <stop
         style="stop-color:#b6bec5;stop-opacity:1;"
         offset="0"
         id="stop23567" />
      <stop
         style="stop-color:#9ba3aa;stop-opacity:1"
         offset="1"
         id="stop23569" />
    </linearGradient>
    <linearGradient
       inkscape:collect="always"
       xlink:href="#linearGradient23571"
       id="linearGradient23573"
       x1="0.5291667"
       y1="5.0270834"
       x2="16.404167"
       y2="12.170834"
       gradientUnits="userSpaceOnUse"
       gradientTransform="matrix(0.33333331,0,0,0.37037034,0.08819445,-0.27438266)" />
    <linearGradient
       inkscape:collect="always"
       xlink:href="#linearGradient2733"
       id="linearGradient1464"
       x1="12"
       y1="8"
       x2="16"
       y2="11.990234"
       gradientUnits="userSpaceOnUse"
       gradientTransform="matrix(0.26458334,0,0,0.26458334,1.3229489,1.0583334)" />
    <linearGradient
       inkscape:collect="always"
       id="linearGradient2733">
      <stop
         style="stop-color:#1b9de2;stop-opacity:1;"
         offset="0"
         id="stop2729" />
      <stop
         style="stop-color:#0178d4;stop-opacity:1"
         offset="1"
         id="stop2731" />
    </linearGradient>
  </defs>
  <rect
     style="fill:url(#linearGradient23573);fill-opacity:1;stroke-width:0.0929649;stroke-linejoin:round"
     id="rect858"
     width="5.291667"
     height="2.6458335"
     x="0.26458335"
     y="1.5875"
     ry="0.26458335" />
  <path
     id="rect1132"
     style="fill:#edeff0;fill-opacity:1;stroke-width:0.374176"
     d="M 0.52916668,1.8520833 V 2.38125 H 1.3229167 V 1.8520833 Z m 1.05833332,0 V 2.38125 H 2.1166667 V 1.8520833 Z m 0.79375,0 V 2.38125 H 2.9104167 V 1.8520833 Z m 0.79375,0 V 2.38125 H 3.7041667 V 1.8520833 Z m 0.7937501,0 V 2.38125 H 4.4979167 V 1.8520833 Z m 0.79375,0 V 2.38125 H 5.2916668 V 1.8520833 Z m -4.23333342,0.79375 V 3.175 H 1.5875 V 2.6458333 Z m 1.32291662,0 V 3.175 H 2.38125 V 2.6458333 Z m 0.7937501,0 V 3.175 H 3.175 V 2.6458333 Z m 0.79375,0 V 3.175 H 3.9687501 V 2.6458333 Z m 0.79375,0 V 3.175 H 5.2916668 V 2.6458333 Z m -3.43958338,0.79375 V 3.96875 H 1.3229167 V 3.4395833 Z m 0.79374998,0 V 3.96875 H 4.2333334 V 3.4395833 Z m 2.9104167,0 V 3.96875 H 5.0270834 V 3.4395833 Z" />
  <path
     id="rect1039"
     style="fill:url(#linearGradient1464);fill-opacity:1;stroke-width:0.264583;stroke-linecap:round;stroke-linejoin:round"
     d="M 4.497949,3.1750001 V 3.4395835 H 5.1046304 L 3.9822181,4.5619957 c -0.051824,0.051823 -0.051824,0.1352447 0,0.1870687 0.051824,0.051824 0.1352447,0.051824 0.1870686,0 L 5.291699,3.6266521 V 4.2307496 H 5.5562823 V 3.4395835 a 0.26458334,0.26458321 0 0 0 0,-5.16e-4 0.26458334,0.26458321 0 0 0 0,-5.159e-4 0.26458334,0.26458321 0 0 0 0,-5.16e-4 0.26458334,0.26458321 0 0 0 0,-5.159e-4 0.26458334,0.26458321 0 0 0 0,-5.159e-4 0.26458334,0.26458321 0 0 0 0,-5.16e-4 0.26458334,0.26458321 0 0 0 0,-5.159e-4 0.26458334,0.26458321 0 0 0 0,-5.159e-4 0.26458334,0.26458321 0 0 0 0,-5.16e-4 0.26458334,0.26458321 0 0 0 0,-5.159e-4 0.26458334,0.26458321 0 0 0 0,-5.16e-4 0.26458334,0.26458321 0 0 0 0,-5.159e-4 0.26458334,0.26458321 0 0 0 0,-5.159e-4 A 0.26458334,0.26458321 0 0 0 5.298417,3.1750001 h -0.00672 z" />
</svg>
