<?xml version="1.0" encoding="UTF-8" standalone="no"?>
<!-- Created with Inkscape (http://www.inkscape.org/) -->

<svg
   width="22"
   height="22"
   viewBox="0 0 5.8208332 5.8208336"
   version="1.1"
   id="svg5"
   inkscape:version="1.1.2 (0a00cf5339, 2022-02-04, custom)"
   sodipodi:docname="preferences-desktop-default-applications.svg"
   xmlns:inkscape="http://www.inkscape.org/namespaces/inkscape"
   xmlns:sodipodi="http://sodipodi.sourceforge.net/DTD/sodipodi-0.dtd"
   xmlns:xlink="http://www.w3.org/1999/xlink"
   xmlns="http://www.w3.org/2000/svg"
   xmlns:svg="http://www.w3.org/2000/svg">
  <sodipodi:namedview
     id="namedview7"
     pagecolor="#ffffff"
     bordercolor="#666666"
     borderopacity="1.0"
     inkscape:pageshadow="2"
     inkscape:pageopacity="0.0"
     inkscape:pagecheckerboard="0"
     inkscape:document-units="px"
     showgrid="false"
     units="px"
     height="64px"
     inkscape:zoom="36.181818"
     inkscape:cx="11"
     inkscape:cy="11"
     inkscape:window-width="1920"
     inkscape:window-height="1001"
     inkscape:window-x="0"
     inkscape:window-y="27"
     inkscape:window-maximized="1"
     inkscape:current-layer="svg5" />
  <defs
     id="defs2">
    <linearGradient
       inkscape:collect="always"
       xlink:href="#linearGradient1723"
       id="linearGradient1725"
       x1="4.4979162"
       y1="2.3812499"
       x2="4.4979162"
       y2="5.0270834"
       gradientUnits="userSpaceOnUse"
       gradientTransform="translate(-0.79374993,-0.5291665)" />
    <linearGradient
       inkscape:collect="always"
       id="linearGradient1723">
      <stop
         style="stop-color:#1088d6;stop-opacity:1;"
         offset="0"
         id="stop1719" />
      <stop
         style="stop-color:#076cbe;stop-opacity:1"
         offset="1"
         id="stop1721" />
    </linearGradient>
    <linearGradient
       inkscape:collect="always"
       xlink:href="#linearGradient6911"
       id="linearGradient59378"
       x1="35.875587"
       y1="-37.89032"
       x2="55.549019"
       y2="-19.004301"
       gradientUnits="userSpaceOnUse"
       gradientTransform="matrix(0.09071854,0,0,0.09098744,0.34412439,6.8346172)" />
    <linearGradient
       inkscape:collect="always"
       id="linearGradient6911">
      <stop
         style="stop-color:#50b10e;stop-opacity:1;"
         offset="0"
         id="stop6907" />
      <stop
         style="stop-color:#18840f;stop-opacity:1"
         offset="1"
         id="stop6909" />
    </linearGradient>
  </defs>
  <rect
     style="fill:#797774;fill-opacity:1;stroke:none;stroke-width:0.109727;stroke-linecap:round;stroke-linejoin:round"
     id="rect261617"
     width="5.2916665"
     height="4.2333336"
     x="0.26458335"
     y="0.79374999"
     ry="0.5291667" />
  <path
     id="rect1043"
     style="fill:#fafafa;fill-opacity:1;stroke-width:0.79375;stroke-linecap:round;stroke-linejoin:round"
     d="M 0.79374994,1.5875 H 5.0270832 c 0.1465792,0 0.2645834,0.1180042 0.2645834,0.2645833 v 2.6458333 c 0,0.146579 -0.1180042,0.264583 -0.2645834,0.264583 H 0.79374994 c -0.14657912,0 -0.26458329,-0.118004 -0.26458329,-0.264583 V 1.8520833 c 0,-0.1465791 0.11800417,-0.2645833 0.26458329,-0.2645833 z"
     sodipodi:nodetypes="sssssssss" />
  <rect
     style="fill:url(#linearGradient1725);fill-opacity:1;stroke:none;stroke-width:0.118158;stroke-linecap:round;stroke-linejoin:round"
     id="rect261621"
     width="1.5875"
     height="2.6458333"
     x="2.1166668"
     y="1.8520833"
     ry="0.26458335" />
  <path
     id="rect845"
     style="fill:#bebebe;fill-opacity:1;stroke-width:0.561266;stroke-linecap:round;stroke-linejoin:round"
     d="M 0.79375001,2.1166667 V 2.38125 H 1.8520834 V 2.1166667 Z m 3.17499999,0 V 2.38125 H 5.0270835 V 2.1166667 Z M 0.79375001,2.6458336 V 2.9104169 H 1.8520834 V 2.6458336 Z m 3.17499999,0 V 2.9104169 H 5.0270835 V 2.6458336 Z M 0.79375001,3.1750003 V 3.4395837 H 1.8520834 V 3.1750003 Z m 3.17499999,0 V 3.4395837 H 5.0270835 V 3.1750003 Z M 0.79375001,3.7041669 V 3.9687502 H 1.8520834 V 3.7041669 Z m 3.17500009,0 V 3.9687502 H 5.0270834 V 3.7041669 Z"
     sodipodi:nodetypes="cccccccccccccccccccccccccccccccccccccccc" />
  <path
     id="rect1066"
     style="fill:#c4c4c4;fill-opacity:1;stroke-width:0.396875;stroke-linecap:round;stroke-linejoin:round"
     d="M 3.7041666,1.0583333 V 1.3229166 H 3.9687499 V 1.0583333 Z m 0.5291667,0 V 1.3229166 H 4.4979166 V 1.0583333 Z m 0.5291666,0 V 1.3229166 H 5.0270832 V 1.0583333 Z" />
  <circle
     style="fill:url(#linearGradient59378);fill-opacity:1;stroke-width:0.0721146;stroke-linecap:round;stroke-linejoin:round"
     id="path55509"
     cx="4.4979162"
     cy="4.2333331"
     r="1.3229164" />
  <path
     id="path69248"
     style="opacity:0.2;fill:#4d4d4d;fill-opacity:0.996078;stroke-width:0.571242;stroke-linecap:round;stroke-linejoin:round"
     d="M 17 11 C 14.238576 11 12 13.238577 12 16 C 12 18.761423 14.238576 21 17 21 C 19.761423 21 22 18.761423 22 16 C 22 13.238577 19.761423 11 17 11 z M 17 12 C 19.209138 12 21 13.790861 21 16 C 21 18.209138 19.209138 20 17 20 C 14.79086 20 13 18.209138 13 16 C 13 13.790861 14.79086 12 17 12 z "
     transform="scale(0.26458334)" />
  <path
     id="rect1469"
     style="fill:#ffffff;stroke-width:0.529151;stroke-linecap:round;stroke-linejoin:round"
     d="m 4.4409216,4.715385 c -0.05206,0.04706 -0.131948,0.04527 -0.182151,-0.0049 -0.0016,-0.0016 -0.0032,-0.003 -0.0047,-0.0047 L 3.8525692,4.3042817 c -0.05182,-0.05182 -0.05182,-0.135261 0,-0.187084 0.05182,-0.05182 0.135262,-0.05182 0.187084,0 L 4.3523626,4.42991 5.0392409,3.7430317 c 0.05182,-0.05182 0.135262,-0.05182 0.187084,0 0.05182,0.05182 0.05182,0.135262 0,0.187084 L 4.4506546,4.705786 c -0.0015,0.0017 -0.0031,0.0031 -0.0047,0.0048 -0.0016,0.0016 -0.0032,0.0034 -0.005,0.0049 z"
     sodipodi:nodetypes="cscccccscccccc" />
</svg>
