<?xml version="1.0" encoding="UTF-8" standalone="no"?>
<svg
   width="22"
   height="22"
   viewBox="0 0 5.82076 5.82076"
   version="1.1"
   id="svg1886"
   inkscape:version="1.1.2 (0a00cf5339, 2022-02-04, custom)"
   sodipodi:docname="utilities-system-monitor.svg"
   xmlns:inkscape="http://www.inkscape.org/namespaces/inkscape"
   xmlns:sodipodi="http://sodipodi.sourceforge.net/DTD/sodipodi-0.dtd"
   xmlns:xlink="http://www.w3.org/1999/xlink"
   xmlns="http://www.w3.org/2000/svg"
   xmlns:svg="http://www.w3.org/2000/svg"
   xmlns:rdf="http://www.w3.org/1999/02/22-rdf-syntax-ns#"
   xmlns:cc="http://creativecommons.org/ns#"
   xmlns:dc="http://purl.org/dc/elements/1.1/">
  <defs
     id="defs1880">
    <linearGradient
       id="linearGradient873"
       x1="-48.646"
       x2="-32.771999"
       y1="-3.0915"
       y2="9.5740004"
       gradientTransform="matrix(1,0,0,0.91665,49.175,7.5514)"
       gradientUnits="userSpaceOnUse">
      <stop
         offset="0"
         id="stop2"
         style="stop-color:#b6c1cb;stop-opacity:1" />
      <stop
         offset="1"
         id="stop4"
         style="stop-color:#8e979e;stop-opacity:1" />
    </linearGradient>
    <linearGradient
       inkscape:collect="always"
       xlink:href="#linearGradient13610"
       id="linearGradient13612"
       x1="15.420015"
       y1="5.2335482"
       x2="15.345531"
       y2="13.761695"
       gradientUnits="userSpaceOnUse"
       gradientTransform="matrix(1.3083238,0,0,1.3083238,-0.07692282,-0.39091772)" />
    <linearGradient
       inkscape:collect="always"
       id="linearGradient13610">
      <stop
         style="stop-color:#0e7fd5;stop-opacity:1;"
         offset="0"
         id="stop13606" />
      <stop
         style="stop-color:#0e7fd5;stop-opacity:0;"
         offset="1"
         id="stop13608" />
    </linearGradient>
    <linearGradient
       inkscape:collect="always"
       xlink:href="#linearGradient873"
       id="linearGradient1265"
       x1="4.49786"
       y1="0.79373997"
       x2="4.49786"
       y2="5.02702"
       gradientUnits="userSpaceOnUse" />
  </defs>
  <sodipodi:namedview
     id="base"
     pagecolor="#ffffff"
     bordercolor="#666666"
     borderopacity="1.0"
     inkscape:pageopacity="0.0"
     inkscape:pageshadow="2"
     inkscape:zoom="37.409091"
     inkscape:cx="10.986634"
     inkscape:cy="11"
     inkscape:document-units="px"
     inkscape:current-layer="svg1886"
     inkscape:document-rotation="0"
     showgrid="false"
     units="px"
     inkscape:window-width="1920"
     inkscape:window-height="1028"
     inkscape:window-x="0"
     inkscape:window-y="0"
     inkscape:window-maximized="1"
     inkscape:pagecheckerboard="0"
     showguides="false" />
  <metadata
     id="metadata1883">
    <rdf:RDF>
      <cc:Work
         rdf:about="">
        <dc:format>image/svg+xml</dc:format>
        <dc:type
           rdf:resource="http://purl.org/dc/dcmitype/StillImage" />
      </cc:Work>
    </rdf:RDF>
  </metadata>
  <rect
     style="fill:url(#linearGradient1265);fill-opacity:1;stroke-width:0.26458;stroke-linecap:round;stroke-linejoin:round"
     id="rect1056"
     width="5.2916002"
     height="4.2332802"
     x="0.26458001"
     y="0.79373997"
     ry="0.52916002" />
  <rect
     style="fill:#edeff1;fill-opacity:1;stroke:none;stroke-width:0.340174;stroke-linecap:butt;stroke-linejoin:round"
     id="rect14176"
     width="4.7624397"
     height="3.7041199"
     x="0.52916008"
     y="1.05832"
     ry="0.26458001" />
  <path
     id="rect3612"
     style="opacity:0.5;fill:url(#linearGradient13612);fill-opacity:1;stroke-width:0.692309;stroke-linecap:round;stroke-linejoin:round"
     d="M 7.1308594,9.2636719 6.4960938,13.080078 a 0.50005,0.50005 0 0 1 -0.140625,0.273438 l -1.0039063,0.996093 a 0.50005,0.50005 0 0 1 -0.5761719,0.09766 L 2.8789062,13.501953 H 2 V 18 h 18 v -4.673828 h -0.002 v 0.175781 H 18.5 a 0.50005,0.50005 0 0 1 -0.376953,-0.169922 l -1.033203,-1.189453 -1.181641,0.398438 A 0.50005,0.50005 0 0 1 15.265625,12.203125 L 15.007812,11.287109 14.75,14.048828 a 0.50005,0.50005 0 0 1 -0.177734,0.332031 l -1.75,1.498047 A 0.50005,0.50005 0 0 1 12.033203,15.6875 L 10.164062,11 H 8.0019531 A 0.50005,0.50005 0 0 1 7.5214844,10.636719 Z"
     transform="scale(0.26458)" />
  <path
     style="color:#000000;fill:#0e7fd5;fill-opacity:1;stroke-linejoin:round;-inkscape-stroke:none"
     d="M 1.84375,1.7207031 A 0.13230323,0.13230323 0 0 0 1.7207031,1.8300781 L 1.4648437,3.375 1.296875,3.5429688 0.85351563,3.3203125 A 0.13230323,0.13230323 0 0 0 0.79296875,3.3066406 H 0.52929687 v 0.265625 h 0.23242188 l 0.50195315,0.25 A 0.13230323,0.13230323 0 0 0 1.4160156,3.796875 L 1.6816406,3.5332031 A 0.13230323,0.13230323 0 0 0 1.71875,3.4609375 L 1.8867187,2.4511719 1.9902344,2.8144531 a 0.13230323,0.13230323 0 0 0 0.1269531,0.095703 h 0.5722656 l 0.4941407,1.2402343 a 0.13230323,0.13230323 0 0 0 0.2089843,0.050781 L 3.8554688,3.8046875 a 0.13230323,0.13230323 0 0 0 0.046875,-0.087891 l 0.068359,-0.7304688 0.068359,0.2421875 a 0.13230323,0.13230323 0 0 0 0.1699219,0.089844 l 0.3125,-0.1054688 0.2734375,0.3144532 a 0.13230323,0.13230323 0 0 0 0.099609,0.044922 H 5.2910156 V 3.3066406 H 4.9550781 L 4.6640625,2.9726563 A 0.13230323,0.13230323 0 0 0 4.5214844,2.9335938 L 4.2558594,3.0214844 4.0292969,2.2304688 A 0.13230323,0.13230323 0 0 0 3.7714844,2.2539063 L 3.6425781,3.6386719 3.3613281,3.8808594 2.9003906,2.7285156 A 0.13230323,0.13230323 0 0 0 2.7773438,2.6464844 H 2.2167969 L 1.9785156,1.8164062 A 0.13230323,0.13230323 0 0 0 1.84375,1.7207031 Z"
     id="path2326" />
</svg>
