<?xml version="1.0" encoding="UTF-8" standalone="no"?>
<!-- Created with Inkscape (http://www.inkscape.org/) -->

<svg
   width="22"
   height="22"
   viewBox="0 0 5.8208333 5.8208336"
   version="1.1"
   id="svg5"
   inkscape:version="1.1.2 (0a00cf5339, 2022-02-04, custom)"
   sodipodi:docname="xfce-terminal-settings.svg"
   xmlns:inkscape="http://www.inkscape.org/namespaces/inkscape"
   xmlns:sodipodi="http://sodipodi.sourceforge.net/DTD/sodipodi-0.dtd"
   xmlns:xlink="http://www.w3.org/1999/xlink"
   xmlns="http://www.w3.org/2000/svg"
   xmlns:svg="http://www.w3.org/2000/svg">
  <sodipodi:namedview
     id="namedview7"
     pagecolor="#ffffff"
     bordercolor="#666666"
     borderopacity="1.0"
     inkscape:pageshadow="2"
     inkscape:pageopacity="0.0"
     inkscape:pagecheckerboard="0"
     inkscape:document-units="px"
     showgrid="false"
     units="px"
     width="64px"
     inkscape:zoom="17.655572"
     inkscape:cx="3.6249179"
     inkscape:cy="13.225286"
     inkscape:window-width="1920"
     inkscape:window-height="1004"
     inkscape:window-x="0"
     inkscape:window-y="24"
     inkscape:window-maximized="1"
     inkscape:current-layer="svg5"
     showguides="false" />
  <defs
     id="defs2">
    <linearGradient
       inkscape:collect="always"
       id="linearGradient3366">
      <stop
         style="stop-color:#cccccc;stop-opacity:1;"
         offset="0"
         id="stop3362" />
      <stop
         style="stop-color:#cfcfcf;stop-opacity:1"
         offset="1"
         id="stop3364" />
    </linearGradient>
    <linearGradient
       inkscape:collect="always"
       id="linearGradient3102">
      <stop
         style="stop-color:#979797;stop-opacity:1;"
         offset="0"
         id="stop3098" />
      <stop
         style="stop-color:#999999;stop-opacity:1"
         offset="1"
         id="stop3100" />
    </linearGradient>
    <linearGradient
       inkscape:collect="always"
       id="linearGradient3000">
      <stop
         style="stop-color:#616161;stop-opacity:1;"
         offset="0"
         id="stop2996" />
      <stop
         style="stop-color:#636363;stop-opacity:1"
         offset="1"
         id="stop2998" />
    </linearGradient>
    <linearGradient
       inkscape:collect="always"
       id="linearGradient962">
      <stop
         style="stop-color:#4f4f4f;stop-opacity:1;"
         offset="0"
         id="stop958" />
      <stop
         style="stop-color:#303030;stop-opacity:1"
         offset="1"
         id="stop960" />
    </linearGradient>
    <linearGradient
       inkscape:collect="always"
       xlink:href="#linearGradient962"
       id="linearGradient1795"
       x1="0.5291667"
       y1="8.4666672"
       x2="16.404167"
       y2="8.4666672"
       gradientUnits="userSpaceOnUse"
       gradientTransform="matrix(0.33333335,0,0,0.33333337,0.08819444,0.08819433)" />
    <linearGradient
       inkscape:collect="always"
       xlink:href="#linearGradient3000"
       id="linearGradient3002"
       x1="11.112499"
       y1="3.175"
       x2="18.52808"
       y2="3.175"
       gradientUnits="userSpaceOnUse"
       gradientTransform="matrix(0.25,0,0,0.25,0.92604186,0.2645833)" />
    <linearGradient
       inkscape:collect="always"
       xlink:href="#linearGradient3102"
       id="linearGradient3104"
       x1="5.8208332"
       y1="3.1750002"
       x2="11.1125"
       y2="3.1750002"
       gradientUnits="userSpaceOnUse"
       gradientTransform="matrix(0.40000005,0,0,0.37499998,-0.47625022,-2.8161622e-8)" />
    <linearGradient
       inkscape:collect="always"
       xlink:href="#linearGradient3366"
       id="linearGradient3368"
       x1="0.5291667"
       y1="3.175"
       x2="7.9375005"
       y2="3.175"
       gradientUnits="userSpaceOnUse"
       gradientTransform="matrix(0.25,0,0,0.25,0.13229167,0.26458328)" />
    <linearGradient
       inkscape:collect="always"
       xlink:href="#linearGradient3366"
       id="linearGradient1977"
       x1="2.1166668"
       y1="2.778125"
       x2="3.4395833"
       y2="3.175"
       gradientUnits="userSpaceOnUse"
       gradientTransform="matrix(1.1999999,0,0,1.3333333,0.63499995,0.26458316)" />
    <linearGradient
       inkscape:collect="always"
       xlink:href="#linearGradient3366"
       id="linearGradient2495"
       x1="2.9104168"
       y1="3.7041667"
       x2="4.7625003"
       y2="4.2333336"
       gradientUnits="userSpaceOnUse" />
    <linearGradient
       inkscape:collect="always"
       xlink:href="#linearGradient3102"
       id="linearGradient2687"
       x1="2.9104171"
       y1="3.7041667"
       x2="4.7625003"
       y2="4.2333336"
       gradientUnits="userSpaceOnUse"
       gradientTransform="translate(-7.1437508,-0.79374979)" />
    <linearGradient
       inkscape:collect="always"
       xlink:href="#linearGradient7024"
       id="linearGradient7026"
       x1="14.634075"
       y1="13.653037"
       x2="4.0507412"
       y2="3.0697033"
       gradientUnits="userSpaceOnUse"
       gradientTransform="matrix(0.25,0,0,0.25,1.8977324,2.1111107)" />
    <linearGradient
       inkscape:collect="always"
       id="linearGradient7024">
      <stop
         style="stop-color:#ffffff;stop-opacity:1;"
         offset="0"
         id="stop7020" />
      <stop
         style="stop-color:#f0f0f0;stop-opacity:1"
         offset="0.25"
         id="stop7732" />
      <stop
         style="stop-color:#cccccc;stop-opacity:1"
         offset="1"
         id="stop7022" />
    </linearGradient>
    <linearGradient
       inkscape:collect="always"
       xlink:href="#linearGradient6060"
       id="linearGradient6062"
       x1="1.0583334"
       y1="1.0583338"
       x2="15.345835"
       y2="13.229167"
       gradientUnits="userSpaceOnUse"
       gradientTransform="matrix(0.1875,0,0,0.1875,2.6458336,2.6308237)" />
    <linearGradient
       inkscape:collect="always"
       id="linearGradient6060">
      <stop
         style="stop-color:#8a8f97;stop-opacity:1;"
         offset="0"
         id="stop6056" />
      <stop
         style="stop-color:#8a8f97;stop-opacity:1"
         offset="0.14573747"
         id="stop6576" />
      <stop
         style="stop-color:#616e7a;stop-opacity:1"
         offset="0.89999998"
         id="stop6770" />
      <stop
         style="stop-color:#616e7a;stop-opacity:1"
         offset="1"
         id="stop6058" />
    </linearGradient>
    <linearGradient
       inkscape:collect="always"
       xlink:href="#linearGradient8250"
       id="linearGradient8252"
       x1="5.458415"
       y1="4.8895097"
       x2="12.337581"
       y2="11.768677"
       gradientUnits="userSpaceOnUse"
       gradientTransform="matrix(0.1875,0,0,0.1875,2.5153495,2.6070093)" />
    <linearGradient
       inkscape:collect="always"
       id="linearGradient8250">
      <stop
         style="stop-color:#0568ba;stop-opacity:1;"
         offset="0"
         id="stop8246" />
      <stop
         style="stop-color:#0568ba;stop-opacity:1"
         offset="0.23999999"
         id="stop9054" />
      <stop
         style="stop-color:#0f4c8a;stop-opacity:1"
         offset="0.80000001"
         id="stop8830" />
      <stop
         style="stop-color:#0f4c8f;stop-opacity:1"
         offset="1"
         id="stop8248" />
    </linearGradient>
  </defs>
  <rect
     style="fill:url(#linearGradient1795);fill-opacity:1;stroke-width:0.0881943"
     id="rect1685"
     width="5.291667"
     height="4.2333336"
     x="0.26458335"
     y="0.79375005"
     ry="0.26458335" />
  <path
     id="rect1899"
     style="fill:url(#linearGradient3368);fill-opacity:1;stroke-width:0.0661457"
     d="M 0.52916669,0.79375002 H 5.2916666 c 0.1465793,0 0.2645835,0.1180042 0.2645835,0.26458318 V 1.5874999 H 0.26458334 V 1.0583332 c 0,-0.14657898 0.11800417,-0.26458318 0.26458335,-0.26458318 z"
     sodipodi:nodetypes="sssccss" />
  <rect
     style="fill:url(#linearGradient3104);fill-opacity:1;stroke-width:0.102473"
     id="rect2168"
     width="2.1166668"
     height="0.79374999"
     x="1.8520832"
     y="0.79375005" />
  <path
     id="rect2398"
     style="fill:url(#linearGradient3002);fill-opacity:1;stroke-width:0.0810117"
     d="m 3.7041666,0.79375002 h 1.5875005 c 0.146579,0 0.2645832,0.1180042 0.2645832,0.26458318 l -3e-7,0.5291667 H 3.7041666 Z"
     sodipodi:nodetypes="cssccc" />
  <g
     id="g4959"
     transform="matrix(0.16563071,0.17677669,-0.16563071,0.17677669,1.380021,0.02470498)" />
  <rect
     style="fill:url(#linearGradient1977);fill-opacity:1;stroke-width:0.334674"
     id="rect1969"
     width="1.5875"
     height="0.5291667"
     x="3.175"
     y="3.9687498"
     ry="0.13229167" />
  <g
     id="g3073"
     transform="rotate(-135,2.5543355,3.7664478)">
    <rect
       style="fill:url(#linearGradient2687);fill-opacity:1;stroke-width:0.264583"
       id="rect2679"
       width="1.8520833"
       height="0.52916694"
       x="-4.2333336"
       y="2.9104168"
       ry="0.13229167"
       transform="rotate(-90)" />
    <rect
       style="fill:url(#linearGradient2495);fill-opacity:1;stroke-width:0.264583"
       id="rect2487"
       width="1.8520833"
       height="0.52916694"
       x="2.9104168"
       y="3.7041667"
       ry="0.13229167" />
  </g>
  <circle
     style="fill:url(#linearGradient7026);fill-opacity:1;stroke-width:0.0661458"
     id="path6952"
     cx="4.2333336"
     cy="4.2014503"
     r="1.190625" />
  <path
     id="path5884"
     style="fill:url(#linearGradient6062);fill-opacity:1;stroke-width:0.0496093"
     d="M 3.7399526,2.7095979 A 1.5875001,1.5875001 0 0 0 3.1759367,3.0350625 0.5953125,0.5953125 0 0 1 3.1592709,3.5982064 0.5953125,0.5953125 0 0 1 2.6840093,3.8905335 1.5875001,1.5875001 0 0 0 2.6458334,4.2183235 1.5875001,1.5875001 0 0 0 2.6845907,4.5462106 0.5953125,0.5953125 0 0 1 3.1592709,4.8384408 0.5953125,0.5953125 0 0 1 3.1770993,5.39955 1.5875001,1.5875001 0 0 0 3.7383054,5.7236581 0.5953125,0.5953125 0 0 1 4.2333333,5.458558 0.5953125,0.5953125 0 0 1 4.7286519,5.7235612 1.5875001,1.5875001 0 0 0 5.2923773,5.3974183 0.5953125,0.5953125 0 0 1 5.3073957,4.8384408 0.5953125,0.5953125 0 0 1 5.782076,4.5461137 1.5875001,1.5875001 0 0 0 5.8208334,4.2183235 1.5875001,1.5875001 0 0 0 5.7826574,3.8905335 0.5953125,0.5953125 0 0 1 5.3073957,3.5982064 0.5953125,0.5953125 0 0 1 5.2932492,3.0370003 1.5875001,1.5875001 0 0 0 4.7267141,2.7095979 0.5953125,0.5953125 0 0 1 4.2333333,2.9780892 0.5953125,0.5953125 0 0 1 3.7399526,2.7095979 Z m 0.4933807,0.7149757 a 0.79375005,0.79375005 0 0 1 0.7937501,0.7937499 0.79375005,0.79375005 0 0 1 -0.7937501,0.7937501 0.79375005,0.79375005 0 0 1 -0.79375,-0.7937501 0.79375005,0.79375005 0 0 1 0.79375,-0.7937499 z" />
  <circle
     style="fill:url(#linearGradient8252);fill-opacity:1;stroke-width:0.0496093"
     id="path8010"
     cx="4.2333326"
     cy="4.2183228"
     r="0.59531248" />
</svg>
