<?xml version="1.0" encoding="UTF-8" standalone="no"?>
<!-- Created with Inkscape (http://www.inkscape.org/) -->

<svg
   width="24"
   height="24"
   viewBox="0 0 6.35 6.3500003"
   version="1.1"
   id="svg5"
   inkscape:version="1.1.1 (3bf5ae0d25, 2021-09-20, custom)"
   sodipodi:docname="folder-music.svg"
   xmlns:inkscape="http://www.inkscape.org/namespaces/inkscape"
   xmlns:sodipodi="http://sodipodi.sourceforge.net/DTD/sodipodi-0.dtd"
   xmlns:xlink="http://www.w3.org/1999/xlink"
   xmlns="http://www.w3.org/2000/svg"
   xmlns:svg="http://www.w3.org/2000/svg">
  <sodipodi:namedview
     id="namedview7"
     pagecolor="#ffffff"
     bordercolor="#666666"
     borderopacity="1.0"
     inkscape:pageshadow="2"
     inkscape:pageopacity="0.0"
     inkscape:pagecheckerboard="0"
     inkscape:document-units="px"
     showgrid="false"
     units="px"
     height="64px"
     inkscape:zoom="32"
     inkscape:cx="12.59375"
     inkscape:cy="14.421875"
     inkscape:window-width="1920"
     inkscape:window-height="996"
     inkscape:window-x="0"
     inkscape:window-y="0"
     inkscape:window-maximized="1"
     inkscape:current-layer="svg5" />
  <defs
     id="defs2">
    <linearGradient
       inkscape:collect="always"
       id="linearGradient11972">
      <stop
         style="stop-color:#f09154;stop-opacity:1"
         offset="0"
         id="stop11968" />
      <stop
         style="stop-color:#9d66af;stop-opacity:1"
         offset="1"
         id="stop11970" />
    </linearGradient>
    <linearGradient
       inkscape:collect="always"
       xlink:href="#linearGradient11972"
       id="linearGradient1477"
       x1="0"
       y1="1.0632324e-07"
       x2="4.2333336"
       y2="4.2333336"
       gradientUnits="userSpaceOnUse"
       gradientTransform="matrix(1.25,0,0,1.25,0.52916668,0.52916667)" />
    <linearGradient
       inkscape:collect="always"
       id="linearGradient953">
      <stop
         style="stop-color:#7f4947;stop-opacity:1;"
         offset="0"
         id="stop949" />
      <stop
         style="stop-color:#4f366f;stop-opacity:1"
         offset="1"
         id="stop951" />
    </linearGradient>
    <linearGradient
       inkscape:collect="always"
       xlink:href="#linearGradient953"
       id="linearGradient2126"
       x1="1"
       y1="15.72168"
       x2="21"
       y2="15.72168"
       gradientUnits="userSpaceOnUse"
       gradientTransform="matrix(0.26458334,0,0,0.26458334,0.26458334,0.26458333)" />
  </defs>
  <circle
     style="opacity:1;fill:url(#linearGradient1477);fill-opacity:1;stroke-width:0.992188;stroke-linecap:round;stroke-linejoin:round"
     id="path864"
     cx="3.1750002"
     cy="3.1750002"
     r="2.6458335" />
  <path
     id="path864-35"
     style="fill:url(#linearGradient2126);fill-opacity:1;stroke-width:0.992188;stroke-linecap:round;stroke-linejoin:round"
     d="M 5.8166994,3.0277221 A 2.6458334,2.6458334 0 0 1 3.1750001,5.5562501 2.6458334,2.6458334 0 0 1 0.53381755,3.0427084 2.6458334,2.6458334 0 0 0 0.52916668,3.175 2.6458334,2.6458334 0 0 0 3.1750001,5.8208334 2.6458334,2.6458334 0 0 0 5.8208335,3.175 2.6458334,2.6458334 0 0 0 5.8166994,3.0277221 Z" />
  <path
     id="path2230"
     style="opacity:1;fill:#ffffff;fill-opacity:1;stroke-width:0.79375;stroke-linecap:round;stroke-linejoin:round"
     d="m 3.3377807,1.3229167 c -0.095289,0.00231 -0.1627806,0.074621 -0.1627806,0.1891357 V 3.3770549 C 3.0294631,3.2469167 2.8410689,3.174981 2.6458334,3.175 c -0.438376,0 -0.79375,0.3553741 -0.79375,0.7937501 0,0.4383759 0.355374,0.79375 0.79375,0.79375 0.438376,0 0.79375,-0.3553741 0.79375,-0.79375 V 2.4019206 L 4.2493532,2.696993 C 4.3870926,2.747126 4.4979168,2.669423 4.4979168,2.5228434 V 1.9936768 c 0,-0.1465792 -0.1108242,-0.3048841 -0.2485636,-0.3550171 L 3.4235637,1.3379028 c -0.03013,-0.010967 -0.059102,-0.015632 -0.085783,-0.014986 z"
     sodipodi:nodetypes="scccsssccssccs" />
</svg>
