<?xml version="1.0" encoding="UTF-8" standalone="no"?>
<!-- Created with Inkscape (http://www.inkscape.org/) -->

<svg
   width="24"
   height="24"
   viewBox="0 0 24 24"
   version="1.1"
   id="svg2112"
   inkscape:version="1.2.1 (9c6d41e410, 2022-07-14, custom)"
   sodipodi:docname="network-workgroup.svg"
   xmlns:inkscape="http://www.inkscape.org/namespaces/inkscape"
   xmlns:sodipodi="http://sodipodi.sourceforge.net/DTD/sodipodi-0.dtd"
   xmlns:xlink="http://www.w3.org/1999/xlink"
   xmlns="http://www.w3.org/2000/svg"
   xmlns:svg="http://www.w3.org/2000/svg">
  <sodipodi:namedview
     id="namedview2114"
     pagecolor="#ffffff"
     bordercolor="#000000"
     borderopacity="0.25"
     inkscape:showpageshadow="2"
     inkscape:pageopacity="0.0"
     inkscape:pagecheckerboard="0"
     inkscape:deskcolor="#d1d1d1"
     inkscape:document-units="px"
     showgrid="false"
     inkscape:zoom="35.541667"
     inkscape:cx="12"
     inkscape:cy="12"
     inkscape:window-width="1920"
     inkscape:window-height="1029"
     inkscape:window-x="0"
     inkscape:window-y="0"
     inkscape:window-maximized="1"
     inkscape:current-layer="svg2112" />
  <defs
     id="defs2109">
    <linearGradient
       inkscape:collect="always"
       xlink:href="#linearGradient2986"
       id="linearGradient2988"
       x1="0.092814192"
       y1="13.470937"
       x2="-3.2895818"
       y2="13.470937"
       gradientUnits="userSpaceOnUse"
       gradientTransform="matrix(2.3651875,0,0,0.3059441,16.780478,17.878647)" />
    <linearGradient
       inkscape:collect="always"
       id="linearGradient2986">
      <stop
         style="stop-color:#818990;stop-opacity:1;"
         offset="0"
         id="stop2982" />
      <stop
         style="stop-color:#bcc5cf;stop-opacity:1"
         offset="1"
         id="stop2984" />
    </linearGradient>
    <linearGradient
       inkscape:collect="always"
       xlink:href="#linearGradient1116"
       id="linearGradient1340"
       x1="0.82682294"
       y1="4.0845051"
       x2="6.1184893"
       y2="4.0845051"
       gradientUnits="userSpaceOnUse"
       gradientTransform="matrix(3.7795275,0,0,3.7795275,-0.125,-3.4375001)" />
    <linearGradient
       inkscape:collect="always"
       id="linearGradient1116">
      <stop
         style="stop-color:#555a5f;stop-opacity:1;"
         offset="0"
         id="stop1112" />
      <stop
         style="stop-color:#4b4f53;stop-opacity:1"
         offset="1"
         id="stop1114" />
    </linearGradient>
    <linearGradient
       inkscape:collect="always"
       xlink:href="#linearGradient2301"
       id="linearGradient1929"
       x1="0.5291667"
       y1="0.79374999"
       x2="5.2916665"
       y2="3.96875"
       gradientUnits="userSpaceOnUse"
       gradientTransform="matrix(3.7795275,0,0,3.7795275,1.9999999,2.9999999)" />
    <linearGradient
       inkscape:collect="always"
       id="linearGradient2301">
      <stop
         style="stop-color:#3fe3e7;stop-opacity:1;"
         offset="0"
         id="stop2297" />
      <stop
         style="stop-color:#066bbc;stop-opacity:1"
         offset="1"
         id="stop2299" />
    </linearGradient>
    <linearGradient
       id="linearGradient883"
       x1="4"
       x2="59.861"
       y1="31.360001"
       y2="31.360001"
       gradientTransform="matrix(0.19641912,0,0,0.19641912,0.21448569,1.2143057)"
       gradientUnits="userSpaceOnUse">
      <stop
         stop-color="#b0d6df"
         offset="0"
         id="stop9" />
      <stop
         stop-color="#e1f8fc"
         offset=".21709"
         id="stop11" />
      <stop
         stop-color="#96c3ce"
         offset="1"
         id="stop13" />
    </linearGradient>
    <radialGradient
       id="radialGradient875"
       cx="20.107"
       cy="28.705"
       r="28"
       gradientTransform="matrix(0.21708035,0.12258503,-0.09658526,0.17103717,2.7655139,-0.6942092)"
       gradientUnits="userSpaceOnUse">
      <stop
         stop-color="#5ab5e2"
         offset="0"
         id="stop2" />
      <stop
         stop-color="#4189ac"
         offset=".45901"
         id="stop4" />
      <stop
         stop-color="#295e76"
         offset="1"
         id="stop6" />
    </radialGradient>
  </defs>
  <path
     id="rect958"
     style="fill:#bcc5cf;stroke-width:4.08249;stroke-linecap:round;stroke-linejoin:round"
     d="m 12.000001,19 h 2.000001 L 14,21 h -2 z"
     sodipodi:nodetypes="ccccc" />
  <path
     id="rect2848"
     style="fill:url(#linearGradient2988);stroke-width:1.12535;stroke-linecap:round;stroke-linejoin:round"
     d="m 9.0000003,21 h 8.0000007 v 1 H 9.0000003 Z" />
  <path
     id="rect1538"
     style="fill:url(#linearGradient1340);stroke-width:0.500001;stroke-linejoin:round"
     d="M 5.0000001,4.9999998 H 21 c 1.107999,0 2,0.8920003 2,2.0000001 V 17 c 0,1.108 -0.892001,2 -2,2 H 5.0000001 C 3.8920001,19 3,18.108 3,17 V 6.9999999 C 3,5.8920001 3.8920001,4.9999998 5.0000001,4.9999998 Z" />
  <path
     id="rect1841"
     style="fill:url(#linearGradient1929);stroke-width:0.500001;stroke-linejoin:round"
     d="M 5.0000001,5.9999997 H 21 c 0.553999,0 0.999999,0.4460001 0.999999,0.9999999 v 9.9999994 c 0,0.554001 -0.446,1 -0.999999,1 H 5.0000001 c -0.554,0 -1,-0.445999 -1,-1 V 6.9999996 c 0,-0.5539998 0.446,-0.9999999 1,-0.9999999 z" />
  <rect
     x="1.0002347"
     y="2"
     width="10.999765"
     height="10.999765"
     rx="5.4998827"
     ry="5.4998827"
     fill="url(#radialGradient875)"
     id="rect30"
     style="fill:url(#radialGradient875);stroke-width:0.19642" />
  <path
     d="M 6.5285337,2.2749946 C 6.1043645,2.3050759 5.6894165,2.3829415 5.2847535,2.5141105 5.140385,2.519748 4.8266318,2.7056914 5.0797736,2.7929543 5.1975827,2.9188074 5.4788269,2.9588585 5.4446724,3.1645083 5.4901042,3.3452709 5.0245182,3.3370692 5.1794864,3.5007891 5.2893663,3.6453954 5.3992438,3.79001 5.5091304,3.9346204 5.7120217,3.869452 5.7789733,3.6616611 5.8915372,3.5017245 6.2048654,3.3635175 6.6483213,3.321772 6.8553913,3.0558124 6.9202772,2.8676801 6.9851632,2.6795649 7.0500511,2.4914329 6.87621,2.4192861 6.7023667,2.3471393 6.5285342,2.2749753 Z m -1.5081779,0.048331 c -0.1943484,-0.020965 -0.318663,0.098472 -0.4637316,0.176776 -0.178566,0.021871 -0.3803169,0.088332 -0.4928445,0.231949 0.2003051,0.090901 0.3264546,-0.00595 0.4993526,-0.074627 C 4.7236642,2.5751808 5.2696656,2.5408672 5.0203558,2.3233067 Z M 3.7662361,2.9001718 C 3.6663198,3.0526869 3.8364183,3.2734319 3.6078545,3.3534724 3.495032,3.4962964 3.3964374,3.7307278 3.6784327,3.6456631 3.747417,3.434028 3.9617128,3.1371614 4.2055961,3.261111 4.4512392,3.327111 4.6785859,3.7398938 4.8791482,3.4129421 4.8790668,3.3279066 4.5671763,3.2781647 4.5741426,3.0701338 4.4353556,3.0105926 4.1386804,3.1187904 4.1490386,2.9024126 3.9485326,2.8133824 3.8907823,3.2570086 3.8197241,3.009052 3.8018931,2.972763 3.7840621,2.936475 3.7662284,2.9001697 Z M 9.2091027,3.0924533 C 8.9717832,3.1399095 8.7373775,3.1941186 8.5500885,3.3572355 8.6044527,3.5745916 8.3240434,3.6111657 8.1993248,3.7318141 c -0.09049,0.051063 0.00165,0.4455096 0.080928,0.3842775 0.1685785,-0.2224159 0.255781,-0.030557 0.4124907,0.079274 C 8.8337929,4.3263704 8.9233543,3.9520879 8.8484346,3.8465815 8.8044776,3.6765385 9.0183295,3.5507442 9.0952874,3.4114864 9.3305724,3.2605615 9.1317587,3.6040381 9.1242292,3.7239538 9.0054641,4.0783282 9.6510266,3.7346476 9.2254941,3.9994607 9.1113508,4.1134495 9.0695563,4.2823192 8.8941625,4.3665585 8.7994598,4.4821503 8.4380206,4.4279714 8.486695,4.2476546 8.3547065,4.0407849 8.3872849,4.496634 8.3424415,4.4944512 8.1236938,4.4292689 8.0585932,4.673433 7.921408,4.790253 7.8164222,4.9108637 7.4457962,4.8360289 7.7224956,5.0228623 7.924304,5.2557274 7.6822784,5.2126628 7.5153327,5.2746825 7.2794059,5.315308 7.3188409,5.5207843 7.3249459,5.7063137 7.3285514,5.8085577 7.5550065,5.9602435 7.6696779,5.8889333 7.8987297,5.8644039 7.8409338,5.583305 8.0101578,5.4975808 8.1507635,5.3772216 8.249439,5.2662184 8.4605614,5.2633409 c 0.097472,0.093024 0.2944821,0.232865 0.3743763,0.3089096 -0.2204894,0.2402342 0.1012715,0.2206559 0.1320508,0.00178 0.1087603,-0.120523 -0.3582437,-0.4041324 -0.050277,-0.2795223 0.203844,0.067247 0.1569682,0.2754895 0.2476607,0.4160658 0.161213,0.2725198 0.1784757,0.069161 0.1934845,-0.1416523 0.2678408,-0.084142 0.3404396,0.4664112 0.7014513,0.337292 0.270557,0.071093 0.142345,0.2460454 -0.02848,0.359013 C 9.8748092,6.3790283 9.6421679,6.3010295 9.4709381,6.2392467 9.3015407,6.152278 9.0973855,6.2021389 9.008214,6.3751044 8.8102556,6.2042609 8.670118,5.9328592 8.3825298,5.917827 8.1102303,5.9037206 7.8353275,5.9761208 7.5725437,6.0501534 7.2813797,6.3918614 6.9663648,6.7246586 6.8307013,7.161405 6.689878,7.3344625 6.9915169,7.43814 6.7622351,7.5956386 c -0.1596265,0.149039 0.054364,0.333127 0.087402,0.50025 0.1717851,0.2037145 0.4351507,0.8738034 0.7004463,0.6146128 0.1492999,-0.2358895 0.2483018,0.1545169 0.4238581,-0.090485 0.1477661,-0.1348801 0.2674406,0.13552 0.4746586,0.03935 0.1842639,0.09185 0.2002861,0.2718961 0.1029204,0.4441897 -0.062527,0.1749282 0.2708866,0.2468534 0.1760226,0.4510641 -0.044722,0.1997002 0.042881,0.3692241 0.142087,0.5361098 -0.2205088,0.230169 -0.193926,0.571124 -0.1388815,0.859539 0.1078892,0.395405 0.2623995,0.791947 0.2469628,1.208287 0.1932102,0.05068 0.3357317,-0.07728 0.495503,-0.144471 0.3049525,0.04313 0.4708478,-0.282255 0.6602086,-0.468883 -0.1422555,-0.19123 0.116862,-0.273748 0.223973,-0.397459 -0.160215,-0.138578 -0.266378,-0.273123 -0.01833,-0.381197 0.11442,-0.116216 0.328765,-0.181912 0.366347,-0.344018 -0.09853,-0.293621 -0.04241,-0.6055917 -0.05691,-0.9091666 0.121482,-0.2448368 0.250465,-0.4844651 0.452238,-0.6735159 0.08047,-0.2654966 0.273876,-0.5088491 0.255121,-0.7938339 -0.470315,0.1407009 -0.328308,-0.05976 -0.06767,-0.2503545 C 11.469066,7.6630038 11.726239,7.5392697 11.781238,7.3130969 11.820719,7.0898745 11.646264,6.7432904 11.494492,7.071249 11.420765,6.966732 11.161053,6.8698065 11.164646,6.7057441 11.109032,6.3748904 11.254113,6.57361 11.383101,6.729857 11.683119,6.5074594 12.074656,7.3436626 11.948029,6.746995 11.776493,5.4556922 11.121726,4.2357451 10.140932,3.3786805 10.051245,3.4741842 9.9015777,3.830257 9.7929736,3.6247263 9.6392199,3.46162 9.5185474,3.3143674 9.8317421,3.374921 10.138672,3.2916217 9.8329063,3.2431892 9.6720264,3.2241957 9.5106723,3.2053619 9.3610443,3.146258 9.2090829,3.0924036 Z m -6.0075211,0.00801 C 2.9985257,3.178674 3.3027008,3.4768803 2.9386504,3.3813843 2.5395242,3.562241 2.2736415,4.0011471 1.9962274,4.3429277 1.3491298,5.2574129 0.99732054,6.3749511 1.0000154,7.4950946 c 0.1061778,0.21915 0.3676854,0.2934189 0.5633345,0.4143988 0.1988399,0.068018 0.4492488,0.057744 0.5482102,0.2774138 0.1106814,0.1159034 0.2591911,0.271326 0.4173127,0.2839039 0.2429842,-0.077863 0.2772489,0.1424512 0.1546628,0.305426 -0.013281,0.1785128 -0.2119645,0.3224944 -0.1898191,0.4794985 0.044268,0.1759187 -0.2213141,0.3696831 -0.042404,0.5306278 0.188223,0.3365006 0.3896666,0.6632856 0.6442193,0.9539176 0.1583284,0.138712 0.139555,0.3297 0.1214816,0.520473 -0.062831,0.201626 0.1277386,0.318259 0.2300242,0.464503 -0.2492555,0.457002 0.4258733,0.548336 0.708439,0.748167 0.1420589,-0.129908 0.1533506,-0.340169 0.389025,-0.346035 0.1429134,-0.100121 0.173423,-0.326143 0.271584,-0.476418 -0.00314,-0.159618 -0.1053626,-0.308779 0.060587,-0.482631 0.1250404,-0.105539 0.3830668,-0.03515 0.4296142,-0.255488 0.1698538,-0.17496 0.032418,-0.417441 0.032418,-0.629717 C 5.4706446,10.102401 5.6982689,9.9636642 5.673006,9.713933 5.7015886,9.3414625 5.0309865,9.3582009 4.7946934,9.1323752 4.5042447,9.1240605 4.5629833,8.7282621 4.3368832,8.675684 4.1124146,8.6869719 4.0307963,8.5111013 3.9512314,8.3325463 3.8275983,8.2482231 3.5949123,8.4195856 3.4655365,8.3139123 3.319002,8.2367171 3.1875543,7.9487563 3.0226127,8.1287115 2.8055324,8.2861092 2.5920453,8.4460003 2.3861116,8.1824768 2.2525587,8.0621325 2.4203591,7.7205055 2.2312662,7.7420275 1.8275931,7.8880447 2.3592044,7.1556867 1.9813149,7.2528497 1.8918143,7.3931357 1.7201439,7.6095912 1.5532223,7.4435866 1.3855928,7.3647129 1.4682831,7.1082589 1.4757585,6.9546653 1.4830093,6.7750144 1.710365,6.6854464 1.841024,6.6034978 2.0944405,6.7168328 2.042429,6.3790846 2.2542301,6.4919879 2.4596866,6.4482309 2.5524519,6.7778161 2.635867,6.7901 2.6848894,6.6277317 2.5963898,6.3904237 2.7470754,6.2834501 2.9231406,6.1352505 3.1555151,6.0298515 3.1989641,5.7808524 3.2025849,5.5148598 3.5253457,5.7390259 3.6054789,5.5578867 3.6793549,5.3503394 3.8948275,5.3633023 4.0768371,5.3241431 4.1763921,5.2317721 4.4266112,4.947254 4.1174931,5.0306694 4.0049023,5.0154529 3.5516466,5.0757779 3.85942,4.967328 4.0110268,4.8525669 4.1947848,4.8684694 4.3649694,4.8459295 4.4989982,4.732459 4.7332958,4.6944448 4.7435989,4.487851 4.6323573,4.336557 4.3967212,4.3653535 4.496746,4.1483598 4.4870798,3.8645109 4.2370782,4.0467386 4.1549465,4.0251488 4.2883329,3.8395279 3.9815026,3.7226551 3.8785225,3.7200523 3.8085314,3.8949783 3.6117599,4.0459008 3.6812044,4.2472343 3.476041,4.2805544 3.3799208,4.4290512 3.3182672,4.6139297 3.2567552,4.6353559 3.2767568,4.2513397 3.0413299,4.2867229 2.8750368,4.2827107 2.6694644,4.0345717 2.8445438,3.9368575 3.0845768,3.7849869 3.3830188,3.6661165 3.5347973,3.4235349 3.6220814,3.206271 3.4611139,3.0729168 3.2467682,3.1037714 l -0.029885,-0.00208 z M 7.240145,3.3506218 C 7.1076691,3.453683 6.8402302,3.3825009 6.7837648,3.4818643 6.7600114,3.6822802 7.071207,3.679146 7.1954862,3.5685036 7.3986134,3.4934011 7.3895592,3.5071071 7.2401341,3.350617 Z M 4.2973414,3.4533414 C 4.0158024,3.5361787 4.2458763,3.7205796 4.4296625,3.7181237 4.6489417,3.7004313 4.4449296,3.4549182 4.2973414,3.4533414 Z M 7.6546531,4.0065565 C 7.6345112,4.1858962 7.8067867,4.2978842 7.7356378,4.493259 7.6236034,4.7393788 7.7823026,4.8132796 7.9737645,4.6619995 8.2294718,4.505542 7.7821488,4.1628083 7.7225472,4.0065566 h -0.0679 z M 7.5703298,4.2949643 C 7.3405435,4.2384805 7.4132395,4.719391 7.5711243,4.5538251 7.7411537,4.5241429 7.577871,4.3931292 7.5703298,4.2949643 Z M 4.637791,4.7284095 C 4.6715272,4.9107866 4.6836574,5.1999154 4.817177,4.8893503 4.8169938,4.8289928 4.6852602,4.7817753 4.637791,4.7284095 Z m 5.548831,1.8750936 c 0.270082,0.2354868 0.379492,0.5765354 0.531728,0.8894419 0.226523,0.1189345 0.09243,0.300825 0.123984,0.4536657 C 11.157733,8.2227511 10.522936,8.0756798 10.599971,7.7744198 10.5485,7.424519 10.323767,7.1909565 10.140217,6.9379071 10.12578,6.8039617 9.9820983,6.6511803 10.186627,6.6035147 Z"
     fill="url(#linearGradient883)"
     id="path32"
     style="fill:url(#linearGradient883);stroke-width:0.19642" />
</svg>
