<?xml version="1.0" encoding="UTF-8" standalone="no"?>
<!-- Created with Inkscape (http://www.inkscape.org/) -->

<svg
   width="24"
   height="24"
   viewBox="0 0 6.3499997 6.35"
   version="1.1"
   id="svg5"
   inkscape:version="1.2.1 (9c6d41e410, 2022-07-14, custom)"
   sodipodi:docname="start-here-ubuntu.svg"
   xmlns:inkscape="http://www.inkscape.org/namespaces/inkscape"
   xmlns:sodipodi="http://sodipodi.sourceforge.net/DTD/sodipodi-0.dtd"
   xmlns:xlink="http://www.w3.org/1999/xlink"
   xmlns="http://www.w3.org/2000/svg"
   xmlns:svg="http://www.w3.org/2000/svg">
  <sodipodi:namedview
     id="namedview7"
     pagecolor="#ffffff"
     bordercolor="#000000"
     borderopacity="0.25"
     inkscape:showpageshadow="2"
     inkscape:pageopacity="0.0"
     inkscape:pagecheckerboard="0"
     inkscape:deskcolor="#d1d1d1"
     inkscape:document-units="px"
     showgrid="false"
     showguides="false"
     inkscape:zoom="34.458333"
     inkscape:cx="11.98549"
     inkscape:cy="12"
     inkscape:window-width="1920"
     inkscape:window-height="1029"
     inkscape:window-x="0"
     inkscape:window-y="0"
     inkscape:window-maximized="1"
     inkscape:current-layer="layer1" />
  <defs
     id="defs2">
    <linearGradient
       inkscape:collect="always"
       id="linearGradient1628">
      <stop
         style="stop-color:#ef7f00;stop-opacity:1;"
         offset="0"
         id="stop1624" />
      <stop
         style="stop-color:#ffb70f;stop-opacity:1;"
         offset="1"
         id="stop1626" />
    </linearGradient>
    <linearGradient
       inkscape:collect="always"
       id="linearGradient1530">
      <stop
         style="stop-color:#e95420;stop-opacity:1;"
         offset="0"
         id="stop1526" />
      <stop
         style="stop-color:#e97e20;stop-opacity:1;"
         offset="1"
         id="stop1528" />
    </linearGradient>
    <linearGradient
       inkscape:collect="always"
       xlink:href="#linearGradient1628"
       id="linearGradient1532"
       x1="5.2731457"
       y1="5.8208332"
       x2="2.3287249"
       y2="0"
       gradientUnits="userSpaceOnUse"
       gradientTransform="translate(0.26458327,0.26458339)" />
    <linearGradient
       inkscape:collect="always"
       xlink:href="#linearGradient1530"
       id="linearGradient1615"
       gradientUnits="userSpaceOnUse"
       x1="5.2731457"
       y1="5.8208332"
       x2="2.3287249"
       y2="0"
       gradientTransform="translate(0.26458327,0.26458339)" />
  </defs>
  <g
     inkscape:label="Layer 1"
     inkscape:groupmode="layer"
     id="layer1">
    <path
       d="M 5.5377291,2.9104166 C 5.4688623,2.3704804 5.1946392,1.8778269 4.772025,1.534795 4.685771,1.566968 4.594225,1.5875 4.4979166,1.5875 4.1650708,1.5875 3.8787916,1.377315 3.7615812,1.0841567 3.6550631,1.0673593 3.5474171,1.0587265 3.4395833,1.0583333 3.1575087,1.0583563 2.8782837,1.1147591 2.6183167,1.2242271 l 0.4025635,0.6976533 c 0.1348559,-0.045656 0.2761975,-0.069242 0.4185708,-0.06985 0.6281841,5.768e-4 1.1693398,0.4428408 1.2949767,1.0583333 H 5.537491 Z M 5.5372,3.4395833 H 4.7357241 C 4.6100079,4.0554651 4.0682709,4.4978436 3.4396892,4.4979166 3.2973488,4.4975038 3.156008,4.47412 3.0211183,4.4286698 L 2.6195867,5.1242065 c 0.2594445,0.1098397 0.5382066,0.1667796 0.8199437,0.1674813 0.1082373,-0.00101 0.2162396,-0.010276 0.3230563,-0.027781 0.1174749,-0.2921 0.4032249,-0.5013854 0.735277,-0.5013854 0.096869,0 0.1887591,0.020299 0.2749286,0.05271 C 5.1949006,4.4719837 5.4686321,3.9793815 5.5371735,3.4396627 Z M 2.5632833,2.1865166 2.1616458,1.4908741 C 1.7793655,1.7812024 1.5071235,2.1928494 1.3895917,2.6582687 c 0.1214331,0.1396048 0.1979189,0.3191669 0.1979189,0.5167577 0,0.1973474 -0.076258,0.3767138 -0.1974003,0.516255 0.1169374,0.4658302 0.3888218,0.878042 0.7709958,1.1689292 L 2.5632727,4.1640918 C 2.2798158,3.9134595 2.1172431,3.5534496 2.1166561,3.1750793 2.1173969,2.7968937 2.2799537,2.4371059 2.5632727,2.186596 Z"
       style="fill:url(#linearGradient1532);fill-opacity:1;stroke-width:0.529167"
       id="path912"
       sodipodi:nodetypes="ccscccccccccccccccsccccccscccccc" />
    <path
       d="m 5.0270833,0.79375 c 0,-0.29225066 -0.2369159,-0.52916667 -0.5291667,-0.52916667 -0.2922506,0 -0.5291666,0.23691601 -0.5291666,0.52916667 0,0.2922506 0.236916,0.5291666 0.5291666,0.5291666 0.2922508,0 0.5291667,-0.236916 0.5291667,-0.5291666 z m 0,4.7625 c 0,-0.2922508 -0.2369159,-0.5291666 -0.5291667,-0.5291666 -0.2922506,0 -0.5291666,0.2369158 -0.5291666,0.5291666 0,0.2922508 0.236916,0.5291667 0.5291666,0.5291667 0.2922508,0 0.5291667,-0.2369159 0.5291667,-0.5291667 z M 1.3229168,3.1749999 c 0,-0.2922506 -0.2369162,-0.5291666 -0.52916683,-0.5291666 -0.29225079,0 -0.52916664,0.236916 -0.52916664,0.5291666 0,0.2922508 0.23691585,0.5291668 0.52916664,0.5291668 0.29225063,0 0.52916683,-0.236916 0.52916683,-0.5291668 z"
       style="fill:url(#linearGradient1615);fill-opacity:1;stroke-width:0.529167"
       id="path1601" />
  </g>
</svg>
