<?xml version="1.0" encoding="UTF-8" standalone="no"?>
<!-- Created with Inkscape (http://www.inkscape.org/) -->

<svg
   width="32"
   height="32"
   viewBox="0 0 8.4666667 8.4666671"
   version="1.1"
   id="svg5"
   inkscape:version="1.1.1 (3bf5ae0d25, 2021-09-20, custom)"
   sodipodi:docname="folder-downloads.svg"
   xmlns:inkscape="http://www.inkscape.org/namespaces/inkscape"
   xmlns:sodipodi="http://sodipodi.sourceforge.net/DTD/sodipodi-0.dtd"
   xmlns:xlink="http://www.w3.org/1999/xlink"
   xmlns="http://www.w3.org/2000/svg"
   xmlns:svg="http://www.w3.org/2000/svg">
  <sodipodi:namedview
     id="namedview7"
     pagecolor="#ffffff"
     bordercolor="#666666"
     borderopacity="1.0"
     inkscape:pageshadow="2"
     inkscape:pageopacity="0.0"
     inkscape:pagecheckerboard="0"
     inkscape:document-units="px"
     showgrid="false"
     units="px"
     height="64px"
     inkscape:zoom="6.9017858"
     inkscape:cx="28.978007"
     inkscape:cy="36.729624"
     inkscape:window-width="1920"
     inkscape:window-height="996"
     inkscape:window-x="0"
     inkscape:window-y="0"
     inkscape:window-maximized="1"
     inkscape:current-layer="svg5"
     showguides="false" />
  <defs
     id="defs2">
    <linearGradient
       inkscape:collect="always"
       id="linearGradient11972">
      <stop
         style="stop-color:#38c494;stop-opacity:1"
         offset="0"
         id="stop11968" />
      <stop
         style="stop-color:#0099a6;stop-opacity:1"
         offset="1"
         id="stop11970" />
    </linearGradient>
    <linearGradient
       inkscape:collect="always"
       xlink:href="#linearGradient11972"
       id="linearGradient2648"
       x1="0.38510677"
       y1="1.0000001"
       x2="22.050129"
       y2="29.375322"
       gradientUnits="userSpaceOnUse"
       gradientTransform="matrix(0.26458334,0,0,0.26458334,1.3229168,0.26458334)" />
  </defs>
  <path
     id="rect2106"
     style="fill:url(#linearGradient2648);fill-opacity:1;stroke-width:0.79375;stroke-linecap:round;stroke-linejoin:round"
     d="m 4.2333335,0.52916668 c -0.1465792,0 -0.2645834,0.11800417 -0.2645834,0.26458334 V 6.2399292 L 2.1301687,4.4013356 c -0.1036468,-0.1036474 -0.2704901,-0.1036471 -0.3741373,0 -0.1036471,0.1036471 -0.1036468,0.27049 0,0.3741373 l 2.2845489,2.2845615 0.00569,0.00568 c 0.00209,0.00209 0.00405,0.00419 0.0062,0.0062 0.00266,0.00249 0.00553,0.00487 0.00827,0.00723 0.00148,0.00127 0.00262,0.00288 0.00414,0.00414 4.762e-4,3.969e-4 0.00106,6.35e-4 0.00156,0.00103 0.00172,0.0014 0.00342,0.00278 0.00517,0.00414 0.00228,0.00175 0.00441,0.0035 0.00672,0.00517 0.0057,0.00412 0.011539,0.00823 0.017571,0.011885 0.00235,0.00143 0.00484,0.00277 0.00723,0.00414 0.00132,7.409e-4 0.00278,0.00135 0.00414,0.00206 0.00484,0.00265 0.00951,0.00493 0.01447,0.00723 0.00393,0.00183 0.00786,0.00353 0.011885,0.00517 0.00286,0.00116 0.00588,0.00257 0.00878,0.00362 0.00114,4.233e-4 0.00249,6.35e-4 0.00362,0.00103 0.00695,0.00241 0.013983,0.00487 0.021188,0.00672 0.00101,2.604e-4 0.00209,2.522e-4 0.0031,5.292e-4 0.00698,0.00169 0.014002,0.003 0.021188,0.00414 5.291e-4,8.55e-5 0.00101,4.233e-4 0.00156,5.292e-4 7.144e-4,1.079e-4 0.00135,4.233e-4 0.00206,5.291e-4 0.00371,5.292e-4 0.00761,6.615e-4 0.011369,0.00103 5.027e-4,5.11e-5 0.00106,-4.84e-5 0.00156,0 0.00395,3.704e-4 0.00788,8.202e-4 0.011885,0.00103 0.01478,7.408e-4 0.029729,2.013e-4 0.044442,-0.00156 0.00307,-3.705e-4 0.00627,-5.821e-4 0.0093,-0.00103 0.00774,-0.00116 0.015235,-0.00282 0.022738,-0.00465 0.00397,-9.79e-4 0.00796,-0.00193 0.011885,-0.0031 h 5.291e-4 c 0.00409,-0.00122 0.00785,-0.00271 0.011885,-0.00414 0.00813,-0.00283 0.016034,-0.00624 0.02377,-0.00982 0.00636,-0.00296 0.012959,-0.00581 0.019121,-0.0093 0.00206,-0.00116 0.00416,-0.00238 0.0062,-0.00362 0.00679,-0.00408 0.013261,-0.00878 0.019637,-0.013436 0.00367,-0.00268 0.00733,-0.0054 0.010851,-0.00827 0.00196,-0.00161 0.00374,-0.0035 0.00569,-0.00517 0.00279,-0.00241 0.00559,-0.00473 0.00827,-0.00723 0.00209,-0.00196 0.00416,-0.00416 0.0062,-0.0062 l 0.00569,-0.00568 2.2844911,-2.284588 c 0.1036449,-0.1036493 0.1036471,-0.2704902 0,-0.3741373 -0.1036471,-0.1036471 -0.2704902,-0.1036471 -0.3741373,0 L 4.4979168,6.2399292 V 0.79375002 c 0,-0.14657917 -0.1180042,-0.26458334 -0.2645833,-0.26458334 z M 1.5875,7.4083335 c -0.1465791,0 -0.2645833,0.1180041 -0.2645833,0.2645833 0,0.1465792 0.1180042,0.2645833 0.2645833,0.2645833 h 5.2916669 c 0.1465792,0 0.2645834,-0.1180041 0.2645834,-0.2645833 0,-0.1465792 -0.1180042,-0.2645833 -0.2645834,-0.2645833 z"
     sodipodi:nodetypes="sscssscccccccscccccccsccccccccccccccccscccccssccsssssssss" />
</svg>
