<?xml version="1.0" encoding="UTF-8" standalone="no"?>
<!-- Created with Inkscape (http://www.inkscape.org/) -->

<svg
   width="32"
   height="32"
   viewBox="0 0 8.4666665 8.466667"
   version="1.1"
   id="svg5"
   inkscape:version="1.1.2 (0a00cf5339, 2022-02-04, custom)"
   sodipodi:docname="accessories-clock.svg"
   xmlns:inkscape="http://www.inkscape.org/namespaces/inkscape"
   xmlns:sodipodi="http://sodipodi.sourceforge.net/DTD/sodipodi-0.dtd"
   xmlns:xlink="http://www.w3.org/1999/xlink"
   xmlns="http://www.w3.org/2000/svg"
   xmlns:svg="http://www.w3.org/2000/svg">
  <sodipodi:namedview
     id="namedview7"
     pagecolor="#ffffff"
     bordercolor="#666666"
     borderopacity="1.0"
     inkscape:pageshadow="2"
     inkscape:pageopacity="0.0"
     inkscape:pagecheckerboard="0"
     inkscape:document-units="px"
     showgrid="false"
     units="px"
     inkscape:zoom="24.6875"
     inkscape:cx="15.979747"
     inkscape:cy="16"
     inkscape:window-width="1920"
     inkscape:window-height="1005"
     inkscape:window-x="0"
     inkscape:window-y="0"
     inkscape:window-maximized="1"
     inkscape:current-layer="svg5"
     showguides="false" />
  <defs
     id="defs2">
    <linearGradient
       inkscape:collect="always"
       id="linearGradient3161">
      <stop
         style="stop-color:#c7ccd1;stop-opacity:1;"
         offset="0"
         id="stop3157" />
      <stop
         style="stop-color:#fdfdfd;stop-opacity:1"
         offset="1"
         id="stop3159" />
    </linearGradient>
    <linearGradient
       inkscape:collect="always"
       id="linearGradient1611">
      <stop
         style="stop-color:#9ca3a8;stop-opacity:1;"
         offset="0"
         id="stop1607" />
      <stop
         style="stop-color:#63737d;stop-opacity:1"
         offset="1"
         id="stop1609" />
    </linearGradient>
    <linearGradient
       inkscape:collect="always"
       xlink:href="#linearGradient3161"
       id="linearGradient3163"
       x1="8.4666662"
       y1="15.345833"
       x2="8.4666662"
       y2="1.5874995"
       gradientUnits="userSpaceOnUse"
       gradientTransform="matrix(0.46153848,0,0,0.46153848,0.3256412,0.3256412)" />
    <linearGradient
       inkscape:collect="always"
       xlink:href="#linearGradient1611"
       id="linearGradient1025"
       x1="8.4666662"
       y1="0.52916616"
       x2="8.4666653"
       y2="16.404167"
       gradientUnits="userSpaceOnUse"
       gradientTransform="scale(1.8897638)" />
  </defs>
  <path
     id="rect4729"
     style="fill:#3f4545;stroke-width:0.132291"
     d="m 7.2147176,0.5680345 0.6548105,0.6548106 c 0.051823,0.051824 0.051823,0.135265 0,0.1870886 l -0.638761,0.6387606 c -0.051823,0.051824 -0.135265,0.051824 -0.1870885,10e-8 L 6.3888681,1.3938839 c -0.051824,-0.051823 -0.051824,-0.135265 0,-0.1870886 l 0.638761,-0.6387606 c 0.051824,-0.051824 0.135265,-0.051824 0.1870885,-2e-7 z"
     sodipodi:nodetypes="sssssssss" />
  <path
     id="path857"
     style="fill:url(#linearGradient1025);fill-opacity:1;stroke-width:1.99999;stroke-linecap:round;stroke-linejoin:round"
     d="M 16,1 C 7.7157288,1 1,7.7157288 1,16 v 13 c 0,1.108 0.8919999,2 2,2 h 26 c 1.108,0 2,-0.892 2,-2 V 16 C 31,7.7157288 24.284271,1 16,1 Z"
     transform="scale(0.26458334)"
     sodipodi:nodetypes="sssccsss" />
  <circle
     style="fill:url(#linearGradient3163);fill-opacity:1;stroke-width:0.122115"
     id="path2899"
     cx="4.2333336"
     cy="4.2333336"
     r="3.175" />
  <path
     id="rect3855"
     style="fill:#d73a02;stroke-width:0.132291"
     d="m 4.2333337,4.2333338 c 0.07329,0 0.1322917,0.059002 0.1322917,0.1322917 v 2.6458333 c 0,0.073289 -0.059002,0.1322915 -0.1322917,0.1322915 -0.07329,0 -0.1322917,-0.059002 -0.1322917,-0.1322915 V 4.3656255 c 0,-0.07329 0.059002,-0.1322917 0.1322917,-0.1322917 z" />
  <path
     id="rect4157"
     style="fill:#3f4545;stroke-width:0.132291"
     d="m 2.1854177,3.0561687 c -0.07329,0.1269413 -0.030095,0.2881378 0.096844,0.3614275 l 1.7185194,0.9921876 c 0.1269412,0.073289 0.2881382,0.030097 0.3614277,-0.096844 0.073289,-0.1269413 0.030097,-0.2881382 -0.096845,-0.3614277 L 2.5468453,2.9593244 C 2.4199042,2.8860348 2.2587072,2.9292274 2.1854177,3.0561687 Z" />
  <path
     id="rect4625"
     style="fill:#3f4545;stroke-width:0.132291"
     d="m 6.227386,2.3173275 c 0.051824,0.051824 0.051824,0.1352653 2e-7,0.1870889 L 4.3564995,4.3753031 c -0.051824,0.051824 -0.1352651,0.051824 -0.187089,-1e-7 -0.051824,-0.051824 -0.051823,-0.1352651 2e-7,-0.1870887 L 6.0402974,2.3173276 c 0.051824,-0.051824 0.1352651,-0.051824 0.1870886,-10e-8 z" />
  <circle
     style="fill:#0c0c0c;fill-opacity:1;stroke-width:0.132291"
     id="path3553"
     cx="4.2333336"
     cy="4.2333336"
     r="0.5291667" />
</svg>
