<?xml version="1.0" encoding="UTF-8" standalone="no"?>
<!-- Created with Inkscape (http://www.inkscape.org/) -->

<svg
   width="32"
   height="32"
   viewBox="0 0 8.4666665 8.466667"
   version="1.1"
   id="svg5"
   inkscape:version="1.1.2 (0a00cf5339, 2022-02-04)"
   sodipodi:docname="accessories-document-viewer.svg"
   xmlns:inkscape="http://www.inkscape.org/namespaces/inkscape"
   xmlns:sodipodi="http://sodipodi.sourceforge.net/DTD/sodipodi-0.dtd"
   xmlns:xlink="http://www.w3.org/1999/xlink"
   xmlns="http://www.w3.org/2000/svg"
   xmlns:svg="http://www.w3.org/2000/svg">
  <sodipodi:namedview
     id="namedview7"
     pagecolor="#ffffff"
     bordercolor="#666666"
     borderopacity="1.0"
     inkscape:pageshadow="2"
     inkscape:pageopacity="0.0"
     inkscape:pagecheckerboard="0"
     inkscape:document-units="px"
     showgrid="false"
     units="px"
     width="64px"
     inkscape:zoom="24.96875"
     inkscape:cx="15.979975"
     inkscape:cy="16"
     inkscape:window-width="1920"
     inkscape:window-height="1011"
     inkscape:window-x="0"
     inkscape:window-y="0"
     inkscape:window-maximized="1"
     inkscape:current-layer="svg5" />
  <defs
     id="defs2">
    <linearGradient
       inkscape:collect="always"
       id="linearGradient7005">
      <stop
         style="stop-color:#0f7199;stop-opacity:1"
         offset="0"
         id="stop7001" />
      <stop
         style="stop-color:#78aed9;stop-opacity:1"
         offset="1"
         id="stop7003" />
    </linearGradient>
    <linearGradient
       inkscape:collect="always"
       id="linearGradient2287">
      <stop
         style="stop-color:#6b7c85;stop-opacity:1"
         offset="0"
         id="stop2283" />
      <stop
         style="stop-color:#92a0a7;stop-opacity:1"
         offset="1"
         id="stop2285" />
    </linearGradient>
    <linearGradient
       inkscape:collect="always"
       id="linearGradient1353">
      <stop
         style="stop-color:#fafafa;stop-opacity:1;"
         offset="0"
         id="stop1349" />
      <stop
         style="stop-color:#c7cdd1;stop-opacity:1"
         offset="1"
         id="stop1351" />
    </linearGradient>
    <linearGradient
       inkscape:collect="always"
       xlink:href="#linearGradient1353"
       id="linearGradient1355"
       x1="3.96875"
       y1="-1.047058e-07"
       x2="9.7895832"
       y2="7.9375005"
       gradientUnits="userSpaceOnUse"
       gradientTransform="translate(-2.1166666,-0.26458336)" />
    <linearGradient
       inkscape:collect="always"
       xlink:href="#linearGradient2287"
       id="linearGradient2289"
       x1="11.641666"
       y1="2.2489583"
       x2="12.336344"
       y2="1.4608934"
       gradientUnits="userSpaceOnUse"
       gradientTransform="translate(-5.8208333,-0.26458336)" />
    <linearGradient
       inkscape:collect="always"
       id="linearGradient984">
      <stop
         style="stop-color:#26b4eb;stop-opacity:1;"
         offset="0"
         id="stop980" />
      <stop
         style="stop-color:#017adc;stop-opacity:1"
         offset="1"
         id="stop982" />
    </linearGradient>
    <linearGradient
       inkscape:collect="always"
       xlink:href="#linearGradient984"
       id="linearGradient2759"
       x1="2.3812499"
       y1="2.6458335"
       x2="7.1437497"
       y2="9.5249996"
       gradientUnits="userSpaceOnUse"
       gradientTransform="translate(-1.0583333,-1.3229167)" />
    <linearGradient
       inkscape:collect="always"
       xlink:href="#linearGradient7005"
       id="linearGradient5921"
       x1="13.493751"
       y1="10.980208"
       x2="6.0854168"
       y2="4.630208"
       gradientUnits="userSpaceOnUse"
       gradientTransform="matrix(0.50000005,0,0,0.50000005,0.13229138,0.79374954)" />
  </defs>
  <rect
     style="fill:url(#linearGradient2759);fill-opacity:1;stroke-width:1.08733;stroke-linecap:round;stroke-linejoin:round"
     id="rect846"
     width="4.7624998"
     height="6.8791666"
     x="1.3229166"
     y="1.3229167"
     ry="0.5291667" />
  <path
     id="rect848"
     style="fill:url(#linearGradient1355);fill-opacity:1;stroke-width:1.08733;stroke-linecap:round;stroke-linejoin:round"
     d="m 2.9104168,0.26458334 h 2.3812499 l 1.852083,1.85208326 v 4.4979163 c 0,0.293159 -0.236008,0.529167 -0.529166,0.529167 H 2.9104168 c -0.2931584,0 -0.5291667,-0.236008 -0.5291667,-0.529167 V 0.79375004 c 0,-0.29315835 0.2360083,-0.5291667 0.5291667,-0.5291667 z"
     sodipodi:nodetypes="sccssssss" />
  <path
     id="path2200"
     style="opacity:0.2;fill:#8d8d8d;fill-opacity:1;stroke-width:0.105007;stroke-linecap:round;stroke-linejoin:round"
     d="m 3.1930868,3.6380209 c -0.01129,0.019496 -0.018087,0.041906 -0.018087,0.066146 0,0.07329 0.059002,0.1322917 0.1322916,0.1322917 h 1.3229167 c 0.07329,0 0.1322917,-0.059002 0.1322917,-0.1322917 0,-0.02424 -0.0068,-0.04665 -0.018087,-0.066146 -0.022847,0.039451 -0.065155,0.066146 -0.1142051,0.066146 H 3.3072918 c -0.04905,0 -0.091358,-0.026695 -0.114205,-0.066146 z m 0,0.79375 c -0.01129,0.019496 -0.018087,0.041906 -0.018087,0.066146 0,0.07329 0.059002,0.1322917 0.1322916,0.1322917 h 1.3229167 c 0.07329,0 0.1322917,-0.059002 0.1322917,-0.1322917 0,-0.024239 -0.0068,-0.04665 -0.018087,-0.066146 -0.022847,0.039451 -0.065155,0.066146 -0.1142051,0.066146 H 3.3072918 c -0.04905,0 -0.091358,-0.026695 -0.114205,-0.066146 z m 1.9662884,0.066146 v 0.1322917 c 0,0.07329 0.059002,0.1322917 0.1322917,0.1322917 h 0.9260417 c 0.07329,0 0.1322917,-0.059002 0.1322917,-0.1322917 V 4.4979167 c 0,0.07329 -0.059002,0.1322917 -0.1322917,0.1322917 H 5.2916669 c -0.073289,0 -0.1322917,-0.059002 -0.1322917,-0.1322915 z M 3.1930868,5.2255208 c -0.01129,0.019496 -0.018087,0.041906 -0.018087,0.066146 0,0.07329 0.059002,0.1322917 0.1322916,0.1322917 h 2.9104168 c 0.07329,0 0.1322917,-0.059002 0.1322917,-0.1322917 0,-0.02424 -0.0068,-0.04665 -0.018087,-0.066146 -0.022847,0.039452 -0.065155,0.066146 -0.114205,0.066146 H 3.3072918 c -0.04905,0 -0.091358,-0.026694 -0.114205,-0.066146 z m 0,0.79375 c -0.01129,0.019496 -0.018087,0.041906 -0.018087,0.066146 0,0.073289 0.059002,0.1322917 0.1322916,0.1322917 h 2.9104168 c 0.07329,0 0.1322917,-0.059002 0.1322917,-0.1322917 0,-0.02424 -0.0068,-0.04665 -0.018087,-0.066146 -0.022847,0.039451 -0.065155,0.066146 -0.114205,0.066146 H 3.3072918 c -0.04905,0 -0.091358,-0.026694 -0.114205,-0.066146 z"
     sodipodi:nodetypes="csssscssccsssscssccsssscssccsssscssccsssscssc" />
  <path
     id="rect1786"
     style="fill:url(#linearGradient2289);fill-opacity:1;stroke-width:1.05833;stroke-linecap:round;stroke-linejoin:round"
     d="M 5.2916667,0.26458334 7.1437504,2.1166666 H 5.8208337 c -0.293158,0 -0.529167,-0.2360083 -0.529167,-0.5291667 z"
     sodipodi:nodetypes="ccscc" />
  <path
     id="rect870"
     style="fill:url(#linearGradient5921);fill-opacity:1;stroke-width:0.396875;stroke-linecap:round;stroke-linejoin:round"
     d="m 3.3072918,3.4395832 c -0.07329,0 -0.1322917,0.059002 -0.1322917,0.1322917 0,0.07329 0.059002,0.1322916 0.1322917,0.1322916 h 1.3229166 c 0.07329,0 0.132292,-0.059002 0.132292,-0.1322916 0,-0.07329 -0.059002,-0.1322917 -0.132292,-0.1322917 z m 1.9843748,0 c -0.073289,0 -0.1322915,0.059002 -0.1322915,0.1322917 v 0.9260417 c 0,0.07329 0.059002,0.1322917 0.1322915,0.1322917 h 0.9260421 c 0.07329,0 0.1322915,-0.059002 0.1322915,-0.1322917 V 3.5718749 c 0,-0.07329 -0.059002,-0.1322917 -0.1322915,-0.1322917 z M 3.3072918,4.2333333 c -0.07329,0 -0.1322917,0.059002 -0.1322917,0.1322916 0,0.07329 0.059002,0.1322917 0.1322917,0.1322917 h 1.3229166 c 0.07329,0 0.132292,-0.059002 0.132292,-0.1322917 0,-0.073289 -0.059002,-0.1322916 -0.132292,-0.1322916 z m 0,0.79375 c -0.07329,0 -0.1322917,0.059002 -0.1322917,0.1322917 0,0.07329 0.059002,0.1322918 0.1322917,0.1322918 h 2.9104169 c 0.07329,0 0.1322915,-0.059002 0.1322915,-0.1322918 0,-0.07329 -0.059002,-0.1322917 -0.1322915,-0.1322917 z m 0,0.79375 c -0.07329,0 -0.1322917,0.059002 -0.1322917,0.132292 0,0.073289 0.059002,0.1322915 0.1322917,0.1322915 h 2.9104169 c 0.07329,0 0.1322915,-0.059002 0.1322915,-0.1322915 0,-0.07329 -0.059002,-0.132292 -0.1322915,-0.132292 z"
     sodipodi:nodetypes="sssssssssssssssssssssssssssssssssssss" />
</svg>
