<?xml version="1.0" encoding="UTF-8" standalone="no"?>
<!-- Created with Inkscape (http://www.inkscape.org/) -->

<svg
   width="32"
   height="32"
   viewBox="0 0 8.4666665 8.466667"
   version="1.1"
   id="svg5"
   inkscape:version="1.1.2 (0a00cf5339, 2022-02-04, custom)"
   sodipodi:docname="colors.svg"
   xmlns:inkscape="http://www.inkscape.org/namespaces/inkscape"
   xmlns:sodipodi="http://sodipodi.sourceforge.net/DTD/sodipodi-0.dtd"
   xmlns="http://www.w3.org/2000/svg"
   xmlns:svg="http://www.w3.org/2000/svg">
  <sodipodi:namedview
     id="namedview7"
     pagecolor="#ffffff"
     bordercolor="#666666"
     borderopacity="1.0"
     inkscape:pageshadow="2"
     inkscape:pageopacity="0.0"
     inkscape:pagecheckerboard="0"
     inkscape:document-units="px"
     showgrid="false"
     units="px"
     height="64px"
     inkscape:zoom="24.6875"
     inkscape:cx="15.979747"
     inkscape:cy="16"
     inkscape:window-width="1920"
     inkscape:window-height="1005"
     inkscape:window-x="0"
     inkscape:window-y="0"
     inkscape:window-maximized="1"
     inkscape:current-layer="svg5" />
  <defs
     id="defs2">
    <linearGradient
       id="linearGradient45680"
       x1="-102.06"
       x2="-102.06"
       y1="1.3231"
       y2="19.157"
       gradientTransform="matrix(0.42838108,0,0,0.41482187,48.355542,-0.01966981)"
       gradientUnits="userSpaceOnUse">
      <stop
         stop-color="#ffdc23"
         offset="0"
         id="stop22" />
      <stop
         stop-color="#e6628a"
         offset=".31552"
         id="stop24" />
      <stop
         stop-color="#7b5fc1"
         offset=".55428"
         id="stop26" />
      <stop
         stop-color="#1e9be1"
         offset=".79721"
         id="stop28" />
      <stop
         stop-color="#0082dc"
         offset="1"
         id="stop30" />
    </linearGradient>
    <linearGradient
       id="linearGradient1954"
       x1="-109.09"
       x2="-101.26"
       y1="11.122"
       y2="18.440001"
       gradientTransform="matrix(0.42838108,0,0,0.41482187,48.355542,-0.01967448)"
       gradientUnits="userSpaceOnUse">
      <stop
         stop-color="#64d2eb"
         offset="0"
         id="stop2" />
      <stop
         stop-color="#0082dc"
         offset="1"
         id="stop4" />
    </linearGradient>
    <linearGradient
       id="linearGradient1431"
       x1="-107.04"
       x2="-99.660004"
       y1="6.9531002"
       y2="17.895"
       gradientTransform="matrix(0.42838108,0,0,0.41482187,48.355542,-0.01969315)"
       gradientUnits="userSpaceOnUse">
      <stop
         stop-color="#a578e1"
         offset="0"
         id="stop7" />
      <stop
         stop-color="#5046a0"
         offset="1"
         id="stop9" />
    </linearGradient>
    <linearGradient
       id="linearGradient1439"
       x1="-105"
       x2="-97.016998"
       y1="4.2921"
       y2="13.799"
       gradientTransform="matrix(0.42838108,0,0,0.41482187,48.355542,-0.01954381)"
       gradientUnits="userSpaceOnUse">
      <stop
         stop-color="#eb82aa"
         offset="0"
         id="stop12" />
      <stop
         stop-color="#dc2850"
         offset="1"
         id="stop14" />
    </linearGradient>
    <linearGradient
       id="linearGradient1447"
       x1="-102.1"
       x2="-98.566002"
       y1="1.4752001"
       y2="7.8610001"
       gradientTransform="matrix(0.42838108,0,0,0.41482187,48.350722,-0.01959981)"
       gradientUnits="userSpaceOnUse">
      <stop
         stop-color="#ffdc23"
         offset="0"
         id="stop17" />
      <stop
         stop-color="#f0a019"
         offset="1"
         id="stop19" />
    </linearGradient>
  </defs>
  <path
     d="M 4.6365183,0.52917153 C 4.5509616,0.52851813 4.479376,0.59428183 4.479376,0.59428183 4.1088985,0.90685543 3.7973512,1.2038981 3.5116161,1.4923493 v 2.411e-4 C 3.1665459,1.8408739 2.8950854,2.1629677 2.6554226,2.4716725 2.085398,3.2059374 1.8150364,3.7921733 1.6562892,4.2567006 h -2.49e-4 c 2.08e-5,7.66e-5 -1.86e-5,1.642e-4 0,2.412e-4 3.08e-5,7.96e-5 -2.7e-5,1.616e-4 0,2.411e-4 -0.2102556,0.6155431 -0.200723,0.9940621 -0.200723,0.9940621 -4.4e-6,1.48351 1.2418323,2.686269 2.7737854,2.6862225 0.2433255,0 0.475798,-0.03871 0.6998078,-0.096219 C 5.6865011,7.6467575 6.3163331,7.153558 6.6746466,6.4941475 V 6.493681 C 6.8773746,6.120561 7.0031291,5.702155 7.0031291,5.2512545 h 0.00572 c 0,0 0.064222,-0.663657 -0.4532485,-1.5363841 -0.077856,-0.097624 -0.214328,-0.2837565 -0.3150365,-0.4102065 -0.077017,-0.015825 -0.152588,-0.031818 -0.227123,-0.047988 0.074371,0.016135 0.1500385,0.031961 0.2268725,0.04775 C 5.5971376,2.7419904 4.8967514,2.4050051 4.7403657,0.86274083 4.7140621,0.67652853 4.7716062,0.52922293 4.636515,0.52922293 Z M 3.9837948,2.4610619 c 0.012645,0.00978 0.025617,0.019423 0.03885,0.02918 0.013233,0.00976 0.02676,0.01969 0.040593,0.029421 -0.013833,-0.00973 -0.02736,-0.019423 -0.040593,-0.029179 -0.013234,-0.00976 -0.026205,-0.019643 -0.03885,-0.029421 z m 0.4913739,0.2978267 c 0.031982,0.015599 0.064709,0.031105 0.098617,0.046544 -0.033966,-0.015465 -0.066588,-0.030917 -0.098617,-0.046544 z m 0.2251327,0.1017676 c 0.037313,0.015653 0.075846,0.0311 0.1153062,0.046543 -0.039402,-0.01542 -0.078048,-0.030914 -0.1153062,-0.046543 z M 2.6683961,2.9660405 c 0.00605,0.027237 0.013215,0.054596 0.021168,0.081752 -0.00797,-0.027233 -0.015109,-0.054438 -0.021168,-0.081752 z m 3.1777375,0.2529747 c 0.027625,0.00637 0.05547,0.01276 0.083678,0.019051 -0.02822,-0.0063 -0.056034,-0.012678 -0.083678,-0.019051 z M 3.4162521,3.9419866 c 0.035992,0.023815 0.073624,0.047358 0.112564,0.070659 -0.038946,-0.023301 -0.076574,-0.046845 -0.112564,-0.070659 z m 0.233846,0.1398715 c 0.041977,0.022756 0.085407,0.045115 0.1304965,0.06728 -0.045088,-0.022168 -0.088521,-0.044526 -0.1304965,-0.06728 z m 0.5802415,0.2582761 c 0.054964,0.020206 0.1116627,0.04008 0.1700917,0.059566 -0.058429,-0.019486 -0.1151278,-0.03936 -0.1700917,-0.059566 z m 0.2589978,0.088505 c 0.060193,0.019112 0.1220146,0.037854 0.1857833,0.056188 -0.063769,-0.018335 -0.1255905,-0.037079 -0.1857833,-0.056188 z m 0.3827714,0.1099671 c 0.03371,0.00876 0.067716,0.017254 0.1023567,0.025804 0.034641,0.00855 0.06868,0.017506 0.1021061,0.026527 -0.03342,-0.00902 -0.067475,-0.017736 -0.1021061,-0.026286 -0.034638,-0.00855 -0.068646,-0.017284 -0.1023567,-0.026045 z m 0.8205788,0.274675 c 0.050743,0.024162 0.099282,0.049001 0.145687,0.074756 -0.046409,-0.025758 -0.094939,-0.050597 -0.145687,-0.074756 z m 0.556868,0.372588 c 0.03215,0.03081 0.062309,0.062198 0.090651,0.094292 -0.02834,-0.032095 -0.058502,-0.063487 -0.090651,-0.094292 z m 0.2057065,0.242843 c 0.022855,0.033905 0.04391,0.068423 0.063257,0.103457 -0.01935,-0.035035 -0.0404,-0.069548 -0.063257,-0.103457 z M 5.2362246,7.6145665 c -0.030765,0.02768 -0.062886,0.054872 -0.095879,0.081271 0.032995,-0.0264 0.065113,-0.053593 0.095879,-0.081271 z M 5.0902871,7.734903 c -0.016925,0.012855 -0.034035,0.0256 -0.051301,0.038105 -0.00901,0.00652 -0.01803,0.012365 -0.027145,0.01809 0.00912,-0.00572 0.018135,-0.011805 0.027145,-0.018325 0.017265,-0.012505 0.034375,-0.025005 0.051301,-0.03786 z"
     fill="url(#linearGradient45680)"
     id="path35"
     style="fill:url(#linearGradient45680);stroke-width:0.421547" />
  <path
     d="M 1.6562748,4.2567488 C 1.4458409,4.8725719 1.4552722,5.251371 1.4552722,5.251371 c -4.3e-6,1.48351 1.2419769,2.686176 2.7739301,2.686129 0.2433255,0 0.4757594,-0.03874 0.6997596,-0.096246 0.036969,-0.02447 0.073981,-0.04229 0.1100147,-0.068378 0.138135,-0.1000175 0.266699,-0.2116645 0.363706,-0.331189 0.048505,-0.059757 0.089041,-0.121438 0.119094,-0.1847795 0.030055,-0.063337 0.049635,-0.128158 0.055784,-0.194211 0.00615,-0.066053 -0.00115,-0.13338 -0.02435,-0.201286 C 5.5300151,6.7935095 5.4907766,6.7249365 5.4327861,6.6560555 5.3747936,6.587174 5.2981381,6.51799 5.1999021,6.4489825 5.1016706,6.3799755 4.9818969,6.311244 4.837969,6.2429835 4.6940412,6.1747185 4.525882,6.10685 4.3307879,6.0401995 4.1357227,5.9735445 3.9136887,5.908019 3.6620644,5.843842 3.4104112,5.779665 3.1866471,5.704577 2.9879915,5.6200485 2.7893215,5.5355195 2.6157695,5.441508 2.4650995,5.339876 2.3144488,5.2382485 2.1866318,5.1288835 2.0790317,5.013405 1.9714365,4.8979217 1.8840147,4.7763671 1.8144966,4.6502764 1.7449785,4.5241858 1.6932869,4.3935823 1.6568868,4.2601416 c -3.084e-4,-0.00112 -3.6e-4,-0.00228 -8.65e-4,-0.00345 z"
     fill="url(#linearGradient1954)"
     id="path37"
     style="fill:url(#linearGradient1954);stroke-width:0.421547" />
  <path
     d="m 1.6559856,4.2567488 c 3.041e-4,0.00112 3.557e-4,0.00229 8.65e-4,0.00346 0.036414,0.1334455 0.088092,0.2640489 0.1576098,0.3901349 0.069518,0.126086 0.1569351,0.2476452 0.2645352,0.3631283 0.1076001,0.115483 0.235417,0.2248435 0.3860678,0.326471 0.1506507,0.1016275 0.3241978,0.195644 0.522892,0.2801725 0.1986652,0.084528 0.4224099,0.1596165 0.6740728,0.2237935 0.251658,0.064177 0.4737016,0.1297025 0.6687235,0.196358 0.1950652,0.066655 0.3632244,0.134523 0.5071811,0.2027835 0.1439279,0.068265 0.2637013,0.136997 0.3619328,0.2059995 0.098237,0.069007 0.174892,0.1381865 0.232882,0.2070725 0.057991,0.068886 0.097229,0.137454 0.1204245,0.205355 0.023195,0.067902 0.030505,0.135233 0.024345,0.201286 -0.00615,0.066053 -0.02573,0.130874 -0.055784,0.194211 -0.030055,0.063337 -0.070588,0.1250175 -0.119094,0.1847795 -0.097012,0.11952 -0.225571,0.231172 -0.363706,0.3311895 -0.03603,0.02609 -0.073051,0.043915 -0.1100147,0.068377 0.7575907,-0.194491 1.3873747,-0.687831 1.7456882,-1.347241 0.00135,-0.01109 0.00611,-0.02282 0.00731,-0.03387 0.017865,-0.1662805 0.01579,-0.328221 -0.010185,-0.483614 C 6.6457521,5.821197 6.5959341,5.672361 6.5185411,5.5322325 6.4411511,5.392092 6.3361681,5.2607235 6.1997776,5.1401675 6.0633871,5.019602 5.8955846,4.9099152 5.6925961,4.813267 5.4896371,4.7166188 5.2515791,4.6330048 4.9745234,4.5646044 4.6974147,4.496204 4.4501374,4.4209948 4.2302818,4.3401715 4.0104358,4.2593482 3.8179874,4.1728922 3.6500885,4.0818674 3.4821799,3.9908427 3.3388352,3.8953378 3.2175532,3.7963376 3.0962567,3.697342 2.9969506,3.5949771 2.9169361,3.4902321 2.8369215,3.3854918 2.7761504,3.2782408 2.7320925,3.1699771 2.6880395,3.0617134 2.6607286,2.9524183 2.6473069,2.8428619 2.6338997,2.7333055 2.6345406,2.6235111 2.6464394,2.5148927 c 0.00174,-0.014551 0.00685,-0.028579 0.00887,-0.043088 C 2.0852824,3.2060696 1.8150171,3.7922589 1.65627,4.2567862 Z"
     fill="url(#linearGradient1431)"
     id="path39"
     style="fill:url(#linearGradient1431);stroke-width:0.421547" />
  <path
     d="m 2.6553117,2.4717674 c -0.00212,0.014509 -0.00728,0.028537 -0.00887,0.043088 -0.011865,0.1086231 -0.01255,0.2184175 8.65e-4,0.3279692 0.013407,0.1095564 0.040737,0.2188514 0.084786,0.3271151 0.044053,0.1082637 0.104829,0.2155148 0.1848435,0.3202551 0.080014,0.1047403 0.1793206,0.2071099 0.3006171,0.3061055 0.1213013,0.098996 0.264646,0.1945004 0.4325353,0.2855298 0.1679086,0.091025 0.360357,0.1774761 0.5801933,0.2583041 0.219846,0.080823 0.4671474,0.1560371 0.7442416,0.2244329 0.2771089,0.0684 0.5151809,0.1520097 0.7181209,0.2486626 0.202969,0.096648 0.370762,0.2063353 0.5071815,0.3269003 0.1363855,0.1205655 0.2413735,0.2519295 0.318771,0.392067 0.077398,0.1401375 0.12721,0.2889925 0.153186,0.4443575 0.025975,0.155379 0.028045,0.31732 0.010185,0.4836145 -0.0012,0.011045 -0.00594,0.022785 -0.00731,0.03387 0.2027905,-0.3731665 0.328506,-0.7916655 0.328506,-1.2426595 h 0.00576 c 0,0 0.064115,-0.6637971 -0.453355,-1.5365242 C 6.4777196,3.6172328 6.3412716,3.4310158 6.2405676,3.3045659 5.9968711,3.2544917 5.7622396,3.2030549 5.5578686,3.147866 5.3148801,3.0822517 5.0985136,3.0134453 4.906398,2.9420815 4.7142677,2.8707177 4.5463254,2.7968012 4.3999397,2.7212887 4.2535203,2.6457761 4.1285901,2.5684763 4.0227298,2.490425 3.9168646,2.4123738 3.8299826,2.3336132 3.7595247,2.2546287 3.689062,2.1756441 3.6350427,2.0965008 3.5948258,2.0181883 3.5545992,1.9398757 3.5282667,1.8622865 3.5131438,1.7862466 3.4980209,1.7102114 3.4941655,1.6356789 3.4989655,1.5635264 c 0.00173,-0.024612 0.0093,-0.047134 0.012853,-0.071168 -0.3451858,0.3483817 -0.6167716,0.6706108 -0.8564827,0.979409 z"
     fill="url(#linearGradient1439)"
     id="path41"
     style="fill:url(#linearGradient1439);stroke-width:0.421547" />
  <path
     d="M 3.511698,1.492312 C 3.508278,1.516351 3.500474,1.538862 3.498845,1.56348 3.494025,1.635632 3.49798,1.7101649 3.513023,1.7862001 c 0.015123,0.076035 0.041465,0.1536245 0.081682,0.231937 0.040226,0.078313 0.094236,0.1574558 0.1646987,0.2364404 0.070458,0.078985 0.1573399,0.1577452 0.2632051,0.2357964 0.1058603,0.078051 0.2307906,0.1553558 0.37721,0.2308636 0.1464145,0.075513 0.3143569,0.1494244 0.5064582,0.2207928 0.1921161,0.071369 0.4084921,0.1401702 0.6514706,0.2057846 0.2043615,0.055184 0.4390025,0.1066257 0.682699,0.1566998 C 5.5972661,2.742079 4.896639,2.4050004 4.7402533,0.86273613 4.7139496,0.67652383 4.7715256,0.52919013 4.6364363,0.52919013 4.5508796,0.52853683 4.4794868,0.59435653 4.4794868,0.59435653 4.1090094,0.90693013 3.7974139,1.2038794 3.5116787,1.4923306 Z"
     fill="url(#linearGradient1447)"
     id="path43"
     style="fill:url(#linearGradient1447);stroke-width:0.421547" />
</svg>
