<?xml version="1.0" encoding="UTF-8" standalone="no"?>
<!-- Created with Inkscape (http://www.inkscape.org/) -->

<svg
   width="32"
   height="32"
   viewBox="0 0 8.4666666 8.4666666"
   version="1.1"
   id="svg5"
   inkscape:version="1.1.2 (0a00cf5339, 2022-02-04, custom)"
   sodipodi:docname="dconf-editor.svg"
   xmlns:inkscape="http://www.inkscape.org/namespaces/inkscape"
   xmlns:sodipodi="http://sodipodi.sourceforge.net/DTD/sodipodi-0.dtd"
   xmlns:xlink="http://www.w3.org/1999/xlink"
   xmlns="http://www.w3.org/2000/svg"
   xmlns:svg="http://www.w3.org/2000/svg">
  <sodipodi:namedview
     id="namedview7"
     pagecolor="#ffffff"
     bordercolor="#666666"
     borderopacity="1.0"
     inkscape:pageshadow="2"
     inkscape:pageopacity="0.0"
     inkscape:pagecheckerboard="0"
     inkscape:document-units="px"
     showgrid="false"
     units="px"
     height="48px"
     inkscape:zoom="24.96875"
     inkscape:cx="15.979975"
     inkscape:cy="16"
     inkscape:window-width="1920"
     inkscape:window-height="1004"
     inkscape:window-x="0"
     inkscape:window-y="24"
     inkscape:window-maximized="1"
     inkscape:current-layer="svg5"
     inkscape:lockguides="true"
     showguides="false" />
  <defs
     id="defs2">
    <linearGradient
       inkscape:collect="always"
       id="linearGradient239772">
      <stop
         style="stop-color:#aeb7bc;stop-opacity:1;"
         offset="0"
         id="stop239768" />
      <stop
         style="stop-color:#959ea5;stop-opacity:1"
         offset="1"
         id="stop239770" />
    </linearGradient>
    <linearGradient
       inkscape:collect="always"
       xlink:href="#linearGradient239772"
       id="linearGradient1850"
       x1="32.349182"
       y1="2.0000002"
       x2="31.650818"
       y2="62"
       gradientUnits="userSpaceOnUse"
       gradientTransform="matrix(0.51724143,0,0,0.51724143,-0.55148153,-0.55172421)" />
  </defs>
  <path
     id="path1303"
     style="color:#000000;fill:url(#linearGradient1850);fill-opacity:1;stroke:none;stroke-width:1.95474;stroke-linecap:round;stroke-linejoin:round;-inkscape-stroke:none"
     d="m 13.931641,1 c -1.017063,4.239e-4 -1.885545,0.7374757 -2.044922,1.7421875 L 11.119141,7.5488281 6.578125,5.8125 C 5.6283271,5.4481762 4.5518674,5.8283741 4.0429688,6.7089844 L 1.9746094,10.291016 C 1.4664449,11.172031 1.6744263,12.29126 2.4648438,12.931641 L 6.2402344,16 2.4609375,19.068359 c -0.7882583,0.641077 -0.9941343,1.760829 -0.4863281,2.640625 l 2.0683594,3.582032 c 0.508021,0.87977 1.5819271,1.262497 2.53125,0.90039 l 4.5449222,-1.740234 0.767578,4.808594 c 0.161057,1.00319 1.029092,1.740112 2.044922,1.740234 h 4.136718 c 1.015829,-1.25e-4 1.883866,-0.737044 2.044922,-1.740234 l 0.767578,-4.808594 4.544922,1.740234 c 0.949322,0.362105 2.02323,-0.02064 2.53125,-0.90039 l 2.06836,-3.582032 c 0.507806,-0.879796 0.301931,-1.999549 -0.486329,-2.640625 L 25.759766,16 l 3.77539,-3.068359 c 0.79042,-0.640381 0.998399,-1.75961 0.490235,-2.640625 L 27.957031,6.7089844 C 27.448134,5.8283873 26.371671,5.4481766 25.421875,5.8125 L 20.880859,7.5488281 20.113281,2.7421875 C 19.953906,1.7374762 19.085422,1.0004247 18.068359,1 Z M 16,11 c 2.761424,0 5,2.238575 5,5 0,2.761424 -2.238576,5 -5,5 -2.761423,0 -5,-2.238576 -5,-5 0,-2.761425 2.238577,-5 5,-5 z"
     transform="scale(0.26458333)" />
  <rect
     style="fill:#797774;fill-opacity:1;stroke-width:0.264583"
     id="rect1153"
     width="4.2333331"
     height="3.175"
     x="3.968678"
     y="5.0270829"
     ry="0.52916664" />
  <rect
     style="fill:#fafafa;fill-opacity:1;stroke-width:0.227717"
     id="rect1359"
     width="3.7041667"
     height="2.3812499"
     x="4.2332616"
     y="5.5562496"
     ry="0.26458332" />
  <path
     id="rect15129"
     style="fill:#106fd6;fill-opacity:1;stroke-width:0.324046"
     d="M 5.3181714,6.7904132 5.7980637,7.2967923 5.9851525,7.4838809 6.172241,7.2967923 7.2626737,6.2063596 7.075585,6.0192709 5.9851523,7.1097036 5.5052599,6.6033246 Z"
     sodipodi:nodetypes="ccccccccc" />
</svg>
