<?xml version="1.0" encoding="UTF-8" standalone="no"?>
<svg
   width="32"
   height="32"
   version="1.1"
   viewBox="0 0 8.4665 8.4665"
   id="svg6"
   sodipodi:docname="disk-utility.svg"
   inkscape:version="1.1.2 (0a00cf5339, 2022-02-04, custom)"
   xmlns:inkscape="http://www.inkscape.org/namespaces/inkscape"
   xmlns:sodipodi="http://sodipodi.sourceforge.net/DTD/sodipodi-0.dtd"
   xmlns:xlink="http://www.w3.org/1999/xlink"
   xmlns="http://www.w3.org/2000/svg"
   xmlns:svg="http://www.w3.org/2000/svg"
   xmlns:rdf="http://www.w3.org/1999/02/22-rdf-syntax-ns#"
   xmlns:cc="http://creativecommons.org/ns#"
   xmlns:dc="http://purl.org/dc/elements/1.1/">
  <defs
     id="defs10">
    <linearGradient
       inkscape:collect="always"
       id="linearGradient58462">
      <stop
         style="stop-color:#636363;stop-opacity:1;"
         offset="0"
         id="stop58458" />
      <stop
         style="stop-color:#ababab;stop-opacity:0.99607843"
         offset="1"
         id="stop58460" />
    </linearGradient>
    <linearGradient
       inkscape:collect="always"
       id="linearGradient50927">
      <stop
         style="stop-color:#000000;stop-opacity:1;"
         offset="0"
         id="stop50923" />
      <stop
         style="stop-color:#000000;stop-opacity:0;"
         offset="1"
         id="stop50925" />
    </linearGradient>
    <linearGradient
       inkscape:collect="always"
       id="linearGradient50337">
      <stop
         style="stop-color:#ffffff;stop-opacity:1;"
         offset="0"
         id="stop50333" />
      <stop
         style="stop-color:#ffffff;stop-opacity:0;"
         offset="1"
         id="stop50335" />
    </linearGradient>
    <linearGradient
       inkscape:collect="always"
       id="linearGradient48004">
      <stop
         style="stop-color:#ffffff;stop-opacity:0"
         offset="0"
         id="stop48000" />
      <stop
         style="stop-color:#ffffff;stop-opacity:1"
         offset="0.50032598"
         id="stop48328" />
      <stop
         style="stop-color:#ffffff;stop-opacity:0;"
         offset="1"
         id="stop48002" />
    </linearGradient>
    <linearGradient
       inkscape:collect="always"
       id="linearGradient10484">
      <stop
         style="stop-color:#2e2e2e;stop-opacity:1;"
         offset="0"
         id="stop10480" />
      <stop
         style="stop-color:#616161;stop-opacity:1"
         offset="1"
         id="stop10482" />
    </linearGradient>
    <linearGradient
       inkscape:collect="always"
       xlink:href="#linearGradient10484"
       id="linearGradient10486"
       x1="5.2163401"
       y1="13.009703"
       x2="5.2163401"
       y2="16.921772"
       gradientUnits="userSpaceOnUse"
       gradientTransform="matrix(0.49892454,0,0,0.50723427,1.6380875,-2.762592)" />
    <linearGradient
       inkscape:collect="always"
       xlink:href="#linearGradient48004"
       id="linearGradient48006"
       x1="0.54178363"
       y1="10.597012"
       x2="3.0651259"
       y2="13.265047"
       gradientUnits="userSpaceOnUse"
       gradientTransform="matrix(0.50000002,0,0,0.50000002,3.8e-7,-0.26458665)" />
    <radialGradient
       inkscape:collect="always"
       xlink:href="#linearGradient50337"
       id="radialGradient50339"
       cx="3.5557096"
       cy="10.338881"
       fx="3.5557096"
       fy="10.338881"
       r="0.66144532"
       gradientUnits="userSpaceOnUse"
       gradientTransform="matrix(0.59999997,0,0,0.59999997,-0.3174932,-1.2170672)" />
    <linearGradient
       inkscape:collect="always"
       xlink:href="#linearGradient50927"
       id="linearGradient50929"
       x1="0.81698829"
       y1="6.6935077"
       x2="2.7050784"
       y2="7.9747996"
       gradientUnits="userSpaceOnUse"
       gradientTransform="matrix(0.50000002,0,0,0.50000002,3.8e-7,-0.13229785)" />
    <linearGradient
       inkscape:collect="always"
       xlink:href="#linearGradient50927"
       id="linearGradient51339"
       gradientUnits="userSpaceOnUse"
       x1="0.81698829"
       y1="6.6935077"
       x2="2.7050784"
       y2="7.9747996"
       gradientTransform="matrix(-0.50000002,0,0,0.50000002,8.4665008,-0.13229785)" />
    <linearGradient
       inkscape:collect="always"
       xlink:href="#linearGradient58462"
       id="linearGradient58464"
       x1="9.5248117"
       y1="8.3342104"
       x2="9.5248108"
       y2="12.56746"
       gradientUnits="userSpaceOnUse"
       gradientTransform="matrix(0.50000002,0,0,0.50000002,3.8e-7,-0.26458665)" />
    <linearGradient
       inkscape:collect="always"
       xlink:href="#linearGradient48004"
       id="linearGradient71108"
       gradientUnits="userSpaceOnUse"
       x1="0.54178363"
       y1="10.597012"
       x2="3.0651259"
       y2="13.265047"
       gradientTransform="matrix(-0.50000002,0,0,0.50000002,8.4664997,-0.26458665)" />
    <filter
       inkscape:collect="always"
       style="color-interpolation-filters:sRGB"
       id="filter1844"
       x="-0.26508001"
       y="-0.26508001"
       width="1.53016"
       height="1.53016">
      <feGaussianBlur
         inkscape:collect="always"
         stdDeviation="0.087667961"
         id="feGaussianBlur1846" />
    </filter>
    <linearGradient
       inkscape:collect="always"
       xlink:href="#linearGradient7024"
       id="linearGradient7026"
       x1="14.634075"
       y1="13.653037"
       x2="4.0507412"
       y2="3.0697033"
       gradientUnits="userSpaceOnUse"
       gradientTransform="matrix(0.25,0,0,0.25,4.0143978,4.1546271)" />
    <linearGradient
       inkscape:collect="always"
       id="linearGradient7024">
      <stop
         style="stop-color:#ffffff;stop-opacity:1;"
         offset="0"
         id="stop7020" />
      <stop
         style="stop-color:#f0f0f0;stop-opacity:1"
         offset="0.25"
         id="stop7732" />
      <stop
         style="stop-color:#cccccc;stop-opacity:1"
         offset="1"
         id="stop7022" />
    </linearGradient>
    <linearGradient
       inkscape:collect="always"
       xlink:href="#linearGradient6060"
       id="linearGradient6062"
       x1="1.0583334"
       y1="1.0583338"
       x2="15.345835"
       y2="13.229167"
       gradientUnits="userSpaceOnUse"
       gradientTransform="matrix(0.25,0,0,0.25,4.2333333,4.1283011)" />
    <linearGradient
       inkscape:collect="always"
       id="linearGradient6060">
      <stop
         style="stop-color:#8a8f97;stop-opacity:1;"
         offset="0"
         id="stop6056" />
      <stop
         style="stop-color:#8a8f97;stop-opacity:1"
         offset="0.14573747"
         id="stop6576" />
      <stop
         style="stop-color:#616e7a;stop-opacity:1"
         offset="0.89999998"
         id="stop6770" />
      <stop
         style="stop-color:#616e7a;stop-opacity:1"
         offset="1"
         id="stop6058" />
    </linearGradient>
    <linearGradient
       inkscape:collect="always"
       xlink:href="#linearGradient8250"
       id="linearGradient8252"
       x1="5.458415"
       y1="4.8895097"
       x2="12.337581"
       y2="11.768677"
       gradientUnits="userSpaceOnUse"
       gradientTransform="matrix(0.25,0,0,0.25,4.0593546,4.0965486)" />
    <linearGradient
       inkscape:collect="always"
       id="linearGradient8250">
      <stop
         style="stop-color:#0568ba;stop-opacity:1;"
         offset="0"
         id="stop8246" />
      <stop
         style="stop-color:#0568ba;stop-opacity:1"
         offset="0.23999999"
         id="stop9054" />
      <stop
         style="stop-color:#0f4c8a;stop-opacity:1"
         offset="0.80000001"
         id="stop8830" />
      <stop
         style="stop-color:#0f4c8f;stop-opacity:1"
         offset="1"
         id="stop8248" />
    </linearGradient>
  </defs>
  <sodipodi:namedview
     id="namedview8"
     pagecolor="#ffffff"
     bordercolor="#666666"
     borderopacity="1.0"
     inkscape:pageshadow="2"
     inkscape:pageopacity="0.0"
     inkscape:pagecheckerboard="0"
     showgrid="false"
     inkscape:zoom="24.5625"
     inkscape:cx="16"
     inkscape:cy="16"
     inkscape:window-width="1920"
     inkscape:window-height="1004"
     inkscape:window-x="0"
     inkscape:window-y="0"
     inkscape:window-maximized="1"
     inkscape:current-layer="svg6" />
  <metadata
     id="metadata2">
    <rdf:RDF>
      <cc:Work
         rdf:about="">
        <dc:format>image/svg+xml</dc:format>
        <dc:type
           rdf:resource="http://purl.org/dc/dcmitype/StillImage" />
      </cc:Work>
    </rdf:RDF>
  </metadata>
  <g
     id="g920"
     transform="translate(0,0.26459535)">
    <path
       id="rect31485"
       style="opacity:1;fill:#e1e3e6;fill-opacity:1;stroke-width:0.264578;stroke-linecap:round;stroke-linejoin:round;stroke-dasharray:3.17494, 0.264578"
       d="M 2.3755192,2.3811944 C 2.2576639,2.3805461 2.1656561,2.4172652 2.1223097,2.4599994 l -1.51563995,1.5861769 0.187065,-0.077513 H 2.3812035 6.0852974 7.6727662 L 7.8598311,4.0461763 6.3441912,2.4599994 C 6.3008447,2.4172644 6.2088374,2.3805443 6.0909818,2.3811944 Z"
       sodipodi:nodetypes="ccccccccccc" />
    <path
       id="rect31485-9"
       style="opacity:0.3;fill:url(#linearGradient50929);fill-opacity:1;stroke-width:0.264578;stroke-linecap:round;stroke-linejoin:round;stroke-dasharray:3.17494, 0.264578"
       d="m 2.3755192,2.3811944 c -0.1178553,-6.5e-4 -0.2098631,0.036071 -0.2532095,0.078805 l -1.51563995,1.5861769 0.187065,-0.077513 H 2.3812035 6.0852976 7.6727662 L 7.8598312,4.0461763 6.3441911,2.4599994 C 6.3008461,2.4172644 6.2088376,2.3805445 6.0909816,2.3811944 Z"
       sodipodi:nodetypes="ccccccccccc" />
    <path
       id="rect31485-9-0"
       style="opacity:0.3;fill:url(#linearGradient51339);fill-opacity:1;stroke-width:0.264578;stroke-linecap:round;stroke-linejoin:round;stroke-dasharray:3.17494, 0.264578"
       d="m 6.0909816,2.3811944 c 0.1178555,-6.5e-4 0.209863,0.036071 0.2532095,0.078805 L 7.8598312,4.0461763 7.6727662,3.9686634 H 6.0852971 2.3812033 0.79373475 l -0.187065,0.077513 1.51564005,-1.5861769 c 0.043345,-0.042735 0.1353535,-0.079455 0.2532095,-0.078805 z"
       sodipodi:nodetypes="ccccccccccc" />
    <path
       id="rect849"
       style="fill:url(#linearGradient58464);fill-opacity:1;stroke-width:0.264578;stroke-linecap:round;stroke-linejoin:round;stroke-dasharray:3.17494, 0.264578"
       d="M 0.79373475,3.9686717 H 7.6727657 c 0.1465765,0 0.264578,0.118002 0.264578,0.2645785 V 5.82071 c 0,0.1465765 -0.1180015,0.264578 -0.264578,0.264578 H 0.79373475 c -0.1465765,0 -0.2645785,-0.1180015 -0.2645785,-0.264578 V 4.2332502 c 0,-0.1465765 0.118002,-0.2645785 0.2645785,-0.2645785 z"
       sodipodi:nodetypes="sssssssss" />
    <path
       id="rect849-5"
       style="opacity:0.4;fill:url(#linearGradient48006);fill-opacity:1;stroke-width:0.264578;stroke-linecap:round;stroke-linejoin:round;stroke-dasharray:3.17494, 0.264578"
       d="M 0.79373475,3.9686717 H 7.6727657 c 0.1465765,0 0.264578,0.118002 0.264578,0.2645785 V 5.82071 c 0,0.1465765 -0.1180015,0.264578 -0.264578,0.264578 H 0.79373475 c -0.1465765,0 -0.2645785,-0.1180015 -0.2645785,-0.264578 V 4.2332502 c 0,-0.1465765 0.118002,-0.2645785 0.2645785,-0.2645785 z"
       sodipodi:nodetypes="sssssssss" />
    <path
       id="rect849-5-8"
       style="opacity:0.4;fill:url(#linearGradient71108);fill-opacity:1;stroke-width:0.264578;stroke-linecap:round;stroke-linejoin:round;stroke-dasharray:3.17494, 0.264578"
       d="M 7.6727652,3.9686717 H 0.79373425 c -0.1465765,0 -0.264578,0.118002 -0.264578,0.2645785 V 5.82071 c 0,0.1465765 0.1180015,0.264578 0.264578,0.264578 H 7.6727652 c 0.1465765,0 0.2645785,-0.1180015 0.2645785,-0.264578 V 4.2332502 c 0,-0.1465765 -0.118002,-0.2645785 -0.2645785,-0.2645785 z"
       sodipodi:nodetypes="sssssssss" />
    <path
       id="rect1094"
       style="fill:url(#linearGradient10486);stroke-width:0.266199;stroke-linecap:round;stroke-linejoin:round;stroke-dasharray:3.19438, 0.266199"
       d="m 0.79373475,3.9686716 v 1.5874605 c 0,0.1465766 0.1180019,0.2645782 0.26457815,0.2645782 H 7.408188 c 0.1465761,0 0.2645782,-0.1180015 0.2645782,-0.2645782 V 3.9686716 Z"
       sodipodi:nodetypes="csssscc" />
    <circle
       style="opacity:1;fill:#12ff12;fill-opacity:1;stroke-width:0.3435;stroke-linecap:round;stroke-linejoin:round;stroke-dasharray:4.12199, 0.3435;filter:url(#filter1844)"
       id="path25907"
       cx="1.9843364"
       cy="4.8946867"
       r="0.39686719" />
    <circle
       style="fill:#12ff12;fill-opacity:1;stroke-width:0.317494;stroke-linecap:round;stroke-linejoin:round;stroke-dasharray:3.80993, 0.317494"
       id="path30449"
       cx="1.9843364"
       cy="4.8946872"
       r="0.39686719" />
    <circle
       style="opacity:0.7;fill:url(#radialGradient50339);fill-opacity:1;stroke-width:0.317494;stroke-linecap:round;stroke-linejoin:round;stroke-dasharray:3.80993, 0.317494"
       id="path50091"
       cx="1.9843364"
       cy="4.8946872"
       r="0.39686719" />
    <path
       id="path49923"
       style="opacity:0.2;fill:#000000;fill-opacity:1;stroke-width:0.317494;stroke-linecap:round;stroke-linejoin:round;stroke-dasharray:3.80993, 0.317494"
       d="M 2.1939316,4.6057179 A 0.35718044,0.35718044 0 0 1 2.2621433,4.8153133 0.35718044,0.35718044 0 0 1 1.9049629,5.1724937 0.35718044,0.35718044 0 0 1 1.6953674,5.1042821 0.35718044,0.35718044 0 0 0 1.9843363,5.2518672 0.35718044,0.35718044 0 0 0 2.3415167,4.8946868 0.35718044,0.35718044 0 0 0 2.1939316,4.6057179 Z" />
  </g>
  <g
     id="g871"
     transform="matrix(0.9999803,0,0,0.9999803,0,-2.9103594)">
    <circle
       style="fill:url(#linearGradient7026);fill-opacity:1;stroke-width:0.0661457"
       id="path6952"
       cx="6.3500004"
       cy="6.2449679"
       r="1.190625" />
    <path
       id="path5884"
       style="fill:url(#linearGradient6062);fill-opacity:1;stroke-width:0.0661458"
       d="M 5.692159,4.2333334 A 2.1166668,2.1166668 0 0 0 4.9401377,4.6672863 0.79375001,0.79375001 0 0 1 4.9179168,5.4181449 0.79375001,0.79375001 0 0 1 4.2842346,5.8079144 2.1166668,2.1166668 0 0 0 4.2333333,6.2449678 2.1166668,2.1166668 0 0 0 4.2850097,6.6821505 0.79375001,0.79375001 0 0 1 4.9179168,7.0717908 0.79375001,0.79375001 0 0 1 4.941688,7.8199363 2.1166668,2.1166668 0 0 0 5.6899627,8.2520805 0.79375001,0.79375001 0 0 1 6.35,7.8986137 0.79375001,0.79375001 0 0 1 7.0104248,8.2519513 2.1166668,2.1166668 0 0 0 7.7620585,7.8170941 0.79375001,0.79375001 0 0 1 7.7820832,7.0717908 0.79375001,0.79375001 0 0 1 8.4149902,6.6820213 2.1166668,2.1166668 0 0 0 8.4666667,6.2449678 2.1166668,2.1166668 0 0 0 8.4157654,5.8079144 0.79375001,0.79375001 0 0 1 7.7820832,5.4181449 0.79375001,0.79375001 0 0 1 7.7632212,4.6698701 2.1166668,2.1166668 0 0 0 7.0078409,4.2333334 0.79375001,0.79375001 0 0 1 6.35,4.5913219 0.79375001,0.79375001 0 0 1 5.692159,4.2333334 Z M 6.35,5.1866345 A 1.0583334,1.0583334 0 0 1 7.4083333,6.2449678 1.0583334,1.0583334 0 0 1 6.35,7.3033012 1.0583334,1.0583334 0 0 1 5.2916666,6.2449678 1.0583334,1.0583334 0 0 1 6.35,5.1866345 Z" />
    <circle
       style="fill:url(#linearGradient8252);fill-opacity:1;stroke-width:0.0661457"
       id="path8010"
       cx="6.3500004"
       cy="6.2449679"
       r="0.79374999" />
  </g>
</svg>
