<?xml version="1.0" encoding="UTF-8" standalone="no"?>
<!-- Created with Inkscape (http://www.inkscape.org/) -->

<svg
   width="32"
   height="32"
   viewBox="0 0 8.4666665 8.466667"
   version="1.1"
   id="svg5"
   inkscape:version="1.1.2 (0a00cf5339, 2022-02-04, custom)"
   sodipodi:docname="dock.svg"
   xmlns:inkscape="http://www.inkscape.org/namespaces/inkscape"
   xmlns:sodipodi="http://sodipodi.sourceforge.net/DTD/sodipodi-0.dtd"
   xmlns:xlink="http://www.w3.org/1999/xlink"
   xmlns="http://www.w3.org/2000/svg"
   xmlns:svg="http://www.w3.org/2000/svg">
  <sodipodi:namedview
     id="namedview7"
     pagecolor="#ffffff"
     bordercolor="#666666"
     borderopacity="1.0"
     inkscape:pageshadow="2"
     inkscape:pageopacity="0.0"
     inkscape:pagecheckerboard="0"
     inkscape:document-units="px"
     showgrid="false"
     units="px"
     height="64px"
     inkscape:zoom="11.313708"
     inkscape:cx="34.736622"
     inkscape:cy="23.378719"
     inkscape:window-width="1920"
     inkscape:window-height="1004"
     inkscape:window-x="0"
     inkscape:window-y="24"
     inkscape:window-maximized="1"
     inkscape:current-layer="svg5" />
  <defs
     id="defs2">
    <linearGradient
       inkscape:collect="always"
       id="linearGradient1591">
      <stop
         style="stop-color:#0f4f68;stop-opacity:1;"
         offset="0"
         id="stop1587" />
      <stop
         style="stop-color:#03355e;stop-opacity:1"
         offset="1"
         id="stop1589" />
    </linearGradient>
    <linearGradient
       inkscape:collect="always"
       id="linearGradient11972">
      <stop
         style="stop-color:#37d4e1;stop-opacity:1"
         offset="0"
         id="stop11968" />
      <stop
         style="stop-color:#086ebd;stop-opacity:1"
         offset="1"
         id="stop11970" />
    </linearGradient>
    <linearGradient
       inkscape:collect="always"
       xlink:href="#linearGradient1591"
       id="linearGradient1593"
       x1="0.44970718"
       y1="14.705279"
       x2="8.3381586"
       y2="14.705279"
       gradientUnits="userSpaceOnUse"
       gradientTransform="matrix(1.0062172,0,0,1.0491025,-0.162428,-8.2586494)" />
    <linearGradient
       inkscape:collect="always"
       xlink:href="#linearGradient11972"
       id="linearGradient1924"
       x1="0.5291667"
       y1="1.5875"
       x2="8.4666672"
       y2="7.9375"
       gradientUnits="userSpaceOnUse"
       gradientTransform="translate(-0.26458336,-0.52916658)" />
  </defs>
  <rect
     style="fill:url(#linearGradient1924);fill-opacity:1;stroke-width:0.79375;stroke-linecap:round;stroke-linejoin:round"
     id="rect1836"
     width="7.9375"
     height="6.3499999"
     x="0.26458335"
     y="1.0583334"
     ry="0.5291667" />
  <path
     id="rect1409"
     style="fill:url(#linearGradient1593);stroke-width:0.543685;stroke-linecap:round;stroke-linejoin:round"
     d="m 8.2020835,6.35 v 0.529166 c 0,0.293158 -0.236009,0.529167 -0.529167,0.529167 H 0.79375004 c -0.29315835,0 -0.5291667,-0.236009 -0.5291667,-0.529167 V 6.35 Z"
     sodipodi:nodetypes="csssscc" />
  <path
     id="rect863"
     style="fill:#e9fefe;fill-opacity:1;stroke-width:0.529167;stroke-linecap:round;stroke-linejoin:round"
     d="m 1.5875,5.8208336 c -0.1465791,0 -0.2645833,0.1180041 -0.2645833,0.2645833 v 0.5291667 c 0,0.1465792 0.1180042,0.2645833 0.2645833,0.2645833 h 0.5291667 c 0.1465792,0 0.2645834,-0.1180041 0.2645834,-0.2645833 V 6.0854169 c 0,-0.1465792 -0.1180042,-0.2645833 -0.2645834,-0.2645833 z m 1.5875001,0 c -0.1465792,0 -0.2645834,0.1180041 -0.2645834,0.2645833 v 0.5291667 c 0,0.1465792 0.1180042,0.2645833 0.2645834,0.2645833 h 0.5291667 c 0.1465791,0 0.2645833,-0.1180041 0.2645833,-0.2645833 V 6.0854169 c 0,-0.1465792 -0.1180042,-0.2645833 -0.2645833,-0.2645833 z m 1.5875,0 c -0.1465792,0 -0.2645833,0.1180041 -0.2645833,0.2645833 v 0.5291667 c 0,0.1465792 0.1180041,0.2645833 0.2645833,0.2645833 h 0.5291667 c 0.1465792,0 0.2645833,-0.1180041 0.2645833,-0.2645833 V 6.0854169 c 0,-0.1465792 -0.1180041,-0.2645833 -0.2645833,-0.2645833 z m 1.5875001,0 c -0.1465792,0 -0.2645834,0.1180041 -0.2645834,0.2645833 v 0.5291667 c 0,0.1465792 0.1180042,0.2645833 0.2645834,0.2645833 h 0.5291666 c 0.1465792,0 0.2645834,-0.1180041 0.2645834,-0.2645833 V 6.0854169 c 0,-0.1465792 -0.1180042,-0.2645833 -0.2645834,-0.2645833 z" />
</svg>
