<?xml version="1.0" encoding="UTF-8" standalone="no"?>
<!-- Created with Inkscape (http://www.inkscape.org/) -->

<svg
   width="32"
   height="32"
   viewBox="0 0 8.4666665 8.4666665"
   version="1.1"
   id="svg5"
   inkscape:version="1.1.2 (0a00cf5339, 2022-02-04, custom)"
   sodipodi:docname="github.svg"
   xmlns:inkscape="http://www.inkscape.org/namespaces/inkscape"
   xmlns:sodipodi="http://sodipodi.sourceforge.net/DTD/sodipodi-0.dtd"
   xmlns="http://www.w3.org/2000/svg"
   xmlns:svg="http://www.w3.org/2000/svg">
  <sodipodi:namedview
     id="namedview7"
     pagecolor="#ffffff"
     bordercolor="#666666"
     borderopacity="1.0"
     inkscape:pageshadow="2"
     inkscape:pageopacity="0.0"
     inkscape:pagecheckerboard="0"
     inkscape:document-units="px"
     showgrid="false"
     units="px"
     height="48px"
     inkscape:zoom="5.656854"
     inkscape:cx="7.1594565"
     inkscape:cy="21.389981"
     inkscape:window-width="1920"
     inkscape:window-height="1005"
     inkscape:window-x="0"
     inkscape:window-y="0"
     inkscape:window-maximized="1"
     inkscape:current-layer="svg5"
     inkscape:lockguides="true" />
  <defs
     id="defs2" />
  <circle
     style="fill:#333333;fill-opacity:1;stroke-width:1.13848;stroke-linecap:round;stroke-linejoin:round;stroke-dasharray:13.6617, 1.13848"
     id="path850"
     cx="4.2333331"
     cy="4.2333331"
     r="3.96875" />
  <path
     id="path4"
     d="m 4.2333249,1.0583341 c -1.7589449,0 -3.1749908,1.4160459 -3.1749908,3.1749908 0,1.7005116 1.3235749,3.0803039 3.0009156,3.1701177 C 3.8862823,7.3936806 3.7170852,7.3696326 3.5525269,7.3339027 3.5520053,7.0466817 3.5517109,6.7790049 3.5511889,6.6894264 2.7245346,6.8736895 2.6374024,6.2349702 2.6374024,6.2349702 2.5022045,5.88256 2.3074125,5.7889302 2.3074125,5.7889302 2.0375711,5.5998095 2.3273451,5.6033387 2.3273451,5.6033387 2.6256467,5.6248607 2.7826869,5.9178249 2.7826869,5.9178249 3.0477759,6.3838988 3.3885246,6.2948915 3.5578309,6.2168089 3.5848315,6.019824 3.7516043,5.9081056 3.8364401,5.8318955 3.1765501,5.7549235 2.4190427,5.4477538 2.4190427,4.2789495 c 0,-0.3329205 0.1115376,-0.6054629 0.3016417,-0.8185523 -0.030649,-0.07713 -0.1330358,-0.455447 0.028792,-0.8752487 0,0 0.015588,-0.00468 0.047838,-0.0062 0.096724,-0.00456 0.3140333,0.084019 0.7397091,0.3800422 0.2516847,-0.073041 0.5592694,-0.083357 0.7888752,-0.086369 0.2691857,-0.00353 0.547743,0.012194 0.7937478,0.086373 0.4255416,-0.2960393 0.6975641,-0.384999 0.7941927,-0.3804859 h 4.542e-4 c 0.032214,0.0015 0.047838,0.00664 0.047838,0.00664 0.1621898,0.4198016 0.0597,0.7981009 0.029232,0.8752488 0.1904503,0.2130871 0.2830282,0.485189 0.2830282,0.8181095 0,1.1717984 -0.6948389,1.4757138 -1.3567246,1.5511731 0.1065456,0.094184 0.2241276,0.2346924 0.2241276,0.5191259 0,0.1690099 -7.2e-4,0.5225835 -0.00132,0.9270731 C 4.929871,7.3381992 4.7100609,7.3796348 4.4835953,7.3976867 6.124563,7.2707594 7.408334,5.9079381 7.408334,4.2333273 7.408334,2.4743821 5.9922886,1.0583362 4.2333438,1.0583362 Z M 4.0592497,7.4034426 c 0.057637,0.00306 0.1156416,0.00486 0.1740752,0.00486 -0.058524,0 -0.1164192,-0.00162 -0.1740752,-0.00486 z m 0.1740752,0.00486 c 0.074245,0 0.1476414,-0.00342 0.2205838,-0.0084 -0.072943,0.00516 -0.1462686,0.0084 -0.2205838,0.0084 z"
     style="fill:#ffffff;stroke-width:0.226784" />
</svg>
