<?xml version="1.0" encoding="UTF-8" standalone="no"?>
<!-- Created with Inkscape (http://www.inkscape.org/) -->

<svg
   width="32"
   height="32"
   viewBox="0 0 8.4666665 8.466667"
   version="1.1"
   id="svg5"
   inkscape:version="1.2.1 (9c6d41e410, 2022-07-14)"
   sodipodi:docname="internet-mail.svg"
   xmlns:inkscape="http://www.inkscape.org/namespaces/inkscape"
   xmlns:sodipodi="http://sodipodi.sourceforge.net/DTD/sodipodi-0.dtd"
   xmlns:xlink="http://www.w3.org/1999/xlink"
   xmlns="http://www.w3.org/2000/svg"
   xmlns:svg="http://www.w3.org/2000/svg">
  <sodipodi:namedview
     id="namedview7"
     pagecolor="#ffffff"
     bordercolor="#666666"
     borderopacity="1.0"
     inkscape:pageshadow="2"
     inkscape:pageopacity="0.0"
     inkscape:pagecheckerboard="0"
     inkscape:document-units="px"
     showgrid="false"
     units="px"
     height="64px"
     inkscape:zoom="4"
     inkscape:cx="-14.375"
     inkscape:cy="69.25"
     inkscape:window-width="1920"
     inkscape:window-height="1007"
     inkscape:window-x="0"
     inkscape:window-y="0"
     inkscape:window-maximized="1"
     inkscape:current-layer="svg5"
     inkscape:showpageshadow="2"
     inkscape:deskcolor="#d1d1d1"
     showguides="false" />
  <defs
     id="defs2">
    <linearGradient
       inkscape:collect="always"
       id="linearGradient4834">
      <stop
         style="stop-color:#23a3e6;stop-opacity:1;"
         offset="0"
         id="stop4830" />
      <stop
         style="stop-color:#35ccf5;stop-opacity:1"
         offset="1"
         id="stop4832" />
    </linearGradient>
    <linearGradient
       inkscape:collect="always"
       id="linearGradient4296">
      <stop
         style="stop-color:#2ec7f0;stop-opacity:1;"
         offset="0"
         id="stop4292" />
      <stop
         style="stop-color:#1182e1;stop-opacity:1"
         offset="1"
         id="stop4294" />
    </linearGradient>
    <linearGradient
       inkscape:collect="always"
       id="linearGradient68812">
      <stop
         style="stop-color:#0078d4;stop-opacity:1;"
         offset="0"
         id="stop68808" />
      <stop
         style="stop-color:#154a7d;stop-opacity:1"
         offset="1"
         id="stop68810" />
    </linearGradient>
    <linearGradient
       inkscape:collect="always"
       xlink:href="#linearGradient68812"
       id="linearGradient3965"
       x1="6.1768842"
       y1="2.211364"
       x2="16.404167"
       y2="6.3500004"
       gradientUnits="userSpaceOnUse"
       gradientTransform="scale(0.49999977)" />
    <linearGradient
       inkscape:collect="always"
       xlink:href="#linearGradient4296"
       id="linearGradient4298"
       x1="9"
       y1="31.589355"
       x2="35.848145"
       y2="63.278809"
       gradientUnits="userSpaceOnUse"
       gradientTransform="scale(0.13229161)" />
    <linearGradient
       inkscape:collect="always"
       xlink:href="#linearGradient4834"
       id="linearGradient4836"
       x1="30.678711"
       y1="54.689941"
       x2="36.074707"
       y2="25.936035"
       gradientUnits="userSpaceOnUse"
       gradientTransform="scale(0.13229161)" />
    <linearGradient
       inkscape:collect="always"
       id="linearGradient91259">
      <stop
         style="stop-color:#0984d9;stop-opacity:1;"
         offset="0"
         id="stop91255" />
      <stop
         style="stop-color:#1492df;stop-opacity:1"
         offset="1"
         id="stop91257" />
    </linearGradient>
    <linearGradient
       inkscape:collect="always"
       xlink:href="#linearGradient91259"
       id="linearGradient5580"
       x1="31.90625"
       y1="59.553223"
       x2="32"
       y2="42"
       gradientUnits="userSpaceOnUse"
       gradientTransform="scale(0.13229161)" />
  </defs>
  <path
     id="rect1670"
     style="fill:url(#linearGradient3965);fill-opacity:1;stroke-width:0.205218;stroke-linecap:round;stroke-linejoin:round;stroke-dasharray:2.46261, 0.205218"
     d="M 4.5887787,0.62762562 8.0543914,2.9380339 c 0.196918,0.1312787 0.1969175,0.3426513 0,0.4739298 L 4.5887786,5.7223726 c -0.1969176,0.1312779 -0.5139765,0.1312779 -0.7108945,0 L 0.41227169,3.4119637 C 0.21535382,3.2806852 0.21535397,3.0693124 0.41227159,2.9380339 L 3.877884,0.62762562 c 0.1969179,-0.1312786 0.5139769,-0.1312786 0.7108947,0 z" />
  <rect
     style="fill:#f0f0f0;fill-opacity:1;stroke-width:0.259012;stroke-linecap:round;stroke-linejoin:round;stroke-dasharray:3.10815, 0.259012"
     id="rect5821"
     width="5.8208332"
     height="3.704165"
     x="1.3229166"
     y="2.9104154"
     ry="0.26458323" />
  <path
     id="rect3007"
     style="fill:url(#linearGradient4298);fill-opacity:1;stroke-width:0.477249;stroke-linecap:round;stroke-linejoin:round;stroke-dasharray:5.727, 0.477249"
     d="m 0.26458334,3.1749989 v 4.3656228 c 0,0.2198684 0.17700617,0.3968749 0.39687482,0.3968749 H 7.8052051 c 0.094923,0 0.1817049,-0.033175 0.2498553,-0.088367 z" />
  <path
     id="rect3553"
     style="fill:url(#linearGradient4836);fill-opacity:1;stroke-width:0.264583;stroke-linecap:round;stroke-linejoin:round;stroke-dasharray:3.175, 0.264583"
     d="M 8.2020799,3.1749989 0.41160272,7.8491301 c 0.0681506,0.055189 0.15493259,0.088367 0.24985544,0.088367 H 7.8052051 c 0.2198684,0 0.3968748,-0.1770065 0.3968748,-0.3968749 z" />
  <path
     id="rect3007-3"
     style="fill:url(#linearGradient5580);fill-opacity:1;stroke-width:0.477249;stroke-linecap:round;stroke-linejoin:round;stroke-dasharray:5.727, 0.477249"
     d="M 4.2333317,5.5562477 0.41160272,7.8491301 c 0.008519,0.0069 0.0172744,0.01345 0.026355,0.019635 0.00457,0.0031 0.009506,0.00586 0.014211,0.00878 0.005467,0.0034 0.0108946,0.00694 0.0165364,0.010075 0.005767,0.0032 0.0116299,0.00612 0.0175699,0.00905 0.004046,0.002 0.008021,0.0041 0.012144,0.00594 0.007078,0.0032 0.0144107,0.00601 0.0217041,0.00878 0.00421,0.0016 0.008382,0.0032 0.0126605,0.00465 0.006139,0.0021 0.0123305,0.0039 0.0186035,0.00569 0.006617,0.0019 0.0133985,0.0036 0.020154,0.00517 0.00463,0.00105 0.009264,0.0022 0.0139525,0.0031 0.009083,0.00175 0.0183505,0.003 0.027647,0.00415 0.003365,4.1e-4 0.006686,9.5e-4 0.010077,0.0013 0.012631,0.0012 0.0252845,0.00205 0.0382405,0.00205 H 7.8052051 c 0.012955,0 0.02561,-8.5e-4 0.03824,-0.00205 0.0034,-3.175e-4 0.00671,-9e-4 0.010075,-0.0013 0.00929,-0.0011 0.018565,-0.0024 0.027645,-0.00415 0.0047,-9e-4 0.00933,-0.00205 0.013955,-0.0031 0.00676,-0.00155 0.013535,-0.00325 0.020155,-0.00516 0.00628,-0.0018 0.012465,-0.0036 0.018605,-0.00568 0.0043,-0.00145 0.00845,-0.00305 0.01266,-0.00465 0.00729,-0.0028 0.014625,-0.00559 0.021705,-0.00878 0.0041,-0.00185 0.0081,-0.00395 0.012145,-0.00594 0.00594,-0.00295 0.011805,-0.00584 0.01757,-0.00905 0.00564,-0.00315 0.01107,-0.00669 0.016535,-0.010075 0.0047,-0.00295 0.00964,-0.00567 0.01421,-0.00878 0.00908,-0.00619 0.017835,-0.01274 0.026355,-0.019635 z" />
</svg>
