<?xml version="1.0" encoding="UTF-8" standalone="no"?>
<!-- Created with Inkscape (http://www.inkscape.org/) -->

<svg
   width="32"
   height="32"
   viewBox="0 0 8.4666665 8.466667"
   version="1.1"
   id="svg5"
   inkscape:version="1.1.2 (0a00cf5339, 2022-02-04, custom)"
   sodipodi:docname="konversation.svg"
   xmlns:inkscape="http://www.inkscape.org/namespaces/inkscape"
   xmlns:sodipodi="http://sodipodi.sourceforge.net/DTD/sodipodi-0.dtd"
   xmlns:xlink="http://www.w3.org/1999/xlink"
   xmlns="http://www.w3.org/2000/svg"
   xmlns:svg="http://www.w3.org/2000/svg">
  <sodipodi:namedview
     id="namedview7"
     pagecolor="#ffffff"
     bordercolor="#666666"
     borderopacity="1.0"
     inkscape:pageshadow="2"
     inkscape:pageopacity="0.0"
     inkscape:pagecheckerboard="0"
     inkscape:document-units="px"
     showgrid="false"
     units="px"
     height="64px"
     inkscape:zoom="24.6875"
     inkscape:cx="15.979747"
     inkscape:cy="16"
     inkscape:window-width="1920"
     inkscape:window-height="1005"
     inkscape:window-x="0"
     inkscape:window-y="0"
     inkscape:window-maximized="1"
     inkscape:current-layer="svg5" />
  <defs
     id="defs2">
    <inkscape:path-effect
       effect="bspline"
       id="path-effect1394"
       is_visible="true"
       lpeversion="1"
       weight="33.333333"
       steps="2"
       helper_size="0"
       apply_no_weight="true"
       apply_with_weight="true"
       only_selected="false" />
    <linearGradient
       inkscape:collect="always"
       xlink:href="#linearGradient1977"
       id="linearGradient1979"
       x1="6"
       y1="7.9997106"
       x2="34"
       y2="51.99971"
       gradientUnits="userSpaceOnUse"
       gradientTransform="matrix(0.13229167,0,0,0.13229167,-2.1875e-8,0.26458332)" />
    <linearGradient
       inkscape:collect="always"
       id="linearGradient1977">
      <stop
         style="stop-color:#28c3fa;stop-opacity:1;"
         offset="0"
         id="stop1973" />
      <stop
         style="stop-color:#0a78c8;stop-opacity:1"
         offset="1"
         id="stop1975" />
    </linearGradient>
  </defs>
  <path
     id="path1484"
     style="color:#000000;fill:url(#linearGradient1979);fill-opacity:1;stroke:none;stroke-width:0.499824;stroke-linecap:round;stroke-linejoin:round;-inkscape-stroke:none"
     d="m 0.92604163,1.0583333 c -0.2198687,0 -0.396875,0.1770063 -0.396875,0.3968751 v 4.4979164 c 0,0.2198685 0.1770063,0.396875 0.396875,0.396875 H 1.984375 v 1.3216251 c -7.4e-4,0.236351 0.2851713,0.35484 0.4519104,0.187327 L 3.9447204,6.3499998 H 7.540625 c 0.2198695,0 0.396875,-0.1770065 0.396875,-0.396875 V 1.4552084 c 0,-0.2198688 -0.1770055,-0.3968751 -0.396875,-0.3968751 z" />
  <path
     id="rect5486"
     style="opacity:1;fill:#ffffff;stroke-width:0.264584;stroke-linecap:round;stroke-linejoin:round"
     d="m 1.7197917,2.6458907 h 0.5291667 c 0.07329,0 0.1322917,0.059002 0.1322917,0.1322918 v 1.5875 c 0,0.07329 -0.059002,0.1322917 -0.1322917,0.1322917 H 1.7197917 c -0.07329,0 -0.1322917,-0.059002 -0.1322917,-0.1322917 v -1.5875 c 0,-0.07329 0.059002,-0.1322918 0.1322917,-0.1322918 z" />
  <path
     style="color:#000000;fill:#ffffff;stroke-width:0.50001;stroke-linecap:round;stroke-linejoin:round;-inkscape-stroke:none"
     d="M 6.1877182,1.8555416 2.7483725,2.6485483 c -0.060021,0.013859 -0.1025359,0.06731 -0.1025391,0.1289125 v 1.5879668 c 3.2e-6,0.061603 0.042519,0.115053 0.1025391,0.1289124 l 3.4393457,0.7939834 c 0.08292,0.019175 0.1621105,-0.0438 0.1621095,-0.1289121 V 1.984454 c 1.5e-6,-0.085111 -0.07919,-0.1480856 -0.1621095,-0.1289124 z"
     id="path5983"
     sodipodi:nodetypes="ccccccccc" />
  <rect
     style="opacity:1;fill:#ffffff;fill-opacity:1;stroke:none;stroke-width:0.264584;stroke-linecap:round;stroke-linejoin:round;stroke-miterlimit:4;stroke-dasharray:none;stroke-opacity:1"
     id="rect6437"
     height="0.79374999"
     x="2.3812501"
     y="4.7624998"
     ry="0.13229167"
     width="0.5291667" />
  <path
     id="rect6667"
     style="opacity:1;fill:#ffffff;stroke-width:0.352779;stroke-linecap:round;stroke-linejoin:round"
     d="M 6.6145833,2.9104166 V 4.365625 c 0.293158,0 0.5291667,-0.2360084 0.5291667,-0.5291668 V 3.4395834 c 0,-0.2931584 -0.2360087,-0.5291668 -0.5291667,-0.5291668 z"
     sodipodi:nodetypes="ccssc" />
</svg>
