<?xml version="1.0" encoding="UTF-8" standalone="no"?>
<!-- Created with Inkscape (http://www.inkscape.org/) -->

<svg
   width="32"
   height="32"
   viewBox="0 0 8.4666665 8.466667"
   version="1.1"
   id="svg5"
   inkscape:version="1.1.1 (3bf5ae0d25, 2021-09-20, custom)"
   sodipodi:docname="libreoffice-oasis-master-document.svg"
   xmlns:inkscape="http://www.inkscape.org/namespaces/inkscape"
   xmlns:sodipodi="http://sodipodi.sourceforge.net/DTD/sodipodi-0.dtd"
   xmlns:xlink="http://www.w3.org/1999/xlink"
   xmlns="http://www.w3.org/2000/svg"
   xmlns:svg="http://www.w3.org/2000/svg">
  <sodipodi:namedview
     id="namedview7"
     pagecolor="#ffffff"
     bordercolor="#666666"
     borderopacity="1.0"
     inkscape:pageshadow="2"
     inkscape:pageopacity="0.0"
     inkscape:pagecheckerboard="0"
     inkscape:document-units="px"
     showgrid="false"
     units="px"
     height="64px"
     showguides="true"
     inkscape:zoom="4.8802994"
     inkscape:cx="25.818088"
     inkscape:cy="40.468829"
     inkscape:window-width="1920"
     inkscape:window-height="996"
     inkscape:window-x="0"
     inkscape:window-y="0"
     inkscape:window-maximized="1"
     inkscape:current-layer="svg5" />
  <defs
     id="defs2">
    <linearGradient
       inkscape:collect="always"
       id="linearGradient3723">
      <stop
         style="stop-color:#404040;stop-opacity:1"
         offset="0"
         id="stop3719" />
      <stop
         style="stop-color:#595959;stop-opacity:1"
         offset="1"
         id="stop3721" />
    </linearGradient>
    <linearGradient
       inkscape:collect="always"
       id="linearGradient3529">
      <stop
         style="stop-color:#848484;stop-opacity:1"
         offset="0"
         id="stop3525" />
      <stop
         style="stop-color:#616161;stop-opacity:1"
         offset="1"
         id="stop3527" />
    </linearGradient>
    <linearGradient
       inkscape:collect="always"
       xlink:href="#linearGradient3529"
       id="linearGradient3173"
       x1="2.6458333"
       y1="1.0583334"
       x2="14.287499"
       y2="15.875"
       gradientUnits="userSpaceOnUse"
       gradientTransform="matrix(0.49999885,0,0,0.49999885,3.0513542e-6,1.1935417e-6)" />
    <linearGradient
       inkscape:collect="always"
       xlink:href="#linearGradient3723"
       id="linearGradient3725"
       x1="54"
       y1="14"
       x2="44"
       y2="4"
       gradientUnits="userSpaceOnUse"
       gradientTransform="matrix(0.13229137,0,0,0.13229137,3.0513542e-6,1.1935417e-6)" />
  </defs>
  <path
     id="rect3085"
     style="fill:url(#linearGradient3173);fill-opacity:1;stroke-width:0.529164;stroke-linecap:round;stroke-linejoin:round"
     d="m 1.8520821,0.52916667 c -0.2931576,0 -0.5291654,0.23600777 -0.5291654,0.52916543 v 6.3499854 c 0,0.2931578 0.2360078,0.5291652 0.5291654,0.5291652 h 4.762489 c 0.2931579,0 0.5291658,-0.2360074 0.5291658,-0.5291652 V 3.4395767 C 7.1445369,3.1111058 7.109497,3.0084648 6.879154,2.7781198 L 4.8947834,0.79374937 C 4.7014855,0.61063268 4.5969951,0.52916667 4.2994723,0.52916667 Z"
     sodipodi:nodetypes="ssssssccccs" />
  <path
     id="rect2140"
     style="fill:url(#linearGradient3725);fill-opacity:1;stroke-width:0.529164;stroke-linecap:round;stroke-linejoin:round"
     d="M 5.225512,0.72760366 6.9452994,2.4473915 c 0.057074,0.059159 0.1980895,0.014258 0.198437,-0.1322914 v -1.256768 c 0,-0.29315766 -0.2360074,-0.52916543 -0.5291653,-0.52916543 H 5.3578032 C 5.2212375,0.52994667 5.1702761,0.6691642 5.225512,0.72760366 Z"
     sodipodi:nodetypes="cccsscc" />
  <path
     id="rect1255"
     style="fill:#fafafa;fill-opacity:1;stroke-width:0.529164;stroke-linecap:round;stroke-linejoin:round"
     d="m 1.9843735,0.92610252 h 2.248953 c 0.2000596,-0.002365 0.3315508,0.0631807 0.46302,0.19843708 l 1.8520788,1.8520791 c 0.1187012,0.1360421 0.198437,0.2326748 0.198437,0.4630198 v 3.8364493 c 0,0.1465786 -0.1180037,0.2645823 -0.2645829,0.2645823 H 1.9843735 c -0.1465788,0 -0.2645827,-0.1180037 -0.2645827,-0.2645823 V 1.1906853 c 0,-0.1465789 0.1180039,-0.26458278 0.2645827,-0.26458278 z"
     sodipodi:nodetypes="sccccssssss" />
</svg>
