<?xml version="1.0" encoding="UTF-8" standalone="no"?>
<!-- Created with Inkscape (http://www.inkscape.org/) -->

<svg
   width="32"
   height="32"
   viewBox="0 0 8.4666665 8.466667"
   version="1.1"
   id="svg5"
   inkscape:version="1.2.1 (9c6d41e410, 2022-07-14)"
   sodipodi:docname="preferences-desktop-hotcorners.svg"
   xmlns:inkscape="http://www.inkscape.org/namespaces/inkscape"
   xmlns:sodipodi="http://sodipodi.sourceforge.net/DTD/sodipodi-0.dtd"
   xmlns:xlink="http://www.w3.org/1999/xlink"
   xmlns="http://www.w3.org/2000/svg"
   xmlns:svg="http://www.w3.org/2000/svg">
  <sodipodi:namedview
     id="namedview7"
     pagecolor="#ffffff"
     bordercolor="#666666"
     borderopacity="1.0"
     inkscape:pageshadow="2"
     inkscape:pageopacity="0.0"
     inkscape:pagecheckerboard="0"
     inkscape:document-units="px"
     showgrid="false"
     units="px"
     height="64px"
     inkscape:zoom="24.75"
     inkscape:cx="16"
     inkscape:cy="16"
     inkscape:window-width="1920"
     inkscape:window-height="1007"
     inkscape:window-x="0"
     inkscape:window-y="0"
     inkscape:window-maximized="1"
     inkscape:current-layer="svg5"
     inkscape:showpageshadow="2"
     inkscape:deskcolor="#d1d1d1" />
  <defs
     id="defs2">
    <linearGradient
       inkscape:collect="always"
       id="linearGradient1591">
      <stop
         style="stop-color:#0f4f68;stop-opacity:1;"
         offset="0"
         id="stop1587" />
      <stop
         style="stop-color:#03355e;stop-opacity:1"
         offset="1"
         id="stop1589" />
    </linearGradient>
    <linearGradient
       inkscape:collect="always"
       id="linearGradient11972">
      <stop
         style="stop-color:#4accfe;stop-opacity:1"
         offset="0"
         id="stop11968" />
      <stop
         style="stop-color:#2d78b3;stop-opacity:1"
         offset="1"
         id="stop11970" />
    </linearGradient>
    <linearGradient
       inkscape:collect="always"
       xlink:href="#linearGradient11972"
       id="linearGradient1924"
       x1="0.5291667"
       y1="1.5875"
       x2="8.4666672"
       y2="7.9375"
       gradientUnits="userSpaceOnUse"
       gradientTransform="translate(-0.26458332,-0.52916636)" />
    <linearGradient
       inkscape:collect="always"
       xlink:href="#linearGradient1591"
       id="linearGradient1379"
       x1="0.26458335"
       y1="12.170834"
       x2="16.139584"
       y2="12.170834"
       gradientUnits="userSpaceOnUse"
       gradientTransform="matrix(0.49999995,0,0,0.49999995,0.13229168,0.92604184)" />
  </defs>
  <rect
     style="fill:url(#linearGradient1924);fill-opacity:1;stroke-width:0.79375;stroke-linecap:round;stroke-linejoin:round"
     id="rect1836"
     width="7.937499"
     height="6.3499994"
     x="0.26458338"
     y="1.0583334"
     ry="0.5291667" />
  <path
     id="rect1409"
     style="fill:url(#linearGradient1379);fill-opacity:1;stroke-width:0.271842;stroke-linecap:round;stroke-linejoin:round"
     d="m 0.26458334,6.6145834 v 0.2645833 c 0,0.2931581 0.23600861,0.5291667 0.52916667,0.5291667 H 7.6729167 c 0.2931581,0 0.5291667,-0.2360086 0.5291667,-0.5291667 V 6.6145834 Z"
     sodipodi:nodetypes="csssscc" />
  <path
     id="path934"
     style="opacity:0.2;fill:#000000;stroke-width:0.0901984"
     d="M 0.79375001 1.0583333 C 0.50059195 1.0583333 0.26458334 1.294342 0.26458334 1.5875 L 0.26458334 3.0427084 A 1.9843749 1.9843749 0 0 0 2.2489584 1.0583333 L 0.79375001 1.0583333 z M 6.2177084 1.0583333 A 1.9843749 1.9843749 0 0 0 8.2020834 3.0427084 L 8.2020834 1.5875 C 8.2020834 1.294342 7.9660748 1.0583333 7.6729167 1.0583333 L 6.2177084 1.0583333 z M 0.26458334 5.4239584 L 0.26458334 6.8791667 C 0.26458334 7.1723248 0.50059195 7.4083334 0.79375001 7.4083334 L 2.2489584 7.4083334 A 1.9843749 1.9843749 0 0 0 0.26458334 5.4239584 z M 8.2020834 5.4239584 A 1.9843749 1.9843749 0 0 0 6.2177084 7.4083334 L 7.6729167 7.4083334 C 7.9660748 7.4083334 8.2020834 7.1723248 8.2020834 6.8791667 L 8.2020834 5.4239584 z " />
</svg>
