<?xml version="1.0" encoding="UTF-8" standalone="no"?>
<svg
   width="32"
   height="32"
   viewBox="0 0 8.46656 8.46656"
   version="1.1"
   id="svg1886"
   inkscape:version="1.2.1 (9c6d41e410, 2022-07-14)"
   sodipodi:docname="preferences-desktop.svg"
   xmlns:inkscape="http://www.inkscape.org/namespaces/inkscape"
   xmlns:sodipodi="http://sodipodi.sourceforge.net/DTD/sodipodi-0.dtd"
   xmlns:xlink="http://www.w3.org/1999/xlink"
   xmlns="http://www.w3.org/2000/svg"
   xmlns:svg="http://www.w3.org/2000/svg"
   xmlns:rdf="http://www.w3.org/1999/02/22-rdf-syntax-ns#"
   xmlns:cc="http://creativecommons.org/ns#"
   xmlns:dc="http://purl.org/dc/elements/1.1/">
  <defs
     id="defs1880">
    <linearGradient
       inkscape:collect="always"
       id="linearGradient24598">
      <stop
         style="stop-color:#000000;stop-opacity:1;"
         offset="0"
         id="stop24594" />
      <stop
         style="stop-color:#000000;stop-opacity:0;"
         offset="1"
         id="stop24596" />
    </linearGradient>
    <linearGradient
       inkscape:collect="always"
       id="linearGradient17820">
      <stop
         style="stop-color:#26aee7;stop-opacity:1;"
         offset="0"
         id="stop17816" />
      <stop
         style="stop-color:#037ed6;stop-opacity:1"
         offset="1"
         id="stop17818" />
    </linearGradient>
    <linearGradient
       inkscape:collect="always"
       id="linearGradient5821">
      <stop
         style="stop-color:#3bcaf5;stop-opacity:1;"
         offset="0"
         id="stop5817" />
      <stop
         style="stop-color:#1b9ee4;stop-opacity:1"
         offset="1"
         id="stop5819" />
    </linearGradient>
    <linearGradient
       inkscape:collect="always"
       id="linearGradient33432">
      <stop
         style="stop-color:#0271cb;stop-opacity:1;"
         offset="0"
         id="stop33428" />
      <stop
         style="stop-color:#0b5aa7;stop-opacity:1"
         offset="1"
         id="stop33430" />
    </linearGradient>
    <linearGradient
       inkscape:collect="always"
       xlink:href="#linearGradient17820"
       id="linearGradient10673"
       x1="7.2768879"
       y1="4.8618474"
       x2="7.2742996"
       y2="9.5925112"
       gradientUnits="userSpaceOnUse"
       gradientTransform="matrix(0.6583269,0,0,0.67452778,-0.75101167,-1.1821741)" />
    <linearGradient
       inkscape:collect="always"
       xlink:href="#linearGradient33432"
       id="linearGradient18679"
       x1="13.49358"
       y1="4.7624402"
       x2="13.493581"
       y2="5.8207603"
       gradientUnits="userSpaceOnUse"
       gradientTransform="matrix(0.5,0,0,0.5,0.13228876,-4.0231018e-7)" />
    <linearGradient
       inkscape:collect="always"
       xlink:href="#linearGradient33432"
       id="linearGradient19205"
       x1="13.49358"
       y1="6.8790798"
       x2="13.493581"
       y2="7.9373999"
       gradientUnits="userSpaceOnUse"
       gradientTransform="matrix(0.5,0,0,0.5,0.13228876,-4.0231018e-7)" />
    <linearGradient
       inkscape:collect="always"
       xlink:href="#linearGradient33432"
       id="linearGradient19811"
       x1="11.906099"
       y1="8.9957209"
       x2="11.9061"
       y2="10.05404"
       gradientUnits="userSpaceOnUse"
       gradientTransform="matrix(0.5,0,0,0.5,0.13228876,-4.0231018e-7)" />
    <linearGradient
       inkscape:collect="always"
       xlink:href="#linearGradient33432"
       id="linearGradient23862"
       x1="8.2846289"
       y1="11.360404"
       x2="8.2846298"
       y2="12.418723"
       gradientUnits="userSpaceOnUse"
       gradientTransform="matrix(0.49999998,0,0,0.49999998,0.0909657,0.14055704)" />
    <radialGradient
       inkscape:collect="always"
       xlink:href="#linearGradient24598"
       id="radialGradient24600"
       cx="5.55618"
       cy="7.4082398"
       fx="5.55618"
       fy="7.4082398"
       r="3.7041199"
       gradientUnits="userSpaceOnUse"
       gradientTransform="matrix(0.48979585,0,0,0.48979592,-0.07559403,0.07559439)" />
    <linearGradient
       inkscape:collect="always"
       xlink:href="#linearGradient5821"
       id="linearGradient1010"
       x1="4.2332802"
       y1="1.05832"
       x2="4.2332802"
       y2="7.4082398"
       gradientUnits="userSpaceOnUse" />
  </defs>
  <sodipodi:namedview
     id="base"
     pagecolor="#ffffff"
     bordercolor="#666666"
     borderopacity="1.0"
     inkscape:pageopacity="0.0"
     inkscape:pageshadow="2"
     inkscape:zoom="12.40625"
     inkscape:cx="31.153652"
     inkscape:cy="32"
     inkscape:document-units="px"
     inkscape:current-layer="svg1886"
     inkscape:document-rotation="0"
     showgrid="false"
     units="px"
     inkscape:window-width="1920"
     inkscape:window-height="1006"
     inkscape:window-x="0"
     inkscape:window-y="0"
     inkscape:window-maximized="1"
     inkscape:pagecheckerboard="0"
     showguides="true"
     inkscape:showpageshadow="2"
     inkscape:deskcolor="#d1d1d1" />
  <metadata
     id="metadata1883">
    <rdf:RDF>
      <cc:Work
         rdf:about="">
        <dc:format>image/svg+xml</dc:format>
        <dc:type
           rdf:resource="http://purl.org/dc/dcmitype/StillImage" />
      </cc:Work>
    </rdf:RDF>
  </metadata>
  <rect
     style="fill:url(#linearGradient1010);fill-opacity:1;stroke-width:0.52916;stroke-linecap:round;stroke-linejoin:round"
     id="rect448"
     width="8.4665604"
     height="6.3499198"
     x="0"
     y="1.05832"
     ry="0.26458001" />
  <path
     id="rect9516"
     style="opacity:0.5;fill:#ffffff;stroke-width:0.275844;stroke-linecap:round;stroke-linejoin:round"
     d="M 0.79374002,1.58748 H 7.67282 c 0.1465775,0 0.26458,0.1180027 0.26458,0.26458 V 6.6145 c 0,0.1465775 -0.1180025,0.26458 -0.26458,0.26458 H 0.79374002 C 0.6471626,6.87908 0.52916,6.7610775 0.52916,6.6145 V 1.85206 c 0,-0.1465773 0.1180026,-0.26458 0.26458002,-0.26458 z"
     sodipodi:nodetypes="sssssssss" />
  <circle
     style="opacity:1;fill:url(#radialGradient24600);fill-opacity:1;stroke:none;stroke-width:0.302377;stroke-linecap:round;stroke-linejoin:round;stroke-miterlimit:4;stroke-dasharray:none;stroke-opacity:1"
     id="path24396"
     cx="2.6458001"
     cy="3.7041199"
     r="2.1166401" />
  <path
     id="rect16371-5"
     style="fill:#0a56a0;fill-opacity:1;stroke-width:0.432029;stroke-linecap:round;stroke-linejoin:round"
     d="M 5.02702,2.38122 A 0.26457989,0.26458001 0 0 0 4.76244,2.6458 V 3.70412 H 3.70412 V 3.9687 H 4.76244 A 0.26457989,0.26458001 0 0 0 5.02702,3.70412 V 2.6458 h 0.52916 c 0,-0.096591 0.025434,-0.1867952 0.070279,-0.26458 z" />
  <circle
     style="opacity:1;fill:url(#linearGradient10673);fill-opacity:1;stroke:none;stroke-width:0.352621;stroke-linecap:round;stroke-linejoin:round;stroke-miterlimit:4;stroke-dasharray:none;stroke-opacity:1"
     id="path10577"
     cx="2.6457999"
     cy="3.7041199"
     r="1.5874799" />
  <path
     id="rect11079"
     style="opacity:1;fill:#ffffff;fill-opacity:1;stroke:none;stroke-width:0.308677;stroke-linecap:round;stroke-linejoin:round;stroke-miterlimit:4;stroke-dasharray:none;stroke-opacity:1"
     d="m 2.6457998,2.11664 a 1.5874799,1.5874799 0 0 0 -0.26458,0.022737 V 3.9686997 H 4.2105425 A 1.5874799,1.5874799 0 0 0 4.2332795,3.7041197 1.5874799,1.5874799 0 0 0 2.6457998,2.11664 Z" />
  <path
     id="rect11229"
     style="opacity:1;fill:#f18c0a;fill-opacity:1;stroke:none;stroke-width:0.317496;stroke-linecap:round;stroke-linejoin:round;stroke-miterlimit:4;stroke-dasharray:none;stroke-opacity:1"
     d="m 2.6458,2.1166401 v 1.58748 H 4.23328 A 1.58748,1.58748 0 0 0 2.6458,2.1166401 Z" />
  <path
     id="rect11825"
     style="opacity:0.5;fill:#0e93e2;stroke-width:0.352773;stroke-linecap:round;stroke-linejoin:round"
     d="m 6.08534,2.11664 h 0.7937404 c 0.2931546,0 0.52916,0.2360053 0.52916,0.52916 0,0.2931547 -0.2360054,0.52916 -0.52916,0.52916 H 6.08534 c -0.2931547,0 -0.52916,-0.2360053 -0.52916,-0.52916 0,-0.2931547 0.2360053,-0.52916 0.52916,-0.52916 z"
     sodipodi:nodetypes="sssssss" />
  <path
     id="rect11929"
     style="opacity:0.5;fill:#0e93e2;stroke-width:0.352773;stroke-linecap:round;stroke-linejoin:round"
     d="m 6.08534,3.17496 h 0.7937403 c 0.2931547,0 0.52916,0.2360053 0.52916,0.5291599 v 2e-7 c 0,0.2931546 -0.2360053,0.5291599 -0.52916,0.5291599 H 6.08534 c -0.2931547,0 -0.52916,-0.2360053 -0.52916,-0.5291599 v -2e-7 C 5.55618,3.4109653 5.7921853,3.17496 6.08534,3.17496 Z"
     sodipodi:nodetypes="sssssssss" />
  <path
     id="rect12033"
     style="opacity:0.5;fill:#0e93e2;stroke-width:0.352773;stroke-linecap:round;stroke-linejoin:round"
     d="m 6.0853398,4.23328 h 0.7937399 c 0.2931546,0 0.5291597,0.2360052 0.5291597,0.5291597 v 4e-7 C 7.4082394,5.0555947 7.1722343,5.2916 6.8790797,5.2916 H 6.0853398 C 5.7921852,5.2916 5.55618,5.0555947 5.55618,4.7624401 v -4e-7 C 5.55618,4.4692852 5.7921852,4.23328 6.0853398,4.23328 Z"
     sodipodi:nodetypes="sssssssss" />
  <path
     id="rect17985"
     style="opacity:1;fill:#ffffff;stroke-width:0.26458;stroke-linecap:round;stroke-linejoin:round"
     d="m 6.085339,2.3812198 h 0.79374 c 0.146577,0 0.26458,0.1180027 0.26458,0.26458 0,0.1465773 -0.118003,0.26458 -0.26458,0.26458 h -0.79374 c -0.1465775,0 -0.26458,-0.1180027 -0.26458,-0.26458 0,-0.1465773 0.1180025,-0.26458 0.26458,-0.26458 z" />
  <path
     id="rect18286"
     style="opacity:1;fill:#ffffff;stroke-width:0.26458;stroke-linecap:round;stroke-linejoin:round"
     d="m 6.085339,3.4395398 h 0.79374 c 0.146577,0 0.26458,0.1180027 0.26458,0.26458 0,0.1465773 -0.118003,0.26458 -0.26458,0.26458 h -0.79374 c -0.1465775,0 -0.26458,-0.1180027 -0.26458,-0.26458 0,-0.1465773 0.1180025,-0.26458 0.26458,-0.26458 z" />
  <path
     id="rect18329"
     style="opacity:1;fill:#ffffff;stroke-width:0.26458;stroke-linecap:round;stroke-linejoin:round"
     d="m 6.085339,4.4978598 h 0.7937395 c 0.1465775,0 0.26458,0.1180027 0.26458,0.26458 0,0.1465773 -0.1180025,0.26458 -0.26458,0.26458 H 6.085339 c -0.1465775,0 -0.26458,-0.1180027 -0.26458,-0.26458 0,-0.1465773 0.1180025,-0.26458 0.26458,-0.26458 z" />
  <circle
     style="opacity:1;fill:url(#linearGradient18679);fill-opacity:1;stroke:none;stroke-width:0.26458;stroke-linecap:round;stroke-linejoin:round;stroke-miterlimit:4;stroke-dasharray:none;stroke-opacity:1"
     id="path18591"
     cx="6.8790789"
     cy="2.6457999"
     r="0.26458001" />
  <circle
     style="opacity:1;fill:url(#linearGradient19205);fill-opacity:1;stroke:none;stroke-width:0.26458;stroke-linecap:round;stroke-linejoin:round;stroke-miterlimit:4;stroke-dasharray:none;stroke-opacity:1"
     id="path19117"
     cx="6.8790789"
     cy="3.7041197"
     r="0.26458001" />
  <circle
     style="opacity:1;fill:url(#linearGradient19811);fill-opacity:1;stroke:none;stroke-width:0.26458;stroke-linecap:round;stroke-linejoin:round;stroke-miterlimit:4;stroke-dasharray:none;stroke-opacity:1"
     id="path19723"
     cx="6.0853391"
     cy="4.7624397"
     r="0.26458001" />
  <path
     id="rect20137"
     style="opacity:1;fill:#0175d2;fill-opacity:1;stroke-width:0.52916;stroke-linecap:round;stroke-linejoin:round"
     d="m 1.3229,5.8207605 h 5.8207599 c 0.146577,0 0.26458,0.118002 0.26458,0.26458 0,0.146577 -0.118003,0.26458 -0.26458,0.26458 H 1.3229 c -0.1465773,0 -0.26458,-0.118003 -0.26458,-0.26458 0,-0.146578 0.1180027,-0.26458 0.26458,-0.26458 z"
     sodipodi:nodetypes="sssssss" />
  <path
     id="rect20656"
     style="opacity:1;fill:#f18c0a;fill-opacity:1;stroke-width:0.52916;stroke-linecap:round;stroke-linejoin:round"
     d="m 1.3229,5.8207605 h 2.6457997 c 0.1465774,0 0.2645801,0.118002 0.2645801,0.26458 0,0.146577 -0.1180027,0.26458 -0.2645801,0.26458 H 1.3229 c -0.1465773,0 -0.26458,-0.118003 -0.26458,-0.26458 0,-0.146578 0.1180027,-0.26458 0.26458,-0.26458 z"
     sodipodi:nodetypes="sssssss" />
  <circle
     style="opacity:1;fill:#ffffff;fill-opacity:1;stroke:none;stroke-width:0.26458;stroke-linecap:round;stroke-linejoin:round;stroke-miterlimit:4;stroke-dasharray:none;stroke-opacity:1"
     id="path23648"
     cx="4.2332802"
     cy="6.08534"
     r="0.52916002" />
  <circle
     style="opacity:1;fill:url(#linearGradient23862);fill-opacity:1;stroke:none;stroke-width:0.26458;stroke-linecap:round;stroke-linejoin:round;stroke-miterlimit:4;stroke-dasharray:none;stroke-opacity:1"
     id="path23774"
     cx="4.2332802"
     cy="6.08534"
     r="0.26458001" />
</svg>
