<?xml version="1.0" encoding="UTF-8" standalone="no"?>
<!-- Created with Inkscape (http://www.inkscape.org/) -->

<svg
   width="32"
   height="32"
   viewBox="0 0 8.4666667 8.4666671"
   version="1.1"
   id="svg5"
   inkscape:version="1.1.2 (0a00cf5339, 2022-02-04, custom)"
   sodipodi:docname="cs-keyboard.svg"
   xmlns:inkscape="http://www.inkscape.org/namespaces/inkscape"
   xmlns:sodipodi="http://sodipodi.sourceforge.net/DTD/sodipodi-0.dtd"
   xmlns:xlink="http://www.w3.org/1999/xlink"
   xmlns="http://www.w3.org/2000/svg"
   xmlns:svg="http://www.w3.org/2000/svg">
  <sodipodi:namedview
     id="namedview7"
     pagecolor="#ffffff"
     bordercolor="#666666"
     borderopacity="1.0"
     inkscape:pageshadow="2"
     inkscape:pageopacity="0.0"
     inkscape:pagecheckerboard="0"
     inkscape:document-units="px"
     showgrid="false"
     units="px"
     height="64px"
     inkscape:zoom="17.655572"
     inkscape:cx="16.198852"
     inkscape:cy="17.699795"
     inkscape:window-width="1920"
     inkscape:window-height="1028"
     inkscape:window-x="0"
     inkscape:window-y="0"
     inkscape:window-maximized="1"
     inkscape:current-layer="svg5"
     showguides="false" />
  <defs
     id="defs2">
    <linearGradient
       inkscape:collect="always"
       id="linearGradient23571">
      <stop
         style="stop-color:#b6bec5;stop-opacity:1;"
         offset="0"
         id="stop23567" />
      <stop
         style="stop-color:#9ba3aa;stop-opacity:1"
         offset="1"
         id="stop23569" />
    </linearGradient>
    <linearGradient
       inkscape:collect="always"
       xlink:href="#linearGradient23571"
       id="linearGradient23573"
       x1="0.5291667"
       y1="5.0270834"
       x2="19.579166"
       y2="13.599584"
       gradientUnits="userSpaceOnUse"
       gradientTransform="matrix(0.4444444,0,0,0.46296293,-0.23518519,-0.21068639)" />
    <linearGradient
       inkscape:collect="always"
       xlink:href="#linearGradient8163"
       id="linearGradient8165"
       x1="5.7449827"
       y1="8.3089285"
       x2="5.7449827"
       y2="19.347616"
       gradientUnits="userSpaceOnUse"
       gradientTransform="matrix(0.37885288,0,0,0.43143711,5.2313306,0.64855375)" />
    <linearGradient
       inkscape:collect="always"
       id="linearGradient8163">
      <stop
         style="stop-color:#e8ebf1;stop-opacity:1;"
         offset="0"
         id="stop8159" />
      <stop
         style="stop-color:#c6cfdd;stop-opacity:1"
         offset="1"
         id="stop8161" />
    </linearGradient>
    <linearGradient
       inkscape:collect="always"
       xlink:href="#linearGradient2733"
       id="linearGradient2735"
       x1="10.259241"
       y1="6.7407818"
       x2="16.000286"
       y2="11.454827"
       gradientUnits="userSpaceOnUse"
       gradientTransform="matrix(0.26458333,0,0,0.26458333,3.4394919,3.4396592)" />
    <linearGradient
       inkscape:collect="always"
       id="linearGradient2733">
      <stop
         style="stop-color:#1b9de2;stop-opacity:1;"
         offset="0"
         id="stop2729" />
      <stop
         style="stop-color:#0178d4;stop-opacity:1"
         offset="1"
         id="stop2731" />
    </linearGradient>
  </defs>
  <rect
     style="fill:url(#linearGradient23573);fill-opacity:1;stroke-width:0.120018;stroke-linejoin:round"
     id="rect858"
     width="8.4666672"
     height="3.96875"
     x="0"
     y="2.1166666"
     ry="0.26458335" />
  <path
     id="rect848"
     style="fill:#edeff0;stroke-width:0.264583"
     d="M 0.26458334,2.3812501 V 2.6458334 H 1.3229167 V 2.3812501 Z m 1.32291666,0 V 2.6458334 H 2.1166667 V 2.3812501 Z m 0.7937501,0 V 2.6458334 H 2.9104167 V 2.3812501 Z m 0.79375,0 V 2.6458334 H 3.7041668 V 2.3812501 Z m 0.79375,0 V 2.6458334 H 4.4979168 V 2.3812501 Z m 0.79375,0 V 2.6458334 H 5.2916668 V 2.3812501 Z m 0.79375,0 V 2.6458334 H 6.0854168 V 2.3812501 Z m 0.7937501,0 V 2.6458334 H 6.8791668 V 2.3812501 Z m 0.79375,0 V 2.6458334 H 8.2020835 V 2.3812501 Z M 0.26458334,2.9104167 V 3.4395834 H 1.3229167 V 2.9104167 Z m 1.32291666,0 V 3.4395834 H 2.1166667 V 2.9104167 Z m 0.7937501,0 V 3.4395834 H 2.9104167 V 2.9104167 Z m 0.79375,0 V 3.4395834 H 3.7041668 V 2.9104167 Z m 0.79375,0 V 3.4395834 H 4.4979168 V 2.9104167 Z m 0.79375,0 V 3.4395834 H 5.2916668 V 2.9104167 Z m 0.79375,0 V 3.4395834 H 6.0854168 V 2.9104167 Z m 0.7937501,0 V 3.4395834 H 6.8791668 V 2.9104167 Z m 0.79375,0 V 3.4395834 H 8.2020835 V 2.9104167 Z M 0.26458334,3.7041668 V 4.2333334 H 1.3229167 V 3.7041668 Z m 1.32291666,0 V 4.2333334 H 2.1166667 V 3.7041668 Z m 0.7937501,0 V 4.2333334 H 2.9104167 V 3.7041668 Z m 0.79375,0 V 4.2333334 H 3.7041668 V 3.7041668 Z m 0.79375,0 V 4.2333334 H 4.4979168 V 3.7041668 Z m 0.79375,0 V 4.2333334 H 5.2916668 V 3.7041668 Z m 0.79375,0 V 4.2333334 H 6.0854168 V 3.7041668 Z m 0.7937501,0 V 4.2333334 H 6.8791668 V 3.7041668 Z m 0.79375,0 V 4.2333334 H 8.2020835 V 3.7041668 Z m -6.87916686,0.79375 V 5.0270835 H 2.1166667 V 4.4979168 Z m 2.11666676,0 V 5.0270835 H 2.9104167 V 4.4979168 Z m 0.79375,0 V 5.0270835 H 3.7041668 V 4.4979168 Z m 0.79375,0 V 5.0270835 H 4.4979168 V 4.4979168 Z m 0.79375,0 V 5.0270835 H 5.2916668 V 4.4979168 Z m 0.79375,0 V 5.0270835 H 6.0854168 V 4.4979168 Z m 0.7937501,0 V 5.0270835 H 8.2020835 V 4.4979168 Z m -6.08541686,0.79375 V 5.8208335 H 1.0583334 V 5.2916668 Z m 1.05833336,0 V 5.8208335 H 1.8520834 V 5.2916668 Z m 0.79375,0 V 5.8208335 H 2.6458334 V 5.2916668 Z m 0.79375,0 V 5.8208335 H 5.5562501 V 5.2916668 Z m 2.9104168,0 V 5.8208335 H 6.3500002 V 5.2916668 Z m 0.79375,0 V 5.8208335 H 7.1437502 V 5.2916668 Z m 0.79375,0 v 0.5291667 h 0.79375 V 5.2916668 Z" />
  <rect
     style="fill:url(#linearGradient8165);fill-opacity:1;stroke-width:0.106969;stroke-linejoin:round"
     id="rect858-6"
     height="3.7041667"
     x="4.7625003"
     y="4.2333336"
     width="3.7041667"
     ry="0.52916664" />
  <path
     id="rect964"
     style="fill:#ffffff;stroke-width:0.264583;stroke-linejoin:round"
     d="M 5.2916669,4.4979171 H 7.9375 c 0.1465791,0 0.2645833,0.1180041 0.2645833,0.2645833 v 2.6458331 c 0,0.1465791 -0.1180042,0.2645833 -0.2645833,0.2645833 H 5.2916669 c -0.1465792,0 -0.2645833,-0.1180042 -0.2645833,-0.2645833 V 4.7625004 c 0,-0.1465792 0.1180041,-0.2645833 0.2645833,-0.2645833 z"
     sodipodi:nodetypes="sssssssss" />
  <path
     id="rect1721"
     style="fill:url(#linearGradient2735);fill-opacity:1;stroke-width:0.324046;stroke-linejoin:round"
     d="m 6.2734275,5.0271592 c -0.105138,0.0053 -0.1881023,0.091939 -0.1881023,0.1984375 0,0.1099344 0.088503,0.1984375 0.1984375,0.1984375 h 0.7121012 l -1.381311,1.3807942 c -0.077739,0.077731 -0.077735,0.2028677 0,0.280603 0.077735,0.077735 0.2028638,0.077731 0.2806031,0 L 7.2759502,5.705154 v 0.7110677 c 0,0.1099343 0.088503,0.1984375 0.1984375,0.1984375 0.1099344,0 0.1984375,-0.088503 0.1984375,-0.1984375 V 5.235932 c 1.709e-4,-0.00339 0,-0.0069 0,-0.010335 0,-0.1064989 -0.082964,-0.1931424 -0.1881024,-0.1984375 -0.00339,-1.708e-4 -0.0069,0 -0.010335,0 H 7.4640525 6.2837627 c -0.00343,0 -0.00694,-1.708e-4 -0.010335,-3e-7 z"
     sodipodi:nodetypes="cssccsccssscssscsc" />
</svg>
