<?xml version="1.0" encoding="UTF-8" standalone="no"?>
<!-- Created with Inkscape (http://www.inkscape.org/) -->

<svg
   width="32"
   height="32"
   viewBox="0 0 8.4666665 8.466667"
   version="1.1"
   id="svg5"
   inkscape:version="1.1.2 (0a00cf5339, 2022-02-04, custom)"
   sodipodi:docname="preferences-desktop-online-accounts.svg"
   xmlns:inkscape="http://www.inkscape.org/namespaces/inkscape"
   xmlns:sodipodi="http://sodipodi.sourceforge.net/DTD/sodipodi-0.dtd"
   xmlns:xlink="http://www.w3.org/1999/xlink"
   xmlns="http://www.w3.org/2000/svg"
   xmlns:svg="http://www.w3.org/2000/svg">
  <sodipodi:namedview
     id="namedview7"
     pagecolor="#ffffff"
     bordercolor="#666666"
     borderopacity="1.0"
     inkscape:pageshadow="2"
     inkscape:pageopacity="0.0"
     inkscape:pagecheckerboard="0"
     inkscape:document-units="px"
     showgrid="false"
     units="px"
     height="64px"
     inkscape:zoom="24.5625"
     inkscape:cx="16"
     inkscape:cy="16"
     inkscape:window-width="1920"
     inkscape:window-height="1004"
     inkscape:window-x="0"
     inkscape:window-y="0"
     inkscape:window-maximized="1"
     inkscape:current-layer="svg5" />
  <defs
     id="defs2">
    <linearGradient
       inkscape:collect="always"
       id="linearGradient4487">
      <stop
         style="stop-color:#1f72d5;stop-opacity:1"
         offset="0"
         id="stop4483" />
      <stop
         style="stop-color:#0669bb;stop-opacity:1"
         offset="1"
         id="stop4485" />
    </linearGradient>
    <linearGradient
       inkscape:collect="always"
       id="linearGradient1014">
      <stop
         style="stop-color:#33bff0;stop-opacity:1"
         offset="0"
         id="stop1010" />
      <stop
         style="stop-color:#1c9fe3;stop-opacity:1"
         offset="1"
         id="stop1012" />
    </linearGradient>
    <linearGradient
       inkscape:collect="always"
       xlink:href="#linearGradient1014"
       id="linearGradient3245"
       x1="18"
       y1="56"
       x2="18"
       y2="14.000001"
       gradientUnits="userSpaceOnUse"
       gradientTransform="matrix(0,0.13229166,0.13229166,0,-2.4062499e-8,4.59375e-8)" />
    <linearGradient
       inkscape:collect="always"
       id="linearGradient336935">
      <stop
         style="stop-color:#1998df;stop-opacity:1;"
         offset="0"
         id="stop336931" />
      <stop
         style="stop-color:#076cbe;stop-opacity:1"
         offset="1"
         id="stop336933" />
    </linearGradient>
    <linearGradient
       inkscape:collect="always"
       xlink:href="#linearGradient336935"
       id="linearGradient4035"
       x1="50"
       y1="2"
       x2="50"
       y2="62"
       gradientUnits="userSpaceOnUse"
       gradientTransform="scale(0.13229166)" />
    <linearGradient
       inkscape:collect="always"
       xlink:href="#linearGradient4487"
       id="linearGradient4489"
       x1="5.8208337"
       y1="0.5291667"
       x2="5.8208332"
       y2="16.404167"
       gradientUnits="userSpaceOnUse"
       gradientTransform="scale(0.49999998)" />
  </defs>
  <circle
     style="fill:url(#linearGradient4489);fill-opacity:1;stroke-width:0.529165;stroke-linecap:round;stroke-linejoin:round"
     id="path846"
     cx="4.2333331"
     cy="4.2333331"
     r="3.9687498" />
  <path
     id="rect3063"
     style="opacity:1;fill:url(#linearGradient3245);fill-opacity:1;stroke:none;stroke-width:0.529165;stroke-linecap:round;stroke-linejoin:round;stroke-miterlimit:4;stroke-dasharray:none;stroke-opacity:1"
     d="M 4.2333334,0.26458339 A 3.9687499,3.9687499 0 0 1 8.2020832,4.2333333 H 4.2333334 Z" />
  <path
     id="rect843"
     style="fill:url(#linearGradient4035);fill-opacity:1;stroke-width:0.705555;stroke-linecap:round;stroke-linejoin:round"
     d="M 4.2333333,0.26458334 A 3.9687499,3.9687499 0 0 0 0.26458334,4.2333333 H 4.2333333 Z m 0,3.96874996 V 8.2020832 A 3.9687499,3.9687499 0 0 0 8.2020832,4.2333333 Z" />
  <path
     d="m 6.3500001,4.0156923 c 0,0.1744923 -0.020864,0.345191 -0.062589,0.5120969 -0.037936,0.1669053 -0.096729,0.3186379 -0.1763888,0.4551972 -0.075865,0.136559 -0.1725955,0.2465652 -0.2901884,0.3300179 -0.1175923,0.07966 -0.2560481,0.1194894 -0.4153674,0.1194894 -0.1517325,0 -0.2769116,-0.043621 -0.3755373,-0.1308691 -0.098626,-0.09104 -0.1631123,-0.199149 -0.1934589,-0.3243284 h -0.03414 C 4.7340512,5.1024756 4.6392184,5.2105847 4.5178324,5.3016246 4.3964466,5.3888703 4.2466108,5.4324937 4.0683252,5.4324937 3.7762404,5.4324937 3.552435,5.3357643 3.3969094,5.1423054 3.2451765,4.9450531 3.1693104,4.6852113 3.1693104,4.3627803 c 0,-0.2503586 0.047416,-0.4722672 0.142249,-0.665726 0.094833,-0.1934588 0.2313919,-0.3451911 0.4096775,-0.4551972 0.1782855,-0.110006 0.3907108,-0.1650089 0.637276,-0.1650089 0.1631123,0 0.3224313,0.015173 0.4779569,0.04552 0.1593193,0.026554 0.2863946,0.058797 0.3812275,0.096729 l -0.051211,1.1550631 c -0.00379,0.060693 -0.00758,0.1081092 -0.011381,0.1422488 v 0.06259 c 0,0.1858723 0.026555,0.3091548 0.07966,0.3698475 0.0569,0.0569 0.121386,0.08535 0.1934589,0.08535 0.098626,0 0.1820787,-0.04552 0.2503586,-0.1365592 0.072074,-0.094833 0.125179,-0.220012 0.1593187,-0.3755376 0.034139,-0.1555256 0.051211,-0.3262247 0.051211,-0.5120969 0,-0.3413978 -0.064486,-0.631586 -0.1934589,-0.8705646 C 5.570476,2.9004593 5.3959835,2.7183803 5.1721779,2.5932012 4.9483731,2.468022 4.6923245,2.4054323 4.404033,2.4054323 c -0.3945042,0 -0.7264188,0.087246 -0.9957439,0.2617384 C 3.1389642,2.8416629 2.9341254,3.0806414 2.7937729,3.3841064 2.6572138,3.6875711 2.5889343,4.0365555 2.5889343,4.4310597 c 0,0.5462365 0.1346625,0.9653973 0.4039874,1.2574822 0.269325,0.2920849 0.6581393,0.4381274 1.1664429,0.4381274 0.2124253,0 0.4229539,-0.026555 0.631586,-0.07966 0.2124257,-0.049312 0.4020908,-0.1062131 0.5689966,-0.1706989 v 0.4324371 c -0.1593192,0.068279 -0.3395011,0.125179 -0.5405467,0.170699 -0.2010454,0.04552 -0.4172642,0.06828 -0.648656,0.06828 -0.4324373,0 -0.8022852,-0.083454 -1.1095432,-0.2503585 C 2.7577362,6.1304623 2.5244475,5.891484 2.3613352,5.5804327 2.1982228,5.2655879 2.1166667,4.888154 2.1166667,4.4481295 c 0,-0.3527777 0.053107,-0.6790023 0.1593191,-0.9786736 C 2.3821985,3.1697842 2.5339308,2.9099425 2.7311829,2.6899305 2.928435,2.4661253 3.1674135,2.2935296 3.4481184,2.1721438 3.7288235,2.0469646 4.0455649,1.984375 4.3983427,1.984375 c 0.379331,0 0.7150385,0.081556 1.0071234,0.2446683 0.2958785,0.1631124 0.5272702,0.396401 0.6941761,0.6998658 0.1669053,0.3034648 0.2503579,0.6657259 0.2503579,1.0867832 z M 3.6700272,4.3741601 c 0,0.2313921 0.041726,0.400194 0.1251792,0.5064067 0.083453,0.102419 0.1972521,0.1536291 0.3413978,0.1536291 0.1858721,0 0.3205348,-0.075865 0.4039876,-0.2275986 C 4.6240444,4.6510716 4.671461,4.4519231 4.6828409,4.2091511 l 0.03414,-0.6827957 c -0.04552,-0.01138 -0.098626,-0.02276 -0.1593188,-0.03414 -0.060693,-0.011379 -0.1232827,-0.01707 -0.187769,-0.01707 -0.1706988,0 -0.307258,0.043623 -0.4096774,0.1308693 -0.102419,0.087246 -0.1763889,0.1991486 -0.2219086,0.3357076 -0.04552,0.1365592 -0.068279,0.280705 -0.06828,0.4324378 z"
     style="font-weight:500;font-family:'Noto Sans Display';-inkscape-font-specification:'Noto Sans Display Medium';fill:#f9f9f9;stroke-width:0.14111"
     id="path18198" />
</svg>
