<?xml version="1.0" encoding="UTF-8" standalone="no"?>
<!-- Created with Inkscape (http://www.inkscape.org/) -->

<svg
   width="32"
   height="32"
   viewBox="0 0 8.4666665 8.466667"
   version="1.1"
   id="svg5"
   inkscape:version="1.1.2 (0a00cf5339, 2022-02-04, custom)"
   sodipodi:docname="preferences-system-windows-tiling.svg"
   xmlns:inkscape="http://www.inkscape.org/namespaces/inkscape"
   xmlns:sodipodi="http://sodipodi.sourceforge.net/DTD/sodipodi-0.dtd"
   xmlns:xlink="http://www.w3.org/1999/xlink"
   xmlns="http://www.w3.org/2000/svg"
   xmlns:svg="http://www.w3.org/2000/svg">
  <sodipodi:namedview
     id="namedview7"
     pagecolor="#ffffff"
     bordercolor="#666666"
     borderopacity="1.0"
     inkscape:pageshadow="2"
     inkscape:pageopacity="0.0"
     inkscape:pagecheckerboard="0"
     inkscape:document-units="px"
     showgrid="false"
     units="px"
     height="64px"
     inkscape:zoom="12.421875"
     inkscape:cx="23.265409"
     inkscape:cy="32"
     inkscape:window-width="1920"
     inkscape:window-height="1004"
     inkscape:window-x="0"
     inkscape:window-y="24"
     inkscape:window-maximized="1"
     inkscape:current-layer="svg5" />
  <defs
     id="defs2">
    <linearGradient
       inkscape:collect="always"
       id="linearGradient11972">
      <stop
         style="stop-color:#4accfe;stop-opacity:1"
         offset="0"
         id="stop11968" />
      <stop
         style="stop-color:#2d78b3;stop-opacity:1"
         offset="1"
         id="stop11970" />
    </linearGradient>
    <linearGradient
       inkscape:collect="always"
       xlink:href="#linearGradient11972"
       id="linearGradient1924"
       x1="0.5291667"
       y1="1.5875"
       x2="8.4666672"
       y2="7.9375"
       gradientUnits="userSpaceOnUse"
       gradientTransform="translate(-0.26458338,-0.52916661)" />
  </defs>
  <path
     id="rect1836"
     style="fill:url(#linearGradient1924);stroke-width:0.79375;stroke-linecap:round;stroke-linejoin:round"
     d="M 0.79375004,1.0583333 H 7.6729164 c 0.2931585,0 0.529167,0.2360083 0.529167,0.5291667 v 5.2916663 c 0,0.2931585 -0.2360085,0.529167 -0.529167,0.529167 H 0.79375004 c -0.29315835,0 -0.5291667,-0.2360085 -0.5291667,-0.529167 V 1.5875 c 0,-0.2931584 0.23600835,-0.5291667 0.5291667,-0.5291667 z" />
  <path
     id="rect1154"
     style="opacity:0.9;fill:#ffffff;stroke-width:0.529165;stroke-linecap:round;stroke-linejoin:round"
     d="m 1.0583333,1.5874998 h 2.6458333 c 0.1465791,0 0.2645833,0.1180042 0.2645833,0.2645834 v 4.7624997 c 0,0.1465795 -0.1180042,0.2645835 -0.2645833,0.2645835 H 1.0583333 c -0.14657916,0 -0.26458336,-0.118004 -0.26458336,-0.2645835 V 1.8520832 c 0,-0.1465792 0.1180042,-0.2645834 0.26458336,-0.2645834 z" />
  <path
     id="rect1280"
     style="opacity:0.75;fill:#ffffff;stroke-width:0.529165;stroke-linecap:round;stroke-linejoin:round"
     d="m 4.7624987,1.5874998 h 2.6458324 c 0.146579,0 0.2645827,0.1180041 0.2645827,0.2645833 v 1.8520831 c 0,0.1465791 -0.1180037,0.2645833 -0.2645827,0.2645833 H 4.7624987 c -0.1465791,0 -0.2645833,-0.1180042 -0.2645833,-0.2645833 V 1.8520831 c 0,-0.1465792 0.1180042,-0.2645833 0.2645833,-0.2645833 z" />
  <path
     id="rect1486"
     style="opacity:0.5;fill:#ffffff;stroke-width:0.529165;stroke-linecap:round;stroke-linejoin:round"
     d="m 4.7624987,4.4979158 h 2.6458324 c 0.146579,0 0.2645827,0.1180041 0.2645827,0.2645833 v 1.8520833 c 0,0.146579 -0.1180037,0.2645835 -0.2645827,0.2645835 H 4.7624987 c -0.1465791,0 -0.2645833,-0.1180045 -0.2645833,-0.2645835 V 4.7624991 c 0,-0.1465792 0.1180042,-0.2645833 0.2645833,-0.2645833 z" />
</svg>
