<?xml version="1.0" encoding="UTF-8" standalone="no"?>
<!-- Created with Inkscape (http://www.inkscape.org/) -->

<svg
   width="32"
   height="32"
   viewBox="0 0 8.4666665 8.466667"
   version="1.1"
   id="svg5"
   inkscape:version="1.1.2 (0a00cf5339, 2022-02-04, custom)"
   sodipodi:docname="preferences-desktop-theme-windowdecorations.svg"
   xmlns:inkscape="http://www.inkscape.org/namespaces/inkscape"
   xmlns:sodipodi="http://sodipodi.sourceforge.net/DTD/sodipodi-0.dtd"
   xmlns:xlink="http://www.w3.org/1999/xlink"
   xmlns="http://www.w3.org/2000/svg"
   xmlns:svg="http://www.w3.org/2000/svg">
  <sodipodi:namedview
     id="namedview7"
     pagecolor="#ffffff"
     bordercolor="#666666"
     borderopacity="1.0"
     inkscape:pageshadow="2"
     inkscape:pageopacity="0.0"
     inkscape:pagecheckerboard="0"
     inkscape:document-units="px"
     showgrid="false"
     units="px"
     height="64px"
     inkscape:zoom="24.96875"
     inkscape:cx="15.739675"
     inkscape:cy="16"
     inkscape:window-width="1920"
     inkscape:window-height="1004"
     inkscape:window-x="0"
     inkscape:window-y="24"
     inkscape:window-maximized="1"
     inkscape:current-layer="svg5" />
  <defs
     id="defs2">
    <linearGradient
       inkscape:collect="always"
       xlink:href="#linearGradient34770"
       id="linearGradient5000"
       x1="1.3890625"
       y1="-3.175"
       x2="2.7956591"
       y2="-4.1435666"
       gradientUnits="userSpaceOnUse"
       gradientTransform="matrix(0.64887036,0.64887036,0.67481739,-0.67481739,4.1384197,2.2089217)" />
    <linearGradient
       inkscape:collect="always"
       id="linearGradient34770">
      <stop
         style="stop-color:#f8a731;stop-opacity:1;"
         offset="0"
         id="stop34766" />
      <stop
         style="stop-color:#ea631d;stop-opacity:1"
         offset="1"
         id="stop34768" />
    </linearGradient>
    <linearGradient
       inkscape:collect="always"
       xlink:href="#linearGradient2353"
       id="linearGradient1623"
       x1="1.490428"
       y1="0.96836084"
       x2="3.9701264"
       y2="1.9523772"
       gradientUnits="userSpaceOnUse"
       gradientTransform="matrix(0.76238428,0.76238428,-0.78658072,0.78658072,4.3944635,1.4306904)" />
    <linearGradient
       inkscape:collect="always"
       id="linearGradient2353">
      <stop
         style="stop-color:#c6d0d7;stop-opacity:1;"
         offset="0"
         id="stop2349" />
      <stop
         style="stop-color:#82888b;stop-opacity:1"
         offset="1"
         id="stop2351" />
    </linearGradient>
  </defs>
  <rect
     style="fill:#797774;fill-opacity:1;stroke:none;stroke-width:0.109727;stroke-linecap:round;stroke-linejoin:round"
     id="rect261617"
     width="7.9375"
     height="6.3499999"
     x="0.26458335"
     y="1.0583334"
     ry="0.5291667" />
  <path
     id="rect1043"
     style="fill:#fafafa;fill-opacity:1;stroke-width:0.79375;stroke-linecap:round;stroke-linejoin:round"
     d="M 0.79374994,1.8520834 H 7.6729166 c 0.1465792,0 0.2645834,0.1180042 0.2645834,0.2645833 v 4.7625 c 0,0.146579 -0.1180042,0.264583 -0.2645834,0.264583 H 0.79374994 c -0.14657912,0 -0.26458329,-0.118004 -0.26458329,-0.264583 v -4.7625 c 0,-0.1465791 0.11800417,-0.2645833 0.26458329,-0.2645833 z"
     sodipodi:nodetypes="sssssssss" />
  <path
     id="rect1066"
     style="fill:#c4c4c4;fill-opacity:1;stroke-width:0.396875;stroke-linecap:round;stroke-linejoin:round"
     d="M 6.3500001,1.3229167 V 1.5875 H 6.6145834 V 1.3229167 Z m 0.5291667,0 V 1.5875 H 7.1437501 V 1.3229167 Z m 0.5291666,0 V 1.5875 H 7.6729167 V 1.3229167 Z" />
  <path
     id="path6136"
     style="color:#000000;fill:url(#linearGradient5000);stroke-width:0.2476;stroke-linecap:round;stroke-linejoin:round;-inkscape-stroke:none"
     d="M 3.5215039,5.1256325 C 2.4654772,4.8536538 2.4030436,5.8763531 2.139326,6.2239612 c -0.04812,0.06942 -0.01128,0.099952 0.03332,0.127318 0.7839524,0.08891 1.7576665,-0.6072141 1.3488579,-1.2256467 z"
     sodipodi:nodetypes="cccc" />
  <path
     id="path2852"
     style="color:#000000;fill:url(#linearGradient1623);fill-opacity:1;stroke-width:0.289758;stroke-linecap:round;stroke-linejoin:round;-inkscape-stroke:none"
     d="M 6.2370771,2.4100594 C 5.9165575,2.089533 3.4638297,4.5400156 3.026027,4.9778106 c -0.00192,0.00173 -0.00358,0.00358 -0.00544,0.00544 -0.059398,0.059398 -0.059398,0.1550361 0,0.2144329 l 0.4288655,0.4288704 c 0.059398,0.059398 0.155034,0.059398 0.214433,0 0.00187,-0.00187 0.0037,-0.00352 0.00544,-0.00544 C 4.1071209,5.1833067 6.5575936,2.7305688 6.2370771,2.4100594 Z"
     sodipodi:nodetypes="ccsssscc" />
</svg>
