<?xml version="1.0" encoding="UTF-8" standalone="no"?>
<!-- Created with Inkscape (http://www.inkscape.org/) -->

<svg
   width="32"
   height="32"
   viewBox="0 0 8.4666665 8.466667"
   version="1.1"
   id="svg5"
   inkscape:version="1.2.1 (9c6d41e410, 2022-07-14)"
   sodipodi:docname="preferences-desktop-activities.svg"
   xmlns:inkscape="http://www.inkscape.org/namespaces/inkscape"
   xmlns:sodipodi="http://sodipodi.sourceforge.net/DTD/sodipodi-0.dtd"
   xmlns:xlink="http://www.w3.org/1999/xlink"
   xmlns="http://www.w3.org/2000/svg"
   xmlns:svg="http://www.w3.org/2000/svg">
  <sodipodi:namedview
     id="namedview7"
     pagecolor="#ffffff"
     bordercolor="#666666"
     borderopacity="1.0"
     inkscape:pageshadow="2"
     inkscape:pageopacity="0.0"
     inkscape:pagecheckerboard="0"
     inkscape:document-units="px"
     showgrid="false"
     units="px"
     height="64px"
     inkscape:zoom="24.75"
     inkscape:cx="15.979798"
     inkscape:cy="16"
     inkscape:window-width="1920"
     inkscape:window-height="1007"
     inkscape:window-x="0"
     inkscape:window-y="0"
     inkscape:window-maximized="1"
     inkscape:current-layer="svg5"
     inkscape:showpageshadow="2"
     inkscape:deskcolor="#d1d1d1" />
  <defs
     id="defs2">
    <linearGradient
       inkscape:collect="always"
       id="linearGradient11972">
      <stop
         style="stop-color:#4accfe;stop-opacity:1"
         offset="0"
         id="stop11968" />
      <stop
         style="stop-color:#2d78b3;stop-opacity:1"
         offset="1"
         id="stop11970" />
    </linearGradient>
    <linearGradient
       inkscape:collect="always"
       xlink:href="#linearGradient223269"
       id="linearGradient1924"
       x1="0.5291667"
       y1="1.5875"
       x2="8.4666672"
       y2="7.9375"
       gradientUnits="userSpaceOnUse"
       gradientTransform="translate(0.5291666,-0.52916661)" />
    <linearGradient
       inkscape:collect="always"
       xlink:href="#linearGradient11972"
       id="linearGradient924"
       x1="2.3812487"
       y1="1.5874999"
       x2="7.672914"
       y2="3.9687495"
       gradientUnits="userSpaceOnUse"
       gradientTransform="translate(-0.79374861)" />
    <linearGradient
       inkscape:collect="always"
       id="linearGradient223269">
      <stop
         style="stop-color:#555556;stop-opacity:1;"
         offset="0"
         id="stop223265" />
      <stop
         style="stop-color:#2d2d2d;stop-opacity:1"
         offset="1"
         id="stop223267" />
    </linearGradient>
  </defs>
  <path
     id="rect1836"
     style="fill:url(#linearGradient1924);stroke-width:0.79375;stroke-linecap:round;stroke-linejoin:round;fill-opacity:1.0"
     d="m 1.5875,1.0583333 h 5.2916664 c 0.2931585,0 0.529167,0.2360083 0.529167,0.5291667 v 5.2916663 c 0,0.2931585 -0.2360085,0.529167 -0.529167,0.529167 H 1.5875 c -0.2931583,0 -0.5291667,-0.2360085 -0.5291667,-0.529167 V 1.5875 c 0,-0.2931584 0.2360084,-0.5291667 0.5291667,-0.5291667 z"
     sodipodi:nodetypes="sssssssss" />
  <path
     id="rect1280"
     style="opacity:1;fill:url(#linearGradient924);fill-opacity:1;stroke-width:0.529165;stroke-linecap:round;stroke-linejoin:round"
     d="m 1.8520833,1.5874998 h 4.7624991 c 0.146579,0 0.2645827,0.1180041 0.2645827,0.2645833 v 1.8520831 c 0,0.1465791 -0.1180037,0.2645833 -0.2645827,0.2645833 H 1.8520833 C 1.7055042,3.9687495 1.5875,3.8507453 1.5875,3.7041662 V 1.8520831 c 0,-0.1465792 0.1180042,-0.2645833 0.2645833,-0.2645833 z"
     sodipodi:nodetypes="sssssssss" />
  <path
     id="rect1486"
     style="opacity:0.5;fill:#ffffff;stroke-width:0.529165;stroke-linecap:round;stroke-linejoin:round"
     d="m 1.8520833,4.4979158 h 4.7624991 c 0.146579,0 0.2645827,0.1180041 0.2645827,0.2645833 v 1.8520833 c 0,0.146579 -0.1180037,0.2645835 -0.2645827,0.2645835 H 1.8520833 C 1.7055042,6.8791659 1.5875,6.7611614 1.5875,6.6145824 V 4.7624991 c 0,-0.1465792 0.1180042,-0.2645833 0.2645833,-0.2645833 z"
     sodipodi:nodetypes="sssssssss" />
</svg>
