<?xml version="1.0" encoding="UTF-8" standalone="no"?>
<!-- Created with Inkscape (http://www.inkscape.org/) -->

<svg
   width="32"
   height="32"
   viewBox="0 0 8.4666665 8.4666665"
   version="1.1"
   id="svg5"
   inkscape:version="1.1.2 (0a00cf5339, 2022-02-04)"
   sodipodi:docname="preferences-desktop-accessibility.svg"
   xmlns:inkscape="http://www.inkscape.org/namespaces/inkscape"
   xmlns:sodipodi="http://sodipodi.sourceforge.net/DTD/sodipodi-0.dtd"
   xmlns:xlink="http://www.w3.org/1999/xlink"
   xmlns="http://www.w3.org/2000/svg"
   xmlns:svg="http://www.w3.org/2000/svg">
  <sodipodi:namedview
     id="namedview7"
     pagecolor="#ffffff"
     bordercolor="#666666"
     borderopacity="1.0"
     inkscape:pageshadow="2"
     inkscape:pageopacity="0.0"
     inkscape:pagecheckerboard="0"
     inkscape:document-units="px"
     showgrid="false"
     units="px"
     height="48px"
     inkscape:zoom="24.96875"
     inkscape:cx="15.979975"
     inkscape:cy="16"
     inkscape:window-width="1920"
     inkscape:window-height="1011"
     inkscape:window-x="0"
     inkscape:window-y="0"
     inkscape:window-maximized="1"
     inkscape:current-layer="svg5"
     inkscape:lockguides="true" />
  <defs
     id="defs2">
    <linearGradient
       inkscape:collect="always"
       id="linearGradient2779">
      <stop
         style="stop-color:#4397ff;stop-opacity:1;"
         offset="0"
         id="stop2775" />
      <stop
         style="stop-color:#2b59b2;stop-opacity:1"
         offset="1"
         id="stop2777" />
    </linearGradient>
    <linearGradient
       inkscape:collect="always"
       xlink:href="#linearGradient2779"
       id="linearGradient2781"
       x1="8.7312498"
       y1="0.5292055"
       x2="8.7313251"
       y2="16.404205"
       gradientUnits="userSpaceOnUse"
       gradientTransform="matrix(0.49999757,0,0,0.49999757,4.19547e-5,1.288125e-6)" />
  </defs>
  <path
     id="rect1286"
     style="fill:url(#linearGradient2781);fill-opacity:1;stroke-width:0.449705;stroke-linecap:round;stroke-linejoin:round"
     d="m 4.1672472,0.26458333 c -0.5844985,-2e-8 -1.0583282,0.47382964 -1.0583282,1.05832817 0,0.5844985 0.4738297,1.0583282 1.0583282,1.0583282 0.5844985,0 1.0583283,-0.4738297 1.0583283,-1.0583282 0,-0.58449853 -0.4738298,-1.05832819 -1.0583283,-1.05832817 z M 1.4413082,1.7021909 c -0.2232169,0.0048 -0.438121,0.1229823 -0.55836112,0.3312443 -0.1832231,0.3173516 -0.075249,0.720335 0.24210282,0.903558 L 2.844337,3.7899324 V 5.2435833 L 2.0908983,7.3139892 C 1.9655661,7.658336 2.1418743,8.0364052 2.4862211,8.1617371 2.8305677,8.2870695 3.2086368,8.1107613 3.3339688,7.7664145 L 3.9780404,5.9970391 C 4.0500584,5.8143965 4.2708653,5.810302 4.3552617,5.9937391 L 5.0005256,7.76639 C 5.1258575,8.1107368 5.5039267,8.287045 5.8482735,8.1617126 6.1926198,8.0363807 6.3689285,7.6583115 6.2435961,7.3139647 L 5.4901573,5.2435833 V 3.7899324 L 7.3403362,2.8990371 C 7.6576882,2.7158139 7.7656622,2.3128307 7.5824391,1.9954791 7.399216,1.6781273 6.9962329,1.570153 6.6788815,1.7533761 L 5.4118681,2.3076011 C 5.1109126,2.6881771 4.6524401,2.9102273 4.1672472,2.9104038 3.6820543,2.9102318 3.2235818,2.6881771 2.9226264,2.3076011 L 1.786505,1.7913323 C 1.6774155,1.7283494 1.5582313,1.6996778 1.4413082,1.7021909 Z"
     sodipodi:nodetypes="ssssscsccccsccccsccccscccccc" />
</svg>
