<?xml version="1.0" encoding="UTF-8" standalone="no"?>
<svg
   width="32"
   height="32"
   viewBox="0 0 8.46656 8.46656"
   version="1.1"
   id="svg1886"
   inkscape:version="1.1.2 (0a00cf5339, 2022-02-04)"
   sodipodi:docname="regedit.svg"
   xmlns:inkscape="http://www.inkscape.org/namespaces/inkscape"
   xmlns:sodipodi="http://sodipodi.sourceforge.net/DTD/sodipodi-0.dtd"
   xmlns="http://www.w3.org/2000/svg"
   xmlns:svg="http://www.w3.org/2000/svg"
   xmlns:rdf="http://www.w3.org/1999/02/22-rdf-syntax-ns#"
   xmlns:cc="http://creativecommons.org/ns#"
   xmlns:dc="http://purl.org/dc/elements/1.1/">
  <defs
     id="defs1880" />
  <sodipodi:namedview
     id="base"
     pagecolor="#ffffff"
     bordercolor="#666666"
     borderopacity="1.0"
     inkscape:pageopacity="0.0"
     inkscape:pageshadow="2"
     inkscape:zoom="8.5405241"
     inkscape:cx="31.731074"
     inkscape:cy="37.058616"
     inkscape:document-units="px"
     inkscape:current-layer="svg1886"
     inkscape:document-rotation="0"
     showgrid="false"
     units="px"
     inkscape:window-width="1920"
     inkscape:window-height="1011"
     inkscape:window-x="0"
     inkscape:window-y="0"
     inkscape:window-maximized="1"
     inkscape:pagecheckerboard="0"
     showguides="false" />
  <metadata
     id="metadata1883">
    <rdf:RDF>
      <cc:Work
         rdf:about="">
        <dc:format>image/svg+xml</dc:format>
        <dc:type
           rdf:resource="http://purl.org/dc/dcmitype/StillImage" />
      </cc:Work>
    </rdf:RDF>
  </metadata>
  <path
     id="rect1181"
     style="fill:#69cafd;fill-opacity:1;stroke-width:0.300004;stroke-linecap:round;stroke-linejoin:round"
     d="m 0.79374,0.52916 c -0.146577,0 -0.26458,0.11800271 -0.26458,0.26457996 V 3.0426699 H 3.04267 V 0.79373996 C 3.04267,0.64716281 2.924667,0.52916 2.77809,0.52916 Z M 3.04267,3.0426699 V 5.42389 H 5.42389 V 3.30725 c 0,-0.1465774 -0.118002,-0.2645801 -0.26458,-0.2645801 z M 5.42389,5.42389 v 2.5135099 h 2.24893 c 0.146577,0 0.26458,-0.1180028 0.26458,-0.26458 v -1.98435 C 7.9374,5.5418928 7.819397,5.42389 7.67282,5.42389 Z" />
  <path
     id="rect8880"
     style="fill:#48b3f1;fill-opacity:1;stroke-width:0.308225;stroke-linecap:round;stroke-linejoin:round"
     d="M 0.52916,3.0426699 V 5.42389 H 3.04267 V 3.0426699 Z M 3.04267,5.42389 V 7.9373999 H 5.42389 V 5.42389 Z" />
  <path
     id="rect25648"
     style="fill:#08a3e7;fill-opacity:1;stroke-width:0.529158;stroke-linecap:round;stroke-linejoin:round"
     d="m 0.52916,5.42389 c 0,0.7496433 0,1.4992866 0,2.2489299 0,0.1465772 0.118003,0.26458 0.26458,0.26458 0.749643,0 1.499287,0 2.24893,0 V 5.42389 Z"
     sodipodi:nodetypes="cccccc" />
</svg>
