<?xml version="1.0" encoding="UTF-8" standalone="no"?>
<!-- Created with Inkscape (http://www.inkscape.org/) -->

<svg
   width="32"
   height="32"
   viewBox="0 0 8.4666665 8.466667"
   version="1.1"
   id="svg5"
   inkscape:version="1.2.1 (9c6d41e410, 2022-07-14)"
   sodipodi:docname="system-file-manager.svg"
   xmlns:inkscape="http://www.inkscape.org/namespaces/inkscape"
   xmlns:sodipodi="http://sodipodi.sourceforge.net/DTD/sodipodi-0.dtd"
   xmlns:xlink="http://www.w3.org/1999/xlink"
   xmlns="http://www.w3.org/2000/svg"
   xmlns:svg="http://www.w3.org/2000/svg">
  <sodipodi:namedview
     id="namedview7"
     pagecolor="#ffffff"
     bordercolor="#666666"
     borderopacity="1.0"
     inkscape:pageshadow="2"
     inkscape:pageopacity="0.0"
     inkscape:pagecheckerboard="0"
     inkscape:document-units="px"
     showgrid="false"
     units="px"
     height="64px"
     inkscape:zoom="24.75"
     inkscape:cx="16"
     inkscape:cy="16"
     inkscape:window-width="1920"
     inkscape:window-height="1007"
     inkscape:window-x="0"
     inkscape:window-y="0"
     inkscape:window-maximized="1"
     inkscape:current-layer="svg5"
     inkscape:showpageshadow="2"
     inkscape:deskcolor="#d1d1d1" />
  <defs
     id="defs2">
    <linearGradient
       inkscape:collect="always"
       id="linearGradient13470">
      <stop
         style="stop-color:#1191de;stop-opacity:1;"
         offset="0"
         id="stop13466" />
      <stop
         style="stop-color:#0061b3;stop-opacity:1"
         offset="1"
         id="stop13468" />
    </linearGradient>
    <linearGradient
       inkscape:collect="always"
       id="linearGradient12673">
      <stop
         style="stop-color:#ffffff;stop-opacity:1;"
         offset="0"
         id="stop12669" />
      <stop
         style="stop-color:#ffffff;stop-opacity:0;"
         offset="1"
         id="stop12671" />
    </linearGradient>
    <linearGradient
       inkscape:collect="always"
       id="linearGradient11972">
      <stop
         style="stop-color:#fed761;stop-opacity:1;"
         offset="0"
         id="stop11968" />
      <stop
         style="stop-color:#f5b302;stop-opacity:1"
         offset="1"
         id="stop11970" />
    </linearGradient>
    <linearGradient
       inkscape:collect="always"
       xlink:href="#linearGradient11972"
       id="linearGradient11974"
       x1="5.2916665"
       y1="5.5562496"
       x2="15.345834"
       y2="16.139584"
       gradientUnits="userSpaceOnUse"
       gradientTransform="matrix(0.49999999,0,0,0.49999999,0,-0.39687501)" />
    <linearGradient
       inkscape:collect="always"
       xlink:href="#linearGradient12673"
       id="linearGradient12675"
       x1="2.0539474e-07"
       y1="9.7895832"
       x2="16.933334"
       y2="9.7895832"
       gradientUnits="userSpaceOnUse"
       gradientTransform="matrix(0.49999999,0,0,0.49999999,0,-0.39687501)" />
    <linearGradient
       inkscape:collect="always"
       xlink:href="#linearGradient13470"
       id="linearGradient13472"
       x1="8.0030022"
       y1="10.077301"
       x2="12.187556"
       y2="15.257011"
       gradientUnits="userSpaceOnUse"
       gradientTransform="matrix(0.40134852,0,0,0.49999999,0.1665521,0.78789301)" />
  </defs>
  <path
     id="rect846"
     style="fill:#de9e00;fill-opacity:1;stroke-width:0.264583;stroke-linecap:round;stroke-linejoin:round;stroke-dasharray:3.175, 0.264583"
     d="m 0.66145835,0.79375001 c -0.21986876,0 -0.39687501,0.1770062 -0.39687501,0.39687499 0.0125044,0.1292809 0,3.175 0,3.175 0,0.2198688 0.17700624,0.3968749 0.39687501,0.3968749 H 7.8052085 c 0.219869,0 0.396875,-0.1770061 0.396875,-0.3968749 v -2.38125 c 0,-0.2198688 -0.177006,-0.396875 -0.396875,-0.396875 H 3.9687501 L 3.4395835,1.0583333 C 3.2589714,0.88156101 3.1302855,0.79375001 2.9104168,0.79375001 Z"
     sodipodi:nodetypes="sccsssssccss" />
  <path
     id="rect1170"
     style="fill:url(#linearGradient11974);fill-opacity:1;stroke-width:0.350012;stroke-linecap:round;stroke-linejoin:round;stroke-dasharray:4.20013, 0.350012"
     d="m 3.7041668,1.8520833 c -0.155338,0 -0.2279308,0.086476 -0.2645834,0.1322917 L 2.9104167,2.6458333 H 0.79374996 c -0.29315831,0 -0.52916662,0.2360083 -0.52916662,0.5291666 v 3.9687498 c 0,0.2931585 0.23600831,0.5291665 0.52916662,0.5291665 H 7.672917 c 0.2931585,0 0.5291665,-0.236008 0.5291665,-0.5291665 V 2.1166666 c 0,-0.1465791 -0.118004,-0.2645833 -0.2645835,-0.2645833 z"
     sodipodi:nodetypes="sscsssssccss" />
  <path
     id="rect1170-7"
     style="opacity:0.3;fill:url(#linearGradient12675);fill-opacity:1;stroke-width:0.350012;stroke-linecap:round;stroke-linejoin:round;stroke-dasharray:4.20013, 0.350012"
     d="m 3.7041668,1.8520833 c -0.155338,0 -0.2121049,0.1060527 -0.2645834,0.1322917 L 2.9104167,2.6458333 H 0.79374996 c -0.29315846,0 -0.52916662,0.2360082 -0.52916662,0.5291666 v 0.2645834 c 0,-0.2931585 0.23600816,-0.5291667 0.52916662,-0.5291667 H 2.9104167 L 3.4395834,2.2489583 C 3.4920619,2.2227193 3.5488288,2.1166667 3.7041668,2.1166667 H 7.9375 c 0.14658,0 0.2645835,0.1180037 0.2645835,0.2645833 V 2.1166667 C 8.2020835,1.9700871 8.08408,1.8520833 7.9375,1.8520833 Z"
     sodipodi:nodetypes="sccsscsccsscsss" />
  <path
     id="rect13130"
     style="fill:url(#linearGradient13472);stroke-width:0.23705;stroke-linecap:round;stroke-linejoin:round;stroke-dasharray:2.84459, 0.23705"
     d="m 2.1166675,5.8208332 h 4.2333322 c 0.293159,0 0.5291675,0.2146295 0.5291675,0.5291675 v 1.322916 H 1.5875001 v -1.322916 c 0,-0.2931585 0.2360087,-0.5291675 0.5291674,-0.5291675 z"
     sodipodi:nodetypes="sssccss" />
  <path
     id="rect13977"
     style="fill:#0f4a8a;stroke-width:0.187089;stroke-linecap:round;stroke-linejoin:round;stroke-dasharray:2.24506, 0.187089"
     d="m 2.5135417,6.6145833 h 3.4395816 c 0.07329,0 0.1322915,0.059 0.1322915,0.132292 0,0.07329 -0.059002,0.132291 -0.1322915,0.132291 H 2.5135417 c -0.073289,0 -0.1322916,-0.059 -0.1322916,-0.132291 0,-0.07329 0.059002,-0.132292 0.1322916,-0.132292 z"
     sodipodi:nodetypes="sssssss" />
</svg>
