<?xml version="1.0" encoding="UTF-8" standalone="no"?>
<!-- Created with Inkscape (http://www.inkscape.org/) -->

<svg
   width="32"
   height="32"
   viewBox="0 0 8.4666665 8.466667"
   version="1.1"
   id="svg5"
   inkscape:version="1.1.2 (0a00cf5339, 2022-02-04)"
   sodipodi:docname="system-settings.svg"
   xmlns:inkscape="http://www.inkscape.org/namespaces/inkscape"
   xmlns:sodipodi="http://sodipodi.sourceforge.net/DTD/sodipodi-0.dtd"
   xmlns:xlink="http://www.w3.org/1999/xlink"
   xmlns="http://www.w3.org/2000/svg"
   xmlns:svg="http://www.w3.org/2000/svg">
  <sodipodi:namedview
     id="namedview7"
     pagecolor="#ffffff"
     bordercolor="#666666"
     borderopacity="1.0"
     inkscape:pageshadow="2"
     inkscape:pageopacity="0.0"
     inkscape:pagecheckerboard="0"
     inkscape:document-units="px"
     showgrid="false"
     units="px"
     inkscape:zoom="12.484375"
     inkscape:cx="31.95995"
     inkscape:cy="32"
     inkscape:window-width="1920"
     inkscape:window-height="1011"
     inkscape:window-x="0"
     inkscape:window-y="0"
     inkscape:window-maximized="1"
     inkscape:current-layer="svg5" />
  <defs
     id="defs2">
    <linearGradient
       inkscape:collect="always"
       id="linearGradient8250">
      <stop
         style="stop-color:#0568ba;stop-opacity:1;"
         offset="0"
         id="stop8246" />
      <stop
         style="stop-color:#0568ba;stop-opacity:1"
         offset="0.23999999"
         id="stop9054" />
      <stop
         style="stop-color:#0f4c8a;stop-opacity:1"
         offset="0.80000001"
         id="stop8830" />
      <stop
         style="stop-color:#0f4c8f;stop-opacity:1"
         offset="1"
         id="stop8248" />
    </linearGradient>
    <linearGradient
       inkscape:collect="always"
       id="linearGradient7024">
      <stop
         style="stop-color:#ffffff;stop-opacity:1;"
         offset="0"
         id="stop7020" />
      <stop
         style="stop-color:#f0f0f0;stop-opacity:1"
         offset="0.25"
         id="stop7732" />
      <stop
         style="stop-color:#cccccc;stop-opacity:1"
         offset="1"
         id="stop7022" />
    </linearGradient>
    <linearGradient
       inkscape:collect="always"
       id="linearGradient6060">
      <stop
         style="stop-color:#8a8f97;stop-opacity:1;"
         offset="0"
         id="stop6056" />
      <stop
         style="stop-color:#8a8f97;stop-opacity:1"
         offset="0.14573747"
         id="stop6576" />
      <stop
         style="stop-color:#616e7a;stop-opacity:1"
         offset="0.89999998"
         id="stop6770" />
      <stop
         style="stop-color:#616e7a;stop-opacity:1"
         offset="1"
         id="stop6058" />
    </linearGradient>
    <linearGradient
       inkscape:collect="always"
       xlink:href="#linearGradient6060"
       id="linearGradient6062"
       x1="1.0583334"
       y1="1.0583338"
       x2="15.345835"
       y2="13.229167"
       gradientUnits="userSpaceOnUse"
       gradientTransform="matrix(1.8897639,0,0,1.8897639,0,-0.20594532)" />
    <linearGradient
       inkscape:collect="always"
       xlink:href="#linearGradient7024"
       id="linearGradient7026"
       x1="14.634075"
       y1="13.653037"
       x2="4.0507412"
       y2="3.0697033"
       gradientUnits="userSpaceOnUse"
       gradientTransform="matrix(0.49999999,0,0,0.49999999,-0.43787093,0.05265256)" />
    <linearGradient
       inkscape:collect="always"
       xlink:href="#linearGradient8250"
       id="linearGradient8252"
       x1="5.458415"
       y1="4.8895097"
       x2="12.337581"
       y2="11.768677"
       gradientUnits="userSpaceOnUse"
       gradientTransform="matrix(0.49999999,0,0,0.49999999,-0.3479569,-0.06350395)" />
  </defs>
  <circle
     style="fill:url(#linearGradient7026);fill-opacity:1;stroke-width:0.132291"
     id="path6952"
     cx="4.2333331"
     cy="4.2333331"
     r="2.3812499" />
  <path
     id="path5884"
     style="fill:url(#linearGradient6062);fill-opacity:1;stroke-width:0.500001"
     d="M 11.027344,0.58789062 C 8.9261763,1.2767624 6.9896285,2.3946577 5.3417969,3.8691406 6.2412458,5.669505 6.1781695,7.8008982 5.1738281,9.5449219 4.1647453,11.2608 2.3713288,12.363531 0.38476562,12.490234 0.14208662,13.575114 0.01313488,14.683308 0,15.794922 c 0.01499108,1.112145 0.14590728,2.219697 0.390625,3.304687 1.9842465,0.128384 3.7750308,1.231456 4.7832031,2.945313 1.0007762,1.736734 1.0681921,3.857534 0.1796875,5.654297 1.6407368,1.466223 3.5662707,2.579236 5.6562504,3.267578 1.112179,-1.668324 2.985179,-2.670841 4.990234,-2.671875 2.005908,-1.63e-4 3.879209,1.001106 4.992188,2.669922 2.100699,-0.691272 4.035284,-1.810524 5.68164,-3.28711 -0.889532,-1.786258 -0.831821,-3.896896 0.152344,-5.632812 1.00794,-1.714232 2.798765,-2.818671 4.783203,-2.947266 C 31.854025,18.012984 31.984941,16.906741 32,15.794922 31.986865,14.683308 31.857913,13.575114 31.615234,12.490234 29.628671,12.363531 27.835255,11.260801 26.826172,9.5449219 25.836841,7.8016798 25.781395,5.6795451 26.681641,3.8886719 25.028116,2.4041604 23.084471,1.2793804 20.972656,0.58789062 19.87159,2.2643523 18.005659,3.280744 16,3.2949219 13.994341,3.280744 12.12841,2.2643523 11.027344,0.58789062 Z M 16,8 c 4.418278,4e-7 8,3.581722 8,8 0,4.418277 -3.581722,8 -8,8 -4.418278,0 -7.9999996,-3.581723 -8,-8 4e-7,-4.418278 3.581722,-7.9999996 8,-8 z"
     transform="scale(0.26458334)" />
  <circle
     style="fill:url(#linearGradient8252);fill-opacity:1;stroke-width:0.132291"
     id="path8010"
     cx="4.2333331"
     cy="4.2333331"
     r="1.5875" />
</svg>
