<?xml version="1.0" encoding="UTF-8" standalone="no"?>
<!-- Created with Inkscape (http://www.inkscape.org/) -->

<svg
   width="32"
   height="32"
   viewBox="0 0 8.4666665 8.466667"
   version="1.1"
   id="svg5"
   inkscape:version="1.2.1 (9c6d41e410, 2022-07-14)"
   sodipodi:docname="system-run.svg"
   xmlns:inkscape="http://www.inkscape.org/namespaces/inkscape"
   xmlns:sodipodi="http://sodipodi.sourceforge.net/DTD/sodipodi-0.dtd"
   xmlns:xlink="http://www.w3.org/1999/xlink"
   xmlns="http://www.w3.org/2000/svg"
   xmlns:svg="http://www.w3.org/2000/svg">
  <sodipodi:namedview
     id="namedview7"
     pagecolor="#ffffff"
     bordercolor="#666666"
     borderopacity="1.0"
     inkscape:pageshadow="2"
     inkscape:pageopacity="0.0"
     inkscape:pagecheckerboard="0"
     inkscape:document-units="px"
     showgrid="false"
     units="px"
     height="64px"
     inkscape:zoom="24.96875"
     inkscape:cx="12.235294"
     inkscape:cy="16.020025"
     inkscape:window-width="1920"
     inkscape:window-height="1007"
     inkscape:window-x="0"
     inkscape:window-y="0"
     inkscape:window-maximized="1"
     inkscape:current-layer="svg5"
     inkscape:showpageshadow="2"
     inkscape:deskcolor="#d1d1d1" />
  <defs
     id="defs2">
    <linearGradient
       inkscape:collect="always"
       xlink:href="#linearGradient239772"
       id="linearGradient7728"
       x1="3.2308109"
       y1="2.3813164"
       x2="3.1946909"
       y2="5.3985844"
       gradientUnits="userSpaceOnUse"
       gradientTransform="matrix(0.999988,0,0,0.999988,0.13205839,-0.26455469)" />
    <linearGradient
       inkscape:collect="always"
       id="linearGradient239772">
      <stop
         style="stop-color:#aeb7bc;stop-opacity:1;"
         offset="0"
         id="stop239768" />
      <stop
         style="stop-color:#959ea5;stop-opacity:1"
         offset="1"
         id="stop239770" />
    </linearGradient>
    <linearGradient
       inkscape:collect="always"
       xlink:href="#linearGradient252990"
       id="linearGradient7562"
       x1="5.1154499"
       y1="4.9610038"
       x2="5.1425061"
       y2="7.2102246"
       gradientUnits="userSpaceOnUse"
       gradientTransform="matrix(0.999988,0,0,0.999988,0.13205839,-0.26455469)" />
    <linearGradient
       inkscape:collect="always"
       id="linearGradient252990">
      <stop
         style="stop-color:#696f75;stop-opacity:1;"
         offset="0"
         id="stop252986" />
      <stop
         style="stop-color:#4d4e50;stop-opacity:1"
         offset="1"
         id="stop252988" />
    </linearGradient>
  </defs>
  <rect
     style="fill:#797774;fill-opacity:1;stroke:none;stroke-width:0.109727;stroke-linecap:round;stroke-linejoin:round"
     id="rect261617"
     width="7.9375"
     height="6.3499999"
     x="0.26458335"
     y="1.0583334"
     ry="0.5291667" />
  <path
     id="rect1043"
     style="fill:#fafafa;fill-opacity:1;stroke-width:0.79375;stroke-linecap:round;stroke-linejoin:round"
     d="M 0.79374994,1.8520834 H 7.6729166 c 0.1465792,0 0.2645834,0.1180042 0.2645834,0.2645833 v 4.7625 c 0,0.146579 -0.1180042,0.264583 -0.2645834,0.264583 H 0.79374994 c -0.14657912,0 -0.26458329,-0.118004 -0.26458329,-0.264583 v -4.7625 c 0,-0.1465791 0.11800417,-0.2645833 0.26458329,-0.2645833 z"
     sodipodi:nodetypes="sssssssss" />
  <path
     id="rect1066"
     style="fill:#c4c4c4;fill-opacity:1;stroke-width:0.396875;stroke-linecap:round;stroke-linejoin:round"
     d="M 6.3500001,1.3229167 V 1.5875 H 6.6145834 V 1.3229167 Z m 0.5291667,0 V 1.5875 H 7.1437501 V 1.3229167 Z m 0.5291666,0 V 1.5875 H 7.6729167 V 1.3229167 Z" />
  <path
     id="path6320"
     style="color:#000000;fill:url(#linearGradient7562);fill-opacity:1;stroke:none;stroke-width:0.666567;stroke-linecap:round;stroke-linejoin:round;-inkscape-stroke:none"
     d="M 5.2474469,4.6963897 C 5.1660938,4.6961071 5.0948697,4.7512485 5.0753664,4.8302301 L 5.0190396,5.1433857 4.7203542,5.0364165 c -0.077685,-0.022465 -0.1608285,0.01074 -0.2015356,0.080614 L 4.3426038,5.4224353 c -0.04092,0.070312 -0.028675,0.1596236 0.029975,0.2160049 L 4.6144205,5.8430763 4.3725779,6.0487458 c -0.058297,0.056044 -0.071165,0.1447803 -0.031005,0.2149714 l 0.1767314,0.3054044 c 0.04071,0.069875 0.123334,0.1030803 0.201019,0.080614 l 0.3002359,-0.1069687 0.05736,0.3126383 c 0.019385,0.07851 0.089663,0.1340413 0.17053,0.1343573 H 5.5998784 C 5.6807464,6.989446 5.7510216,6.9339155 5.7704089,6.8554057 l 0.05736,-0.3121218 0.2992024,0.1064517 c 0.077685,0.022465 0.1608286,-0.01074 0.2015361,-0.080614 L 6.5047228,6.2637172 c 0.040159,-0.070191 0.02781,-0.158927 -0.03049,-0.2149714 L 6.2323876,5.8430763 6.4742302,5.6384402 c 0.058648,-0.056381 0.070893,-0.1456927 0.02997,-0.2160049 L 6.3279854,5.117031 C 6.2872759,5.0471558 6.2041349,5.0139507 6.1264498,5.0364165 L 5.8272499,5.1433857 5.7704066,4.8302301 C 5.7510193,4.75172 5.6807437,4.6967056 5.5998761,4.6963897 Z M 5.4236617,5.4570579 A 0.39687026,0.39687026 0 0 1 5.820532,5.8539282 0.39687026,0.39687026 0 0 1 5.4236617,6.2507984 0.39687026,0.39687026 0 0 1 5.026791,5.8539282 0.39687026,0.39687026 0 0 1 5.4236617,5.4570579 Z" />
  <path
     id="path7172"
     style="color:#000000;fill:url(#linearGradient7728);fill-opacity:1;stroke-width:0.832985;stroke-linecap:round;stroke-linejoin:round;-inkscape-stroke:none"
     d="M 3.3628305,2.1167331 C 3.2588532,2.121273 3.1712242,2.1985781 3.1545768,2.3022493 L 3.077063,2.7678484 2.6357516,2.6024858 c -0.1006952,-0.038408 -0.214301,0.00154 -0.2687143,0.094567 L 2.1463817,3.0789368 C 2.0920277,3.1727088 2.1139707,3.2921802 2.1980567,3.36057 L 2.5618552,3.6597728 2.1965071,3.9610429 C 2.1138121,4.029335 2.0926542,4.1469741 2.1458648,4.2400924 l 0.2201389,0.3818841 c 0.053657,0.093569 0.1671311,0.1343185 0.2681975,0.096634 l 0.4423449,-0.1658793 0.07803,0.4666326 c 0.017898,0.1063687 0.110209,0.1837658 0.218072,0.1834493 h 0.4407951 c 0.107248,-4.77e-4 0.1987269,-0.077687 0.2165217,-0.1834493 l 0.07803,-0.4666328 0.4428622,0.1658793 c 0.1010665,0.037684 0.2145391,-0.00306 0.2681969,-0.096634 L 5.0397104,4.2400924 c 0.05321,-0.093118 0.031535,-0.2107577 -0.051159,-0.2790495 L 4.6237204,3.6597728 4.9875175,3.36057 C 5.0716035,3.29218 5.0935477,3.1727085 5.0391935,3.0789368 L 4.8185381,2.6970525 C 4.7641247,2.6040256 4.6505191,2.5640772 4.5498243,2.6024858 L 4.1074791,2.7678484 4.029965,2.3022493 C 4.0128797,2.1958407 3.9212133,2.1173432 3.8134433,2.1167331 H 3.3726488 c -0.00339,-5.8e-6 -0.00646,-1.465e-4 -0.00982,0 z M 3.5979552,3.1089087 A 0.52916035,0.52916035 0 0 1 4.1271153,3.638069 0.52916035,0.52916035 0 0 1 3.5979552,4.1672294 0.52916035,0.52916035 0 0 1 3.0687948,3.638069 0.52916035,0.52916035 0 0 1 3.5979552,3.1089087 Z" />
</svg>
