<?xml version="1.0" encoding="UTF-8" standalone="no"?>
<!-- Created with Inkscape (http://www.inkscape.org/) -->

<svg
   width="16"
   height="16"
   viewBox="0 0 4.2333333 4.2333335"
   version="1.1"
   id="svg5"
   inkscape:version="1.1.1 (3bf5ae0d25, 2021-09-20, custom)"
   sodipodi:docname="folder-text.svg"
   xmlns:inkscape="http://www.inkscape.org/namespaces/inkscape"
   xmlns:sodipodi="http://sodipodi.sourceforge.net/DTD/sodipodi-0.dtd"
   xmlns:xlink="http://www.w3.org/1999/xlink"
   xmlns="http://www.w3.org/2000/svg"
   xmlns:svg="http://www.w3.org/2000/svg">
  <sodipodi:namedview
     id="namedview7"
     pagecolor="#ffffff"
     bordercolor="#666666"
     borderopacity="1.0"
     inkscape:pageshadow="2"
     inkscape:pageopacity="0.0"
     inkscape:pagecheckerboard="0"
     inkscape:document-units="px"
     showgrid="false"
     units="px"
     height="64px"
     inkscape:zoom="48.312498"
     inkscape:cx="7.989651"
     inkscape:cy="8.0000003"
     inkscape:window-width="1920"
     inkscape:window-height="996"
     inkscape:window-x="0"
     inkscape:window-y="0"
     inkscape:window-maximized="1"
     inkscape:current-layer="svg5"
     showguides="false" />
  <defs
     id="defs2">
    <linearGradient
       inkscape:collect="always"
       id="linearGradient11972">
      <stop
         style="stop-color:#b3c4d5;stop-opacity:1"
         offset="0"
         id="stop11968" />
      <stop
         style="stop-color:#6986a3;stop-opacity:1"
         offset="1"
         id="stop11970" />
    </linearGradient>
    <linearGradient
       inkscape:collect="always"
       xlink:href="#linearGradient11972"
       id="linearGradient1025"
       x1="1.0583334"
       y1="0.5291667"
       x2="4.7625003"
       y2="5.291667"
       gradientUnits="userSpaceOnUse"
       gradientTransform="matrix(0.74999997,0,0,0.79999997,-0.26458333,-0.42333335)" />
  </defs>
  <path
     id="rect849"
     style="opacity:1;fill:url(#linearGradient1025);stroke-width:0.614836;stroke-linecap:round;stroke-linejoin:round"
     d="M 0.79375005,0 H 3.4395833 C 3.5861625,0 3.7041667,0.11800417 3.7041667,0.26458335 V 3.9687502 c 0,0.1465792 -0.1180042,0.2645834 -0.2645834,0.2645834 H 0.79375005 c -0.14657918,0 -0.26458335,-0.1180042 -0.26458335,-0.2645834 V 0.26458335 C 0.5291667,0.11800417 0.64717087,0 0.79375005,0 Z" />
  <path
     id="rect2731"
     style="opacity:1;fill:#ffffff;fill-opacity:1;stroke-width:3;stroke-linecap:round;stroke-linejoin:round"
     d="M 3.9746094,4 C 3.709695,4.0133421 3.5,4.2316562 3.5,4.5 3.5,4.777 3.723,5 4,5 h 8 C 12.277,5 12.5,4.777 12.5,4.5 12.5,4.223 12.277,4 12,4 H 4 C 3.99134,4 3.983155,3.9995696 3.9746094,4 Z m 0,2 C 3.709695,6.0133421 3.5,6.2316562 3.5,6.5 3.5,6.777 3.723,7 4,7 h 6 C 10.277,7 10.5,6.777 10.5,6.5 10.5,6.223 10.277,6 10,6 H 4 C 3.9913437,6 3.983155,5.9995696 3.9746094,6 Z M 3.96875,8 C 3.7071532,8.013175 3.5,8.2291574 3.5,8.4941406 v 0.011719 C 3.5,8.7793905 3.7206095,9 3.9941406,9 H 12.005859 C 12.27939,9 12.5,8.7793905 12.5,8.5058594 V 8.4941406 C 12.5,8.2206095 12.27939,8 12.005859,8 H 3.9941406 C 3.9855928,8 3.9771886,7.999575 3.96875,8 Z m 0,2 C 3.7071535,10.013175 3.5,10.229158 3.5,10.494141 v 0.01172 C 3.5,10.77939 3.7206098,11 3.9941406,11 h 3.0117888 c 0.273531,0 0.494141,-0.22061 0.494141,-0.494141 v -0.01172 C 7.5000704,10.22061 7.2794604,10 7.0059294,10 H 3.9941406 c -0.00855,0 -0.016952,-4.25e-4 -0.025391,0 z"
     transform="scale(0.26458334)"
     sodipodi:nodetypes="ssssssssssssssssssssssssssssssssssss" />
</svg>
