<?xml version="1.0" encoding="UTF-8" standalone="no"?>
<!-- Created with Inkscape (http://www.inkscape.org/) -->

<svg
   width="16"
   height="16"
   viewBox="0 0 4.2333333 4.2333334"
   version="1.1"
   id="svg5"
   inkscape:version="1.1.2 (0a00cf5339, 2022-02-04, custom)"
   sodipodi:docname="network-workgroup.svg"
   xmlns:inkscape="http://www.inkscape.org/namespaces/inkscape"
   xmlns:sodipodi="http://sodipodi.sourceforge.net/DTD/sodipodi-0.dtd"
   xmlns:xlink="http://www.w3.org/1999/xlink"
   xmlns="http://www.w3.org/2000/svg"
   xmlns:svg="http://www.w3.org/2000/svg">
  <sodipodi:namedview
     id="namedview7"
     pagecolor="#ffffff"
     bordercolor="#666666"
     borderopacity="1.0"
     inkscape:pageshadow="2"
     inkscape:pageopacity="0.0"
     inkscape:pagecheckerboard="0"
     inkscape:document-units="px"
     showgrid="false"
     units="px"
     height="32px"
     inkscape:lockguides="false"
     inkscape:zoom="52.875"
     inkscape:cx="7.9905437"
     inkscape:cy="8"
     inkscape:window-width="1920"
     inkscape:window-height="1029"
     inkscape:window-x="0"
     inkscape:window-y="0"
     inkscape:window-maximized="1"
     inkscape:current-layer="svg5"
     showguides="false" />
  <defs
     id="defs2">
    <linearGradient
       inkscape:collect="always"
       id="linearGradient2986">
      <stop
         style="stop-color:#818990;stop-opacity:1;"
         offset="0"
         id="stop2982" />
      <stop
         style="stop-color:#9fa8b0;stop-opacity:1"
         offset="1"
         id="stop2984" />
    </linearGradient>
    <linearGradient
       inkscape:collect="always"
       xlink:href="#linearGradient1116"
       id="linearGradient1118"
       x1="3.175"
       y1="7.276042"
       x2="17.991667"
       y2="7.276042"
       gradientUnits="userSpaceOnUse"
       gradientTransform="matrix(0.25000002,0,0,0.24358975,-0.2645833,0.01356837)" />
    <linearGradient
       inkscape:collect="always"
       id="linearGradient1116">
      <stop
         style="stop-color:#555a5f;stop-opacity:1;"
         offset="0"
         id="stop1112" />
      <stop
         style="stop-color:#4b4f53;stop-opacity:1"
         offset="1"
         id="stop1114" />
    </linearGradient>
    <linearGradient
       inkscape:collect="always"
       xlink:href="#linearGradient2301"
       id="linearGradient3955"
       x1="5.0270834"
       y1="6.8791666"
       x2="8.2020836"
       y2="8.9958334"
       gradientUnits="userSpaceOnUse"
       gradientTransform="translate(-4.2333336,-6.0854166)" />
    <linearGradient
       inkscape:collect="always"
       id="linearGradient2301">
      <stop
         style="stop-color:#3fe3e7;stop-opacity:1;"
         offset="0"
         id="stop2297" />
      <stop
         style="stop-color:#066bbc;stop-opacity:1"
         offset="1"
         id="stop2299" />
    </linearGradient>
    <linearGradient
       inkscape:collect="always"
       xlink:href="#linearGradient2986"
       id="linearGradient1165"
       x1="2.6458335"
       y1="3.8364599"
       x2="1.0583335"
       y2="3.8364599"
       gradientUnits="userSpaceOnUse"
       gradientTransform="translate(0.52916659)" />
    <radialGradient
       id="radialGradient875"
       cx="20.107"
       cy="28.705"
       r="28"
       gradientTransform="matrix(0.04177152,0.02358833,-0.01858535,0.0329117,0.3397277,-0.51843122)"
       gradientUnits="userSpaceOnUse">
      <stop
         stop-color="#5ab5e2"
         offset="0"
         id="stop2" />
      <stop
         stop-color="#4189ac"
         offset=".45901"
         id="stop4" />
      <stop
         stop-color="#295e76"
         offset="1"
         id="stop6" />
    </radialGradient>
    <linearGradient
       id="linearGradient883"
       x1="4"
       x2="59.861"
       y1="31.360001"
       y2="31.360001"
       gradientTransform="matrix(0.0377958,0,0,0.0377958,-0.15115195,-0.15118664)"
       gradientUnits="userSpaceOnUse">
      <stop
         stop-color="#b0d6df"
         offset="0"
         id="stop9" />
      <stop
         stop-color="#e1f8fc"
         offset=".21709"
         id="stop11" />
      <stop
         stop-color="#96c3ce"
         offset="1"
         id="stop13" />
    </linearGradient>
  </defs>
  <rect
     style="fill:#bcc5cf;fill-opacity:1;stroke-width:0.21054;stroke-linecap:round;stroke-linejoin:round"
     id="rect2848"
     width="0.5291667"
     height="0.5291667"
     x="2.1166666"
     y="3.175" />
  <path
     id="rect846-3"
     style="fill:url(#linearGradient1118);stroke-width:0.326463;stroke-linecap:round;stroke-linejoin:round"
     d="M 0.72760417,0.52916667 H 4.0348959 c 0.1099345,0 0.1984375,0.088503 0.1984375,0.1984375 V 2.9765624 c 0,0.1099345 -0.088503,0.198438 -0.1984375,0.198438 H 0.72760417 c -0.1099343,0 -0.1984375,-0.088503 -0.1984375,-0.198438 V 0.72760417 c 0,-0.1099344 0.088503,-0.1984375 0.1984375,-0.1984375 z"
     sodipodi:nodetypes="sssssssss" />
  <rect
     style="fill:url(#linearGradient1165);fill-opacity:1;stroke-width:0.433027;stroke-linecap:round;stroke-linejoin:round"
     id="rect1839"
     width="1.5875"
     height="0.26458335"
     x="1.5875"
     y="3.7041681" />
  <rect
     style="fill:url(#linearGradient3955);fill-opacity:1;stroke-width:0.79375;stroke-linecap:round;stroke-linejoin:round"
     id="rect3867"
     width="3.175"
     height="2.1166668"
     x="0.79375005"
     y="0.79374999" />
  <rect
     x="4.5159904e-05"
     y="0"
     width="2.1166215"
     height="2.1166215"
     rx="1.0583107"
     ry="1.0583107"
     fill="url(#radialGradient875)"
     id="rect30"
     style="fill:url(#radialGradient875);stroke-width:0.037796" />
  <path
     d="m 1.0638239,0.05291563 c -0.08162,0.005788 -0.16146647,0.0207716 -0.23933337,0.0460117 -0.02778,0.001084 -0.088154,0.0368648 -0.039443,0.0536563 0.022669,0.0242172 0.076788,0.031924 0.070215,0.071496 0.00874,0.0347831 -0.080848,0.0332049 -0.051028,0.0647086 0.021144,0.0278258 0.042287,0.0556531 0.063431,0.0834797 0.039041,-0.01254 0.051924,-0.052524 0.073584,-0.0832997 0.060292,-0.0265944 0.14562347,-0.0346272 0.18546887,-0.0858043 0.012486,-0.0362012 0.024971,-0.0723991 0.037457,-0.10860027 -0.033451,-0.0138828 -0.066903,-0.0277656 -0.1003525,-0.0416517 z m -0.29020997,0.0093 c -0.037397,-0.004034 -0.061319,0.0189484 -0.089233,0.034016 -0.0343604,0.004208 -0.0731822,0.0169972 -0.0948352,0.0446326 0.0385436,0.0174916 0.0628178,-0.001144 0.0960875,-0.01436 0.03089,-0.0158256 0.1359542,-0.0224284 0.087981,-0.0642923 z M 0.5322909,0.17321478 c -0.0192262,0.0293476 0.0135049,0.0718243 -0.0304764,0.087226 -0.0217098,0.0274828 -0.0406818,0.0725931 0.0135809,0.0562246 0.0132742,-0.0407237 0.05451,-0.097848 0.10143901,-0.0739972 0.0472677,0.0127 0.0910147,0.0921294 0.12960782,0.029216 -1.56e-5,-0.0163628 -0.060031,-0.0259344 -0.05869,-0.0659646 -0.0267058,-0.0114572 -0.0837935,0.009363 -0.0818003,-0.0322736 -0.0385822,-0.0171316 -0.0496948,0.0682329 -0.0633681,0.02052 -0.003431,-0.006983 -0.006862,-0.0139656 -0.0102929,-0.0209512 z m 1.0473395,0.0369996 c -0.045666,0.009132 -0.090771,0.0195628 -0.1268103,0.0509505 0.010461,0.0418246 -0.043496,0.0488623 -0.067495,0.072078 -0.017413,0.009826 3.171e-4,0.0857268 0.015572,0.0739443 0.032439,-0.0427982 0.049219,-0.00588 0.079373,0.0152542 0.027141,0.0252084 0.044375,-0.0468126 0.029959,-0.0671146 -0.00846,-0.0327204 0.032692,-0.0569263 0.047501,-0.0837228 0.045274,-0.0290416 0.00702,0.0370516 0.00557,0.0601263 -0.022853,0.0681903 0.1013685,0.002058 0.019486,0.0530143 -0.021964,0.0219342 -0.030006,0.0544288 -0.063756,0.0706385 -0.018223,0.0222427 -0.087773,0.0118173 -0.078407,-0.02288 -0.025398,-0.0398067 -0.019129,0.0479097 -0.027758,0.0474897 -0.042092,-0.0125427 -0.054619,0.0344404 -0.081017,0.0569194 -0.020202,0.0232084 -0.091519,0.008808 -0.038275,0.0447597 0.038833,0.0448089 -0.00774,0.0365222 -0.039863,0.0484563 -0.045398,0.007817 -0.03781,0.047356 -0.036635,0.0830563 6.977e-4,0.0196742 0.044269,0.0488623 0.066335,0.0351404 0.044075,-0.00472 0.032954,-0.0588103 0.065517,-0.0753057 0.027056,-0.02316 0.046043,-0.0445197 0.086669,-0.0450734 0.018756,0.0179 0.056666,0.0448089 0.072039,0.0594417 -0.042428,0.0462269 0.019487,0.0424596 0.02541,3.4289e-4 0.020928,-0.0231916 -0.068935,-0.0777649 -0.00967,-0.0537869 0.039224,0.01294 0.030204,0.0530109 0.047656,0.0800612 0.031021,0.0524394 0.034343,0.0133084 0.037231,-0.0272573 0.051539,-0.0161911 0.065509,0.0897488 0.1349764,0.0649032 0.052062,0.01368 0.027391,0.0473451 -0.00548,0.0690828 -0.030021,0.0218973 -0.074787,0.006888 -0.107736,-0.005 -0.032596,-0.0167344 -0.07188,-0.00714 -0.089039,0.0261428 -0.038092,-0.0328744 -0.065058,-0.0850987 -0.1203969,-0.0879913 -0.052397,-0.002714 -0.105295,0.0112171 -0.155861,0.0254628 -0.056027,0.0657529 -0.1166435,0.12979115 -0.1427485,0.21383173 -0.027098,0.0333004 0.030945,0.0532505 -0.013175,0.083557 -0.030716,0.028679 0.010461,0.064102 0.016818,0.09626 0.033055,0.0392 0.083733,0.1681409 0.1347829,0.1182664 0.028729,-0.045391 0.047779,0.029733 0.08156,-0.017412 0.028434,-0.025954 0.051462,0.026077 0.091336,0.00757 0.035457,0.017674 0.03854,0.052319 0.019804,0.085473 -0.012032,0.03366 0.052125,0.047501 0.033871,0.086796 -0.00861,0.038427 0.00825,0.071048 0.027341,0.1031605 -0.042431,0.04429 -0.037316,0.1098984 -0.026724,0.1653964 0.02076,0.076085 0.050492,0.1523896 0.047522,0.2325036 0.037178,0.00975 0.064603,-0.014871 0.095347,-0.0278 0.05868,0.0083 0.090603,-0.054312 0.1270401,-0.090224 -0.027373,-0.036797 0.022487,-0.052676 0.043098,-0.076481 -0.030829,-0.026666 -0.051257,-0.052555 -0.00353,-0.073351 0.022017,-0.022363 0.063262,-0.035004 0.070494,-0.066197 -0.01896,-0.0565 -0.00816,-0.1165306 -0.010951,-0.1749458 0.023376,-0.047113 0.048195,-0.093223 0.087022,-0.1296008 0.015484,-0.051088 0.0527,-0.097915 0.049091,-0.1527529 -0.0905,0.027074 -0.063174,-0.0115 -0.013021,-0.048174 0.034804,-0.025526 0.084291,-0.049335 0.094874,-0.092856 0.0076,-0.0429534 -0.025972,-0.10964451 -0.055177,-0.0465374 -0.014186,-0.0201116 -0.064162,-0.0387624 -0.06347,-0.070332 -0.010702,-0.0636643 0.017216,-0.0254258 0.042036,0.00464 0.057731,-0.0427947 0.133072,0.11811108 0.1087061,0.003298 C 2.0736652,0.66496036 1.9476718,0.43021295 1.7589433,0.26529295 c -0.017258,0.0183772 -0.046058,0.0868943 -0.066956,0.0473452 -0.029586,-0.0313856 -0.052806,-0.0597206 0.00746,-0.0480686 0.059061,-0.0160288 2.267e-4,-0.0253484 -0.030733,-0.0290032 -0.031049,-0.003624 -0.05984,-0.0149972 -0.089082,-0.02536 z m -1.15599269,0.001542 c -0.0390729,0.0150494 0.0194578,0.0724315 -0.0505944,0.0540558 -0.0768016,0.0348012 -0.12796379,0.11925737 -0.181345,0.18502426 C 0.06718104,0.62680554 -5.1560287e-4,0.841847 2.9571277e-6,1.0573898 0.02043416,1.0995596 0.07075456,1.1138506 0.1084022,1.1371301 c 0.0382616,0.013088 0.0864464,0.011112 0.10548892,0.053381 0.0212978,0.022303 0.0498747,0.05221 0.0803011,0.05463 0.0467561,-0.014983 0.0533494,0.027411 0.0297609,0.058771 -0.002556,0.03435 -0.0407871,0.062056 -0.0365258,0.092267 0.008518,0.033851 -0.0425862,0.071136 -0.00816,0.1021057 0.0362187,0.064751 0.0749813,0.1276323 0.12396339,0.1835569 0.0304662,0.026692 0.0268538,0.063442 0.023376,0.1001516 -0.0120902,0.038798 0.02458,0.061241 0.0442622,0.089382 -0.0479628,0.087938 0.0819484,0.1055134 0.13632084,0.1439654 0.0273356,-0.024997 0.0295084,-0.065457 0.0748579,-0.066585 0.0275,-0.019266 0.033371,-0.062758 0.052259,-0.091674 -6.04e-4,-0.030715 -0.020274,-0.059417 0.011658,-0.09287 0.024061,-0.020308 0.073711,-0.00677 0.082668,-0.049162 0.032684,-0.033666 0.00624,-0.080326 0.00624,-0.1211728 0.025388,-0.034778 0.069189,-0.061474 0.064328,-0.1095283 0.0055,-0.071672 -0.1235402,-0.068451 -0.1690087,-0.1119057 -0.055889,-0.0016 -0.044587,-0.077761 -0.0880938,-0.087878 -0.0431932,0.00217 -0.0588985,-0.03167 -0.0742088,-0.066028 -0.02379,-0.016226 -0.0685644,0.016749 -0.0934595,-0.00359 -0.0281968,-0.014854 -0.0534905,-0.070265 -0.0852293,-0.035637 -0.0417715,0.030287 -0.0828516,0.061054 -0.12247824,0.010346 -0.0256988,-0.023157 0.00659,-0.088894 -0.029796,-0.084753 -0.0776765,0.028097 0.0246184,-0.11282627 -0.0480967,-0.09413 -0.017222,0.026994 -0.0502556,0.068646 -0.0823754,0.036702 -0.032256,-0.015177 -0.0163444,-0.0645251 -0.014906,-0.0940803 0.001396,-0.0345693 0.045144,-0.0518043 0.0702859,-0.0675732 0.0487635,0.0218084 0.0387552,-0.0431827 0.0795109,-0.0214573 0.0395348,-0.00842 0.0573851,0.0550004 0.0734362,0.0573641 0.009433,-0.0312436 -0.007596,-0.0769074 0.0213992,-0.0974917 0.0338792,-0.0285172 0.0785937,-0.0487985 0.0869543,-0.096712 6.96e-4,-0.0511834 0.0628037,-0.008048 0.0782233,-0.042904 0.0142156,-0.0399371 0.0556777,-0.0374427 0.0907008,-0.0449779 0.0191568,-0.0177744 0.067305,-0.0725226 0.007823,-0.0564715 -0.0216652,-0.002928 -0.10888257,0.00868 -0.0496595,-0.0121884 0.0291728,-0.0220828 0.0645323,-0.0190228 0.09728,-0.02336 0.0257904,-0.0218345 0.070875,-0.0291493 0.0728575,-0.068903 -0.021406,-0.0291126 -0.0667477,-0.0235715 -0.0475,-0.0653263 -0.00186,-0.0546194 -0.0499663,-0.0195544 -0.0657705,-0.0237088 0.0256668,-0.035718 -0.0333748,-0.0582071 -0.0531907,-0.0587079 -0.013468,0.03366 -0.0513316,0.0627011 -0.0379688,0.10144257 -0.0394784,0.006412 -0.0579743,0.034986 -0.0698379,0.0705611 -0.0118364,0.004123 -0.007988,-0.0697711 -0.0532895,-0.0629625 -0.0319988,-7.72e-4 -0.0715559,-0.04852 -0.0378664,-0.0673226 0.0461882,-0.0292236 0.10361564,-0.0520972 0.13282151,-0.0987757 0.0167956,-0.0418069 -0.0141784,-0.0674674 -0.0554238,-0.0615303 l -0.005751,-4e-4 z m 0.77711749,0.0481357 c -0.025492,0.0198315 -0.076953,0.006134 -0.087819,0.0252542 -0.00457,0.0385649 0.055311,0.0379618 0.079225,0.0166715 0.039087,-0.0144515 0.037344,-0.0118142 0.00859,-0.0419267 z m -0.56626675,0.0197658 c -0.0541749,0.01594 -0.009903,0.0514231 0.0254618,0.0509505 0.0421947,-0.003404 0.002938,-0.0506471 -0.0254618,-0.0509505 z m 0.64602815,0.106452 c -0.00388,0.0345093 0.029274,0.0560585 0.015583,0.0936534 -0.021558,0.0473594 0.00898,0.0615797 0.045821,0.0324698 0.049204,-0.0301062 -0.036872,-0.0960565 -0.04834,-0.1261231 h -0.013066 z m -0.016226,0.0554967 c -0.044217,-0.0108689 -0.030228,0.08167 1.546e-4,0.0498111 0.032718,-0.005712 0.0013,-0.0309218 -1.546e-4,-0.0498111 z m -0.56429147,0.0834054 c 0.00649,0.0350938 0.00883,0.0907291 0.034518,0.0309689 -3.53e-5,-0.0116142 -0.025384,-0.0207 -0.034518,-0.0309689 z M 1.7677288,0.88582541 c 0.05197,0.0453134 0.073023,0.11093937 0.1023174,0.17115029 0.043588,0.022886 0.017786,0.057886 0.023857,0.087296 0.06069,0.053136 -0.06146,0.024836 -0.046636,-0.033134 -0.0099,-0.067329 -0.053148,-0.11227256 -0.088468,-0.16096541 -0.00278,-0.0257743 -0.030426,-0.0551732 0.00893,-0.0643451 z"
     fill="url(#linearGradient883)"
     id="path32"
     style="fill:url(#linearGradient883);stroke-width:0.037796" />
</svg>
