<?xml version="1.0" encoding="UTF-8" standalone="no"?>
<!-- Created with Inkscape (http://www.inkscape.org/) -->

<svg
   width="32"
   height="32"
   viewBox="0 0 8.4666665 8.466667"
   version="1.1"
   id="svg884"
   inkscape:version="1.1.1 (3bf5ae0d25, 2021-09-20, custom)"
   sodipodi:docname="android-package-archive.svg"
   xmlns:inkscape="http://www.inkscape.org/namespaces/inkscape"
   xmlns:sodipodi="http://sodipodi.sourceforge.net/DTD/sodipodi-0.dtd"
   xmlns:xlink="http://www.w3.org/1999/xlink"
   xmlns="http://www.w3.org/2000/svg"
   xmlns:svg="http://www.w3.org/2000/svg">
  <sodipodi:namedview
     id="namedview886"
     pagecolor="#ffffff"
     bordercolor="#666666"
     borderopacity="1.0"
     inkscape:pageshadow="2"
     inkscape:pageopacity="0.0"
     inkscape:pagecheckerboard="0"
     inkscape:document-units="px"
     showgrid="false"
     units="px"
     inkscape:zoom="12.375"
     inkscape:cx="0.56565657"
     inkscape:cy="15.151515"
     inkscape:window-width="1920"
     inkscape:window-height="996"
     inkscape:window-x="0"
     inkscape:window-y="0"
     inkscape:window-maximized="1"
     inkscape:current-layer="svg884" />
  <defs
     id="defs881">
    <linearGradient
       inkscape:collect="always"
       xlink:href="#linearGradient56461"
       id="linearGradient56463"
       x1="-252.87521"
       y1="78.478691"
       x2="-238.4166"
       y2="92.637772"
       gradientUnits="userSpaceOnUse"
       gradientTransform="matrix(0.28364051,0,0,0.42044577,73.180855,-30.747076)" />
    <linearGradient
       inkscape:collect="always"
       xlink:href="#linearGradient70845"
       id="linearGradient1579"
       x1="10.537197"
       y1="7.5774555"
       x2="13.497259"
       y2="16.186811"
       gradientUnits="userSpaceOnUse"
       gradientTransform="matrix(0.40222981,0,0,0.46098096,1.3178751,-0.18577096)" />
    <linearGradient
       inkscape:collect="always"
       xlink:href="#linearGradient2299"
       id="linearGradient2237"
       x1="2.9104168"
       y1="4.7624998"
       x2="5.2576041"
       y2="5.6950111"
       gradientUnits="userSpaceOnUse"
       gradientTransform="matrix(0.5,0,0,0.5,-3.8125e-8,-0.13229171)" />
    <linearGradient
       inkscape:collect="always"
       xlink:href="#linearGradient2299"
       id="linearGradient2944"
       x1="13.493751"
       y1="6.0854168"
       x2="11.929147"
       y2="10.9655"
       gradientUnits="userSpaceOnUse"
       gradientTransform="matrix(0.5,0,0,0.5,-2.38125e-7,-0.66145843)" />
    <linearGradient
       inkscape:collect="always"
       xlink:href="#linearGradient1951"
       id="linearGradient4221"
       x1="3.9687502"
       y1="2.9104166"
       x2="3.4395833"
       y2="5.8208332"
       gradientUnits="userSpaceOnUse"
       gradientTransform="matrix(0.5,0,0,0.5,-0.26458336,-0.66145843)" />
    <linearGradient
       inkscape:collect="always"
       xlink:href="#linearGradient1951"
       id="linearGradient4750"
       x1="16.139584"
       y1="5.2916665"
       x2="11.377084"
       y2="7.4083333"
       gradientUnits="userSpaceOnUse"
       gradientTransform="matrix(0.5,0,0,0.5,-0.13229185,-0.39687511)" />
    <linearGradient
       inkscape:collect="always"
       xlink:href="#linearGradient1951"
       id="linearGradient4939"
       x1="7.1437502"
       y1="2.1166668"
       x2="14.022917"
       y2="6.0854168"
       gradientUnits="userSpaceOnUse"
       gradientTransform="matrix(0.5,0,0,0.5,-0.2645833,-0.66145843)" />
    <linearGradient
       inkscape:collect="always"
       id="linearGradient1951">
      <stop
         style="stop-color:#c3f57d;stop-opacity:1"
         offset="0"
         id="stop1947" />
      <stop
         style="stop-color:#9de785;stop-opacity:1"
         offset="1"
         id="stop1949" />
    </linearGradient>
    <linearGradient
       inkscape:collect="always"
       id="linearGradient2299">
      <stop
         style="stop-color:#77b437;stop-opacity:1"
         offset="0"
         id="stop2295" />
      <stop
         style="stop-color:#467633;stop-opacity:1"
         offset="1"
         id="stop2297" />
    </linearGradient>
    <linearGradient
       inkscape:collect="always"
       id="linearGradient56461">
      <stop
         style="stop-color:#86d893;stop-opacity:1"
         offset="0"
         id="stop56457-9" />
      <stop
         style="stop-color:#8acf09;stop-opacity:1"
         offset="1"
         id="stop56459-1" />
    </linearGradient>
    <linearGradient
       inkscape:collect="always"
       id="linearGradient70845">
      <stop
         style="stop-color:#74ba0f;stop-opacity:1"
         offset="0"
         id="stop70841-7" />
      <stop
         style="stop-color:#75b236;stop-opacity:1"
         offset="1"
         id="stop70843-0" />
    </linearGradient>
  </defs>
  <path
     id="rect3961"
     style="fill:url(#linearGradient4221);fill-opacity:1.0;stroke-width:0.132291"
     d="M 0.52916667,1.7197917 1.7197918,0.7937499 2.6458331,1.3229166 2.3165695,2.7180385 1.4552084,2.2489583 Z"
     sodipodi:nodetypes="cccccc" />
  <path
     id="rect2034"
     style="fill:url(#linearGradient2237);fill-opacity:1.0;stroke-width:0.132291"
     d="M 1.4552084,2.2489583 2.6458331,1.3229166 4.7918727,6.49183 1.4552079,6.7468755 Z"
     sodipodi:nodetypes="ccccc" />
  <path
     id="rect2627"
     style="fill:url(#linearGradient2944);fill-opacity:1.0;stroke-width:0.132291"
     d="m 2.6458331,1.3229166 3.6404424,-0.065714 0.4605996,1.1240468 5e-7,4.2333346 -4.1010426,-0.793751 z"
     sodipodi:nodetypes="cccccc" />
  <path
     id="rect45418"
     style="fill:url(#linearGradient56463);stroke-width:0.0913695;fill-opacity:1.0"
     d="M 1.4552084,2.2489583 5.5562501,3.3072916 6.0854171,3.175 5.5562501,8.202083 1.4552084,7.14375 Z"
     sodipodi:nodetypes="cccccc" />
  <path
     id="rect1571"
     style="fill:url(#linearGradient1579);stroke-width:0.113931;fill-opacity:1.0"
     d="M 5.5562501,3.3072916 6.7468751,2.3812499 V 7.276041 l -1.190625,0.926042 z"
     sodipodi:nodetypes="ccccc" />
  <path
     id="rect4424"
     style="fill:url(#linearGradient4750);fill-opacity:1.0;stroke-width:0.132291"
     d="M 6.7468751,2.3812499 7.9375001,2.2489582 6.8791666,3.1749999 5.5562501,3.3072916 Z"
     sodipodi:nodetypes="ccccc" />
  <path
     id="rect4774"
     style="fill:url(#linearGradient4939);fill-opacity:1.0;stroke-width:0.118974"
     d="M 3.3072919,0.52916661 7.4083336,1.5875 6.7468751,2.3812499 2.6458331,1.3229166 Z"
     sodipodi:nodetypes="ccccc" />
  <path
     id="rect5659"
     style="fill:#6da736;fill-opacity:1;stroke-width:0.132291"
     d="m 3.3072923,0.26458334 4.1010418,1.05833306 -5e-7,0.2645835 -4.1010417,-1.05833329 z"
     sodipodi:nodetypes="ccccc" />
  <path
     id="path870"
     style="opacity:0.6;fill:#ffffff;stroke-width:0.58796;stroke-linecap:round;stroke-linejoin:round"
     d="m 1.962412,5.450481 c -0.03382,-0.00906 -0.06762,-0.00528 -0.09353,0.013695 -0.05182,0.03794 -0.05182,0.121359 0,0.187069 L 2.156203,6.0158121 C 1.88813,6.1860846 1.719795,6.4913261 1.719795,6.8809876 l 2.6458335,0.708949 C 4.365629,7.2002751 4.197036,6.8047541 3.928963,6.4908221 l 0.28732,-0.2105925 c 0.05183,-0.037935 0.05183,-0.1213585 0,-0.187069 -0.05182,-0.065709 -0.135244,-0.088062 -0.187068,-0.050125 l -0.316001,0.23159 C 3.516547,6.1060171 3.287514,5.9781391 3.042712,5.9125446 2.79791,5.8469506 2.568618,5.8520196 2.371952,5.9152346 L 2.055951,5.514302 C 2.030041,5.481449 1.996231,5.459546 1.962421,5.450485 Z M 2.487186,6.5000826 A 0.1511974,0.11574995 48.81537 0 1 2.619478,6.6678216 0.1511974,0.11574995 48.81537 0 1 2.487186,6.7646656 0.1511974,0.11574995 48.81537 0 1 2.354895,6.5969266 0.1511974,0.11574995 48.81537 0 1 2.487186,6.5000826 Z M 3.54552,6.7836621 A 0.1511974,0.11574995 48.81537 0 1 3.677811,6.9514011 0.1511974,0.11574995 48.81537 0 1 3.54552,7.0482451 0.1511974,0.11574995 48.81537 0 1 3.413228,6.8805061 0.1511974,0.11574995 48.81537 0 1 3.54552,6.7836621 Z" />
</svg>
