<?xml version="1.0" encoding="UTF-8" standalone="no"?>
<!-- Created with Inkscape (http://www.inkscape.org/) -->

<svg
   width="32"
   height="32"
   viewBox="0 0 8.4666665 8.466667"
   version="1.1"
   id="svg5"
   sodipodi:docname="application-vnd.oasis.opendocument.spreadsheet-template.svg"
   inkscape:version="1.1.1 (3bf5ae0d25, 2021-09-20, custom)"
   xmlns:inkscape="http://www.inkscape.org/namespaces/inkscape"
   xmlns:sodipodi="http://sodipodi.sourceforge.net/DTD/sodipodi-0.dtd"
   xmlns="http://www.w3.org/2000/svg"
   xmlns:svg="http://www.w3.org/2000/svg">
  <sodipodi:namedview
     id="namedview7"
     pagecolor="#ffffff"
     bordercolor="#666666"
     borderopacity="1.0"
     inkscape:pageshadow="2"
     inkscape:pageopacity="0.0"
     inkscape:pagecheckerboard="0"
     inkscape:document-units="px"
     showgrid="false"
     units="px"
     height="64px"
     inkscape:zoom="24.15625"
     inkscape:cx="15.979301"
     inkscape:cy="16"
     inkscape:window-width="1920"
     inkscape:window-height="996"
     inkscape:window-x="0"
     inkscape:window-y="0"
     inkscape:window-maximized="1"
     inkscape:current-layer="svg5" />
  <defs
     id="defs2" />
  <path
     id="rect846"
     style="fill:#7d7d7b;stroke-width:0.264583;stroke-linecap:round;stroke-linejoin:round"
     d="m 1.3229169,0.26458344 5.8208328,0.1322915 1e-6,7.80520846 H 1.8520836 V 7.6729168 H 1.3229169 Z"
     sodipodi:nodetypes="ccccccc" />
  <path
     id="rect1454"
     style="fill:#fafafa;stroke-width:0.264583;stroke-linecap:round;stroke-linejoin:round"
     d="M 1.5875002,0.52916684 V 7.4083336 H 6.3500004 V 0.52916684 Z m 5.0270835,0 V 7.672917 H 6.3500004 2.1166669 V 7.9375003 H 6.879167 V 0.52916684 Z"
     sodipodi:nodetypes="ccccccccccccc" />
  <rect
     style="fill:#a0e68e;fill-opacity:1;stroke-width:0.368824;stroke-linecap:round;stroke-linejoin:round"
     id="rect6964"
     width="5.0270834"
     height="1.8520833"
     x="1.3229171"
     y="0.26458341" />
  <path
     id="rect13579"
     style="fill:#67c451;fill-opacity:1;stroke-width:0.373087;stroke-linecap:round;stroke-linejoin:round"
     d="m 6.35,0.26458334 v 0.2645833 l 0.7937497,0.1322917 V 0.39687494 Z M 1.3229167,1.9843751 V 2.2489585 H 6.35 V 1.9843751 Z"
     sodipodi:nodetypes="cccccccccc" />
  <path
     id="rect4459"
     style="opacity:1;fill:#c0c5cb;fill-opacity:1;stroke-width:0.79375;stroke-linecap:round;stroke-linejoin:round"
     d="M 5.0270835,2.38125 V 3.175 H 6.0854168 V 2.38125 Z m -1.5875001,0 V 3.175 H 4.4979168 V 2.38125 Z m -1.5875,0 V 3.175 H 2.9104167 V 2.38125 Z m 0,3.9687501 v 0.79375 h 1.0583333 v -0.79375 z"
     sodipodi:nodetypes="cccccccccccccccccccc" />
  <path
     id="rect4880"
     style="opacity:1;fill:#67c451;fill-opacity:1;stroke-width:0.79375;stroke-linecap:round;stroke-linejoin:round"
     d="m 1.8520834,3.7041667 v 0.79375 h 1.0583333 v -0.79375 z m 1.5875,0 v 0.79375 h 1.0583334 v -0.79375 z m 1.5875,0 v 0.79375 h 1.0583334 v -0.79375 z m -3.175,1.3229167 v 0.79375 h 1.0583333 v -0.79375 z m 1.5875,0 v 0.79375 h 1.0583334 v -0.79375 z m 1.5875,0 v 0.79375 h 1.0583334 v -0.79375 z m -1.5875,1.3229167 v 0.79375 h 1.0583334 v -0.79375 z m 1.5875,0 v 0.79375 h 1.0583334 v -0.79375 z"
     sodipodi:nodetypes="cccccccccccccccccccccccccccccccccccccccc" />
</svg>
