<?xml version="1.0" encoding="UTF-8" standalone="no"?>
<!-- Created with Inkscape (http://www.inkscape.org/) -->

<svg
   width="32"
   height="32"
   viewBox="0 0 8.4666665 8.466667"
   version="1.1"
   id="svg884"
   inkscape:version="1.1.1 (3bf5ae0d25, 2021-09-20, custom)"
   sodipodi:docname="application-x-deb.svg"
   xmlns:inkscape="http://www.inkscape.org/namespaces/inkscape"
   xmlns:sodipodi="http://sodipodi.sourceforge.net/DTD/sodipodi-0.dtd"
   xmlns:xlink="http://www.w3.org/1999/xlink"
   xmlns="http://www.w3.org/2000/svg"
   xmlns:svg="http://www.w3.org/2000/svg">
  <sodipodi:namedview
     id="namedview886"
     pagecolor="#ffffff"
     bordercolor="#666666"
     borderopacity="1.0"
     inkscape:pageshadow="2"
     inkscape:pageopacity="0.0"
     inkscape:pagecheckerboard="0"
     inkscape:document-units="px"
     showgrid="false"
     units="px"
     inkscape:zoom="8.7504464"
     inkscape:cx="-4.0569359"
     inkscape:cy="15.999184"
     inkscape:window-width="1920"
     inkscape:window-height="1006"
     inkscape:window-x="0"
     inkscape:window-y="0"
     inkscape:window-maximized="1"
     inkscape:current-layer="svg884" />
  <defs
     id="defs881">
    <linearGradient
       inkscape:collect="always"
       id="linearGradient40996">
      <stop
         style="stop-color:#f57da7;stop-opacity:1"
         offset="0"
         id="stop40992" />
      <stop
         style="stop-color:#f775a4;stop-opacity:1"
         offset="1"
         id="stop40994" />
    </linearGradient>
    <linearGradient
       inkscape:collect="always"
       id="linearGradient26892">
      <stop
         style="stop-color:#cb6085;stop-opacity:1"
         offset="0"
         id="stop26888" />
      <stop
         style="stop-color:#832949;stop-opacity:1"
         offset="1"
         id="stop26890" />
    </linearGradient>
    <linearGradient
       inkscape:collect="always"
       xlink:href="#linearGradient56461"
       id="linearGradient56463"
       x1="-252.87521"
       y1="78.478691"
       x2="-238.4166"
       y2="92.637772"
       gradientUnits="userSpaceOnUse"
       gradientTransform="matrix(0.28364051,0,0,0.42044577,73.180855,-30.747076)" />
    <linearGradient
       inkscape:collect="always"
       id="linearGradient56461">
      <stop
         style="stop-color:#fb95b9;stop-opacity:1"
         offset="0"
         id="stop56457" />
      <stop
         style="stop-color:#f63479;stop-opacity:1"
         offset="1"
         id="stop56459" />
    </linearGradient>
    <linearGradient
       inkscape:collect="always"
       id="linearGradient70845">
      <stop
         style="stop-color:#d04d79;stop-opacity:1"
         offset="0"
         id="stop70841" />
      <stop
         style="stop-color:#b63664;stop-opacity:1"
         offset="1"
         id="stop70843" />
    </linearGradient>
    <linearGradient
       inkscape:collect="always"
       xlink:href="#linearGradient70845"
       id="linearGradient1579"
       x1="10.537197"
       y1="7.5774555"
       x2="13.497259"
       y2="16.186811"
       gradientUnits="userSpaceOnUse"
       gradientTransform="matrix(0.40222981,0,0,0.46098096,1.3178751,-0.18577096)" />
    <linearGradient
       inkscape:collect="always"
       xlink:href="#linearGradient26892"
       id="linearGradient2237"
       x1="2.9104168"
       y1="4.7624998"
       x2="5.2576041"
       y2="5.6950111"
       gradientUnits="userSpaceOnUse"
       gradientTransform="matrix(0.5,0,0,0.5,-3.8125e-8,-0.13229171)" />
    <linearGradient
       inkscape:collect="always"
       xlink:href="#linearGradient26892"
       id="linearGradient2944"
       x1="13.493751"
       y1="6.0854168"
       x2="11.929147"
       y2="10.9655"
       gradientUnits="userSpaceOnUse"
       gradientTransform="matrix(0.5,0,0,0.5,-2.38125e-7,-0.66145843)" />
    <linearGradient
       inkscape:collect="always"
       xlink:href="#linearGradient40996"
       id="linearGradient4221"
       x1="3.9687502"
       y1="2.9104166"
       x2="3.4395833"
       y2="5.8208332"
       gradientUnits="userSpaceOnUse"
       gradientTransform="matrix(0.5,0,0,0.5,-0.26458336,-0.66145843)" />
    <linearGradient
       inkscape:collect="always"
       xlink:href="#linearGradient40996"
       id="linearGradient4750"
       x1="16.139584"
       y1="5.2916665"
       x2="11.377084"
       y2="7.4083333"
       gradientUnits="userSpaceOnUse"
       gradientTransform="matrix(0.5,0,0,0.5,-0.13229185,-0.39687511)" />
    <linearGradient
       inkscape:collect="always"
       xlink:href="#linearGradient40996"
       id="linearGradient4939"
       x1="7.1437502"
       y1="2.1166668"
       x2="14.022917"
       y2="6.0854168"
       gradientUnits="userSpaceOnUse"
       gradientTransform="matrix(0.5,0,0,0.5,-0.2645833,-0.66145843)" />
  </defs>
  <path
     id="rect3961"
     style="fill:url(#linearGradient4221);fill-opacity:1.0;stroke-width:0.132291"
     d="M 0.52916667,1.7197917 1.7197918,0.7937499 2.6458331,1.3229166 2.3165695,2.7180385 1.4552084,2.2489583 Z"
     sodipodi:nodetypes="cccccc" />
  <path
     id="rect2034"
     style="fill:url(#linearGradient2237);fill-opacity:1;stroke-width:0.132291"
     d="M 1.4552084,2.2489583 2.6458331,1.3229166 4.7918727,6.49183 1.4552079,6.7468755 Z"
     sodipodi:nodetypes="ccccc" />
  <path
     id="rect2627"
     style="fill:url(#linearGradient2944);fill-opacity:1;stroke-width:0.132291"
     d="m 2.6458331,1.3229166 3.6404424,-0.065714 0.4605996,1.1240468 5e-7,4.2333346 -4.1010426,-0.793751 z"
     sodipodi:nodetypes="cccccc" />
  <path
     id="rect45418"
     style="fill:url(#linearGradient56463);stroke-width:0.0913695"
     d="M 1.4552084,2.2489583 5.5562501,3.3072916 6.0854171,3.175 5.5562501,8.202083 1.4552084,7.14375 Z"
     sodipodi:nodetypes="cccccc" />
  <path
     id="rect1571"
     style="fill:url(#linearGradient1579);stroke-width:0.113931"
     d="M 5.5562501,3.3072916 6.7468751,2.3812499 V 7.276041 l -1.190625,0.926042 z"
     sodipodi:nodetypes="ccccc" />
  <path
     id="rect4424"
     style="fill:url(#linearGradient4750);fill-opacity:1;stroke-width:0.132291"
     d="M 6.7468751,2.3812499 7.9375001,2.2489582 6.8791666,3.1749999 5.5562501,3.3072916 Z"
     sodipodi:nodetypes="ccccc" />
  <path
     id="rect4774"
     style="fill:url(#linearGradient4939);fill-opacity:1.0;stroke-width:0.118974"
     d="M 3.3072919,0.52916661 7.4083336,1.5875 6.7468751,2.3812499 2.6458331,1.3229166 Z"
     sodipodi:nodetypes="ccccc" />
  <path
     id="rect5659"
     style="fill:#c65981;fill-opacity:1;stroke-width:0.132291"
     d="m 3.3072923,0.26458334 4.1010418,1.05833306 -5e-7,0.2645835 -4.1010417,-1.05833329 z"
     sodipodi:nodetypes="ccccc" />
  <path
     id="path2"
     style="opacity:0.6;fill:#ffffff;stroke-width:0.00926026"
     d="M 2.9125007,4.8380303 C 2.8768053,4.828025 2.841258,4.8168928 2.8061522,4.808646 l 0.015465,0.00775 c 0.025828,-6.74e-5 0.063484,0.017937 0.090885,0.02165 z M 2.7564867,4.7976479 C 2.6984151,4.7800551 2.6178582,4.78097 2.642722,4.7625 2.547943,4.77031 2.3796957,4.76841 2.2852964,4.82257 L 2.2823464,4.801652 C 2.2390884,4.837835 2.0937216,4.888094 2.082137,4.9511357 L 2.070563,4.9495957 C 2.048052,4.9795157 2.03349,5.0174127 2.015634,5.0501313 1.986184,5.0895793 1.972462,5.0537213 1.97666,5.0631133 1.918755,5.1594493 1.889992,5.2476419 1.8651389,5.319503 c 0.017703,0.032909 4.307e-4,0.159485 0.00713,0.2682502 -0.029085,0.5145556 0.3685532,1.1691695 0.8032036,1.4450671 0.063712,0.045962 0.1584569,0.079559 0.2390492,0.1112452 C 2.8194379,7.0822622 2.807144,7.0905917 2.7145408,7.0245811 2.6477286,6.9687981 2.6330866,6.9275467 2.5857652,6.8692638 l 0.018723,0.039897 C 2.5116908,6.8425369 2.5505054,6.8488566 2.4750065,6.7974649 l 0.020002,-0.018837 c -0.030087,-0.01323 -0.07967,-0.079682 -0.093236,-0.1114358 L 2.3688757,6.6565188 C 2.329335,6.5933326 2.3082672,6.550542 2.309805,6.5238586 L 2.299161,6.5389406 C 2.2871223,6.5138606 2.1536872,6.3030124 2.2229081,6.3659891 2.210042,6.3495435 2.1929574,6.3359469 2.1744206,6.2955291 l 0.014086,-0.010964 c -0.033312,-0.054969 -0.06131,-0.120131 -0.05918,-0.1376353 0.017768,0.030472 0.030097,0.039446 0.042301,0.048004 -0.08411,-0.239331 -0.08884,-0.043851 -0.1525593,-0.2679889 l 0.013476,0.00382 c -0.010339,-0.019337 -0.016598,-0.038513 -0.024903,-0.058134 l 0.00587,-0.05632 c -0.060571,-0.092072 -0.016936,-0.3038893 -0.0082,-0.4255957 0.00607,-0.048582 0.050547,-0.086444 0.084391,-0.1589029 l -0.020624,-0.011052 c 0.039397,-0.054399 0.2250301,-0.1941824 0.3109837,-0.1522299 0.041664,-0.037146 -0.00828,-0.00321 -0.016424,-0.019338 0.091473,-0.061375 0.1202398,-0.02311 0.1819684,-0.017673 0.066581,-0.01529 -0.057125,-0.00537 -0.025556,-0.02437 0.1150774,0.012488 0.081552,-0.037142 0.2316883,0.00257 0.015836,0.014782 -0.036752,5.348e-4 -0.049953,0.00744 0.095881,-0.012024 0.3034522,0.074195 0.4382543,0.1855356 0.1564523,0.1300622 0.3321861,0.4101276 0.3391218,0.6159798 l 0.0079,0.005 c -0.00398,0.079385 0.012358,0.1787929 -0.016004,0.254331 l 0.019462,-0.03352 1.86e-5,6.8e-6 c 0.00229,0.062611 -0.018052,0.085167 -0.036408,0.1315478 l -0.033006,0.00449 c -0.027032,0.042631 0.00261,0.034256 -0.016729,0.068953 -0.042187,0.022138 -0.128006,0.070737 -0.1554716,0.068029 -0.02003,-0.00773 0.013607,-0.018698 0.017998,-0.026204 -0.05646,0.018233 -0.045317,0.041707 -0.1316523,0.033853 l -0.0025,-0.00652 C 2.9197683,6.3412817 2.623945,6.0350618 2.6278436,5.7655803 c -0.00228,0.016367 -0.00648,0.010557 -0.011196,0.015785 C 2.6056692,5.6379838 2.6810331,5.5254103 2.8081108,5.514499 2.9324487,5.4982102 3.0781621,5.5765161 3.1672186,5.6919222 3.1183057,5.6100367 3.0209627,5.50669 2.9055791,5.4710456 2.7925289,5.4316994 2.686791,5.4650336 2.6514999,5.5301512 c -0.057905,0.015388 -0.06462,0.1170189 -0.089854,0.1268733 -0.033937,0.2371478 0.063856,0.3805346 0.229301,0.5675439 0.02604,0.027035 0.00733,0.022893 0.010862,0.037543 -0.054968,-0.045741 -0.1053161,-0.1029258 -0.1466993,-0.1655673 0.021962,0.040155 0.045657,0.080015 0.076289,0.1157208 C 2.6795776,6.1758357 2.6103316,6.04261 2.5901263,6.0308573 2.67946,6.2233341 2.9526011,6.4433268 3.0956261,6.435572 3.0294529,6.4139407 2.9453698,6.3822445 2.8710094,6.3276856 c -0.031214,-0.027421 -0.073698,-0.0762 -0.066124,-0.079665 0.1951976,0.143971 0.3968391,0.199682 0.5657096,0.1257595 0.042976,-0.017827 0.089914,-0.057661 0.1034718,-0.053515 -0.020426,0.023278 0.00349,0.01603 -0.012213,0.037426 0.04283,-0.053455 -0.018591,-0.034872 0.044257,-0.1031364 l 0.023204,0.040422 c -0.00863,-0.060442 0.071198,-0.1009915 0.063103,-0.1945771 0.018291,-0.021065 0.020416,0.037251 9.802e-4,0.093954 0.026966,-0.060932 0.00712,-0.079511 0.014057,-0.1353611 0.00751,0.022349 0.017289,0.046754 0.022339,0.069298 -0.017545,-0.074744 0.018024,-0.1085776 0.026824,-0.1451109 -0.00868,-0.00703 -0.027113,0.020355 -0.031329,-0.061937 5.991e-4,-0.034858 0.00977,-0.014818 0.013287,-0.022169 -0.00688,-0.00649 -0.024957,-0.039921 -0.035935,-0.095499 0.00796,-0.00922 0.021303,0.039173 0.032141,0.044906 C 3.627802,5.8049276 3.615804,5.7693046 3.615303,5.7376652 3.583626,5.6599332 3.604092,5.7423952 3.57841,5.6958052 3.544691,5.5783637 3.606389,5.6815882 3.610551,5.6353202 3.66167,5.7279632 3.690803,5.8533056 3.704167,5.9056933 3.6939581,5.8440275 3.6774674,5.7819029 3.6573231,5.7202595 3.6728539,5.7324431 3.6323286,5.5919283 3.6775095,5.6916506 3.6292732,5.4965521 3.4710139,5.2730597 3.325414,5.1422239 3.343232,5.1650082 3.3657273,5.193665 3.357646,5.1939264 3.2852402,5.1244597 3.297977,5.1257448 3.287597,5.1037534 3.2286178,5.0582923 3.2247303,5.0827741 3.1856616,5.0666872 3.0744933,4.9672582 3.0530813,4.9657363 2.950755,4.891535 l 0.00463,0.023441 C 2.881738,4.863638 2.869577,4.893038 2.789966,4.854842 2.785116,4.849252 2.815467,4.850432 2.840463,4.855892 2.769251,4.839368 2.77258,4.817157 2.7028974,4.808377 c 0.017175,-0.00579 0.035325,-0.00714 0.053646,-0.010731 z m 0.057588,0.034306 c 0.020382,0.011065 0.044054,0.022511 0.040727,0.026165 0.022289,0.00322 0.027353,5.457e-4 -0.040727,-0.026165 z m 0.040727,0.026165 -0.01442,-0.00229 0.013418,0.00369 z m -0.9399193,0.110384 c -2.02e-5,0.00125 8.44e-5,0.00227 2.733e-4,0.00321 -7.73e-5,-0.00106 -1.578e-4,-0.00213 -2.733e-4,-0.00321 z m 2.733e-4,0.00321 c 0.00386,0.054186 -0.04075,0.057842 0.010223,0.040761 0.026351,-0.049758 -0.0069,-0.02439 -0.010223,-0.040761 z m -0.042629,0.1563242 c -0.033066,0.030244 -0.01521,0.045751 -0.018701,0.073244 0.011966,-0.03238 0.014129,-0.053647 0.018701,-0.073244 z m 1.3613172,0.7508783 c -0.00473,-0.0016 -0.01079,0.0082 -0.013839,0.020214 0.0071,0.00629 0.01275,0.053129 0.019642,0.027929 0.00229,-0.033559 -0.00109,-0.046549 -0.00581,-0.048148 z m 0.4176713,0.2679367 c -6e-6,4.42e-5 -9.3e-6,9.26e-5 -1.86e-5,1.377e-4 l 5.62e-5,-1.24e-4 z m -1.86e-5,1.377e-4 -0.00555,0.011908 c -0.010293,0.069333 -0.032512,0.1335635 -0.066574,0.1882105 0.037574,-0.057019 0.061932,-0.1254806 0.072129,-0.200118 z M 3.2091188,6.0115684 c -0.00511,0.023479 -0.018848,0.04036 -0.031812,0.058725 -0.071405,0.018959 -0.00672,-0.029146 -3.87e-5,-0.053949 -0.076768,0.068698 -0.010543,0.054112 -0.013331,0.080082 0.022752,-0.023101 0.039329,-0.051457 0.045184,-0.084858 z m -0.1556874,0.09088 c -0.031056,-0.0037 -0.062647,-0.015033 -0.094503,-0.029546 -0.0382,-0.01336 0.00722,0.022312 0.057081,0.04814 0.013781,-0.00574 0.026291,-0.012082 0.037423,-0.018606 z M 2.5713701,5.9319449 c 0.00842,0.03404 0.02566,0.066924 0.041709,0.099843 l -0.011763,-0.038937 c -0.013287,-0.019533 -0.021145,-0.040081 -0.029951,-0.060908 z m -0.02939,0.041626 -0.00533,0.024846 c 0.025093,0.043238 0.045008,0.087443 0.077066,0.1257711 C 2.5906601,6.07076 2.5735281,6.045921 2.5420031,5.9735788 Z" />
</svg>
