<?xml version="1.0" encoding="UTF-8" standalone="no"?>
<!-- Created with Inkscape (http://www.inkscape.org/) -->

<svg
   width="32"
   height="32"
   viewBox="0 0 8.4666665 8.466667"
   version="1.1"
   id="svg5"
   sodipodi:docname="application-x-java.svg"
   inkscape:version="1.1.1 (3bf5ae0d25, 2021-09-20, custom)"
   xmlns:inkscape="http://www.inkscape.org/namespaces/inkscape"
   xmlns:sodipodi="http://sodipodi.sourceforge.net/DTD/sodipodi-0.dtd"
   xmlns="http://www.w3.org/2000/svg"
   xmlns:svg="http://www.w3.org/2000/svg">
  <sodipodi:namedview
     id="namedview7"
     pagecolor="#ffffff"
     bordercolor="#666666"
     borderopacity="1.0"
     inkscape:pageshadow="2"
     inkscape:pageopacity="0.0"
     inkscape:pagecheckerboard="0"
     inkscape:document-units="px"
     showgrid="false"
     units="px"
     height="64px"
     inkscape:zoom="24.15625"
     inkscape:cx="15.979301"
     inkscape:cy="16"
     inkscape:window-width="1920"
     inkscape:window-height="996"
     inkscape:window-x="0"
     inkscape:window-y="0"
     inkscape:window-maximized="1"
     inkscape:current-layer="svg5" />
  <defs
     id="defs2" />
  <path
     id="rect846"
     style="fill:#7d7d7b;stroke-width:0.264583;stroke-linecap:round;stroke-linejoin:round"
     d="M 1.3229167,0.2645833 H 5.5562501 L 7.14375,1.8520832 V 8.2020833 H 1.3229167 Z"
     sodipodi:nodetypes="cccccc" />
  <path
     id="rect1454"
     style="fill:#fafafa;stroke-width:0.264583;stroke-linecap:round;stroke-linejoin:round"
     d="M 1.5875,0.5291663 V 7.9374997 H 6.8791666 V 2.3151041 H 5.3578125 c -0.1814317,0 -0.2645831,-0.1297126 -0.2645831,-0.2645834 V 0.5291663 Z m 3.7703125,0 v 1.5213544 h 1.5213541 z"
     sodipodi:nodetypes="ccccsscccccc" />
  <path
     id="path17"
     d="m 5.4643174,4.9738339 c -0.051781,1.722e-4 -0.1067145,0.00933 -0.1631225,0.029149 -0.045225,0.01601 -0.068948,0.053252 -0.068948,0.053252 0,0 0.028465,-0.01164 0.092212,-0.024945 0.2606915,-0.054321 0.634253,0.348899 -0.173493,0.7685259 -0.00375,0.01 -0.015985,0.0213 -0.015975,0.0213 0.960617,-0.2525289 0.7510105,-0.8480988 0.329328,-0.8472853 z m -1.7640782,0.041201 c -0.099217,0.00195 -0.3443152,0.022235 -0.6303483,0.1606 -0.4419349,0.2136885 1.0930343,0.3110295 1.8876816,0.102022 0.082616,-0.056381 0.1967559,-0.105385 0.1967559,-0.105385 0,0 -0.3250104,0.058306 -0.6488466,0.085485 -0.3963852,0.033255 -0.8216434,0.03977 -1.0350717,0.01121 -0.5053395,-0.067559 0.276916,-0.2533725 0.276916,-0.2533725 0,0 -0.00469,-4.015e-4 -0.013733,-5.5e-4 -0.00791,-1.865e-4 -0.019179,-2.87e-4 -0.033354,5e-7 z M 3.5651445,5.5038419 C 2.8361257,5.7457943 3.9709518,6.0204893 4.9898046,5.7224604 4.8815502,5.6843004 4.8129484,5.6142724 4.8129483,5.6142724 4.31479,5.7101439 4.0268838,5.7071124 3.6624014,5.6694874 3.380622,5.6403674 3.5651445,5.5038419 3.5651445,5.5038419 Z M 3.6682874,5.9749918 C 3.0063615,6.1599449 4.0709998,6.5421114 4.913849,6.1809974 4.7758067,6.1273554 4.6767326,6.0655219 4.6767326,6.0655219 4.3008819,6.1365639 4.126604,6.1420284 3.7854441,6.1030799 3.5038761,6.0707859 3.6682874,5.9749919 3.6682874,5.9749918 Z m -0.4599385,0.312511 c -0.2973409,0.00933 -0.8781954,0.2764305 -0.3467056,0.3626815 1.7182737,0.27852 3.1321551,-0.1254415 2.6864781,-0.326525 0,0 0.121804,0.1003785 -0.1339735,0.177977 -0.4863672,0.1473175 -2.0248742,0.1917395 -2.4521646,0.00589 -0.1534894,-0.066854 0.1344591,-0.1595295 0.2250643,-0.179099 0.094473,-0.020435 0.1485482,-0.016535 0.1485482,-0.016535 -0.026644,-0.01876 -0.072049,-0.02605 -0.1269666,-0.024385 z m 2.6124845,0.255615 c 0,0 -0.054215,0.1388315 -0.640719,0.2491685 -0.661709,0.1245745 -1.4779862,0.110174 -1.9619558,0.03027 0,0 0.099289,0.082122 0.6087669,0.1149145 0.7751758,0.049555 1.9657039,-0.02752 1.9939079,-0.394353 z"
     style="fill:#5382a1;fill-opacity:1;stroke-width:0.143503"
     sodipodi:nodetypes="cccccccccccccccccccccccccccccccccccccccccsc" />
  <path
     d="M 4.6641201,2.6458334 C 4.8445333,3.3565738 4.027818,3.5712371 3.7330319,4.0138771 3.53229,4.3154644 3.8314664,4.6396315 4.2394968,5.0077475 4.0803829,4.6480602 3.5408605,4.3332839 4.2397878,3.7812451 5.1113344,3.0932849 4.6641201,2.6458334 4.6641201,2.6458334 Z m 0.5392573,0.8792363 c 1e-5,0 -1.4737795,0.3680864 -0.7699273,1.1791355 0.2077821,0.2391806 -0.054374,0.4543328 -0.054374,0.4543328 0,0 0.5271427,-0.2722705 0.2850441,-0.6132512 C 4.4379185,4.2274603 4.2645102,4.069526 5.2033774,3.5250697 Z"
     style="fill:#f89820;fill-opacity:1;stroke-width:0.0379685"
     id="path1051" />
</svg>
