<?xml version="1.0" encoding="UTF-8" standalone="no"?>
<!-- Created with Inkscape (http://www.inkscape.org/) -->

<svg
   width="32"
   height="32"
   viewBox="0 0 8.4666665 8.466667"
   version="1.1"
   id="svg5"
   inkscape:version="1.1.1 (3bf5ae0d25, 2021-09-20, custom)"
   sodipodi:docname="application-x-ms-dos-executable.svg"
   xmlns:inkscape="http://www.inkscape.org/namespaces/inkscape"
   xmlns:sodipodi="http://sodipodi.sourceforge.net/DTD/sodipodi-0.dtd"
   xmlns:xlink="http://www.w3.org/1999/xlink"
   xmlns="http://www.w3.org/2000/svg"
   xmlns:svg="http://www.w3.org/2000/svg">
  <sodipodi:namedview
     id="namedview7"
     pagecolor="#ffffff"
     bordercolor="#666666"
     borderopacity="1.0"
     inkscape:pageshadow="2"
     inkscape:pageopacity="0.0"
     inkscape:pagecheckerboard="0"
     inkscape:document-units="px"
     showgrid="false"
     units="px"
     inkscape:zoom="8"
     inkscape:cx="24.25"
     inkscape:cy="30.6875"
     inkscape:window-width="1920"
     inkscape:window-height="996"
     inkscape:window-x="0"
     inkscape:window-y="0"
     inkscape:window-maximized="1"
     inkscape:current-layer="svg5"
     showguides="true" />
  <defs
     id="defs2">
    <linearGradient
       inkscape:collect="always"
       id="linearGradient16450">
      <stop
         style="stop-color:#6fef7e;stop-opacity:0"
         offset="0"
         id="stop16446" />
      <stop
         style="stop-color:#6fef7e;stop-opacity:0"
         offset="0.44792882"
         id="stop17132" />
      <stop
         style="stop-color:#6fef7e;stop-opacity:1"
         offset="0.5"
         id="stop16680" />
      <stop
         style="stop-color:#6fef7e;stop-opacity:0"
         offset="0.55000001"
         id="stop16938" />
      <stop
         style="stop-color:#6fef7e;stop-opacity:0;"
         offset="1"
         id="stop16448" />
    </linearGradient>
    <linearGradient
       inkscape:collect="always"
       id="linearGradient11941">
      <stop
         style="stop-color:#f89af4;stop-opacity:0"
         offset="0"
         id="stop11937" />
      <stop
         style="stop-color:#f89af4;stop-opacity:0"
         offset="0.40000001"
         id="stop12523" />
      <stop
         style="stop-color:#f89af4;stop-opacity:1"
         offset="0.5"
         id="stop12201" />
      <stop
         style="stop-color:#f89af4;stop-opacity:0"
         offset="0.60000002"
         id="stop12781" />
      <stop
         style="stop-color:#f89af4;stop-opacity:0;"
         offset="1"
         id="stop11939" />
    </linearGradient>
    <linearGradient
       inkscape:collect="always"
       id="linearGradient7820">
      <stop
         style="stop-color:#858585;stop-opacity:1"
         offset="0"
         id="stop7816" />
      <stop
         style="stop-color:#ffffff;stop-opacity:1"
         offset="0.5"
         id="stop8592" />
      <stop
         style="stop-color:#868686;stop-opacity:1"
         offset="1"
         id="stop7818" />
    </linearGradient>
    <linearGradient
       inkscape:collect="always"
       id="linearGradient6804">
      <stop
         style="stop-color:#ffffff;stop-opacity:1;"
         offset="0"
         id="stop6800" />
      <stop
         style="stop-color:#ffffff;stop-opacity:0;"
         offset="1"
         id="stop6802" />
    </linearGradient>
    <linearGradient
       inkscape:collect="always"
       id="linearGradient2496">
      <stop
         style="stop-color:#ffffff;stop-opacity:0.5"
         offset="0"
         id="stop2492" />
      <stop
         style="stop-color:#ffffff;stop-opacity:0"
         offset="0.44999999"
         id="stop3080" />
      <stop
         style="stop-color:#ffffff;stop-opacity:1"
         offset="0.5"
         id="stop2756" />
      <stop
         style="stop-color:#ffffff;stop-opacity:0"
         offset="0.55000001"
         id="stop3014" />
      <stop
         style="stop-color:#ffffff;stop-opacity:0.2"
         offset="1"
         id="stop2494" />
    </linearGradient>
    <linearGradient
       inkscape:collect="always"
       id="linearGradient2986">
      <stop
         style="stop-color:#818990;stop-opacity:1;"
         offset="0"
         id="stop2982" />
      <stop
         style="stop-color:#9fa8b0;stop-opacity:1"
         offset="1"
         id="stop2984" />
    </linearGradient>
    <linearGradient
       inkscape:collect="always"
       id="linearGradient2301">
      <stop
         style="stop-color:#3fe3e7;stop-opacity:1;"
         offset="0"
         id="stop2297" />
      <stop
         style="stop-color:#066bbc;stop-opacity:1"
         offset="1"
         id="stop2299" />
    </linearGradient>
    <linearGradient
       inkscape:collect="always"
       id="linearGradient1116">
      <stop
         style="stop-color:#555a5f;stop-opacity:1;"
         offset="0"
         id="stop1112" />
      <stop
         style="stop-color:#4b4f53;stop-opacity:1"
         offset="1"
         id="stop1114" />
    </linearGradient>
    <linearGradient
       inkscape:collect="always"
       xlink:href="#linearGradient1116"
       id="linearGradient1118"
       x1="1.0583334"
       y1="7.276042"
       x2="15.875"
       y2="7.276042"
       gradientUnits="userSpaceOnUse"
       gradientTransform="matrix(0.49999996,0,0,0.48717944,1.1874999e-8,0.15942844)" />
    <linearGradient
       inkscape:collect="always"
       xlink:href="#linearGradient2301"
       id="linearGradient2303"
       x1="1.3229166"
       y1="2.6458333"
       x2="15.610417"
       y2="12.170833"
       gradientUnits="userSpaceOnUse"
       gradientTransform="scale(0.49999996)" />
    <linearGradient
       inkscape:collect="always"
       xlink:href="#linearGradient2986"
       id="linearGradient2988"
       x1="0.092813492"
       y1="10.202362"
       x2="0.092813492"
       y2="13.470933"
       gradientUnits="userSpaceOnUse"
       gradientTransform="matrix(0.31289461,0,0,0.32379084,4.7334589,2.5174014)" />
    <linearGradient
       inkscape:collect="always"
       xlink:href="#linearGradient162116"
       id="linearGradient162118"
       x1="96.408417"
       y1="238.0069"
       x2="127.77626"
       y2="238.0069"
       gradientUnits="userSpaceOnUse"
       gradientTransform="matrix(0.13495771,0,0,0.13021686,-12.746474,-24.642512)" />
    <linearGradient
       inkscape:collect="always"
       id="linearGradient162116">
      <stop
         style="stop-color:#e3edee;stop-opacity:1;"
         offset="0"
         id="stop162112" />
      <stop
         style="stop-color:#c9cdce;stop-opacity:1"
         offset="1"
         id="stop162114" />
    </linearGradient>
    <linearGradient
       inkscape:collect="always"
       xlink:href="#linearGradient219586"
       id="linearGradient219588"
       x1="112.09232"
       y1="238.0069"
       x2="112.17286"
       y2="254.33937"
       gradientUnits="userSpaceOnUse"
       gradientTransform="matrix(0.13495771,0,0,0.13021686,-12.746474,-24.642512)" />
    <linearGradient
       inkscape:collect="always"
       id="linearGradient219586">
      <stop
         style="stop-color:#b9bfbf;stop-opacity:1;"
         offset="0"
         id="stop219582" />
      <stop
         style="stop-color:#aaacab;stop-opacity:1"
         offset="1"
         id="stop219584" />
    </linearGradient>
    <linearGradient
       inkscape:collect="always"
       xlink:href="#linearGradient219586"
       id="linearGradient1701"
       gradientUnits="userSpaceOnUse"
       gradientTransform="matrix(0.13495771,0,0,0.13021686,-12.746474,-24.642512)"
       x1="112.09232"
       y1="238.0069"
       x2="112.17286"
       y2="254.33937" />
    <linearGradient
       inkscape:collect="always"
       xlink:href="#linearGradient2496"
       id="linearGradient2498"
       x1="16.424316"
       y1="54.63533"
       x2="32.331596"
       y2="38.452602"
       gradientUnits="userSpaceOnUse"
       gradientTransform="matrix(0.13229166,0,0,0.13229166,0.13229168,1.0583335)" />
    <linearGradient
       inkscape:collect="always"
       xlink:href="#linearGradient6804"
       id="linearGradient6808"
       x1="2.3812499"
       y1="8.4666672"
       x2="6.6145835"
       y2="12.700001"
       gradientUnits="userSpaceOnUse"
       gradientTransform="matrix(0.49999997,0,0,0.49999997,0.13229168,1.0583335)" />
    <linearGradient
       inkscape:collect="always"
       xlink:href="#linearGradient7820"
       id="linearGradient7822"
       x1="14.532227"
       y1="42.393677"
       x2="19.540161"
       y2="37.501221"
       gradientUnits="userSpaceOnUse"
       gradientTransform="matrix(0.13229166,0,0,0.13229166,0.13229168,1.0583335)" />
    <linearGradient
       inkscape:collect="always"
       xlink:href="#linearGradient7820"
       id="linearGradient10226"
       gradientUnits="userSpaceOnUse"
       x1="14.532227"
       y1="42.393677"
       x2="19.540161"
       y2="37.501221"
       gradientTransform="matrix(0.26458333,0,0,0.26458333,-2.1166667,-4.2333332)" />
    <linearGradient
       inkscape:collect="always"
       xlink:href="#linearGradient11941"
       id="linearGradient11943"
       x1="5.1081543"
       y1="42.191895"
       x2="7.4692383"
       y2="33.279785"
       gradientUnits="userSpaceOnUse"
       gradientTransform="matrix(0.13229166,0,0,0.13229166,0.13229168,1.0583335)" />
    <linearGradient
       inkscape:collect="always"
       xlink:href="#linearGradient16450"
       id="linearGradient16452"
       x1="17.605227"
       y1="29.40974"
       x2="27.150551"
       y2="39.243584"
       gradientUnits="userSpaceOnUse"
       gradientTransform="matrix(0.13229166,0,0,0.13229166,0.13229168,1.0583335)" />
  </defs>
  <path
     id="rect958"
     style="fill:#bcc5cf;stroke-width:0.66146;stroke-linecap:round;stroke-linejoin:round"
     d="m 2.7781249,6.7468749 h 2.9104162 l 0.396875,0.396875 H 2.3812498 Z"
     sodipodi:nodetypes="ccccc" />
  <rect
     style="fill:url(#linearGradient2988);fill-opacity:1;stroke-width:0.42108;stroke-linecap:round;stroke-linejoin:round"
     id="rect2848"
     width="1.0583333"
     height="1.0583333"
     x="3.7041662"
     y="5.8208327" />
  <path
     id="rect1418"
     style="fill:#b8c2cc;stroke-width:0.66146;stroke-linecap:round;stroke-linejoin:round"
     d="m 1.0583333,1.0583333 h 6.3499996 c 0.3153995,0 0.5291665,0.20969 0.5291665,0.5291666 V 3.3072914 H 0.52916667 V 1.5874999 c 0,-0.3467508 0.19154528,-0.5291666 0.52916663,-0.5291666 z"
     sodipodi:nodetypes="sssccss" />
  <path
     id="rect846"
     style="fill:url(#linearGradient1118);stroke-width:0.652925;stroke-linecap:round;stroke-linejoin:round"
     d="M 0.92604166,1.1906248 H 7.5406244 c 0.219869,0 0.396875,0.1770063 0.396875,0.396875 V 5.820833 c 0,0.2198685 -0.177006,0.3968749 -0.396875,0.3968749 H 0.92604166 c -0.21986876,0 -0.39687499,-0.1770064 -0.39687499,-0.3968749 V 1.5874998 c 0,-0.2198687 0.17700623,-0.396875 0.39687499,-0.396875 z" />
  <rect
     style="fill:#44484c;fill-opacity:1;stroke-width:0.66146;stroke-linecap:round;stroke-linejoin:round"
     id="rect1839"
     width="3.7041664"
     height="0.26458332"
     x="2.3812499"
     y="7.1437502" />
  <path
     id="rect2053"
     style="fill:url(#linearGradient2303);stroke-width:0.66146;stroke-linecap:round;stroke-linejoin:round"
     d="M 0.92604166,1.3229165 H 7.5406244 c 0.1465795,0 0.2645835,0.1180042 0.2645835,0.2645834 v 4.2333326 c 0,0.1465795 -0.118004,0.2645835 -0.2645835,0.2645835 H 0.92604166 c -0.1465792,0 -0.26458341,-0.118004 -0.26458341,-0.2645835 V 1.5874999 c 0,-0.1465792 0.11800421,-0.2645834 0.26458341,-0.2645834 z" />
  <g
     id="g900"
     transform="translate(0,-1.0583335)">
    <path
       id="path6272"
       style="opacity:0.4;fill:url(#linearGradient6808);fill-opacity:1;stroke-width:0.264583;stroke-linecap:round;stroke-linejoin:round"
       d="M 2.3812499,5.2916666 A 1.0583333,1.0583333 0 0 0 1.3229166,6.3499998 1.0583333,1.0583333 0 0 0 2.3812499,7.4083331 1.0583333,1.0583333 0 0 0 3.4395831,6.3499998 1.0583333,1.0583333 0 0 0 2.3812499,5.2916666 Z m 0,0.7937499 A 0.26458333,0.26458333 0 0 1 2.6458332,6.3499998 0.26458333,0.26458333 0 0 1 2.3812499,6.6145831 0.26458333,0.26458333 0 0 1 2.1166666,6.3499998 0.26458333,0.26458333 0 0 1 2.3812499,6.0854165 Z" />
    <path
       id="path9538"
       style="opacity:1;fill:#d0d0d0;fill-opacity:1;stroke-width:0.264583;stroke-linecap:round;stroke-linejoin:round"
       d="M 2.3812499,5.4239582 A 0.92604161,0.92604161 0 0 0 1.4552083,6.3499998 0.92604161,0.92604161 0 0 0 2.3812499,7.2760414 0.92604161,0.92604161 0 0 0 3.3072915,6.3499998 0.92604161,0.92604161 0 0 0 2.3812499,5.4239582 Z m 0,0.1984375 A 0.7276041,0.7276041 0 0 1 3.108854,6.3499998 0.7276041,0.7276041 0 0 1 2.3812499,7.077604 0.7276041,0.7276041 0 0 1 1.6536458,6.3499998 0.7276041,0.7276041 0 0 1 2.3812499,5.6223957 Z" />
    <path
       id="path151229"
       style="fill:url(#linearGradient162118);fill-opacity:1;stroke-width:0.175375;stroke-linecap:round;stroke-linejoin:round"
       d="M 2.3812499,4.2333333 A 2.1166667,2.1166667 0 0 0 0.26458334,6.35 2.1166667,2.1166667 0 0 0 2.3812499,8.4666663 2.1166667,2.1166667 0 0 0 4.4979164,6.35 2.1166667,2.1166667 0 0 0 2.3812499,4.2333333 Z m 0,1.3229166 A 0.79374993,0.79374993 0 0 1 3.1749998,6.35 0.79374993,0.79374993 0 0 1 2.3812499,7.14375 0.79374993,0.79374993 0 0 1 1.5874999,6.35 0.79374993,0.79374993 0 0 1 2.3812499,5.5562499 Z" />
    <path
       id="path151229-3"
       style="fill:url(#linearGradient219588);fill-opacity:1;stroke-width:0.175375;stroke-linecap:round;stroke-linejoin:round"
       d="M 3.1731911,6.399609 A 0.79374993,0.79374993 0 0 1 2.3812499,7.14375 0.79374993,0.79374993 0 0 1 1.8205606,6.910689 L 0.88573402,7.8455159 A 2.1166667,2.1166667 0 0 0 2.3812499,8.4666663 2.1166667,2.1166667 0 0 0 4.4930072,6.482033 Z" />
    <path
       id="path151229-3-3"
       style="fill:url(#linearGradient1701);fill-opacity:1;stroke-width:0.175375;stroke-linecap:round;stroke-linejoin:round"
       d="M 3.1731911,6.399609 A 0.79374993,0.79374993 0 0 1 2.3812499,7.14375 0.79374993,0.79374993 0 0 1 1.8205606,6.910689 L 0.88573402,7.8455159 A 2.1166667,2.1166667 0 0 0 2.3812499,8.4666663 2.1166667,2.1166667 0 0 0 4.4930073,6.482033 Z" />
    <path
       id="rect2336"
       style="opacity:0.5;fill:url(#linearGradient2498);fill-opacity:1;stroke-width:0.264583;stroke-linecap:round;stroke-linejoin:round"
       d="M 1.8683613,4.2981872 A 2.1166667,2.1166667 0 0 0 0.30230713,5.9601011 l 1.28700147,0.2576071 0.012661,0.00207 A 0.79374994,0.79374994 0 0 1 2.1895303,5.5828633 Z M 3.1605304,6.4802244 A 0.79374996,0.79374996 0 0 1 2.5729695,7.1171364 L 2.8941384,8.4018125 A 2.1166667,2.1166667 0 0 0 4.4601927,6.7398985 L 3.1731911,6.4822915 Z" />
    <path
       id="path7246"
       style="opacity:0.5;fill:url(#linearGradient7822);fill-opacity:1;stroke-width:0.330729;stroke-linecap:round;stroke-linejoin:round"
       d="M 2.3812499,6.0192707 A 0.33072913,0.33072913 0 0 0 2.0505207,6.3499998 0.33072913,0.33072913 0 0 0 2.3812499,6.680729 0.33072913,0.33072913 0 0 0 2.711979,6.3499998 0.33072913,0.33072913 0 0 0 2.3812499,6.0192707 Z m 0,0.066146 A 0.26458333,0.26458333 0 0 1 2.6458332,6.3499998 0.26458333,0.26458333 0 0 1 2.3812499,6.6145831 0.26458333,0.26458333 0 0 1 2.1166666,6.3499998 0.26458333,0.26458333 0 0 1 2.3812499,6.0854167 Z" />
    <path
       id="path7246-2"
       style="opacity:0.5;fill:url(#linearGradient10226);fill-opacity:1;stroke-width:0.661454;stroke-linecap:round;stroke-linejoin:round"
       d="M 2.3812499,5.6885415 A 0.66145825,0.66145825 0 0 0 1.7197916,6.3499998 0.66145825,0.66145825 0 0 0 2.3812499,7.0114581 0.66145825,0.66145825 0 0 0 3.0427082,6.3499998 0.66145825,0.66145825 0 0 0 2.3812499,5.6885415 Z m 0,0.066146 A 0.59531241,0.59531241 0 0 1 2.9765623,6.3499998 0.59531241,0.59531241 0 0 1 2.3812499,6.9453123 0.59531241,0.59531241 0 0 1 1.7859374,6.3499998 0.59531241,0.59531241 0 0 1 2.3812499,5.7546875 Z" />
    <path
       id="path151229-7"
       style="opacity:0.5;fill:url(#linearGradient11943);fill-opacity:1;stroke-width:0.175375;stroke-linecap:round;stroke-linejoin:round"
       d="M 0.51159667,5.3601378 C 0.34978344,5.6650166 0.26498256,6.0048412 0.26458334,6.3499998 0.26498286,6.6951584 0.34978344,7.034983 0.51159667,7.3398618 L 1.6807759,6.7207782 C 1.6199378,6.6066315 1.5879169,6.4793464 1.5874999,6.3499998 1.5879233,6.2206532 1.6199378,6.0933682 1.6807759,5.9792215 Z"
       sodipodi:nodetypes="ccccccc" />
    <path
       id="path151229-1"
       style="opacity:0.5;fill:url(#linearGradient16452);fill-opacity:1;stroke-width:0.175375;stroke-linecap:round;stroke-linejoin:round"
       d="M 3.0124774,4.3297099 2.6179279,5.5924234 A 0.79374994,0.79374994 0 0 1 3.124357,6.0712055 L 4.363041,5.6068927 A 2.1166667,2.1166667 0 0 0 3.0124774,4.3297099 Z" />
    <path
       id="path151229-2"
       style="fill:#d0d0d0;fill-opacity:1;stroke-width:0.175375;stroke-linecap:round;stroke-linejoin:round"
       d="M 2.3812499,4.2333333 A 2.1166667,2.1166667 0 0 0 0.26458334,6.3499998 2.1166667,2.1166667 0 0 0 2.3812499,8.4666664 2.1166667,2.1166667 0 0 0 4.4979164,6.3499998 2.1166667,2.1166667 0 0 0 2.3812499,4.2333333 Z m 0,0.066146 A 2.0505208,2.0505208 0 0 1 4.4317706,6.3499998 2.0505208,2.0505208 0 0 1 2.3812499,8.4005205 2.0505208,2.0505208 0 0 1 0.33072917,6.3499998 2.0505208,2.0505208 0 0 1 2.3812499,4.2994793 Z" />
  </g>
</svg>
