<?xml version="1.0" encoding="UTF-8" standalone="no"?>
<!-- Created with Inkscape (http://www.inkscape.org/) -->

<svg
   width="32"
   height="32"
   viewBox="0 0 8.4666665 8.466667"
   version="1.1"
   id="svg5"
   sodipodi:docname="application-vnd.ms-excel.svg"
   inkscape:version="1.1.1 (3bf5ae0d25, 2021-09-20, custom)"
   xmlns:inkscape="http://www.inkscape.org/namespaces/inkscape"
   xmlns:sodipodi="http://sodipodi.sourceforge.net/DTD/sodipodi-0.dtd"
   xmlns="http://www.w3.org/2000/svg"
   xmlns:svg="http://www.w3.org/2000/svg">
  <sodipodi:namedview
     id="namedview7"
     pagecolor="#ffffff"
     bordercolor="#666666"
     borderopacity="1.0"
     inkscape:pageshadow="2"
     inkscape:pageopacity="0.0"
     inkscape:pagecheckerboard="0"
     inkscape:document-units="px"
     showgrid="false"
     units="px"
     height="64px"
     inkscape:zoom="12.883333"
     inkscape:cx="25.30401"
     inkscape:cy="26.817594"
     inkscape:window-width="1920"
     inkscape:window-height="996"
     inkscape:window-x="0"
     inkscape:window-y="0"
     inkscape:window-maximized="1"
     inkscape:current-layer="svg5"
     showguides="false" />
  <defs
     id="defs2" />
  <path
     id="rect846"
     style="fill:#7d7d7b;stroke-width:0.264583;stroke-linecap:round;stroke-linejoin:round"
     d="M 1.3229167,0.26458334 H 5.5562501 L 7.14375,1.8520833 V 8.2020834 H 1.3229167 Z"
     sodipodi:nodetypes="cccccc" />
  <path
     id="rect1454"
     style="fill:#fafafa;stroke-width:0.264583;stroke-linecap:round;stroke-linejoin:round"
     d="M 1.5875,0.5291663 V 7.9374997 H 6.8791666 V 2.3151041 H 5.3578125 c -0.1814317,0 -0.2645831,-0.1297126 -0.2645831,-0.2645834 V 0.5291663 Z m 3.7703125,0 v 1.5213544 h 1.5213541 z"
     sodipodi:nodetypes="ccccsscccccc" />
  <path
     id="rect1708"
     style="opacity:1;fill:#c0c5cb;fill-opacity:1;stroke-width:3;stroke-linecap:round;stroke-linejoin:round"
     d="M 10 13 L 10 14 L 18 14 L 18 13 L 10 13 z M 20 13 L 20 14 L 24 14 L 24 13 L 20 13 z M 10 15 L 10 16 L 18 16 L 18 15 L 10 15 z M 20 15 L 20 16 L 24 16 L 24 15 L 20 15 z M 10 17 L 10 18 L 18 18 L 18 17 L 10 17 z M 20 17 L 20 18 L 24 18 L 24 17 L 20 17 z M 10 19 L 10 20 L 18 20 L 18 19 L 10 19 z M 20 19 L 20 20 L 24 20 L 24 19 L 20 19 z M 10 21 L 10 22 L 18 22 L 18 21 L 10 21 z M 20 21 L 20 22 L 24 22 L 24 21 L 20 21 z "
     transform="scale(0.26458334)" />
  <path
     id="rect2355"
     style="opacity:1;fill:#0c7c42;stroke-width:2.66429;stroke-linecap:round;stroke-linejoin:round;fill-opacity:1"
     d="m 0.5291667,2.9104167 h 2.9104166 c 0.1465792,0 0.2645834,0.1180041 0.2645834,0.2645833 v 2.9104171 c 0,0.1465792 -0.1180042,0.2645833 -0.2645834,0.2645833 H 0.5291667 c -0.14657918,0 -0.26458335,-0.1180041 -0.26458335,-0.2645833 V 3.175 c 0,-0.1465792 0.11800417,-0.2645833 0.26458335,-0.2645833 z" />
  <path
     id="rect12096"
     style="fill:#ffffff;fill-opacity:1;stroke-width:0.215397;stroke-linecap:round;stroke-linejoin:round"
     d="M 1.2279267,3.571875 1.7965689,4.5972538 1.190625,5.6885417 H 1.5438699 L 1.8138169,5.162951 c 0.0517,-0.1091341 0.106213,-0.2153132 0.163652,-0.3445508 h 0.011501 c 0.066059,0.1292376 0.120723,0.2354167 0.1752899,0.3445508 l 0.2785006,0.5255907 h 0.370494 L 2.2073089,4.6115575 2.7730069,3.571875 h -0.350301 l -0.247089,0.4968432 c -0.0517,0.097646 -0.09184,0.1924552 -0.146403,0.3216929 h -0.0115 C 1.9516599,4.2611734 1.9057589,4.1663644 1.8540639,4.0687182 L 1.5984209,3.571875 Z" />
</svg>
