<?xml version="1.0" encoding="UTF-8" standalone="no"?>
<!-- Created with Inkscape (http://www.inkscape.org/) -->

<svg
   width="32"
   height="32"
   viewBox="0 0 8.4666665 8.466667"
   version="1.1"
   id="svg5"
   sodipodi:docname="application-octet-stream.svg"
   inkscape:version="1.1.1 (3bf5ae0d25, 2021-09-20, custom)"
   xmlns:inkscape="http://www.inkscape.org/namespaces/inkscape"
   xmlns:sodipodi="http://sodipodi.sourceforge.net/DTD/sodipodi-0.dtd"
   xmlns="http://www.w3.org/2000/svg"
   xmlns:svg="http://www.w3.org/2000/svg">
  <sodipodi:namedview
     id="namedview7"
     pagecolor="#ffffff"
     bordercolor="#666666"
     borderopacity="1.0"
     inkscape:pageshadow="2"
     inkscape:pageopacity="0.0"
     inkscape:pagecheckerboard="0"
     inkscape:document-units="px"
     showgrid="false"
     units="px"
     height="64px"
     inkscape:zoom="24.15625"
     inkscape:cx="1.8421734"
     inkscape:cy="16"
     inkscape:window-width="1567"
     inkscape:window-height="932"
     inkscape:window-x="56"
     inkscape:window-y="50"
     inkscape:window-maximized="0"
     inkscape:current-layer="svg5" />
  <defs
     id="defs2" />
  <path
     id="rect846"
     style="fill:#7d7d7b;stroke-width:0.264583;stroke-linecap:round;stroke-linejoin:round"
     d="M 1.3229167,0.2645833 H 5.5562501 L 7.14375,1.8520832 V 8.2020833 H 1.3229167 Z"
     sodipodi:nodetypes="cccccc" />
  <path
     id="rect1454"
     style="fill:#fafafa;stroke-width:0.264583;stroke-linecap:round;stroke-linejoin:round"
     d="M 1.5875,0.5291663 V 7.9374997 H 6.8791666 V 2.3151041 H 5.3578125 c -0.1814317,0 -0.2645831,-0.1297126 -0.2645831,-0.2645834 V 0.5291663 Z m 3.7703125,0 v 1.5213544 h 1.5213541 z"
     sodipodi:nodetypes="ccccsscccccc" />
  <path
     id="path12643"
     style="font-size:3.72076px;line-height:1.25;font-family:Roboto;-inkscape-font-specification:Roboto;fill:#cccccc;stroke-width:0.043409;fill-opacity:1"
     d="m 3.7454733,2.9104167 c -0.133957,0 -0.2324364,0.04398 -0.2951759,0.1321538 -0.062739,0.088174 -0.094051,0.2229843 -0.094051,0.4044198 v 0.2095652 c 0.00226,0.1735225 0.035087,0.3040295 0.098392,0.3916386 0.063305,0.087044 0.1608269,0.1304655 0.2925232,0.1304655 0.1333918,0 0.2314718,-0.044537 0.294211,-0.1338419 0.062739,-0.089305 0.094051,-0.2257877 0.094051,-0.409484 V 3.4317974 C 4.1337283,3.2543185 4.1014592,3.1232538 4.0387197,3.0384709 3.9759805,2.9531229 3.8782998,2.9104167 3.7454733,2.9104167 Z m 0.9749963,0 c -0.1339569,0 -0.2324363,0.04398 -0.2951755,0.1321538 -0.06274,0.088174 -0.094051,0.2229843 -0.094051,0.4044198 v 0.2095652 c 0.00226,0.1735225 0.035087,0.3040295 0.098392,0.3916386 0.063305,0.087044 0.1608269,0.1304655 0.2925229,0.1304655 0.1333919,0 0.2314717,-0.044537 0.2942113,-0.1338419 0.062739,-0.089305 0.094051,-0.2257877 0.094051,-0.409484 V 3.4317974 C 5.1087243,3.2543185 5.076456,3.1232538 5.0137163,3.0384709 4.950977,2.9531229 4.8532965,2.9104167 4.7204696,2.9104167 Z m 0.9749968,0 c -0.133957,0 -0.2324365,0.04398 -0.2951759,0.1321538 -0.062739,0.088174 -0.094051,0.2229843 -0.094051,0.4044198 v 0.2095652 c 0.00226,0.1735225 0.035088,0.3040295 0.098392,0.3916386 0.063305,0.087044 0.1608271,0.1304655 0.2925233,0.1304655 0.1333916,0 0.2314715,-0.044537 0.294211,-0.1338419 0.062739,-0.089305 0.094051,-0.2257877 0.094051,-0.409484 V 3.4317974 C 6.0837167,3.2543185 6.0514527,3.1232538 5.9887127,3.0384709 5.9259737,2.9531229 5.8282929,2.9104167 5.6954664,2.9104167 Z M 2.8773092,2.9215097 2.4277931,3.0900782 V 3.2326017 L 2.7441907,3.1163643 V 4.1617785 H 2.9019072 V 2.92151 Z m 0.8681641,0.1176844 c 0.080826,0 0.1399455,0.030596 0.1772501,0.09164 0.037304,0.060479 0.055948,0.1570437 0.055948,0.2898703 v 0.2570731 c -0.00169,0.1288702 -0.021697,0.2232048 -0.059566,0.283118 -0.037304,0.059913 -0.09451,0.089952 -0.1719448,0.089952 -0.078565,0 -0.1375265,-0.031711 -0.1765268,-0.095016 C 3.5321988,3.8919615 3.5129978,3.793324 3.5129978,3.6599322 V 3.4088878 c 0.00114,-0.1254787 0.020174,-0.2182986 0.056913,-0.278777 0.036739,-0.060479 0.095301,-0.090916 0.1755625,-0.090917 z m 0.9749963,0 c 0.080827,0 0.1399459,0.030596 0.1772503,0.09164 0.037304,0.060479 0.055948,0.1570437 0.055948,0.2898703 v 0.2570731 c -0.00169,0.1288701 -0.021696,0.2232047 -0.059566,0.2831179 -0.037304,0.059913 -0.09451,0.089951 -0.1719446,0.089951 -0.078565,0 -0.1372854,-0.031711 -0.1762855,-0.095016 C 4.5074372,3.8919613 4.4879948,3.7933237 4.4879948,3.6599319 V 3.4088878 c 0.00113,-0.1254788 0.020174,-0.2182987 0.056913,-0.2787771 0.036739,-0.060479 0.095301,-0.090916 0.1755618,-0.090917 z m 0.9749968,0 c 0.080826,0 0.1399454,0.030596 0.1772501,0.09164 0.037304,0.060479 0.055948,0.1570437 0.055948,0.2898703 v 0.2570731 c -0.0017,0.1288702 -0.021455,0.2232048 -0.059325,0.283118 -0.037305,0.059913 -0.094751,0.089952 -0.1721858,0.089952 -0.078566,0 -0.1372853,-0.031711 -0.1762855,-0.095016 C 5.4824332,3.8919615 5.4629902,3.793324 5.4629902,3.6599322 V 3.4088878 c 0.00113,-0.1254787 0.020174,-0.2182986 0.056913,-0.278777 0.036739,-0.060479 0.095301,-0.090916 0.1755621,-0.090916 z M 2.7704768,4.5155558 c -0.1339571,0 -0.2324365,0.04398 -0.2951758,0.1321539 C 2.412562,4.7358837 2.38125,4.8706942 2.38125,5.0521294 v 0.2095652 c 0.00226,0.1735222 0.035087,0.3040293 0.098392,0.3916386 0.063305,0.087044 0.1608269,0.1304656 0.2925231,0.1304656 0.1333919,0 0.2314718,-0.044537 0.2942111,-0.1338419 0.062739,-0.089305 0.094051,-0.2257876 0.094051,-0.4094841 V 5.0369366 C 3.1587272,4.8594574 3.1264633,4.7283929 3.0637232,4.64361 3.0009842,4.5582618 2.9033033,4.515556 2.7704768,4.5155558 Z m 1.9499928,0 c -0.1339569,0 -0.2324363,0.04398 -0.2951755,0.1321539 -0.06274,0.088174 -0.094051,0.2229845 -0.094051,0.4044197 v 0.2095652 c 0.00226,0.1735222 0.035087,0.3040293 0.098392,0.3916386 0.063305,0.087044 0.1608269,0.1304656 0.2925229,0.1304656 0.1333919,0 0.2314717,-0.044537 0.2942113,-0.1338419 0.062739,-0.089305 0.094051,-0.2257875 0.094051,-0.409484 V 5.0369364 C 5.1087246,4.8594571 5.076456,4.7283926 5.0137163,4.6436098 4.950977,4.5582616 4.8532965,4.5155556 4.7204696,4.5155558 Z m 0.9749968,0 c -0.133957,0 -0.2324365,0.04398 -0.2951759,0.1321539 -0.062739,0.088174 -0.094051,0.2229845 -0.094051,0.4044198 v 0.2095652 c 0.00226,0.1735222 0.035088,0.3040293 0.098392,0.3916386 0.063305,0.087044 0.1608271,0.1304657 0.2925233,0.1304657 0.1333916,0 0.2314715,-0.044537 0.294211,-0.133842 0.062739,-0.089305 0.094051,-0.2257876 0.094051,-0.4094841 V 5.0369364 C 6.0837212,4.8594571 6.0514524,4.7283926 5.9887128,4.6436098 5.9259736,4.5582616 5.8282931,4.5155556 5.6954664,4.5155558 Z M 3.8523056,4.5266485 3.4027897,4.695217 V 4.8377409 L 3.7191872,4.7215033 v 1.045414 H 3.8769036 V 4.5266489 Z M 2.7704768,4.6443331 c 0.080826,0 0.1397045,0.030596 0.1770091,0.09164 0.037304,0.060478 0.056189,0.157044 0.056189,0.2898704 v 0.2570728 c -0.0017,0.1288699 -0.021697,0.2232043 -0.059566,0.2831178 -0.037305,0.059913 -0.09451,0.089952 -0.1719447,0.089952 -0.078565,0 -0.1375264,-0.031711 -0.1765267,-0.095016 -0.038435,-0.06387 -0.057637,-0.1625075 -0.057637,-0.2958993 V 5.0140267 c 0.00113,-0.1254789 0.020174,-0.2182987 0.056914,-0.2787771 0.036739,-0.060478 0.095301,-0.090916 0.1755623,-0.090917 z m 1.9499928,0 c 0.080827,0 0.1399459,0.030596 0.1772503,0.09164 0.037304,0.060478 0.055948,0.157044 0.055948,0.2898704 v 0.2570728 c -0.0017,0.1288701 -0.021696,0.2232044 -0.059566,0.283118 -0.037304,0.059913 -0.09451,0.089951 -0.1719446,0.089951 -0.078565,0 -0.1372854,-0.031711 -0.1762855,-0.095016 C 4.5074372,5.4971003 4.4879948,5.3984624 4.4879948,5.2650706 V 5.0140264 c 0.00114,-0.1254787 0.020174,-0.2182986 0.056913,-0.2787771 0.03674,-0.060478 0.095301,-0.090916 0.1755618,-0.090916 z m 0.9749968,0 c 0.080826,0 0.1399454,0.030596 0.1772501,0.09164 0.037304,0.060478 0.055948,0.157044 0.055948,0.2898704 v 0.2570728 c -0.0017,0.1288701 -0.021455,0.2232044 -0.059325,0.283118 -0.037305,0.059913 -0.094751,0.089951 -0.1721858,0.089951 -0.078566,0 -0.1372853,-0.031711 -0.1762855,-0.095016 C 5.4824342,5.4970993 5.4629912,5.3984618 5.4629912,5.26507 V 5.014026 c 0.00114,-0.1254789 0.020174,-0.2182987 0.056913,-0.2787771 0.036739,-0.060478 0.095301,-0.090916 0.1755622,-0.090916 z M 2.7704768,6.2441667 c -0.1339571,0 -0.2324365,0.04398 -0.2951758,0.1321538 C 2.412562,6.4644945 2.38125,6.5993047 2.38125,6.7807403 v 0.2095652 c 0.00226,0.1735222 0.035087,0.3040293 0.098392,0.3916385 0.063305,0.087044 0.1608269,0.1304657 0.2925231,0.1304657 0.1333919,0 0.2314718,-0.044537 0.2942111,-0.1338419 0.062739,-0.089305 0.094051,-0.2257877 0.094051,-0.409484 V 6.7655476 C 3.1587272,6.5880687 3.1264633,6.457004 3.0637232,6.372221 3.0009842,6.286873 2.9033033,6.2441668 2.7704768,6.2441667 Z m 0.9749965,0 c -0.133957,0 -0.2324364,0.04398 -0.2951759,0.1321538 -0.062739,0.088174 -0.094051,0.2229843 -0.094051,0.4044199 v 0.2095653 c 0.00226,0.1735222 0.035087,0.3040292 0.098392,0.3916384 0.063305,0.087044 0.1608269,0.1304657 0.2925232,0.1304657 0.1333918,0 0.2314718,-0.044537 0.294211,-0.1338419 0.062739,-0.089305 0.094051,-0.2257876 0.094051,-0.409484 V 6.7655476 C 4.1337279,6.5880687 4.1014592,6.457004 4.0387197,6.372221 3.9759805,6.286873 3.8782998,6.2441668 3.7454733,6.2441667 Z m 1.9499931,0 c -0.133957,0 -0.2324365,0.04398 -0.2951759,0.1321538 -0.062739,0.088174 -0.094051,0.2229843 -0.094051,0.4044199 v 0.2095653 c 0.00226,0.1735222 0.035088,0.3040292 0.098392,0.3916384 0.063305,0.087044 0.1608271,0.1304657 0.2925233,0.1304657 0.1333916,0 0.2314715,-0.044537 0.294211,-0.1338419 0.062739,-0.089305 0.094051,-0.2257876 0.094051,-0.409484 V 6.7655476 C 6.0837212,6.5880687 6.0514524,6.457004 5.9887128,6.372221 5.9259736,6.286873 5.8282931,6.2441668 5.6954664,6.2441667 Z M 4.8273022,6.2552596 4.3777861,6.4238281 V 6.5663517 L 4.6941838,6.4501142 V 7.4955284 H 4.8519002 V 6.2552601 Z M 2.7704768,6.3729441 c 0.080826,0 0.1397045,0.030596 0.1770091,0.091639 0.037304,0.060479 0.056189,0.1570437 0.056189,0.2898704 v 0.257073 c -0.0017,0.12887 -0.021697,0.2232045 -0.059566,0.2831179 -0.037305,0.059913 -0.09451,0.089952 -0.1719447,0.089952 -0.078565,0 -0.1375264,-0.031711 -0.1765267,-0.095016 -0.038435,-0.06387 -0.057637,-0.1625076 -0.057637,-0.2958993 V 6.7426372 c 0.00113,-0.1254789 0.020174,-0.2182988 0.056914,-0.2787771 0.036739,-0.060478 0.095301,-0.090916 0.1755623,-0.090916 z m 0.9749965,0 c 0.080826,0 0.1399455,0.030596 0.1772501,0.091639 0.037304,0.060479 0.055948,0.1570437 0.055948,0.2898704 v 0.257073 c -0.00169,0.12887 -0.021696,0.2232045 -0.059566,0.2831179 -0.037304,0.059913 -0.09451,0.089952 -0.1719448,0.089952 -0.078565,0 -0.1375266,-0.031711 -0.1765268,-0.095016 -0.038435,-0.06387 -0.057636,-0.1625076 -0.057636,-0.2958993 V 6.7426372 c 0.00114,-0.1254789 0.020174,-0.2182988 0.056913,-0.2787771 0.036739,-0.060478 0.095301,-0.090916 0.1755625,-0.090916 z m 1.9499931,0 c 0.080826,0 0.1399454,0.030596 0.1772501,0.091639 0.037304,0.060479 0.055948,0.1570437 0.055948,0.2898704 v 0.257073 c -0.0017,0.12887 -0.021455,0.2232045 -0.059325,0.2831179 -0.037305,0.059913 -0.094751,0.089952 -0.1721858,0.089952 -0.078566,0 -0.1372853,-0.031711 -0.1762855,-0.095016 -0.038435,-0.06387 -0.057878,-0.1625076 -0.057878,-0.2958993 V 6.7426372 c 0.00114,-0.1254789 0.020174,-0.2182988 0.056913,-0.2787771 0.036739,-0.060478 0.095301,-0.090916 0.1755621,-0.090916 z" />
</svg>
