<?xml version="1.0" encoding="UTF-8" standalone="no"?>
<!-- Created with Inkscape (http://www.inkscape.org/) -->

<svg
   width="32"
   height="32"
   viewBox="0 0 8.4666665 8.466667"
   version="1.1"
   id="svg5"
   sodipodi:docname="video-x-generic.svg"
   inkscape:version="1.1.1 (3bf5ae0d25, 2021-09-20, custom)"
   xmlns:inkscape="http://www.inkscape.org/namespaces/inkscape"
   xmlns:sodipodi="http://sodipodi.sourceforge.net/DTD/sodipodi-0.dtd"
   xmlns:xlink="http://www.w3.org/1999/xlink"
   xmlns="http://www.w3.org/2000/svg"
   xmlns:svg="http://www.w3.org/2000/svg">
  <sodipodi:namedview
     id="namedview7"
     pagecolor="#ffffff"
     bordercolor="#666666"
     borderopacity="1.0"
     inkscape:pageshadow="2"
     inkscape:pageopacity="0.0"
     inkscape:pagecheckerboard="0"
     inkscape:document-units="px"
     showgrid="false"
     units="px"
     height="64px"
     inkscape:zoom="9.1098925"
     inkscape:cx="9.5500578"
     inkscape:cy="32.327495"
     inkscape:window-width="1920"
     inkscape:window-height="996"
     inkscape:window-x="0"
     inkscape:window-y="0"
     inkscape:window-maximized="1"
     inkscape:current-layer="svg5" />
  <defs
     id="defs2">
    <linearGradient
       inkscape:collect="always"
       xlink:href="#linearGradient27684"
       id="linearGradient27686"
       x1="86.812088"
       y1="124.12689"
       x2="114.91612"
       y2="145.73866"
       gradientUnits="userSpaceOnUse"
       gradientTransform="matrix(0.11264562,0,0,0.19509327,-7.1331678,-21.305905)" />
    <linearGradient
       inkscape:collect="always"
       id="linearGradient27684">
      <stop
         style="stop-color:#4a4a4a;stop-opacity:1;"
         offset="0"
         id="stop27680" />
      <stop
         style="stop-color:#232323;stop-opacity:0.74901962"
         offset="1"
         id="stop27682" />
    </linearGradient>
    <linearGradient
       inkscape:collect="always"
       xlink:href="#linearGradient12418"
       id="linearGradient2216"
       x1="42"
       y1="4.9999995"
       x2="58.037758"
       y2="31.034565"
       gradientUnits="userSpaceOnUse"
       gradientTransform="matrix(0.13229167,0,0,0.13229167,-2.3812497,2.6458334)" />
    <linearGradient
       inkscape:collect="always"
       id="linearGradient12418">
      <stop
         style="stop-color:#52e4ff;stop-opacity:1;"
         offset="0"
         id="stop12414" />
      <stop
         style="stop-color:#d29eff;stop-opacity:1"
         offset="1"
         id="stop12416" />
    </linearGradient>
  </defs>
  <path
     id="rect846"
     style="fill:#7d7d7b;stroke-width:0.264583;stroke-linecap:round;stroke-linejoin:round"
     d="M 1.3229167,0.2645833 H 5.5562501 L 7.14375,1.8520832 V 8.2020833 H 1.3229167 Z"
     sodipodi:nodetypes="cccccc" />
  <path
     id="rect1454"
     style="fill:#fafafa;stroke-width:0.264583;stroke-linecap:round;stroke-linejoin:round"
     d="M 1.5875,0.5291663 V 7.9374997 H 6.8791666 V 2.3151041 H 5.3578125 c -0.1814317,0 -0.2645831,-0.1297126 -0.2645831,-0.2645834 V 0.5291663 Z m 3.7703125,0 v 1.5213544 h 1.5213541 z"
     sodipodi:nodetypes="ccccsscccccc" />
  <path
     id="rect862"
     style="fill:url(#linearGradient27686);stroke-width:0.109319;stroke-linecap:round;stroke-linejoin:round"
     d="m 2.5135415,2.9104167 h 3.4395833 c 0.07329,0 0.132292,0.059002 0.132292,0.1322917 v 3.9687498 c 0,0.073289 -0.059002,0.1322915 -0.132292,0.1322915 H 2.5135415 c -0.07329,0 -0.1322915,-0.059002 -0.1322915,-0.1322915 V 3.0427084 c 0,-0.07329 0.059002,-0.1322917 0.1322915,-0.1322917 z"
     sodipodi:nodetypes="sssssssss" />
  <path
     id="rect1388"
     style="fill:#ffffff;stroke-width:0.396875;stroke-linecap:round;stroke-linejoin:round"
     d="m 2.7086207,3.1750001 c -0.035046,0.00176 -0.062787,0.030646 -0.062787,0.066146 v 0.2645833 c 0,0.036645 0.029501,0.066146 0.066146,0.066146 h 0.1322916 c 0.036645,0 0.066146,-0.029501 0.066146,-0.066146 V 3.2411459 c 0,-0.036645 -0.029501,-0.066146 -0.066146,-0.066146 H 2.7119797 c -0.00115,0 -0.00223,-5.7e-5 -0.00336,0 z m 2.9104162,0 c -0.035081,7.796e-4 -0.062787,0.030646 -0.062787,0.066146 v 0.2645833 c 0,0.036645 0.0295,0.066146 0.066146,0.066146 h 0.1322915 c 0.036645,0 0.066146,-0.029501 0.066146,-0.066146 V 3.2411459 c 0,-0.036645 -0.0295,-0.066146 -0.066146,-0.066146 H 5.6223959 c -0.00115,0 -0.00225,-2.44e-5 -0.00335,0 z m -2.9104162,0.79375 c -0.035046,0.00176 -0.062787,0.030646 -0.062787,0.066146 v 0.2645833 c 0,0.036645 0.029501,0.066146 0.066146,0.066146 h 0.1322916 c 0.036645,0 0.066146,-0.029501 0.066146,-0.066146 V 4.0348959 c 0,-0.036645 -0.029501,-0.066146 -0.066146,-0.066146 H 2.7119797 c -0.00115,0 -0.00223,-5.7e-5 -0.00336,0 z m 2.9104162,0 c -0.035081,7.796e-4 -0.062787,0.030646 -0.062787,0.066146 v 0.2645833 c 0,0.036645 0.0295,0.066146 0.066146,0.066146 h 0.1322915 c 0.036645,0 0.066146,-0.029501 0.066146,-0.066146 V 4.0348959 c 0,-0.036645 -0.0295,-0.066146 -0.066146,-0.066146 H 5.6223959 c -0.00115,0 -0.00225,-2.44e-5 -0.00335,0 z m -2.9104162,0.79375 c -0.035046,0.00176 -0.062787,0.030646 -0.062787,0.066146 v 0.2645834 c 0,0.036645 0.029501,0.066146 0.066146,0.066146 h 0.1322916 c 0.036645,0 0.066146,-0.0295 0.066146,-0.066146 V 4.8286459 c 0,-0.036645 -0.029501,-0.066146 -0.066146,-0.066146 H 2.7119797 c -0.00115,0 -0.00223,-5.69e-5 -0.00336,0 z m 2.9104162,0 c -0.035081,7.796e-4 -0.062787,0.030646 -0.062787,0.066146 v 0.2645834 c 0,0.036645 0.0295,0.066146 0.066146,0.066146 h 0.1322915 c 0.036645,0 0.066146,-0.0295 0.066146,-0.066146 V 4.8286459 c 0,-0.036645 -0.0295,-0.066146 -0.066146,-0.066146 H 5.6223959 c -0.00115,0 -0.00225,-2.44e-5 -0.00335,0 z M 2.7086207,5.5562502 c -0.035046,0.00175 -0.062787,0.030645 -0.062787,0.066145 v 0.2645835 c 0,0.036645 0.029501,0.066146 0.066146,0.066146 h 0.1322916 c 0.036645,0 0.066146,-0.0295 0.066146,-0.066146 v -0.264583 c 0,-0.036645 -0.029501,-0.066145 -0.066146,-0.066145 H 2.7119797 c -0.00115,0 -0.00223,-5.7e-5 -0.00336,0 z m 2.9104162,0 c -0.035035,-0.00195 -0.062787,0.030645 -0.062787,0.066145 v 0.2645835 c 0,0.036645 0.0295,0.066146 0.066146,0.066146 h 0.1322915 c 0.036645,0 0.066146,-0.0295 0.066146,-0.066146 v -0.264583 c 0,-0.036645 -0.0295,-0.066145 -0.066146,-0.066145 H 5.6223959 c -0.00115,0 -0.00225,6.11e-5 -0.00335,0 z M 2.7086207,6.3499997 c -0.035046,0.00175 -0.062787,0.030645 -0.062787,0.066146 v 0.2645835 c 0,0.036645 0.029501,0.066145 0.066146,0.066145 h 0.1322916 c 0.036645,0 0.066146,-0.0295 0.066146,-0.066145 V 6.4161457 c 0,-0.036645 -0.029501,-0.066146 -0.066146,-0.066146 H 2.7119797 c -0.00115,0 -0.00223,-5.65e-5 -0.00336,0 z m 2.9104162,0 c -0.035089,0 -0.062787,0.030645 -0.062787,0.066146 v 0.2645835 c 0,0.036645 0.0295,0.066145 0.066146,0.066145 h 0.1322915 c 0.036645,0 0.066146,-0.0295 0.066146,-0.066145 V 6.4161457 c 0,-0.036645 -0.0295,-0.066146 -0.066146,-0.066146 h -0.1322915 -0.00335 z"
     sodipodi:nodetypes="sssssssssssssssssssssssssssssssssssssssscssssssssccssssssssccssssssssccssssssssccsssssssscsssssssssssssssssss" />
  <path
     id="rect2063"
     style="fill:url(#linearGradient2216);fill-opacity:1;stroke-width:0.396875;stroke-linecap:round;stroke-linejoin:round"
     d="m 3.4395839,3.3072917 c -0.1465791,0 -0.2645834,0.1180042 -0.2645834,0.2645834 v 1.0583333 c 0,0.1465792 0.1180043,0.2645834 0.2645834,0.2645834 h 1.5874995 c 0.1465791,0 0.2645832,-0.1180042 0.2645832,-0.2645834 V 3.5718751 c 0,-0.1465792 -0.1180041,-0.2645834 -0.2645832,-0.2645834 z m 0,1.8520835 c -0.1465791,0 -0.2645834,0.118004 -0.2645834,0.264583 v 1.0583335 c 0,0.146579 0.1180043,0.264583 0.2645834,0.264583 h 1.5874995 c 0.1465791,0 0.2645832,-0.118004 0.2645832,-0.264583 V 5.4239582 c 0,-0.146579 -0.1180041,-0.264583 -0.2645832,-0.264583 z"
     sodipodi:nodetypes="ssssssssssssssssss" />
</svg>
