<?xml version="1.0" encoding="UTF-8" standalone="no"?>
<!-- Created with Inkscape (http://www.inkscape.org/) -->

<svg
   width="32"
   height="32"
   viewBox="0 0 8.4666665 8.466667"
   version="1.1"
   id="svg5"
   sodipodi:docname="application-vnd.ms-powerpoint.svg"
   inkscape:version="1.1.1 (3bf5ae0d25, 2021-09-20, custom)"
   xmlns:inkscape="http://www.inkscape.org/namespaces/inkscape"
   xmlns:sodipodi="http://sodipodi.sourceforge.net/DTD/sodipodi-0.dtd"
   xmlns="http://www.w3.org/2000/svg"
   xmlns:svg="http://www.w3.org/2000/svg">
  <sodipodi:namedview
     id="namedview7"
     pagecolor="#ffffff"
     bordercolor="#666666"
     borderopacity="1.0"
     inkscape:pageshadow="2"
     inkscape:pageopacity="0.0"
     inkscape:pagecheckerboard="0"
     inkscape:document-units="px"
     showgrid="false"
     units="px"
     height="64px"
     inkscape:zoom="25.766667"
     inkscape:cx="13.622251"
     inkscape:cy="22.257438"
     inkscape:window-width="1920"
     inkscape:window-height="996"
     inkscape:window-x="0"
     inkscape:window-y="0"
     inkscape:window-maximized="1"
     inkscape:current-layer="svg5" />
  <defs
     id="defs2" />
  <path
     id="rect846"
     style="fill:#7d7d7b;stroke-width:0.264583;stroke-linecap:round;stroke-linejoin:round"
     d="M 1.3229167,0.2645833 H 5.5562501 L 7.14375,1.8520832 V 8.2020833 H 1.3229167 Z"
     sodipodi:nodetypes="cccccc" />
  <path
     id="rect1454"
     style="fill:#fafafa;stroke-width:0.264583;stroke-linecap:round;stroke-linejoin:round"
     d="M 1.5875,0.5291663 V 7.9374997 H 6.8791666 V 2.3151041 H 5.3578125 c -0.1814317,0 -0.2645831,-0.1297126 -0.2645831,-0.2645834 V 0.5291663 Z m 3.7703125,0 v 1.5213544 h 1.5213541 z"
     sodipodi:nodetypes="ccccsscccccc" />
  <path
     id="rect2836"
     style="opacity:1;fill:#c0c5cb;fill-opacity:1;stroke-width:0.79375;stroke-linecap:round;stroke-linejoin:round"
     d="m 4.6302084,3.1862655 c -0.6741918,0.067754 -1.188198,0.6339643 -1.190625,1.3115478 0,0.7306267 0.59229,1.3229167 1.3229167,1.3229167 C 5.4416668,5.8204201 6.0102654,5.3058674 6.078182,4.630105 H 4.8947918 4.6302084 V 4.3655216 Z M 2.1166667,6.0853133 V 6.3498967 H 6.3500001 V 6.0853133 Z m 0,0.5291667 V 6.8790633 H 6.3500001 V 6.61448 Z"
     sodipodi:nodetypes="cccccccccccccccccc" />
  <path
     id="path3412"
     style="opacity:1;fill:#e8ab72;fill-opacity:1;stroke-width:0.79375;stroke-linecap:round;stroke-linejoin:round"
     d="m 4.8947918,3.1816146 v 1.183907 h 1.183907 C 6.0157525,3.7395904 5.520723,3.2445609 4.8947918,3.1816146 Z"
     sodipodi:nodetypes="cccc" />
  <path
     id="rect2355"
     style="fill:#cb3a22;fill-opacity:1;stroke-width:2.66429;stroke-linecap:round;stroke-linejoin:round"
     d="M 0.52916674,2.9104167 H 3.4395834 c 0.1465792,0 0.2645834,0.1180041 0.2645834,0.2645833 v 2.9104171 c 0,0.1465792 -0.1180042,0.2645833 -0.2645834,0.2645833 H 0.52916674 c -0.1465792,0 -0.2645834,-0.1180041 -0.2645834,-0.2645833 V 3.175 c 0,-0.1465792 0.1180042,-0.2645833 0.2645834,-0.2645833 z" />
  <path
     d="m 1.3229167,5.6885417 h 0.3331524 v -0.801289 h 0.3187924 c 0.4595206,0 0.798417,-0.2125283 0.798417,-0.6720488 0,-0.4796246 -0.3388964,-0.6433289 -0.809905,-0.6433289 H 1.3229167 Z M 1.6560691,4.6172844 v -0.775441 h 0.2757124 c 0.3360244,0 0.5112166,0.091904 0.5112166,0.3733605 0,0.2728403 -0.1637042,0.4020805 -0.4968566,0.4020805 z"
     style="font-weight:500;font-size:10.5833px;line-height:1.25;font-family:'Noto Sans CJK KR';-inkscape-font-specification:'Noto Sans CJK KR Medium';stroke-width:0.0718002;fill:#ffffff"
     id="path4103" />
</svg>
