<?xml version="1.0" encoding="UTF-8" standalone="no"?>
<!-- Created with Inkscape (http://www.inkscape.org/) -->

<svg
   width="32"
   height="32"
   viewBox="0 0 8.4666665 8.466667"
   version="1.1"
   id="svg5"
   sodipodi:docname="application-x-cd-image.svg"
   inkscape:version="1.1.1 (3bf5ae0d25, 2021-09-20, custom)"
   xmlns:inkscape="http://www.inkscape.org/namespaces/inkscape"
   xmlns:sodipodi="http://sodipodi.sourceforge.net/DTD/sodipodi-0.dtd"
   xmlns:xlink="http://www.w3.org/1999/xlink"
   xmlns="http://www.w3.org/2000/svg"
   xmlns:svg="http://www.w3.org/2000/svg">
  <sodipodi:namedview
     id="namedview7"
     pagecolor="#ffffff"
     bordercolor="#666666"
     borderopacity="1.0"
     inkscape:pageshadow="2"
     inkscape:pageopacity="0.0"
     inkscape:pagecheckerboard="0"
     inkscape:document-units="px"
     showgrid="false"
     units="px"
     height="64px"
     inkscape:zoom="24.15625"
     inkscape:cx="15.979301"
     inkscape:cy="16"
     inkscape:window-width="1920"
     inkscape:window-height="996"
     inkscape:window-x="0"
     inkscape:window-y="0"
     inkscape:window-maximized="1"
     inkscape:current-layer="svg5" />
  <defs
     id="defs2">
    <linearGradient
       inkscape:collect="always"
       xlink:href="#linearGradient6804"
       id="linearGradient6808"
       x1="2.3812499"
       y1="8.4666672"
       x2="6.6145835"
       y2="12.700001"
       gradientUnits="userSpaceOnUse"
       gradientTransform="matrix(0.50000001,0,0,0.50000001,1.9843751,-0.26458346)" />
    <linearGradient
       inkscape:collect="always"
       id="linearGradient6804">
      <stop
         style="stop-color:#ffffff;stop-opacity:1;"
         offset="0"
         id="stop6800" />
      <stop
         style="stop-color:#ffffff;stop-opacity:0;"
         offset="1"
         id="stop6802" />
    </linearGradient>
    <linearGradient
       inkscape:collect="always"
       xlink:href="#linearGradient162116"
       id="linearGradient162118"
       x1="96.408417"
       y1="238.0069"
       x2="127.77626"
       y2="238.0069"
       gradientUnits="userSpaceOnUse"
       gradientTransform="matrix(0.13495772,0,0,0.13021687,-10.894392,-25.965431)" />
    <linearGradient
       inkscape:collect="always"
       id="linearGradient162116">
      <stop
         style="stop-color:#e3edee;stop-opacity:1;"
         offset="0"
         id="stop162112" />
      <stop
         style="stop-color:#c9cdce;stop-opacity:1"
         offset="1"
         id="stop162114" />
    </linearGradient>
    <linearGradient
       inkscape:collect="always"
       xlink:href="#linearGradient219586"
       id="linearGradient942"
       gradientUnits="userSpaceOnUse"
       gradientTransform="matrix(0.13495772,0,0,0.13021688,-10.894392,-25.965431)"
       x1="112.09232"
       y1="238.0069"
       x2="112.17286"
       y2="254.33937" />
    <linearGradient
       inkscape:collect="always"
       id="linearGradient219586">
      <stop
         style="stop-color:#b9bfbf;stop-opacity:1;"
         offset="0"
         id="stop219582" />
      <stop
         style="stop-color:#aaacab;stop-opacity:1"
         offset="1"
         id="stop219584" />
    </linearGradient>
    <linearGradient
       inkscape:collect="always"
       xlink:href="#linearGradient2496"
       id="linearGradient2498"
       x1="16.424316"
       y1="54.63533"
       x2="32.331596"
       y2="38.452602"
       gradientUnits="userSpaceOnUse"
       gradientTransform="matrix(0.13229167,0,0,0.13229167,1.9843751,-0.26458356)" />
    <linearGradient
       inkscape:collect="always"
       id="linearGradient2496">
      <stop
         style="stop-color:#ffffff;stop-opacity:0.5"
         offset="0"
         id="stop2492" />
      <stop
         style="stop-color:#ffffff;stop-opacity:0"
         offset="0.44999999"
         id="stop3080" />
      <stop
         style="stop-color:#ffffff;stop-opacity:1"
         offset="0.5"
         id="stop2756" />
      <stop
         style="stop-color:#ffffff;stop-opacity:0"
         offset="0.55000001"
         id="stop3014" />
      <stop
         style="stop-color:#ffffff;stop-opacity:0.2"
         offset="1"
         id="stop2494" />
    </linearGradient>
    <linearGradient
       inkscape:collect="always"
       xlink:href="#linearGradient7820"
       id="linearGradient7822"
       x1="14.532227"
       y1="42.393677"
       x2="19.540161"
       y2="37.501221"
       gradientUnits="userSpaceOnUse"
       gradientTransform="matrix(0.13229167,0,0,0.13229167,1.9843751,-0.26458356)" />
    <linearGradient
       inkscape:collect="always"
       id="linearGradient7820">
      <stop
         style="stop-color:#858585;stop-opacity:1"
         offset="0"
         id="stop7816" />
      <stop
         style="stop-color:#ffffff;stop-opacity:1"
         offset="0.5"
         id="stop8592" />
      <stop
         style="stop-color:#868686;stop-opacity:1"
         offset="1"
         id="stop7818" />
    </linearGradient>
    <linearGradient
       inkscape:collect="always"
       xlink:href="#linearGradient7820"
       id="linearGradient10226"
       gradientUnits="userSpaceOnUse"
       x1="14.532227"
       y1="42.393677"
       x2="19.540161"
       y2="37.501221"
       gradientTransform="matrix(0.26458336,0,0,0.26458336,-0.26458356,-5.5562502)" />
    <linearGradient
       inkscape:collect="always"
       xlink:href="#linearGradient11941"
       id="linearGradient11943"
       x1="5.1081543"
       y1="42.191895"
       x2="7.4692383"
       y2="33.279785"
       gradientUnits="userSpaceOnUse"
       gradientTransform="matrix(0.13229167,0,0,0.13229167,1.9843751,-0.26458356)" />
    <linearGradient
       inkscape:collect="always"
       id="linearGradient11941">
      <stop
         style="stop-color:#f89af4;stop-opacity:0"
         offset="0"
         id="stop11937" />
      <stop
         style="stop-color:#f89af4;stop-opacity:0"
         offset="0.40000001"
         id="stop12523" />
      <stop
         style="stop-color:#f89af4;stop-opacity:1"
         offset="0.5"
         id="stop12201" />
      <stop
         style="stop-color:#f89af4;stop-opacity:0"
         offset="0.60000002"
         id="stop12781" />
      <stop
         style="stop-color:#f89af4;stop-opacity:0;"
         offset="1"
         id="stop11939" />
    </linearGradient>
    <linearGradient
       inkscape:collect="always"
       xlink:href="#linearGradient16450"
       id="linearGradient16452"
       x1="17.605227"
       y1="29.40974"
       x2="27.150551"
       y2="39.243584"
       gradientUnits="userSpaceOnUse"
       gradientTransform="matrix(0.13229167,0,0,0.13229167,1.9843751,-0.26458356)" />
    <linearGradient
       inkscape:collect="always"
       id="linearGradient16450">
      <stop
         style="stop-color:#6fef7e;stop-opacity:0"
         offset="0"
         id="stop16446" />
      <stop
         style="stop-color:#6fef7e;stop-opacity:0"
         offset="0.44792882"
         id="stop17132" />
      <stop
         style="stop-color:#6fef7e;stop-opacity:1"
         offset="0.5"
         id="stop16680" />
      <stop
         style="stop-color:#6fef7e;stop-opacity:0"
         offset="0.55000001"
         id="stop16938" />
      <stop
         style="stop-color:#6fef7e;stop-opacity:0;"
         offset="1"
         id="stop16448" />
    </linearGradient>
    <linearGradient
       inkscape:collect="always"
       xlink:href="#linearGradient219586"
       id="linearGradient935"
       gradientUnits="userSpaceOnUse"
       gradientTransform="matrix(0.13495772,0,0,0.13021688,-10.894392,-25.965431)"
       x1="112.09232"
       y1="238.0069"
       x2="112.17286"
       y2="254.33937" />
  </defs>
  <path
     id="rect846"
     style="fill:#7d7d7b;stroke-width:0.264583;stroke-linecap:round;stroke-linejoin:round"
     d="M 1.3229167,0.2645833 H 5.5562501 L 7.14375,1.8520832 V 8.2020833 H 1.3229167 Z"
     sodipodi:nodetypes="cccccc" />
  <path
     id="rect1454"
     style="fill:#fafafa;stroke-width:0.264583;stroke-linecap:round;stroke-linejoin:round"
     d="M 1.5875,0.5291663 V 7.9374997 H 6.8791666 V 2.3151041 H 5.3578125 c -0.1814317,0 -0.2645831,-0.1297126 -0.2645831,-0.2645834 V 0.5291663 Z m 3.7703125,0 v 1.5213544 h 1.5213541 z"
     sodipodi:nodetypes="ccccsscccccc" />
  <path
     id="path6272"
     style="opacity:0.4;fill:url(#linearGradient6808);fill-opacity:1;stroke-width:0.264583;stroke-linecap:round;stroke-linejoin:round"
     d="M 4.2333335,3.9687501 A 1.0583334,1.0583334 0 0 0 3.1750001,5.0270835 1.0583334,1.0583334 0 0 0 4.2333335,6.085417 1.0583334,1.0583334 0 0 0 5.2916666,5.0270835 1.0583334,1.0583334 0 0 0 4.2333335,3.9687501 Z m 0,0.79375 A 0.26458336,0.26458336 0 0 1 4.4979168,5.0270835 0.26458336,0.26458336 0 0 1 4.2333335,5.291667 0.26458336,0.26458336 0 0 1 3.9687501,5.0270835 0.26458336,0.26458336 0 0 1 4.2333335,4.7625001 Z" />
  <path
     id="path9538"
     style="fill:#d0d0d0;fill-opacity:1;stroke-width:0.264583;stroke-linecap:round;stroke-linejoin:round"
     d="M 4.2333335,4.1010417 A 0.92604172,0.92604172 0 0 0 3.3072918,5.0270835 0.92604172,0.92604172 0 0 0 4.2333335,5.9531255 0.92604172,0.92604172 0 0 0 5.1593751,5.0270835 0.92604172,0.92604172 0 0 0 4.2333335,4.1010417 Z m 0,0.1984375 A 0.72760416,0.72760416 0 0 1 4.9609377,5.0270835 0.72760416,0.72760416 0 0 1 4.2333335,5.754688 0.72760416,0.72760416 0 0 1 3.5057293,5.0270835 0.72760416,0.72760416 0 0 1 4.2333335,4.2994792 Z" />
  <path
     id="path151229"
     style="fill:url(#linearGradient162118);fill-opacity:1;stroke-width:0.175375;stroke-linecap:round;stroke-linejoin:round"
     d="M 4.2333335,2.9104167 A 2.1166669,2.1166669 0 0 0 2.1166667,5.0270835 2.1166669,2.1166669 0 0 0 4.2333335,7.1437502 2.1166669,2.1166669 0 0 0 6.3500001,5.0270835 2.1166669,2.1166669 0 0 0 4.2333335,2.9104167 Z m 0,1.322917 A 0.79375001,0.79375001 0 0 1 5.0270836,5.0270835 0.79375001,0.79375001 0 0 1 4.2333335,5.820834 0.79375001,0.79375001 0 0 1 3.4395834,5.0270835 0.79375001,0.79375001 0 0 1 4.2333335,4.2333337 Z" />
  <path
     id="path151229-3"
     style="fill:url(#linearGradient935);fill-opacity:1;stroke-width:0.175375;stroke-linecap:round;stroke-linejoin:round"
     d="M 5.0252746,5.0766925 A 0.79375001,0.79375001 0 0 1 4.2333335,5.820834 0.79375001,0.79375001 0 0 1 3.6726442,5.587773 L 2.7378175,6.5226 a 2.1166669,2.1166669 0 0 0 1.495516,0.6211502 2.1166669,2.1166669 0 0 0 2.1117576,-1.9846337 z" />
  <path
     id="path151229-3-3"
     style="fill:url(#linearGradient942);fill-opacity:1;stroke-width:0.175375;stroke-linecap:round;stroke-linejoin:round"
     d="M 5.0252746,5.0766925 A 0.79375001,0.79375001 0 0 1 4.2333335,5.820834 0.79375001,0.79375001 0 0 1 3.6726442,5.587773 L 2.7378175,6.5226 a 2.1166669,2.1166669 0 0 0 1.495516,0.6211502 2.1166669,2.1166669 0 0 0 2.1117576,-1.9846337 z" />
  <path
     id="rect2336"
     style="opacity:0.5;fill:url(#linearGradient2498);fill-opacity:1;stroke-width:0.264583;stroke-linecap:round;stroke-linejoin:round"
     d="M 3.7204449,2.9752706 A 2.1166669,2.1166669 0 0 0 2.1543905,4.6371847 l 1.2870016,0.2576069 0.01266,0.00205 A 0.79375001,0.79375001 0 0 1 4.0416137,4.2599297 Z M 5.0126141,5.157308 a 0.79375006,0.79375006 0 0 1 -0.587561,0.6369125 l 0.321169,1.284676 A 2.1166669,2.1166669 0 0 0 6.3122766,5.4169825 L 5.0252746,5.159375 Z" />
  <path
     id="path7246"
     style="opacity:0.5;fill:url(#linearGradient7822);fill-opacity:1;stroke-width:0.330729;stroke-linecap:round;stroke-linejoin:round"
     d="M 4.2333335,4.6963542 A 0.33072917,0.33072917 0 0 0 3.9026043,5.0270835 0.33072917,0.33072917 0 0 0 4.2333335,5.357813 0.33072917,0.33072917 0 0 0 4.5640626,5.0270835 0.33072917,0.33072917 0 0 0 4.2333335,4.6963542 Z m 0,0.066146 A 0.26458336,0.26458336 0 0 1 4.4979168,5.0270835 0.26458336,0.26458336 0 0 1 4.2333335,5.291667 0.26458336,0.26458336 0 0 1 3.9687501,5.0270835 0.26458336,0.26458336 0 0 1 4.2333335,4.7625002 Z" />
  <path
     id="path7246-2"
     style="opacity:0.5;fill:url(#linearGradient10226);fill-opacity:1;stroke-width:0.661455;stroke-linecap:round;stroke-linejoin:round"
     d="M 4.2333335,4.3656252 A 0.66145831,0.66145831 0 0 0 3.5718751,5.0270835 0.66145831,0.66145831 0 0 0 4.2333335,5.688542 0.66145831,0.66145831 0 0 0 4.8947916,5.0270835 0.66145831,0.66145831 0 0 0 4.2333335,4.3656252 Z m 0,0.066145 A 0.59531246,0.59531246 0 0 1 4.8286461,5.0270835 0.59531246,0.59531246 0 0 1 4.2333335,5.6223965 0.59531246,0.59531246 0 0 1 3.638021,5.0270835 0.59531246,0.59531246 0 0 1 4.2333335,4.4317702 Z" />
  <path
     id="path151229-7"
     style="opacity:0.5;fill:url(#linearGradient11943);fill-opacity:1;stroke-width:0.175375;stroke-linecap:round;stroke-linejoin:round"
     d="M 2.3636801,4.0372213 C 2.2018669,4.3421002 2.117066,4.6819247 2.1166667,5.0270835 c 3.996e-4,0.345159 0.0852,0.6849835 0.2470134,0.9898625 L 3.5328594,5.397862 C 3.4720214,5.2837155 3.4400004,5.15643 3.4395834,5.0270835 3.4400068,4.8977366 3.4720214,4.7704516 3.5328594,4.6563052 Z"
     sodipodi:nodetypes="ccccccc" />
  <path
     id="path151229-1"
     style="opacity:0.5;fill:url(#linearGradient16452);fill-opacity:1;stroke-width:0.175375;stroke-linecap:round;stroke-linejoin:round"
     d="M 4.8645611,3.0067933 4.4700115,4.2695072 A 0.79375001,0.79375001 0 0 1 4.9764407,4.7482891 L 6.2151246,4.2839762 A 2.1166669,2.1166669 0 0 0 4.8645611,3.0067933 Z" />
  <path
     id="path151229-2"
     style="fill:#d0d0d0;fill-opacity:1;stroke-width:0.175375;stroke-linecap:round;stroke-linejoin:round"
     d="M 4.2333335,2.9104167 A 2.1166669,2.1166669 0 0 0 2.1166667,5.0270835 2.1166669,2.1166669 0 0 0 4.2333335,7.1437502 2.1166669,2.1166669 0 0 0 6.3500001,5.0270835 2.1166669,2.1166669 0 0 0 4.2333335,2.9104167 Z m 0,0.066146 a 2.050521,2.050521 0 0 1 2.0505206,2.050521 2.050521,2.050521 0 0 1 -2.0505206,2.050521 2.050521,2.050521 0 0 1 -2.0505209,-2.050521 2.050521,2.050521 0 0 1 2.0505209,-2.050521 z" />
</svg>
