<?xml version="1.0" encoding="UTF-8" standalone="no"?>
<!-- Created with Inkscape (http://www.inkscape.org/) -->

<svg
   width="32"
   height="32"
   viewBox="0 0 8.4666665 8.466667"
   version="1.1"
   id="svg5"
   sodipodi:docname="application-vnd.ms-excel.template.macroenabled.12.svg"
   inkscape:version="1.1.1 (3bf5ae0d25, 2021-09-20, custom)"
   xmlns:inkscape="http://www.inkscape.org/namespaces/inkscape"
   xmlns:sodipodi="http://sodipodi.sourceforge.net/DTD/sodipodi-0.dtd"
   xmlns="http://www.w3.org/2000/svg"
   xmlns:svg="http://www.w3.org/2000/svg">
  <sodipodi:namedview
     id="namedview7"
     pagecolor="#ffffff"
     bordercolor="#666666"
     borderopacity="1.0"
     inkscape:pageshadow="2"
     inkscape:pageopacity="0.0"
     inkscape:pagecheckerboard="0"
     inkscape:document-units="px"
     showgrid="false"
     units="px"
     height="64px"
     inkscape:zoom="12.883333"
     inkscape:cx="25.304011"
     inkscape:cy="26.119017"
     inkscape:window-width="1920"
     inkscape:window-height="996"
     inkscape:window-x="0"
     inkscape:window-y="0"
     inkscape:window-maximized="1"
     inkscape:current-layer="svg5"
     showguides="false" />
  <defs
     id="defs2" />
  <path
     id="rect846"
     style="fill:#7d7d7b;stroke-width:0.264583;stroke-linecap:round;stroke-linejoin:round"
     d="m 1.3229169,0.26458344 5.8208328,0.1322915 1.1e-6,7.80520846 H 1.8520837 V 7.6729168 H 1.3229169 Z"
     sodipodi:nodetypes="ccccccc" />
  <path
     id="rect1454"
     style="fill:#fafafa;stroke-width:0.264583;stroke-linecap:round;stroke-linejoin:round"
     d="M 1.5875003,0.52916684 V 7.4083336 H 6.3500004 V 0.52916684 Z m 5.0270834,0 V 7.672917 H 6.3500004 2.1166669 V 7.9375003 H 6.879167 V 0.52916684 Z"
     sodipodi:nodetypes="ccccccccccccc" />
  <rect
     style="fill:#41be68;fill-opacity:1;stroke-width:0.368824;stroke-linecap:round;stroke-linejoin:round"
     id="rect6964"
     width="5.0270834"
     height="1.8520833"
     x="1.322917"
     y="0.26458341" />
  <path
     id="rect13579"
     style="fill:#0c7c42;fill-opacity:1;stroke-width:0.373087;stroke-linecap:round;stroke-linejoin:round"
     d="m 6.35,0.26458334 v 0.2645833 l 0.7937497,0.1322917 V 0.39687494 Z M 1.3229167,1.9843751 V 2.2489585 H 6.35 V 1.9843751 Z"
     sodipodi:nodetypes="cccccccccc" />
  <path
     id="rect1708"
     style="opacity:1;fill:#c0c5cb;fill-opacity:1;stroke-width:0.79375;stroke-linecap:round;stroke-linejoin:round"
     d="M 2.38125,3.4395834 V 3.7041668 H 4.4979167 V 3.4395834 Z m 2.38125,0 V 3.7041668 H 5.8208334 V 3.4395834 Z M 2.38125,3.9687501 V 4.2333334 H 4.4979167 V 3.9687501 Z m 2.38125,0 V 4.2333334 H 5.8208334 V 3.9687501 Z M 2.38125,4.4979168 V 4.7625001 H 4.4979167 V 4.4979168 Z m 2.38125,0 V 4.7625001 H 5.8208334 V 4.4979168 Z M 2.38125,5.0270835 V 5.2916668 H 4.4979167 V 5.0270835 Z m 2.38125,0 V 5.2916668 H 5.8208334 V 5.0270835 Z M 2.38125,5.5562501 V 5.8208335 H 4.4979167 V 5.5562501 Z m 2.38125,0 V 5.8208335 H 5.8208334 V 5.5562501 Z"
     sodipodi:nodetypes="cccccccccccccccccccccccccccccccccccccccccccccccccc" />
  <path
     id="rect2355"
     style="opacity:1;fill:#0c7c42;stroke-width:2.66429;stroke-linecap:round;stroke-linejoin:round;fill-opacity:1"
     d="m 0.5291667,2.9104167 h 2.9104166 c 0.1465792,0 0.2645834,0.1180041 0.2645834,0.2645833 v 2.9104171 c 0,0.1465792 -0.1180042,0.2645833 -0.2645834,0.2645833 H 0.5291667 c -0.14657918,0 -0.26458335,-0.1180041 -0.26458335,-0.2645833 V 3.175 c 0,-0.1465792 0.11800417,-0.2645833 0.26458335,-0.2645833 z" />
  <path
     id="rect12096"
     style="fill:#ffffff;fill-opacity:1;stroke-width:0.215397;stroke-linecap:round;stroke-linejoin:round"
     d="M 1.2279267,3.571875 1.7965689,4.5972538 1.190625,5.6885417 H 1.5438699 L 1.8138169,5.162951 c 0.0517,-0.1091341 0.106213,-0.2153132 0.163652,-0.3445508 h 0.011501 c 0.066059,0.1292376 0.120723,0.2354167 0.1752899,0.3445508 l 0.2785006,0.5255907 h 0.370494 L 2.2073089,4.6115575 2.7730069,3.571875 h -0.350301 l -0.247089,0.4968432 c -0.0517,0.097646 -0.09184,0.1924552 -0.146403,0.3216929 h -0.0115 C 1.9516599,4.2611734 1.9057589,4.1663644 1.8540639,4.0687182 L 1.5984209,3.571875 Z" />
</svg>
