<?xml version="1.0" encoding="UTF-8" standalone="no"?>
<!-- Created with Inkscape (http://www.inkscape.org/) -->

<svg
   width="32"
   height="32"
   viewBox="0 0 8.4666665 8.466667"
   version="1.1"
   id="svg5"
   sodipodi:docname="application-vnd.oasis.opendocument.formula-template.svg"
   inkscape:version="1.1.1 (3bf5ae0d25, 2021-09-20, custom)"
   xmlns:inkscape="http://www.inkscape.org/namespaces/inkscape"
   xmlns:sodipodi="http://sodipodi.sourceforge.net/DTD/sodipodi-0.dtd"
   xmlns="http://www.w3.org/2000/svg"
   xmlns:svg="http://www.w3.org/2000/svg">
  <sodipodi:namedview
     id="namedview7"
     pagecolor="#ffffff"
     bordercolor="#666666"
     borderopacity="1.0"
     inkscape:pageshadow="2"
     inkscape:pageopacity="0.0"
     inkscape:pagecheckerboard="0"
     inkscape:document-units="px"
     showgrid="false"
     units="px"
     height="64px"
     inkscape:zoom="18.219785"
     inkscape:cx="20.636907"
     inkscape:cy="17.590767"
     inkscape:window-width="1920"
     inkscape:window-height="996"
     inkscape:window-x="0"
     inkscape:window-y="0"
     inkscape:window-maximized="1"
     inkscape:current-layer="svg5" />
  <defs
     id="defs2" />
  <path
     id="rect846"
     style="fill:#7d7d7b;stroke-width:0.264583;stroke-linecap:round;stroke-linejoin:round"
     d="m 1.3229169,0.26458344 5.8208327,0.1322915 1e-6,7.80520846 H 1.8520836 V 7.6729168 H 1.3229169 Z"
     sodipodi:nodetypes="ccccccc" />
  <path
     id="rect1454"
     style="fill:#fafafa;stroke-width:0.264583;stroke-linecap:round;stroke-linejoin:round"
     d="M 1.5875002,0.52916684 V 7.4083336 H 6.3500004 V 0.52916684 Z m 5.0270835,0 V 7.672917 H 6.3500004 2.1166669 V 7.9375003 H 6.879167 V 0.52916684 Z"
     sodipodi:nodetypes="ccccccccccccc" />
  <rect
     style="fill:#999999;fill-opacity:1;stroke-width:0.368824;stroke-linecap:round;stroke-linejoin:round"
     id="rect6964"
     width="5.0270834"
     height="1.8520833"
     x="1.3229167"
     y="0.26458341" />
  <path
     id="rect13579"
     style="fill:#666666;fill-opacity:1;stroke-width:0.373087;stroke-linecap:round;stroke-linejoin:round"
     d="m 6.35,0.26458334 v 0.2645833 L 7.1437496,0.66145838 V 0.39687494 Z M 1.3229167,1.9843751 V 2.2489585 H 6.35 V 1.9843751 Z"
     sodipodi:nodetypes="cccccccccc" />
  <path
     id="rect844"
     style="fill:#808080;stroke-width:0.529165;stroke-linecap:round;stroke-linejoin:round"
     d="M 3.7041666,3.7041667 3.3403645,5.2916668 2.8442708,4.6302084 2.6458333,4.7625001 3.4395833,5.8208334 3.8966613,3.9687501 H 5.2916667 V 3.7041667 H 3.96875 Z M 3.96875,4.3656251 4.365625,5.0270834 3.96875,5.6885417 H 4.2333333 L 4.5640625,5.1593751 4.8947917,5.6885417 H 5.159375 L 4.7625,5.0270834 5.159375,4.3656251 H 4.8947917 L 4.5640625,4.8947918 4.2333333,4.3656251 Z" />
  <path
     id="rect3044"
     style="fill:#b3b3b3;stroke-width:0.544505;stroke-linecap:round;stroke-linejoin:round"
     d="M 2.1166666,2.9104167 V 3.1750001 H 1.8520834 V 3.4395834 H 2.1166666 V 6.0854167 H 1.8520834 V 6.3500001 H 2.1166666 V 6.6145834 H 2.38125 V 6.3500001 h 3.175 V 6.6145834 H 5.8208333 V 6.3500001 H 6.0854167 V 6.0854167 H 5.8208333 V 3.4395834 H 6.0854167 V 3.1750001 H 5.8208333 V 2.9104167 H 5.55625 v 0.2645834 h -3.175 V 2.9104167 Z M 2.38125,3.4395834 h 3.175 v 2.6458333 h -3.175 z"
     sodipodi:nodetypes="cccccccccccccccccccccccccccccccccc" />
</svg>
