<?xml version="1.0" encoding="UTF-8" standalone="no"?>
<!-- Created with Inkscape (http://www.inkscape.org/) -->

<svg
   width="32"
   height="32"
   viewBox="0 0 8.4666667 8.466667"
   version="1.1"
   id="svg5"
   inkscape:version="1.1.1 (3bf5ae0d25, 2021-09-20, custom)"
   sodipodi:docname="libreoffice-oasis-database.svg"
   xmlns:inkscape="http://www.inkscape.org/namespaces/inkscape"
   xmlns:sodipodi="http://sodipodi.sourceforge.net/DTD/sodipodi-0.dtd"
   xmlns:xlink="http://www.w3.org/1999/xlink"
   xmlns="http://www.w3.org/2000/svg"
   xmlns:svg="http://www.w3.org/2000/svg">
  <sodipodi:namedview
     id="namedview7"
     pagecolor="#ffffff"
     bordercolor="#666666"
     borderopacity="1.0"
     inkscape:pageshadow="2"
     inkscape:pageopacity="0.0"
     inkscape:pagecheckerboard="0"
     inkscape:document-units="px"
     showgrid="false"
     units="px"
     height="64px"
     showguides="true"
     inkscape:zoom="6.9017856"
     inkscape:cx="21.443726"
     inkscape:cy="19.922381"
     inkscape:window-width="1920"
     inkscape:window-height="996"
     inkscape:window-x="0"
     inkscape:window-y="0"
     inkscape:window-maximized="1"
     inkscape:current-layer="svg5" />
  <defs
     id="defs2">
    <linearGradient
       inkscape:collect="always"
       id="linearGradient3723">
      <stop
         style="stop-color:#541a7c;stop-opacity:1"
         offset="0"
         id="stop3719" />
      <stop
         style="stop-color:#702da1;stop-opacity:1"
         offset="1"
         id="stop3721" />
    </linearGradient>
    <linearGradient
       inkscape:collect="always"
       id="linearGradient3529">
      <stop
         style="stop-color:#b67cd7;stop-opacity:1"
         offset="0"
         id="stop3525" />
      <stop
         style="stop-color:#8536bd;stop-opacity:1"
         offset="1"
         id="stop3527" />
    </linearGradient>
    <linearGradient
       inkscape:collect="always"
       xlink:href="#linearGradient3529"
       id="linearGradient3173"
       x1="2.6458333"
       y1="1.0583334"
       x2="14.287499"
       y2="15.875"
       gradientUnits="userSpaceOnUse"
       gradientTransform="matrix(0.49999883,0,0,0.49999883,3.0796875e-6,1.181875e-6)" />
    <linearGradient
       inkscape:collect="always"
       xlink:href="#linearGradient3723"
       id="linearGradient3725"
       x1="54"
       y1="14"
       x2="44"
       y2="4"
       gradientUnits="userSpaceOnUse"
       gradientTransform="matrix(0.13229136,0,0,0.13229136,3.0796875e-6,1.181875e-6)" />
  </defs>
  <path
     id="rect3085"
     style="fill:url(#linearGradient3173);fill-opacity:1;stroke-width:0.529164;stroke-linecap:round;stroke-linejoin:round"
     d="m 1.8520822,0.52916667 c -0.2931577,0 -0.5291655,0.2360077 -0.5291655,0.52916543 v 6.3499855 c 0,0.2931576 0.2360078,0.5291654 0.5291655,0.5291654 h 4.762489 c 0.2931577,0 0.5291655,-0.2360078 0.5291655,-0.5291654 V 3.4395767 C 7.1445437,3.1111058 7.1094989,3.0084648 6.8791538,2.7781198 L 4.8881688,0.79374937 C 4.6948709,0.61063267 4.5903806,0.52916667 4.2928577,0.52916667 Z"
     sodipodi:nodetypes="ssssssccccs" />
  <path
     id="rect2140"
     style="fill:url(#linearGradient3725);fill-opacity:1;stroke-width:0.529164;stroke-linecap:round;stroke-linejoin:round"
     d="M 5.225512,0.72760367 6.9452995,2.4473914 C 7.0023735,2.5065504 7.143389,2.4616494 7.1437365,2.3151 V 1.0583321 c 0,-0.29315773 -0.2360074,-0.52916543 -0.5291653,-0.52916543 H 5.3578031 c -0.1365656,7.8e-4 -0.187527,0.1399975 -0.1322911,0.198437 z"
     sodipodi:nodetypes="cccsscc" />
  <path
     id="rect1255"
     style="fill:#fafafa;fill-opacity:1;stroke-width:0.529164;stroke-linecap:round;stroke-linejoin:round"
     d="m 1.9843735,0.92604067 h 2.2489531 c 0.2000593,-0.00236 0.3315503,0.063181 0.4630198,0.19843713 l 1.852079,1.8520791 c 0.1187012,0.136042 0.198437,0.2326748 0.198437,0.4630197 v 3.8364497 c 0,0.1465787 -0.1180037,0.2645824 -0.2645829,0.2645824 h -4.497906 c -0.1465789,0 -0.2645828,-0.1180037 -0.2645828,-0.2645824 V 1.1906234 c 0,-0.1465788 0.1180039,-0.26458273 0.2645828,-0.26458273 z"
     sodipodi:nodetypes="sccccssssss" />
  <path
     id="path8276-3-6-5"
     style="fill:#541a7c;fill-opacity:1;stroke-width:0.191219;stroke-linecap:round;stroke-linejoin:round"
     d="m 2.9104134,5.5089914 v 0.7370518 c 0,0.2035311 0.5922885,0.3685257 1.3229135,0.3685257 0.730625,0 1.3229138,-0.1649946 1.3229138,-0.3685257 V 5.5089914 Z"
     sodipodi:nodetypes="cssscc" />
  <path
     id="path8276-3-6-7"
     style="fill:#702da1;fill-opacity:1;stroke-width:0.191219;stroke-linecap:round;stroke-linejoin:round"
     d="m 2.9104134,4.8333606 v 0.7370517 c 0,0.2035315 0.5922886,0.3685261 1.3229135,0.3685261 0.730625,0 1.3229138,-0.1649946 1.3229138,-0.3685261 V 4.8333606 Z"
     sodipodi:nodetypes="cssscc" />
  <path
     id="path8276-3-6"
     style="fill:#8536bd;fill-opacity:1;stroke-width:0.191219;stroke-linecap:round;stroke-linejoin:round"
     d="m 2.9104134,4.1577297 v 0.7370519 c 0,0.2035313 0.5922885,0.3685259 1.3229135,0.3685259 0.730625,0 1.3229138,-0.1649946 1.3229138,-0.3685259 V 4.1577297 Z"
     sodipodi:nodetypes="cssscc" />
  <path
     id="path8276-3"
     style="fill:#9a53cd;fill-opacity:1;stroke-width:0.191219;stroke-linecap:round;stroke-linejoin:round"
     d="m 4.2333269,3.2364148 c -0.7306249,0 -1.3229135,0.307105 -1.3229135,0.307105 v 0.6756309 c 0,0.2035313 0.5922886,0.3685259 1.3229135,0.3685259 0.730625,0 1.3229138,-0.1649946 1.3229138,-0.3685259 V 3.5435198 c 0,0 -0.5922888,-0.307105 -1.3229138,-0.307105 z"
     sodipodi:nodetypes="scssscs" />
  <ellipse
     style="fill:#b67cd7;fill-opacity:1;stroke-width:0.191219;stroke-linecap:round;stroke-linejoin:round"
     id="path9564"
     cx="4.2333264"
     cy="3.54352"
     rx="1.3229134"
     ry="0.36852592" />
</svg>
