<?xml version="1.0" encoding="UTF-8" standalone="no"?>
<!-- Created with Inkscape (http://www.inkscape.org/) -->

<svg
   width="32"
   height="32"
   viewBox="0 0 8.4666665 8.466667"
   version="1.1"
   id="svg5"
   inkscape:version="1.1.1 (3bf5ae0d25, 2021-09-20, custom)"
   sodipodi:docname="libreoffice-oasis-formula.svg"
   xmlns:inkscape="http://www.inkscape.org/namespaces/inkscape"
   xmlns:sodipodi="http://sodipodi.sourceforge.net/DTD/sodipodi-0.dtd"
   xmlns:xlink="http://www.w3.org/1999/xlink"
   xmlns="http://www.w3.org/2000/svg"
   xmlns:svg="http://www.w3.org/2000/svg">
  <sodipodi:namedview
     id="namedview7"
     pagecolor="#ffffff"
     bordercolor="#666666"
     borderopacity="1.0"
     inkscape:pageshadow="2"
     inkscape:pageopacity="0.0"
     inkscape:pagecheckerboard="0"
     inkscape:document-units="px"
     showgrid="false"
     units="px"
     height="64px"
     showguides="true"
     inkscape:zoom="12.078125"
     inkscape:cx="31.958603"
     inkscape:cy="32"
     inkscape:window-width="1920"
     inkscape:window-height="996"
     inkscape:window-x="0"
     inkscape:window-y="0"
     inkscape:window-maximized="1"
     inkscape:current-layer="svg5" />
  <defs
     id="defs2">
    <linearGradient
       inkscape:collect="always"
       id="linearGradient3723">
      <stop
         style="stop-color:#3d4c65;stop-opacity:1"
         offset="0"
         id="stop3719" />
      <stop
         style="stop-color:#455572;stop-opacity:1"
         offset="1"
         id="stop3721" />
    </linearGradient>
    <linearGradient
       inkscape:collect="always"
       id="linearGradient3529">
      <stop
         style="stop-color:#526587;stop-opacity:1"
         offset="0"
         id="stop3525" />
      <stop
         style="stop-color:#445471;stop-opacity:1"
         offset="1"
         id="stop3527" />
    </linearGradient>
    <linearGradient
       inkscape:collect="always"
       xlink:href="#linearGradient3529"
       id="linearGradient3173"
       x1="2.6458333"
       y1="1.0583334"
       x2="14.287499"
       y2="15.875"
       gradientUnits="userSpaceOnUse"
       gradientTransform="matrix(0.49999883,0,0,0.49999883,3.0796875e-6,1.181875e-6)" />
    <linearGradient
       inkscape:collect="always"
       xlink:href="#linearGradient3723"
       id="linearGradient3725"
       x1="54"
       y1="14"
       x2="44"
       y2="4"
       gradientUnits="userSpaceOnUse"
       gradientTransform="matrix(0.13229136,0,0,0.13229136,3.0796875e-6,1.181875e-6)" />
  </defs>
  <path
     id="rect3085"
     style="fill:url(#linearGradient3173);fill-opacity:1;stroke-width:0.529164;stroke-linecap:round;stroke-linejoin:round"
     d="m 1.8520822,0.52916667 c -0.2931577,0 -0.5291655,0.2360077 -0.5291655,0.52916543 v 6.3499855 c 0,0.2931576 0.2360078,0.5291654 0.5291655,0.5291654 h 4.762489 c 0.2931577,0 0.5291655,-0.2360078 0.5291655,-0.5291654 V 3.4395767 C 7.1445437,3.1111058 7.1094989,3.0084648 6.8791538,2.7781198 L 4.8947834,0.79374937 C 4.7014855,0.61063267 4.5969951,0.52916667 4.2994722,0.52916667 Z"
     sodipodi:nodetypes="ssssssccccs" />
  <path
     id="rect2140"
     style="fill:url(#linearGradient3725);fill-opacity:1;stroke-width:0.529164;stroke-linecap:round;stroke-linejoin:round"
     d="M 5.225512,0.72760367 6.9452995,2.4473914 C 7.0023735,2.5065504 7.143389,2.4616494 7.1437365,2.3151 V 1.0583321 c 0,-0.29315773 -0.2360074,-0.52916543 -0.5291653,-0.52916543 H 5.3578031 c -0.1365656,7.8e-4 -0.187527,0.1399975 -0.1322911,0.198437 z"
     sodipodi:nodetypes="cccsscc" />
  <path
     id="rect1255"
     style="fill:#fafafa;fill-opacity:1;stroke-width:0.529164;stroke-linecap:round;stroke-linejoin:round"
     d="m 1.9843735,0.92610247 h 2.248953 c 0.2000595,-0.00236 0.3315507,0.063181 0.4630199,0.19843713 l 1.852079,1.8520791 c 0.1187012,0.136042 0.198437,0.2326748 0.198437,0.4630197 v 3.8364494 c 0,0.1465787 -0.1180037,0.2645824 -0.2645829,0.2645824 h -4.497906 c -0.1465788,0 -0.2645827,-0.1180037 -0.2645827,-0.2645824 V 1.1906852 c 0,-0.1465788 0.1180039,-0.26458273 0.2645827,-0.26458273 z"
     sodipodi:nodetypes="sccccssssss" />
  <path
     id="rect853"
     style="fill:#526587;fill-opacity:1;stroke-width:0.529164;stroke-linecap:round;stroke-linejoin:round"
     d="m 3.6323311,3.571868 c -0.00157,4.12e-5 -0.0031,1.806e-4 -0.00465,2.584e-4 -0.00173,8.65e-5 -0.00345,1.272e-4 -0.00517,2.583e-4 -0.00164,1.253e-4 -0.00327,3.539e-4 -0.00491,5.168e-4 -0.00329,3.339e-4 -0.00657,7.969e-4 -0.00982,0.00129 -3.505e-4,5.33e-5 -6.835e-4,2.034e-4 -0.00103,2.584e-4 -0.00121,1.91e-4 -0.00242,3.056e-4 -0.00362,5.169e-4 -0.00172,3.037e-4 -0.00346,6.834e-4 -0.00517,0.00103 -0.00321,6.55e-4 -0.0064,0.00126 -0.00956,0.00207 -0.00217,5.549e-4 -0.00432,0.00118 -0.00646,0.00181 -0.00101,2.954e-4 -0.0021,4.643e-4 -0.0031,7.751e-4 -0.00128,3.995e-4 -0.0026,8.669e-4 -0.00388,0.00129 -0.00308,0.00102 -0.00604,0.00219 -0.00904,0.00336 -0.00218,8.501e-4 -0.00431,0.00166 -0.00646,0.00258 -0.00203,8.75e-4 -0.00394,0.00191 -0.00594,0.00284 -5.75e-4,2.696e-4 -0.00123,5.001e-4 -0.00181,7.752e-4 -0.00104,5.049e-4 -0.00207,0.00103 -0.0031,0.00155 -0.00272,0.00136 -0.00537,0.00265 -0.00801,0.00413 -7.8e-4,4.384e-4 -0.00155,8.469e-4 -0.00233,0.00129 -0.00184,0.00107 -0.00362,0.00223 -0.00543,0.00336 -5.249e-4,3.282e-4 -0.00103,6.986e-4 -0.00155,0.00103 -0.00147,9.401e-4 -0.00295,0.00187 -0.00439,0.00284 -9.551e-4,6.45e-4 -0.0019,0.00141 -0.00284,0.00207 -0.00194,0.00136 -0.0038,0.00271 -0.00568,0.00413 -0.00167,0.00126 -0.00328,0.00256 -0.00491,0.00388 -5.751e-4,4.623e-4 -0.00124,8.269e-4 -0.00181,0.00129 -8.95e-4,7.35e-4 -0.0017,0.00158 -0.00258,0.00233 -0.00209,0.00178 -0.00419,0.00356 -0.0062,0.00543 -6.301e-4,5.85e-4 -0.00119,0.00121 -0.00181,0.00181 -0.00115,0.0011 -0.0025,0.00198 -0.00362,0.0031 -8.2e-4,8.199e-4 -0.00152,0.00174 -0.00233,0.00258 -0.0017,0.00175 -0.00328,0.00361 -0.00491,0.00543 -0.00157,0.00176 -0.00314,0.00361 -0.00465,0.00543 -4.303e-4,5.15e-4 -8.669e-4,0.00103 -0.00129,0.00155 -8.851e-4,0.00108 -0.00172,0.00225 -0.00258,0.00336 -9e-4,0.00115 -0.00197,0.00219 -0.00284,0.00336 -7.449e-4,9.951e-4 -0.00134,0.00209 -0.00207,0.0031 -0.00155,0.00216 -0.00318,0.00423 -0.00465,0.00646 -9.951e-4,0.00151 -0.00189,0.00311 -0.00284,0.00465 -5.299e-4,8.55e-4 -0.00104,0.00172 -0.00155,0.00258 -7.701e-4,0.00129 -0.00159,0.00257 -0.00233,0.00388 -0.00116,0.00206 -0.00226,0.0041 -0.00336,0.0062 -4.761e-4,9.149e-4 -8.32e-4,0.00192 -0.00129,0.00284 -4.9e-4,9.801e-4 -0.00108,0.00186 -0.00155,0.00284 -6.4e-4,0.00134 -0.00119,0.00278 -0.00181,0.00413 -0.00134,0.00296 -0.00268,0.00601 -0.00388,0.00904 -0.00243,0.00615 -0.00465,0.012422 -0.00646,0.018862 -5.75e-4,0.00203 -0.00104,0.00414 -0.00155,0.0062 -6.55e-4,0.00264 -0.00125,0.00532 -0.00181,0.00801 -3.881e-4,0.00188 -6.935e-4,0.00377 -0.00103,0.00568 -2.998e-4,0.00172 -7.786e-4,0.00342 -0.00103,0.00517 L 3.0941224,5.7112674 2.6378205,4.9208782 C 2.5828534,4.8256725 2.461984,4.793306 2.3667782,4.848273 2.2715725,4.90324 2.2389476,5.0241096 2.2939147,5.1193153 l 0.7276025,1.2601268 c 0.054967,0.095206 0.1760949,0.1278306 0.2713006,0.072864 0.05595,-0.032303 0.090086,-0.087515 0.097668,-0.1467608 0.00258,-0.00821 0.00492,-0.016606 0.00646,-0.025321 L 3.8044132,3.9687421 h 2.0825555 c 0.1099343,0 0.1984371,-0.088503 0.1984371,-0.198437 0,-0.1099342 -0.088503,-0.1984371 -0.1984371,-0.1984371 h -2.244819 c -0.0014,-3.32e-5 -0.00273,3.7e-6 -0.00413,0 -0.00192,-5e-6 -0.00377,-5.03e-5 -0.00568,0 z" />
  <g
     id="g2235"
     transform="matrix(0.35355257,-0.35355257,0.35355257,0.35355257,-2.183994,4.9991382)">
    <rect
       style="fill:#3d4c65;fill-opacity:1;stroke-width:1.05833;stroke-linecap:round;stroke-linejoin:round"
       id="rect1831"
       width="0.79374999"
       height="3.7041667"
       x="9.036479"
       y="8.6067457"
       ry="0.39687502" />
    <rect
       style="fill:#455572;fill-opacity:1;stroke-width:1.05833;stroke-linecap:round;stroke-linejoin:round"
       id="rect2043"
       width="0.79374981"
       height="3.7041664"
       x="10.061954"
       y="-11.285437"
       ry="0.3968749"
       transform="rotate(90)" />
  </g>
</svg>
