<?xml version="1.0" encoding="UTF-8" standalone="no"?>
<!-- Created with Inkscape (http://www.inkscape.org/) -->

<svg
   width="32"
   height="32"
   viewBox="0 0 8.4666665 8.466667"
   version="1.1"
   id="svg5"
   sodipodi:docname="text-x-r.svg"
   inkscape:version="1.1.1 (3bf5ae0d25, 2021-09-20, custom)"
   xmlns:inkscape="http://www.inkscape.org/namespaces/inkscape"
   xmlns:sodipodi="http://sodipodi.sourceforge.net/DTD/sodipodi-0.dtd"
   xmlns:xlink="http://www.w3.org/1999/xlink"
   xmlns="http://www.w3.org/2000/svg"
   xmlns:svg="http://www.w3.org/2000/svg">
  <sodipodi:namedview
     id="namedview7"
     pagecolor="#ffffff"
     bordercolor="#666666"
     borderopacity="1.0"
     inkscape:pageshadow="2"
     inkscape:pageopacity="0.0"
     inkscape:pagecheckerboard="0"
     inkscape:document-units="px"
     showgrid="false"
     units="px"
     height="64px"
     inkscape:zoom="24.15625"
     inkscape:cx="15.979301"
     inkscape:cy="16"
     inkscape:window-width="1920"
     inkscape:window-height="996"
     inkscape:window-x="0"
     inkscape:window-y="0"
     inkscape:window-maximized="1"
     inkscape:current-layer="svg5" />
  <defs
     id="defs2">
    <linearGradient
       inkscape:collect="always"
       xlink:href="#linearGradient1284"
       id="linearGradient1689"
       gradientUnits="userSpaceOnUse"
       x1="0.90600002"
       y1="4.4685059"
       x2="722"
       y2="484.46851"
       gradientTransform="matrix(0.00513687,0,0,0.00513687,2.3765962,3.4241727)" />
    <linearGradient
       inkscape:collect="always"
       id="linearGradient1284">
      <stop
         style="stop-color:#cbced0;stop-opacity:1;"
         offset="0"
         id="stop1280" />
      <stop
         style="stop-color:#84838b;stop-opacity:1"
         offset="1"
         id="stop1282" />
    </linearGradient>
    <linearGradient
       inkscape:collect="always"
       xlink:href="#linearGradient2397"
       id="linearGradient2399"
       x1="298"
       y1="152.938"
       x2="696"
       y2="559"
       gradientUnits="userSpaceOnUse"
       gradientTransform="matrix(0.00513687,0,0,0.00513687,2.3765962,3.4241727)" />
    <linearGradient
       inkscape:collect="always"
       id="linearGradient2397">
      <stop
         style="stop-color:#276dc3;stop-opacity:1;"
         offset="0"
         id="stop2393" />
      <stop
         style="stop-color:#165caa;stop-opacity:1"
         offset="1"
         id="stop2395" />
    </linearGradient>
  </defs>
  <path
     id="rect846"
     style="fill:#7d7d7b;stroke-width:0.264583;stroke-linecap:round;stroke-linejoin:round"
     d="M 1.3229167,0.2645833 H 5.5562501 L 7.14375,1.8520832 V 8.2020833 H 1.3229167 Z"
     sodipodi:nodetypes="cccccc" />
  <path
     id="rect1454"
     style="fill:#fafafa;stroke-width:0.264583;stroke-linecap:round;stroke-linejoin:round"
     d="M 1.5875,0.5291663 V 7.9374997 H 6.8791666 V 2.3151041 H 5.3578125 c -0.1814317,0 -0.2645831,-0.1297126 -0.2645831,-0.2645834 V 0.5291663 Z m 3.7703125,0 v 1.5213544 h 1.5213541 z"
     sodipodi:nodetypes="ccccsscccccc" />
  <path
     d="m 4.2333331,5.9203688 c -1.0228739,0 -1.8520831,-0.555342 -1.8520831,-1.2403901 0,-0.6850535 0.8292092,-1.2403953 1.8520831,-1.2403953 1.0228801,0 1.8520836,0.5553418 1.8520836,1.2403953 0,0.6850481 -0.8292035,1.2403901 -1.8520836,1.2403901 z m 0.2834936,-1.995834 c -0.7774755,0 -1.4077437,0.3796557 -1.4077437,0.8479845 0,0.4683285 0.6302682,0.8479845 1.4077437,0.8479845 0.777471,0 1.351234,-0.259561 1.351234,-0.8479845 0,-0.5882388 -0.573763,-0.8479845 -1.351234,-0.8479845 z"
     style="fill:url(#linearGradient1689);fill-opacity:1;stroke-width:0.00513685"
     fill-rule="evenodd"
     id="path14" />
  <path
     d="m 5.2018747,5.3607733 c 0,0 0.112097,0.03383 0.1772225,0.066779 0.0226,0.01144 0.061693,0.034255 0.089895,0.064211 0.027625,0.02934 0.041095,0.059074 0.041095,0.059074 L 5.9518577,6.2956844 5.2378327,6.2960029 4.9039359,5.6689858 c 0,0 -0.068372,-0.117475 -0.1104428,-0.1515375 -0.035097,-0.028415 -0.05006,-0.03853 -0.084758,-0.03853 -0.024155,0 -0.1696504,0 -0.1696504,0 l 1.341e-4,0.8166296 -0.6318351,2.67e-4 V 4.2097955 h 1.2688066 c 0,0 0.5778975,0.010425 0.5778975,0.5602376 0,0.5498142 -0.5522135,0.5907402 -0.5522131,0.5907402 z M 4.9270524,4.6622821 4.5445456,4.6620354 4.544355,5.0167359 4.9270519,5.0166134 c 0,0 0.1772222,-5.5e-4 0.1772222,-0.180432 0,-0.1834992 -0.1772222,-0.1738981 -0.1772222,-0.1738981 z"
     style="fill:url(#linearGradient2399);fill-opacity:1;stroke-width:0.00513685"
     fill-rule="evenodd"
     id="path16" />
</svg>
