<?xml version="1.0" encoding="UTF-8" standalone="no"?>
<!-- Created with Inkscape (http://www.inkscape.org/) -->

<svg
   width="32"
   height="32"
   viewBox="0 0 8.4666665 8.466667"
   version="1.1"
   id="svg5"
   sodipodi:docname="text-x-python.svg"
   inkscape:version="1.1.1 (3bf5ae0d25, 2021-09-20, custom)"
   xmlns:inkscape="http://www.inkscape.org/namespaces/inkscape"
   xmlns:sodipodi="http://sodipodi.sourceforge.net/DTD/sodipodi-0.dtd"
   xmlns="http://www.w3.org/2000/svg"
   xmlns:svg="http://www.w3.org/2000/svg">
  <sodipodi:namedview
     id="namedview7"
     pagecolor="#ffffff"
     bordercolor="#666666"
     borderopacity="1.0"
     inkscape:pageshadow="2"
     inkscape:pageopacity="0.0"
     inkscape:pagecheckerboard="0"
     inkscape:document-units="px"
     showgrid="false"
     units="px"
     height="64px"
     inkscape:zoom="24.15625"
     inkscape:cx="15.979301"
     inkscape:cy="16"
     inkscape:window-width="1920"
     inkscape:window-height="996"
     inkscape:window-x="0"
     inkscape:window-y="0"
     inkscape:window-maximized="1"
     inkscape:current-layer="svg5" />
  <defs
     id="defs2" />
  <path
     id="rect846"
     style="fill:#7d7d7b;stroke-width:0.264583;stroke-linecap:round;stroke-linejoin:round"
     d="M 1.3229167,0.2645833 H 5.5562501 L 7.14375,1.8520832 V 8.2020833 H 1.3229167 Z"
     sodipodi:nodetypes="cccccc" />
  <path
     id="rect1454"
     style="fill:#fafafa;stroke-width:0.264583;stroke-linecap:round;stroke-linejoin:round"
     d="M 1.5875,0.5291663 V 7.9374997 H 6.8791666 V 2.3151041 H 5.3578125 c -0.1814317,0 -0.2645831,-0.1297126 -0.2645831,-0.2645834 V 0.5291663 Z m 3.7703125,0 v 1.5213544 h 1.5213541 z"
     sodipodi:nodetypes="ccccsscccccc" />
  <path
     id="path17"
     style="fill:#347ab4;fill-opacity:1;stroke-width:0.0319327"
     d="m 4.1694686,3.175 c -0.4245771,0 -0.7663793,0.170901 -0.7663793,0.3831897 V 4.0691092 H 4.1694686 V 4.196839 H 2.7644397 c -0.2122883,0 -0.3831897,0.3418023 -0.3831897,0.7663794 v 0.1277298 c 0,0.424577 0.1709014,0.7663795 0.3831897,0.7663795 H 3.2753595 V 5.4741382 c 0,0 -3.8e-6,-0.5109198 0.5109194,-0.5109198 h 1.0218393 c 0,0 0.2554594,1.8e-6 0.2554594,-0.2554598 V 3.5581897 C 5.0635776,3.345901 4.7217754,3.175 4.2971983,3.175 Z M 3.7862789,3.4304597 c 0.070543,0 0.1277297,0.057187 0.1277297,0.12773 0,0.070543 -0.057187,0.1277298 -0.1277297,0.1277298 -0.070543,0 -0.1277297,-0.057187 -0.1277297,-0.1277298 0,-0.070543 0.057187,-0.12773 0.1277297,-0.12773 z" />
  <path
     id="path19"
     style="fill:#ffd43b;fill-opacity:1;stroke-width:0.0319327"
     d="m 5.1913077,4.196839 v 0.5109196 c 0,0.3831923 -0.3831895,0.3831896 -0.3831895,0.3831896 H 3.7862789 c -0.383192,0 -0.3831896,0.38319 -0.3831896,0.38319 v 1.0218386 c 0,0.212289 0.3418022,0.3831895 0.7663793,0.3831895 h 0.1277297 c 0.4245771,0 0.7663793,-0.1709005 0.7663793,-0.3831895 V 5.9850573 H 4.2971983 V 5.8573277 h 1.4050289 c 0.212289,0 0.3831895,-0.3418025 0.3831895,-0.7663795 V 4.9632184 c 0,-0.4245771 -0.1709005,-0.7663794 -0.3831895,-0.7663794 z M 4.680388,6.2405173 c 0.070543,0 0.1277302,0.057187 0.1277302,0.12773 0,0.070542 -0.057188,0.1277295 -0.1277302,0.1277295 -0.070542,0 -0.1277297,-0.057187 -0.1277297,-0.1277295 0,-0.070543 0.057187,-0.12773 0.1277297,-0.12773 z" />
</svg>
