<?xml version="1.0" encoding="UTF-8" standalone="no"?>
<!-- Created with Inkscape (http://www.inkscape.org/) -->

<svg
   width="32"
   height="32"
   viewBox="0 0 8.4666665 8.466667"
   version="1.1"
   id="svg5"
   sodipodi:docname="text-x-php.svg"
   inkscape:version="1.1.1 (3bf5ae0d25, 2021-09-20, custom)"
   xmlns:inkscape="http://www.inkscape.org/namespaces/inkscape"
   xmlns:sodipodi="http://sodipodi.sourceforge.net/DTD/sodipodi-0.dtd"
   xmlns="http://www.w3.org/2000/svg"
   xmlns:svg="http://www.w3.org/2000/svg">
  <sodipodi:namedview
     id="namedview7"
     pagecolor="#ffffff"
     bordercolor="#666666"
     borderopacity="1.0"
     inkscape:pageshadow="2"
     inkscape:pageopacity="0.0"
     inkscape:pagecheckerboard="0"
     inkscape:document-units="px"
     showgrid="false"
     units="px"
     height="64px"
     inkscape:zoom="24.15625"
     inkscape:cx="15.979301"
     inkscape:cy="16"
     inkscape:window-width="1920"
     inkscape:window-height="996"
     inkscape:window-x="0"
     inkscape:window-y="0"
     inkscape:window-maximized="1"
     inkscape:current-layer="svg5" />
  <defs
     id="defs2" />
  <path
     id="rect846"
     style="fill:#7d7d7b;stroke-width:0.264583;stroke-linecap:round;stroke-linejoin:round"
     d="M 1.3229167,0.2645833 H 5.5562501 L 7.14375,1.8520832 V 8.2020833 H 1.3229167 Z"
     sodipodi:nodetypes="cccccc" />
  <path
     id="rect1454"
     style="fill:#fafafa;stroke-width:0.264583;stroke-linecap:round;stroke-linejoin:round"
     d="M 1.5875,0.5291663 V 7.9374997 H 6.8791666 V 2.3151041 H 5.3578125 c -0.1814317,0 -0.2645831,-0.1297126 -0.2645831,-0.2645834 V 0.5291663 Z m 3.7703125,0 v 1.5213544 h 1.5213541 z"
     sodipodi:nodetypes="ccccsscccccc" />
  <path
     id="path16140"
     style="font-size:5.61078px;line-height:1.25;font-family:'Noto Sans CJK KR';-inkscape-font-specification:'Noto Sans CJK KR';fill:#608bf3;fill-opacity:1;stroke-width:0.070135"
     d="m 4.2235149,3.6088324 c -0.2272366,0 -0.4068367,0.1094382 -0.5358846,0.2581238 l 0.145986,0.1346171 c 0.098189,-0.1122156 0.2214655,-0.1795756 0.361735,-0.1795756 0.2019881,0 0.3030822,0.1347589 0.3030822,0.3030823 0,0.3338414 -0.4993443,0.5133515 -0.432015,1.0014893 h 0.227118 C 4.2430395,4.6861231 4.7480307,4.5206775 4.7480307,4.1082852 4.7480307,3.7996923 4.540524,3.6088324 4.2235149,3.6088324 Z M 3.4633546,4.0744371 2.1166667,4.6046374 V 4.8066922 L 3.4633546,5.3368924 V 5.1126167 L 2.7982789,4.8684455 2.3776327,4.7113491 v -0.01111 L 2.7982789,4.5431424 3.4633546,4.2961289 Z m 1.5399575,0 v 0.2216918 l 0.6622335,0.2470135 0.4206465,0.1570963 v 0.01111 L 5.6655456,4.8684449 5.0033121,5.1126162 V 5.3368924 L 6.3500001,4.8066922 V 4.6046374 Z m -0.816229,1.3185242 c -0.1037995,0 -0.1824179,0.078545 -0.1824179,0.1963704 0,0.115021 0.078618,0.1937867 0.1824179,0.1937867 0.1037993,0 0.1878438,-0.078766 0.1878437,-0.1937867 0,-0.1178259 -0.084044,-0.1963704 -0.1878437,-0.1963704 z" />
</svg>
