<?xml version="1.0" encoding="UTF-8" standalone="no"?>
<!-- Created with Inkscape (http://www.inkscape.org/) -->

<svg
   width="32"
   height="32"
   viewBox="0 0 8.4666665 8.466667"
   version="1.1"
   id="svg5"
   sodipodi:docname="text-rust.svg"
   inkscape:version="1.1.1 (3bf5ae0d25, 2021-09-20, custom)"
   xmlns:inkscape="http://www.inkscape.org/namespaces/inkscape"
   xmlns:sodipodi="http://sodipodi.sourceforge.net/DTD/sodipodi-0.dtd"
   xmlns:xlink="http://www.w3.org/1999/xlink"
   xmlns="http://www.w3.org/2000/svg"
   xmlns:svg="http://www.w3.org/2000/svg">
  <sodipodi:namedview
     id="namedview7"
     pagecolor="#ffffff"
     bordercolor="#666666"
     borderopacity="1.0"
     inkscape:pageshadow="2"
     inkscape:pageopacity="0.0"
     inkscape:pagecheckerboard="0"
     inkscape:document-units="px"
     showgrid="false"
     units="px"
     height="64px"
     inkscape:zoom="24.15625"
     inkscape:cx="15.979301"
     inkscape:cy="16"
     inkscape:window-width="1920"
     inkscape:window-height="996"
     inkscape:window-x="0"
     inkscape:window-y="0"
     inkscape:window-maximized="1"
     inkscape:current-layer="svg5" />
  <defs
     id="defs2">
    <linearGradient
       inkscape:collect="always"
       xlink:href="#linearGradient6322"
       id="linearGradient6324"
       x1="4.4979196"
       y1="5.8207517"
       x2="12.435461"
       y2="13.229085"
       gradientUnits="userSpaceOnUse"
       gradientTransform="matrix(0.5333305,0,0,0.5333305,-0.28221136,-0.05290087)" />
    <linearGradient
       inkscape:collect="always"
       id="linearGradient6322">
      <stop
         style="stop-color:#333333;stop-opacity:1;"
         offset="0"
         id="stop6318" />
      <stop
         style="stop-color:#683f2b;stop-opacity:1"
         offset="1"
         id="stop6320" />
    </linearGradient>
  </defs>
  <path
     id="rect846"
     style="fill:#7d7d7b;stroke-width:0.264583;stroke-linecap:round;stroke-linejoin:round"
     d="M 1.3229167,0.2645833 H 5.5562501 L 7.14375,1.8520832 V 8.2020833 H 1.3229167 Z"
     sodipodi:nodetypes="cccccc" />
  <path
     id="rect1454"
     style="fill:#fafafa;stroke-width:0.264583;stroke-linecap:round;stroke-linejoin:round"
     d="M 1.5875,0.5291663 V 7.9374997 H 6.8791666 V 2.3151041 H 5.3578125 c -0.1814317,0 -0.2645831,-0.1297126 -0.2645831,-0.2645834 V 0.5291663 Z m 3.7703125,0 v 1.5213544 h 1.5213541 z"
     sodipodi:nodetypes="ccccsscccccc" />
  <path
     id="path15"
     d="m 4.233336,2.9104167 c -0.020373,8.03e-5 -0.04077,0.00908 -0.051814,0.02701 L 4.0712795,3.1154678 4.0194655,3.1204278 3.8769771,2.9674665 C 3.8480701,2.9365375 3.7895491,2.9480255 3.7747272,2.9878605 L 3.7016922,3.1832653 3.6512562,3.1984233 3.482034,3.0766053 C 3.447623,3.0517513 3.392372,3.0747753 3.385572,3.1165683 L 3.351948,3.322446 3.305922,3.347251 3.1157537,3.260711 c -0.038619,-0.017654 -0.088162,0.01553 -0.08654,0.057877 l 0.00716,0.2091851 -0.039963,0.033073 -0.2036729,-0.048231 c -0.041372,-0.00964 -0.08358,0.032491 -0.073863,0.073863 L 2.7668298,3.790151 2.7340328,3.830114 2.5248477,3.822944 c -0.042187,-0.00123 -0.075446,0.047836 -0.057877,0.08654 l 0.08654,0.1901681 -0.024805,0.046302 -0.2058778,0.033349 c -0.041861,0.0068 -0.064661,0.062047 -0.039962,0.096463 l 0.1218235,0.169226 -0.015158,0.050436 -0.1954048,0.073036 c -0.039675,0.014816 -0.051404,0.073257 -0.020395,0.1022498 L 2.326693,4.8132024 2.321733,4.8650164 2.1436914,4.9752588 c -0.036032,0.022267 -0.036032,0.081717 0,0.1039037 L 2.321733,5.189405 2.326693,5.241219 2.1737316,5.3837075 c -0.031008,0.028907 -0.01928,0.087354 0.020395,0.1022495 l 0.1954048,0.073036 0.015158,0.050437 -0.121818,0.169222 c -0.024774,0.03449 -0.00187,0.089467 0.039963,0.096187 l 0.2058778,0.033627 0.024805,0.046304 -0.08654,0.1898928 c -0.017648,0.038619 0.015695,0.088517 0.057877,0.086816 l 0.2091851,-0.00744 0.032797,0.04024 -0.047956,0.203673 c -0.00972,0.041296 0.032491,0.083299 0.073862,0.073587 l 0.2036729,-0.047957 0.039963,0.032794 -0.00717,0.209185 c -0.0016,0.042346 0.047921,0.075531 0.08654,0.057878 l 0.1901682,-0.08654 0.046026,0.024805 0.033624,0.2058778 c 0.0068,0.041941 0.062051,0.064657 0.096462,0.039962 l 0.1692221,-0.1220943 0.050436,0.015435 0.073036,0.1954048 c 0.014816,0.039669 0.073073,0.051482 0.1019743,0.020395 l 0.142764,-0.1529613 0.051814,0.00523 0.1099669,0.177766 c 0.022187,0.035861 0.081912,0.035946 0.1041793,0 l 0.1102424,-0.177766 0.051814,-0.00523 0.1424885,0.1529613 c 0.028906,0.031092 0.087427,0.019273 0.1022491,-0.020396 L 4.76525,6.8708836 4.815686,6.8554486 4.9849082,6.9775424 c 0.034411,0.024693 0.089387,0.00192 0.096187,-0.039963 l 0.033627,-0.2058778 0.046304,-0.024805 0.1898929,0.08654 c 0.038619,0.017653 0.088357,-0.015451 0.086816,-0.057877 l -0.00744,-0.2091856 0.04024,-0.0328 0.203673,0.047957 c 0.041376,0.00971 0.083304,-0.032288 0.073587,-0.073587 l -0.047957,-0.2036731 0.032794,-0.04024 0.2091851,0.00744 c 0.042181,0.00171 0.075611,-0.048197 0.057878,-0.086816 L 5.9131552,5.954762 5.9379602,5.908458 6.1438375,5.874831 c 0.041941,-0.00672 0.064822,-0.06169 0.039962,-0.096186 l -0.121818,-0.1692226 0.015157,-0.050437 0.1954048,-0.073035 c 0.039754,-0.014896 0.051488,-0.073343 0.020395,-0.1022501 L 6.1399769,5.241212 6.1452069,5.189398 6.3229729,5.0791556 c 0.036032,-0.022187 0.036037,-0.081637 0,-0.1039037 L 6.1452079,4.8650102 6.1399812,4.813196 6.2929426,4.6707076 c 0.031093,-0.028992 0.01936,-0.087433 -0.020395,-0.1022493 l -0.195405,-0.073036 -0.015157,-0.050436 0.121818,-0.1692222 c 0.024859,-0.034416 0.00219,-0.089577 -0.039685,-0.096462 l -0.2061539,-0.033348 -0.024805,-0.046302 0.08654,-0.1901682 c 0.017733,-0.038705 -0.015285,-0.088162 -0.057878,-0.08654 l -0.2089093,0.00717 -0.033072,-0.039963 0.047957,-0.2036729 c 0.00972,-0.041371 -0.032213,-0.08358 -0.073587,-0.073862 l -0.203673,0.048231 -0.04024,-0.033073 0.00744,-0.209185 c 0.0016,-0.042347 -0.047914,-0.075451 -0.08654,-0.057877 l -0.1901678,0.08654 -0.046304,-0.024805 -0.033627,-0.2058777 c -0.0068,-0.041772 -0.061781,-0.064742 -0.096186,-0.039958 L 4.8156913,3.1984251 4.7652553,3.1832667 4.6922197,2.9878619 C 4.6774035,2.9480267 4.6188768,2.9365386 4.5899698,2.967467 L 4.4474814,3.1204284 4.3956675,3.115467 4.2854251,2.9374253 c -0.011086,-0.01793 -0.031441,-0.026928 -0.051814,-0.027008 z m -0.00661,0.3728951 c 0.062929,0 0.125984,0.042041 0.125952,0.125952 -7.1e-5,0.1677037 -0.2515644,0.1677037 -0.2516284,0 -3.52e-5,-0.083911 0.062747,-0.125952 0.1256764,-0.125952 z M 4.5188647,3.4905676 C 4.9661511,3.5743506 5.3540073,3.8506598 5.579397,4.2460042 L 5.4308453,4.5811413 c -0.025627,0.058017 5.866e-4,0.1258764 0.058429,0.1515833 l 0.2858033,0.1267789 c 0.00889,0.089377 0.00975,0.1794224 0.00304,0.2689916 H 5.6193701 c -0.015909,0 -0.022325,0.010593 -0.022325,0.026183 v 0.07276 c 0,0.1718156 -0.097008,0.209322 -0.1818998,0.2188313 -0.080859,0.00911 -0.1703026,-0.03376 -0.1813585,-0.083233 C 5.1860951,5.0947868 5.1065505,5.0373042 4.9810555,4.9383269 5.1367967,4.8394241 5.2988294,4.6934773 5.2988294,4.4981838 5.2988294,4.2873009 5.1542793,4.1545969 5.0557449,4.0894599 4.9174922,3.9983332 4.7643848,3.9896905 4.7230881,3.9896905 H 3.079373 C 3.3066082,3.7357668 3.6110525,3.5541242 3.9458788,3.4908432 l 0.1937511,0.2033975 c 0.043804,0.045867 0.116502,0.047688 0.162332,0.00386 z M 2.7257709,4.4223921 c 0.062929,0 0.1257084,0.042036 0.1256764,0.1259521 -7.04e-5,0.1676983 -0.2515643,0.1676983 -0.2516284,0 -3.51e-5,-0.083911 0.063023,-0.1259521 0.125952,-0.1259521 z m 3.0019027,0.00606 c 0.062929,0 0.1259838,0.04176 0.1259518,0.1256765 -7.04e-5,0.1676984 -0.2515645,0.1676984 -0.2516285,0 -3.52e-5,-0.083916 0.062747,-0.1256764 0.1256767,-0.1256765 z m -2.7378727,0.049609 h 0.1852074 l -5.494e-4,0.980607 H 2.7434098 C 2.688737,5.2666312 2.6717026,5.0455948 2.6932496,4.8471012 L 2.9641704,4.7266614 c 0.057894,-0.025707 0.084136,-0.093572 0.058429,-0.1515835 z m 0.8364647,0 h 0.5724341 c 0.027003,0 0.1907195,0.011008 0.1907195,0.1333935 0,0.1016066 -0.1255196,0.1515833 -0.2287532,0.1515833 H 3.8262656 Z m 0,0.6512573 H 4.282945 c 0.036555,0 0.1953103,0.051283 0.2461164,0.2543848 0.01591,0.062465 0.051076,0.2656705 0.074965,0.3307273 0.023803,0.072951 0.1205162,0.2290286 0.2237923,0.2290286 h 0.653738 C 5.4377167,6.0021401 5.3899267,6.0472912 5.338241,6.09918 L 5.0720056,6.0418539 c -0.06198,-0.01328 -0.1228692,0.026091 -0.1361494,0.088194 L 4.8727423,6.4249468 C 4.4617603,6.611109 3.9898798,6.6087117 3.5807006,6.4186082 L 3.5175867,6.1239852 C 3.5043068,6.0619679 3.4433795,6.0224732 3.3814374,6.035791 L 3.1212651,6.091739 C 3.0729231,6.0419515 3.0280125,5.9992765 2.9867693,5.9434624 H 4.233336 V 5.4550885 H 3.8262656 Z m -0.5316443,1.066324 c 0.062929,0 0.1259841,0.041765 0.125952,0.1256761 -7.04e-5,0.1676984 -0.2518347,0.1676984 -0.251904,0 -3.51e-5,-0.083916 0.063023,-0.1256761 0.125952,-0.1256761 z m 1.8642003,0.00579 c 0.062929,0 0.1259839,0.042042 0.1259519,0.1259519 -7.04e-5,0.1677037 -0.2515645,0.1677037 -0.2516284,0 -3.53e-5,-0.083916 0.062748,-0.1259519 0.1256765,-0.1259519 z"
     style="fill:url(#linearGradient6324);fill-opacity:1;stroke-width:0.14111" />
</svg>
