<?xml version="1.0" encoding="UTF-8" standalone="no"?>
<!-- Created with Inkscape (http://www.inkscape.org/) -->

<svg
   width="32"
   height="32"
   viewBox="0 0 8.4666665 8.466667"
   version="1.1"
   id="svg5"
   sodipodi:docname="text-richtext.svg"
   inkscape:version="1.1.1 (3bf5ae0d25, 2021-09-20, custom)"
   xmlns:inkscape="http://www.inkscape.org/namespaces/inkscape"
   xmlns:sodipodi="http://sodipodi.sourceforge.net/DTD/sodipodi-0.dtd"
   xmlns="http://www.w3.org/2000/svg"
   xmlns:svg="http://www.w3.org/2000/svg">
  <sodipodi:namedview
     id="namedview7"
     pagecolor="#ffffff"
     bordercolor="#666666"
     borderopacity="1.0"
     inkscape:pageshadow="2"
     inkscape:pageopacity="0.0"
     inkscape:pagecheckerboard="0"
     inkscape:document-units="px"
     showgrid="false"
     units="px"
     height="64px"
     inkscape:zoom="17.081048"
     inkscape:cx="26.344987"
     inkscape:cy="21.86634"
     inkscape:window-width="1920"
     inkscape:window-height="996"
     inkscape:window-x="0"
     inkscape:window-y="0"
     inkscape:window-maximized="1"
     inkscape:current-layer="svg5" />
  <defs
     id="defs2" />
  <path
     id="rect846"
     style="fill:#7d7d7b;stroke-width:0.264583;stroke-linecap:round;stroke-linejoin:round"
     d="M 1.3229167,0.2645833 H 5.5562501 L 7.14375,1.8520832 V 8.2020833 H 1.3229167 Z"
     sodipodi:nodetypes="cccccc" />
  <path
     id="rect1454"
     style="fill:#fafafa;stroke-width:0.264583;stroke-linecap:round;stroke-linejoin:round"
     d="M 1.5875,0.5291663 V 7.9374997 H 6.8791666 V 2.3151041 H 5.3578125 c -0.1814317,0 -0.2645831,-0.1297126 -0.2645831,-0.2645834 V 0.5291663 Z m 3.7703125,0 v 1.5213544 h 1.5213541 z"
     sodipodi:nodetypes="ccccsscccccc" />
  <path
     id="rect3166"
     style="opacity:1;fill:#999999;fill-opacity:1;stroke-width:1.76383;stroke-linecap:round;stroke-linejoin:round"
     d="M 10.988281 11 L 8.7988281 17.585938 L 8 17.689453 L 8 18 L 10.132812 18 L 10.132812 17.689453 L 9.25 17.585938 L 9.8320312 15.736328 L 12.105469 15.736328 L 12.707031 17.585938 L 11.748047 17.689453 L 11.748047 18 L 14.792969 18 L 14.792969 17.689453 L 14.060547 17.615234 L 11.814453 11 L 10.988281 11 z M 16 11 L 16 12 L 24 12 L 24 11 L 16 11 z M 10.958984 12.15625 L 12.011719 15.416016 L 9.9355469 15.416016 L 10.958984 12.15625 z M 16 14 L 16 15 L 24 15 L 24 14 L 16 14 z M 16 17 L 16 18 L 24 18 L 24 17 L 16 17 z M 8 20 L 8 21 L 24 21 L 24 20 L 8 20 z M 8 23 L 8 24 L 24 24 L 24 23 L 8 23 z M 8 26 L 8 27 L 20 27 L 20 26 L 8 26 z "
     transform="scale(0.26458334)" />
</svg>
