<?xml version="1.0" encoding="UTF-8" standalone="no"?>
<!-- Created with Inkscape (http://www.inkscape.org/) -->

<svg
   width="32"
   height="32"
   viewBox="0 0 8.4666665 8.466667"
   version="1.1"
   id="svg5"
   sodipodi:docname="text-x-go.svg"
   inkscape:version="1.1.1 (3bf5ae0d25, 2021-09-20, custom)"
   xmlns:inkscape="http://www.inkscape.org/namespaces/inkscape"
   xmlns:sodipodi="http://sodipodi.sourceforge.net/DTD/sodipodi-0.dtd"
   xmlns="http://www.w3.org/2000/svg"
   xmlns:svg="http://www.w3.org/2000/svg">
  <sodipodi:namedview
     id="namedview7"
     pagecolor="#ffffff"
     bordercolor="#666666"
     borderopacity="1.0"
     inkscape:pageshadow="2"
     inkscape:pageopacity="0.0"
     inkscape:pagecheckerboard="0"
     inkscape:document-units="px"
     showgrid="false"
     units="px"
     height="64px"
     inkscape:zoom="24.15625"
     inkscape:cx="15.979301"
     inkscape:cy="16"
     inkscape:window-width="1920"
     inkscape:window-height="996"
     inkscape:window-x="0"
     inkscape:window-y="0"
     inkscape:window-maximized="1"
     inkscape:current-layer="svg5" />
  <defs
     id="defs2" />
  <path
     id="rect846"
     style="fill:#7d7d7b;stroke-width:0.264583;stroke-linecap:round;stroke-linejoin:round"
     d="M 1.3229167,0.2645833 H 5.5562501 L 7.14375,1.8520832 V 8.2020833 H 1.3229167 Z"
     sodipodi:nodetypes="cccccc" />
  <path
     id="rect1454"
     style="fill:#fafafa;stroke-width:0.264583;stroke-linecap:round;stroke-linejoin:round"
     d="M 1.5875,0.5291663 V 7.9374997 H 6.8791666 V 2.3151041 H 5.3578125 c -0.1814317,0 -0.2645831,-0.1297126 -0.2645831,-0.2645834 V 0.5291663 Z m 3.7703125,0 v 1.5213544 h 1.5213541 z"
     sodipodi:nodetypes="ccccsscccccc" />
  <path
     id="path17"
     style="fill:#31c6b7;stroke-width:0.0280595"
     d="M 3.3682021,3.7041667 C 3.2961074,3.7041544 3.2229665,3.7112821 3.148784,3.7246984 2.826099,3.7836235 2.5623567,3.9493338 2.3631337,4.2102877 2.1779405,4.4516 2.0881908,4.7264522 2.124668,5.0323015 2.1555336,5.2904495 2.2732416,5.4980484 2.4808822,5.6551817 2.7053589,5.8235391 2.9606274,5.87694 3.2356113,5.8404626 3.5695201,5.7955671 3.8333328,5.6300971 4.0353617,5.3635313 c 0.045798,-0.06037 0.085182,-0.1239673 0.117996,-0.1902284 0.04729,0.1708379 0.1423875,0.3177032 0.2805186,0.4371046 0.196417,0.1683575 0.429381,0.241264 0.6847229,0.2468763 0.072955,-0.00842 0.1486049,-0.011201 0.2243656,-0.025232 C 5.6039188,5.778739 5.8311157,5.6608686 6.0163086,5.4728693 6.2772628,5.2091093 6.3868303,4.900532 6.3391278,4.5217278 6.3026503,4.252356 6.1652519,4.0474009 5.9435815,3.8958792 5.6994629,3.7303277 5.4300386,3.7023915 5.1438311,3.7528988 4.809922,3.8118238 4.5630157,3.9520476 4.3581808,4.2214193 4.2703813,4.3363335 4.2045474,4.4577597 4.1639946,4.5862917 H 3.2610905 c -0.042089,0 -0.061835,0.027938 -0.070253,0.044774 -0.039283,0.072955 -0.1067503,0.218766 -0.1432278,0.3057507 -0.019642,0.047701 -0.00549,0.084353 0.053432,0.084354 H 3.6425366 C 3.6144769,5.0604531 3.5920944,5.0939526 3.566841,5.1248183 3.440573,5.2679221 3.2807148,5.3353525 3.0899097,5.3100992 2.8682392,5.2792337 2.7137425,5.094008 2.7109374,4.8695314 2.708132,4.6422489 2.8063405,4.4599089 2.9971456,4.336447 3.1570852,4.2326265 3.3282231,4.2074092 3.5049983,4.2943938 c 0.058925,0.028059 0.090007,0.058916 0.1320961,0.1066169 0.036477,0.042089 0.039048,0.039177 0.081138,0.027953 0.1739693,-0.044895 0.2947139,-0.078543 0.4714891,-0.1234381 0.033671,-0.00842 0.045036,-0.022489 0.0282,-0.047742 C 4.1477725,4.0950375 4.0410969,3.9604452 3.8923813,3.8622367 3.729022,3.7513137 3.5524441,3.7041982 3.3682021,3.7041667 Z m 1.9606626,0.5405056 c 0.2179672,0.0036 0.4063608,0.1520084 0.4489782,0.3863934 0.00559,0.028059 0.00559,0.056039 0.00841,0.092517 C 5.7722229,4.9648948 5.651709,5.1445915 5.4300387,5.2596357 5.2813229,5.3353967 5.1269773,5.3437997 4.9726497,5.2764567 4.7706219,5.1866662 4.6638882,4.964958 4.7143954,4.7460932 4.7761264,4.4823335 4.9444728,4.3167081 5.2054269,4.257783 5.2470779,4.248133 5.2885009,4.244006 5.3288647,4.2446723 Z" />
</svg>
