<?xml version="1.0" encoding="UTF-8" standalone="no"?>
<!-- Created with Inkscape (http://www.inkscape.org/) -->

<svg
   width="32"
   height="32"
   viewBox="0 0 8.4666665 8.466667"
   version="1.1"
   id="svg5"
   sodipodi:docname="text-richtext-rtl.svg"
   inkscape:version="1.1.1 (3bf5ae0d25, 2021-09-20, custom)"
   xmlns:inkscape="http://www.inkscape.org/namespaces/inkscape"
   xmlns:sodipodi="http://sodipodi.sourceforge.net/DTD/sodipodi-0.dtd"
   xmlns="http://www.w3.org/2000/svg"
   xmlns:svg="http://www.w3.org/2000/svg">
  <sodipodi:namedview
     id="namedview7"
     pagecolor="#ffffff"
     bordercolor="#666666"
     borderopacity="1.0"
     inkscape:pageshadow="2"
     inkscape:pageopacity="0.0"
     inkscape:pagecheckerboard="0"
     inkscape:document-units="px"
     showgrid="false"
     units="px"
     height="64px"
     inkscape:zoom="17.081048"
     inkscape:cx="26.344988"
     inkscape:cy="21.86634"
     inkscape:window-width="1920"
     inkscape:window-height="996"
     inkscape:window-x="0"
     inkscape:window-y="0"
     inkscape:window-maximized="1"
     inkscape:current-layer="svg5" />
  <defs
     id="defs2" />
  <path
     id="rect846"
     style="fill:#7d7d7b;stroke-width:0.264583;stroke-linecap:round;stroke-linejoin:round"
     d="M 1.3229167,0.2645833 H 5.5562501 L 7.14375,1.8520832 V 8.2020833 H 1.3229167 Z"
     sodipodi:nodetypes="cccccc" />
  <path
     id="rect1454"
     style="fill:#fafafa;stroke-width:0.264583;stroke-linecap:round;stroke-linejoin:round"
     d="M 1.5875,0.5291663 V 7.9374997 H 6.8791666 V 2.3151041 H 5.3578125 c -0.1814317,0 -0.2645831,-0.1297126 -0.2645831,-0.2645834 V 0.5291663 Z m 3.7703125,0 v 1.5213544 h 1.5213541 z"
     sodipodi:nodetypes="ccccsscccccc" />
  <path
     id="rect3166"
     style="opacity:1;fill:#999999;fill-opacity:1;stroke-width:0.46668;stroke-linecap:round;stroke-linejoin:round"
     d="M 4.2333334,2.9104167 V 3.1750001 H 2.1166667 V 2.9104167 Z m 0,0.7937501 V 3.9687501 H 2.1166667 V 3.7041668 Z m 0,0.79375 V 4.7625001 H 2.1166667 V 4.4979168 Z m 2.1166668,0.79375 V 5.5562501 H 2.1166667 V 5.2916668 Z m 0,0.79375 V 6.3500002 H 2.1166667 V 6.0854168 Z m 0,0.79375 V 7.1437502 H 3.1750001 V 6.8791668 Z"
     sodipodi:nodetypes="cccccccccccccccccccccccccccccc" />
  <path
     d="M 5.3433431,2.9104167 4.7640504,4.6529461 4.5526938,4.6803345 v 0.082166 H 5.1170003 V 4.6803345 L 4.883423,4.6529461 5.0374187,4.1635702 h 0.6015138 l 0.1591632,0.4893759 -0.2537312,0.027388 v 0.082166 H 6.3500002 V 4.6803345 L 6.1562135,4.6606974 5.5619345,2.9104167 Z M 5.3355908,3.2163412 5.614127,4.0788209 H 5.0648073 Z"
     style="opacity:1;fill:#999999;fill-opacity:1;stroke-width:0.46668;stroke-linecap:round;stroke-linejoin:round"
     id="path1099" />
</svg>
