<?xml version="1.0" encoding="UTF-8" standalone="no"?>
<!-- Created with Inkscape (http://www.inkscape.org/) -->

<svg
   width="32"
   height="32"
   viewBox="0 0 8.4666665 8.466667"
   version="1.1"
   id="svg5"
   sodipodi:docname="text-markdown.svg"
   inkscape:version="1.1.1 (3bf5ae0d25, 2021-09-20, custom)"
   xmlns:inkscape="http://www.inkscape.org/namespaces/inkscape"
   xmlns:sodipodi="http://sodipodi.sourceforge.net/DTD/sodipodi-0.dtd"
   xmlns="http://www.w3.org/2000/svg"
   xmlns:svg="http://www.w3.org/2000/svg">
  <sodipodi:namedview
     id="namedview7"
     pagecolor="#ffffff"
     bordercolor="#666666"
     borderopacity="1.0"
     inkscape:pageshadow="2"
     inkscape:pageopacity="0.0"
     inkscape:pagecheckerboard="0"
     inkscape:document-units="px"
     showgrid="false"
     units="px"
     height="64px"
     inkscape:zoom="16"
     inkscape:cx="15.75"
     inkscape:cy="20.96875"
     inkscape:window-width="1920"
     inkscape:window-height="996"
     inkscape:window-x="0"
     inkscape:window-y="0"
     inkscape:window-maximized="1"
     inkscape:current-layer="svg5" />
  <defs
     id="defs2" />
  <path
     id="rect846"
     style="fill:#7d7d7b;stroke-width:0.264583;stroke-linecap:round;stroke-linejoin:round"
     d="M 1.3229167,0.2645833 H 5.5562501 L 7.14375,1.8520832 V 8.2020833 H 1.3229167 Z"
     sodipodi:nodetypes="cccccc" />
  <path
     id="rect1454"
     style="fill:#fafafa;stroke-width:0.264583;stroke-linecap:round;stroke-linejoin:round"
     d="M 1.5875,0.5291663 V 7.9374997 H 6.8791666 V 2.3151041 H 5.3578125 c -0.1814317,0 -0.2645831,-0.1297126 -0.2645831,-0.2645834 V 0.5291663 Z m 3.7703125,0 v 1.5213544 h 1.5213541 z"
     sodipodi:nodetypes="ccccsscccccc" />
  <path
     id="rect866"
     style="fill:#4d4d4d;stroke-width:3;stroke-linecap:round;stroke-linejoin:round"
     d="M 9 14 C 8.4460003 14 8 14.446 8 15 L 8 21 C 8 21.554 8.4460003 22 9 22 L 23 22 C 23.554 22 24 21.554 24 21 L 24 15 C 24 14.446 23.554 14 23 14 L 9 14 z M 9 15 L 23 15 L 23 21 L 9 21 L 9 15 z M 11 16 L 11 20 L 12 20 L 12 17.5 L 13 18.5 L 14 17.5 L 14 20 L 15 20 L 15 16 L 14 16 L 13 17 L 12 16 L 11 16 z M 18.333984 16 L 18.333984 18 L 17 18 L 19 20 L 21 18 L 19.666016 18 L 19.666016 16 L 18.333984 16 z "
     transform="scale(0.26458334)" />
</svg>
