<?xml version="1.0" encoding="UTF-8" standalone="no"?>
<!-- Created with Inkscape (http://www.inkscape.org/) -->

<svg
   width="32"
   height="32"
   viewBox="0 0 8.4666665 8.466667"
   version="1.1"
   id="svg5"
   sodipodi:docname="text-x-kvt.svg"
   inkscape:version="1.1.1 (3bf5ae0d25, 2021-09-20, custom)"
   xmlns:inkscape="http://www.inkscape.org/namespaces/inkscape"
   xmlns:sodipodi="http://sodipodi.sourceforge.net/DTD/sodipodi-0.dtd"
   xmlns="http://www.w3.org/2000/svg"
   xmlns:svg="http://www.w3.org/2000/svg">
  <sodipodi:namedview
     id="namedview7"
     pagecolor="#ffffff"
     bordercolor="#666666"
     borderopacity="1.0"
     inkscape:pageshadow="2"
     inkscape:pageopacity="0.0"
     inkscape:pagecheckerboard="0"
     inkscape:document-units="px"
     showgrid="false"
     units="px"
     height="64px"
     inkscape:zoom="24.15625"
     inkscape:cx="15.979301"
     inkscape:cy="16.331177"
     inkscape:window-width="1920"
     inkscape:window-height="996"
     inkscape:window-x="0"
     inkscape:window-y="0"
     inkscape:window-maximized="1"
     inkscape:current-layer="svg5" />
  <defs
     id="defs2">
    <linearGradient
       id="linearGradient45680"
       x1="-102.06"
       x2="-102.06"
       y1="1.3231"
       y2="19.157"
       gradientTransform="matrix(0.24478771,0,0,0.23704104,29.445863,2.0676293)"
       gradientUnits="userSpaceOnUse">
      <stop
         stop-color="#ffdc23"
         offset="0"
         id="stop22" />
      <stop
         stop-color="#e6628a"
         offset=".31552"
         id="stop24" />
      <stop
         stop-color="#7b5fc1"
         offset=".55428"
         id="stop26" />
      <stop
         stop-color="#1e9be1"
         offset=".79721"
         id="stop28" />
      <stop
         stop-color="#0082dc"
         offset="1"
         id="stop30" />
    </linearGradient>
    <linearGradient
       id="linearGradient1954"
       x1="-109.09"
       x2="-101.26"
       y1="11.122"
       y2="18.440001"
       gradientTransform="matrix(0.24478771,0,0,0.23704104,29.445863,2.0676267)"
       gradientUnits="userSpaceOnUse">
      <stop
         stop-color="#64d2eb"
         offset="0"
         id="stop2" />
      <stop
         stop-color="#0082dc"
         offset="1"
         id="stop4" />
    </linearGradient>
    <linearGradient
       id="linearGradient1431"
       x1="-107.04"
       x2="-99.660004"
       y1="6.9531002"
       y2="17.895"
       gradientTransform="matrix(0.24478771,0,0,0.23704104,29.445863,2.067616)"
       gradientUnits="userSpaceOnUse">
      <stop
         stop-color="#a578e1"
         offset="0"
         id="stop7" />
      <stop
         stop-color="#5046a0"
         offset="1"
         id="stop9" />
    </linearGradient>
    <linearGradient
       id="linearGradient1439"
       x1="-105"
       x2="-97.016998"
       y1="4.2921"
       y2="13.799"
       gradientTransform="matrix(0.24478771,0,0,0.23704104,29.445863,2.0677013)"
       gradientUnits="userSpaceOnUse">
      <stop
         stop-color="#eb82aa"
         offset="0"
         id="stop12" />
      <stop
         stop-color="#dc2850"
         offset="1"
         id="stop14" />
    </linearGradient>
    <linearGradient
       id="linearGradient1447"
       x1="-102.1"
       x2="-98.566002"
       y1="1.4752001"
       y2="7.8610001"
       gradientTransform="matrix(0.24478771,0,0,0.23704104,29.443109,2.0676693)"
       gradientUnits="userSpaceOnUse">
      <stop
         stop-color="#ffdc23"
         offset="0"
         id="stop17" />
      <stop
         stop-color="#f0a019"
         offset="1"
         id="stop19" />
    </linearGradient>
  </defs>
  <path
     id="rect846"
     style="fill:#7d7d7b;stroke-width:0.264583;stroke-linecap:round;stroke-linejoin:round"
     d="M 1.3229167,0.2645833 H 5.5562501 L 7.14375,1.8520832 V 8.2020833 H 1.3229167 Z"
     sodipodi:nodetypes="cccccc" />
  <path
     id="rect1454"
     style="fill:#fafafa;stroke-width:0.264583;stroke-linecap:round;stroke-linejoin:round"
     d="M 1.5875,0.5291663 V 7.9374997 H 6.8791666 V 2.3151041 H 5.3578125 c -0.1814317,0 -0.2645831,-0.1297126 -0.2645831,-0.2645834 V 0.5291663 Z m 3.7703125,0 v 1.5213544 h 1.5213541 z"
     sodipodi:nodetypes="ccccsscccccc" />
  <path
     d="M 4.4637139,2.3812528 C 4.4148248,2.3808786 4.3739191,2.4184588 4.3739191,2.4184588 4.1622186,2.597072 3.9841928,2.7668107 3.8209164,2.93164 v 1.377e-4 C 3.6237348,3.130797 3.4686154,3.3148506 3.3316659,3.4912534 3.0059395,3.9108333 2.8514481,4.2458252 2.760736,4.5112693 h -1.423e-4 c 1.19e-5,4.37e-5 -1.06e-5,9.37e-5 0,1.377e-4 1.76e-5,4.58e-5 -1.54e-5,9.26e-5 0,1.38e-4 -0.1201453,0.3517389 -0.1146981,0.5680354 -0.1146981,0.5680354 -2.5e-6,0.8477207 0.7096142,1.5350114 1.5850106,1.5349855 0.1390422,0 0.2718831,-0.022118 0.3998879,-0.054987 C 5.0637,6.4484409 5.4236014,6.1666123 5.628351,5.7898062 V 5.7895396 C 5.7441949,5.5763319 5.816054,5.3372427 5.816054,5.0795855 h 0.00326 c 0,0 0.036696,-0.3792331 -0.2589974,-0.877934 -0.044494,-0.055785 -0.1224752,-0.1621465 -0.180023,-0.2344037 -0.044011,-0.00904 -0.087192,-0.018181 -0.1297837,-0.027422 0.042497,0.00922 0.085736,0.018263 0.129641,0.027286 C 5.0126357,3.6457207 4.6124177,3.4531577 4.5230548,2.5718639 4.5080235,2.4654569 4.5409062,2.3812822 4.4637119,2.3812822 Z M 4.0907313,3.4851902 c 0.00723,0.00558 0.014637,0.011099 0.0222,0.016674 0.00756,0.00558 0.015291,0.011252 0.023197,0.016812 -0.0079,-0.00555 -0.015635,-0.011099 -0.023197,-0.016674 -0.00756,-0.00558 -0.014974,-0.011224 -0.0222,-0.016812 z m 0.2807832,0.1701866 c 0.018274,0.00891 0.036976,0.017774 0.056351,0.026597 -0.019408,-0.00884 -0.03805,-0.017667 -0.056351,-0.026597 z m 0.1286468,0.058153 c 0.021321,0.00894 0.043337,0.017771 0.065889,0.026596 -0.022515,-0.00881 -0.044599,-0.017665 -0.065889,-0.026596 z m -1.1610819,0.06022 c 0.00346,0.015564 0.00755,0.031198 0.012096,0.046715 -0.00455,-0.015562 -0.00863,-0.031107 -0.012096,-0.046715 z m 1.8158385,0.1445569 c 0.015783,0.00363 0.031697,0.00729 0.047817,0.010887 -0.016126,-0.0036 -0.032017,-0.00725 -0.047817,-0.010887 z M 3.766423,4.3314328 c 0.020566,0.013609 0.042071,0.027063 0.064321,0.040376 C 3.80849,4.3584948 3.786987,4.3450398 3.766423,4.3314328 Z m 0.1336254,0.079927 c 0.023985,0.013003 0.048804,0.02578 0.074568,0.038446 -0.025762,-0.012668 -0.050583,-0.025443 -0.074568,-0.038446 z M 4.231613,4.5589461 C 4.26302,4.5704921 4.29542,4.5818491 4.328807,4.5929841 4.295419,4.5818501 4.26302,4.5704921 4.231613,4.5589461 Z m 0.147998,0.050574 c 0.034395,0.01092 0.069722,0.021631 0.1061611,0.032107 -0.03644,-0.010477 -0.071765,-0.021189 -0.1061611,-0.032107 z m 0.2187251,0.062838 c 0.019263,0.00503 0.038697,0.00986 0.05849,0.014749 0.019794,0.00486 0.039245,0.01 0.058346,0.015154 -0.019097,-0.00514 -0.038554,-0.010137 -0.058346,-0.015017 -0.019794,-0.00486 -0.039228,-0.00987 -0.05849,-0.01488 z m 0.4688993,0.1569574 c 0.028994,0.013807 0.05673,0.028 0.083249,0.04272 -0.02652,-0.01472 -0.054251,-0.028914 -0.083249,-0.04272 z m 0.318208,0.2129074 c 0.018371,0.017605 0.035606,0.035543 0.0518,0.05388 -0.016194,-0.018337 -0.033428,-0.03628 -0.0518,-0.05388 z M 5.502989,5.1809903 C 5.516046,5.2003683 5.52808,5.2200873 5.539137,5.2401083 5.52808,5.2200853 5.516052,5.2003663 5.502989,5.1809903 Z M 4.8064009,6.4300501 c -0.017583,0.015817 -0.035937,0.03136 -0.054788,0.046438 0.018858,-0.015086 0.037205,-0.030621 0.054788,-0.046438 z m -0.083392,0.068762 c -0.00967,0.00731 -0.019446,0.014636 -0.029315,0.021775 -0.00515,0.00373 -0.010302,0.00709 -0.015515,0.010332 0.0052,-0.0032 0.010365,-0.00678 0.015515,-0.010469 0.00987,-0.00716 0.019639,-0.014286 0.029315,-0.021638 z"
     fill="url(#linearGradient45680)"
     id="path35"
     style="fill:url(#linearGradient45680);stroke-width:0.240883" />
  <path
     d="m 2.7607278,4.5112967 c -0.1202472,0.3518986 -0.114858,0.5683557 -0.114858,0.5683557 -2.4e-6,0.8477203 0.7096969,1.5349585 1.5850935,1.534931 0.1390423,0 0.2718608,-0.022141 0.39986,-0.054994 0.021126,-0.013981 0.042274,-0.024168 0.062865,-0.039078 0.078934,-0.05715 0.1523983,-0.1209501 0.2078305,-0.1892503 0.02772,-0.034148 0.050879,-0.069394 0.068054,-0.1055878 0.017177,-0.036198 0.028366,-0.073234 0.031874,-0.1109783 C 5.0049268,6.076958 5.0008181,6.038479 4.9875328,5.9996756 4.9742817,5.960879 4.9518589,5.9216897 4.9187194,5.8823289 4.8855828,5.8429666 4.8417795,5.8034352 4.7856452,5.764002 4.7295135,5.7245674 4.6610717,5.6852942 4.5788276,5.6462885 4.4965835,5.6072797 4.4004934,5.5684988 4.2890118,5.5304117 4.1775465,5.4923232 4.0506707,5.4548799 3.9068864,5.4182073 3.7630853,5.3815347 3.635221,5.3386273 3.5217042,5.2903255 3.4081791,5.2420233 3.3090072,5.1883021 3.2229105,5.1302267 3.1368249,5.0721541 3.0637871,5.0096599 3.0023018,4.9436719 2.940819,4.8776811 2.8908641,4.8082216 2.8511397,4.7361697 2.8114154,4.6641176 2.7818775,4.5894873 2.7610775,4.5132355 2.7609012,4.512607 2.7608718,4.5119255 2.7605832,4.5112655 Z"
     fill="url(#linearGradient1954)"
     id="path37"
     style="fill:url(#linearGradient1954);stroke-width:0.240883" />
  <path
     d="m 2.7605625,4.5112967 c 1.737e-4,6.286e-4 2.033e-4,0.00131 4.944e-4,0.00197 0.020809,0.076255 0.050338,0.1508848 0.090063,0.2229341 0.039724,0.07205 0.089677,0.1415114 0.1511621,0.2075022 0.061485,0.06599 0.1345232,0.1284822 0.2206088,0.1865549 0.086086,0.058073 0.1852548,0.1117965 0.2987936,0.1600988 0.1135223,0.048303 0.2413757,0.091209 0.3851824,0.1278817 0.1438037,0.036674 0.2706849,0.074117 0.3821251,0.1122052 0.1114653,0.038085 0.2075553,0.07687 0.2898161,0.1158765 0.082244,0.039017 0.1506854,0.078284 0.2068175,0.1177136 0.056137,0.039436 0.099938,0.078963 0.1330744,0.1183268 0.033137,0.039368 0.055559,0.078546 0.068814,0.1173463 0.013257,0.038796 0.017428,0.077276 0.013914,0.1150202 -0.00348,0.037737 -0.014703,0.074781 -0.031874,0.1109783 -0.017171,0.036198 -0.040338,0.071436 -0.068054,0.1055886 C 4.8460659,6.3995909 4.7726032,6.4633907 4.6936695,6.520545 4.6730815,6.535456 4.6519275,6.545642 4.6308045,6.559623 5.0637109,6.4484854 5.4235849,6.1665768 5.628334,5.7897715 c 8.025e-4,-0.00632 0.00348,-0.013044 0.00417,-0.01936 C 5.642715,5.6753945 5.641534,5.5828564 5.626684,5.4940604 5.6118415,5.4052644 5.5833731,5.3202153 5.5391482,5.2401421 5.4949256,5.1600616 5.4349356,5.0849941 5.356999,5.016105 5.2790617,4.9472102 5.1831754,4.8845319 5.0671828,4.8293044 4.9512069,4.7740765 4.8151745,4.726297 4.6568585,4.6872113 4.4985115,4.6481255 4.3572111,4.6051487 4.2315801,4.5589642 4.1059547,4.5127822 3.9959846,4.4633788 3.9000431,4.4113647 3.8040958,4.3593504 3.7221852,4.3047762 3.6528814,4.2482047 3.5835695,4.1916358 3.5268237,4.1331416 3.4811014,4.0732874 3.435379,4.0134357 3.4006529,3.9521495 3.3754771,3.8902845 3.3503041,3.8284196 3.3346979,3.7659653 3.3270284,3.7033616 c -0.00766,-0.062603 -0.0073,-0.1253433 -4.957e-4,-0.1874109 9.942e-4,-0.00831 0.00392,-0.016331 0.00507,-0.024622 C 3.0058736,3.9109089 2.8514371,4.2458741 2.760725,4.5113182 Z"
     fill="url(#linearGradient1431)"
     id="path39"
     style="fill:url(#linearGradient1431);stroke-width:0.240883" />
  <path
     d="m 3.3316025,3.4913076 c -0.00121,0.00829 -0.00416,0.016306 -0.00507,0.024622 -0.00678,0.06207 -0.00717,0.1248099 4.943e-4,0.1874109 0.00766,0.062603 0.023278,0.125058 0.048448,0.186923 0.025173,0.061865 0.059902,0.1231513 0.1056242,0.1830028 0.045722,0.059852 0.1024683,0.1183486 0.1717802,0.1749175 0.069315,0.056568 0.1512253,0.1111429 0.2471616,0.1631598 0.095947,0.052014 0.205917,0.1014149 0.3315369,0.1476023 0.1256254,0.046185 0.2669399,0.089164 0.4252785,0.1282474 0.1583469,0.039086 0.2943872,0.086862 0.4103522,0.1420926 0.1159812,0.055229 0.2118624,0.1179062 0.2898156,0.1868006 0.077934,0.068894 0.1379272,0.1439599 0.1821538,0.2240382 0.044228,0.080079 0.072691,0.1651389 0.087535,0.2539188 0.014845,0.088788 0.016029,0.1813257 0.00582,0.2763512 -6.858e-4,0.00632 -0.00338,0.013021 -0.00417,0.01936 0.1158774,-0.2132434 0.1877141,-0.452386 0.1877141,-0.7100969 h 0.00332 c 0,0 0.03664,-0.379313 -0.2590584,-0.8780141 C 5.515822,4.1458591 5.4378522,4.0394494 5.3803074,3.9671924 5.2410528,3.9385786 5.1069789,3.9091862 4.9901963,3.8776497 4.8513463,3.8401557 4.7277096,3.8008378 4.6179296,3.7600585 4.5081418,3.7192791 4.4121753,3.6770412 4.3285267,3.6338912 4.2448592,3.5907411 4.1734708,3.5465698 4.1129798,3.5019691 4.0524856,3.4573684 4.002839,3.4123624 3.9625778,3.3672283 3.9223135,3.3220943 3.8914453,3.2768696 3.8684646,3.2321196 c -0.022986,-0.04475 -0.038034,-0.089087 -0.046675,-0.1325381 -0.00864,-0.043448 -0.010846,-0.086039 -0.0081,-0.1272687 9.942e-4,-0.014064 0.00532,-0.026933 0.00734,-0.040667 -0.1972451,0.1990748 -0.352436,0.3832057 -0.489413,0.5596618 z"
     fill="url(#linearGradient1439)"
     id="path41"
     style="fill:url(#linearGradient1439);stroke-width:0.240883" />
  <path
     d="m 3.8209631,2.9316188 c -0.00194,0.013736 -0.00641,0.0266 -0.00734,0.040667 -0.00275,0.04123 -4.857e-4,0.08382 0.0081,0.1272687 0.00864,0.043448 0.023694,0.087785 0.046675,0.1325355 0.022985,0.044751 0.053848,0.089975 0.094113,0.1351087 0.040261,0.045134 0.089908,0.09014 0.1504023,0.1347407 0.060491,0.0446 0.1318793,0.088775 0.2155469,0.1319221 0.083665,0.04315 0.1796316,0.085385 0.289403,0.1261673 C 4.7276432,3.8008108 4.8512857,3.8401258 4.99013,3.87762 5.1069057,3.909154 5.2409853,3.938549 5.3802398,3.967163 5.0127088,3.6457713 4.6123531,3.453155 4.5229902,2.5718612 4.50796,2.4654543 4.5408604,2.3812636 4.463667,2.3812636 4.4147776,2.3808902 4.3739822,2.4185015 4.3739822,2.4185015 4.162282,2.5971149 3.9842284,2.7668003 3.8209524,2.9316296 Z"
     fill="url(#linearGradient1447)"
     id="path43"
     style="fill:url(#linearGradient1447);stroke-width:0.240883" />
</svg>
