<?xml version="1.0" encoding="UTF-8" standalone="no"?>
<!-- Created with Inkscape (http://www.inkscape.org/) -->

<svg
   width="32"
   height="32"
   viewBox="0 0 8.4666665 8.466667"
   version="1.1"
   id="svg5"
   inkscape:version="1.1.1 (3bf5ae0d25, 2021-09-20, custom)"
   sodipodi:docname="video-x-generic.svg"
   xmlns:inkscape="http://www.inkscape.org/namespaces/inkscape"
   xmlns:sodipodi="http://sodipodi.sourceforge.net/DTD/sodipodi-0.dtd"
   xmlns:xlink="http://www.w3.org/1999/xlink"
   xmlns="http://www.w3.org/2000/svg"
   xmlns:svg="http://www.w3.org/2000/svg">
  <sodipodi:namedview
     id="namedview7"
     pagecolor="#ffffff"
     bordercolor="#666666"
     borderopacity="1.0"
     inkscape:pageshadow="2"
     inkscape:pageopacity="0.0"
     inkscape:pagecheckerboard="0"
     inkscape:document-units="px"
     showgrid="false"
     units="px"
     height="64px"
     inkscape:zoom="8.5405241"
     inkscape:cx="22.363967"
     inkscape:cy="31.672529"
     inkscape:window-width="1920"
     inkscape:window-height="996"
     inkscape:window-x="0"
     inkscape:window-y="0"
     inkscape:window-maximized="1"
     inkscape:current-layer="svg5" />
  <defs
     id="defs2">
    <linearGradient
       inkscape:collect="always"
       xlink:href="#linearGradient12418"
       id="linearGradient2216"
       x1="42"
       y1="4.9999995"
       x2="56"
       y2="31"
       gradientUnits="userSpaceOnUse"
       gradientTransform="matrix(0.26458335,0,0,0.26458335,-8.7312509,-0.52916687)" />
    <linearGradient
       inkscape:collect="always"
       id="linearGradient12418">
      <stop
         style="stop-color:#52e4ff;stop-opacity:1;"
         offset="0"
         id="stop12414" />
      <stop
         style="stop-color:#d29eff;stop-opacity:1"
         offset="1"
         id="stop12416" />
    </linearGradient>
    <linearGradient
       inkscape:collect="always"
       xlink:href="#linearGradient27684"
       id="linearGradient27686"
       x1="86.812088"
       y1="124.12689"
       x2="114.91612"
       y2="144.43559"
       gradientUnits="userSpaceOnUse"
       gradientTransform="matrix(0.22529124,0,0,0.39018656,-18.235087,-48.16806)" />
    <linearGradient
       inkscape:collect="always"
       id="linearGradient27684">
      <stop
         style="stop-color:#4a4a4a;stop-opacity:1;"
         offset="0"
         id="stop27680" />
      <stop
         style="stop-color:#232323;stop-opacity:0.74901962"
         offset="1"
         id="stop27682" />
    </linearGradient>
  </defs>
  <path
     id="rect862"
     style="fill:url(#linearGradient27686);stroke-width:0.218638;stroke-linecap:round;stroke-linejoin:round"
     d="m 1.058333,0.26458334 h 6.3499997 c 0.14658,0 0.264584,0.1180042 0.264584,0.26458342 V 7.9375003 c 0,0.146579 -0.118004,0.264583 -0.264584,0.264583 H 1.058333 c -0.14657899,0 -0.26458299,-0.118004 -0.26458299,-0.264583 V 0.52916676 c 0,-0.14657922 0.118004,-0.26458342 0.26458299,-0.26458342 z"
     sodipodi:nodetypes="sssssssss" />
  <path
     id="rect1388"
     style="fill:#ffffff;stroke-width:0.79375;stroke-linecap:round;stroke-linejoin:round"
     d="m 1.4484904,0.66150897 c -0.070092,0.00353 -0.1255737,0.061292 -0.1255737,0.1322916 V 1.3229673 c 0,0.07329 0.059002,0.1322918 0.1322917,0.1322918 h 0.2645833 c 0.07329,0 0.1322917,-0.059002 0.1322917,-0.1322918 V 0.79380057 c 0,-0.07329 -0.059002,-0.1322916 -0.1322917,-0.1322916 H 1.4552084 c -0.0023,0 -0.00446,-1.139e-4 -0.00672,0 z m 5.2916673,0 c -0.07009,0.00353 -0.125574,0.061292 -0.125574,0.1322916 V 1.3229673 c 0,0.07329 0.059,0.1322918 0.132292,0.1322918 h 0.264583 c 0.07329,0 0.132292,-0.059002 0.132292,-0.1322918 V 0.79380057 c 0,-0.07329 -0.059,-0.1322916 -0.132292,-0.1322916 h -0.264583 c -0.0023,0 -0.0045,-1.139e-4 -0.0067,0 z M 1.4484904,2.2490091 c -0.070092,0.00353 -0.1255737,0.061292 -0.1255737,0.1322917 v 0.5291665 c 0,0.07329 0.059002,0.132292 0.1322917,0.132292 h 0.2645833 c 0.07329,0 0.1322917,-0.059002 0.1322917,-0.132292 V 2.3813008 c 0,-0.07329 -0.059002,-0.1322917 -0.1322917,-0.1322917 H 1.4552084 c -0.0023,0 -0.00446,-1.139e-4 -0.00672,0 z m 5.2916673,0 c -0.07009,0.00353 -0.125574,0.061292 -0.125574,0.1322917 v 0.5291665 c 0,0.07329 0.059,0.132292 0.132292,0.132292 h 0.264583 c 0.07329,0 0.132292,-0.059002 0.132292,-0.132292 V 2.3813008 c 0,-0.07329 -0.059,-0.1322917 -0.132292,-0.1322917 h -0.264583 c -0.0023,0 -0.0045,-1.139e-4 -0.0067,0 z M 1.4484904,3.8365094 c -0.070092,0.00355 -0.1255737,0.061292 -0.1255737,0.1322915 v 0.5291665 c 0,0.07329 0.059002,0.132292 0.1322917,0.132292 h 0.2645833 c 0.07329,0 0.1322917,-0.059 0.1322917,-0.132292 V 3.9688009 c 0,-0.07329 -0.059002,-0.1322915 -0.1322917,-0.1322915 H 1.4552084 c -0.0023,0 -0.00446,-1.14e-4 -0.00672,0 z m 5.2916673,0 c -0.07009,0.00355 -0.125574,0.061292 -0.125574,0.1322915 v 0.5291665 c 0,0.07329 0.059,0.132292 0.132292,0.132292 h 0.264583 c 0.07329,0 0.132292,-0.059 0.132292,-0.132292 V 3.9688009 c 0,-0.07329 -0.059,-0.1322915 -0.132292,-0.1322915 h -0.264583 c -0.0023,0 -0.0045,-1.14e-4 -0.0067,0 z M 1.4484904,5.4240097 c -0.070092,0.0035 -0.1255737,0.06129 -0.1255737,0.132291 v 0.529167 c 0,0.07329 0.059002,0.132292 0.1322917,0.132292 h 0.2645833 c 0.07329,0 0.1322917,-0.059 0.1322917,-0.132292 v -0.529167 c 0,-0.07329 -0.059002,-0.132291 -0.1322917,-0.132291 H 1.4552084 c -0.0023,0 -0.00446,-1.14e-4 -0.00672,0 z m 5.2916673,0 c -0.07009,0.0035 -0.125574,0.06129 -0.125574,0.132291 v 0.529167 c 0,0.07329 0.059,0.132292 0.132292,0.132292 h 0.264583 c 0.07329,0 0.132292,-0.059 0.132292,-0.132292 v -0.529167 c 0,-0.07329 -0.059,-0.132291 -0.132292,-0.132291 h -0.264583 c -0.0023,0 -0.0045,-1.14e-4 -0.0067,0 z M 1.4484904,7.0115088 c -0.070092,0.0035 -0.1255737,0.06129 -0.1255737,0.132292 v 0.529167 c 0,0.07329 0.059002,0.132291 0.1322917,0.132291 h 0.2645833 c 0.07329,0 0.1322917,-0.059 0.1322917,-0.132291 v -0.529167 c 0,-0.07329 -0.059002,-0.132292 -0.1322917,-0.132292 H 1.4552084 c -0.0023,0 -0.00446,-1.13e-4 -0.00672,0 z m 5.2916673,0 c -0.07009,0.0035 -0.125574,0.06129 -0.125574,0.132292 v 0.529167 c 0,0.07329 0.059,0.132291 0.132292,0.132291 h 0.264583 c 0.07329,0 0.132292,-0.059 0.132292,-0.132291 v -0.529167 c 0,-0.07329 -0.059,-0.132292 -0.132292,-0.132292 h -0.264583 c -0.0023,0 -0.0045,-1.13e-4 -0.0067,0 z"
     sodipodi:nodetypes="sssssssssssssssssssssssssssssssssssssssscssssssssccssssssssccssssssssccssssssssccsssssssscssssssssss" />
  <path
     id="rect2063"
     style="fill:url(#linearGradient2216);fill-opacity:1;stroke-width:0.79375;stroke-linecap:round;stroke-linejoin:round"
     d="m 2.9104168,0.79375007 c -0.2931581,0 -0.5291667,0.23600843 -0.5291667,0.52916673 v 2.1166668 c 0,0.2931585 0.2360086,0.5291665 0.5291667,0.5291665 h 2.6458334 c 0.2931585,0 0.5291665,-0.236008 0.5291665,-0.5291665 V 1.3229168 c 0,-0.2931583 -0.236008,-0.52916673 -0.5291665,-0.52916673 z m 0,3.70416703 c -0.2931581,0 -0.5291667,0.236008 -0.5291667,0.5291661 v 2.1166671 c 0,0.293158 0.2360086,0.529166 0.5291667,0.529166 h 2.6458334 c 0.2931585,0 0.5291665,-0.236008 0.5291665,-0.529166 V 5.0270832 c 0,-0.2931581 -0.236008,-0.5291661 -0.5291665,-0.5291661 z" />
</svg>
