<?xml version="1.0" encoding="UTF-8" standalone="no"?>
<!-- Created with Inkscape (http://www.inkscape.org/) -->

<svg
   width="32"
   height="32"
   viewBox="0 0 8.4666665 8.466667"
   version="1.1"
   id="svg5"
   sodipodi:docname="x-office-document.svg"
   inkscape:version="1.1.1 (3bf5ae0d25, 2021-09-20, custom)"
   xmlns:inkscape="http://www.inkscape.org/namespaces/inkscape"
   xmlns:sodipodi="http://sodipodi.sourceforge.net/DTD/sodipodi-0.dtd"
   xmlns="http://www.w3.org/2000/svg"
   xmlns:svg="http://www.w3.org/2000/svg">
  <sodipodi:namedview
     id="namedview7"
     pagecolor="#ffffff"
     bordercolor="#666666"
     borderopacity="1.0"
     inkscape:pageshadow="2"
     inkscape:pageopacity="0.0"
     inkscape:pagecheckerboard="0"
     inkscape:document-units="px"
     showgrid="false"
     units="px"
     height="64px"
     inkscape:zoom="9.1098925"
     inkscape:cx="1.262364"
     inkscape:cy="26.619414"
     inkscape:window-width="1567"
     inkscape:window-height="932"
     inkscape:window-x="56"
     inkscape:window-y="50"
     inkscape:window-maximized="0"
     inkscape:current-layer="svg5" />
  <defs
     id="defs2" />
  <path
     id="rect846"
     style="fill:#7d7d7b;stroke-width:0.264583;stroke-linecap:round;stroke-linejoin:round"
     d="M 1.3229167,0.26458334 H 5.5562501 L 7.14375,1.8520833 V 8.2020834 H 1.3229167 Z"
     sodipodi:nodetypes="cccccc" />
  <path
     id="rect1454"
     style="fill:#fafafa;stroke-width:0.264583;stroke-linecap:round;stroke-linejoin:round"
     d="M 1.5875,0.5291663 V 7.9374997 H 6.8791666 V 2.3151041 H 5.3578125 c -0.1814317,0 -0.2645831,-0.1297126 -0.2645831,-0.2645834 V 0.5291663 Z m 3.7703125,0 v 1.5213544 h 1.5213541 z"
     sodipodi:nodetypes="ccccsscccccc" />
  <path
     id="path4039"
     style="font-size:10.5833px;line-height:1.25;font-family:'Noto Sans CJK KR';-inkscape-font-specification:'Noto Sans CJK KR';fill:#2784bd;fill-opacity:1;stroke-width:0.238745"
     d="M 10.369141 10 L 8 17 L 8.8886719 17 L 9.5664062 14.861328 L 12.125 14.861328 L 12.794922 17 L 13.730469 17 L 11.351562 10 L 10.369141 10 z M 10.826172 10.716797 L 10.865234 10.716797 C 11.094429 11.528529 11.314424 12.291351 11.572266 13.083984 L 11.90625 14.164062 L 9.7851562 14.164062 L 10.128906 13.083984 C 10.377202 12.291351 10.606527 11.538079 10.826172 10.716797 z M 8 18 L 8 19 L 24 19 L 24 18 L 8 18 z "
     transform="scale(0.26458334)" />
  <path
     id="rect1374"
     style="opacity:1;fill:#69b0ec;fill-opacity:1;stroke-width:3;stroke-linecap:round;stroke-linejoin:round"
     d="M 15 14 L 15 15 L 24 15 L 24 14 L 15 14 z M 15 16 L 15 17 L 24 17 L 24 16 L 15 16 z "
     transform="scale(0.26458334)" />
  <path
     id="rect1708"
     style="opacity:1;fill:#c0c5cb;fill-opacity:1;stroke-width:3;stroke-linecap:round;stroke-linejoin:round"
     d="M 8 20 L 8 21 L 16 21 L 16 20 L 8 20 z M 18 20 C 17.446001 20 17 20.446001 17 21 L 17 24 C 17 24.553999 17.446001 25 18 25 L 23 25 C 23.553999 25 24 24.553999 24 24 L 24 21 C 24 20.446001 23.553999 20 23 20 L 18 20 z M 8 22 L 8 23 L 16 23 L 16 22 L 8 22 z M 8 24 L 8 25 L 16 25 L 16 24 L 8 24 z "
     transform="scale(0.26458334)" />
  <rect
     style="opacity:1;fill:#88c0f0;fill-opacity:1;stroke-width:0.79375;stroke-linecap:round;stroke-linejoin:round"
     id="rect2355"
     width="1.3229166"
     height="0.79375005"
     x="4.7625003"
     y="5.5562501" />
</svg>
