<?xml version="1.0" encoding="UTF-8" standalone="no"?>
<!-- Created with Inkscape (http://www.inkscape.org/) -->

<svg
   width="32"
   height="32"
   viewBox="0 0 8.4666665 8.466667"
   version="1.1"
   id="svg5"
   sodipodi:docname="x-office-spreadsheet.svg"
   inkscape:version="1.1.1 (3bf5ae0d25, 2021-09-20, custom)"
   xmlns:inkscape="http://www.inkscape.org/namespaces/inkscape"
   xmlns:sodipodi="http://sodipodi.sourceforge.net/DTD/sodipodi-0.dtd"
   xmlns="http://www.w3.org/2000/svg"
   xmlns:svg="http://www.w3.org/2000/svg">
  <sodipodi:namedview
     id="namedview7"
     pagecolor="#ffffff"
     bordercolor="#666666"
     borderopacity="1.0"
     inkscape:pageshadow="2"
     inkscape:pageopacity="0.0"
     inkscape:pagecheckerboard="0"
     inkscape:document-units="px"
     showgrid="false"
     units="px"
     height="64px"
     inkscape:zoom="24.15625"
     inkscape:cx="15.979301"
     inkscape:cy="16"
     inkscape:window-width="1920"
     inkscape:window-height="996"
     inkscape:window-x="0"
     inkscape:window-y="0"
     inkscape:window-maximized="1"
     inkscape:current-layer="svg5" />
  <defs
     id="defs2" />
  <path
     id="rect846"
     style="fill:#7d7d7b;stroke-width:0.264583;stroke-linecap:round;stroke-linejoin:round"
     d="M 1.3229167,0.2645833 H 5.5562501 L 7.14375,1.8520832 V 8.2020833 H 1.3229167 Z"
     sodipodi:nodetypes="cccccc" />
  <path
     id="rect1454"
     style="fill:#fafafa;stroke-width:0.264583;stroke-linecap:round;stroke-linejoin:round"
     d="M 1.5875,0.5291663 V 7.9374997 H 6.8791666 V 2.3151041 H 5.3578125 c -0.1814317,0 -0.2645831,-0.1297126 -0.2645831,-0.2645834 V 0.5291663 Z m 3.7703125,0 v 1.5213544 h 1.5213541 z"
     sodipodi:nodetypes="ccccsscccccc" />
  <path
     id="rect4459"
     style="opacity:1;fill:#c0c5cb;fill-opacity:1;stroke-width:3;stroke-linecap:round;stroke-linejoin:round"
     d="M 8 5 L 8 8 L 12 8 L 12 5 L 8 5 z M 14 5 L 14 8 L 18 8 L 18 5 L 14 5 z M 8 10 L 8 13 L 12 13 L 12 10 L 8 10 z M 8 25 L 8 28 L 12 28 L 12 25 L 8 25 z "
     transform="scale(0.26458334)" />
  <path
     id="rect4880"
     style="opacity:1;fill:#67c451;fill-opacity:1;stroke-width:3;stroke-linecap:round;stroke-linejoin:round"
     d="m 14,10 v 3 h 4 v -3 z m 6,0 v 3 h 4 V 10 Z M 8,15 v 3 h 4 v -3 z m 6,0 v 3 h 4 v -3 z m 6,0 v 3 h 4 V 15 Z M 8,20 v 3 h 4 v -3 z m 6,0 v 3 h 4 v -3 z m 6,0 v 3 h 4 v -3 z m -6,5 v 3 h 4 v -3 z m 6,0 v 3 h 4 v -3 z"
     sodipodi:nodetypes="cccccccccccccccccccccccccccccccccccccccccccccccccc"
     transform="scale(0.26458334)" />
</svg>
