<?xml version="1.0" encoding="UTF-8" standalone="no"?>
<svg
   width="16"
   height="16"
   version="1.1"
   id="svg6"
   sodipodi:docname="audio-volume-high-symbolic.svg"
   inkscape:version="1.1.1 (3bf5ae0d25, 2021-09-20, custom)"
   xmlns:inkscape="http://www.inkscape.org/namespaces/inkscape"
   xmlns:sodipodi="http://sodipodi.sourceforge.net/DTD/sodipodi-0.dtd"
   xmlns="http://www.w3.org/2000/svg"
   xmlns:svg="http://www.w3.org/2000/svg">
  <defs
     id="defs10" />
  <sodipodi:namedview
     id="namedview8"
     pagecolor="#ffffff"
     bordercolor="#666666"
     borderopacity="1.0"
     inkscape:pageshadow="2"
     inkscape:pageopacity="0.0"
     inkscape:pagecheckerboard="0"
     showgrid="false"
     inkscape:zoom="45.4375"
     inkscape:cx="7.9889959"
     inkscape:cy="8"
     inkscape:window-width="1920"
     inkscape:window-height="1019"
     inkscape:window-x="0"
     inkscape:window-y="0"
     inkscape:window-maximized="1"
     inkscape:current-layer="g4" />
  <g
     fill="#363636"
     stroke-linecap="round"
     stroke-linejoin="round"
     stroke-width="2.001"
     style="paint-order:stroke fill markers"
     aria-label="î§"
     id="g4">
    <path
       d="m13.077 0.92624q0.70347 0.70347 1.2428 1.5242 0.54714 0.82071 0.92232 1.7274 0.37518 0.89888 0.56277 1.8681 0.19541 0.96141 0.19541 1.9541 0 0.99267-0.19541 1.9619-0.18759 0.96141-0.56277 1.8681-0.37518 0.89888-0.92232 1.7196-0.53932 0.82071-1.2428 1.5242l-0.70347-0.70347q0.63312-0.63312 1.1177-1.3679 0.49243-0.74255 0.82853-1.5554t0.50806-1.6805q0.17978-0.87543 0.17978-1.7665 0-0.89106-0.17978-1.7587-0.17196-0.87543-0.50806-1.6883-0.3361-0.8129-0.82853-1.5476-0.48461-0.74255-1.1177-1.3757zm-2.1182 2.1182q0.49243 0.49243 0.86761 1.0708 0.383 0.57059 0.64094 1.2037 0.26576 0.63312 0.39863 1.3131 0.14069 0.68002 0.14069 1.3679 0 0.69565-0.14069 1.3757-0.13288 0.6722-0.39863 1.3053-0.25794 0.63312-0.64094 1.2115-0.37518 0.57059-0.86761 1.063l-0.71128-0.71128q0.84416-0.84416 1.2975-1.9463 0.46116-1.1021 0.46116-2.298t-0.46116-2.298q-0.45335-1.1021-1.2975-1.9463zm-2.126 2.126q0.56277 0.56277 0.86761 1.2975t0.30484 1.532q0 0.79726-0.30484 1.532-0.30484 0.73473-0.86761 1.2975l-0.70347-0.70347q0.42208-0.42208 0.64875-0.96922 0.22667-0.55496 0.22667-1.1568 0-0.60186-0.22667-1.149-0.22667-0.55496-0.64875-0.97704zm-3.5408-3.1734h0.71128v12.006h-0.71128l-3.0015-3.0015h-2.2902v-6.0029h2.2902zm-0.2892 1.7118-2.2902 2.2902h-1.7118v4.0019h1.7118l2.2902 2.2902z"
       fill="#363636"
       stroke-width="2.001"
       id="path2" />
  </g>
</svg>
