<?xml version="1.0" encoding="UTF-8" standalone="no"?>
<svg
   width="16"
   height="16"
   version="1.1"
   id="svg6"
   sodipodi:docname="battery-full-charged-symbolic.svg"
   inkscape:version="1.1.1 (3bf5ae0d25, 2021-09-20, custom)"
   xmlns:inkscape="http://www.inkscape.org/namespaces/inkscape"
   xmlns:sodipodi="http://sodipodi.sourceforge.net/DTD/sodipodi-0.dtd"
   xmlns="http://www.w3.org/2000/svg"
   xmlns:svg="http://www.w3.org/2000/svg">
  <defs
     id="defs10" />
  <sodipodi:namedview
     id="namedview8"
     pagecolor="#ffffff"
     bordercolor="#666666"
     borderopacity="1.0"
     inkscape:pageshadow="2"
     inkscape:pageopacity="0.0"
     inkscape:pagecheckerboard="0"
     showgrid="false"
     inkscape:zoom="39.375"
     inkscape:cx="7.9873016"
     inkscape:cy="7.9873016"
     inkscape:window-width="1920"
     inkscape:window-height="999"
     inkscape:window-x="0"
     inkscape:window-y="0"
     inkscape:window-maximized="1"
     inkscape:current-layer="svg6" />
  <path
     id="path2"
     fill="#363636"
     style="paint-order:stroke fill markers"
     d="M 2 3 C 0.892 3 0 3.892 0 5 L 0 11 C 0 12.108 0.892 13 2 13 L 13 13 C 14.108 13 15 12.108 15 11 L 15 9 L 16 9 L 16 7 L 15 7 L 15 5 C 15 3.892 14.108 3 13 3 L 2 3 z M 2 4 L 13 4 C 13.554 4 14 4.446 14 5 L 14 11 C 14 11.554 13.554 12 13 12 L 2 12 C 1.446 12 1 11.554 1 11 L 1 5 C 1 4.446 1.446 4 2 4 z M 2 5 L 2 11 L 13 11 L 13 5 L 2 5 z " />
</svg>
