<?xml version="1.0" encoding="UTF-8" standalone="no"?>
<!-- Created with Inkscape (http://www.inkscape.org/) -->

<svg
   width="16"
   height="16"
   viewBox="0 0 4.2333332 4.2333335"
   version="1.1"
   id="svg5"
   sodipodi:docname="battery-full-symbolic.svg"
   inkscape:version="1.1.1 (3bf5ae0d25, 2021-09-20, custom)"
   xmlns:inkscape="http://www.inkscape.org/namespaces/inkscape"
   xmlns:sodipodi="http://sodipodi.sourceforge.net/DTD/sodipodi-0.dtd"
   xmlns="http://www.w3.org/2000/svg"
   xmlns:svg="http://www.w3.org/2000/svg">
  <sodipodi:namedview
     id="namedview7"
     pagecolor="#ffffff"
     bordercolor="#666666"
     borderopacity="1.0"
     inkscape:pageshadow="2"
     inkscape:pageopacity="0.0"
     inkscape:pagecheckerboard="0"
     inkscape:document-units="px"
     showgrid="false"
     units="px"
     height="16px"
     inkscape:zoom="49.3125"
     inkscape:cx="7.9898606"
     inkscape:cy="8"
     inkscape:window-width="1920"
     inkscape:window-height="1019"
     inkscape:window-x="0"
     inkscape:window-y="0"
     inkscape:window-maximized="1"
     inkscape:current-layer="svg5" />
  <defs
     id="defs2" />
  <path
     id="rect3137"
     style="opacity:1;fill:#363636;stroke-width:0.991158"
     d="M 2 3 C 1.446 3 1 3.4460004 1 4 L 1 12 C 1 12.554 1.446 13 2 13 L 14 13 C 14.554 13 15 12.554 15 12 L 15 11 C 15.554 11 16 10.554 16 10 L 16 6 C 16 5.4459999 15.554 5 15 5 L 15 4 C 15 3.4460004 14.554 3 14 3 L 2 3 z M 2 4 L 14 4 L 14 12 L 2 12 L 2 4 z M 3 5 L 3 11 L 13 11 L 13 5 L 3 5 z "
     transform="scale(0.26458333)" />
</svg>
