<?xml version="1.0" encoding="UTF-8" standalone="no"?>
<!-- Created with Inkscape (http://www.inkscape.org/) -->

<svg
   width="16"
   height="16"
   viewBox="0 0 4.2333332 4.2333335"
   version="1.1"
   id="svg5"
   inkscape:version="1.1.1 (3bf5ae0d25, 2021-09-20, custom)"
   sodipodi:docname="network-wired.svg"
   xmlns:inkscape="http://www.inkscape.org/namespaces/inkscape"
   xmlns:sodipodi="http://sodipodi.sourceforge.net/DTD/sodipodi-0.dtd"
   xmlns="http://www.w3.org/2000/svg"
   xmlns:svg="http://www.w3.org/2000/svg">
  <sodipodi:namedview
     id="namedview7"
     pagecolor="#ffffff"
     bordercolor="#666666"
     borderopacity="1.0"
     inkscape:pageshadow="2"
     inkscape:pageopacity="0.0"
     inkscape:pagecheckerboard="0"
     inkscape:document-units="px"
     showgrid="false"
     units="px"
     height="16px"
     inkscape:zoom="17.434602"
     inkscape:cx="10.26694"
     inkscape:cy="7.7719011"
     inkscape:window-width="1920"
     inkscape:window-height="1019"
     inkscape:window-x="0"
     inkscape:window-y="0"
     inkscape:window-maximized="1"
     inkscape:current-layer="svg5" />
  <defs
     id="defs2" />
  <path
     id="rect846"
     style="fill:#363636;stroke-width:0.281665;fill-opacity:1"
     d="M 3.1615642,0 C 3.0213263,0.00701005 2.9104166,0.12254898 2.9104166,0.26458333 V 1.5875 c 0,0.1465791 0.1180042,0.2645833 0.2645834,0.2645833 h 0.2645833 v 2.38125 h 0.2645833 v -2.38125 H 3.96875 c 0.1465791,0 0.2645833,-0.1180042 0.2645833,-0.2645833 V 0.26458333 C 4.2333333,0.11800417 4.1153291,0 3.96875,0 H 3.175 C 3.1727,0 3.17056,-5.7278071e-5 3.16828,0 3.16603,5.638312e-5 3.16379,-1.1127064e-4 3.16156,0 Z M 0.26458333,0.26458333 C 0.11800417,0.26458333 0,0.3825875 0,0.52916666 V 3.175 C 0,3.3215791 0.11800417,3.4395833 0.26458333,3.4395833 H 1.3229166 V 3.96875 H 0.79374999 V 4.2333333 H 3.175 V 3.96875 H 2.9104166 V 3.4395833 H 3.175 V 3.175 H 0.26458333 V 0.52916666 H 2.6458333 V 0.26458333 Z m 2.91041667,0 H 3.96875 V 0.52916666 H 3.175 Z m 0,0.52916666 H 3.96875 V 1.5875 H 3.175 Z M 1.5875,3.4395833 H 2.6458333 V 3.96875 H 1.5875 Z" />
</svg>
