<?xml version="1.0" encoding="UTF-8" standalone="no"?>
<svg
   width="16"
   height="16"
   version="1.1"
   id="svg7"
   sodipodi:docname="start-here-symbolic.svg"
   inkscape:version="1.1.1 (3bf5ae0d25, 2021-09-20, custom)"
   xmlns:inkscape="http://www.inkscape.org/namespaces/inkscape"
   xmlns:sodipodi="http://sodipodi.sourceforge.net/DTD/sodipodi-0.dtd"
   xmlns="http://www.w3.org/2000/svg"
   xmlns:svg="http://www.w3.org/2000/svg">
  <sodipodi:namedview
     id="namedview9"
     pagecolor="#ffffff"
     bordercolor="#666666"
     borderopacity="1.0"
     inkscape:pageshadow="2"
     inkscape:pageopacity="0.0"
     inkscape:pagecheckerboard="0"
     showgrid="false"
     inkscape:lockguides="false"
     inkscape:zoom="44.3125"
     inkscape:cx="7.9887165"
     inkscape:cy="8"
     inkscape:window-width="1920"
     inkscape:window-height="996"
     inkscape:window-x="0"
     inkscape:window-y="0"
     inkscape:window-maximized="1"
     inkscape:current-layer="svg7" />
  <defs
     id="defs3">
    <style
       id="current-color-scheme"
       type="text/css">.ColorScheme-Text { color:#363636; }</style>
  </defs>
  <path
     id="rect867"
     style="opacity:1;fill:#333333;stroke-width:4;stroke-linecap:round;stroke-linejoin:round;fill-opacity:1"
     d="M 2 1 C 1.446 1 1 1.446 1 2 L 1 8 L 8 8 L 8 1 L 2 1 z M 9 1 L 9 8 L 16 8 L 16 2 C 16 1.446 15.554 1 15 1 L 9 1 z M 1 9 L 1 15 C 1 15.554 1.446 16 2 16 L 8 16 L 8 9 L 1 9 z M 9 9 L 9 16 L 15 16 C 15.554 16 16 15.554 16 15 L 16 9 L 9 9 z " />
</svg>
