<?xml version="1.0" encoding="UTF-8" standalone="no"?>
<svg
   width="24"
   height="24"
   version="1.1"
   viewBox="0 0 24 24"
   id="svg7"
   sodipodi:docname="audio-volume-high.svg"
   inkscape:version="1.1.2 (0a00cf5339, 2022-02-04, custom)"
   xmlns:inkscape="http://www.inkscape.org/namespaces/inkscape"
   xmlns:sodipodi="http://sodipodi.sourceforge.net/DTD/sodipodi-0.dtd"
   xmlns="http://www.w3.org/2000/svg"
   xmlns:svg="http://www.w3.org/2000/svg">
  <path
     id="rect844"
     style="opacity:1;fill:currentColor;stroke:none;stroke-width:0.5;stroke-linejoin:round"
     d="M 16.332031,5.0023944 C 16.169028,5.016615 16.012005,5.093642 15.898438,5.2289569 15.797869,5.3486884 15.75,5.4938039 15.75,5.6391132 c 0,0.1823931 0.07613,0.3636774 0.226562,0.4902343 1.744304,1.4660414 2.744142,3.6060528 2.744141,5.8710935 0,2.26504 -1.000274,4.40514 -2.744141,5.871094 C 15.826125,17.99811 15.75,18.179349 15.75,18.361769 c 0,0.145335 0.04744,0.292378 0.148438,0.41211 0.226748,0.270194 0.630632,0.303329 0.90039,0.07617 C 18.833383,17.140308 20,14.643936 20,12.000441 20,9.3569463 18.833295,6.8610097 16.798828,5.1508319 16.663731,5.0372518 16.495034,4.9881738 16.332031,5.0023944 Z m -5.857422,0.9980469 c -0.121158,0.006 -0.238607,0.057319 -0.328125,0.1464844 L 7.2539062,9.0004413 H 5 c -0.554,0 -1,0.446 -1,0.9999997 v 4 c 0,0.554 0.446,1 1,1 h 2.2539062 l 2.8925778,2.853516 C 10.461482,18.168735 10.999826,17.94576 11,17.500441 V 6.5004413 c -4.07e-4,-0.2018464 -0.122127,-0.383656 -0.308594,-0.4609375 -0.07,-0.029112 -0.144102,-0.042665 -0.216797,-0.039063 z m 4.064453,0.9589844 c -0.08173,0.00691 -0.162351,0.028605 -0.236328,0.066406 -0.03699,0.018901 -0.07218,0.041943 -0.105468,0.068359 -0.03329,0.026417 -0.06341,0.057969 -0.0918,0.091797 -0.100568,0.1197317 -0.148438,0.2648208 -0.148438,0.4101562 0,0.045598 0.0041,0.090087 0.01367,0.1347657 0.0096,0.044679 0.02396,0.08883 0.04297,0.1308593 0.03802,0.08406 0.09471,0.1615364 0.169922,0.2246094 1.16302,0.9771565 1.830082,2.4041817 1.830082,3.9140627 0,1.509881 -0.667045,2.936469 -1.830078,3.914062 -0.07544,0.06328 -0.131955,0.138599 -0.169922,0.222657 -0.01898,0.04203 -0.03344,0.08819 -0.04297,0.132812 -0.0095,0.04463 -0.01367,0.08928 -0.01367,0.134766 0,0.145335 0.04744,0.290398 0.148438,0.410156 0.02839,0.03383 0.05849,0.06343 0.0918,0.08984 0.03331,0.02642 0.06847,0.04946 0.105468,0.06836 0.148019,0.07559 0.321792,0.08986 0.480469,0.04102 0.03967,-0.01221 0.07794,-0.02663 0.115235,-0.04687 0.0373,-0.02025 0.0737,-0.04583 0.107421,-0.07422 0.45401,-0.381819 0.847266,-0.817424 1.173829,-1.294922 0.195937,-0.286499 0.369345,-0.587456 0.515624,-0.90039 0.390075,-0.834498 0.597653,-1.753102 0.597653,-2.697271 0,-1.298231 -0.394841,-2.5471729 -1.113281,-3.5976559 -0.06531,-0.0955 -0.132506,-0.1891381 -0.203126,-0.28125 -0.282481,-0.3684491 -0.607495,-0.7083268 -0.970703,-1.0136719 -0.03377,-0.028392 -0.07009,-0.053971 -0.107421,-0.074219 -0.03733,-0.020249 -0.07556,-0.036618 -0.115235,-0.048828 -0.07936,-0.02442 -0.162413,-0.0323 -0.244141,-0.025391 z M 10,7.7074725 V 16.29341 L 7.625,14.000441 H 5 v -4 h 2.625 z m 2.642578,1.2089844 c -0.163003,0.014221 -0.320027,0.091245 -0.433594,0.2265625 -0.100568,0.119732 -0.15039,0.2667744 -0.15039,0.4121094 0,0.182393 0.07808,0.3621352 0.228515,0.4882812 0.581727,0.488823 0.914065,1.202309 0.914063,1.957031 0,0.754739 -0.332371,1.468235 -0.914063,1.957031 -0.150874,0.126574 -0.228515,0.306299 -0.228515,0.488281 0,0.145335 0.04939,0.292369 0.15039,0.41211 0.22716,0.270632 0.630222,0.305266 0.900391,0.07813 0.871505,-0.732164 1.371094,-1.802026 1.371094,-2.935552 0,-1.133614 -0.499563,-2.2034886 -1.371094,-2.9355466 -0.135098,-0.11358 -0.303794,-0.1626581 -0.466797,-0.1484375 z" />
  <sodipodi:namedview
     id="namedview9"
     pagecolor="#ffffff"
     bordercolor="#666666"
     borderopacity="1.0"
     inkscape:pageshadow="2"
     inkscape:pageopacity="0.0"
     inkscape:pagecheckerboard="0"
     showgrid="false"
     inkscape:zoom="12.234375"
     inkscape:cx="1.7164751"
     inkscape:cy="10.83014"
     inkscape:window-width="1920"
     inkscape:window-height="1004"
     inkscape:window-x="0"
     inkscape:window-y="24"
     inkscape:window-maximized="1"
     inkscape:current-layer="svg7"
     showguides="false" />
  <defs
     id="defs3">
    <style
       id="current-color-scheme"
       type="text/css">.ColorScheme-Text { color:#363636; }</style>
  </defs>
</svg>
