<?xml version="1.0" encoding="UTF-8" standalone="no"?>
<!-- Created with Inkscape (http://www.inkscape.org/) -->

<svg
   width="24"
   height="24"
   viewBox="0 0 6.3499999 6.3500003"
   version="1.1"
   id="svg851"
   inkscape:version="1.1.2 (0a00cf5339, 2022-02-04, custom)"
   sodipodi:docname="fcitx-hangul-panel.svg"
   xmlns:inkscape="http://www.inkscape.org/namespaces/inkscape"
   xmlns:sodipodi="http://sodipodi.sourceforge.net/DTD/sodipodi-0.dtd"
   xmlns="http://www.w3.org/2000/svg"
   xmlns:svg="http://www.w3.org/2000/svg">
  <sodipodi:namedview
     id="namedview853"
     pagecolor="#ffffff"
     bordercolor="#666666"
     borderopacity="1.0"
     inkscape:pageshadow="2"
     inkscape:pageopacity="0.0"
     inkscape:pagecheckerboard="0"
     inkscape:document-units="px"
     showgrid="false"
     units="px"
     showguides="false"
     inkscape:zoom="33.291667"
     inkscape:cx="11.984981"
     inkscape:cy="12"
     inkscape:window-width="1920"
     inkscape:window-height="1004"
     inkscape:window-x="0"
     inkscape:window-y="24"
     inkscape:window-maximized="1"
     inkscape:current-layer="svg851" />
  <defs
     id="defs848">
    <style
       id="current-color-scheme"
       type="text/css">.ColorScheme-Text { color:#363636; }</style>
  </defs>
  <path
     style="color:#000000;-inkscape-font-specification:'Noto Sans CJK KR Medium';fill:#363636;-inkscape-stroke:none;stroke:none"
     d="m 3.5625,1.0585937 v 0.2636719 3.96875 H 4.5175781 V 3.4023438 H 5.0761719 V 2.5214844 H 4.5175781 V 1.0585937 Z M 1.3007812,1.4511719 v 0.265625 0.6074219 H 2.4863281 C 2.3363612,2.9300325 1.983547,3.4239187 1.2578125,3.7949219 L 0.98242188,3.9355469 1.53125,4.6914062 1.7324219,4.5917969 c 1.2911163,-0.645558 1.8164062,-1.722714 1.8164062,-2.875 v -0.265625 z"
     id="path11867" />
  <path
     style="color:#000000;-inkscape-font-specification:'Noto Sans CJK KR Medium';fill:#f2f2f2;stroke-width:0.529167;-inkscape-stroke:none;stroke:none"
     d="M 3.8267499,1.3229167 V 5.0270845 H 4.2522836 V 3.1385265 H 4.8115561 V 2.7859416 H 4.2522836 V 1.3229167 Z M 1.5653434,1.7160287 V 2.0605082 H 2.8581548 C 2.7730481,2.9115753 2.2826713,3.5681127 1.3789191,4.0301204 l 0.2350567,0.324216 C 2.8297859,3.7464315 3.2836881,2.7940469 3.2836881,1.7160287 Z"
     id="path11865" />
</svg>
