<?xml version="1.0" encoding="UTF-8" standalone="no"?>
<!-- Created with Inkscape (http://www.inkscape.org/) -->

<svg
   width="64"
   height="64"
   viewBox="0 0 16.933333 16.933334"
   version="1.1"
   id="svg5"
   inkscape:version="1.1.1 (3bf5ae0d25, 2021-09-20, custom)"
   sodipodi:docname="application-x-java.svg"
   xmlns:inkscape="http://www.inkscape.org/namespaces/inkscape"
   xmlns:sodipodi="http://sodipodi.sourceforge.net/DTD/sodipodi-0.dtd"
   xmlns="http://www.w3.org/2000/svg"
   xmlns:svg="http://www.w3.org/2000/svg">
  <sodipodi:namedview
     id="namedview7"
     pagecolor="#ffffff"
     bordercolor="#666666"
     borderopacity="1.0"
     inkscape:pageshadow="2"
     inkscape:pageopacity="0.0"
     inkscape:pagecheckerboard="0"
     inkscape:document-units="px"
     showgrid="false"
     units="px"
     height="64px"
     inkscape:zoom="12.078125"
     inkscape:cx="19.042691"
     inkscape:cy="26.783959"
     inkscape:window-width="1920"
     inkscape:window-height="996"
     inkscape:window-x="0"
     inkscape:window-y="0"
     inkscape:window-maximized="1"
     inkscape:current-layer="svg5" />
  <defs
     id="defs2" />
  <path
     id="rect846"
     style="fill:#7d7d7b;stroke-width:0.529167;stroke-linecap:round;stroke-linejoin:round"
     d="M 2.6458333,0.79374999 H 11.1125 L 14.2875,3.96875 V 16.139584 H 2.6458333 Z"
     sodipodi:nodetypes="cccccc" />
  <path
     id="rect1454"
     style="fill:#fafafa;stroke-width:2;stroke-linecap:round;stroke-linejoin:round"
     d="M 11 4 L 11 60 L 53 60 L 53 16.5 L 41.5 16.5 C 40.945997 16.5 40.5 16.054 40.5 15.5 L 40.5 4 L 11 4 z M 41.5 4 L 41.5 15.5 L 53 15.5 L 41.5 4 z "
     transform="scale(0.26458334)" />
  <path
     id="path17"
     d="m 10.928635,9.9476678 c -0.103563,3.444e-4 -0.213429,0.018661 -0.326245,0.058298 -0.09045,0.03202 -0.137897,0.106505 -0.137897,0.106505 0,0 0.05693,-0.02328 0.184424,-0.04989 0.521383,-0.1086403 1.268506,0.697798 -0.346986,1.537052 -0.0075,0.02 -0.03197,0.0426 -0.03195,0.0426 1.921234,-0.505058 1.502021,-1.6961968 0.658656,-1.6945698 z M 7.4004785,10.03007 c -0.1984334,0.0039 -0.6886304,0.04447 -1.2606967,0.3212 -0.8838697,0.427377 2.1860687,0.622059 3.7753634,0.204044 0.1652318,-0.112762 0.3935118,-0.21077 0.3935118,-0.21077 0,0 -0.6500208,0.116612 -1.2976932,0.17097 -0.7927705,0.06651 -1.6432869,0.07954 -2.0701434,0.02242 -1.0106791,-0.135118 0.5538319,-0.506745 0.5538319,-0.506745 0,0 -0.00938,-8.03e-4 -0.027467,-0.0011 -0.01582,-3.73e-4 -0.038359,-5.74e-4 -0.066707,10e-7 z m -0.2701893,0.977614 c -1.4580377,0.483905 0.8116145,1.033295 2.8493202,0.437237 -0.2165088,-0.07632 -0.3537123,-0.216376 -0.3537126,-0.216376 -0.9963167,0.191743 -1.572129,0.18568 -2.3010938,0.11043 -0.5635588,-0.05824 -0.1945138,-0.331291 -0.1945138,-0.331291 z m 0.2062857,0.9423 C 6.0127231,12.31989 8.1419998,13.084223 9.8276982,12.361995 9.5516136,12.254711 9.3534654,12.131044 9.3534654,12.131044 8.601764,12.273128 8.2532081,12.284057 7.5708884,12.20616 7.0077523,12.141572 7.3365749,11.949984 7.3365749,11.949984 Z M 6.416698,12.575006 c -0.5946819,0.01865 -1.756391,0.552861 -0.6934114,0.725363 3.4365476,0.55704 6.2643104,-0.250883 5.3729564,-0.65305 0,0 0.243608,0.200757 -0.267947,0.355954 -0.9727343,0.294635 -4.0497485,0.383479 -4.9043293,0.01177 -0.3069788,-0.133709 0.2689182,-0.319059 0.4501286,-0.358198 0.188945,-0.04087 0.2970964,-0.03307 0.2970964,-0.03307 -0.053289,-0.03752 -0.1440986,-0.0521 -0.2539332,-0.04877 z m 5.224969,0.51123 c 0,0 -0.108431,0.277663 -1.281438,0.498337 -1.323418,0.249149 -2.9559724,0.220348 -3.9239116,0.06054 0,0 0.1985778,0.164244 1.2175338,0.229829 1.5503515,0.09911 3.9314078,-0.05504 3.9878158,-0.788707 z"
     style="stroke-width:0.287006;fill:#5382a1;fill-opacity:1"
     sodipodi:nodetypes="cccccccccccccccccccccccccccccccccccccccccsc" />
  <path
     d="M 9.3282404,5.2916667 C 9.6890669,6.7131476 8.0556361,7.1424742 7.466064,8.0277542 7.0645802,8.6309288 7.662933,9.279263 8.4789937,10.015495 8.1607659,9.2961204 7.0817212,8.6665679 8.4795758,7.5624902 10.222669,6.1865696 9.3282404,5.2916667 9.3282404,5.2916667 Z m 1.0785146,1.7584727 c 2e-5,0 -2.9475591,0.7361727 -1.5398546,2.358271 0.4155641,0.4783613 -0.1087482,0.9086656 -0.1087482,0.9086656 0,0 1.0542854,-0.544541 0.5700882,-1.2265024 C 8.8758372,8.4549206 8.5290206,8.139052 10.406755,7.0501394 Z"
     style="stroke-width:0.075937;fill:#f89820;fill-opacity:1"
     id="path1051" />
</svg>
