<?xml version="1.0" encoding="UTF-8" standalone="no"?>
<!-- Created with Inkscape (http://www.inkscape.org/) -->

<svg
   width="64"
   height="64"
   viewBox="0 0 16.933333 16.933334"
   version="1.1"
   id="svg5"
   inkscape:version="1.1.1 (3bf5ae0d25, 2021-09-20, custom)"
   sodipodi:docname="application-octet-stream.svg"
   xmlns:inkscape="http://www.inkscape.org/namespaces/inkscape"
   xmlns:sodipodi="http://sodipodi.sourceforge.net/DTD/sodipodi-0.dtd"
   xmlns="http://www.w3.org/2000/svg"
   xmlns:svg="http://www.w3.org/2000/svg">
  <sodipodi:namedview
     id="namedview7"
     pagecolor="#ffffff"
     bordercolor="#666666"
     borderopacity="1.0"
     inkscape:pageshadow="2"
     inkscape:pageopacity="0.0"
     inkscape:pagecheckerboard="0"
     inkscape:document-units="px"
     showgrid="false"
     units="px"
     height="64px"
     inkscape:zoom="6.0390625"
     inkscape:cx="27.653299"
     inkscape:cy="55.886158"
     inkscape:window-width="1920"
     inkscape:window-height="996"
     inkscape:window-x="0"
     inkscape:window-y="0"
     inkscape:window-maximized="1"
     inkscape:current-layer="svg5" />
  <defs
     id="defs2" />
  <path
     id="rect846"
     style="fill:#7d7d7b;stroke-width:0.529167;stroke-linecap:round;stroke-linejoin:round"
     d="M 2.6458333,0.79374999 H 11.1125 L 14.2875,3.96875 V 16.139584 H 2.6458333 Z"
     sodipodi:nodetypes="cccccc" />
  <path
     id="rect1454"
     style="fill:#fafafa;stroke-width:2;stroke-linecap:round;stroke-linejoin:round"
     d="M 11 4 L 11 60 L 53 60 L 53 16.5 L 41.5 16.5 C 40.945997 16.5 40.5 16.054 40.5 15.5 L 40.5 4 L 11 4 z M 41.5 4 L 41.5 15.5 L 53 15.5 L 41.5 4 z "
     transform="scale(0.26458334)" />
  <path
     id="path12643"
     style="font-size:3.72076px;line-height:1.25;font-family:Roboto;-inkscape-font-specification:Roboto;stroke-width:0.351569;fill:#cccccc"
     d="M 28.048828 21 C 26.963912 21 26.166329 21.35619 25.658203 22.070312 C 25.150078 22.784435 24.896484 23.876259 24.896484 25.345703 L 24.896484 27.042969 C 24.914795 28.448325 25.180656 29.505299 25.693359 30.214844 C 26.206063 30.919811 26.995894 31.271484 28.0625 31.271484 C 29.142839 31.271484 29.937187 30.910778 30.445312 30.1875 C 30.953438 29.464222 31.207031 28.358848 31.207031 26.871094 L 31.207031 25.222656 C 31.193298 23.785256 30.931954 22.723765 30.423828 22.037109 C 29.915703 21.345876 29.124589 21 28.048828 21 z M 35.945312 21 C 34.860396 21 34.062813 21.35619 33.554688 22.070312 C 33.046562 22.784435 32.792969 23.876259 32.792969 25.345703 L 32.792969 27.042969 C 32.81128 28.448325 33.077141 29.505299 33.589844 30.214844 C 34.102547 30.919811 34.892379 31.271484 35.958984 31.271484 C 37.039323 31.271484 37.83367 30.910778 38.341797 30.1875 C 38.849922 29.464222 39.103516 28.358848 39.103516 26.871094 L 39.103516 25.222656 C 39.089783 23.785256 38.82844 22.723765 38.320312 22.037109 C 37.812188 21.345876 37.021074 21 35.945312 21 z M 43.841797 21 C 42.756881 21 41.959297 21.35619 41.451172 22.070312 C 40.943045 22.784435 40.689453 23.876259 40.689453 25.345703 L 40.689453 27.042969 C 40.707766 28.448325 40.973625 29.505299 41.486328 30.214844 C 41.999031 30.919811 42.788863 31.271484 43.855469 31.271484 C 44.935806 31.271484 45.730154 30.910778 46.238281 30.1875 C 46.746406 29.464222 47 28.358848 47 26.871094 L 47 25.222656 C 46.986268 23.785256 46.724924 22.723765 46.216797 22.037109 C 45.708672 21.345876 44.917559 21 43.841797 21 z M 21.017578 21.089844 L 17.376953 22.455078 L 17.376953 23.609375 L 19.939453 22.667969 L 19.939453 31.134766 L 21.216797 31.134766 L 21.216797 21.089844 L 21.017578 21.089844 z M 28.048828 22.042969 C 28.70344 22.042969 29.182246 22.290764 29.484375 22.785156 C 29.786504 23.274971 29.9375 24.057051 29.9375 25.132812 L 29.9375 27.214844 C 29.923767 28.258561 29.761785 29.022576 29.455078 29.507812 C 29.152949 29.993049 28.689646 30.236328 28.0625 30.236328 C 27.426199 30.236328 26.948674 29.9795 26.632812 29.466797 C 26.321528 28.949516 26.166016 28.150651 26.166016 27.070312 L 26.166016 25.037109 C 26.175171 24.020858 26.329402 23.269111 26.626953 22.779297 C 26.924504 22.289482 27.398794 22.042969 28.048828 22.042969 z M 35.945312 22.042969 C 36.599925 22.042969 37.078731 22.290764 37.380859 22.785156 C 37.682988 23.274971 37.833984 24.057051 37.833984 25.132812 L 37.833984 27.214844 C 37.820252 28.258561 37.658269 29.022576 37.351562 29.507812 C 37.049434 29.993049 36.58613 30.236328 35.958984 30.236328 C 35.322683 30.236328 34.847112 29.9795 34.53125 29.466797 C 34.219966 28.949516 34.0625 28.150651 34.0625 27.070312 L 34.0625 25.037109 C 34.071655 24.020858 34.225886 23.269111 34.523438 22.779297 C 34.820988 22.289482 35.295278 22.042969 35.945312 22.042969 z M 43.841797 22.042969 C 44.496409 22.042969 44.975213 22.290764 45.277344 22.785156 C 45.579472 23.274971 45.730469 24.057051 45.730469 25.132812 L 45.730469 27.214844 C 45.716736 28.258561 45.556706 29.022576 45.25 29.507812 C 44.94787 29.993049 44.482613 30.236328 43.855469 30.236328 C 43.219168 30.236328 42.743597 29.9795 42.427734 29.466797 C 42.11645 28.949516 41.958984 28.150651 41.958984 27.070312 L 41.958984 25.037109 C 41.968141 24.020858 42.122372 23.269111 42.419922 22.779297 C 42.717474 22.289482 43.191763 22.042969 43.841797 22.042969 z M 20.152344 34 C 19.067427 34 18.269844 34.356189 17.761719 35.070312 C 17.253593 35.784434 17 36.876261 17 38.345703 L 17 40.042969 C 17.018311 41.448323 17.284172 42.505298 17.796875 43.214844 C 18.309578 43.919809 19.09941 44.271484 20.166016 44.271484 C 21.246355 44.271484 22.040703 43.910776 22.548828 43.1875 C 23.056954 42.464222 23.310547 41.358849 23.310547 39.871094 L 23.310547 38.222656 C 23.296814 36.785254 23.035469 35.723764 22.527344 35.037109 C 22.019218 34.345875 21.228105 34 20.152344 34 z M 35.945312 34 C 34.860396 34 34.062813 34.356189 33.554688 35.070312 C 33.046562 35.784434 32.792969 36.876261 32.792969 38.345703 L 32.792969 40.042969 C 32.81128 41.448323 33.077141 42.505298 33.589844 43.214844 C 34.102547 43.919809 34.892379 44.271484 35.958984 44.271484 C 37.039323 44.271484 37.83367 43.910776 38.341797 43.1875 C 38.849922 42.464222 39.103516 41.358849 39.103516 39.871094 L 39.103516 38.222656 C 39.089783 36.785254 38.82844 35.723764 38.320312 35.037109 C 37.812188 34.345875 37.021074 34 35.945312 34 z M 43.841797 34 C 42.756881 34 41.959297 34.356189 41.451172 35.070312 C 40.943045 35.784434 40.689453 36.876261 40.689453 38.345703 L 40.689453 40.042969 C 40.707766 41.448323 40.973625 42.505298 41.486328 43.214844 C 41.999031 43.919809 42.788863 44.271484 43.855469 44.271484 C 44.935806 44.271484 45.730154 43.910776 46.238281 43.1875 C 46.746406 42.464222 47 41.358849 47 39.871094 L 47 38.222656 C 46.986268 36.785254 46.724924 35.723764 46.216797 35.037109 C 45.708672 34.345875 44.917559 34 43.841797 34 z M 28.914062 34.089844 L 25.273438 35.455078 L 25.273438 36.609375 L 27.835938 35.667969 L 27.835938 44.134766 L 29.113281 44.134766 L 29.113281 34.089844 L 28.914062 34.089844 z M 20.152344 35.042969 C 20.806956 35.042969 21.283809 35.290764 21.585938 35.785156 C 21.888066 36.27497 22.041016 37.057053 22.041016 38.132812 L 22.041016 40.214844 C 22.027282 41.25856 21.8653 42.022574 21.558594 42.507812 C 21.256465 42.993048 20.793161 43.236328 20.166016 43.236328 C 19.529715 43.236328 19.05219 42.9795 18.736328 42.466797 C 18.425044 41.949516 18.269531 41.15065 18.269531 40.070312 L 18.269531 38.037109 C 18.278687 37.020858 18.432918 36.269111 18.730469 35.779297 C 19.02802 35.289483 19.502309 35.042969 20.152344 35.042969 z M 35.945312 35.042969 C 36.599925 35.042969 37.078731 35.290764 37.380859 35.785156 C 37.682988 36.27497 37.833984 37.057053 37.833984 38.132812 L 37.833984 40.214844 C 37.820252 41.25856 37.658269 42.022574 37.351562 42.507812 C 37.049434 42.993048 36.58613 43.236328 35.958984 43.236328 C 35.322683 43.236328 34.847112 42.9795 34.53125 42.466797 C 34.219966 41.949516 34.0625 41.15065 34.0625 40.070312 L 34.0625 38.037109 C 34.071655 37.020858 34.225886 36.269111 34.523438 35.779297 C 34.820988 35.289483 35.295278 35.042969 35.945312 35.042969 z M 43.841797 35.042969 C 44.496409 35.042969 44.975213 35.290764 45.277344 35.785156 C 45.579472 36.27497 45.730469 37.057053 45.730469 38.132812 L 45.730469 40.214844 C 45.716736 41.25856 45.556706 42.022574 45.25 42.507812 C 44.94787 42.993048 44.482613 43.236328 43.855469 43.236328 C 43.219168 43.236328 42.743597 42.9795 42.427734 42.466797 C 42.11645 41.949516 41.958984 41.15065 41.958984 40.070312 L 41.958984 38.037109 C 41.968141 37.020858 42.122372 36.269111 42.419922 35.779297 C 42.717474 35.289483 43.191763 35.042969 43.841797 35.042969 z M 20.152344 48 C 19.067427 48 18.269844 48.356191 17.761719 49.070312 C 17.253593 49.784434 17 50.876258 17 52.345703 L 17 54.042969 C 17.018311 55.448323 17.284172 56.505298 17.796875 57.214844 C 18.309578 57.919811 19.09941 58.271484 20.166016 58.271484 C 21.246355 58.271484 22.040703 57.910778 22.548828 57.1875 C 23.056954 56.464222 23.310547 55.358849 23.310547 53.871094 L 23.310547 52.222656 C 23.296814 50.785257 23.035469 49.723766 22.527344 49.037109 C 22.019218 48.345877 21.228105 48 20.152344 48 z M 28.048828 48 C 26.963912 48 26.166329 48.356191 25.658203 49.070312 C 25.150078 49.784434 24.896484 50.876258 24.896484 52.345703 L 24.896484 54.042969 C 24.914795 55.448323 25.180656 56.505298 25.693359 57.214844 C 26.206063 57.919811 26.995894 58.271484 28.0625 58.271484 C 29.142839 58.271484 29.937187 57.910778 30.445312 57.1875 C 30.953438 56.464222 31.207031 55.358849 31.207031 53.871094 L 31.207031 52.222656 C 31.193298 50.785257 30.931954 49.723766 30.423828 49.037109 C 29.915703 48.345877 29.124589 48 28.048828 48 z M 43.841797 48 C 42.756881 48 41.959297 48.356191 41.451172 49.070312 C 40.943045 49.784434 40.689453 50.876258 40.689453 52.345703 L 40.689453 54.042969 C 40.707766 55.448323 40.973625 56.505298 41.486328 57.214844 C 41.999031 57.919811 42.788863 58.271484 43.855469 58.271484 C 44.935806 58.271484 45.730154 57.910778 46.238281 57.1875 C 46.746406 56.464222 47 55.358849 47 53.871094 L 47 52.222656 C 46.986268 50.785257 46.724924 49.723766 46.216797 49.037109 C 45.708672 48.345877 44.917559 48 43.841797 48 z M 36.810547 48.089844 L 33.169922 49.455078 L 33.169922 50.609375 L 35.732422 49.667969 L 35.732422 58.134766 L 37.009766 58.134766 L 37.009766 48.089844 L 36.810547 48.089844 z M 20.152344 49.042969 C 20.806956 49.042969 21.283809 49.290764 21.585938 49.785156 C 21.888066 50.27497 22.041016 51.057051 22.041016 52.132812 L 22.041016 54.214844 C 22.027282 55.25856 21.8653 56.022574 21.558594 56.507812 C 21.256465 56.993048 20.793161 57.236328 20.166016 57.236328 C 19.529715 57.236328 19.05219 56.9795 18.736328 56.466797 C 18.425044 55.949516 18.269531 55.15065 18.269531 54.070312 L 18.269531 52.037109 C 18.278687 51.020857 18.432918 50.269111 18.730469 49.779297 C 19.02802 49.289483 19.502309 49.042969 20.152344 49.042969 z M 28.048828 49.042969 C 28.70344 49.042969 29.182246 49.290764 29.484375 49.785156 C 29.786504 50.27497 29.9375 51.057051 29.9375 52.132812 L 29.9375 54.214844 C 29.923767 55.25856 29.761785 56.022574 29.455078 56.507812 C 29.152949 56.993048 28.689646 57.236328 28.0625 57.236328 C 27.426199 57.236328 26.948674 56.9795 26.632812 56.466797 C 26.321528 55.949516 26.166016 55.15065 26.166016 54.070312 L 26.166016 52.037109 C 26.175171 51.020857 26.329402 50.269111 26.626953 49.779297 C 26.924504 49.289483 27.398794 49.042969 28.048828 49.042969 z M 43.841797 49.042969 C 44.496409 49.042969 44.975213 49.290764 45.277344 49.785156 C 45.579472 50.27497 45.730469 51.057051 45.730469 52.132812 L 45.730469 54.214844 C 45.716736 55.25856 45.556706 56.022574 45.25 56.507812 C 44.94787 56.993048 44.482613 57.236328 43.855469 57.236328 C 43.219168 57.236328 42.743597 56.9795 42.427734 56.466797 C 42.11645 55.949516 41.958984 55.15065 41.958984 54.070312 L 41.958984 52.037109 C 41.968141 51.020857 42.122372 50.269111 42.419922 49.779297 C 42.717474 49.289483 43.191763 49.042969 43.841797 49.042969 z "
     transform="scale(0.26458334)" />
</svg>
