<?xml version="1.0" encoding="UTF-8" standalone="no"?>
<!-- Created with Inkscape (http://www.inkscape.org/) -->

<svg
   width="64"
   height="64"
   viewBox="0 0 16.933333 16.933334"
   version="1.1"
   id="svg5"
   inkscape:version="1.1.1 (3bf5ae0d25, 2021-09-20, custom)"
   sodipodi:docname="application-x-srt.svg"
   xmlns:inkscape="http://www.inkscape.org/namespaces/inkscape"
   xmlns:sodipodi="http://sodipodi.sourceforge.net/DTD/sodipodi-0.dtd"
   xmlns:xlink="http://www.w3.org/1999/xlink"
   xmlns="http://www.w3.org/2000/svg"
   xmlns:svg="http://www.w3.org/2000/svg">
  <sodipodi:namedview
     id="namedview7"
     pagecolor="#ffffff"
     bordercolor="#666666"
     borderopacity="1.0"
     inkscape:pageshadow="2"
     inkscape:pageopacity="0.0"
     inkscape:pagecheckerboard="0"
     inkscape:document-units="px"
     showgrid="false"
     units="px"
     height="64px"
     inkscape:zoom="8.5405241"
     inkscape:cx="12.762683"
     inkscape:cy="23.944666"
     inkscape:window-width="1920"
     inkscape:window-height="996"
     inkscape:window-x="0"
     inkscape:window-y="0"
     inkscape:window-maximized="1"
     inkscape:current-layer="svg5" />
  <defs
     id="defs2">
    <linearGradient
       inkscape:collect="always"
       xlink:href="#linearGradient12418"
       id="linearGradient2216"
       x1="42"
       y1="4.9999995"
       x2="56"
       y2="31"
       gradientUnits="userSpaceOnUse"
       gradientTransform="matrix(0.26458334,0,0,0.26458334,-4.4979159,5.0270834)" />
    <linearGradient
       inkscape:collect="always"
       id="linearGradient12418">
      <stop
         style="stop-color:#52e4ff;stop-opacity:1;"
         offset="0"
         id="stop12414" />
      <stop
         style="stop-color:#d29eff;stop-opacity:1"
         offset="1"
         id="stop12416" />
    </linearGradient>
    <linearGradient
       inkscape:collect="always"
       xlink:href="#linearGradient27684"
       id="linearGradient27686"
       x1="86.812088"
       y1="124.12689"
       x2="114.91612"
       y2="145.73866"
       gradientUnits="userSpaceOnUse"
       gradientTransform="matrix(0.22529123,0,0,0.39018654,-14.001752,-42.876392)" />
    <linearGradient
       inkscape:collect="always"
       id="linearGradient27684">
      <stop
         style="stop-color:#4a4a4a;stop-opacity:1;"
         offset="0"
         id="stop27680" />
      <stop
         style="stop-color:#232323;stop-opacity:0.74901962"
         offset="1"
         id="stop27682" />
    </linearGradient>
  </defs>
  <path
     id="rect846"
     style="fill:#7d7d7b;stroke-width:0.529167;stroke-linecap:round;stroke-linejoin:round"
     d="M 2.6458333,0.79374999 H 11.1125 L 14.2875,3.96875 V 16.139584 H 2.6458333 Z"
     sodipodi:nodetypes="cccccc" />
  <path
     id="rect1454"
     style="fill:#fafafa;stroke-width:2;stroke-linecap:round;stroke-linejoin:round"
     d="M 11 4 L 11 60 L 53 60 L 53 16.5 L 41.5 16.5 C 40.945997 16.5 40.5 16.054 40.5 15.5 L 40.5 4 L 11 4 z M 41.5 4 L 41.5 15.5 L 53 15.5 L 41.5 4 z "
     transform="scale(0.26458334)" />
  <path
     id="rect862"
     style="fill:url(#linearGradient27686);stroke-width:0.218638;stroke-linecap:round;stroke-linejoin:round"
     d="m 5.2916664,5.5562501 h 6.3499996 c 0.14658,0 0.264584,0.1180042 0.264584,0.2645834 v 7.9374995 c 0,0.146579 -0.118004,0.264583 -0.264584,0.264583 H 5.2916664 c -0.146579,0 -0.264583,-0.118004 -0.264583,-0.264583 V 5.8208335 c 0,-0.1465792 0.118004,-0.2645834 0.264583,-0.2645834 z"
     sodipodi:nodetypes="sssssssss" />
  <path
     id="rect1388"
     style="fill:#ffffff;stroke-width:0.79375;stroke-linecap:round;stroke-linejoin:round"
     d="M 5.6818247,6.0854168 C 5.6117327,6.0889468 5.556251,6.1467088 5.556251,6.2177084 v 0.5291667 c 0,0.07329 0.059002,0.1322917 0.1322917,0.1322917 H 5.953126 c 0.07329,0 0.1322917,-0.059002 0.1322917,-0.1322917 V 6.2177084 c 0,-0.07329 -0.059002,-0.1322916 -0.1322917,-0.1322916 H 5.6885427 c -0.0023,0 -0.00446,-1.139e-4 -0.00672,0 z m 5.2916673,0 c -0.07009,0.00353 -0.125574,0.061292 -0.125574,0.1322916 v 0.5291667 c 0,0.07329 0.059,0.1322917 0.132292,0.1322917 h 0.264583 c 0.07329,0 0.132292,-0.059002 0.132292,-0.1322917 V 6.2177084 c 0,-0.07329 -0.059,-0.1322916 -0.132292,-0.1322916 H 10.98021 c -0.0023,0 -0.0045,-1.139e-4 -0.0067,0 z m -5.2916673,1.5875 C 5.6117327,7.6764468 5.556251,7.7342088 5.556251,7.8052085 v 0.5291666 c 0,0.07329 0.059002,0.1322917 0.1322917,0.1322917 H 5.953126 c 0.07329,0 0.1322917,-0.059002 0.1322917,-0.1322917 V 7.8052085 c 0,-0.07329 -0.059002,-0.1322917 -0.1322917,-0.1322917 H 5.6885427 c -0.0023,0 -0.00446,-1.139e-4 -0.00672,0 z m 5.2916673,0 c -0.07009,0.00353 -0.125574,0.061292 -0.125574,0.1322917 v 0.5291666 c 0,0.07329 0.059,0.1322917 0.132292,0.1322917 h 0.264583 c 0.07329,0 0.132292,-0.059002 0.132292,-0.1322917 V 7.8052085 c 0,-0.07329 -0.059,-0.1322917 -0.132292,-0.1322917 H 10.98021 c -0.0023,0 -0.0045,-1.139e-4 -0.0067,0 z m -5.2916673,1.5875 C 5.6117327,9.2639468 5.556251,9.3217088 5.556251,9.3927085 v 0.5291667 c 0,0.07329 0.059002,0.1322918 0.1322917,0.1322918 H 5.953126 c 0.07329,0 0.1322917,-0.059 0.1322917,-0.1322918 V 9.3927085 c 0,-0.07329 -0.059002,-0.1322917 -0.1322917,-0.1322917 H 5.6885427 c -0.0023,0 -0.00446,-1.137e-4 -0.00672,0 z m 5.2916673,0 c -0.07009,0.00353 -0.125574,0.061292 -0.125574,0.1322917 v 0.5291667 c 0,0.07329 0.059,0.1322918 0.132292,0.1322918 h 0.264583 c 0.07329,0 0.132292,-0.059 0.132292,-0.1322918 V 9.3927085 c 0,-0.07329 -0.059,-0.1322917 -0.132292,-0.1322917 H 10.98021 c -0.0023,0 -0.0045,-1.137e-4 -0.0067,0 z M 5.6818247,10.847917 c -0.070092,0.0035 -0.1255737,0.06129 -0.1255737,0.132291 v 0.529167 c 0,0.07329 0.059002,0.132292 0.1322917,0.132292 H 5.953126 c 0.07329,0 0.1322917,-0.059 0.1322917,-0.132292 v -0.529167 c 0,-0.07329 -0.059002,-0.132291 -0.1322917,-0.132291 H 5.6885427 c -0.0023,0 -0.00446,-1.14e-4 -0.00672,0 z m 5.2916673,0 c -0.07009,0.0035 -0.125574,0.06129 -0.125574,0.132291 v 0.529167 c 0,0.07329 0.059,0.132292 0.132292,0.132292 h 0.264583 c 0.07329,0 0.132292,-0.059 0.132292,-0.132292 v -0.529167 c 0,-0.07329 -0.059,-0.132291 -0.132292,-0.132291 H 10.98021 c -0.0023,0 -0.0045,-1.14e-4 -0.0067,0 z m -5.2916673,1.587499 c -0.070092,0.0035 -0.1255737,0.06129 -0.1255737,0.132292 v 0.529167 c 0,0.07329 0.059002,0.132291 0.1322917,0.132291 H 5.953126 c 0.07329,0 0.1322917,-0.059 0.1322917,-0.132291 v -0.529167 c 0,-0.07329 -0.059002,-0.132292 -0.1322917,-0.132292 H 5.6885427 c -0.0023,0 -0.00446,-1.13e-4 -0.00672,0 z m 5.2916673,0 c -0.07009,0.0035 -0.125574,0.06129 -0.125574,0.132292 v 0.529167 c 0,0.07329 0.059,0.132291 0.132292,0.132291 h 0.264583 c 0.07329,0 0.132292,-0.059 0.132292,-0.132291 v -0.529167 c 0,-0.07329 -0.059,-0.132292 -0.132292,-0.132292 H 10.98021 c -0.0023,0 -0.0045,-1.13e-4 -0.0067,0 z"
     sodipodi:nodetypes="sssssssssssssssssssssssssssssssssssssssscssssssssccssssssssccssssssssccssssssssccsssssssscssssssssss" />
  <path
     id="rect2063"
     style="fill:url(#linearGradient2216);fill-opacity:1;stroke-width:0.79375;stroke-linecap:round;stroke-linejoin:round"
     d="m 7.1437511,6.3500001 c -0.2931581,0 -0.5291667,0.2360084 -0.5291667,0.5291667 v 2.1166667 c 0,0.2931583 0.2360086,0.5291667 0.5291667,0.5291667 h 2.6458337 c 0.2931582,0 0.5291662,-0.2360084 0.5291662,-0.5291667 V 6.8791668 c 0,-0.2931583 -0.236008,-0.5291667 -0.5291662,-0.5291667 z m 0,3.7041669 c -0.2931581,0 -0.5291667,0.236008 -0.5291667,0.529166 V 12.7 c 0,0.293158 0.2360086,0.529166 0.5291667,0.529166 h 2.6458337 c 0.2931582,0 0.5291662,-0.236008 0.5291662,-0.529166 v -2.116667 c 0,-0.293158 -0.236008,-0.529166 -0.5291662,-0.529166 z" />
</svg>
