<?xml version="1.0" encoding="UTF-8" standalone="no"?>
<!-- Created with Inkscape (http://www.inkscape.org/) -->

<svg
   width="64"
   height="64"
   viewBox="0 0 16.933333 16.933334"
   version="1.1"
   id="svg5"
   inkscape:version="1.1.1 (3bf5ae0d25, 2021-09-20, custom)"
   sodipodi:docname="application-rss_xml.svg"
   xmlns:inkscape="http://www.inkscape.org/namespaces/inkscape"
   xmlns:sodipodi="http://sodipodi.sourceforge.net/DTD/sodipodi-0.dtd"
   xmlns="http://www.w3.org/2000/svg"
   xmlns:svg="http://www.w3.org/2000/svg">
  <sodipodi:namedview
     id="namedview7"
     pagecolor="#ffffff"
     bordercolor="#666666"
     borderopacity="1.0"
     inkscape:pageshadow="2"
     inkscape:pageopacity="0.0"
     inkscape:pagecheckerboard="0"
     inkscape:document-units="px"
     showgrid="false"
     units="px"
     height="64px"
     inkscape:zoom="12.078125"
     inkscape:cx="31.958603"
     inkscape:cy="32"
     inkscape:window-width="1920"
     inkscape:window-height="996"
     inkscape:window-x="0"
     inkscape:window-y="0"
     inkscape:window-maximized="1"
     inkscape:current-layer="svg5" />
  <defs
     id="defs2" />
  <path
     id="rect846"
     style="fill:#7d7d7b;stroke-width:0.529167;stroke-linecap:round;stroke-linejoin:round"
     d="M 2.6458333,0.79374999 H 11.1125 L 14.2875,3.96875 V 16.139584 H 2.6458333 Z"
     sodipodi:nodetypes="cccccc" />
  <path
     id="rect1454"
     style="fill:#fafafa;stroke-width:2;stroke-linecap:round;stroke-linejoin:round"
     d="M 11 4 L 11 60 L 53 60 L 53 16.5 L 41.5 16.5 C 40.945997 16.5 40.5 16.054 40.5 15.5 L 40.5 4 L 11 4 z M 41.5 4 L 41.5 15.5 L 53 15.5 L 41.5 4 z "
     transform="scale(0.26458334)" />
  <path
     id="path3107"
     style="fill:#ff9955;fill-opacity:1;stroke-width:0.501497;stroke-linecap:round;stroke-linejoin:round"
     d="m 5.2916667,5.8208334 v 1.0583334 c 3.2147574,0 5.8208333,2.606076 5.8208333,5.8208342 h 1.058333 c 0,-3.7992595 -3.0799075,-6.8791676 -6.8791663,-6.8791676 z m 0,2.9104168 V 9.7895835 A 2.9104167,2.9104167 0 0 1 8.2020835,12.700001 H 9.2604168 A 3.9687501,3.9687501 0 0 0 5.2916667,8.7312502 Z M 5.55625,11.641667 a 0.79375002,0.79375002 0 0 0 -0.79375,0.79375 0.79375002,0.79375002 0 0 0 0.79375,0.79375 0.79375002,0.79375002 0 0 0 0.7937501,-0.79375 0.79375002,0.79375002 0 0 0 -0.7937501,-0.79375 z" />
</svg>
