<?xml version="1.0" encoding="UTF-8" standalone="no"?>
<!-- Created with Inkscape (http://www.inkscape.org/) -->

<svg
   width="64"
   height="64"
   viewBox="0 0 16.933333 16.933334"
   version="1.1"
   id="svg5"
   inkscape:version="1.1.1 (3bf5ae0d25, 2021-09-20, custom)"
   sodipodi:docname="application-vnd.oasis.opendocument.presentation-template.svg"
   xmlns:inkscape="http://www.inkscape.org/namespaces/inkscape"
   xmlns:sodipodi="http://sodipodi.sourceforge.net/DTD/sodipodi-0.dtd"
   xmlns="http://www.w3.org/2000/svg"
   xmlns:svg="http://www.w3.org/2000/svg">
  <sodipodi:namedview
     id="namedview7"
     pagecolor="#ffffff"
     bordercolor="#666666"
     borderopacity="1.0"
     inkscape:pageshadow="2"
     inkscape:pageopacity="0.0"
     inkscape:pagecheckerboard="0"
     inkscape:document-units="px"
     showgrid="false"
     units="px"
     height="64px"
     inkscape:zoom="8"
     inkscape:cx="39.625"
     inkscape:cy="33.9375"
     inkscape:window-width="1920"
     inkscape:window-height="996"
     inkscape:window-x="0"
     inkscape:window-y="0"
     inkscape:window-maximized="1"
     inkscape:current-layer="svg5" />
  <defs
     id="defs2" />
  <path
     id="rect1054"
     style="fill:#7d7d7b;stroke-width:0.79375;stroke-linecap:round;stroke-linejoin:round"
     d="m 2.6458335,0.79375011 10.0541685,1e-7 1.587498,0.52916649 1e-6,14.8166683 H 3.7041664 V 15.08125 H 2.6458335 Z"
     sodipodi:nodetypes="cccccccc" />
  <path
     id="rect1308"
     style="fill:#fafafa;fill-opacity:1;stroke-width:1.05833;stroke-linecap:round;stroke-linejoin:round"
     d="M 2.9104167,4.2333334 V 14.816667 H 12.964584 V 4.2333334 Z M 13.229167,1.3229167 V 15.08125 H 3.9687504 V 15.875 H 14.022917 V 1.4552084 Z"
     sodipodi:nodetypes="cccccccccccc" />
  <path
     id="rect6964"
     style="fill:#e8ab72;fill-opacity:1;stroke-width:0.737648;stroke-linecap:round;stroke-linejoin:round"
     d="m 2.6458337,0.79375011 10.3187493,-10e-8 V 4.4979167 l -10.3187493,10e-8 z"
     sodipodi:nodetypes="ccccc" />
  <path
     id="rect13579"
     style="fill:#e6821d;fill-opacity:1;stroke-width:0.746175;stroke-linecap:round;stroke-linejoin:round"
     d="M 12.964583,0.79375001 V 1.3229167 L 14.2875,1.8520834 V 1.3229167 Z M 2.6458334,4.2333334 V 4.4979168 H 12.964583 V 4.2333334 Z"
     sodipodi:nodetypes="cccccccccc" />
  <path
     id="rect8443"
     style="opacity:1;fill:#c0c5cb;fill-opacity:1;stroke-width:0.79375;stroke-linecap:round;stroke-linejoin:round"
     d="m 7.9375002,5.8208335 c -1.4612536,0 -2.6458334,1.1845798 -2.6458334,2.6458334 0,1.4612536 1.1845798,2.6458341 2.6458334,2.6458341 1.4612536,0 2.6458338,-1.1845805 2.6458338,-2.6458341 H 7.9375002 Z M 3.9687501,11.906251 c -0.1465792,0 -0.2645833,0.118004 -0.2645833,0.264583 0,0.146579 0.1180041,0.264584 0.2645833,0.264584 H 11.90625 c 0.146579,0 0.264584,-0.118005 0.264584,-0.264584 0,-0.146579 -0.118005,-0.264583 -0.264584,-0.264583 z m 0,1.322917 c -0.1465792,0 -0.2645833,0.118004 -0.2645833,0.264583 0,0.146579 0.1180041,0.264583 0.2645833,0.264583 H 11.90625 c 0.146579,0 0.264584,-0.118004 0.264584,-0.264583 0,-0.146579 -0.118005,-0.264583 -0.264584,-0.264583 z"
     sodipodi:nodetypes="csscccssssssssssssss" />
  <path
     id="path928"
     style="fill:#e8ab72;fill-opacity:1;stroke-width:0.79375;stroke-linecap:round;stroke-linejoin:round"
     d="M 8.4666669,5.2916668 V 7.9375002 H 11.1125 A 2.6458333,2.6458333 0 0 0 8.4666669,5.2916668 Z" />
</svg>
