<?xml version="1.0" encoding="UTF-8" standalone="no"?>
<!-- Created with Inkscape (http://www.inkscape.org/) -->

<svg
   width="64"
   height="64"
   viewBox="0 0 16.933333 16.933334"
   version="1.1"
   id="svg5"
   inkscape:version="1.1.1 (3bf5ae0d25, 2021-09-20, custom)"
   sodipodi:docname="application-vnd.ms-excel.template.macroenabled.12.svg"
   xmlns:inkscape="http://www.inkscape.org/namespaces/inkscape"
   xmlns:sodipodi="http://sodipodi.sourceforge.net/DTD/sodipodi-0.dtd"
   xmlns="http://www.w3.org/2000/svg"
   xmlns:svg="http://www.w3.org/2000/svg">
  <sodipodi:namedview
     id="namedview7"
     pagecolor="#ffffff"
     bordercolor="#666666"
     borderopacity="1.0"
     inkscape:pageshadow="2"
     inkscape:pageopacity="0.0"
     inkscape:pagecheckerboard="0"
     inkscape:document-units="px"
     showgrid="false"
     units="px"
     height="64px"
     inkscape:zoom="6.870689"
     inkscape:cx="25.470517"
     inkscape:cy="39.07905"
     inkscape:window-width="1920"
     inkscape:window-height="996"
     inkscape:window-x="0"
     inkscape:window-y="0"
     inkscape:window-maximized="1"
     inkscape:current-layer="svg5" />
  <defs
     id="defs2" />
  <path
     id="rect1054"
     style="fill:#7d7d7b;stroke-width:0.79375;stroke-linecap:round;stroke-linejoin:round"
     d="m 2.6458335,0.79375011 10.0541685,1e-7 1.5875,0.26458309 -10e-7,15.0812517 H 3.96875 V 14.816666 H 2.6458335 Z"
     sodipodi:nodetypes="cccccccc" />
  <path
     id="rect1308"
     style="fill:#fafafa;fill-opacity:1;stroke-width:1.05833;stroke-linecap:round;stroke-linejoin:round"
     d="M 2.9104167,4.2333334 V 14.552083 H 12.964584 V 4.2333334 Z M 13.229167,1.3229167 V 14.816666 H 4.2333334 V 15.875 H 14.022917 V 1.4552084 Z"
     sodipodi:nodetypes="cccccccccccc" />
  <path
     id="rect6964"
     style="fill:#41be68;fill-opacity:1;stroke-width:0.737648;stroke-linecap:round;stroke-linejoin:round;stroke:none"
     d="m 2.6458337,0.79375011 10.3187493,-10e-8 V 4.4979167 l -10.3187493,10e-8 z"
     sodipodi:nodetypes="ccccc" />
  <path
     id="rect13579"
     style="fill:#0c7c42;fill-opacity:1;stroke-width:0.746175;stroke-linecap:round;stroke-linejoin:round"
     d="M 12.964583,0.79375001 V 1.3229167 L 14.2875,1.5875001 V 1.0583334 Z M 2.6458334,4.2333334 V 4.4979168 H 12.964583 V 4.2333334 Z"
     sodipodi:nodetypes="cccccccccc" />
  <path
     id="rect1305"
     style="fill:#c0c5cb;stroke-width:0.79375;stroke-linecap:round;stroke-linejoin:round"
     d="m 8.2020834,6.0854168 c -0.1465799,0 -0.2645833,0.1180042 -0.2645833,0.2645834 0,0.1465791 0.1180034,0.2645833 0.2645833,0.2645833 h 1.3229165 c 0.1465789,0 0.2645835,-0.1180042 0.2645835,-0.2645833 0,-0.1465792 -0.1180046,-0.2645834 -0.2645835,-0.2645834 z m 2.6458326,0 c -0.14658,0 -0.264583,0.1180042 -0.264583,0.2645834 0,0.1465791 0.118003,0.2645833 0.264583,0.2645833 h 1.322917 c 0.146579,0 0.264584,-0.1180042 0.264584,-0.2645833 0,-0.1465792 -0.118005,-0.2645834 -0.264584,-0.2645834 z M 8.2020834,7.4083335 c -0.1465799,0 -0.2645833,0.1180042 -0.2645833,0.2645834 0,0.1465791 0.1180034,0.2645833 0.2645833,0.2645833 h 1.3229165 c 0.1465789,0 0.2645835,-0.1180042 0.2645835,-0.2645833 0,-0.1465792 -0.1180046,-0.2645834 -0.2645835,-0.2645834 z m 2.6458326,0 c -0.14658,0 -0.264583,0.1180042 -0.264583,0.2645834 0,0.1465791 0.118003,0.2645833 0.264583,0.2645833 h 1.322917 c 0.146579,0 0.264584,-0.1180042 0.264584,-0.2645833 0,-0.1465792 -0.118005,-0.2645834 -0.264584,-0.2645834 z M 8.2020834,8.7312502 c -0.1465799,0 -0.2645833,0.1180042 -0.2645833,0.2645834 0,0.1465791 0.1180034,0.2645833 0.2645833,0.2645833 h 1.3229165 c 0.1465789,0 0.2645835,-0.1180042 0.2645835,-0.2645833 0,-0.1465792 -0.1180046,-0.2645834 -0.2645835,-0.2645834 z m 2.6458326,0 c -0.14658,0 -0.264583,0.1180042 -0.264583,0.2645834 0,0.1465791 0.118003,0.2645833 0.264583,0.2645833 h 1.322917 c 0.146579,0 0.264584,-0.1180042 0.264584,-0.2645833 0,-0.1465792 -0.118005,-0.2645834 -0.264584,-0.2645834 z M 8.2020834,10.054167 c -0.1465799,0 -0.2645833,0.118004 -0.2645833,0.264583 0,0.146579 0.1180034,0.264584 0.2645833,0.264584 h 1.3229165 c 0.1465789,0 0.2645835,-0.118005 0.2645835,-0.264584 0,-0.146579 -0.1180046,-0.264583 -0.2645835,-0.264583 z m 2.6458326,0 c -0.14658,0 -0.264583,0.118004 -0.264583,0.264583 0,0.146579 0.118003,0.264584 0.264583,0.264584 h 1.322917 c 0.146579,0 0.264584,-0.118005 0.264584,-0.264584 0,-0.146579 -0.118005,-0.264583 -0.264584,-0.264583 z m -2.6458326,1.322917 c -0.1465799,0 -0.2645833,0.118004 -0.2645833,0.264583 0,0.146579 0.1180034,0.264583 0.2645833,0.264583 h 1.3229165 c 0.1465789,0 0.2645835,-0.118003 0.2645835,-0.264583 0,-0.14658 -0.1180046,-0.264583 -0.2645835,-0.264583 z m 2.6458326,0 c -0.14658,0 -0.264583,0.118003 -0.264583,0.264583 0,0.146579 0.118003,0.264583 0.264583,0.264583 h 1.322917 c 0.146579,0 0.264584,-0.118004 0.264584,-0.264583 0,-0.14658 -0.118005,-0.264583 -0.264584,-0.264583 z"
     sodipodi:nodetypes="ssssssssssssssssssssssssssssssssssssssssssssssssssssssssssssssssssssss" />
  <path
     id="rect1973"
     style="fill:#0c7c42;stroke-width:0.79375;stroke-linecap:round;stroke-linejoin:round;fill-opacity:1"
     d="M 1.3229167,5.5562501 H 6.614583 c 0.439738,0 0.79375,0.3540125 0.79375,0.79375 v 5.2916669 c 0,0.439737 -0.354012,0.79375 -0.79375,0.79375 H 1.3229167 c -0.43973753,0 -0.79375003,-0.354013 -0.79375003,-0.79375 V 6.3500001 c 0,-0.4397375 0.3540125,-0.79375 0.79375003,-0.79375 z" />
  <path
     id="rect12096"
     style="fill:#ffffff;fill-opacity:1;stroke-width:0.421468;stroke-linecap:round;stroke-linejoin:round"
     d="M 2.4542383,6.8791667 3.5669008,8.8855261 2.38125,11.020851 H 3.0724445 L 3.60065,9.9924266 C 3.7018115,9.7788836 3.808477,9.571123 3.920868,9.3182435 H 3.943372 C 4.0726297,9.571123 4.1795908,9.7788836 4.2863619,9.9924266 L 4.8313042,11.020851 H 5.55625 L 4.3705961,8.9135139 5.4774977,6.8791667 H 4.7920635 L 4.3085843,7.8513401 C 4.2074229,8.042404 4.1288809,8.2279173 4.0221175,8.4807968 H 3.9996154 C 3.8703675,8.2279173 3.780553,8.0424045 3.6794014,7.8513401 L 3.1791845,6.8791667 Z" />
</svg>
