<?xml version="1.0" encoding="UTF-8" standalone="no"?>
<!-- Created with Inkscape (http://www.inkscape.org/) -->

<svg
   width="64"
   height="64"
   viewBox="0 0 16.933333 16.933334"
   version="1.1"
   id="svg5"
   inkscape:version="1.1.1 (3bf5ae0d25, 2021-09-20, custom)"
   sodipodi:docname="application-vnd.ms-word.svg"
   xmlns:inkscape="http://www.inkscape.org/namespaces/inkscape"
   xmlns:sodipodi="http://sodipodi.sourceforge.net/DTD/sodipodi-0.dtd"
   xmlns="http://www.w3.org/2000/svg"
   xmlns:svg="http://www.w3.org/2000/svg">
  <sodipodi:namedview
     id="namedview7"
     pagecolor="#ffffff"
     bordercolor="#666666"
     borderopacity="1.0"
     inkscape:pageshadow="2"
     inkscape:pageopacity="0.0"
     inkscape:pagecheckerboard="0"
     inkscape:document-units="px"
     showgrid="false"
     units="px"
     height="64px"
     inkscape:zoom="9.4240264"
     inkscape:cx="29.817404"
     inkscape:cy="36.5555"
     inkscape:window-width="1920"
     inkscape:window-height="996"
     inkscape:window-x="0"
     inkscape:window-y="0"
     inkscape:window-maximized="1"
     inkscape:current-layer="svg5" />
  <defs
     id="defs2" />
  <path
     id="rect846"
     style="fill:#7d7d7b;stroke-width:0.529167;stroke-linecap:round;stroke-linejoin:round"
     d="M 2.6458333,0.79374999 H 11.1125 L 14.2875,3.96875 V 16.139584 H 2.6458333 Z"
     sodipodi:nodetypes="cccccc" />
  <path
     id="rect1454"
     style="fill:#fafafa;stroke-width:2;stroke-linecap:round;stroke-linejoin:round"
     d="M 11 4 L 11 60 L 53 60 L 53 16.5 L 41.5 16.5 C 40.945997 16.5 40.5 16.054 40.5 15.5 L 40.5 4 L 11 4 z M 41.5 4 L 41.5 15.5 L 53 15.5 L 41.5 4 z "
     transform="scale(0.26458334)" />
  <path
     id="rect1305"
     style="fill:#c0c5cb;stroke-width:0.79375;stroke-linecap:round;stroke-linejoin:round"
     d="m 4.4979168,6.0854167 c -0.1465792,0 -0.2645834,0.1180042 -0.2645834,0.2645834 0,0.1465791 0.1180042,0.2645833 0.2645834,0.2645833 H 12.435417 C 12.581996,6.6145834 12.7,6.4965792 12.7,6.3500001 12.7,6.2034209 12.581996,6.0854167 12.435417,6.0854167 Z m 0,1.3229165 c -0.1465792,0 -0.2645834,0.1180041 -0.2645834,0.2645833 0,0.1465792 0.1180042,0.2645833 0.2645834,0.2645833 H 12.435417 C 12.581996,7.9374998 12.7,7.8194957 12.7,7.6729165 12.7,7.5263373 12.581996,7.4083332 12.435417,7.4083332 Z m 0,1.3229167 c -0.1465792,0 -0.2645834,0.1180041 -0.2645834,0.2645833 0,0.1465792 0.1180042,0.2645833 0.2645834,0.2645833 H 12.435417 C 12.581996,9.2604165 12.7,9.1424124 12.7,8.9958332 12.7,8.849254 12.581996,8.7312499 12.435417,8.7312499 Z m 0,1.3229171 c -0.1465792,0 -0.2645834,0.118004 -0.2645834,0.264583 0,0.146579 0.1180042,0.264583 0.2645834,0.264583 h 7.9375002 c 0.146579,0 0.264583,-0.118004 0.264583,-0.264583 0,-0.146579 -0.118004,-0.264583 -0.264583,-0.264583 z m 0,1.322916 c -0.1465792,0 -0.2645834,0.118004 -0.2645834,0.264584 0,0.146579 0.1180042,0.264583 0.2645834,0.264583 h 7.9375002 c 0.146579,0 0.264583,-0.118004 0.264583,-0.264583 0,-0.14658 -0.118004,-0.264584 -0.264583,-0.264584 z"
     sodipodi:nodetypes="sssssssssssssssssssssssssssssssssss" />
  <path
     id="rect1973"
     style="fill:#1859bb;stroke-width:0.79375;stroke-linecap:round;stroke-linejoin:round;fill-opacity:1"
     d="m 1.3229167,5.5562501 h 5.2916666 c 0.439738,0 0.79375,0.3540125 0.79375,0.79375 v 5.2916669 c 0,0.439737 -0.354012,0.79375 -0.79375,0.79375 H 1.3229167 c -0.43973753,0 -0.79375003,-0.354013 -0.79375003,-0.79375 V 6.3500001 c 0,-0.4397375 0.3540125,-0.79375 0.79375003,-0.79375 z" />
  <path
     id="rect8731"
     style="fill:#ffffff;fill-opacity:1;stroke-width:0.374843;stroke-linecap:round;stroke-linejoin:round"
     d="M 1.8520834,7.1437501 2.5968886,10.827266 H 3.3014272 L 3.7863316,8.7829572 c 0.059975,-0.2898791 0.1199982,-0.564736 0.174976,-0.8446169 h 0.020011 c 0.049979,0.2798809 0.1098755,0.5547378 0.1698506,0.8446169 L 4.6458347,10.827266 H 5.360623 L 6.0854168,7.1437501 H 5.5304737 L 5.1807668,9.0579883 C 5.1207917,9.447823 5.0607579,9.842719 4.9957857,10.24255 H 4.9708937 C 4.8859297,9.842719 4.8059625,9.447823 4.7209985,9.0579883 L 4.2460998,7.1437501 H 3.7314228 L 3.261405,9.0579883 C 3.1764415,9.447823 3.0864788,9.842719 3.0115097,10.24255 H 2.9917426 C 2.9217721,9.842719 2.8566038,9.4528203 2.7916311,9.0579883 L 2.446805,7.1437501 Z" />
</svg>
