<?xml version="1.0" encoding="UTF-8" standalone="no"?>
<!-- Created with Inkscape (http://www.inkscape.org/) -->

<svg
   width="64"
   height="64"
   viewBox="0 0 16.933333 16.933334"
   version="1.1"
   id="svg5"
   inkscape:version="1.1.1 (3bf5ae0d25, 2021-09-20, custom)"
   sodipodi:docname="application-vnd.oasis.opendocument.text-template.svg"
   xmlns:inkscape="http://www.inkscape.org/namespaces/inkscape"
   xmlns:sodipodi="http://sodipodi.sourceforge.net/DTD/sodipodi-0.dtd"
   xmlns="http://www.w3.org/2000/svg"
   xmlns:svg="http://www.w3.org/2000/svg">
  <sodipodi:namedview
     id="namedview7"
     pagecolor="#ffffff"
     bordercolor="#666666"
     borderopacity="1.0"
     inkscape:pageshadow="2"
     inkscape:pageopacity="0.0"
     inkscape:pagecheckerboard="0"
     inkscape:document-units="px"
     showgrid="false"
     units="px"
     height="64px"
     inkscape:zoom="9.7166215"
     inkscape:cx="15.540381"
     inkscape:cy="34.940128"
     inkscape:window-width="1920"
     inkscape:window-height="996"
     inkscape:window-x="0"
     inkscape:window-y="0"
     inkscape:window-maximized="1"
     inkscape:current-layer="svg5" />
  <defs
     id="defs2" />
  <path
     id="rect1054"
     style="fill:#7d7d7b;stroke-width:0.79375;stroke-linecap:round;stroke-linejoin:round"
     d="m 2.6458335,0.79375011 10.0541685,1e-7 1.587498,0.52916649 1e-6,14.8166683 H 3.7041664 V 15.08125 H 2.6458335 Z"
     sodipodi:nodetypes="cccccccc" />
  <path
     id="rect1308"
     style="fill:#fafafa;fill-opacity:1;stroke-width:1.05833;stroke-linecap:round;stroke-linejoin:round"
     d="M 2.9104167,4.2333334 V 14.816667 H 12.964584 V 4.2333334 Z M 13.229167,1.3229167 V 15.08125 H 3.9687504 V 15.875 H 14.022917 V 1.4552084 Z"
     sodipodi:nodetypes="cccccccccccc" />
  <path
     id="rect6964"
     style="fill:#69b0ec;fill-opacity:1;stroke-width:0.737648;stroke-linecap:round;stroke-linejoin:round"
     d="m 2.6458337,0.79375011 10.3187493,-10e-8 V 4.4979167 l -10.3187493,10e-8 z"
     sodipodi:nodetypes="ccccc" />
  <path
     id="rect13579"
     style="fill:#2784bd;fill-opacity:1;stroke-width:0.746175;stroke-linecap:round;stroke-linejoin:round"
     d="M 12.964583,0.79375001 V 1.3229167 L 14.2875,1.8520834 V 1.3229167 Z M 2.6458334,4.2333334 V 4.4979168 H 12.964583 V 4.2333334 Z"
     sodipodi:nodetypes="cccccccccc" />
  <path
     id="rect4164"
     style="opacity:1;fill:#69b0ec;fill-opacity:1;stroke-width:0.79375;stroke-linecap:round;stroke-linejoin:round"
     d="m 8.2020835,6.6145835 c -0.1465791,0 -0.2645833,0.1180041 -0.2645833,0.2645833 0,0.1465792 0.1180042,0.2645833 0.2645833,0.2645833 H 11.90625 c 0.146579,0 0.264584,-0.1180041 0.264584,-0.2645833 0,-0.1465792 -0.118005,-0.2645833 -0.264584,-0.2645833 z m 0,1.5875 c -0.1465791,0 -0.2645833,0.1180042 -0.2645833,0.2645833 0,0.1465792 0.1180042,0.2645834 0.2645833,0.2645834 H 11.90625 c 0.146579,0 0.264584,-0.1180042 0.264584,-0.2645834 0,-0.1465791 -0.118005,-0.2645833 -0.264584,-0.2645833 z" />
  <path
     id="path7787"
     style="font-weight:500;font-size:5.02601px;line-height:1.25;font-family:'Noto Sans CJK KR';-inkscape-font-specification:'Noto Sans CJK KR Medium';fill:#2784bd;fill-opacity:1;stroke-width:0.12565"
     d="M 4.9304486,5.0270834 3.7041668,8.7312502 H 4.3020632 L 4.613672,7.6806683 H 5.9004151 L 6.2120242,8.7312502 H 6.8305909 L 5.6037926,5.0270834 Z M 5.247225,5.4895875 H 5.267379 C 5.3829772,5.9067463 5.4935037,6.318956 5.6141278,6.721037 L 5.7598552,7.2181642 H 4.7547486 L 4.9004761,6.721037 C 5.0211004,6.318956 5.136653,5.9117723 5.247225,5.4895875 Z m -1.2784749,4.299996 c -0.1465794,0 -0.2645833,0.1180039 -0.2645833,0.2645835 0,0.146579 0.1180039,0.264583 0.2645833,0.264583 H 11.90625 c 0.14658,0 0.264584,-0.118004 0.264584,-0.264583 0,-0.1465796 -0.118004,-0.2645835 -0.264584,-0.2645835 z" />
  <path
     id="rect8443"
     style="opacity:1;fill:#c0c5cb;fill-opacity:1;stroke-width:0.79375;stroke-linecap:round;stroke-linejoin:round"
     d="m 3.9687501,11.1125 c -0.1465792,0 -0.2645833,0.118004 -0.2645833,0.264583 0,0.146579 0.1180041,0.264584 0.2645833,0.264584 h 3.1750001 c 0.1465792,0 0.2645833,-0.118005 0.2645833,-0.264584 0,-0.146579 -0.1180041,-0.264583 -0.2645833,-0.264583 z m 4.7625001,0 c -0.2931583,0 -0.5291667,0.236008 -0.5291667,0.529167 v 2.116666 c 0,0.293159 0.2360084,0.529167 0.5291667,0.529167 h 2.9104168 c 0.293158,0 0.529167,-0.236008 0.529167,-0.529167 v -2.116666 c 0,-0.293159 -0.236009,-0.529167 -0.529167,-0.529167 z m -4.7625001,1.322917 c -0.1465792,0 -0.2645833,0.118004 -0.2645833,0.264583 0,0.146579 0.1180041,0.264583 0.2645833,0.264583 h 3.1750001 c 0.1465792,0 0.2645833,-0.118004 0.2645833,-0.264583 0,-0.146579 -0.1180041,-0.264583 -0.2645833,-0.264583 z m 0,1.322916 c -0.1465789,0 -0.2645833,0.118005 -0.2645833,0.264584 0,0.146579 0.1180044,0.264583 0.2645833,0.264583 h 3.1750001 c 0.1465789,0 0.2645833,-0.118004 0.2645833,-0.264583 0,-0.146579 -0.1180044,-0.264584 -0.2645833,-0.264584 z" />
  <rect
     style="opacity:1;fill:#88c0f0;fill-opacity:1;stroke-width:0.79375;stroke-linecap:round;stroke-linejoin:round"
     id="rect9115"
     width="3.4395833"
     height="2.6458333"
     x="8.4666672"
     y="11.377084"
     ry="0.26458335" />
</svg>
