<?xml version="1.0" encoding="UTF-8" standalone="no"?>
<!-- Created with Inkscape (http://www.inkscape.org/) -->

<svg
   width="64"
   height="64"
   viewBox="0 0 16.933333 16.933334"
   version="1.1"
   id="svg884"
   inkscape:version="1.1.1 (3bf5ae0d25, 2021-09-20, custom)"
   sodipodi:docname="application-x-deb.svg"
   xmlns:inkscape="http://www.inkscape.org/namespaces/inkscape"
   xmlns:sodipodi="http://sodipodi.sourceforge.net/DTD/sodipodi-0.dtd"
   xmlns:xlink="http://www.w3.org/1999/xlink"
   xmlns="http://www.w3.org/2000/svg"
   xmlns:svg="http://www.w3.org/2000/svg">
  <sodipodi:namedview
     id="namedview886"
     pagecolor="#ffffff"
     bordercolor="#666666"
     borderopacity="1.0"
     inkscape:pageshadow="2"
     inkscape:pageopacity="0.0"
     inkscape:pagecheckerboard="0"
     inkscape:document-units="px"
     showgrid="false"
     units="px"
     inkscape:zoom="4.3752232"
     inkscape:cx="-2.3998776"
     inkscape:cy="51.654508"
     inkscape:window-width="1920"
     inkscape:window-height="1006"
     inkscape:window-x="0"
     inkscape:window-y="0"
     inkscape:window-maximized="1"
     inkscape:current-layer="svg884" />
  <defs
     id="defs881">
    <linearGradient
       inkscape:collect="always"
       xlink:href="#linearGradient56461"
       id="linearGradient56463"
       x1="-252.87521"
       y1="78.478691"
       x2="-238.4166"
       y2="92.637772"
       gradientUnits="userSpaceOnUse"
       gradientTransform="matrix(0.56728101,0,0,0.84089154,146.36171,-61.494152)" />
    <linearGradient
       inkscape:collect="always"
       xlink:href="#linearGradient70845"
       id="linearGradient1579"
       x1="10.537197"
       y1="7.5774555"
       x2="13.497259"
       y2="16.186811"
       gradientUnits="userSpaceOnUse"
       gradientTransform="matrix(0.80445963,0,0,0.92196191,2.6357501,-0.37154186)" />
    <linearGradient
       inkscape:collect="always"
       xlink:href="#linearGradient26892"
       id="linearGradient2237"
       x1="2.9104166"
       y1="5.2916665"
       x2="5.2576041"
       y2="5.6950111"
       gradientUnits="userSpaceOnUse"
       gradientTransform="translate(-1.203125e-7,-0.26458336)" />
    <linearGradient
       inkscape:collect="always"
       xlink:href="#linearGradient26892"
       id="linearGradient2944"
       x1="13.493751"
       y1="6.0854168"
       x2="11.906252"
       y2="12.435419"
       gradientUnits="userSpaceOnUse"
       gradientTransform="translate(-5.203125e-7,-1.3229168)" />
    <linearGradient
       inkscape:collect="always"
       xlink:href="#linearGradient40996"
       id="linearGradient4221"
       x1="3.9687502"
       y1="2.9104166"
       x2="3.4395833"
       y2="5.8208332"
       gradientUnits="userSpaceOnUse"
       gradientTransform="translate(-0.52916675,-1.3229168)" />
    <linearGradient
       inkscape:collect="always"
       xlink:href="#linearGradient40996"
       id="linearGradient4750"
       x1="16.139584"
       y1="5.2916665"
       x2="11.377084"
       y2="7.4083333"
       gradientUnits="userSpaceOnUse"
       gradientTransform="translate(-0.26458375,-0.79375016)" />
    <linearGradient
       inkscape:collect="always"
       xlink:href="#linearGradient40996"
       id="linearGradient4939"
       x1="7.1437502"
       y1="2.1166668"
       x2="14.022917"
       y2="6.0854168"
       gradientUnits="userSpaceOnUse"
       gradientTransform="translate(-0.52916665,-1.3229168)" />
    <linearGradient
       inkscape:collect="always"
       id="linearGradient40996">
      <stop
         style="stop-color:#f57da7;stop-opacity:1"
         offset="0"
         id="stop40992" />
      <stop
         style="stop-color:#f775a4;stop-opacity:1"
         offset="1"
         id="stop40994" />
    </linearGradient>
    <linearGradient
       inkscape:collect="always"
       id="linearGradient26892">
      <stop
         style="stop-color:#cb6085;stop-opacity:1"
         offset="0"
         id="stop26888" />
      <stop
         style="stop-color:#832949;stop-opacity:1"
         offset="1"
         id="stop26890" />
    </linearGradient>
    <linearGradient
       inkscape:collect="always"
       id="linearGradient56461">
      <stop
         style="stop-color:#fb95b9;stop-opacity:1"
         offset="0"
         id="stop56457-9" />
      <stop
         style="stop-color:#f63479;stop-opacity:1"
         offset="1"
         id="stop56459-1" />
    </linearGradient>
    <linearGradient
       inkscape:collect="always"
       id="linearGradient70845">
      <stop
         style="stop-color:#d04d79;stop-opacity:1"
         offset="0"
         id="stop70841-7" />
      <stop
         style="stop-color:#b63664;stop-opacity:1"
         offset="1"
         id="stop70843-0" />
    </linearGradient>
  </defs>
  <path
     id="rect3961"
     style="fill:url(#linearGradient4221);fill-opacity:1.0;stroke-width:0.264583"
     d="M 1.0583333,3.4395834 3.4395834,1.5874999 5.291666,2.6458332 4.6331388,5.436077 2.9104166,4.4979166 Z"
     sodipodi:nodetypes="cccccc" />
  <path
     id="rect2034"
     style="fill:url(#linearGradient2237);fill-opacity:1.0;stroke-width:0.264583"
     d="M 2.9104166,4.4979166 5.291666,2.6458333 9.5837452,12.98366 2.9104156,13.493751 Z"
     sodipodi:nodetypes="ccccc" />
  <path
     id="rect2627"
     style="fill:url(#linearGradient2944);fill-opacity:1;stroke-width:0.264583"
     d="m 5.291666,2.6458332 8.202084,2.1166667 10e-7,8.4666691 -8.2020851,-1.587502 z"
     sodipodi:nodetypes="ccccc" />
  <path
     id="rect45418"
     style="fill:url(#linearGradient56463);stroke-width:0.182739;fill-opacity:1.0"
     d="M 2.9104166,4.4979166 11.1125,6.6145833 12.170834,6.35 11.1125,16.404166 2.9104166,14.2875 Z"
     sodipodi:nodetypes="cccccc" />
  <path
     id="rect1571"
     style="fill:url(#linearGradient1579);stroke-width:0.227862;fill-opacity:1.0"
     d="M 11.1125,6.6145833 13.49375,4.7624999 V 14.552082 L 11.1125,16.404166 Z"
     sodipodi:nodetypes="ccccc" />
  <path
     id="rect4424"
     style="fill:url(#linearGradient4750);fill-opacity:1.0;stroke-width:0.264583"
     d="M 13.49375,4.7624999 15.875,4.4979165 13.758333,6.3499999 11.1125,6.6145833 Z"
     sodipodi:nodetypes="ccccc" />
  <path
     id="rect4774"
     style="fill:url(#linearGradient4939);fill-opacity:1.0;stroke-width:0.237948"
     d="M 6.6145837,0.79374993 14.816667,2.9104164 13.49375,4.7624999 5.291666,2.6458332 Z"
     sodipodi:nodetypes="ccccc" />
  <path
     id="rect5659"
     style="fill:#c65981;fill-opacity:1;stroke-width:0.264583"
     d="M 6.6145844,0.52916674 14.816668,2.6458329 14.816667,2.9104164 6.6145836,0.79374993 Z"
     sodipodi:nodetypes="ccccc" />
  <path
     id="path2"
     style="opacity:0.6;fill:#ffffff;stroke-width:0.0185205"
     d="m 5.8250065,9.4114767 c -0.07139,-0.02001 -0.142485,-0.04228 -0.212697,-0.05877 l 0.03093,0.0155 c 0.05166,-1.35e-4 0.126968,0.03587 0.18177,0.0433 z m -0.312028,-0.08076 c -0.116143,-0.03519 -0.277257,-0.03336 -0.227529,-0.0703 -0.189559,0.01562 -0.526053,0.01182 -0.714852,0.12014 l -0.0059,-0.04184 c -0.08652,0.07237 -0.377249,0.1728836 -0.400419,0.2989676 l -0.02315,-0.0031 c -0.04502,0.05984 -0.07415,0.135634 -0.109858,0.201071 -0.0589,0.0789 -0.08634,0.0072 -0.07795,0.02596 -0.11581,0.1926717 -0.173336,0.3690567 -0.223042,0.5127787 0.03541,0.06582 8.62e-4,0.31897 0.01426,0.536501 -0.05817,1.029111 0.737107,2.338339 1.606408,2.890134 0.127424,0.09192 0.316913,0.159118 0.478098,0.22249 -0.190168,-0.123606 -0.214755,-0.106947 -0.399962,-0.238968 -0.133624,-0.111566 -0.162908,-0.194069 -0.257551,-0.310635 l 0.03745,0.07979 c -0.185595,-0.133244 -0.107966,-0.120604 -0.258964,-0.223388 l 0.04,-0.03767 c -0.06017,-0.02646 -0.15934,-0.159364 -0.186472,-0.222871 l -0.06579,-0.02135 c -0.07908,-0.126372 -0.121217,-0.211954 -0.118141,-0.26532 l -0.02129,0.03016 c -0.02408,-0.05016 -0.290948,-0.471857 -0.152506,-0.345903 -0.02573,-0.03289 -0.0599,-0.06009 -0.09698,-0.140921 l 0.02817,-0.02193 c -0.06662,-0.109938 -0.12262,-0.240262 -0.11836,-0.27527 0.03554,0.06094 0.06019,0.07889 0.0846,0.09601 -0.16822,-0.478662 -0.17768,-0.0877 -0.305118,-0.535978 l 0.02695,0.0076 c -0.02068,-0.03867 -0.0332,-0.07703 -0.04981,-0.116268 l 0.01174,-0.11264 c -0.121142,-0.184144 -0.03387,-0.607779 -0.0164,-0.851191 0.01214,-0.09716 0.101094,-0.172888 0.168782,-0.317806 l -0.04125,-0.0221 c 0.07879,-0.108798 0.45006,-0.3883647 0.621967,-0.3044597 0.08333,-0.07429 -0.01656,-0.0064 -0.03285,-0.03868 0.182946,-0.12275 0.24048,-0.04622 0.363937,-0.03535 0.133162,-0.03058 -0.11425,-0.01074 -0.05111,-0.04874 0.230155,0.02498 0.163104,-0.07428 0.463377,0.0051 0.03167,0.02956 -0.0735,0.0011 -0.09991,0.01488 0.191762,-0.02405 0.606904,0.14839 0.876508,0.3710707 0.312905,0.260125 0.664372,0.820255 0.678244,1.23196 l 0.0158,0.01 c -0.008,0.15877 0.02472,0.357586 -0.03201,0.508662 l 0.03892,-0.06704 3.7e-5,1.3e-5 c 0.0046,0.125222 -0.0361,0.170334 -0.07282,0.263096 l -0.06601,0.009 c -0.05406,0.08526 0.0052,0.06851 -0.03346,0.137906 -0.08437,0.04428 -0.256012,0.141474 -0.310943,0.136058 -0.04006,-0.01546 0.02721,-0.0374 0.036,-0.05241 -0.11292,0.03647 -0.09063,0.08341 -0.263305,0.06771 l -0.005,-0.01304 c -0.426002,0.04528 -1.017649,-0.567159 -1.009852,-1.106122 -0.0046,0.03273 -0.01296,0.02111 -0.02239,0.03157 -0.02196,-0.286763 0.128771,-0.51191 0.382927,-0.533733 0.248676,-0.03258 0.540102,0.124034 0.718215,0.354847 -0.09783,-0.163771 -0.292511,-0.370465 -0.523279,-0.441754 -0.2261,-0.07869 -0.437576,-0.01202 -0.508158,0.118212 -0.11581,0.03078 -0.12924,0.234037 -0.179708,0.253746 -0.06787,0.474296 0.127712,0.761069 0.458602,1.135088 0.05208,0.05407 0.01466,0.04579 0.02172,0.07509 -0.109936,-0.09148 -0.210632,-0.205852 -0.293399,-0.331135 0.04392,0.08031 0.09131,0.16003 0.152578,0.231442 -0.103642,-0.07286 -0.242134,-0.33931 -0.282544,-0.362815 0.178667,0.384953 0.724949,0.824939 1.010999,0.809429 -0.132346,-0.04326 -0.300512,-0.106655 -0.449233,-0.215773 -0.06243,-0.05484 -0.147396,-0.1524 -0.132248,-0.15933 0.390395,0.287943 0.793678,0.399365 1.131419,0.25152 0.08595,-0.03565 0.179828,-0.115323 0.206944,-0.107031 -0.04085,0.04656 0.007,0.03206 -0.02443,0.07485 0.08566,-0.106911 -0.03718,-0.06974 0.08851,-0.206273 l 0.04641,0.08084 c -0.01726,-0.120884 0.142396,-0.201983 0.126206,-0.389155 0.03658,-0.04213 0.04083,0.0745 0.002,0.187908 0.05393,-0.121864 0.01424,-0.159022 0.02811,-0.270722 0.01502,0.0447 0.03458,0.09351 0.04468,0.138596 -0.03509,-0.149488 0.03605,-0.217155 0.05365,-0.290222 -0.01736,-0.01406 -0.05423,0.04071 -0.06266,-0.123874 0.0012,-0.06972 0.01954,-0.02964 0.02657,-0.04434 -0.01376,-0.01298 -0.04991,-0.07984 -0.07187,-0.190998 0.01592,-0.01844 0.04261,0.07835 0.06428,0.08981 -0.01396,-0.08711 -0.03796,-0.158352 -0.03896,-0.22163 -0.06335,-0.155464 -0.02242,0.0095 -0.07379,-0.08372 -0.06744,-0.234883 0.05596,-0.02843 0.06428,-0.12097 0.102238,0.185286 0.160504,0.43597 0.187232,0.540746 -0.02042,-0.123332 -0.0534,-0.247581 -0.09369,-0.370868 0.03106,0.02437 -0.04999,-0.256662 0.04037,-0.05722 -0.09647,-0.390197 -0.412991,-0.837181 -0.704191,-1.098853 0.03564,0.04557 0.08063,0.102882 0.06446,0.103405 -0.144811,-0.1389067 -0.119337,-0.1363367 -0.140097,-0.1803197 -0.117959,-0.09092 -0.125734,-0.04196 -0.203871,-0.07413 -0.222337,-0.198858 -0.265161,-0.201902 -0.469813,-0.350305 l 0.0093,0.04688 c -0.147294,-0.1026756 -0.171616,-0.04388 -0.330838,-0.1202676 -0.0097,-0.01118 0.051,-0.0088 0.100994,0.0021 -0.142424,-0.03305 -0.135766,-0.07747 -0.275132,-0.09503 0.03435,-0.01158 0.07065,-0.01428 0.107292,-0.02146 z m 0.115176,0.06861 c 0.04076,0.02213 0.08811,0.04502 0.08145,0.05233 0.04458,0.0064 0.05471,0.0011 -0.08145,-0.05233 z m 0.08145,0.05233 -0.02884,-0.0046 0.02684,0.0074 z m -1.879839,0.2207676 c -4e-5,0.0025 1.69e-4,0.0045 5.47e-4,0.0064 -1.55e-4,-0.0021 -3.16e-4,-0.0043 -5.47e-4,-0.0064 z m 5.47e-4,0.0064 c 0.0077,0.108372 -0.0815,0.115684 0.02045,0.08152 0.0527,-0.09952 -0.0138,-0.04878 -0.02045,-0.08152 z m -0.08526,0.312648 c -0.06613,0.06049 -0.03042,0.0915 -0.0374,0.1464877 0.02393,-0.06476 0.02826,-0.107294 0.0374,-0.1464877 z m 2.722634,1.5017567 c -0.0095,-0.0032 -0.02158,0.0164 -0.02768,0.04043 0.0142,0.01258 0.0255,0.106258 0.03928,0.05586 0.0046,-0.06712 -0.0022,-0.0931 -0.01162,-0.0963 z m 0.835343,0.535873 c -1.2e-5,8.9e-5 -1.9e-5,1.86e-4 -3.7e-5,2.76e-4 l 1.12e-4,-2.48e-4 z m -3.7e-5,2.76e-4 -0.0111,0.02382 c -0.02059,0.138666 -0.06502,0.267127 -0.133148,0.376421 0.07515,-0.114038 0.123864,-0.250961 0.144258,-0.400236 z m -0.88475,-0.270826 c -0.01022,0.04696 -0.0377,0.08072 -0.06362,0.11745 -0.14281,0.03792 -0.01344,-0.05829 -7.7e-5,-0.107898 -0.153536,0.137396 -0.02109,0.108224 -0.02666,0.160164 0.0455,-0.0462 0.07866,-0.102914 0.09037,-0.169716 z m -0.311375,0.18176 c -0.06211,-0.0074 -0.125294,-0.03007 -0.189006,-0.05909 -0.0764,-0.02672 0.01444,0.04462 0.114162,0.09628 0.02756,-0.01148 0.05258,-0.02416 0.07485,-0.03721 z m -0.964122,-0.341007 c 0.01684,0.06808 0.05132,0.133848 0.08342,0.199686 l -0.02353,-0.07787 c -0.02657,-0.03907 -0.04229,-0.08016 -0.0599,-0.121816 z m -0.05878,0.08325 -0.01066,0.04969 c 0.05019,0.08648 0.09002,0.174886 0.154132,0.251542 -0.04611,-0.106856 -0.08038,-0.156534 -0.143426,-0.301218 z" />
</svg>
