<?xml version="1.0" encoding="UTF-8" standalone="no"?>
<!-- Created with Inkscape (http://www.inkscape.org/) -->

<svg
   width="64"
   height="64"
   viewBox="0 0 16.933333 16.933334"
   version="1.1"
   id="svg5"
   inkscape:version="1.1.1 (3bf5ae0d25, 2021-09-20, custom)"
   sodipodi:docname="application-vnd.oasis.opendocument.formula-template.svg"
   xmlns:inkscape="http://www.inkscape.org/namespaces/inkscape"
   xmlns:sodipodi="http://sodipodi.sourceforge.net/DTD/sodipodi-0.dtd"
   xmlns="http://www.w3.org/2000/svg"
   xmlns:svg="http://www.w3.org/2000/svg">
  <sodipodi:namedview
     id="namedview7"
     pagecolor="#ffffff"
     bordercolor="#666666"
     borderopacity="1.0"
     inkscape:pageshadow="2"
     inkscape:pageopacity="0.0"
     inkscape:pagecheckerboard="0"
     inkscape:document-units="px"
     showgrid="false"
     units="px"
     height="64px"
     inkscape:zoom="13.741378"
     inkscape:cx="17.683816"
     inkscape:cy="28.41782"
     inkscape:window-width="1920"
     inkscape:window-height="996"
     inkscape:window-x="0"
     inkscape:window-y="0"
     inkscape:window-maximized="1"
     inkscape:current-layer="svg5" />
  <defs
     id="defs2" />
  <path
     id="rect1054"
     style="fill:#7d7d7b;stroke-width:0.79375;stroke-linecap:round;stroke-linejoin:round"
     d="m 2.6458335,0.79375011 10.0541685,1e-7 1.587498,0.52916649 1e-6,14.8166683 H 3.7041664 V 15.08125 H 2.6458335 Z"
     sodipodi:nodetypes="cccccccc" />
  <path
     id="rect1308"
     style="fill:#fafafa;fill-opacity:1;stroke-width:1.05833;stroke-linecap:round;stroke-linejoin:round"
     d="M 2.9104167,4.2333334 V 14.816667 H 12.964584 V 4.2333334 Z M 13.229167,1.3229167 V 15.08125 H 3.9687504 V 15.875 H 14.022917 V 1.4552084 Z"
     sodipodi:nodetypes="cccccccccccc" />
  <path
     id="rect6964"
     style="fill:#999999;fill-opacity:1;stroke-width:0.737648;stroke-linecap:round;stroke-linejoin:round"
     d="m 2.6458337,0.79375011 10.3187493,-10e-8 V 4.4979167 l -10.3187493,10e-8 z"
     sodipodi:nodetypes="ccccc" />
  <path
     id="rect13579"
     style="fill:#666666;fill-opacity:1;stroke-width:0.746175;stroke-linecap:round;stroke-linejoin:round"
     d="M 12.964583,0.79375001 V 1.3229167 L 14.2875,1.8520834 V 1.3229167 Z M 2.6458334,4.2333334 V 4.4979168 H 12.964583 V 4.2333334 Z"
     sodipodi:nodetypes="cccccccccc" />
  <path
     id="rect844"
     style="fill:#808080;stroke-width:1.05833;stroke-linecap:round;stroke-linejoin:round"
     d="M 7.4083335,7.6729168 6.6807293,10.847918 5.6885418,9.5250002 5.2916668,9.7895837 6.8791668,11.906251 7.7933229,8.2020835 H 10.583334 V 7.6729168 H 7.9375002 Z m 0.5291667,1.3229167 0.79375,1.3229175 -0.79375,1.322917 h 0.5291667 l 0.6614583,-1.058334 0.6614584,1.058334 H 10.318751 L 9.5250002,10.318751 10.318751,8.9958335 H 9.7895836 L 9.1281252,10.054167 8.4666669,8.9958335 Z" />
  <path
     id="rect3044"
     style="fill:#b3b3b3;stroke-width:1.08901;stroke-linecap:round;stroke-linejoin:round"
     d="M 4.2333334,5.5562501 V 6.6145835 H 3.175 V 7.1437501 H 4.2333334 V 12.435418 H 3.175 v 0.529166 h 1.0583334 v 1.058334 h 0.5291667 v -1.058334 h 6.3500009 v 1.058334 h 0.529166 v -1.058334 h 1.058334 V 12.435418 H 11.641667 V 7.1437501 h 1.058334 V 6.6145835 H 11.641667 V 5.5562501 H 11.112501 V 6.6145835 H 4.7625001 V 5.5562501 Z m 0.5291667,1.5875 H 11.112501 V 12.435418 H 4.7625001 Z" />
</svg>
