<?xml version="1.0" encoding="UTF-8" standalone="no"?>
<!-- Created with Inkscape (http://www.inkscape.org/) -->

<svg
   width="64"
   height="64"
   viewBox="0 0 16.933333 16.933334"
   version="1.1"
   id="svg5"
   inkscape:version="1.1.1 (3bf5ae0d25, 2021-09-20, custom)"
   sodipodi:docname="libreoffice-oasis-formula.svg"
   xmlns:inkscape="http://www.inkscape.org/namespaces/inkscape"
   xmlns:sodipodi="http://sodipodi.sourceforge.net/DTD/sodipodi-0.dtd"
   xmlns:xlink="http://www.w3.org/1999/xlink"
   xmlns="http://www.w3.org/2000/svg"
   xmlns:svg="http://www.w3.org/2000/svg">
  <sodipodi:namedview
     id="namedview7"
     pagecolor="#ffffff"
     bordercolor="#666666"
     borderopacity="1.0"
     inkscape:pageshadow="2"
     inkscape:pageopacity="0.0"
     inkscape:pagecheckerboard="0"
     inkscape:document-units="px"
     showgrid="false"
     units="px"
     height="64px"
     showguides="true"
     inkscape:zoom="12.078125"
     inkscape:cx="31.958603"
     inkscape:cy="32"
     inkscape:window-width="1920"
     inkscape:window-height="996"
     inkscape:window-x="0"
     inkscape:window-y="0"
     inkscape:window-maximized="1"
     inkscape:current-layer="svg5" />
  <defs
     id="defs2">
    <linearGradient
       inkscape:collect="always"
       id="linearGradient3723">
      <stop
         style="stop-color:#3d4c65;stop-opacity:1"
         offset="0"
         id="stop3719" />
      <stop
         style="stop-color:#455572;stop-opacity:1"
         offset="1"
         id="stop3721" />
    </linearGradient>
    <linearGradient
       inkscape:collect="always"
       id="linearGradient3529">
      <stop
         style="stop-color:#526587;stop-opacity:1"
         offset="0"
         id="stop3525" />
      <stop
         style="stop-color:#445471;stop-opacity:1"
         offset="1"
         id="stop3527" />
    </linearGradient>
    <linearGradient
       inkscape:collect="always"
       xlink:href="#linearGradient3529"
       id="linearGradient3173"
       x1="2.6458333"
       y1="1.0583334"
       x2="14.287499"
       y2="15.875"
       gradientUnits="userSpaceOnUse"
       gradientTransform="scale(3.7795275)" />
    <linearGradient
       inkscape:collect="always"
       xlink:href="#linearGradient3723"
       id="linearGradient3725"
       x1="54"
       y1="14"
       x2="44"
       y2="4"
       gradientUnits="userSpaceOnUse"
       gradientTransform="scale(0.26458334)" />
  </defs>
  <path
     id="rect3085"
     style="fill:url(#linearGradient3173);fill-opacity:1;stroke-width:3.99999;stroke-linecap:round;stroke-linejoin:round"
     d="m 14,4 c -2.216,0 -4,1.7839999 -4,4 v 48 c 0,2.216 1.784,4 4,4 h 36 c 2.216,0 4,-1.784 4,-4 V 26 c 0.0061,-2.482935 -0.258806,-3.258806 -2.000001,-5 l -15,-15.0000001 C 35.538846,4.6158077 34.748996,4 32.499999,4 Z"
     transform="scale(0.26458334)"
     sodipodi:nodetypes="ssssssccccs" />
  <path
     id="rect2140"
     style="fill:url(#linearGradient3725);fill-opacity:1;stroke-width:1.05833;stroke-linecap:round;stroke-linejoin:round"
     d="m 10.451042,1.4552083 3.439583,3.4395835 c 0.114148,0.1183186 0.39618,0.028516 0.396875,-0.2645834 V 2.1166667 c 0,-0.5863167 -0.472016,-1.0583333 -1.058333,-1.0583333 h -2.513542 c -0.273132,0.00156 -0.375055,0.2799957 -0.264583,0.3968749 z"
     sodipodi:nodetypes="cccsscc" />
  <path
     id="rect1255"
     style="fill:#fafafa;fill-opacity:1;stroke-width:1.05833;stroke-linecap:round;stroke-linejoin:round"
     d="m 3.9687501,1.8522069 h 4.4979164 c 0.40012,-0.00473 0.663103,0.1263617 0.926042,0.3968751 l 3.7041665,3.7041667 c 0.237403,0.2720848 0.396875,0.4653507 0.396875,0.9260417 v 7.6729166 c 0,0.293158 -0.236008,0.529166 -0.529167,0.529166 H 3.9687501 c -0.2931584,0 -0.5291667,-0.236008 -0.5291667,-0.529166 V 2.3813736 c 0,-0.2931583 0.2360083,-0.5291667 0.5291667,-0.5291667 z"
     sodipodi:nodetypes="sccccssssss" />
  <path
     id="rect853"
     style="fill:#526587;fill-opacity:1;stroke-width:3.99999;stroke-linecap:round;stroke-linejoin:round"
     d="M 27.457031 27 C 27.445201 27.000311 27.433629 27.001365 27.421875 27.001953 C 27.408798 27.002607 27.395799 27.002915 27.382812 27.003906 C 27.370378 27.004853 27.358062 27.006581 27.345703 27.007812 C 27.320796 27.010336 27.296066 27.013836 27.271484 27.017578 C 27.268835 27.017981 27.266318 27.019115 27.263672 27.019531 C 27.254525 27.020975 27.245399 27.021841 27.236328 27.023438 C 27.223289 27.025734 27.210173 27.028604 27.197266 27.03125 C 27.173001 27.036201 27.148864 27.040752 27.125 27.046875 C 27.108597 27.05107 27.092382 27.055785 27.076172 27.060547 C 27.068537 27.06278 27.060331 27.064057 27.052734 27.066406 C 27.043021 27.069426 27.033075 27.072959 27.023438 27.076172 C 27.000193 27.083882 26.977793 27.092756 26.955078 27.101562 C 26.938562 27.107988 26.922498 27.114102 26.90625 27.121094 C 26.890905 27.127708 26.876431 27.13551 26.861328 27.142578 C 26.856982 27.144616 26.852003 27.146359 26.847656 27.148438 C 26.839757 27.152255 26.832042 27.156188 26.824219 27.160156 C 26.803696 27.170474 26.783628 27.180181 26.763672 27.191406 C 26.757776 27.19472 26.751952 27.197808 26.746094 27.201172 C 26.732185 27.209222 26.718692 27.218059 26.705078 27.226562 C 26.70111 27.229043 26.69729 27.231843 26.693359 27.234375 C 26.68221 27.241481 26.671079 27.248489 26.660156 27.255859 C 26.652937 27.260735 26.645777 27.266495 26.638672 27.271484 C 26.624045 27.281727 26.60991 27.291963 26.595703 27.302734 C 26.58308 27.312259 26.570915 27.322091 26.558594 27.332031 C 26.554247 27.335526 26.549231 27.338282 26.544922 27.341797 C 26.538157 27.347353 26.532043 27.353706 26.525391 27.359375 C 26.509592 27.372868 26.493717 27.386285 26.478516 27.400391 C 26.473753 27.404813 26.46953 27.409565 26.464844 27.414062 C 26.456151 27.42234 26.445966 27.429034 26.4375 27.4375 C 26.431302 27.443698 26.426007 27.450682 26.419922 27.457031 C 26.407109 27.470297 26.395134 27.48432 26.382812 27.498047 C 26.370907 27.511351 26.359108 27.525335 26.347656 27.539062 C 26.344403 27.542955 26.341103 27.546851 26.337891 27.550781 C 26.331201 27.558983 26.324898 27.567819 26.318359 27.576172 C 26.311556 27.584865 26.303451 27.592718 26.296875 27.601562 C 26.291244 27.609084 26.28673 27.617365 26.28125 27.625 C 26.269496 27.641365 26.257206 27.656975 26.246094 27.673828 C 26.238572 27.68528 26.231828 27.697306 26.224609 27.708984 C 26.220603 27.715447 26.216784 27.721977 26.212891 27.728516 C 26.20707 27.738267 26.200906 27.74791 26.195312 27.757812 C 26.186506 27.773346 26.178199 27.788802 26.169922 27.804688 C 26.166323 27.811604 26.163633 27.819218 26.160156 27.826172 C 26.156452 27.83358 26.152028 27.840211 26.148438 27.847656 C 26.1436 27.857748 26.139414 27.868664 26.134766 27.878906 C 26.124636 27.901281 26.11454 27.924316 26.105469 27.947266 C 26.0871 27.993769 26.070357 28.041167 26.056641 28.089844 C 26.052294 28.105226 26.048777 28.12114 26.044922 28.136719 C 26.039971 28.156712 26.035445 28.176898 26.03125 28.197266 C 26.028316 28.211514 26.026008 28.2258 26.023438 28.240234 C 26.021172 28.253274 26.017553 28.266121 26.015625 28.279297 L 23.388672 43.171875 L 19.939453 37.197266 C 19.523953 36.477599 18.610292 36.232938 17.890625 36.648438 C 17.170958 37.063937 16.924344 37.977599 17.339844 38.697266 L 22.839844 48.222656 C 23.255344 48.942323 24.170958 49.188937 24.890625 48.773438 C 25.313552 48.52926 25.57159 48.111909 25.628906 47.664062 C 25.648399 47.601968 25.666118 47.538538 25.677734 47.472656 L 28.757812 30 L 44.5 30 C 45.331001 30 46 29.331 46 28.5 C 46 27.669 45.331001 27 44.5 27 L 27.53125 27 C 27.520667 26.999749 27.510583 27.000028 27.5 27 C 27.485487 26.999962 27.471465 26.99962 27.457031 27 z "
     transform="scale(0.26458334)" />
  <g
     id="g2235"
     transform="rotate(-45,9.8850101,10.271796)">
    <rect
       style="fill:#3d4c65;fill-opacity:1;stroke-width:1.05833;stroke-linecap:round;stroke-linejoin:round"
       id="rect1831"
       width="0.79374999"
       height="3.7041667"
       x="9.036479"
       y="8.6067457"
       ry="0.39687502" />
    <rect
       style="fill:#455572;fill-opacity:1;stroke-width:1.05833;stroke-linecap:round;stroke-linejoin:round"
       id="rect2043"
       width="0.79374981"
       height="3.7041664"
       x="10.061954"
       y="-11.285437"
       ry="0.3968749"
       transform="rotate(90)" />
  </g>
</svg>
