<?xml version="1.0" encoding="UTF-8" standalone="no"?>
<!-- Created with Inkscape (http://www.inkscape.org/) -->

<svg
   width="64"
   height="64"
   viewBox="0 0 16.933333 16.933334"
   version="1.1"
   id="svg5"
   inkscape:version="1.1.1 (3bf5ae0d25, 2021-09-20, custom)"
   sodipodi:docname="libreoffice-oasis-database.svg"
   xmlns:inkscape="http://www.inkscape.org/namespaces/inkscape"
   xmlns:sodipodi="http://sodipodi.sourceforge.net/DTD/sodipodi-0.dtd"
   xmlns:xlink="http://www.w3.org/1999/xlink"
   xmlns="http://www.w3.org/2000/svg"
   xmlns:svg="http://www.w3.org/2000/svg">
  <sodipodi:namedview
     id="namedview7"
     pagecolor="#ffffff"
     bordercolor="#666666"
     borderopacity="1.0"
     inkscape:pageshadow="2"
     inkscape:pageopacity="0.0"
     inkscape:pagecheckerboard="0"
     inkscape:document-units="px"
     showgrid="false"
     units="px"
     height="64px"
     showguides="true"
     inkscape:zoom="6.9017856"
     inkscape:cx="21.443726"
     inkscape:cy="19.922381"
     inkscape:window-width="1920"
     inkscape:window-height="996"
     inkscape:window-x="0"
     inkscape:window-y="0"
     inkscape:window-maximized="1"
     inkscape:current-layer="svg5" />
  <defs
     id="defs2">
    <linearGradient
       inkscape:collect="always"
       id="linearGradient3723">
      <stop
         style="stop-color:#541a7c;stop-opacity:1"
         offset="0"
         id="stop3719" />
      <stop
         style="stop-color:#702da1;stop-opacity:1"
         offset="1"
         id="stop3721" />
    </linearGradient>
    <linearGradient
       inkscape:collect="always"
       id="linearGradient3529">
      <stop
         style="stop-color:#b67cd7;stop-opacity:1"
         offset="0"
         id="stop3525" />
      <stop
         style="stop-color:#8536bd;stop-opacity:1"
         offset="1"
         id="stop3527" />
    </linearGradient>
    <linearGradient
       inkscape:collect="always"
       xlink:href="#linearGradient3529"
       id="linearGradient3173"
       x1="2.6458333"
       y1="1.0583334"
       x2="14.287499"
       y2="15.875"
       gradientUnits="userSpaceOnUse"
       gradientTransform="scale(3.7795275)" />
    <linearGradient
       inkscape:collect="always"
       xlink:href="#linearGradient3723"
       id="linearGradient3725"
       x1="54"
       y1="14"
       x2="44"
       y2="4"
       gradientUnits="userSpaceOnUse"
       gradientTransform="scale(0.26458334)" />
  </defs>
  <path
     id="rect3085"
     style="fill:url(#linearGradient3173);fill-opacity:1;stroke-width:3.99999;stroke-linecap:round;stroke-linejoin:round"
     d="m 14,4 c -2.216,0 -4,1.7839999 -4,4 v 48 c 0,2.216 1.784,4 4,4 h 36 c 2.216,0 4,-1.784 4,-4 V 26 c 0.0061,-2.482935 -0.258806,-3.258806 -2.000001,-5 l -15.05,-15.0000001 C 35.488846,4.6158077 34.698996,4 32.449999,4 Z"
     sodipodi:nodetypes="ssssssccccs"
     transform="scale(0.26458334)" />
  <path
     id="rect2140"
     style="fill:url(#linearGradient3725);fill-opacity:1;stroke-width:1.05833;stroke-linecap:round;stroke-linejoin:round"
     d="m 10.451042,1.4552083 3.439583,3.4395835 c 0.114148,0.1183186 0.39618,0.028516 0.396875,-0.2645834 V 2.1166667 c 0,-0.5863167 -0.472016,-1.0583333 -1.058333,-1.0583333 h -2.513542 c -0.273132,0.00156 -0.375055,0.2799957 -0.264583,0.3968749 z"
     sodipodi:nodetypes="cccsscc" />
  <path
     id="rect1255"
     style="fill:#fafafa;stroke-width:1.05833;stroke-linecap:round;stroke-linejoin:round;fill-opacity:1"
     d="m 3.96875,1.8520833 h 4.4979167 c 0.4001196,-0.00473 0.6631022,0.1263617 0.9260417,0.3968751 l 3.7041666,3.7041667 c 0.237403,0.2720848 0.396875,0.4653507 0.396875,0.9260417 v 7.6729172 c 0,0.293158 -0.236008,0.529166 -0.529167,0.529166 H 3.96875 c -0.2931584,0 -0.5291667,-0.236008 -0.5291667,-0.529166 V 2.38125 c 0,-0.2931583 0.2360083,-0.5291667 0.5291667,-0.5291667 z"
     sodipodi:nodetypes="sccccssssss" />
  <path
     id="path8276-3-6-5"
     style="fill:#541a7c;fill-opacity:1;stroke-width:0.382438;stroke-linecap:round;stroke-linejoin:round"
     d="m 5.8208342,11.018006 v 1.474107 c 0,0.407063 1.1845798,0.737053 2.645833,0.737053 1.4612534,0 2.6458338,-0.32999 2.6458338,-0.737053 v -1.474107 z"
     sodipodi:nodetypes="cssscc" />
  <path
     id="path8276-3-6-7"
     style="fill:#702da1;fill-opacity:1;stroke-width:0.382438;stroke-linecap:round;stroke-linejoin:round"
     d="m 5.8208342,9.6667411 v 1.4741069 c 0,0.407064 1.1845799,0.737054 2.6458331,0.737054 1.4612533,0 2.6458337,-0.32999 2.6458337,-0.737054 V 9.6667411 Z"
     sodipodi:nodetypes="cssscc" />
  <path
     id="path8276-3-6"
     style="fill:#8536bd;fill-opacity:1;stroke-width:0.382438;stroke-linecap:round;stroke-linejoin:round"
     d="m 5.8208342,8.3154763 v 1.4741071 c 0,0.4070636 1.1845798,0.7370536 2.6458331,0.7370536 1.4612533,0 2.6458337,-0.32999 2.6458337,-0.7370536 V 8.3154763 Z"
     sodipodi:nodetypes="cssscc" />
  <path
     id="path8276-3"
     style="fill:#9a53cd;fill-opacity:1;stroke-width:0.382438;stroke-linecap:round;stroke-linejoin:round"
     d="m 8.4666673,6.4728422 c -1.4612532,0 -2.6458331,0.6142114 -2.6458331,0.6142114 v 1.3512649 c 0,0.4070635 1.1845799,0.7370536 2.6458331,0.7370536 1.4612533,0 2.6458337,-0.3299901 2.6458337,-0.7370536 V 7.0870536 c 0,0 -1.1845804,-0.6142114 -2.6458337,-0.6142114 z"
     sodipodi:nodetypes="scssscs" />
  <ellipse
     style="fill:#b67cd7;fill-opacity:1;stroke-width:0.382438;stroke-linecap:round;stroke-linejoin:round"
     id="path9564"
     cx="8.4666662"
     cy="7.0870538"
     rx="2.645833"
     ry="0.73705357" />
</svg>
