<?xml version="1.0" encoding="UTF-8" standalone="no"?>
<!-- Created with Inkscape (http://www.inkscape.org/) -->

<svg
   width="64"
   height="64"
   viewBox="0 0 16.933333 16.933334"
   version="1.1"
   id="svg5"
   inkscape:version="1.1.1 (3bf5ae0d25, 2021-09-20, custom)"
   sodipodi:docname="text-rust.svg"
   xmlns:inkscape="http://www.inkscape.org/namespaces/inkscape"
   xmlns:sodipodi="http://sodipodi.sourceforge.net/DTD/sodipodi-0.dtd"
   xmlns:xlink="http://www.w3.org/1999/xlink"
   xmlns="http://www.w3.org/2000/svg"
   xmlns:svg="http://www.w3.org/2000/svg">
  <sodipodi:namedview
     id="namedview7"
     pagecolor="#ffffff"
     bordercolor="#666666"
     borderopacity="1.0"
     inkscape:pageshadow="2"
     inkscape:pageopacity="0.0"
     inkscape:pagecheckerboard="0"
     inkscape:document-units="px"
     showgrid="false"
     units="px"
     height="64px"
     inkscape:zoom="6.0390625"
     inkscape:cx="7.6170763"
     inkscape:cy="56.217335"
     inkscape:window-width="1920"
     inkscape:window-height="996"
     inkscape:window-x="0"
     inkscape:window-y="0"
     inkscape:window-maximized="1"
     inkscape:current-layer="svg5" />
  <defs
     id="defs2">
    <linearGradient
       inkscape:collect="always"
       id="linearGradient6322">
      <stop
         style="stop-color:#333333;stop-opacity:1;"
         offset="0"
         id="stop6318" />
      <stop
         style="stop-color:#683f2b;stop-opacity:1"
         offset="1"
         id="stop6320" />
    </linearGradient>
    <linearGradient
       inkscape:collect="always"
       xlink:href="#linearGradient6322"
       id="linearGradient6324"
       x1="4.4979196"
       y1="5.8207517"
       x2="12.435461"
       y2="13.229085"
       gradientUnits="userSpaceOnUse" />
  </defs>
  <path
     id="rect846"
     style="fill:#7d7d7b;stroke-width:0.529167;stroke-linecap:round;stroke-linejoin:round"
     d="M 2.6458333,0.79374999 H 11.1125 L 14.2875,3.96875 V 16.139584 H 2.6458333 Z"
     sodipodi:nodetypes="cccccc" />
  <path
     id="rect1454"
     style="fill:#fafafa;stroke-width:2;stroke-linecap:round;stroke-linejoin:round"
     d="M 11 4 L 11 60 L 53 60 L 53 16.5 L 41.5 16.5 C 40.945997 16.5 40.5 16.054 40.5 15.5 L 40.5 4 L 11 4 z M 41.5 4 L 41.5 15.5 L 53 15.5 L 41.5 4 z "
     transform="scale(0.26458334)" />
  <path
     id="path15"
     d="m 8.4666962,5.5562501 c -0.0382,1.505e-4 -0.076444,0.017023 -0.097152,0.050643 l -0.2067057,0.3338298 -0.097151,0.0093 -0.2671673,-0.2868041 c -0.054201,-0.057992 -0.163929,-0.036452 -0.1917195,0.038239 l -0.1369425,0.366386 -0.094568,0.028422 -0.3172933,-0.22841 c -0.064521,-0.046601 -0.1681173,-0.00343 -0.1808673,0.074931 l -0.063046,0.3860228 -0.0863,0.046509 -0.3565673,-0.1622639 c -0.072411,-0.033101 -0.165304,0.029119 -0.1622639,0.1085204 l 0.013435,0.3922242 -0.074931,0.062012 -0.3818887,-0.090434 c -0.077572,-0.018071 -0.1567132,0.060921 -0.138493,0.138493 l 0.089917,0.3818887 -0.061495,0.074931 -0.3922241,-0.013435 c -0.079101,-0.0023 -0.1414611,0.089692 -0.1085205,0.1622639 L 5.3170161,7.786086 5.2705071,7.872902 4.8844843,7.935431 C 4.8059943,7.948173 4.7632439,8.0517696 4.8095548,8.1163006 L 5.037965,8.4335937 5.0095429,8.5281616 4.643157,8.6651041 c -0.074391,0.02778 -0.096382,0.1373585 -0.038241,0.1917195 l 0.2868041,0.2671673 -0.0093,0.097151 -0.3338298,0.2067057 c -0.067561,0.041751 -0.067561,0.1532194 0,0.1948204 l 0.3338298,0.2067057 0.0093,0.097152 -0.2868041,0.2671673 c -0.058141,0.0542 -0.036151,0.163789 0.038241,0.191719 l 0.3663859,0.136943 0.028422,0.09457 -0.22841,0.317293 c -0.046451,0.06467 -0.00351,0.167751 0.074931,0.180351 l 0.3860229,0.06305 0.046509,0.08682 -0.1622638,0.356051 c -0.033091,0.07241 0.029429,0.16597 0.1085203,0.16278 l 0.3922242,-0.01395 0.061495,0.07545 -0.089917,0.381889 c -0.018219,0.07743 0.060921,0.156186 0.138493,0.137976 l 0.3818887,-0.08992 0.074931,0.06149 -0.013435,0.392224 c -0.003,0.0794 0.089853,0.141622 0.1622639,0.108521 l 0.3565673,-0.162264 0.0863,0.04651 0.063045,0.386023 c 0.01275,0.07864 0.116346,0.121232 0.1808673,0.07493 l 0.3172931,-0.228928 0.094568,0.02894 0.1369425,0.366386 c 0.02778,0.07438 0.1370119,0.09653 0.1912028,0.03824 l 0.267684,-0.286804 0.097151,0.0098 0.206189,0.333313 c 0.041601,0.06724 0.1535861,0.0674 0.1953371,0 l 0.2067057,-0.333313 0.097152,-0.0098 0.2671673,0.286804 c 0.054201,0.0583 0.1639289,0.03614 0.1917194,-0.03824 l 0.1369415,-0.366386 0.094568,-0.02894 0.3172934,0.228927 c 0.064521,0.0463 0.167601,0.0036 0.180351,-0.07493 l 0.06305,-0.386023 0.08682,-0.04651 0.356051,0.162264 c 0.07241,0.0331 0.16567,-0.02897 0.16278,-0.10852 l -0.01395,-0.392225 0.07545,-0.0615 0.381889,0.08992 c 0.07758,0.01821 0.156196,-0.06054 0.137976,-0.137976 l -0.08992,-0.381889 0.06149,-0.07545 0.392224,0.01395 c 0.07909,0.0032 0.141772,-0.09037 0.108521,-0.16278 l -0.162264,-0.356051 0.04651,-0.08682 0.386022,-0.06305 c 0.07864,-0.0126 0.121542,-0.115669 0.07493,-0.18035 l -0.22841,-0.317294 0.02842,-0.09457 0.366386,-0.136942 c 0.07454,-0.02793 0.09654,-0.137519 0.03824,-0.19172 l -0.286804,-0.2671669 0.0098,-0.097151 0.333313,-0.2067057 c 0.06756,-0.041601 0.06757,-0.1530694 0,-0.1948204 l -0.333313,-0.2067057 -0.0098,-0.097152 0.286804,-0.2671673 c 0.0583,-0.05436 0.0363,-0.1639379 -0.03824,-0.1917184 l -0.366387,-0.1369425 -0.02842,-0.094568 0.22841,-0.3172933 c 0.04661,-0.064531 0.0041,-0.1679573 -0.07441,-0.1808673 l -0.38654,-0.062529 -0.04651,-0.086816 0.162264,-0.3565673 c 0.03325,-0.072572 -0.02866,-0.165304 -0.108521,-0.1622639 l -0.391707,0.013436 -0.06201,-0.074931 0.08992,-0.3818887 c 0.01822,-0.077572 -0.0604,-0.1567132 -0.137976,-0.138493 l -0.381889,0.090434 -0.07545,-0.062012 0.01395,-0.3922241 c 0.003,-0.079401 -0.08984,-0.1414711 -0.162264,-0.1085204 l -0.356567,0.162264 -0.08682,-0.046509 -0.06305,-0.3860228 C 10.043512,5.8644578 9.9404227,5.8213876 9.8759114,5.8678585 L 9.5586181,6.0962686 9.4640502,6.0678465 9.3271077,5.7014605 C 9.2993272,5.6267691 9.1895891,5.6052289 9.1353882,5.66322 L 8.8682209,5.9500241 8.7710694,5.9407213 8.5643637,5.6068915 c -0.020786,-0.033619 -0.058952,-0.050491 -0.097151,-0.050641 z m -0.012401,0.699182 c 0.1179923,0 0.2362214,0.078828 0.2361613,0.2361613 -1.331e-4,0.3144461 -0.4716857,0.3144461 -0.4718058,0 C 8.2185847,6.3342602 8.3363029,6.2554321 8.4542951,6.2554321 Z M 9.0020654,6.6440389 C 9.8407319,6.801132 10.567966,7.3192153 10.990574,8.06049 l -0.278536,0.6283854 c -0.04805,0.1087821 0.0011,0.2360194 0.109555,0.2842201 l 0.535884,0.2377118 c 0.01666,0.1675833 0.01828,0.3364187 0.0057,0.5043619 h -0.297653 c -0.02983,0 -0.04186,0.019862 -0.04186,0.049093 V 9.900688 c 0,0.322156 -0.181891,0.392481 -0.341064,0.410311 -0.151611,0.01708 -0.319319,-0.0633 -0.340049,-0.156063 C 10.253129,9.6519658 10.103982,9.5441854 9.8686777,9.3586019 10.160694,9.1731581 10.464507,8.8995064 10.464507,8.5333292 c 0,-0.3954076 -0.271033,-0.6442289 -0.455786,-0.7663614 C 9.7494959,7.5961044 9.462418,7.5798992 9.3849863,7.5798992 H 6.3030041 C 6.7290724,7.1037897 7.2999085,6.763208 7.9277111,6.6445556 l 0.3632853,0.3813723 c 0.082132,0.086001 0.2184424,0.089416 0.304374,0.00723 z M 5.6399966,8.3912191 c 0.1179923,0 0.2357046,0.078818 0.2356445,0.2361613 -1.32e-4,0.3144361 -0.4716856,0.3144361 -0.4718058,0 -6.58e-5,-0.1573332 0.118169,-0.2361613 0.2361613,-0.2361613 z m 5.6285974,0.011369 c 0.117992,0 0.236221,0.078301 0.236161,0.2356448 -1.32e-4,0.3144361 -0.471686,0.3144361 -0.471806,0 -6.6e-5,-0.1573433 0.117652,-0.2356446 0.235645,-0.2356448 z m -5.1335384,0.093017 h 0.3472656 l -0.00103,1.8386479 H 5.6730698 C 5.5705578,9.9741757 5.5386181,9.5597302 5.5790189,9.1875528 L 6.086998,8.9617269 C 6.1955502,8.9135259 6.2447531,8.7862785 6.1965521,8.6775065 Z m 1.5683796,0 h 1.0733195 c 0.050631,0 0.3576011,0.02064 0.3576011,0.2501141 0,0.1905135 -0.2353506,0.2842202 -0.4289145,0.2842202 H 7.7034352 Z m 0,1.221114 h 0.8562784 c 0.068541,0 0.3662087,0.096156 0.4614706,0.4769739 0.029831,0.117122 0.095769,0.498135 0.1405599,0.620117 0.044631,0.136783 0.225969,0.429431 0.4196128,0.429431 h 1.2257651 c -0.0822,0.110022 -0.171806,0.19468 -0.268718,0.291972 L 10.03921,11.427726 c -0.1162123,-0.0249 -0.230381,0.04892 -0.2552815,0.165365 L 9.6655894,12.146029 C 8.8949941,12.495085 8.0102135,12.49059 7.2429983,12.134144 L 7.1246591,11.581723 C 7.0997592,11.46544 6.98552,11.391387 6.8693778,11.416358 L 6.3815522,11.521261 C 6.2909105,11.427909 6.2067026,11.347893 6.1293713,11.243241 H 8.4666962 V 10.327535 H 7.7034352 Z M 6.7065968,11.716081 c 0.1179923,0 0.2362214,0.07831 0.2361613,0.235644 -1.32e-4,0.314436 -0.4721926,0.314436 -0.4723225,0 -6.59e-5,-0.157343 0.118169,-0.235644 0.2361612,-0.235644 z m 3.4953942,0.01085 c 0.117992,0 0.236221,0.07883 0.236161,0.236161 -1.32e-4,0.314446 -0.4716859,0.314446 -0.4718057,0 -6.62e-5,-0.157343 0.1176527,-0.236161 0.2356447,-0.236161 z"
     style="stroke-width:0.264583;fill:url(#linearGradient6324);fill-opacity:1" />
</svg>
