<?xml version="1.0" encoding="UTF-8" standalone="no"?>
<!-- Created with Inkscape (http://www.inkscape.org/) -->

<svg
   width="64"
   height="64"
   viewBox="0 0 16.933333 16.933334"
   version="1.1"
   id="svg5"
   inkscape:version="1.1.1 (3bf5ae0d25, 2021-09-20, custom)"
   sodipodi:docname="text-x-readme.svg"
   xmlns:inkscape="http://www.inkscape.org/namespaces/inkscape"
   xmlns:sodipodi="http://sodipodi.sourceforge.net/DTD/sodipodi-0.dtd"
   xmlns="http://www.w3.org/2000/svg"
   xmlns:svg="http://www.w3.org/2000/svg">
  <sodipodi:namedview
     id="namedview7"
     pagecolor="#ffffff"
     bordercolor="#666666"
     borderopacity="1.0"
     inkscape:pageshadow="2"
     inkscape:pageopacity="0.0"
     inkscape:pagecheckerboard="0"
     inkscape:document-units="px"
     showgrid="false"
     units="px"
     height="64px"
     inkscape:zoom="9.4240263"
     inkscape:cx="30.241851"
     inkscape:cy="31.992695"
     inkscape:window-width="1920"
     inkscape:window-height="996"
     inkscape:window-x="0"
     inkscape:window-y="0"
     inkscape:window-maximized="1"
     inkscape:current-layer="svg5" />
  <defs
     id="defs2" />
  <path
     id="rect846"
     style="fill:#7d7d7b;stroke-width:0.529167;stroke-linecap:round;stroke-linejoin:round"
     d="M 2.6458333,0.79374999 H 11.1125 L 14.2875,3.96875 V 16.139584 H 2.6458333 Z"
     sodipodi:nodetypes="cccccc" />
  <path
     id="rect1454"
     style="fill:#fafafa;stroke-width:2;stroke-linecap:round;stroke-linejoin:round"
     d="M 11 4 L 11 60 L 53 60 L 53 16.5 L 41.5 16.5 C 40.945997 16.5 40.5 16.054 40.5 15.5 L 40.5 4 L 11 4 z M 41.5 4 L 41.5 15.5 L 53 15.5 L 41.5 4 z "
     transform="scale(0.26458334)" />
  <path
     id="path844"
     style="fill:#b3b3b3;fill-opacity:1;stroke-width:3.49999;stroke-linecap:round;stroke-linejoin:round"
     d="M 32 23 A 14 14 0 0 0 18 37 A 14 14 0 0 0 32 51 A 14 14 0 0 0 46 37 A 14 14 0 0 0 32 23 z M 32 24 A 13 13 0 0 1 45 37 A 13 13 0 0 1 32 50 A 13 13 0 0 1 19 37 A 13 13 0 0 1 32 24 z M 32 28 A 1.5 1.4999986 0 0 0 30.5 29.5 A 1.5 1.4999986 0 0 0 32 31 A 1.5 1.4999986 0 0 0 33.5 29.5 A 1.5 1.4999986 0 0 0 32 28 z M 31 33 L 31 46 L 33 46 L 33 33 L 31 33 z "
     transform="scale(0.26458334)" />
</svg>
