<?xml version="1.0" encoding="UTF-8" standalone="no"?>
<!-- Created with Inkscape (http://www.inkscape.org/) -->

<svg
   width="64"
   height="64"
   viewBox="0 0 16.933333 16.933334"
   version="1.1"
   id="svg5"
   inkscape:version="1.1.1 (3bf5ae0d25, 2021-09-20, custom)"
   sodipodi:docname="text-x-python.svg"
   xmlns:inkscape="http://www.inkscape.org/namespaces/inkscape"
   xmlns:sodipodi="http://sodipodi.sourceforge.net/DTD/sodipodi-0.dtd"
   xmlns="http://www.w3.org/2000/svg"
   xmlns:svg="http://www.w3.org/2000/svg">
  <sodipodi:namedview
     id="namedview7"
     pagecolor="#ffffff"
     bordercolor="#666666"
     borderopacity="1.0"
     inkscape:pageshadow="2"
     inkscape:pageopacity="0.0"
     inkscape:pagecheckerboard="0"
     inkscape:document-units="px"
     showgrid="false"
     units="px"
     height="64px"
     inkscape:zoom="8.5405241"
     inkscape:cx="12.762683"
     inkscape:cy="33.311773"
     inkscape:window-width="1920"
     inkscape:window-height="996"
     inkscape:window-x="0"
     inkscape:window-y="0"
     inkscape:window-maximized="1"
     inkscape:current-layer="svg5" />
  <defs
     id="defs2" />
  <path
     id="rect846"
     style="fill:#7d7d7b;stroke-width:0.529167;stroke-linecap:round;stroke-linejoin:round"
     d="M 2.6458333,0.79374999 H 11.1125 L 14.2875,3.96875 V 16.139584 H 2.6458333 Z"
     sodipodi:nodetypes="cccccc" />
  <path
     id="rect1454"
     style="fill:#fafafa;stroke-width:2;stroke-linecap:round;stroke-linejoin:round"
     d="M 11 4 L 11 60 L 53 60 L 53 16.5 L 41.5 16.5 C 40.945997 16.5 40.5 16.054 40.5 15.5 L 40.5 4 L 11 4 z M 41.5 4 L 41.5 15.5 L 53 15.5 L 41.5 4 z "
     transform="scale(0.26458334)" />
  <path
     id="path17"
     style="fill:#347ab4;fill-opacity:1;stroke-width:0.0638655"
     d="m 8.338937,5.5562158 c -0.8491541,0 -1.5327586,0.3418021 -1.5327586,0.7663793 v 1.021839 H 8.338937 V 7.5998938 H 5.5288793 C 5.1043027,7.5998938 4.7625,8.2834983 4.7625,9.1326524 v 0.2554597 c 0,0.8491539 0.3418027,1.5327589 0.7663793,1.5327589 H 6.550719 v -0.766379 c 0,0 -7.7e-6,-1.0218396 1.0218387,-1.0218396 h 2.0436784 c 0,0 0.5109189,3.6e-6 0.5109189,-0.5109196 V 6.3225951 c 0,-0.4245772 -0.6836045,-0.7663793 -1.5327586,-0.7663793 z M 7.5725577,6.0671353 c 0.1410852,0 0.2554594,0.1143746 0.2554594,0.2554598 0,0.141085 -0.1143742,0.2554597 -0.2554594,0.2554597 -0.1410852,0 -0.2554594,-0.1143747 -0.2554594,-0.2554597 0,-0.1410852 0.1143742,-0.2554598 0.2554594,-0.2554598 z" />
  <path
     id="path19"
     style="fill:#ffd43b;fill-opacity:1;stroke-width:0.0638655"
     d="m 10.382615,7.5998938 v 1.021839 c 0,0.7663847 -0.7663789,0.7663793 -0.7663789,0.7663793 H 7.5725577 c -0.7663841,0 -0.7663793,0.7663799 -0.7663793,0.7663799 v 2.043677 c 0,0.424578 0.6836045,0.766379 1.5327586,0.766379 h 0.2554594 c 0.8491541,0 1.5327586,-0.341801 1.5327586,-0.766379 V 11.17633 H 8.5943964 v -0.255459 h 2.8100576 c 0.424578,0 0.766379,-0.683605 0.766379,-1.5327589 V 9.1326524 c 0,-0.8491541 -0.341801,-1.5327586 -0.766379,-1.5327586 z M 9.3607757,11.68725 c 0.1410852,0 0.2554604,0.114374 0.2554604,0.25546 0,0.141085 -0.1143752,0.255459 -0.2554604,0.255459 -0.1410843,0 -0.2554594,-0.114374 -0.2554594,-0.255459 0,-0.141086 0.1143751,-0.25546 0.2554594,-0.25546 z" />
</svg>
