<?xml version="1.0" encoding="UTF-8" standalone="no"?>
<!-- Created with Inkscape (http://www.inkscape.org/) -->

<svg
   width="64"
   height="64"
   viewBox="0 0 16.933333 16.933334"
   version="1.1"
   id="svg5"
   inkscape:version="1.1.1 (3bf5ae0d25, 2021-09-20, custom)"
   sodipodi:docname="text-x-go.svg"
   xmlns:inkscape="http://www.inkscape.org/namespaces/inkscape"
   xmlns:sodipodi="http://sodipodi.sourceforge.net/DTD/sodipodi-0.dtd"
   xmlns="http://www.w3.org/2000/svg"
   xmlns:svg="http://www.w3.org/2000/svg">
  <sodipodi:namedview
     id="namedview7"
     pagecolor="#ffffff"
     bordercolor="#666666"
     borderopacity="1.0"
     inkscape:pageshadow="2"
     inkscape:pageopacity="0.0"
     inkscape:pagecheckerboard="0"
     inkscape:document-units="px"
     showgrid="false"
     units="px"
     height="64px"
     inkscape:zoom="8.5405241"
     inkscape:cx="12.762683"
     inkscape:cy="23.944666"
     inkscape:window-width="1920"
     inkscape:window-height="996"
     inkscape:window-x="0"
     inkscape:window-y="0"
     inkscape:window-maximized="1"
     inkscape:current-layer="svg5" />
  <defs
     id="defs2" />
  <path
     id="rect846"
     style="fill:#7d7d7b;stroke-width:0.529167;stroke-linecap:round;stroke-linejoin:round"
     d="M 2.6458333,0.79374999 H 11.1125 L 14.2875,3.96875 V 16.139584 H 2.6458333 Z"
     sodipodi:nodetypes="cccccc" />
  <path
     id="rect1454"
     style="fill:#fafafa;stroke-width:2;stroke-linecap:round;stroke-linejoin:round"
     d="M 11 4 L 11 60 L 53 60 L 53 16.5 L 41.5 16.5 C 40.945997 16.5 40.5 16.054 40.5 15.5 L 40.5 4 L 11 4 z M 41.5 4 L 41.5 15.5 L 53 15.5 L 41.5 4 z "
     transform="scale(0.26458334)" />
  <path
     id="path17"
     style="fill:#31c6b7;stroke-width:0.0596265"
     d="M 6.6282629,6.8791668 C 6.4750616,6.8791407 6.3196373,6.894287 6.1619995,6.9227967 5.4762938,7.0480126 4.9158414,7.4001469 4.4924925,7.9546741 4.0989571,8.4674627 3.9082388,9.0515237 3.9857529,9.7014534 c 0.065589,0.5485636 0.3157188,0.9897116 0.7569553,1.3236206 0.4770129,0.357759 1.0194584,0.471237 1.6037992,0.393722 0.7095562,-0.0954 1.2701582,-0.447027 1.6994696,-1.01348 0.09732,-0.128285 0.1810128,-0.26343 0.2507416,-0.404235 0.1004923,0.36303 0.3025734,0.675119 0.596102,0.928848 0.4173862,0.357759 0.9124341,0.512686 1.4550354,0.524612 0.15503,-0.01788 0.315785,-0.0238 0.476778,-0.05362 0.554526,-0.11329 1.03732,-0.363765 1.430855,-0.763264 0.554528,-0.56049 0.787358,-1.2162163 0.68599,-2.0211753 C 12.863965,8.0440691 12.571993,7.6085395 12.100944,7.2865559 11.582192,6.9347589 11.009665,6.8753945 10.401474,6.9827225 9.6919178,7.1079381 9.1672419,7.4059137 8.7319677,7.9783287 8.5453937,8.2225213 8.4054967,8.480552 8.319322,8.7536825 H 6.4006507 c -0.08944,0 -0.1314001,0.059369 -0.1492886,0.095145 -0.083477,0.155029 -0.2268443,0.4648774 -0.3043589,0.6497199 -0.041739,0.101365 -0.011673,0.1792509 0.1135433,0.1792512 H 7.2112237 C 7.1515969,9.7612756 7.104034,9.832462 7.0503705,9.8980515 6.782051,10.202147 6.4423522,10.345436 6.0368915,10.291773 5.5658417,10.226184 5.2375363,9.8325797 5.2315753,9.355567 5.2256144,8.8725916 5.4343069,8.485119 5.8397677,8.2227625 6.1796394,8.0021439 6.5433073,7.9485571 6.9189547,8.1333997 c 0.1252159,0.059626 0.1912644,0.1251957 0.2807043,0.226561 0.077514,0.08944 0.082978,0.08325 0.1724176,0.0594 C 7.7417615,8.3239587 7.9983436,8.2524572 8.373991,8.1570547 8.445542,8.1391647 8.469693,8.1092657 8.433917,8.0556022 8.2848501,7.7097672 8.0581645,7.4237587 7.7421437,7.2150657 7.3950052,6.9793543 7.0197771,6.8792337 6.6282629,6.8791668 Z M 10.79467,8.0277413 c 0.463181,0.00765 0.863517,0.3230178 0.954079,0.821086 0.01188,0.059626 0.01187,0.1190836 0.01787,0.1965983 -0.02982,0.5127882 -0.285905,0.8946439 -0.756955,1.1391124 -0.316021,0.160992 -0.644005,0.178849 -0.97195,0.03575 C 9.6084051,10.029478 9.381596,9.5583483 9.4889238,9.0932608 9.6201021,8.5327713 9.9778377,8.1808173 10.532365,8.0556015 c 0.08851,-0.020498 0.176532,-0.029277 0.262306,-0.027861 z" />
</svg>
