<?xml version="1.0" encoding="UTF-8" standalone="no"?>
<!-- Created with Inkscape (http://www.inkscape.org/) -->

<svg
   width="64"
   height="64"
   viewBox="0 0 16.933333 16.933334"
   version="1.1"
   id="svg5"
   inkscape:version="1.1.1 (3bf5ae0d25, 2021-09-20, custom)"
   sodipodi:docname="text-x-script.svg"
   xmlns:inkscape="http://www.inkscape.org/namespaces/inkscape"
   xmlns:sodipodi="http://sodipodi.sourceforge.net/DTD/sodipodi-0.dtd"
   xmlns="http://www.w3.org/2000/svg"
   xmlns:svg="http://www.w3.org/2000/svg">
  <sodipodi:namedview
     id="namedview7"
     pagecolor="#ffffff"
     bordercolor="#666666"
     borderopacity="1.0"
     inkscape:pageshadow="2"
     inkscape:pageopacity="0.0"
     inkscape:pagecheckerboard="0"
     inkscape:document-units="px"
     showgrid="false"
     units="px"
     height="64px"
     inkscape:zoom="12.078125"
     inkscape:cx="22.768435"
     inkscape:cy="37.216041"
     inkscape:window-width="1920"
     inkscape:window-height="996"
     inkscape:window-x="0"
     inkscape:window-y="0"
     inkscape:window-maximized="1"
     inkscape:current-layer="svg5" />
  <defs
     id="defs2" />
  <path
     id="rect846"
     style="fill:#7d7d7b;stroke-width:0.529167;stroke-linecap:round;stroke-linejoin:round"
     d="M 2.6458333,0.79374999 H 11.1125 L 14.2875,3.96875 V 16.139584 H 2.6458333 Z"
     sodipodi:nodetypes="cccccc" />
  <path
     id="rect1454"
     style="fill:#fafafa;stroke-width:2;stroke-linecap:round;stroke-linejoin:round"
     d="M 11 4 L 11 60 L 53 60 L 53 16.5 L 41.5 16.5 C 40.945997 16.5 40.5 16.054 40.5 15.5 L 40.5 4 L 11 4 z M 41.5 4 L 41.5 15.5 L 53 15.5 L 41.5 4 z "
     transform="scale(0.26458334)" />
  <path
     id="rect1748"
     style="fill:#999999;fill-opacity:1;stroke-width:0.766834;stroke-linecap:round;stroke-linejoin:round"
     d="m 7.4083335,12.170833 v 0.264584 h 4.7625005 v -0.264584 z m -2.6458334,0.79375 v 0.264584 H 11.1125 v -0.264584 z m 0,0.79375 v 0.264584 h 3.1750001 v -0.264584 z"
     sodipodi:nodetypes="ccccccccccccccc" />
  <path
     id="rect845"
     style="fill:#4aa8e5;fill-opacity:1;stroke-width:3;stroke-linecap:round;stroke-linejoin:round"
     d="M 18 22 L 18 23 L 38 23 L 38 22 L 18 22 z M 18 25 L 18 26 L 32 26 L 32 25 L 18 25 z M 18 28 L 18 29 L 44 29 L 44 28 L 18 28 z "
     transform="scale(0.26458334)" />
  <path
     id="rect2215"
     style="fill:#b19af4;fill-opacity:1;stroke-width:2.12132;stroke-linecap:round;stroke-linejoin:round"
     d="M 18 31 L 18 32 L 26 32 L 26 31 L 18 31 z M 18 34 L 18 35 L 26 35 L 26 34 L 18 34 z M 18 37 L 18 38 L 26 38 L 26 37 L 18 37 z "
     transform="scale(0.26458334)" />
  <path
     id="rect2530"
     style="fill:#e89090;fill-opacity:1;stroke-width:3;stroke-linecap:round;stroke-linejoin:round"
     d="M 18 40 L 18 41 L 26 41 L 26 40 L 18 40 z M 18 43 L 18 44 L 26 44 L 26 43 L 18 43 z M 18 46 L 18 47 L 26 47 L 26 46 L 18 46 z "
     transform="scale(0.26458334)" />
  <path
     id="rect2675"
     style="fill:#cb86ee;fill-opacity:1;stroke-width:3;stroke-linecap:round;stroke-linejoin:round"
     d="M 28 31 L 28 32 L 44 32 L 44 31 L 28 31 z M 28 34 L 28 35 L 46 35 L 46 34 L 28 34 z M 28 37 L 28 38 L 42 38 L 42 37 L 28 37 z "
     transform="scale(0.26458334)" />
  <path
     id="rect3319"
     style="fill:#a9ee86;fill-opacity:1;stroke-width:3;stroke-linecap:round;stroke-linejoin:round"
     d="M 28 40 L 28 41 L 46 41 L 46 40 L 28 40 z M 28 43 L 28 44 L 42 44 L 42 43 L 28 43 z "
     transform="scale(0.26458334)" />
</svg>
