<?xml version="1.0" encoding="UTF-8" standalone="no"?>
<!-- Created with Inkscape (http://www.inkscape.org/) -->

<svg
   width="64"
   height="64"
   viewBox="0 0 16.933333 16.933334"
   version="1.1"
   id="svg5"
   inkscape:version="1.1.1 (3bf5ae0d25, 2021-09-20, custom)"
   sodipodi:docname="text-x-kvt.svg"
   xmlns:inkscape="http://www.inkscape.org/namespaces/inkscape"
   xmlns:sodipodi="http://sodipodi.sourceforge.net/DTD/sodipodi-0.dtd"
   xmlns="http://www.w3.org/2000/svg"
   xmlns:svg="http://www.w3.org/2000/svg">
  <sodipodi:namedview
     id="namedview7"
     pagecolor="#ffffff"
     bordercolor="#666666"
     borderopacity="1.0"
     inkscape:pageshadow="2"
     inkscape:pageopacity="0.0"
     inkscape:pagecheckerboard="0"
     inkscape:document-units="px"
     showgrid="false"
     units="px"
     height="64px"
     inkscape:zoom="8.5405241"
     inkscape:cx="12.762683"
     inkscape:cy="23.944666"
     inkscape:window-width="1920"
     inkscape:window-height="996"
     inkscape:window-x="0"
     inkscape:window-y="0"
     inkscape:window-maximized="1"
     inkscape:current-layer="svg5" />
  <defs
     id="defs2">
    <linearGradient
       id="linearGradient45680"
       x1="-102.06"
       x2="-102.06"
       y1="1.3231"
       y2="19.157"
       gradientTransform="matrix(0.42838107,0,0,0.41482186,52.588874,5.271997)"
       gradientUnits="userSpaceOnUse">
      <stop
         stop-color="#ffdc23"
         offset="0"
         id="stop22" />
      <stop
         stop-color="#e6628a"
         offset=".31552"
         id="stop24" />
      <stop
         stop-color="#7b5fc1"
         offset=".55428"
         id="stop26" />
      <stop
         stop-color="#1e9be1"
         offset=".79721"
         id="stop28" />
      <stop
         stop-color="#0082dc"
         offset="1"
         id="stop30" />
    </linearGradient>
    <linearGradient
       id="linearGradient1954"
       x1="-109.09"
       x2="-101.26"
       y1="11.122"
       y2="18.440001"
       gradientTransform="matrix(0.42838107,0,0,0.41482186,52.588874,5.2719924)"
       gradientUnits="userSpaceOnUse">
      <stop
         stop-color="#64d2eb"
         offset="0"
         id="stop2" />
      <stop
         stop-color="#0082dc"
         offset="1"
         id="stop4" />
    </linearGradient>
    <linearGradient
       id="linearGradient1431"
       x1="-107.04"
       x2="-99.660004"
       y1="6.9531002"
       y2="17.895"
       gradientTransform="matrix(0.42838107,0,0,0.41482186,52.588874,5.2719737)"
       gradientUnits="userSpaceOnUse">
      <stop
         stop-color="#a578e1"
         offset="0"
         id="stop7" />
      <stop
         stop-color="#5046a0"
         offset="1"
         id="stop9" />
    </linearGradient>
    <linearGradient
       id="linearGradient1439"
       x1="-105"
       x2="-97.016998"
       y1="4.2921"
       y2="13.799"
       gradientTransform="matrix(0.42838107,0,0,0.41482186,52.588874,5.272123)"
       gradientUnits="userSpaceOnUse">
      <stop
         stop-color="#eb82aa"
         offset="0"
         id="stop12" />
      <stop
         stop-color="#dc2850"
         offset="1"
         id="stop14" />
    </linearGradient>
    <linearGradient
       id="linearGradient1447"
       x1="-102.1"
       x2="-98.566002"
       y1="1.4752001"
       y2="7.8610001"
       gradientTransform="matrix(0.42838107,0,0,0.41482186,52.584054,5.272067)"
       gradientUnits="userSpaceOnUse">
      <stop
         stop-color="#ffdc23"
         offset="0"
         id="stop17" />
      <stop
         stop-color="#f0a019"
         offset="1"
         id="stop19" />
    </linearGradient>
  </defs>
  <path
     id="rect846"
     style="fill:#7d7d7b;stroke-width:0.529167;stroke-linecap:round;stroke-linejoin:round"
     d="M 2.6458333,0.79374999 H 11.1125 L 14.2875,3.96875 V 16.139584 H 2.6458333 Z"
     sodipodi:nodetypes="cccccc" />
  <path
     id="rect1454"
     style="fill:#fafafa;stroke-width:2;stroke-linecap:round;stroke-linejoin:round"
     d="M 11 4 L 11 60 L 53 60 L 53 16.5 L 41.5 16.5 C 40.945997 16.5 40.5 16.054 40.5 15.5 L 40.5 4 L 11 4 z M 41.5 4 L 41.5 15.5 L 53 15.5 L 41.5 4 z "
     transform="scale(0.26458334)" />
  <path
     d="m 8.8698517,5.8208383 c -0.085557,-6.55e-4 -0.1571425,0.06511 -0.1571425,0.06511 -0.3704775,0.3125736 -0.6820245,0.6096163 -0.96776,0.8980675 v 2.411e-4 C 7.3998793,7.1325408 7.1284187,7.4546345 6.8887559,7.7633394 6.3187313,8.4976043 6.0483697,9.0838401 5.8896225,9.5483674 h -2.49e-4 c 2.08e-5,7.65e-5 -1.86e-5,1.64e-4 0,2.41e-4 3.08e-5,8e-5 -2.7e-5,1.62e-4 0,2.415e-4 -0.2102556,0.6155431 -0.200723,0.9940621 -0.200723,0.9940621 -4.4e-6,1.483511 1.2418323,2.68627 2.7737852,2.686224 0.2433255,0 0.4757982,-0.03871 0.6998082,-0.09622 0.7575897,-0.194491 1.3874211,-0.687691 1.7457351,-1.347102 v -4.66e-4 c 0.202728,-0.37312 0.328482,-0.791527 0.328482,-1.242427 h 0.0057 c 0,0 0.06422,-0.663658 -0.453248,-1.5363848 -0.07786,-0.097624 -0.214328,-0.2837565 -0.315037,-0.4102065 -0.07702,-0.015825 -0.152588,-0.031817 -0.227123,-0.047988 0.07437,0.016135 0.150039,0.031961 0.226873,0.04775 C 9.8304706,8.0336572 9.1300849,7.6966719 8.9736989,6.1544076 8.9473939,5.9681954 9.0049389,5.8208897 8.8698482,5.8208897 Z M 8.2171282,7.7527288 c 0.012645,0.00978 0.025615,0.019423 0.03885,0.029179 0.013235,0.00976 0.02676,0.01969 0.040595,0.029421 -0.013835,-0.00973 -0.02736,-0.019424 -0.040595,-0.02918 -0.013235,-0.00976 -0.026205,-0.019643 -0.03885,-0.029421 z m 0.4913735,0.2978266 c 0.03198,0.015599 0.064709,0.031104 0.098617,0.046544 -0.033965,-0.015465 -0.066588,-0.030917 -0.098617,-0.046544 z M 8.9336349,8.152323 c 0.03731,0.015653 0.07584,0.0311 0.115306,0.046544 -0.0394,-0.01542 -0.07805,-0.030913 -0.115306,-0.046544 z M 6.9017294,8.2577074 c 0.00605,0.027237 0.013215,0.054596 0.021168,0.081752 -0.00797,-0.027233 -0.015109,-0.054438 -0.021168,-0.081752 z M 10.079466,8.510682 c 0.02762,0.00637 0.05547,0.01276 0.08368,0.019052 -0.02822,-0.0063 -0.05603,-0.012679 -0.08368,-0.019052 z M 7.6495852,9.2336534 c 0.03599,0.023815 0.073625,0.04736 0.112564,0.070659 -0.038945,-0.0233 -0.076574,-0.046845 -0.112564,-0.070659 z m 0.233846,0.1398715 c 0.041975,0.022755 0.085408,0.045115 0.1304965,0.06728 -0.045085,-0.02217 -0.088521,-0.044525 -0.1304965,-0.06728 z m 0.5802415,0.258276 c 0.054964,0.020205 0.111663,0.04008 0.170092,0.059567 -0.058429,-0.019485 -0.115128,-0.03936 -0.170092,-0.059567 z m 0.258998,0.088505 c 0.060192,0.01911 0.1220145,0.037855 0.185783,0.056188 -0.063769,-0.018335 -0.1255905,-0.03708 -0.185783,-0.056188 z M 9.1054419,9.830273 c 0.03371,0.0088 0.06772,0.01726 0.102357,0.02581 0.03464,0.0085 0.06868,0.0175 0.102106,0.02652 -0.03342,-0.009 -0.06747,-0.01774 -0.102106,-0.02628 -0.03464,-0.0085 -0.06865,-0.01728 -0.102357,-0.02604 z m 0.8205787,0.274675 c 0.05074,0.02416 0.09928,0.049 0.1456864,0.07476 -0.04641,-0.02576 -0.09494,-0.0506 -0.1456864,-0.07476 z m 0.5568674,0.372588 c 0.03215,0.03081 0.06231,0.0622 0.09065,0.09429 -0.02834,-0.03209 -0.0585,-0.06349 -0.09065,-0.09429 z m 0.205706,0.242843 c 0.02285,0.03391 0.04391,0.06842 0.06326,0.103457 -0.01935,-0.03504 -0.0404,-0.06955 -0.06326,-0.103457 z m -1.2190364,2.185856 c -0.03077,0.02768 -0.06289,0.05487 -0.09588,0.08127 0.033,-0.0264 0.06511,-0.05359 0.09588,-0.08127 z m -0.1459377,0.120336 c -0.01692,0.01286 -0.03403,0.0256 -0.0513,0.0381 -0.009,0.0065 -0.01803,0.01236 -0.02715,0.01809 0.0091,-0.0057 0.01814,-0.0118 0.02715,-0.01832 0.01727,-0.01251 0.03437,-0.02501 0.0513,-0.03786 z"
     fill="url(#linearGradient45680)"
     id="path35"
     style="fill:url(#linearGradient45680);stroke-width:0.421547" />
  <path
     d="M 5.8896081,9.5484154 C 5.6791742,10.164238 5.6886055,10.543038 5.6886055,10.543038 c -4.3e-6,1.483511 1.2419769,2.686177 2.7739302,2.68613 0.2433255,0 0.4757592,-0.03874 0.6997592,-0.09625 0.03697,-0.02447 0.07398,-0.04229 0.110015,-0.06838 0.138135,-0.100017 0.2666987,-0.211664 0.3637057,-0.331189 0.04851,-0.05976 0.08904,-0.121438 0.119094,-0.184779 0.03006,-0.06334 0.04964,-0.128158 0.05578,-0.194211 0.0061,-0.06605 -0.0011,-0.13338 -0.02435,-0.201286 -0.02319,-0.0679 -0.06243,-0.136474 -0.120424,-0.205355 C 9.6081266,11.878838 9.5314706,11.809658 9.4332349,11.74065 9.3350039,11.67164 9.2152299,11.602912 9.0713019,11.534651 8.9273739,11.466386 8.7592152,11.398518 8.5641212,11.331867 8.3690557,11.265212 8.1470217,11.199686 7.8953977,11.135509 7.6437442,11.071332 7.4199803,10.996244 7.2213248,10.911716 7.0226548,10.827187 6.8491028,10.733175 6.6984328,10.631543 6.5477821,10.529916 6.4199651,10.420551 6.312365,10.305072 6.2047698,10.189588 6.117348,10.068034 6.0478299,9.941943 5.9783118,9.815852 5.9266202,9.6852489 5.8902201,9.5518084 c -3.084e-4,-0.0011 -3.6e-4,-0.0023 -8.65e-4,-0.00345 z"
     fill="url(#linearGradient1954)"
     id="path37"
     style="fill:url(#linearGradient1954);stroke-width:0.421547" />
  <path
     d="m 5.8893189,9.5484154 c 3.041e-4,0.0011 3.557e-4,0.0023 8.65e-4,0.00345 0.036415,0.1334455 0.088092,0.2640486 0.1576098,0.3901346 0.069518,0.126086 0.1569351,0.247645 0.2645352,0.363129 0.1076001,0.115483 0.235417,0.224844 0.3860678,0.326471 0.1506507,0.101628 0.3241978,0.195644 0.522892,0.280173 0.1986651,0.08453 0.42241,0.159616 0.674073,0.223793 0.251658,0.06418 0.4737015,0.129703 0.668723,0.196358 0.1950655,0.06665 0.3632242,0.134524 0.5071812,0.202784 0.143928,0.06827 0.263701,0.136997 0.361933,0.206 0.09824,0.06901 0.1748917,0.138186 0.2328817,0.207073 0.05799,0.06889 0.09723,0.137454 0.120424,0.205355 0.0232,0.0679 0.0305,0.135233 0.02435,0.201286 -0.0061,0.06605 -0.02573,0.130874 -0.05578,0.194211 -0.03005,0.06334 -0.07059,0.125017 -0.119094,0.184779 -0.09701,0.11952 -0.2255707,0.231172 -0.3637057,0.33119 -0.03603,0.02609 -0.07305,0.04392 -0.110015,0.06838 0.7575907,-0.194491 1.3873741,-0.687831 1.7456871,-1.347242 0.0014,-0.01109 0.0061,-0.02282 0.0073,-0.03387 0.01787,-0.16628 0.01579,-0.328221 -0.01018,-0.483614 -0.02598,-0.155397 -0.0758,-0.304233 -0.153194,-0.444361 C 10.674483,10.683754 10.5695,10.552386 10.43311,10.43183 10.296719,10.311264 10.128917,10.201577 9.9259286,10.104929 9.7229696,10.00828 9.4849116,9.924666 9.2078569,9.856266 8.9307479,9.7878659 8.6834707,9.7126564 8.4636152,9.6318334 8.2437692,9.5510149 8.0513207,9.4645589 7.8834217,9.3735344 7.7155132,9.2825094 7.5721687,9.1870044 7.4508863,9.0880044 7.3295898,8.9890088 7.2302839,8.8866439 7.1502694,8.7818989 7.0702548,8.6771586 7.0094837,8.5699076 6.9654258,8.4616439 6.9213728,8.3533802 6.8940619,8.2440852 6.8806402,8.1345288 6.867233,8.0249724 6.8678739,7.915178 6.8797727,7.8065596 c 0.00174,-0.014551 0.00685,-0.028579 0.00887,-0.043088 -0.570027,0.7342649 -0.8402923,1.3204541 -0.9990394,1.7849813 z"
     fill="url(#linearGradient1431)"
     id="path39"
     style="fill:url(#linearGradient1431);stroke-width:0.421547" />
  <path
     d="m 6.888645,7.7634343 c -0.00212,0.014509 -0.00728,0.028537 -0.00887,0.043088 -0.011865,0.108623 -0.01255,0.2184174 8.65e-4,0.3279691 0.013407,0.1095564 0.040737,0.2188515 0.084786,0.3271152 0.044053,0.1082637 0.104829,0.2155147 0.1848435,0.320255 0.080015,0.1047403 0.1793206,0.2071099 0.3006171,0.3061055 0.1213014,0.098995 0.2646459,0.1945003 0.4325354,0.2855298 0.1679085,0.091025 0.360357,0.177476 0.580193,0.258304 0.219846,0.080824 0.4671479,0.156037 0.7442419,0.2244331 0.2771087,0.0684 0.5151807,0.152009 0.7181207,0.248662 0.2029684,0.09665 0.3707614,0.206336 0.5071804,0.326901 0.136386,0.120566 0.241374,0.25193 0.318771,0.392067 0.0774,0.140138 0.12721,0.288993 0.153186,0.444358 0.02598,0.155379 0.02805,0.31732 0.01018,0.483615 -0.0012,0.01104 -0.0059,0.02278 -0.0073,0.03387 0.202791,-0.373167 0.328506,-0.791666 0.328506,-1.24266 h 0.0058 c 0,0 0.06412,-0.663798 -0.453355,-1.5365249 C 10.711052,8.9088996 10.574604,8.7226826 10.4739,8.5962327 10.230203,8.5461586 9.9955723,8.4947218 9.7912016,8.4395329 9.5482126,8.3739185 9.3318469,8.3051121 9.1397309,8.2337483 8.9476009,8.1623845 8.7796587,8.088468 8.6332727,8.0129555 8.4868537,7.937443 8.3619232,7.8601431 8.2560632,7.7820919 8.1501977,7.7040407 8.0633157,7.6252801 7.9928582,7.5462955 7.9223952,7.4673109 7.8683757,7.3881677 7.8281592,7.3098551 7.7879327,7.2315425 7.7615997,7.1539533 7.7464772,7.0779135 c -0.015125,-0.076035 -0.01898,-0.1505677 -0.01418,-0.2227202 0.00175,-0.024612 0.0093,-0.047134 0.012855,-0.071168 C 7.3999663,7.132407 7.1283807,7.4546361 6.8886696,7.7634343 Z"
     fill="url(#linearGradient1439)"
     id="path41"
     style="fill:url(#linearGradient1439);stroke-width:0.421547" />
  <path
     d="m 7.7450312,6.7839788 c -0.0034,0.024038 -0.011225,0.04655 -0.012855,0.071168 -0.0048,0.072152 -8.5e-4,0.146685 0.01418,0.2227202 0.015125,0.076035 0.041465,0.1536244 0.081682,0.231937 0.040225,0.078313 0.094236,0.1574558 0.1646985,0.2364404 0.070458,0.078984 0.15734,0.1577451 0.2632055,0.2357963 0.10586,0.078051 0.2307905,0.1553558 0.3772095,0.2308637 0.146415,0.075513 0.3143572,0.1494243 0.5064582,0.2207928 0.192116,0.071368 0.4084917,0.1401702 0.6514707,0.2057846 0.2043607,0.055184 0.4390014,0.1066256 0.6826984,0.1566998 C 9.8305986,8.0337458 9.1299719,7.6966672 8.9735859,6.1544029 8.9472829,5.9681907 9.0048589,5.820857 8.8697697,5.820857 8.7842127,5.8202037 8.7128202,5.8860234 8.7128202,5.8860234 8.3423427,6.1985969 8.0307472,6.4955463 7.7450122,6.7839975 Z"
     fill="url(#linearGradient1447)"
     id="path43"
     style="fill:url(#linearGradient1447);stroke-width:0.421547" />
</svg>
