<?xml version="1.0" encoding="UTF-8" standalone="no"?>
<!-- Created with Inkscape (http://www.inkscape.org/) -->

<svg
   width="64"
   height="64"
   viewBox="0 0 16.933333 16.933334"
   version="1.1"
   id="svg5"
   inkscape:version="1.1.1 (3bf5ae0d25, 2021-09-20, custom)"
   sodipodi:docname="text-x-typescript.svg"
   xmlns:inkscape="http://www.inkscape.org/namespaces/inkscape"
   xmlns:sodipodi="http://sodipodi.sourceforge.net/DTD/sodipodi-0.dtd"
   xmlns="http://www.w3.org/2000/svg"
   xmlns:svg="http://www.w3.org/2000/svg">
  <sodipodi:namedview
     id="namedview7"
     pagecolor="#ffffff"
     bordercolor="#666666"
     borderopacity="1.0"
     inkscape:pageshadow="2"
     inkscape:pageopacity="0.0"
     inkscape:pagecheckerboard="0"
     inkscape:document-units="px"
     showgrid="false"
     units="px"
     height="64px"
     inkscape:zoom="8.5405241"
     inkscape:cx="12.762683"
     inkscape:cy="33.311773"
     inkscape:window-width="1920"
     inkscape:window-height="996"
     inkscape:window-x="0"
     inkscape:window-y="0"
     inkscape:window-maximized="1"
     inkscape:current-layer="svg5"
     inkscape:lockguides="false" />
  <defs
     id="defs2" />
  <path
     id="rect846"
     style="fill:#7d7d7b;stroke-width:0.529167;stroke-linecap:round;stroke-linejoin:round"
     d="M 2.6458333,0.79374999 H 11.1125 L 14.2875,3.96875 V 16.139584 H 2.6458333 Z"
     sodipodi:nodetypes="cccccc" />
  <path
     id="rect1454"
     style="fill:#fafafa;stroke-width:2;stroke-linecap:round;stroke-linejoin:round"
     d="M 11 4 L 11 60 L 53 60 L 53 16.5 L 41.5 16.5 C 40.945997 16.5 40.5 16.054 40.5 15.5 L 40.5 4 L 11 4 z M 41.5 4 L 41.5 15.5 L 53 15.5 L 41.5 4 z "
     transform="scale(0.26458334)" />
  <path
     id="path24912"
     style="font-size:8.54305px;line-height:1.25;font-family:'Noto Sans CJK KR';-inkscape-font-specification:'Noto Sans CJK KR';text-align:center;text-anchor:middle;stroke-width:0.80722;fill:#3b79e8;fill-opacity:1"
     d="M 41.574219 24 C 37.279822 24 34.115234 26.615049 34.115234 30.263672 C 34.115234 33.718562 36.730149 35.397612 38.925781 36.333984 L 42.316406 37.820312 C 44.576617 38.821264 46.287109 39.594887 46.287109 42.048828 C 46.287109 44.341323 44.446453 45.892578 41.314453 45.892578 C 38.860512 45.892578 36.47198 44.729004 34.792969 42.953125 L 33.017578 45.019531 C 35.051766 47.150588 37.92518 48.507813 41.283203 48.507812 C 46.223374 48.507812 49.322266 45.536505 49.322266 41.791016 C 49.322266 38.27155 47.191807 36.657572 44.447266 35.462891 L 41.089844 34.009766 C 39.249388 33.234837 37.150391 32.361895 37.150391 30.037109 C 37.150391 27.938345 38.894258 26.615234 41.574219 26.615234 C 43.769848 26.615234 45.511854 27.454422 46.964844 28.810547 L 48.515625 26.90625 C 46.8689 25.194949 44.383334 24 41.574219 24 z M 14.548828 24.419922 L 14.548828 26.9375 L 21.716797 26.9375 L 21.716797 48.087891 L 24.71875 48.087891 L 24.71875 26.9375 L 31.886719 26.9375 L 31.886719 24.419922 L 14.548828 24.419922 z "
     transform="scale(0.26458334)" />
</svg>
