<?xml version="1.0" encoding="UTF-8" standalone="no"?>
<!-- Created with Inkscape (http://www.inkscape.org/) -->

<svg
   width="64"
   height="64"
   viewBox="0 0 16.933333 16.933334"
   version="1.1"
   id="svg5"
   inkscape:version="1.1.1 (3bf5ae0d25, 2021-09-20, custom)"
   sodipodi:docname="video-x-generic.svg"
   xmlns:inkscape="http://www.inkscape.org/namespaces/inkscape"
   xmlns:sodipodi="http://sodipodi.sourceforge.net/DTD/sodipodi-0.dtd"
   xmlns:xlink="http://www.w3.org/1999/xlink"
   xmlns="http://www.w3.org/2000/svg"
   xmlns:svg="http://www.w3.org/2000/svg">
  <sodipodi:namedview
     id="namedview7"
     pagecolor="#ffffff"
     bordercolor="#666666"
     borderopacity="1.0"
     inkscape:pageshadow="2"
     inkscape:pageopacity="0.0"
     inkscape:pagecheckerboard="0"
     inkscape:document-units="px"
     showgrid="false"
     units="px"
     height="64px"
     inkscape:zoom="8.5405241"
     inkscape:cx="22.363967"
     inkscape:cy="31.672529"
     inkscape:window-width="1920"
     inkscape:window-height="996"
     inkscape:window-x="0"
     inkscape:window-y="0"
     inkscape:window-maximized="1"
     inkscape:current-layer="svg5" />
  <defs
     id="defs2">
    <linearGradient
       inkscape:collect="always"
       xlink:href="#linearGradient12418"
       id="linearGradient2216"
       x1="42"
       y1="4.9999995"
       x2="56"
       y2="31"
       gradientUnits="userSpaceOnUse"
       gradientTransform="matrix(0.52916668,0,0,0.52916668,-17.462501,-1.0583337)" />
    <linearGradient
       inkscape:collect="always"
       id="linearGradient12418">
      <stop
         style="stop-color:#52e4ff;stop-opacity:1;"
         offset="0"
         id="stop12414" />
      <stop
         style="stop-color:#d29eff;stop-opacity:1"
         offset="1"
         id="stop12416" />
    </linearGradient>
    <linearGradient
       inkscape:collect="always"
       xlink:href="#linearGradient27684"
       id="linearGradient27686"
       x1="86.812088"
       y1="124.12689"
       x2="114.91612"
       y2="144.43559"
       gradientUnits="userSpaceOnUse"
       gradientTransform="matrix(0.45058246,0,0,0.78037308,-36.470172,-96.336117)" />
    <linearGradient
       inkscape:collect="always"
       id="linearGradient27684">
      <stop
         style="stop-color:#4a4a4a;stop-opacity:1;"
         offset="0"
         id="stop27680" />
      <stop
         style="stop-color:#232323;stop-opacity:0.74901962"
         offset="1"
         id="stop27682" />
    </linearGradient>
  </defs>
  <path
     id="rect862"
     style="fill:url(#linearGradient27686);stroke-width:0.437276;stroke-linecap:round;stroke-linejoin:round"
     d="m 2.116666,0.52916667 h 12.699999 c 0.29316,0 0.529168,0.2360084 0.529168,0.52916683 V 15.875 c 0,0.293158 -0.236008,0.529166 -0.529168,0.529166 H 2.116666 C 1.823508,16.404166 1.5875,16.168158 1.5875,15.875 V 1.0583335 c 0,-0.29315843 0.236008,-0.52916683 0.529166,-0.52916683 z"
     sodipodi:nodetypes="sssssssss" />
  <path
     id="rect1388"
     style="fill:#ffffff;stroke-width:1.5875;stroke-linecap:round;stroke-linejoin:round"
     d="m 2.8969808,1.3230179 c -0.140184,0.00706 -0.2511474,0.122584 -0.2511474,0.2645832 v 1.0583334 c 0,0.14658 0.118004,0.2645835 0.2645834,0.2645835 h 0.5291666 c 0.14658,0 0.2645834,-0.1180041 0.2645834,-0.2645835 V 1.5876011 c 0,-0.14658 -0.118004,-0.2645832 -0.2645834,-0.2645832 H 2.9104168 c -0.0046,0 -0.00892,-2.278e-4 -0.01344,0 z m 10.5833342,0 c -0.14018,0.00706 -0.251148,0.122584 -0.251148,0.2645832 v 1.0583334 c 0,0.14658 0.118,0.2645835 0.264584,0.2645835 h 0.529166 c 0.14658,0 0.264584,-0.1180041 0.264584,-0.2645835 V 1.5876011 c 0,-0.14658 -0.118,-0.2645832 -0.264584,-0.2645832 h -0.529166 c -0.0046,0 -0.009,-2.278e-4 -0.0134,0 z M 2.8969808,4.498018 C 2.7567968,4.505078 2.6458334,4.620602 2.6458334,4.7626014 v 1.058333 c 0,0.14658 0.118004,0.264584 0.2645834,0.264584 h 0.5291666 c 0.14658,0 0.2645834,-0.118004 0.2645834,-0.264584 v -1.058333 c 0,-0.14658 -0.118004,-0.2645834 -0.2645834,-0.2645834 H 2.9104168 c -0.0046,0 -0.00892,-2.278e-4 -0.01344,0 z m 10.5833342,0 c -0.14018,0.00706 -0.251148,0.122584 -0.251148,0.2645834 v 1.058333 c 0,0.14658 0.118,0.264584 0.264584,0.264584 h 0.529166 c 0.14658,0 0.264584,-0.118004 0.264584,-0.264584 v -1.058333 c 0,-0.14658 -0.118,-0.2645834 -0.264584,-0.2645834 h -0.529166 c -0.0046,0 -0.009,-2.278e-4 -0.0134,0 z M 2.8969808,7.6730184 c -0.140184,0.0071 -0.2511474,0.122584 -0.2511474,0.264583 v 1.058333 c 0,0.14658 0.118004,0.264584 0.2645834,0.264584 h 0.5291666 c 0.14658,0 0.2645834,-0.118 0.2645834,-0.264584 v -1.058333 c 0,-0.14658 -0.118004,-0.264583 -0.2645834,-0.264583 H 2.9104168 c -0.0046,0 -0.00892,-2.28e-4 -0.01344,0 z m 10.5833342,0 c -0.14018,0.0071 -0.251148,0.122584 -0.251148,0.264583 v 1.058333 c 0,0.14658 0.118,0.264584 0.264584,0.264584 h 0.529166 c 0.14658,0 0.264584,-0.118 0.264584,-0.264584 v -1.058333 c 0,-0.14658 -0.118,-0.264583 -0.264584,-0.264583 h -0.529166 c -0.0046,0 -0.009,-2.28e-4 -0.0134,0 z M 2.8969808,10.848019 c -0.140184,0.007 -0.2511474,0.12258 -0.2511474,0.264582 v 1.058334 c 0,0.14658 0.118004,0.264584 0.2645834,0.264584 h 0.5291666 c 0.14658,0 0.2645834,-0.118 0.2645834,-0.264584 v -1.058334 c 0,-0.14658 -0.118004,-0.264582 -0.2645834,-0.264582 H 2.9104168 c -0.0046,0 -0.00892,-2.28e-4 -0.01344,0 z m 10.5833342,0 c -0.14018,0.007 -0.251148,0.12258 -0.251148,0.264582 v 1.058334 c 0,0.14658 0.118,0.264584 0.264584,0.264584 h 0.529166 c 0.14658,0 0.264584,-0.118 0.264584,-0.264584 v -1.058334 c 0,-0.14658 -0.118,-0.264582 -0.264584,-0.264582 h -0.529166 c -0.0046,0 -0.009,-2.28e-4 -0.0134,0 z M 2.8969808,14.023017 c -0.140184,0.007 -0.2511474,0.12258 -0.2511474,0.264584 v 1.058334 c 0,0.14658 0.118004,0.264582 0.2645834,0.264582 h 0.5291666 c 0.14658,0 0.2645834,-0.118 0.2645834,-0.264582 v -1.058334 c 0,-0.14658 -0.118004,-0.264584 -0.2645834,-0.264584 H 2.9104168 c -0.0046,0 -0.00892,-2.26e-4 -0.01344,0 z m 10.5833342,0 c -0.14018,0.007 -0.251148,0.12258 -0.251148,0.264584 v 1.058334 c 0,0.14658 0.118,0.264582 0.264584,0.264582 h 0.529166 c 0.14658,0 0.264584,-0.118 0.264584,-0.264582 v -1.058334 c 0,-0.14658 -0.118,-0.264584 -0.264584,-0.264584 h -0.529166 c -0.0046,0 -0.009,-2.26e-4 -0.0134,0 z"
     sodipodi:nodetypes="sssssssssssssssssssssssssssssssssssssssscssssssssccssssssssccssssssssccssssssssccsssssssscssssssssss" />
  <path
     id="rect2063"
     style="fill:url(#linearGradient2216);fill-opacity:1;stroke-width:1.5875;stroke-linecap:round;stroke-linejoin:round"
     d="M 5.8208334,1.5875 C 5.2345172,1.5875 4.7625,2.0595168 4.7625,2.6458335 v 4.2333334 c 0,0.586317 0.4720172,1.058333 1.0583334,1.058333 H 11.1125 c 0.586317,0 1.058333,-0.472016 1.058333,-1.058333 V 2.6458335 C 12.170833,2.0595168 11.698817,1.5875 11.1125,1.5875 Z m 0,7.4083339 C 5.2345172,8.9958339 4.7625,9.4678499 4.7625,10.054166 V 14.2875 c 0,0.586316 0.4720172,1.058332 1.0583334,1.058332 H 11.1125 c 0.586317,0 1.058333,-0.472016 1.058333,-1.058332 v -4.233334 c 0,-0.5863161 -0.472016,-1.0583321 -1.058333,-1.0583321 z" />
</svg>
