<?xml version="1.0" encoding="UTF-8" standalone="no"?>
<!-- Created with Inkscape (http://www.inkscape.org/) -->

<svg
   width="64"
   height="64"
   viewBox="0 0 16.933333 16.933334"
   version="1.1"
   id="svg5"
   inkscape:version="1.1.1 (3bf5ae0d25, 2021-09-20, custom)"
   sodipodi:docname="x-office-document.svg"
   xmlns:inkscape="http://www.inkscape.org/namespaces/inkscape"
   xmlns:sodipodi="http://sodipodi.sourceforge.net/DTD/sodipodi-0.dtd"
   xmlns="http://www.w3.org/2000/svg"
   xmlns:svg="http://www.w3.org/2000/svg">
  <sodipodi:namedview
     id="namedview7"
     pagecolor="#ffffff"
     bordercolor="#666666"
     borderopacity="1.0"
     inkscape:pageshadow="2"
     inkscape:pageopacity="0.0"
     inkscape:pagecheckerboard="0"
     inkscape:document-units="px"
     showgrid="false"
     units="px"
     height="64px"
     inkscape:zoom="16"
     inkscape:cx="24.875"
     inkscape:cy="37.71875"
     inkscape:window-width="1920"
     inkscape:window-height="996"
     inkscape:window-x="0"
     inkscape:window-y="0"
     inkscape:window-maximized="1"
     inkscape:current-layer="svg5" />
  <defs
     id="defs2" />
  <path
     id="rect846"
     style="fill:#7d7d7b;stroke-width:0.529167;stroke-linecap:round;stroke-linejoin:round"
     d="M 2.6458333,0.79374999 H 11.1125 L 14.2875,3.96875 V 16.139584 H 2.6458333 Z"
     sodipodi:nodetypes="cccccc" />
  <path
     id="rect1454"
     style="fill:#fafafa;stroke-width:2;stroke-linecap:round;stroke-linejoin:round"
     d="M 11 4 L 11 60 L 53 60 L 53 16.5 L 41.5 16.5 C 40.945997 16.5 40.5 16.054 40.5 15.5 L 40.5 4 L 11 4 z M 41.5 4 L 41.5 15.5 L 53 15.5 L 41.5 4 z "
     transform="scale(0.26458334)" />
  <path
     id="rect4164"
     style="opacity:1;fill:#69b0ec;fill-opacity:1;stroke-width:3;stroke-linecap:round;stroke-linejoin:round"
     d="M 33 24 C 32.446 24 32 24.446 32 25 C 32 25.554 32.446 26 33 26 L 47 26 C 47.554 26 48 25.554 48 25 C 48 24.446 47.554 24 47 24 L 33 24 z M 33 30 C 32.446 30 32 30.446 32 31 C 32 31.554 32.446 32 33 32 L 47 32 C 47.554 32 48 31.554 48 31 C 48 30.446 47.554 30 47 30 L 33 30 z "
     transform="scale(0.26458334)" />
  <path
     id="path7787"
     style="font-weight:500;font-size:5.02601px;line-height:1.25;font-family:'Noto Sans CJK KR';-inkscape-font-specification:'Noto Sans CJK KR Medium';stroke-width:0.474898;fill:#2784bd;fill-opacity:1"
     d="M 20.634766 18 L 16 32 L 18.259766 32 L 19.4375 28.029297 L 24.300781 28.029297 L 25.478516 32 L 27.816406 32 L 23.179688 18 L 20.634766 18 z M 21.832031 19.748047 L 21.908203 19.748047 C 22.34511 21.32471 22.762848 22.882668 23.21875 24.402344 L 23.769531 26.28125 L 19.970703 26.28125 L 20.521484 24.402344 C 20.977387 22.882668 21.414121 21.343706 21.832031 19.748047 z M 17 36 C 16.445999 36 16 36.445999 16 37 C 16 37.554001 16.445999 38 17 38 L 47 38 C 47.554001 38 48 37.554001 48 37 C 48 36.445999 47.554001 36 47 36 L 17 36 z "
     transform="scale(0.26458334)" />
  <path
     id="rect8443"
     style="opacity:1;fill:#c0c5cb;fill-opacity:1;stroke-width:3;stroke-linecap:round;stroke-linejoin:round"
     d="M 17 41 C 16.446 41 16 41.446 16 42 C 16 42.554 16.446 43 17 43 L 29 43 C 29.554 43 30 42.554 30 42 C 30 41.446 29.554 41 29 41 L 17 41 z M 35 41 C 33.892 41 33 41.892 33 43 L 33 51 C 33 52.108 33.892 53 35 53 L 46 53 C 47.108 53 48 52.108 48 51 L 48 43 C 48 41.892 47.108 41 46 41 L 35 41 z M 17 46 C 16.446 46 16 46.446 16 47 C 16 47.554 16.446 48 17 48 L 29 48 C 29.554 48 30 47.554 30 47 C 30 46.446 29.554 46 29 46 L 17 46 z M 17 51 C 16.446001 51 16 51.446001 16 52 C 16 52.553999 16.446001 53 17 53 L 29 53 C 29.553999 53 30 52.553999 30 52 C 30 51.446001 29.553999 51 29 51 L 17 51 z "
     transform="scale(0.26458334)" />
  <rect
     style="opacity:1;fill:#88c0f0;fill-opacity:1;stroke-width:0.79375;stroke-linecap:round;stroke-linejoin:round"
     id="rect9115"
     width="3.4395833"
     height="2.6458333"
     x="8.9958334"
     y="11.1125"
     ry="0.26458335" />
</svg>
