<?xml version="1.0" encoding="UTF-8" standalone="no"?>
<!-- Created with Inkscape (http://www.inkscape.org/) -->

<svg
   width="64"
   height="64"
   viewBox="0 0 16.933333 16.933334"
   version="1.1"
   id="svg5"
   inkscape:version="1.1.1 (3bf5ae0d25, 2021-09-20, custom)"
   sodipodi:docname="folder-scripts.svg"
   xmlns:inkscape="http://www.inkscape.org/namespaces/inkscape"
   xmlns:sodipodi="http://sodipodi.sourceforge.net/DTD/sodipodi-0.dtd"
   xmlns:xlink="http://www.w3.org/1999/xlink"
   xmlns="http://www.w3.org/2000/svg"
   xmlns:svg="http://www.w3.org/2000/svg">
  <sodipodi:namedview
     id="namedview7"
     pagecolor="#ffffff"
     bordercolor="#666666"
     borderopacity="1.0"
     inkscape:pageshadow="2"
     inkscape:pageopacity="0.0"
     inkscape:pagecheckerboard="0"
     inkscape:document-units="px"
     showgrid="false"
     units="px"
     height="64px"
     inkscape:zoom="12.328125"
     inkscape:cx="31.959442"
     inkscape:cy="32"
     inkscape:window-width="1920"
     inkscape:window-height="1019"
     inkscape:window-x="0"
     inkscape:window-y="0"
     inkscape:window-maximized="1"
     inkscape:current-layer="svg5" />
  <defs
     id="defs2">
    <linearGradient
       inkscape:collect="always"
       id="linearGradient1799">
      <stop
         style="stop-color:#445865;stop-opacity:1;"
         offset="0"
         id="stop1795" />
      <stop
         style="stop-color:#303f4c;stop-opacity:1"
         offset="1"
         id="stop1797" />
    </linearGradient>
    <linearGradient
       inkscape:collect="always"
       id="linearGradient4405">
      <stop
         style="stop-color:#637e8d;stop-opacity:1"
         offset="0"
         id="stop4401" />
      <stop
         style="stop-color:#516775;stop-opacity:1"
         offset="1"
         id="stop4403" />
    </linearGradient>
    <linearGradient
       inkscape:collect="always"
       id="linearGradient12673">
      <stop
         style="stop-color:#ffffff;stop-opacity:1;"
         offset="0"
         id="stop12669" />
      <stop
         style="stop-color:#ffffff;stop-opacity:0;"
         offset="1"
         id="stop12671" />
    </linearGradient>
    <linearGradient
       inkscape:collect="always"
       id="linearGradient11972">
      <stop
         style="stop-color:#b3c4d5;stop-opacity:1"
         offset="0"
         id="stop11968" />
      <stop
         style="stop-color:#6986a3;stop-opacity:1"
         offset="1"
         id="stop11970" />
    </linearGradient>
    <linearGradient
       inkscape:collect="always"
       xlink:href="#linearGradient11972"
       id="linearGradient11974"
       x1="5.2916665"
       y1="5.5562496"
       x2="13.758334"
       y2="13.493751"
       gradientUnits="userSpaceOnUse"
       gradientTransform="scale(3.7795275)" />
    <linearGradient
       inkscape:collect="always"
       xlink:href="#linearGradient4405"
       id="linearGradient4407"
       x1="32"
       y1="10.5"
       x2="32"
       y2="18.5"
       gradientUnits="userSpaceOnUse" />
    <linearGradient
       inkscape:collect="always"
       xlink:href="#linearGradient12673"
       id="linearGradient5594"
       x1="2"
       y1="22"
       x2="62"
       y2="22"
       gradientUnits="userSpaceOnUse"
       gradientTransform="matrix(0.26458334,0,0,0.26458334,0,-0.26458346)" />
    <linearGradient
       inkscape:collect="always"
       xlink:href="#linearGradient1799"
       id="linearGradient1801"
       x1="2"
       y1="54.5"
       x2="62"
       y2="54.5"
       gradientUnits="userSpaceOnUse" />
  </defs>
  <path
     id="rect846"
     style="fill:url(#linearGradient4407);fill-opacity:1;stroke-width:2;stroke-linecap:round;stroke-linejoin:round;stroke-dasharray:24, 2"
     d="M 5,9 C 3.338,9 2,10.338 2,12 2.094521,12.977241 2,40 2,40 H 62 V 17 c 0,-1.108 -0.892,-2 -2,-2 H 29 L 25,11 C 23.634743,9.6637685 22.662,9 21,9 Z"
     transform="scale(0.26458334)"
     sodipodi:nodetypes="scccccccss" />
  <path
     id="rect1170"
     style="fill:url(#linearGradient11974);fill-opacity:1;stroke-width:2.64576;stroke-linecap:round;stroke-linejoin:round;stroke-dasharray:31.749, 2.64576"
     d="m 29,16 -6,4 H 6 c -2.2160001,0 -4,1.784 -4,4 v 30 c 0,1.108 0.8919999,2 2,2 h 56 c 1.108,0 2,-0.892 2,-2 V 18 c 0,-1.108 -0.891997,-2 -2,-2 z"
     sodipodi:nodetypes="ccsccccccsc"
     transform="scale(0.26458334)" />
  <path
     id="rect1170-2"
     style="fill:url(#linearGradient1801);fill-opacity:1;stroke-width:2.64576;stroke-linecap:round;stroke-linejoin:round;stroke-dasharray:31.749, 2.64576"
     d="M 2 53 L 2 54 C 2 55.107999 2.8919999 56 4 56 L 60 56 C 61.107999 56 62 55.107999 62 54 L 62 53 C 62 54.107999 61.107999 55 60 55 L 4 55 C 2.892 55 2 54.107999 2 53 z "
     transform="scale(0.26458334)" />
  <path
     id="rect1170-75"
     style="opacity:0.3;fill:url(#linearGradient5594);fill-opacity:1;stroke-width:0.700024;stroke-linecap:round;stroke-linejoin:round;stroke-dasharray:8.40026, 0.700024"
     d="M 7.6729169,4.2333333 6.0854168,5.2916667 H 1.5875 c -0.5863167,0 -1.05833332,0.4720167 -1.05833332,1.0583334 v 0.2645833 c 0,-0.5863167 0.47201662,-1.0583333 1.05833332,-1.0583333 H 6.0854168 L 7.6729169,4.4979167 H 15.875 c 0.29316,0 0.529167,0.2360083 0.529167,0.5291666 V 4.7625 c 0,-0.2931583 -0.236007,-0.5291667 -0.529167,-0.5291667 z"
     sodipodi:nodetypes="ccsscsccscssc" />
  <path
     id="rect986"
     style="fill:#ffffff;stroke-width:2;stroke-linecap:round;stroke-linejoin:round"
     d="M 18.501953 26 C 18.118524 26 17.735209 26.147603 17.441406 26.441406 C 16.8538 27.029012 16.8538 27.974894 17.441406 28.5625 L 25.572266 36.693359 L 17.441406 44.826172 C 16.8538 45.413779 16.8538 46.359659 17.441406 46.947266 C 18.029012 47.534873 18.974894 47.534873 19.5625 46.947266 L 28.753906 37.753906 C 29.341512 37.166299 29.341512 36.220418 28.753906 35.632812 L 19.5625 26.441406 C 19.268697 26.147603 18.885382 26 18.501953 26 z M 30.5 44 C 29.669 44 29 44.669 29 45.5 C 29 46.331 29.669 47 30.5 47 L 45.5 47 C 46.331 47 47 46.331 47 45.5 C 47 44.669 46.331 44 45.5 44 L 30.5 44 z "
     transform="scale(0.26458334)" />
</svg>
