<?xml version="1.0" encoding="UTF-8" standalone="no"?>
<!-- Created with Inkscape (http://www.inkscape.org/) -->

<svg
   width="64"
   height="64"
   viewBox="0 0 16.933333 16.933334"
   version="1.1"
   id="svg5"
   inkscape:version="1.1.1 (3bf5ae0d25, 2021-09-20, custom)"
   sodipodi:docname="folder-network.svg"
   xmlns:inkscape="http://www.inkscape.org/namespaces/inkscape"
   xmlns:sodipodi="http://sodipodi.sourceforge.net/DTD/sodipodi-0.dtd"
   xmlns:xlink="http://www.w3.org/1999/xlink"
   xmlns="http://www.w3.org/2000/svg"
   xmlns:svg="http://www.w3.org/2000/svg">
  <sodipodi:namedview
     id="namedview7"
     pagecolor="#ffffff"
     bordercolor="#666666"
     borderopacity="1.0"
     inkscape:pageshadow="2"
     inkscape:pageopacity="0.0"
     inkscape:pagecheckerboard="0"
     inkscape:document-units="px"
     showgrid="false"
     units="px"
     height="64px"
     inkscape:zoom="1"
     inkscape:cx="32"
     inkscape:cy="35.5"
     inkscape:window-width="1920"
     inkscape:window-height="996"
     inkscape:window-x="0"
     inkscape:window-y="0"
     inkscape:window-maximized="1"
     inkscape:current-layer="svg5" />
  <defs
     id="defs2">
    <linearGradient
       inkscape:collect="always"
       id="linearGradient6090">
      <stop
         style="stop-color:#e4a729;stop-opacity:1"
         offset="0"
         id="stop6086" />
      <stop
         style="stop-color:#e2b24b;stop-opacity:0"
         offset="1"
         id="stop6088" />
    </linearGradient>
    <linearGradient
       inkscape:collect="always"
       id="linearGradient4405">
      <stop
         style="stop-color:#fcbc19;stop-opacity:1;"
         offset="0"
         id="stop4401" />
      <stop
         style="stop-color:#f4b61f;stop-opacity:1"
         offset="1"
         id="stop4403" />
    </linearGradient>
    <linearGradient
       inkscape:collect="always"
       id="linearGradient12673">
      <stop
         style="stop-color:#ffffff;stop-opacity:1;"
         offset="0"
         id="stop12669" />
      <stop
         style="stop-color:#ffffff;stop-opacity:0;"
         offset="1"
         id="stop12671" />
    </linearGradient>
    <linearGradient
       inkscape:collect="always"
       id="linearGradient11972">
      <stop
         style="stop-color:#fce798;stop-opacity:1"
         offset="0"
         id="stop11968" />
      <stop
         style="stop-color:#ffc937;stop-opacity:1"
         offset="1"
         id="stop11970" />
    </linearGradient>
    <linearGradient
       inkscape:collect="always"
       xlink:href="#linearGradient11972"
       id="linearGradient11974"
       x1="5.2916665"
       y1="5.5562496"
       x2="13.758334"
       y2="13.493751"
       gradientUnits="userSpaceOnUse" />
    <linearGradient
       inkscape:collect="always"
       xlink:href="#linearGradient4405"
       id="linearGradient4407"
       x1="32"
       y1="10.5"
       x2="32"
       y2="18.5"
       gradientUnits="userSpaceOnUse"
       gradientTransform="scale(0.26458334)" />
    <linearGradient
       inkscape:collect="always"
       xlink:href="#linearGradient12673"
       id="linearGradient5594"
       x1="2"
       y1="22"
       x2="62"
       y2="22"
       gradientUnits="userSpaceOnUse"
       gradientTransform="matrix(0.26458334,0,0,0.26458334,0,-0.26458346)" />
    <linearGradient
       inkscape:collect="always"
       xlink:href="#linearGradient6090"
       id="linearGradient5817"
       gradientUnits="userSpaceOnUse"
       x1="2"
       y1="22"
       x2="62"
       y2="22"
       gradientTransform="matrix(0.26458334,0,0,0.26458334,0,-0.52916667)" />
    <linearGradient
       inkscape:collect="always"
       xlink:href="#linearGradient163636"
       id="linearGradient163638"
       x1="74.466713"
       y1="105.9203"
       x2="74.466713"
       y2="114.48812"
       gradientUnits="userSpaceOnUse"
       gradientTransform="matrix(1.2823719,0,0,0.24704847,-83.323164,-12.409116)" />
    <linearGradient
       inkscape:collect="always"
       id="linearGradient163636">
      <stop
         style="stop-color:#ebebeb;stop-opacity:1;"
         offset="0"
         id="stop163632" />
      <stop
         style="stop-color:#fdfdfd;stop-opacity:0.89803922"
         offset="0.36436081"
         id="stop175885" />
      <stop
         style="stop-color:#9c9c9c;stop-opacity:1"
         offset="1"
         id="stop163634" />
    </linearGradient>
    <linearGradient
       inkscape:collect="always"
       xlink:href="#linearGradient149033"
       id="linearGradient149035"
       x1="33.53513"
       y1="69.619606"
       x2="33.53513"
       y2="80.484001"
       gradientUnits="userSpaceOnUse"
       gradientTransform="matrix(0.52655992,0,0,0.29223898,-9.1915933,-7.1163958)" />
    <linearGradient
       inkscape:collect="always"
       id="linearGradient149033">
      <stop
         style="stop-color:#66eb6e;stop-opacity:1;"
         offset="0"
         id="stop149029" />
      <stop
         style="stop-color:#66f575;stop-opacity:1"
         offset="0.27098432"
         id="stop156515" />
      <stop
         style="stop-color:#0b8643;stop-opacity:0.99607843"
         offset="1"
         id="stop149031" />
    </linearGradient>
  </defs>
  <path
     id="rect846"
     style="fill:url(#linearGradient4407);fill-opacity:1;stroke-width:0.529167;stroke-linecap:round;stroke-linejoin:round;stroke-dasharray:6.35, 0.529167"
     d="m 1.3229167,2.3812501 c -0.43973751,0 -0.79375002,0.3540125 -0.79375002,0.79375 0.0250087,0.2585617 0,7.4083339 0,7.4083339 H 16.404167 V 4.4979168 c 0,-0.2931583 -0.236008,-0.5291667 -0.529167,-0.5291667 H 7.6729169 L 6.6145835,2.9104168 C 6.2533592,2.5568722 5.9959877,2.3812501 5.5562501,2.3812501 Z"
     sodipodi:nodetypes="scccccccss" />
  <path
     id="rect1170"
     style="fill:url(#linearGradient11974);fill-opacity:1;stroke-width:0.700024;stroke-linecap:round;stroke-linejoin:round;stroke-dasharray:8.40026, 0.700024"
     d="M 7.6729169,4.2333335 6.0854168,5.2916668 H 1.5875 c -0.5863167,0 -1.05833332,0.4720167 -1.05833332,1.0583334 v 7.9375008 c 0,0.293158 0.23600831,0.529166 0.52916672,0.529166 H 15.875 c 0.293159,0 0.529167,-0.236008 0.529167,-0.529166 V 4.7625001 c 0,-0.2931583 -0.236007,-0.5291666 -0.529167,-0.5291666 z"
     sodipodi:nodetypes="ccsccccccsc" />
  <path
     id="rect1170-2"
     style="fill:#e4a729;fill-opacity:1;stroke-width:0.700024;stroke-linecap:round;stroke-linejoin:round;stroke-dasharray:8.40026, 0.700024"
     d="m 0.52916668,14.022917 v 0.264584 c 0,0.293158 0.23600831,0.529166 0.52916672,0.529166 H 15.875 c 0.293158,0 0.529167,-0.236008 0.529167,-0.529166 v -0.264584 c 0,0.293158 -0.236009,0.529167 -0.529167,0.529167 H 1.0583334 c -0.29315838,0 -0.52916672,-0.236009 -0.52916672,-0.529167 z" />
  <path
     id="rect1170-75"
     style="opacity:0.3;fill:url(#linearGradient5594);fill-opacity:1;stroke-width:0.700024;stroke-linecap:round;stroke-linejoin:round;stroke-dasharray:8.40026, 0.700024"
     d="M 7.6729169,4.2333333 6.0854168,5.2916667 H 1.5875 c -0.5863167,0 -1.05833332,0.4720167 -1.05833332,1.0583334 v 0.2645833 c 0,-0.5863167 0.47201662,-1.0583333 1.05833332,-1.0583333 H 6.0854168 L 7.6729169,4.4979167 H 15.875 c 0.29316,0 0.529167,0.2360083 0.529167,0.5291666 V 4.7625 c 0,-0.2931583 -0.236007,-0.5291667 -0.529167,-0.5291667 z"
     sodipodi:nodetypes="ccsscsccscssc" />
  <path
     id="rect1170-75-2"
     style="opacity:1;fill:url(#linearGradient5817);fill-opacity:1;stroke-width:0.700024;stroke-linecap:round;stroke-linejoin:round;stroke-dasharray:8.40026, 0.700024"
     d="M 7.6729169,3.96875 6.0854168,5.0270834 H 1.5875 c -0.5863167,0 -1.05833328,0.4720167 -1.05833328,1.0583334 v 0.2645833 c 0,-0.5863167 0.47201658,-1.0583334 1.05833328,-1.0583334 H 6.0854168 L 7.6729169,4.2333333 h 8.2020841 c 0.293159,0 0.529166,0.2360084 0.529166,0.5291667 V 4.4979167 c 0,-0.2931584 -0.236007,-0.5291667 -0.529166,-0.5291667 z"
     sodipodi:nodetypes="ccsscsccscssc" />
  <rect
     style="fill:url(#linearGradient163638);fill-opacity:1;stroke-width:0.297846;stroke-linecap:round;stroke-linejoin:round"
     id="rect160861"
     width="15.875"
     height="2.1166668"
     x="0.5291667"
     y="13.758333"
     ry="0.5291667" />
  <path
     id="rect160861-5"
     style="opacity:0.2;fill:#000000;fill-opacity:0.996078;stroke-width:0.297847;stroke-linecap:round;stroke-linejoin:round"
     d="m 15.742711,13.758333 c 0.293158,0 0.529166,0.236009 0.529166,0.529167 v 1.058333 c 0,0.293159 -0.236008,0.529167 -0.529166,0.529167 h 0.132291 c 0.293159,0 0.529167,-0.236008 0.529167,-0.529167 V 14.2875 c 0,-0.293158 -0.236008,-0.529167 -0.529167,-0.529167 z" />
  <rect
     style="fill:url(#linearGradient149035);fill-opacity:1;stroke-width:0.20758;stroke-linecap:round;stroke-linejoin:round"
     id="rect144869"
     width="11.641666"
     height="3.175"
     x="2.6458333"
     y="13.229167"
     ry="0.5291667" />
  <path
     id="rect1858"
     style="opacity:0.3;fill:#000000;fill-opacity:0.996078;stroke-width:0.79375;stroke-linecap:round;stroke-linejoin:round"
     d="m 3.7041669,13.229167 v 3.175 h 0.1322917 v -3.175 z m 9.3927081,0 v 3.175 h 0.132292 v -3.175 z"
     sodipodi:nodetypes="cccccccccc" />
  <path
     id="rect2034"
     style="opacity:0.3;fill:#ffffff;fill-opacity:0.996078;stroke-width:0.79375;stroke-linecap:round;stroke-linejoin:round"
     d="m 3.8364586,13.229167 v 3.175 h 0.1322916 v -3.175 z m 9.1281244,0 v 3.175 h 0.132292 v -3.175 z"
     sodipodi:nodetypes="cccccccccc" />
</svg>
