<?xml version="1.0" encoding="UTF-8" standalone="no"?>
<!-- Created with Inkscape (http://www.inkscape.org/) -->

<svg
   width="64"
   height="64"
   viewBox="0 0 16.933333 16.933334"
   version="1.1"
   id="svg5"
   inkscape:version="1.1.1 (3bf5ae0d25, 2021-09-20, custom)"
   sodipodi:docname="folder-recent.svg"
   xmlns:inkscape="http://www.inkscape.org/namespaces/inkscape"
   xmlns:sodipodi="http://sodipodi.sourceforge.net/DTD/sodipodi-0.dtd"
   xmlns:xlink="http://www.w3.org/1999/xlink"
   xmlns="http://www.w3.org/2000/svg"
   xmlns:svg="http://www.w3.org/2000/svg">
  <sodipodi:namedview
     id="namedview7"
     pagecolor="#ffffff"
     bordercolor="#666666"
     borderopacity="1.0"
     inkscape:pageshadow="2"
     inkscape:pageopacity="0.0"
     inkscape:pagecheckerboard="0"
     inkscape:document-units="px"
     showgrid="false"
     units="px"
     height="64px"
     inkscape:zoom="4.3752232"
     inkscape:cx="10.628029"
     inkscape:cy="20.570379"
     inkscape:window-width="1920"
     inkscape:window-height="1006"
     inkscape:window-x="0"
     inkscape:window-y="0"
     inkscape:window-maximized="1"
     inkscape:current-layer="svg5" />
  <defs
     id="defs2">
    <linearGradient
       inkscape:collect="always"
       id="linearGradient6090">
      <stop
         style="stop-color:#e4a729;stop-opacity:1"
         offset="0"
         id="stop6086" />
      <stop
         style="stop-color:#e2b24b;stop-opacity:0"
         offset="1"
         id="stop6088" />
    </linearGradient>
    <linearGradient
       inkscape:collect="always"
       id="linearGradient4405">
      <stop
         style="stop-color:#fcbc19;stop-opacity:1;"
         offset="0"
         id="stop4401" />
      <stop
         style="stop-color:#f4b61f;stop-opacity:1"
         offset="1"
         id="stop4403" />
    </linearGradient>
    <linearGradient
       inkscape:collect="always"
       id="linearGradient12673">
      <stop
         style="stop-color:#ffffff;stop-opacity:1;"
         offset="0"
         id="stop12669" />
      <stop
         style="stop-color:#ffffff;stop-opacity:0;"
         offset="1"
         id="stop12671" />
    </linearGradient>
    <linearGradient
       inkscape:collect="always"
       id="linearGradient11972">
      <stop
         style="stop-color:#fce798;stop-opacity:1"
         offset="0"
         id="stop11968" />
      <stop
         style="stop-color:#ffc937;stop-opacity:1"
         offset="1"
         id="stop11970" />
    </linearGradient>
    <linearGradient
       inkscape:collect="always"
       xlink:href="#linearGradient11972"
       id="linearGradient11974"
       x1="5.2916665"
       y1="5.5562496"
       x2="13.758334"
       y2="13.493751"
       gradientUnits="userSpaceOnUse"
       gradientTransform="scale(3.7795275)" />
    <linearGradient
       inkscape:collect="always"
       xlink:href="#linearGradient4405"
       id="linearGradient4407"
       x1="32"
       y1="10.5"
       x2="32"
       y2="18.5"
       gradientUnits="userSpaceOnUse" />
    <linearGradient
       inkscape:collect="always"
       xlink:href="#linearGradient12673"
       id="linearGradient5594"
       x1="2"
       y1="22"
       x2="62"
       y2="22"
       gradientUnits="userSpaceOnUse"
       gradientTransform="matrix(0.26458334,0,0,0.26458334,0,-0.26458346)" />
    <linearGradient
       inkscape:collect="always"
       xlink:href="#linearGradient6090"
       id="linearGradient5817"
       gradientUnits="userSpaceOnUse"
       x1="2"
       y1="22"
       x2="62"
       y2="22"
       gradientTransform="matrix(0.26458334,0,0,0.26458334,1.9999999e-8,-0.52916676)" />
    <linearGradient
       inkscape:collect="always"
       id="linearGradient2083">
      <stop
         style="stop-color:#bf910d;stop-opacity:1;"
         offset="0"
         id="stop2079" />
      <stop
         style="stop-color:#a87704;stop-opacity:1"
         offset="1"
         id="stop2081" />
    </linearGradient>
    <linearGradient
       inkscape:collect="always"
       xlink:href="#linearGradient2083"
       id="linearGradient3161"
       x1="32.311207"
       y1="22.473583"
       x2="32.173244"
       y2="49.48637"
       gradientUnits="userSpaceOnUse" />
  </defs>
  <path
     id="rect846"
     style="fill:url(#linearGradient4407);fill-opacity:1;stroke-width:2;stroke-linecap:round;stroke-linejoin:round;stroke-dasharray:24, 2"
     d="M 5,9 C 3.338,9 2,10.338 2,12 2.094521,12.977241 2,40 2,40 H 62 V 17 c 0,-1.108 -0.892,-2 -2,-2 H 29 L 25,11 C 23.634743,9.6637685 22.662,9 21,9 Z"
     transform="scale(0.26458334)"
     sodipodi:nodetypes="scccccccss" />
  <path
     id="rect1170"
     style="fill:url(#linearGradient11974);fill-opacity:1;stroke-width:2.64576;stroke-linecap:round;stroke-linejoin:round;stroke-dasharray:31.749, 2.64576"
     d="m 29,16 -6,4 H 6 c -2.2160001,0 -4,1.784 -4,4 v 30 c 0,1.108 0.8919999,2 2,2 h 56 c 1.108,0 2,-0.892 2,-2 V 18 c 0,-1.108 -0.891997,-2 -2,-2 z"
     sodipodi:nodetypes="ccsccccccsc"
     transform="scale(0.26458334)" />
  <path
     id="rect1170-2"
     style="fill:#e4a729;fill-opacity:1;stroke-width:2.64576;stroke-linecap:round;stroke-linejoin:round;stroke-dasharray:31.749, 2.64576"
     d="M 2 53 L 2 54 C 2 55.107999 2.8919999 56 4 56 L 60 56 C 61.107999 56 62 55.107999 62 54 L 62 53 C 62 54.107999 61.107999 55 60 55 L 4 55 C 2.892 55 2 54.107999 2 53 z "
     transform="scale(0.26458334)" />
  <path
     id="rect1170-75"
     style="opacity:0.3;fill:url(#linearGradient5594);fill-opacity:1;stroke-width:0.700024;stroke-linecap:round;stroke-linejoin:round;stroke-dasharray:8.40026, 0.700024"
     d="M 7.6729169,4.2333333 6.0854168,5.2916667 H 1.5875 c -0.5863167,0 -1.05833332,0.4720167 -1.05833332,1.0583334 v 0.2645833 c 0,-0.5863167 0.47201662,-1.0583333 1.05833332,-1.0583333 H 6.0854168 L 7.6729169,4.4979167 H 15.875 c 0.29316,0 0.529167,0.2360083 0.529167,0.5291666 V 4.7625 c 0,-0.2931583 -0.236007,-0.5291667 -0.529167,-0.5291667 z"
     sodipodi:nodetypes="ccsscsccscssc" />
  <path
     id="rect1170-75-2"
     style="opacity:1;fill:url(#linearGradient5817);fill-opacity:1;stroke-width:0.700024;stroke-linecap:round;stroke-linejoin:round;stroke-dasharray:8.40026, 0.700024"
     d="M 7.6729169,3.96875 6.0854168,5.0270834 H 1.5875 c -0.5863167,0 -1.05833328,0.4720167 -1.05833328,1.0583334 v 0.2645833 c 0,-0.5863167 0.47201658,-1.0583334 1.05833328,-1.0583334 H 6.0854168 L 7.6729169,4.2333333 h 8.2020841 c 0.293159,0 0.529166,0.2360084 0.529166,0.5291667 V 4.4979167 c 0,-0.2931584 -0.236007,-0.5291667 -0.529166,-0.5291667 z"
     sodipodi:nodetypes="ccsscsccscssc" />
  <path
     id="rect1588"
     style="fill:url(#linearGradient3161);fill-opacity:1;stroke-width:2;stroke-linecap:round;stroke-linejoin:round"
     d="M 23.90625 22.947266 C 23.348288 22.953766 22.818828 23.273145 22.566406 23.814453 L 20.453125 28.345703 C 20.101928 29.098845 20.424605 29.988648 21.177734 30.339844 L 25.710938 32.453125 C 26.464079 32.804322 27.351929 32.479686 27.703125 31.726562 C 28.054322 30.973421 27.731645 30.085571 26.978516 29.734375 L 25.777344 29.173828 C 27.537688 27.773547 29.728313 27.000343 32 27 C 37.534687 27 42 31.465313 42 37 C 42 42.534689 37.534687 47 32 47 C 29.347607 46.999599 26.805012 45.94604 24.929688 44.070312 C 24.309985 43.570312 23.282743 43.636265 22.841797 44.09375 C 22.362382 44.581838 22.289563 45.542738 22.828125 46.167969 C 25.255958 48.608633 28.553592 49.987146 31.996094 50 C 31.997394 50.000003 31.9987 50.000003 32 50 C 39.167854 50 45 44.167849 45 37 C 45 29.83215 39.167854 24 32 24 C 31.9987 23.999997 31.997394 23.999997 31.996094 24 C 29.390065 24.0097 26.867674 24.802787 24.742188 26.246094 L 25.285156 25.082031 C 25.63635 24.328889 25.313676 23.44104 24.560547 23.089844 C 24.348726 22.991074 24.124583 22.944741 23.90625 22.947266 z M 32 29 C 31.446 29 31 29.446 31 30 L 31 37.974609 L 31 38 C 30.999986 38.007725 30.999834 38.015723 31 38.023438 C 31.000215 38.032718 31.001489 38.041567 31.001953 38.050781 C 31.002796 38.067716 31.004159 38.084727 31.005859 38.101562 C 31.006702 38.109911 31.00676 38.118636 31.007812 38.126953 C 31.009216 38.138063 31.01191 38.149165 31.013672 38.160156 C 31.01421 38.163492 31.015053 38.166593 31.015625 38.169922 C 31.018105 38.184456 31.02034 38.198581 31.023438 38.212891 C 31.026089 38.225144 31.028157 38.237921 31.03125 38.25 C 31.032078 38.253218 31.032343 38.256556 31.033203 38.259766 C 31.036619 38.272582 31.041018 38.286223 31.044922 38.298828 C 31.045705 38.301342 31.046072 38.304132 31.046875 38.306641 C 31.051016 38.319626 31.055898 38.331005 31.060547 38.34375 C 31.06342 38.351633 31.06724 38.359374 31.070312 38.367188 C 31.073252 38.374658 31.075014 38.383245 31.078125 38.390625 C 31.079005 38.392712 31.081137 38.394403 31.082031 38.396484 C 31.087499 38.409198 31.091683 38.421162 31.097656 38.433594 C 31.098676 38.435723 31.100527 38.43733 31.101562 38.439453 C 31.107648 38.451894 31.114515 38.464422 31.121094 38.476562 C 31.125251 38.484247 31.128448 38.492418 31.132812 38.5 C 31.136548 38.506484 31.140656 38.513141 31.144531 38.519531 C 31.145463 38.521067 31.147496 38.521905 31.148438 38.523438 C 31.155906 38.535606 31.161954 38.548733 31.169922 38.560547 C 31.17093 38.562041 31.172811 38.562964 31.173828 38.564453 C 31.189571 38.587519 31.207037 38.609246 31.224609 38.630859 C 31.226065 38.632649 31.227048 38.634939 31.228516 38.636719 C 31.23549 38.645164 31.242723 38.65387 31.25 38.662109 C 31.253323 38.665879 31.256387 38.670109 31.259766 38.673828 C 31.2616 38.675842 31.263773 38.677686 31.265625 38.679688 C 31.274556 38.689352 31.283665 38.697728 31.292969 38.707031 C 31.300826 38.714871 31.308252 38.722861 31.316406 38.730469 C 31.31984 38.733678 31.322693 38.737074 31.326172 38.740234 C 31.329256 38.743033 31.332812 38.745282 31.335938 38.748047 C 31.344816 38.755915 31.354123 38.763933 31.363281 38.771484 C 31.367123 38.774651 31.371101 38.778133 31.375 38.78125 C 31.401261 38.802248 31.428686 38.821543 31.457031 38.839844 C 31.467306 38.846478 31.47775 38.853113 31.488281 38.859375 C 31.492379 38.861817 31.495855 38.864793 31.5 38.867188 L 36.830078 42.367188 C 37.309856 42.644189 37.920264 42.481764 38.197266 42.001953 C 38.474267 41.522176 38.293146 40.938855 37.830078 40.634766 L 33 37.462891 L 33 30 C 33 29.446 32.554 29 32 29 z "
     transform="scale(0.26458334)" />
</svg>
