<?xml version="1.0" encoding="UTF-8" standalone="no"?>
<!-- Created with Inkscape (http://www.inkscape.org/) -->

<svg
   width="64"
   height="64"
   viewBox="0 0 16.933333 16.933334"
   version="1.1"
   id="svg5"
   inkscape:version="1.1.1 (3bf5ae0d25, 2021-09-20, custom)"
   sodipodi:docname="folder-downloads.svg"
   xmlns:inkscape="http://www.inkscape.org/namespaces/inkscape"
   xmlns:sodipodi="http://sodipodi.sourceforge.net/DTD/sodipodi-0.dtd"
   xmlns:xlink="http://www.w3.org/1999/xlink"
   xmlns="http://www.w3.org/2000/svg"
   xmlns:svg="http://www.w3.org/2000/svg">
  <sodipodi:namedview
     id="namedview7"
     pagecolor="#ffffff"
     bordercolor="#666666"
     borderopacity="1.0"
     inkscape:pageshadow="2"
     inkscape:pageopacity="0.0"
     inkscape:pagecheckerboard="0"
     inkscape:document-units="px"
     showgrid="false"
     units="px"
     height="64px"
     inkscape:zoom="6.1640625"
     inkscape:cx="32.446134"
     inkscape:cy="42.26109"
     inkscape:window-width="1920"
     inkscape:window-height="1019"
     inkscape:window-x="0"
     inkscape:window-y="0"
     inkscape:window-maximized="1"
     inkscape:current-layer="svg5" />
  <defs
     id="defs2">
    <linearGradient
       inkscape:collect="always"
       id="linearGradient4405">
      <stop
         style="stop-color:#047e5c;stop-opacity:1"
         offset="0"
         id="stop4401" />
      <stop
         style="stop-color:#06755d;stop-opacity:1"
         offset="1"
         id="stop4403" />
    </linearGradient>
    <linearGradient
       inkscape:collect="always"
       id="linearGradient12673">
      <stop
         style="stop-color:#ffffff;stop-opacity:1;"
         offset="0"
         id="stop12669" />
      <stop
         style="stop-color:#ffffff;stop-opacity:0;"
         offset="1"
         id="stop12671" />
    </linearGradient>
    <linearGradient
       inkscape:collect="always"
       id="linearGradient11972">
      <stop
         style="stop-color:#38c494;stop-opacity:1"
         offset="0"
         id="stop11968" />
      <stop
         style="stop-color:#0099a6;stop-opacity:1"
         offset="1"
         id="stop11970" />
    </linearGradient>
    <linearGradient
       inkscape:collect="always"
       xlink:href="#linearGradient11972"
       id="linearGradient11974"
       x1="5.2916665"
       y1="5.5562496"
       x2="13.758334"
       y2="13.493751"
       gradientUnits="userSpaceOnUse" />
    <linearGradient
       inkscape:collect="always"
       xlink:href="#linearGradient4405"
       id="linearGradient4407"
       x1="32"
       y1="10.5"
       x2="32"
       y2="18.5"
       gradientUnits="userSpaceOnUse" />
    <linearGradient
       inkscape:collect="always"
       xlink:href="#linearGradient12673"
       id="linearGradient5594"
       x1="2"
       y1="22"
       x2="62"
       y2="22"
       gradientUnits="userSpaceOnUse"
       gradientTransform="matrix(0.26458334,0,0,0.26458334,0,-0.26458339)" />
  </defs>
  <path
     id="rect846"
     style="fill:url(#linearGradient4407);fill-opacity:1;stroke-width:2;stroke-linecap:round;stroke-linejoin:round;stroke-dasharray:24, 2"
     d="M 5,9 C 3.338,9 2,10.338 2,12 2.094521,12.977241 2,40 2,40 H 62 V 17 c 0,-1.108 -0.892,-2 -2,-2 H 29 L 25,11 C 23.634743,9.6637685 22.662,9 21,9 Z"
     transform="scale(0.26458334)"
     sodipodi:nodetypes="scccccccss" />
  <path
     id="rect1170"
     style="fill:url(#linearGradient11974);fill-opacity:1;stroke-width:0.700024;stroke-linecap:round;stroke-linejoin:round;stroke-dasharray:8.40026, 0.700024"
     d="M 7.6729169,4.2333335 6.0854168,5.2916668 H 1.5875 c -0.5863167,0 -1.0583333,0.472017 -1.0583333,1.058333 v 7.9375012 c 0,0.293158 0.2360083,0.529166 0.5291667,0.529166 H 15.875 c 0.293159,0 0.529167,-0.236008 0.529167,-0.529166 V 4.7625002 c 0,-0.2931583 -0.236007,-0.5291667 -0.529167,-0.5291667 z"
     sodipodi:nodetypes="ccsccccccsc" />
  <path
     id="rect1170-2"
     style="fill:#0c575f;fill-opacity:1;stroke-width:2.64576;stroke-linecap:round;stroke-linejoin:round;stroke-dasharray:31.749, 2.64576"
     d="M 2 53 L 2 54 C 2 55.107999 2.8919999 56 4 56 L 60 56 C 61.107999 56 62 55.107999 62 54 L 62 53 C 62 54.107999 61.107999 55 60 55 L 4 55 C 2.892 55 2 54.107999 2 53 z "
     transform="scale(0.26458334)" />
  <path
     id="rect1170-75"
     style="opacity:0.3;fill:url(#linearGradient5594);fill-opacity:1;stroke-width:0.700024;stroke-linecap:round;stroke-linejoin:round;stroke-dasharray:8.40026, 0.700024"
     d="M 7.6729169,4.2333334 6.0854168,5.2916668 H 1.5875 c -0.5863167,0 -1.05833332,0.4720167 -1.05833332,1.0583334 v 0.2645833 c 0,-0.5863167 0.47302842,-1.0927631 1.05833332,-1.0583334 H 6.0854168 L 7.6729169,4.4979167 H 15.875 c 0.29316,0 0.529167,0.2360084 0.529167,0.5291667 V 4.7625001 c 0,-0.2931584 -0.236007,-0.5291667 -0.529167,-0.5291667 z"
     sodipodi:nodetypes="ccsscsccscssc" />
  <path
     id="rect1170-75-2"
     style="opacity:0.01;fill:#217576;fill-opacity:1;stroke-width:0.700024;stroke-linecap:round;stroke-linejoin:round;stroke-dasharray:8.40026, 0.700024"
     d="M 7.6729169,3.96875 6.0854168,5.0270832 H 1.5875 c -0.5863167,0 -1.05833328,0.4720167 -1.05833328,1.0583334 v 0.2645833 c 0,-0.5863167 0.47201658,-1.0583334 1.05833328,-1.0583334 H 6.0854168 L 7.6729169,4.2333333 h 8.2020841 c 0.293159,0 0.529166,0.2360084 0.529166,0.5291667 V 4.4979167 c 0,-0.2931584 -0.236007,-0.5291667 -0.529166,-0.5291667 z"
     sodipodi:nodetypes="ccsscsccscssc" />
  <path
     id="rect1281"
     style="opacity:1;fill:#ffffff;stroke-width:2;stroke-linecap:round;stroke-linejoin:round"
     d="M 32 23 C 31.169 23 30.5 23.669 30.5 24.5 L 30.5 41.878906 L 23.861328 35.240234 C 23.273721 34.652629 22.327838 34.652629 21.740234 35.240234 C 21.152627 35.82784 21.152627 36.773725 21.740234 37.361328 L 30.888672 46.509766 C 30.937027 46.56299 30.989402 46.612422 31.044922 46.658203 C 31.044922 46.658203 31.046875 46.658203 31.046875 46.658203 C 31.083528 46.688364 31.120691 46.717522 31.160156 46.744141 C 31.162569 46.745757 31.165549 46.746446 31.167969 46.748047 C 31.405874 46.906505 31.691504 47 32 47 C 32.476422 47 32.899439 46.779791 33.173828 46.435547 L 42.246094 37.361328 C 42.833701 36.773725 42.833701 35.82784 42.246094 35.240234 C 41.658491 34.652629 40.712607 34.652629 40.125 35.240234 L 33.5 41.867188 L 33.5 24.5 C 33.5 23.669 32.831 23 32 23 z M 22.5 48 C 21.669 48 21 48.668999 21 49.5 C 21 50.331001 21.669 51 22.5 51 L 41.5 51 C 42.331001 51 43 50.331001 43 49.5 C 43 48.668999 42.331001 48 41.5 48 L 22.5 48 z "
     transform="scale(0.26458334)" />
</svg>
