<?xml version="1.0" encoding="UTF-8" standalone="no"?>
<!-- Created with Inkscape (http://www.inkscape.org/) -->

<svg
   width="64"
   height="64"
   viewBox="0 0 16.933333 16.933334"
   version="1.1"
   id="svg5"
   inkscape:version="1.1.1 (3bf5ae0d25, 2021-09-20, custom)"
   sodipodi:docname="folder-music.svg"
   xmlns:inkscape="http://www.inkscape.org/namespaces/inkscape"
   xmlns:sodipodi="http://sodipodi.sourceforge.net/DTD/sodipodi-0.dtd"
   xmlns:xlink="http://www.w3.org/1999/xlink"
   xmlns="http://www.w3.org/2000/svg"
   xmlns:svg="http://www.w3.org/2000/svg">
  <sodipodi:namedview
     id="namedview7"
     pagecolor="#ffffff"
     bordercolor="#666666"
     borderopacity="1.0"
     inkscape:pageshadow="2"
     inkscape:pageopacity="0.0"
     inkscape:pagecheckerboard="0"
     inkscape:document-units="px"
     showgrid="false"
     units="px"
     height="64px"
     inkscape:zoom="2.1793252"
     inkscape:cx="-57.816062"
     inkscape:cy="111.73183"
     inkscape:window-width="1920"
     inkscape:window-height="1019"
     inkscape:window-x="0"
     inkscape:window-y="0"
     inkscape:window-maximized="1"
     inkscape:current-layer="svg5" />
  <defs
     id="defs2">
    <linearGradient
       inkscape:collect="always"
       id="linearGradient953">
      <stop
         style="stop-color:#7f4947;stop-opacity:1;"
         offset="0"
         id="stop949" />
      <stop
         style="stop-color:#4f366f;stop-opacity:1"
         offset="1"
         id="stop951" />
    </linearGradient>
    <linearGradient
       inkscape:collect="always"
       id="linearGradient4405">
      <stop
         style="stop-color:#bf6413;stop-opacity:1"
         offset="0"
         id="stop4401" />
      <stop
         style="stop-color:#985433;stop-opacity:1"
         offset="1"
         id="stop4403" />
    </linearGradient>
    <linearGradient
       inkscape:collect="always"
       id="linearGradient12673">
      <stop
         style="stop-color:#ffffff;stop-opacity:1;"
         offset="0"
         id="stop12669" />
      <stop
         style="stop-color:#ffffff;stop-opacity:0;"
         offset="1"
         id="stop12671" />
    </linearGradient>
    <linearGradient
       inkscape:collect="always"
       id="linearGradient11972">
      <stop
         style="stop-color:#f09154;stop-opacity:1"
         offset="0"
         id="stop11968" />
      <stop
         style="stop-color:#9d66af;stop-opacity:1"
         offset="1"
         id="stop11970" />
    </linearGradient>
    <linearGradient
       inkscape:collect="always"
       xlink:href="#linearGradient11972"
       id="linearGradient11974"
       x1="6.8791666"
       y1="5.5562496"
       x2="15.345833"
       y2="13.493751"
       gradientUnits="userSpaceOnUse"
       gradientTransform="scale(3.7795275)" />
    <linearGradient
       inkscape:collect="always"
       xlink:href="#linearGradient4405"
       id="linearGradient4407"
       x1="32"
       y1="10.5"
       x2="32"
       y2="18.5"
       gradientUnits="userSpaceOnUse" />
    <linearGradient
       inkscape:collect="always"
       xlink:href="#linearGradient12673"
       id="linearGradient5594"
       x1="2"
       y1="22"
       x2="62"
       y2="22"
       gradientUnits="userSpaceOnUse"
       gradientTransform="matrix(0.26458334,0,0,0.26458334,-4e-8,-0.26458329)" />
    <linearGradient
       inkscape:collect="always"
       xlink:href="#linearGradient953"
       id="linearGradient955"
       x1="2"
       y1="54.5"
       x2="62"
       y2="54.5"
       gradientUnits="userSpaceOnUse" />
  </defs>
  <path
     id="rect846"
     style="fill:url(#linearGradient4407);fill-opacity:1;stroke-width:2;stroke-linecap:round;stroke-linejoin:round;stroke-dasharray:24, 2"
     d="M 5,9 C 3.338,9 2,10.338 2,12 2.094521,12.977241 2,40 2,40 H 62 V 17 c 0,-1.108 -0.892,-2 -2,-2 H 29 L 25,11 C 23.634743,9.6637685 22.662,9 21,9 Z"
     transform="scale(0.26458334)"
     sodipodi:nodetypes="scccccccss" />
  <path
     id="rect1170"
     style="fill:url(#linearGradient11974);fill-opacity:1;stroke-width:2.64576;stroke-linecap:round;stroke-linejoin:round;stroke-dasharray:31.749, 2.64576"
     d="m 29,16 -6,4 H 6 c -2.2160001,0 -4,1.784 -4,4 v 30 c 0,1.108 0.8919999,2 2,2 h 56 c 1.108,0 2,-0.892 2,-2 V 18 c 0,-1.108 -0.891997,-2 -2,-2 z"
     sodipodi:nodetypes="ccsccccccsc"
     transform="scale(0.26458334)" />
  <path
     id="rect1170-2"
     style="fill:url(#linearGradient955);fill-opacity:1;stroke-width:2.64576;stroke-linecap:round;stroke-linejoin:round;stroke-dasharray:31.749, 2.64576"
     d="M 2 53 L 2 54 C 2 55.107999 2.8919999 56 4 56 L 60 56 C 61.107999 56 62 55.107999 62 54 L 62 53 C 62 54.107999 61.107999 55 60 55 L 4 55 C 2.892 55 2 54.107999 2 53 z "
     transform="scale(0.26458334)" />
  <path
     id="rect1170-75"
     style="opacity:0.3;fill:url(#linearGradient5594);fill-opacity:1;stroke-width:0.700024;stroke-linecap:round;stroke-linejoin:round;stroke-dasharray:8.40026, 0.700024"
     d="M 7.6729169,4.2333335 6.0854168,5.2916667 H 1.5875 c -0.5863167,0 -1.05833336,0.4720167 -1.05833336,1.0583334 V 6.6145834 C 0.52916664,6.0282667 1.0011833,5.55625 1.5875,5.55625 H 6.0854168 L 7.6729169,4.4979168 H 15.875 c 0.29316,0 0.529167,0.2360084 0.529167,0.5291667 V 4.7625002 c 0,-0.2931584 -0.236007,-0.5291667 -0.529167,-0.5291667 z"
     sodipodi:nodetypes="ccsscsccscssc" />
  <path
     id="rect1170-75-2"
     style="opacity:0.01;fill:#915f67;fill-opacity:1;stroke-width:0.700024;stroke-linecap:round;stroke-linejoin:round;stroke-dasharray:8.40026, 0.700024"
     d="M 7.6729169,3.7041668 6.0854168,5.0270835 H 1.5875 c -0.5863167,0 -1.05833328,0.4720167 -1.05833328,1.0583334 v 0.2645833 c 0,-0.5863167 0.47201658,-1.0583334 1.05833328,-1.0583334 H 6.0854168 L 7.6729169,3.9687501 h 8.2020841 c 0.293159,0 0.529166,0.2360084 0.529166,0.5291667 V 4.2333335 c 0,-0.2931584 -0.236007,-0.5291667 -0.529166,-0.5291667 z" />
  <path
     id="rect1955"
     style="opacity:1;fill:#ffffff;stroke-width:0.50664;stroke-linecap:round;stroke-linejoin:round"
     d="M 9.3219119,5.8209456 C 9.131333,5.825561 8.9958336,5.9707038 8.9958336,6.199734 V 7.2580673 10.53332 A 1.7197917,1.7197917 0 0 0 7.8052085,10.054279 1.7197917,1.7197917 0 0 0 6.0854168,11.774071 1.7197917,1.7197917 0 0 0 7.8052085,13.493862 1.7197917,1.7197917 0 0 0 9.5203494,11.89551 l 0.00465,0.01085 V 11.774071 7.979987 l 1.8841226,0.6852295 c 0.275479,0.100266 0.497127,-0.054624 0.497127,-0.3477823 V 7.2591008 c 0,-0.2931583 -0.221648,-0.610285 -0.497127,-0.710551 L 9.4929608,5.8514346 C 9.4326998,5.8295015 9.3752739,5.8196534 9.3219119,5.8209456 Z" />
</svg>
