<?xml version="1.0" encoding="UTF-8" standalone="no"?>
<!-- Created with Inkscape (http://www.inkscape.org/) -->

<svg
   width="64"
   height="64"
   viewBox="0 0 16.933333 16.933334"
   version="1.1"
   id="svg5"
   inkscape:version="1.1.1 (3bf5ae0d25, 2021-09-20, custom)"
   sodipodi:docname="folder-temp.svg"
   xmlns:inkscape="http://www.inkscape.org/namespaces/inkscape"
   xmlns:sodipodi="http://sodipodi.sourceforge.net/DTD/sodipodi-0.dtd"
   xmlns:xlink="http://www.w3.org/1999/xlink"
   xmlns="http://www.w3.org/2000/svg"
   xmlns:svg="http://www.w3.org/2000/svg">
  <sodipodi:namedview
     id="namedview7"
     pagecolor="#ffffff"
     bordercolor="#666666"
     borderopacity="1.0"
     inkscape:pageshadow="2"
     inkscape:pageopacity="0.0"
     inkscape:pagecheckerboard="0"
     inkscape:document-units="px"
     showgrid="false"
     units="px"
     height="64px"
     inkscape:zoom="12.375"
     inkscape:cx="30.181818"
     inkscape:cy="34.262626"
     inkscape:window-width="1920"
     inkscape:window-height="1006"
     inkscape:window-x="0"
     inkscape:window-y="0"
     inkscape:window-maximized="1"
     inkscape:current-layer="svg5" />
  <defs
     id="defs2">
    <linearGradient
       inkscape:collect="always"
       id="linearGradient6090">
      <stop
         style="stop-color:#e4a729;stop-opacity:1"
         offset="0"
         id="stop6086" />
      <stop
         style="stop-color:#e2b24b;stop-opacity:0"
         offset="1"
         id="stop6088" />
    </linearGradient>
    <linearGradient
       inkscape:collect="always"
       id="linearGradient4405">
      <stop
         style="stop-color:#fcbc19;stop-opacity:1;"
         offset="0"
         id="stop4401" />
      <stop
         style="stop-color:#f4b61f;stop-opacity:1"
         offset="1"
         id="stop4403" />
    </linearGradient>
    <linearGradient
       inkscape:collect="always"
       id="linearGradient12673">
      <stop
         style="stop-color:#ffffff;stop-opacity:1;"
         offset="0"
         id="stop12669" />
      <stop
         style="stop-color:#ffffff;stop-opacity:0;"
         offset="1"
         id="stop12671" />
    </linearGradient>
    <linearGradient
       inkscape:collect="always"
       id="linearGradient11972">
      <stop
         style="stop-color:#fce798;stop-opacity:1"
         offset="0"
         id="stop11968" />
      <stop
         style="stop-color:#ffc937;stop-opacity:1"
         offset="1"
         id="stop11970" />
    </linearGradient>
    <linearGradient
       inkscape:collect="always"
       xlink:href="#linearGradient11972"
       id="linearGradient11974"
       x1="5.2916665"
       y1="5.5562496"
       x2="13.758334"
       y2="13.493751"
       gradientUnits="userSpaceOnUse"
       gradientTransform="scale(3.7795275)" />
    <linearGradient
       inkscape:collect="always"
       xlink:href="#linearGradient4405"
       id="linearGradient4407"
       x1="32"
       y1="10.5"
       x2="32"
       y2="18.5"
       gradientUnits="userSpaceOnUse" />
    <linearGradient
       inkscape:collect="always"
       xlink:href="#linearGradient12673"
       id="linearGradient5594"
       x1="2"
       y1="22"
       x2="62"
       y2="22"
       gradientUnits="userSpaceOnUse"
       gradientTransform="matrix(0.26458334,0,0,0.26458334,0,-0.26458346)" />
    <linearGradient
       inkscape:collect="always"
       xlink:href="#linearGradient6090"
       id="linearGradient5817"
       gradientUnits="userSpaceOnUse"
       x1="2"
       y1="22"
       x2="62"
       y2="22"
       gradientTransform="matrix(0.26458334,0,0,0.26458334,1.9999999e-8,-0.52916676)" />
    <linearGradient
       inkscape:collect="always"
       id="linearGradient2083">
      <stop
         style="stop-color:#bf910d;stop-opacity:1;"
         offset="0"
         id="stop2079" />
      <stop
         style="stop-color:#a87704;stop-opacity:1"
         offset="1"
         id="stop2081" />
    </linearGradient>
    <linearGradient
       inkscape:collect="always"
       xlink:href="#linearGradient2083"
       id="linearGradient3161"
       x1="32.311207"
       y1="22.473583"
       x2="32.173244"
       y2="49.48637"
       gradientUnits="userSpaceOnUse" />
  </defs>
  <path
     id="rect846"
     style="fill:url(#linearGradient4407);fill-opacity:1;stroke-width:2;stroke-linecap:round;stroke-linejoin:round;stroke-dasharray:24, 2"
     d="M 5,9 C 3.338,9 2,10.338 2,12 2.094521,12.977241 2,40 2,40 H 62 V 17 c 0,-1.108 -0.892,-2 -2,-2 H 29 L 25,11 C 23.634743,9.6637685 22.662,9 21,9 Z"
     transform="scale(0.26458334)"
     sodipodi:nodetypes="scccccccss" />
  <path
     id="rect1170"
     style="fill:url(#linearGradient11974);fill-opacity:1;stroke-width:2.64576;stroke-linecap:round;stroke-linejoin:round;stroke-dasharray:31.749, 2.64576"
     d="m 29,16 -6,4 H 6 c -2.2160001,0 -4,1.784 -4,4 v 30 c 0,1.108 0.8919999,2 2,2 h 56 c 1.108,0 2,-0.892 2,-2 V 18 c 0,-1.108 -0.891997,-2 -2,-2 z"
     sodipodi:nodetypes="ccsccccccsc"
     transform="scale(0.26458334)" />
  <path
     id="rect1170-2"
     style="fill:#e4a729;fill-opacity:1;stroke-width:2.64576;stroke-linecap:round;stroke-linejoin:round;stroke-dasharray:31.749, 2.64576"
     d="M 2 53 L 2 54 C 2 55.107999 2.8919999 56 4 56 L 60 56 C 61.107999 56 62 55.107999 62 54 L 62 53 C 62 54.107999 61.107999 55 60 55 L 4 55 C 2.892 55 2 54.107999 2 53 z "
     transform="scale(0.26458334)" />
  <path
     id="rect1170-75"
     style="opacity:0.3;fill:url(#linearGradient5594);fill-opacity:1;stroke-width:0.700024;stroke-linecap:round;stroke-linejoin:round;stroke-dasharray:8.40026, 0.700024"
     d="M 7.6729169,4.2333333 6.0854168,5.2916667 H 1.5875 c -0.5863167,0 -1.05833332,0.4720167 -1.05833332,1.0583334 v 0.2645833 c 0,-0.5863167 0.47201662,-1.0583333 1.05833332,-1.0583333 H 6.0854168 L 7.6729169,4.4979167 H 15.875 c 0.29316,0 0.529167,0.2360083 0.529167,0.5291666 V 4.7625 c 0,-0.2931583 -0.236007,-0.5291667 -0.529167,-0.5291667 z"
     sodipodi:nodetypes="ccsscsccscssc" />
  <path
     id="rect1170-75-2"
     style="opacity:1;fill:url(#linearGradient5817);fill-opacity:1;stroke-width:0.700024;stroke-linecap:round;stroke-linejoin:round;stroke-dasharray:8.40026, 0.700024"
     d="M 7.6729169,3.96875 6.0854168,5.0270834 H 1.5875 c -0.5863167,0 -1.05833328,0.4720167 -1.05833328,1.0583334 v 0.2645833 c 0,-0.5863167 0.47201658,-1.0583334 1.05833328,-1.0583334 H 6.0854168 L 7.6729169,4.2333333 h 8.2020841 c 0.293159,0 0.529166,0.2360084 0.529166,0.5291667 V 4.4979167 c 0,-0.2931584 -0.236007,-0.5291667 -0.529166,-0.5291667 z"
     sodipodi:nodetypes="ccsscsccscssc" />
  <path
     id="rect1588"
     style="fill:url(#linearGradient3161);fill-opacity:1;stroke-width:2;stroke-linecap:round;stroke-linejoin:round"
     d="M 32 24 A 13 13 0 0 0 19 37 A 13 13 0 0 0 32 50 A 13 13 0 0 0 45 37 A 13 13 0 0 0 32 24 z M 32 26 A 11 11 0 0 1 43 37 A 11 11 0 0 1 32 48 A 11 11 0 0 1 21 37 A 11 11 0 0 1 32 26 z M 32 29 C 31.446 29 31 29.446 31 30 L 31 37.974609 L 31 38 C 30.999986 38.0077 30.999834 38.015717 31 38.023438 C 31.000215 38.032738 31.001453 38.041571 31.001953 38.050781 C 31.002796 38.067711 31.004159 38.084732 31.005859 38.101562 C 31.006702 38.109863 31.006713 38.118633 31.007812 38.126953 C 31.009213 38.138063 31.011872 38.149166 31.013672 38.160156 C 31.01421 38.163456 31.015025 38.166522 31.015625 38.169922 C 31.018125 38.184452 31.020337 38.198581 31.023438 38.212891 C 31.026138 38.225141 31.02815 38.23792 31.03125 38.25 C 31.032078 38.2532 31.032303 38.256566 31.033203 38.259766 C 31.036603 38.272586 31.041002 38.286228 31.044922 38.298828 C 31.045705 38.301328 31.045975 38.304141 31.046875 38.306641 C 31.050975 38.319631 31.055877 38.331 31.060547 38.34375 C 31.063447 38.35165 31.067212 38.359367 31.070312 38.367188 C 31.073213 38.374688 31.075025 38.383245 31.078125 38.390625 C 31.079005 38.392725 31.081131 38.394384 31.082031 38.396484 C 31.087531 38.409194 31.091726 38.421164 31.097656 38.433594 C 31.098656 38.435694 31.100562 38.437253 31.101562 38.439453 C 31.107663 38.451893 31.114514 38.464422 31.121094 38.476562 C 31.125294 38.484263 31.128492 38.49242 31.132812 38.5 C 31.136513 38.5065 31.140611 38.513141 31.144531 38.519531 C 31.145463 38.521031 31.147537 38.521937 31.148438 38.523438 C 31.155938 38.535608 31.161962 38.548727 31.169922 38.560547 C 31.170922 38.562047 31.172828 38.562953 31.173828 38.564453 C 31.189568 38.587523 31.207039 38.609239 31.224609 38.630859 C 31.226109 38.632659 31.227016 38.634919 31.228516 38.636719 C 31.235516 38.645119 31.24273 38.653869 31.25 38.662109 C 31.2533 38.665909 31.256366 38.670108 31.259766 38.673828 C 31.261566 38.675828 31.263725 38.677687 31.265625 38.679688 C 31.274525 38.689388 31.283669 38.697731 31.292969 38.707031 C 31.300869 38.714831 31.308246 38.722859 31.316406 38.730469 C 31.319806 38.733669 31.322672 38.737034 31.326172 38.740234 C 31.329272 38.743034 31.332737 38.745247 31.335938 38.748047 C 31.344838 38.755947 31.354131 38.763934 31.363281 38.771484 C 31.367081 38.774684 31.37108 38.77805 31.375 38.78125 C 31.40126 38.80225 31.428691 38.821544 31.457031 38.839844 C 31.467311 38.846444 31.477751 38.853115 31.488281 38.859375 C 31.492381 38.861775 31.49588 38.864787 31.5 38.867188 L 36.830078 42.367188 C 37.309856 42.644189 37.920264 42.481764 38.197266 42.001953 C 38.474267 41.522176 38.293146 40.938855 37.830078 40.634766 L 33 37.462891 L 33 30 C 33 29.446 32.554 29 32 29 z "
     transform="scale(0.26458334)" />
</svg>
