<?xml version="1.0" encoding="UTF-8" standalone="no"?>
<!-- Created with Inkscape (http://www.inkscape.org/) -->

<svg
   width="64"
   height="64"
   viewBox="0 0 16.933333 16.933334"
   version="1.1"
   id="svg5"
   inkscape:version="1.1.1 (3bf5ae0d25, 2021-09-20, custom)"
   sodipodi:docname="folder-templates.svg"
   xmlns:inkscape="http://www.inkscape.org/namespaces/inkscape"
   xmlns:sodipodi="http://sodipodi.sourceforge.net/DTD/sodipodi-0.dtd"
   xmlns:xlink="http://www.w3.org/1999/xlink"
   xmlns="http://www.w3.org/2000/svg"
   xmlns:svg="http://www.w3.org/2000/svg">
  <sodipodi:namedview
     id="namedview7"
     pagecolor="#ffffff"
     bordercolor="#666666"
     borderopacity="1.0"
     inkscape:pageshadow="2"
     inkscape:pageopacity="0.0"
     inkscape:pagecheckerboard="0"
     inkscape:document-units="px"
     showgrid="false"
     units="px"
     height="64px"
     inkscape:zoom="4"
     inkscape:cx="5.25"
     inkscape:cy="55.875"
     inkscape:window-width="1920"
     inkscape:window-height="1019"
     inkscape:window-x="0"
     inkscape:window-y="0"
     inkscape:window-maximized="1"
     inkscape:current-layer="svg5" />
  <defs
     id="defs2">
    <linearGradient
       inkscape:collect="always"
       id="linearGradient5539">
      <stop
         style="stop-color:#baaaef;stop-opacity:1;"
         offset="0"
         id="stop5535" />
      <stop
         style="stop-color:#85bbe8;stop-opacity:1"
         offset="1"
         id="stop5537" />
    </linearGradient>
    <linearGradient
       inkscape:collect="always"
       id="linearGradient5001">
      <stop
         style="stop-color:#bedcfe;stop-opacity:1;"
         offset="0"
         id="stop4997" />
      <stop
         style="stop-color:#e3f5ff;stop-opacity:1"
         offset="1"
         id="stop4999" />
    </linearGradient>
    <linearGradient
       inkscape:collect="always"
       id="linearGradient4263">
      <stop
         style="stop-color:#b0e2f9;stop-opacity:1;"
         offset="0"
         id="stop4259" />
      <stop
         style="stop-color:#c2dbf0;stop-opacity:1"
         offset="1"
         id="stop4261" />
    </linearGradient>
    <linearGradient
       inkscape:collect="always"
       id="linearGradient953">
      <stop
         style="stop-color:#29548a;stop-opacity:1;"
         offset="0"
         id="stop949" />
      <stop
         style="stop-color:#463675;stop-opacity:1"
         offset="1"
         id="stop951" />
    </linearGradient>
    <linearGradient
       inkscape:collect="always"
       id="linearGradient4405">
      <stop
         style="stop-color:#09759f;stop-opacity:1"
         offset="0"
         id="stop4401" />
      <stop
         style="stop-color:#1f5e90;stop-opacity:1"
         offset="1"
         id="stop4403" />
    </linearGradient>
    <linearGradient
       inkscape:collect="always"
       id="linearGradient12673">
      <stop
         style="stop-color:#ffffff;stop-opacity:1;"
         offset="0"
         id="stop12669" />
      <stop
         style="stop-color:#ffffff;stop-opacity:0;"
         offset="1"
         id="stop12671" />
    </linearGradient>
    <linearGradient
       inkscape:collect="always"
       id="linearGradient11972">
      <stop
         style="stop-color:#4ad2e3;stop-opacity:1"
         offset="0"
         id="stop11968" />
      <stop
         style="stop-color:#8660c5;stop-opacity:1"
         offset="1"
         id="stop11970" />
    </linearGradient>
    <linearGradient
       inkscape:collect="always"
       xlink:href="#linearGradient11972"
       id="linearGradient11974"
       x1="5.2916665"
       y1="5.5562496"
       x2="13.758334"
       y2="13.493751"
       gradientUnits="userSpaceOnUse"
       gradientTransform="scale(3.7795275)" />
    <linearGradient
       inkscape:collect="always"
       xlink:href="#linearGradient4405"
       id="linearGradient4407"
       x1="32"
       y1="10.5"
       x2="32"
       y2="18.5"
       gradientUnits="userSpaceOnUse" />
    <linearGradient
       inkscape:collect="always"
       xlink:href="#linearGradient12673"
       id="linearGradient5594"
       x1="2"
       y1="22"
       x2="62"
       y2="22"
       gradientUnits="userSpaceOnUse"
       gradientTransform="matrix(0.26458334,0,0,0.26458334,0,-0.26458346)" />
    <linearGradient
       inkscape:collect="always"
       xlink:href="#linearGradient953"
       id="linearGradient955"
       x1="2"
       y1="54.5"
       x2="62"
       y2="54.5"
       gradientUnits="userSpaceOnUse" />
    <linearGradient
       inkscape:collect="always"
       xlink:href="#linearGradient4263"
       id="linearGradient4265"
       x1="8.4584417"
       y1="6.3224587"
       x2="8.4666672"
       y2="9.5250006"
       gradientUnits="userSpaceOnUse" />
    <linearGradient
       inkscape:collect="always"
       xlink:href="#linearGradient5001"
       id="linearGradient5003"
       x1="19"
       y1="44.711914"
       x2="32"
       y2="36"
       gradientUnits="userSpaceOnUse" />
    <linearGradient
       inkscape:collect="always"
       xlink:href="#linearGradient5539"
       id="linearGradient5541"
       x1="11.808536"
       y1="12.205922"
       x2="8.4666672"
       y2="9.5250006"
       gradientUnits="userSpaceOnUse" />
  </defs>
  <path
     id="rect846"
     style="fill:url(#linearGradient4407);fill-opacity:1;stroke-width:2;stroke-linecap:round;stroke-linejoin:round;stroke-dasharray:24, 2"
     d="M 5,9 C 3.338,9 2,10.338 2,12 2.094521,12.977241 2,40 2,40 H 62 V 17 c 0,-1.108 -0.892,-2 -2,-2 H 29 L 25,11 C 23.634743,9.6637685 22.662,9 21,9 Z"
     transform="scale(0.26458334)"
     sodipodi:nodetypes="scccccccss" />
  <path
     id="rect1170"
     style="fill:url(#linearGradient11974);fill-opacity:1;stroke-width:2.64576;stroke-linecap:round;stroke-linejoin:round;stroke-dasharray:31.749, 2.64576"
     d="m 29,16 -6,4 H 6 c -2.2160001,0 -4,1.784 -4,4 v 30 c 0,1.108 0.8919999,2 2,2 h 56 c 1.108,0 2,-0.892 2,-2 V 18 c 0,-1.108 -0.891997,-2 -2,-2 z"
     sodipodi:nodetypes="ccsccccccsc"
     transform="scale(0.26458334)" />
  <path
     id="rect1170-2"
     style="fill:url(#linearGradient955);fill-opacity:1;stroke-width:2.64576;stroke-linecap:round;stroke-linejoin:round;stroke-dasharray:31.749, 2.64576"
     d="M 2 53 L 2 54 C 2 55.107999 2.8919999 56 4 56 L 60 56 C 61.107999 56 62 55.107999 62 54 L 62 53 C 62 54.107999 61.107999 55 60 55 L 4 55 C 2.892 55 2 54.107999 2 53 z "
     transform="scale(0.26458334)" />
  <path
     id="rect1170-75"
     style="opacity:0.3;fill:url(#linearGradient5594);fill-opacity:1;stroke-width:0.700024;stroke-linecap:round;stroke-linejoin:round;stroke-dasharray:8.40026, 0.700024"
     d="M 7.6729169,4.2333333 6.0854168,5.2916667 H 1.5875 c -0.5863167,0 -1.05833332,0.4720167 -1.05833332,1.0583334 v 0.2645833 c 0,-0.5863167 0.47201662,-1.0583333 1.05833332,-1.0583333 H 6.0854168 L 7.6729169,4.4979167 H 15.875 c 0.29316,0 0.529167,0.2360083 0.529167,0.5291666 V 4.7625 c 0,-0.2931583 -0.236007,-0.5291667 -0.529167,-0.5291667 z"
     sodipodi:nodetypes="ccsscsccscssc" />
  <path
     style="color:#000000;fill:url(#linearGradient4265);fill-opacity:1;stroke:none;stroke-width:1.00019;stroke-linecap:round;stroke-linejoin:round;stroke-miterlimit:4;stroke-dasharray:none"
     d="M 8.036963,6.4411496 5.6560135,7.4998214 C 5.2737722,7.6695516 5.0273079,8.0484467 5.0270834,8.4666896 V 11.37706 c 2.245e-4,0.418243 0.2466888,0.797138 0.6289301,0.966869 l 2.3809495,1.058672 c 0.2735803,0.121533 0.5858273,0.121533 0.8594076,0 l 2.3809504,-1.058672 c 0.382241,-0.169731 0.628705,-0.548626 0.628929,-0.966869 V 8.4666896 C 11.906026,8.0484468 11.659562,7.6695516 11.277321,7.4998214 L 8.8963706,6.4411496 c -0.2735803,-0.1215327 -0.5858273,-0.1215327 -0.8594076,0 z"
     id="path3182"
     sodipodi:nodetypes="ccccccccccccc" />
  <path
     id="rect3501"
     style="fill:url(#linearGradient5003);stroke-width:3.78002;stroke-linecap:round;stroke-linejoin:round;fill-opacity:1"
     d="M 19.326172 30.423828 C 19.115903 30.913 19.000297 31.446928 19 32 L 19 43 C 19.000849 44.580757 19.932262 46.012794 21.376953 46.654297 L 30.375 50.65625 C 30.892002 50.885921 31.446462 51 32 51 L 32 36 L 19.326172 30.423828 z "
     transform="scale(0.26458334)" />
  <path
     id="rect3501-7"
     style="fill:url(#linearGradient5541);stroke-width:1.00013;stroke-linecap:round;stroke-linejoin:round;fill-opacity:1"
     d="m 11.81995,8.0496379 c 0.05563,0.1294268 0.08622,0.2706953 0.0863,0.4170289 v 2.9104172 c -2.25e-4,0.418242 -0.246661,0.797135 -0.628902,0.966866 L 8.8966139,13.4028 c -0.13679,0.06077 -0.283491,0.09095 -0.429947,0.09095 V 9.5250002 Z" />
</svg>
