<?xml version="1.0" encoding="UTF-8" standalone="no"?>
<!-- Created with Inkscape (http://www.inkscape.org/) -->

<svg
   width="64"
   height="64"
   viewBox="0 0 16.933333 16.933334"
   version="1.1"
   id="svg5"
   inkscape:version="1.1.1 (3bf5ae0d25, 2021-09-20, custom)"
   sodipodi:docname="network-workgroup.svg"
   xmlns:inkscape="http://www.inkscape.org/namespaces/inkscape"
   xmlns:sodipodi="http://sodipodi.sourceforge.net/DTD/sodipodi-0.dtd"
   xmlns:xlink="http://www.w3.org/1999/xlink"
   xmlns="http://www.w3.org/2000/svg"
   xmlns:svg="http://www.w3.org/2000/svg">
  <sodipodi:namedview
     id="namedview7"
     pagecolor="#ffffff"
     bordercolor="#666666"
     borderopacity="1.0"
     inkscape:pageshadow="2"
     inkscape:pageopacity="0.0"
     inkscape:pagecheckerboard="0"
     inkscape:document-units="px"
     showgrid="false"
     units="px"
     inkscape:zoom="5.6568542"
     inkscape:cx="39.951533"
     inkscape:cy="39.156038"
     inkscape:window-width="1920"
     inkscape:window-height="996"
     inkscape:window-x="0"
     inkscape:window-y="0"
     inkscape:window-maximized="1"
     inkscape:current-layer="svg5" />
  <defs
     id="defs2">
    <linearGradient
       inkscape:collect="always"
       id="linearGradient2986">
      <stop
         style="stop-color:#818990;stop-opacity:1;"
         offset="0"
         id="stop2982" />
      <stop
         style="stop-color:#9fa8b0;stop-opacity:1"
         offset="1"
         id="stop2984" />
    </linearGradient>
    <linearGradient
       inkscape:collect="always"
       id="linearGradient2301">
      <stop
         style="stop-color:#3fe3e7;stop-opacity:1;"
         offset="0"
         id="stop2297" />
      <stop
         style="stop-color:#066bbc;stop-opacity:1"
         offset="1"
         id="stop2299" />
    </linearGradient>
    <linearGradient
       inkscape:collect="always"
       id="linearGradient1116">
      <stop
         style="stop-color:#555a5f;stop-opacity:1;"
         offset="0"
         id="stop1112" />
      <stop
         style="stop-color:#4b4f53;stop-opacity:1"
         offset="1"
         id="stop1114" />
    </linearGradient>
    <linearGradient
       inkscape:collect="always"
       xlink:href="#linearGradient1116"
       id="linearGradient1118"
       x1="1.0583334"
       y1="7.276042"
       x2="15.875"
       y2="7.276042"
       gradientUnits="userSpaceOnUse"
       gradientTransform="matrix(1,0,0,0.97435895,0,1.3771901)" />
    <linearGradient
       inkscape:collect="always"
       xlink:href="#linearGradient2301"
       id="linearGradient2303"
       x1="1.3229166"
       y1="2.6458333"
       x2="15.610417"
       y2="12.170833"
       gradientUnits="userSpaceOnUse"
       gradientTransform="translate(0,1.0583333)" />
    <linearGradient
       inkscape:collect="always"
       xlink:href="#linearGradient2986"
       id="linearGradient2988"
       x1="0.092813492"
       y1="10.202362"
       x2="0.092813492"
       y2="13.470933"
       gradientUnits="userSpaceOnUse"
       gradientTransform="matrix(0.62578928,0,0,0.64758174,9.4669183,6.0931366)" />
    <radialGradient
       id="radialGradient875"
       cx="20.107"
       cy="28.705"
       r="28"
       gradientTransform="matrix(0.14620034,0.08255918,-0.06504872,0.11519096,1.4536305,-1.2853425)"
       gradientUnits="userSpaceOnUse">
      <stop
         stop-color="#5ab5e2"
         offset="0"
         id="stop2" />
      <stop
         stop-color="#4189ac"
         offset=".45901"
         id="stop4" />
      <stop
         stop-color="#295e76"
         offset="1"
         id="stop6" />
    </radialGradient>
    <linearGradient
       id="linearGradient883"
       x1="4"
       x2="59.861"
       y1="31.360001"
       y2="31.360001"
       gradientTransform="matrix(0.13228532,0,0,0.13228532,-0.26444876,1.3451779e-5)"
       gradientUnits="userSpaceOnUse">
      <stop
         stop-color="#b0d6df"
         offset="0"
         id="stop9" />
      <stop
         stop-color="#e1f8fc"
         offset=".21709"
         id="stop11" />
      <stop
         stop-color="#96c3ce"
         offset="1"
         id="stop13" />
    </linearGradient>
  </defs>
  <path
     id="rect958"
     style="fill:#bcc5cf;stroke-width:1.32292;stroke-linecap:round;stroke-linejoin:round"
     d="m 5.5562501,14.552085 h 5.8208329 l 0.79375,0.79375 H 4.7624998 Z"
     sodipodi:nodetypes="ccccc" />
  <rect
     style="fill:url(#linearGradient2988);fill-opacity:1;stroke-width:0.84216;stroke-linecap:round;stroke-linejoin:round"
     id="rect2848"
     width="2.1166668"
     height="2.1166668"
     x="7.4083333"
     y="12.699999" />
  <path
     id="rect1418"
     style="fill:#b8c2cc;stroke-width:1.32292;stroke-linecap:round;stroke-linejoin:round"
     d="M 2.1166667,3.1750002 H 14.816667 c 0.630799,0 1.058333,0.4193801 1.058333,1.0583332 V 7.6729167 H 1.0583334 V 4.2333334 c 0,-0.6935016 0.3830906,-1.0583332 1.0583333,-1.0583332 z"
     sodipodi:nodetypes="sssccss" />
  <path
     id="rect846"
     style="fill:url(#linearGradient1118);stroke-width:1.30585;stroke-linecap:round;stroke-linejoin:round"
     d="M 1.8520834,3.4395833 H 15.08125 c 0.439738,0 0.79375,0.3540125 0.79375,0.79375 v 8.4666677 c 0,0.439737 -0.354012,0.79375 -0.79375,0.79375 H 1.8520834 c -0.4397375,0 -0.79375,-0.354013 -0.79375,-0.79375 V 4.2333333 c 0,-0.4397375 0.3540125,-0.79375 0.79375,-0.79375 z" />
  <rect
     style="fill:#44484c;fill-opacity:1;stroke-width:1.32292;stroke-linecap:round;stroke-linejoin:round"
     id="rect1839"
     width="7.4083333"
     height="0.5291667"
     x="4.7625003"
     y="15.345834" />
  <path
     id="rect2053"
     style="fill:url(#linearGradient2303);stroke-width:1.32292;stroke-linecap:round;stroke-linejoin:round"
     d="M 1.8520833,3.7041667 H 15.08125 c 0.293159,0 0.529167,0.2360083 0.529167,0.5291667 V 12.7 c 0,0.293159 -0.236008,0.529167 -0.529167,0.529167 H 1.8520833 C 1.558925,13.229167 1.3229166,12.993159 1.3229166,12.7 V 4.2333334 c 0,-0.2931584 0.2360084,-0.5291667 0.5291667,-0.5291667 z" />
  <rect
     x="0.26474145"
     y="0.5291667"
     width="7.4081755"
     height="7.4081755"
     rx="3.7040877"
     ry="3.7040877"
     fill="url(#radialGradient875)"
     id="rect30"
     style="fill:url(#radialGradient875);stroke-width:0.132286" />
  <path
     d="m 3.9879674,0.71437145 c -0.2856716,0.02026 -0.5651327,0.0727 -0.8376671,0.161041 -0.09723,0.0038 -0.3085382,0.12902605 -0.1380514,0.18779705 0.079342,0.08476 0.2687563,0.111734 0.2457539,0.250236 0.030598,0.121741 -0.2829676,0.116217 -0.1785988,0.22648 0.074003,0.09739 0.148003,0.194786 0.2220107,0.292179 0.1366438,-0.04389 0.1817349,-0.183834 0.2575452,-0.291549 0.2110219,-0.09308 0.5096825,-0.121195 0.6491414,-0.300315 0.0437,-0.126704 0.087399,-0.25339705 0.1311,-0.38010105 -0.1170788,-0.04859 -0.2341601,-0.09718 -0.3512339,-0.145781 z m -1.015735,0.03255 c -0.1308901,-0.01412 -0.2146148,0.06632 -0.3123163,0.119056 -0.1202619,0.01473 -0.2561377,0.05949 -0.3319233,0.15621405 0.1349029,0.06122 0.2198623,-0.004 0.3363064,-0.05026 0.1081162,-0.05539 0.4758395,-0.0785 0.3079332,-0.225023 z M 2.1276016,1.1354185 c -0.067293,0.102717 0.047267,0.251385 -0.1066678,0.305291 -0.075984,0.09619 -0.1423852,0.254076 0.047533,0.196786 0.04646,-0.142533 0.1907852,-0.342468 0.3550368,-0.25899 0.1654369,0.04445 0.3185515,0.322453 0.4536273,0.102256 -5.46e-5,-0.05727 -0.2101082,-0.09077 -0.2054164,-0.230876 -0.093471,-0.0401 -0.2932773,0.03277 -0.2863012,-0.112958 -0.1350387,-0.05996 -0.1739317,0.238815 -0.2217885,0.07182 -0.012009,-0.02444 -0.024017,-0.04888 -0.036027,-0.07333 z m 3.6656888,0.129499 c -0.1598313,0.03196 -0.3176999,0.06847 -0.4438363,0.178327 0.036614,0.146386 -0.1522378,0.171018 -0.2362343,0.252273 -0.060943,0.03439 0.00111,0.300044 0.054503,0.258805 0.1135363,-0.149793 0.172265,-0.02058 0.2778064,0.05339 0.094994,0.08823 0.1553127,-0.163844 0.1048555,-0.234901 -0.029605,-0.114521 0.1144228,-0.199242 0.166252,-0.29303 0.1584608,-0.101645 0.024565,0.12968 0.019492,0.210442 -0.079987,0.238666 0.3547897,0.0072 0.068199,0.18555 -0.076874,0.07677 -0.105022,0.190501 -0.2231469,0.247235 -0.063781,0.07785 -0.3072047,0.04136 -0.2744235,-0.08008 -0.088893,-0.139324 -0.066951,0.167684 -0.097151,0.166214 -0.1473237,-0.0439 -0.1911678,0.120542 -0.2835601,0.199218 -0.070706,0.08123 -0.3203171,0.03083 -0.1339645,0.156659 0.1359153,0.156831 -0.027087,0.127828 -0.1395206,0.169597 -0.158893,0.02736 -0.1323348,0.165746 -0.1282232,0.290697 0.00245,0.06886 0.154942,0.171018 0.2321722,0.122992 0.1542629,-0.01652 0.1153391,-0.205836 0.2293078,-0.26357 0.094696,-0.08106 0.1611524,-0.155819 0.3033403,-0.157757 0.065646,0.06265 0.1983291,0.156831 0.2521369,0.208046 -0.1484967,0.161794 0.068205,0.148608 0.088934,0.0012 0.073248,-0.08117 -0.2412718,-0.272177 -0.033861,-0.188254 0.1372857,0.04529 0.105715,0.185538 0.1667952,0.280214 0.1085742,0.183538 0.1202014,0.04658 0.1303097,-0.0954 0.1803889,-0.05667 0.2292829,0.31412 0.4724194,0.22716 0.1822164,0.04788 0.095867,0.165708 -0.019184,0.24179 -0.1050752,0.07664 -0.2617557,0.02411 -0.3770764,-0.0175 -0.1140859,-0.05857 -0.2515816,-0.02499 -0.3116371,0.0915 -0.1333224,-0.115061 -0.2277028,-0.297846 -0.4213891,-0.30797 -0.1833896,-0.0095 -0.3685323,0.03926 -0.5455135,0.08912 -0.1960945,0.230135 -0.4082522,0.454269 -0.4996198,0.748411 -0.094842,0.116551 0.1083064,0.186377 -0.046112,0.29245 -0.1075062,0.100376 0.036614,0.224356 0.058865,0.336911 0.1156947,0.137199 0.2930674,0.588493 0.4717403,0.413932 0.1005511,-0.158868 0.1672272,0.104065 0.2854617,-0.06094 0.099518,-0.09084 0.1801174,0.09127 0.3196752,0.0265 0.1240994,0.06186 0.1348904,0.183118 0.069316,0.299155 -0.042111,0.117812 0.1824385,0.166252 0.1185495,0.303785 -0.030118,0.134495 0.028881,0.248667 0.095693,0.361062 -0.1485093,0.155016 -0.130606,0.384644 -0.093534,0.578887 0.072662,0.266299 0.176722,0.533364 0.1663258,0.813763 0.1301249,0.03413 0.2261101,-0.05205 0.3337137,-0.0973 0.2053793,0.02905 0.3171072,-0.190094 0.4446389,-0.315785 -0.095807,-0.128791 0.078705,-0.184365 0.1508426,-0.267683 -0.1079023,-0.09333 -0.1794011,-0.183944 -0.012348,-0.25673 0.07706,-0.07827 0.2214184,-0.122515 0.2467294,-0.231691 -0.06636,-0.197749 -0.028569,-0.407857 -0.038327,-0.61231 0.081816,-0.164894 0.1686843,-0.32628 0.3045752,-0.453603 0.054194,-0.178808 0.1844512,-0.342702 0.1718202,-0.534635 -0.3167488,0.09476 -0.2211094,-0.04025 -0.045574,-0.16861 0.1218161,-0.08934 0.2950181,-0.172673 0.3320589,-0.324997 0.026586,-0.150337 -0.090903,-0.383756 -0.1931188,-0.162881 -0.049653,-0.07039 -0.2245665,-0.135668 -0.2221464,-0.246162 -0.037459,-0.222825 0.060256,-0.08899 0.1471266,0.01624 0.2020577,-0.149781 0.4657519,0.413389 0.3804713,0.01154 -0.1155265,-0.86967 -0.5565021,-1.691286 -1.2170519,-2.268506 -0.060403,0.06432 -0.1612019,0.30413 -0.2343452,0.165708 -0.1035507,-0.10985 -0.1848217,-0.209022 0.026109,-0.16824 0.2067126,-0.0561 7.934e-4,-0.08872 -0.1075667,-0.101511 -0.1086694,-0.01269 -0.2094416,-0.05249 -0.3117854,-0.08876 z m -4.0459751,0.0054 c -0.1367549,0.05267 0.068102,0.253508 -0.1770801,0.189193 -0.2688056,0.121804 -0.4478735,0.417401 -0.63470773,0.647585 -0.4358106,0.615892 -0.67274878,1.368537 -0.67093378,2.122937 0.0715087,0.147595 0.24763058,0.197613 0.37939738,0.279091 0.1339151,0.04581 0.3025622,0.03889 0.36921113,0.186834 0.074542,0.07806 0.1745614,0.182734 0.2810538,0.191205 0.1636465,-0.05244 0.186723,0.09594 0.1041626,0.2057 -0.00894,0.120227 -0.1427554,0.217195 -0.1278404,0.322935 0.029814,0.118479 -0.1490524,0.248976 -0.028558,0.35737 0.1267662,0.226628 0.2624346,0.446713 0.4338721,0.642449 0.1066321,0.09342 0.093987,0.222048 0.081816,0.350531 -0.042315,0.135792 0.08603,0.214343 0.1549174,0.312835 -0.1678693,0.307784 0.2868198,0.369297 0.4771235,0.503879 0.095675,-0.08749 0.1032799,-0.229098 0.2620025,-0.233049 0.09625,-0.06743 0.1167985,-0.219652 0.1829078,-0.32086 -0.00211,-0.107502 -0.07096,-0.20796 0.040804,-0.325046 0.084213,-0.07108 0.2579897,-0.02368 0.2893386,-0.172068 0.1143946,-0.117833 0.021833,-0.28114 0.021833,-0.424105 0.08886,-0.121722 0.242161,-0.215158 0.2251468,-0.383349 0.01925,-0.250853 -0.4323905,-0.23958 -0.5915304,-0.39167 -0.1956129,-0.0056 -0.1560532,-0.272164 -0.3083283,-0.307575 -0.1511762,0.0076 -0.2061448,-0.110844 -0.2597306,-0.231098 -0.083265,-0.05679 -0.2399755,0.05862 -0.327108,-0.01255 -0.098689,-0.05199 -0.187217,-0.245927 -0.2983026,-0.12473 -0.1462003,0.106005 -0.2899807,0.213689 -0.4286741,0.03621 -0.089946,-0.08105 0.023065,-0.311131 -0.1042861,-0.296636 -0.27186766,0.09834 0.086164,-0.394892 -0.16833846,-0.329454 -0.060277,0.09448 -0.1758947,0.24026 -0.2883138,0.128458 -0.1128957,-0.05312 -0.057205,-0.225838 -0.052171,-0.329281 0.00488,-0.120992 0.158004,-0.181315 0.2460008,-0.236506 0.17067206,0.07633 0.1356437,-0.151139 0.27828806,-0.0751 0.1383724,-0.02947 0.200848,0.192501 0.2570267,0.200774 0.033016,-0.109353 -0.026588,-0.269176 0.074897,-0.341221 0.1185778,-0.09981 0.2750779,-0.170795 0.3043402,-0.338492 0.00243,-0.179142 0.219813,-0.02817 0.2737815,-0.150164 0.049754,-0.13978 0.1948721,-0.13105 0.3174527,-0.157423 0.067049,-0.06221 0.2355676,-0.253829 0.027381,-0.19765 -0.075828,-0.01025 -0.3810889,0.03038 -0.1738081,-0.04266 0.1021044,-0.07729 0.2258629,-0.06658 0.3404797,-0.08176 0.090267,-0.07642 0.2480628,-0.102022 0.2550017,-0.24116 -0.074919,-0.101894 -0.2336168,-0.0825 -0.1662517,-0.228642 -0.00651,-0.191168 -0.1748824,-0.06844 -0.2301968,-0.08298 0.089834,-0.125013 -0.1168121,-0.203725 -0.1861674,-0.205478 -0.047138,0.11781 -0.1796606,0.219454 -0.1328903,0.355049 -0.1381748,0.02244 -0.20291,0.122451 -0.2444328,0.246964 -0.041427,0.01443 -0.027957,-0.244199 -0.1865131,-0.220369 -0.1119957,-0.0027 -0.2504458,-0.16982 -0.1325323,-0.235629 0.1616587,-0.102283 0.3626549,-0.18234 0.4648753,-0.345715 0.058784,-0.146324 -0.049625,-0.236136 -0.1939831,-0.215356 l -0.020128,-0.0014 z m 2.7199116,0.168475 c -0.08922,0.06941 -0.2693365,0.02147 -0.3073652,0.08839 -0.015998,0.134977 0.193588,0.132865 0.277288,0.05835 0.1368043,-0.05058 0.1307049,-0.04135 0.03007,-0.146744 z m -1.9819339,0.06918 c -0.1896122,0.05579 -0.034661,0.179981 0.089117,0.178327 0.147682,-0.01191 0.010279,-0.177265 -0.089117,-0.178327 z m 2.2610987,0.372582 c -0.01356,0.120784 0.1024612,0.196205 0.054542,0.327787 -0.075455,0.165758 0.031428,0.215529 0.1603746,0.113645 0.1722154,-0.105369 -0.1290504,-0.336195 -0.1691904,-0.441428 h -0.04573 z m -0.056791,0.194242 c -0.1547568,-0.03804 -0.1057974,0.285845 5.413e-4,0.174339 0.114512,-0.01999 0.00455,-0.108227 -5.413e-4,-0.174339 z m -1.9750196,0.291919 c 0.022721,0.122828 0.030889,0.317552 0.1208138,0.108391 -1.235e-4,-0.04065 -0.088844,-0.07245 -0.1208138,-0.108391 z m 3.7370542,1.262847 c 0.1818954,0.158597 0.2555819,0.388288 0.358111,0.599026 0.1525594,0.0801 0.06225,0.202601 0.0835,0.305537 0.212417,0.18597 -0.2151087,0.08692 -0.1632267,-0.115974 -0.034663,-0.235653 -0.1860197,-0.392954 -0.3096375,-0.563379 -0.00972,-0.09021 -0.1064911,-0.193106 0.031257,-0.225208 z"
     fill="url(#linearGradient883)"
     id="path32"
     style="fill:url(#linearGradient883);stroke-width:0.132286" />
</svg>
