<?xml version="1.0" encoding="UTF-8" standalone="no"?>
<!-- Created with Inkscape (http://www.inkscape.org/) -->

<svg
   width="64"
   height="64"
   viewBox="0 0 16.933333 16.933334"
   version="1.1"
   id="svg5"
   inkscape:version="1.1.1 (3bf5ae0d25, 2021-09-20, custom)"
   sodipodi:docname="user-home.svg"
   xmlns:inkscape="http://www.inkscape.org/namespaces/inkscape"
   xmlns:sodipodi="http://sodipodi.sourceforge.net/DTD/sodipodi-0.dtd"
   xmlns:xlink="http://www.w3.org/1999/xlink"
   xmlns="http://www.w3.org/2000/svg"
   xmlns:svg="http://www.w3.org/2000/svg">
  <sodipodi:namedview
     id="namedview7"
     pagecolor="#ffffff"
     bordercolor="#666666"
     borderopacity="1.0"
     inkscape:pageshadow="2"
     inkscape:pageopacity="0.0"
     inkscape:pagecheckerboard="0"
     inkscape:document-units="px"
     showgrid="false"
     units="px"
     height="64px"
     inkscape:zoom="4"
     inkscape:cx="-27.5"
     inkscape:cy="28.375"
     inkscape:window-width="1920"
     inkscape:window-height="1019"
     inkscape:window-x="0"
     inkscape:window-y="0"
     inkscape:window-maximized="1"
     inkscape:current-layer="svg5" />
  <defs
     id="defs2">
    <linearGradient
       inkscape:collect="always"
       id="linearGradient2083">
      <stop
         style="stop-color:#bf910d;stop-opacity:1;"
         offset="0"
         id="stop2079" />
      <stop
         style="stop-color:#a87704;stop-opacity:1"
         offset="1"
         id="stop2081" />
    </linearGradient>
    <linearGradient
       inkscape:collect="always"
       id="linearGradient6090">
      <stop
         style="stop-color:#e4a729;stop-opacity:1"
         offset="0"
         id="stop6086" />
      <stop
         style="stop-color:#e2b24b;stop-opacity:0"
         offset="1"
         id="stop6088" />
    </linearGradient>
    <linearGradient
       inkscape:collect="always"
       id="linearGradient4405">
      <stop
         style="stop-color:#fcbc19;stop-opacity:1;"
         offset="0"
         id="stop4401" />
      <stop
         style="stop-color:#f4b61f;stop-opacity:1"
         offset="1"
         id="stop4403" />
    </linearGradient>
    <linearGradient
       inkscape:collect="always"
       id="linearGradient12673">
      <stop
         style="stop-color:#ffffff;stop-opacity:1;"
         offset="0"
         id="stop12669" />
      <stop
         style="stop-color:#ffffff;stop-opacity:0;"
         offset="1"
         id="stop12671" />
    </linearGradient>
    <linearGradient
       inkscape:collect="always"
       id="linearGradient11972">
      <stop
         style="stop-color:#fce798;stop-opacity:1"
         offset="0"
         id="stop11968" />
      <stop
         style="stop-color:#ffc937;stop-opacity:1"
         offset="1"
         id="stop11970" />
    </linearGradient>
    <linearGradient
       inkscape:collect="always"
       xlink:href="#linearGradient11972"
       id="linearGradient11974"
       x1="5.2916665"
       y1="5.5562496"
       x2="13.758334"
       y2="13.493751"
       gradientUnits="userSpaceOnUse"
       gradientTransform="scale(3.7795275)" />
    <linearGradient
       inkscape:collect="always"
       xlink:href="#linearGradient4405"
       id="linearGradient4407"
       x1="32"
       y1="10.5"
       x2="32"
       y2="18.5"
       gradientUnits="userSpaceOnUse" />
    <linearGradient
       inkscape:collect="always"
       xlink:href="#linearGradient12673"
       id="linearGradient5594"
       x1="2"
       y1="22"
       x2="62"
       y2="22"
       gradientUnits="userSpaceOnUse"
       gradientTransform="matrix(0.26458334,0,0,0.26458334,0,-0.26458346)" />
    <linearGradient
       inkscape:collect="always"
       xlink:href="#linearGradient6090"
       id="linearGradient5817"
       gradientUnits="userSpaceOnUse"
       x1="2"
       y1="22"
       x2="62"
       y2="22"
       gradientTransform="matrix(0.26458334,0,0,0.26458334,1.9999999e-8,-0.52916676)" />
    <linearGradient
       inkscape:collect="always"
       xlink:href="#linearGradient2083"
       id="linearGradient2085"
       x1="8.7312508"
       y1="5.8208332"
       x2="8.7312517"
       y2="14.2875"
       gradientUnits="userSpaceOnUse"
       gradientTransform="scale(3.7795275)" />
  </defs>
  <path
     id="rect846"
     style="fill:url(#linearGradient4407);fill-opacity:1;stroke-width:2;stroke-linecap:round;stroke-linejoin:round;stroke-dasharray:24, 2"
     d="M 5,9 C 3.338,9 2,10.338 2,12 2.094521,12.977241 2,40 2,40 H 62 V 17 c 0,-1.108 -0.892,-2 -2,-2 H 29 L 25,11 C 23.634743,9.6637685 22.662,9 21,9 Z"
     transform="scale(0.26458334)"
     sodipodi:nodetypes="scccccccss" />
  <path
     id="rect1170"
     style="fill:url(#linearGradient11974);fill-opacity:1;stroke-width:2.64576;stroke-linecap:round;stroke-linejoin:round;stroke-dasharray:31.749, 2.64576"
     d="m 29,16 -6,4 H 6 c -2.2160001,0 -4,1.784 -4,4 v 30 c 0,1.108 0.8919999,2 2,2 h 56 c 1.108,0 2,-0.892 2,-2 V 18 c 0,-1.108 -0.891997,-2 -2,-2 z"
     sodipodi:nodetypes="ccsccccccsc"
     transform="scale(0.26458334)" />
  <path
     id="rect1170-2"
     style="fill:#e4a729;fill-opacity:1;stroke-width:2.64576;stroke-linecap:round;stroke-linejoin:round;stroke-dasharray:31.749, 2.64576"
     d="M 2 53 L 2 54 C 2 55.107999 2.8919999 56 4 56 L 60 56 C 61.107999 56 62 55.107999 62 54 L 62 53 C 62 54.107999 61.107999 55 60 55 L 4 55 C 2.892 55 2 54.107999 2 53 z "
     transform="scale(0.26458334)" />
  <path
     id="rect1170-75"
     style="opacity:0.3;fill:url(#linearGradient5594);fill-opacity:1;stroke-width:0.700024;stroke-linecap:round;stroke-linejoin:round;stroke-dasharray:8.40026, 0.700024"
     d="M 7.6729169,4.2333333 6.0854168,5.2916667 H 1.5875 c -0.5863167,0 -1.05833332,0.4720167 -1.05833332,1.0583334 v 0.2645833 c 0,-0.5863167 0.47201662,-1.0583333 1.05833332,-1.0583333 H 6.0854168 L 7.6729169,4.4979167 H 15.875 c 0.29316,0 0.529167,0.2360083 0.529167,0.5291666 V 4.7625 c 0,-0.2931583 -0.236007,-0.5291667 -0.529167,-0.5291667 z"
     sodipodi:nodetypes="ccsscsccscssc" />
  <path
     id="rect1170-75-2"
     style="opacity:1;fill:url(#linearGradient5817);fill-opacity:1;stroke-width:0.700024;stroke-linecap:round;stroke-linejoin:round;stroke-dasharray:8.40026, 0.700024"
     d="M 7.6729169,3.96875 6.0854168,5.0270834 H 1.5875 c -0.5863167,0 -1.05833328,0.4720167 -1.05833328,1.0583334 v 0.2645833 c 0,-0.5863167 0.47201658,-1.0583334 1.05833328,-1.0583334 H 6.0854168 L 7.6729169,4.2333333 h 8.2020841 c 0.293159,0 0.529166,0.2360084 0.529166,0.5291667 V 4.4979167 c 0,-0.2931584 -0.236007,-0.5291667 -0.529166,-0.5291667 z"
     sodipodi:nodetypes="ccsscsccscssc" />
  <path
     id="path1889"
     style="fill:url(#linearGradient2085);fill-opacity:1;stroke-width:2;stroke-linecap:round;stroke-linejoin:round"
     d="M 32 23 A 6.9999999 6.9999999 0 0 0 25 30 A 6.9999999 6.9999999 0 0 0 32 37 A 6.9999999 6.9999999 0 0 0 39 30 A 6.9999999 6.9999999 0 0 0 32 23 z M 22 40 C 20.338 40 19 41.338002 19 43 L 19 44 C 19.025682 48.758629 25.245816 51.982236 32 52 C 38.903443 52.017904 45 48.520814 45 44 L 45 43 C 45 41.338002 43.661998 40 42 40 L 22 40 z "
     transform="scale(0.26458334)" />
</svg>
