<?xml version="1.0" encoding="UTF-8" standalone="no"?>
<!-- Created with Inkscape (http://www.inkscape.org/) -->

<svg
   width="64"
   height="64"
   viewBox="0 0 16.933333 16.933334"
   version="1.1"
   id="svg5"
   inkscape:version="1.1.1 (3bf5ae0d25, 2021-09-20, custom)"
   sodipodi:docname="user-trash-full.svg"
   xmlns:inkscape="http://www.inkscape.org/namespaces/inkscape"
   xmlns:sodipodi="http://sodipodi.sourceforge.net/DTD/sodipodi-0.dtd"
   xmlns:xlink="http://www.w3.org/1999/xlink"
   xmlns="http://www.w3.org/2000/svg"
   xmlns:svg="http://www.w3.org/2000/svg">
  <sodipodi:namedview
     id="namedview7"
     pagecolor="#ffffff"
     bordercolor="#666666"
     borderopacity="1.0"
     inkscape:pageshadow="2"
     inkscape:pageopacity="0.0"
     inkscape:pagecheckerboard="0"
     inkscape:document-units="px"
     showgrid="false"
     units="px"
     height="64px"
     inkscape:zoom="22.627417"
     inkscape:cx="43.752232"
     inkscape:cy="39.885242"
     inkscape:window-width="1920"
     inkscape:window-height="996"
     inkscape:window-x="0"
     inkscape:window-y="0"
     inkscape:window-maximized="1"
     inkscape:current-layer="svg5" />
  <defs
     id="defs2">
    <linearGradient
       inkscape:collect="always"
       xlink:href="#linearGradient60807"
       id="linearGradient43497"
       x1="5.0269842"
       y1="1.0583125"
       x2="1.4788554"
       y2="1.415241"
       gradientUnits="userSpaceOnUse"
       gradientTransform="matrix(1.0000197,0,0,1.0000197,9.900072e-7,7.0296379e-5)" />
    <linearGradient
       inkscape:collect="always"
       id="linearGradient60807">
      <stop
         style="stop-color:#b7bfc7;stop-opacity:0.02526831"
         offset="0"
         id="stop60801" />
      <stop
         style="stop-color:#b6bfc6;stop-opacity:0"
         offset="0.36555651"
         id="stop61639" />
      <stop
         style="stop-color:#b6bfc5;stop-opacity:1"
         offset="0.48513398"
         id="stop60809" />
      <stop
         style="stop-color:#b6bfc5;stop-opacity:0"
         offset="0.73108482"
         id="stop60803" />
      <stop
         style="stop-color:#b6bfc5;stop-opacity:1"
         offset="1"
         id="stop60805" />
    </linearGradient>
    <linearGradient
       inkscape:collect="always"
       xlink:href="#linearGradient60807"
       id="linearGradient59848"
       gradientUnits="userSpaceOnUse"
       x1="5.0269852"
       y1="1.0582422"
       x2="1.8391933"
       y2="1.3265172"
       gradientTransform="matrix(-1.0000197,0,0,1.0000197,16.933336,1.4059776e-4)" />
    <linearGradient
       inkscape:collect="always"
       xlink:href="#linearGradient18900"
       id="linearGradient113015"
       gradientUnits="userSpaceOnUse"
       x1="9.3394947"
       y1="4.2414846"
       x2="9.3713646"
       y2="15.277747"
       gradientTransform="matrix(1.0000197,0,0,1.0000197,9.900072e-7,1.4062776e-4)" />
    <linearGradient
       inkscape:collect="always"
       id="linearGradient18900">
      <stop
         style="stop-color:#ffffff;stop-opacity:0.80000001"
         offset="0"
         id="stop18896" />
      <stop
         style="stop-color:#ffffff;stop-opacity:0.58473009"
         offset="0.70040143"
         id="stop94701" />
      <stop
         style="stop-color:#ffffff;stop-opacity:0.08762626"
         offset="0.89186656"
         id="stop23845" />
      <stop
         style="stop-color:#fcfcfc;stop-opacity:0.49152461"
         offset="1"
         id="stop18898" />
    </linearGradient>
    <linearGradient
       inkscape:collect="always"
       xlink:href="#linearGradient91628"
       id="linearGradient91630"
       x1="3.1274393"
       y1="9.5520172"
       x2="5.8981671"
       y2="9.1497135"
       gradientUnits="userSpaceOnUse"
       gradientTransform="matrix(1.0000197,0,0,1.0000197,0,7.01e-5)" />
    <linearGradient
       inkscape:collect="always"
       id="linearGradient91628">
      <stop
         style="stop-color:#cccccc;stop-opacity:1"
         offset="0"
         id="stop91624" />
      <stop
         style="stop-color:#cccccc;stop-opacity:0"
         offset="0.1152868"
         id="stop92528" />
      <stop
         style="stop-color:#cccccc;stop-opacity:0"
         offset="1"
         id="stop91626" />
    </linearGradient>
    <linearGradient
       inkscape:collect="always"
       xlink:href="#linearGradient91628"
       id="linearGradient94280"
       gradientUnits="userSpaceOnUse"
       x1="3.1274393"
       y1="9.5520172"
       x2="5.8981671"
       y2="9.1497135"
       gradientTransform="matrix(-1.0000197,0,0,1.0000197,16.933335,7e-5)" />
    <linearGradient
       inkscape:collect="always"
       xlink:href="#linearGradient122406"
       id="linearGradient122408"
       x1="16.933001"
       y1="2.6457818"
       x2="-1.6117096e-07"
       y2="2.6457815"
       gradientUnits="userSpaceOnUse"
       gradientTransform="matrix(1.0000197,0,0,1.0000197,0.00159749,-1.081e-4)" />
    <linearGradient
       inkscape:collect="always"
       id="linearGradient122406">
      <stop
         style="stop-color:#ffffff;stop-opacity:1;"
         offset="0"
         id="stop122402" />
      <stop
         style="stop-color:#ffffff;stop-opacity:0.60000002"
         offset="0.5"
         id="stop123180" />
      <stop
         style="stop-color:#ffffff;stop-opacity:1"
         offset="1"
         id="stop122404" />
    </linearGradient>
  </defs>
  <path
     style="color:#000000;opacity:0.5;fill:url(#linearGradient43497);fill-opacity:1;stroke:none;stroke-width:1.00002;stroke-linecap:round;stroke-linejoin:round;-inkscape-stroke:none"
     d="M 3.4390593,1.0583333 C 3.369328,1.0589099 3.3026487,1.0869869 3.2535087,1.1364599 L 2.1948938,2.4591031 c -0.058231,0.057784 -0.086372,0.1393081 -0.076172,0.2207075 L 3.7066446,14.851926 4.762501,13.758403 H 5.0270844 V 1.0584036 Z"
     id="path8844-3"
     sodipodi:nodetypes="ccccccccc" />
  <path
     id="path8844-8"
     style="color:#000000;fill:#8e8e8e;fill-opacity:0.253914;stroke:none;stroke-width:1.00002;stroke-linecap:round;stroke-linejoin:round;-inkscape-stroke:none"
     d="m 3.4390598,1.0584036 c -0.069731,5.766e-4 -0.1363783,0.028559 -0.1855183,0.078032 L 3.1465712,1.2697602 H 13.788299 l -0.10697,-0.1333251 c -0.04962,-0.04995 -0.116663,-0.077972 -0.187069,-0.078032 z" />
  <path
     style="color:#000000;opacity:0.5;fill:url(#linearGradient59848);fill-opacity:1;stroke:none;stroke-width:1.00002;stroke-linecap:round;stroke-linejoin:round;-inkscape-stroke:none"
     d="m 13.494277,1.0584036 c 0.06973,5.766e-4 0.136411,0.028654 0.18555,0.078127 l 1.058615,1.3226432 c 0.05823,0.057784 0.08637,0.1393081 0.07617,0.2207075 l -1.587922,12.1721147 -1.055857,-1.093523 -0.264583,-7e-5 V 1.0584036 Z"
     id="path8844-3-9"
     sodipodi:nodetypes="ccccccccc" />
  <path
     style="color:#000000;fill:#c9d1d7;fill-opacity:0.501961;stroke:none;stroke-width:1.00002;stroke-linecap:round;stroke-linejoin:round;-inkscape-stroke:none"
     d="m 3.4390598,1.0584036 c -0.069731,5.766e-4 -0.1364106,0.028654 -0.1855506,0.078127 L 2.1948943,2.4591734 c -0.058231,0.057784 -0.086372,0.1393081 -0.076172,0.2207075 L 3.7066451,14.851996 c 0.01801,0.130803 0.1296866,0.228313 0.2617232,0.228519 h 8.9964397 c 0.132779,7.73e-4 0.245569,-0.09698 0.263678,-0.228519 L 14.814454,2.6798809 c 0.0107,-0.081086 -0.0167,-0.1625624 -0.07422,-0.2207075 L 13.68162,1.1365302 C 13.632,1.0865802 13.564522,1.0584632 13.494116,1.0584032 Z"
     id="path8844"
     sodipodi:nodetypes="ccccccccccccc" />
  <path
     id="rect849"
     style="fill:#9ba1a6;fill-opacity:1;stroke-width:0.264583"
     d="m 13.229168,14.816737 v 0.793627 c 0,0.146579 -0.118005,0.264583 -0.264584,0.264583 H 3.968751 c -0.1465792,0 -0.2645833,-0.118004 -0.2645833,-0.264583 V 14.816737 L 4.762501,13.758403 h 7.408333 z"
     sodipodi:nodetypes="csssscccc" />
  <path
     style="clip-rule:evenodd;opacity:0.997;fill-rule:evenodd;stroke-width:0.0671756;image-rendering:optimizeQuality;shape-rendering:geometricPrecision;text-rendering:geometricPrecision"
     fill="#cacdce"
     d="m 6.8533464,0.368801 c 0.015786,-0.040086 0.049374,-0.062478 0.1007631,-0.067176 0.3615386,0.1821249 0.6861977,0.4172404 0.9740442,0.7053426 0.335139,0.033541 0.671016,0.044732 1.007633,0.033588 -0.250498,0.340405 -0.474394,0.698672 -0.671755,1.0748077 -0.258088,0.024344 -0.52679,0.00196 -0.8061061,-0.067176 C 7.234903,2.1017533 7.0109401,2.1465393 6.7861708,2.1825383 6.5601859,2.2246703 6.425835,2.1351063 6.383118,1.9138364 6.5880772,1.5037839 6.7560091,1.0783347 6.8869341,0.6375022 6.9383231,0.5323229 6.9271051,0.4427558 6.8533464,0.368801 Z"
     id="path2" />
  <path
     fill="#d7e0e4"
     d="M 11.354104,0.6375029 C 10.929354,1.1185802 10.39195,1.3872821 9.7418917,1.4436088 9.4205247,1.2793042 9.1966287,1.0329919 9.0701377,0.7046784 c 0.09713,-0.096743 0.220268,-0.1415273 0.369465,-0.1343509 0.3440053,0.09907 0.6910343,0.1886354 1.0412203,0.2687019 0.294699,-0.056904 0.58577,-0.1240798 0.873281,-0.2015265 z"
     id="path6"
     style="clip-rule:evenodd;fill-rule:evenodd;stroke-width:0.0671756;image-rendering:optimizeQuality;shape-rendering:geometricPrecision;text-rendering:geometricPrecision" />
  <path
     style="clip-rule:evenodd;opacity:0.998;fill-rule:evenodd;stroke-width:0.0671756;image-rendering:optimizeQuality;shape-rendering:geometricPrecision;text-rendering:geometricPrecision"
     fill="#c9cdce"
     d="m 11.354104,0.6375029 c 0.182541,0.7438019 0.25749,0.9194214 0.470228,1.4106851 0.08048,0.02953 0.15887,0.051927 0.235115,0.067176 0.03339,0.155162 0.04454,0.3119091 0.03359,0.4702284 H 9.2044917 C 9.1596817,2.4512415 9.1149517,2.3168906 9.0701407,2.1825394 9.4334257,2.0654258 9.6573887,1.8191201 9.7418947,1.4436092 10.391953,1.3872822 10.929357,1.1185806 11.354107,0.6375033 Z"
     id="path10"
     sodipodi:nodetypes="cccccccc" />
  <path
     fill="#f8f6f5"
     d="m 9.0701377,0.7046784 c 0.126491,0.3283135 0.350387,0.5746258 0.671754,0.7389304 -0.08451,0.3755109 -0.308469,0.6218166 -0.671754,0.7389302 -0.242638,0.067941 -0.488971,0.079139 -0.738931,0.033588 -0.03735,-0.025702 -0.05972,-0.059289 -0.06718,-0.1007632 0.197361,-0.3761357 0.421257,-0.7344027 0.671755,-1.0748077 0.01988,-0.127835 0.06469,-0.2397964 0.134351,-0.3358775 z"
     id="path18"
     style="clip-rule:evenodd;fill-rule:evenodd;stroke-width:0.0671756;image-rendering:optimizeQuality;shape-rendering:geometricPrecision;text-rendering:geometricPrecision" />
  <path
     fill="#eae8e7"
     d="m 13.167842,0.7718539 c -0.08229,0.043812 -0.127096,0.1221855 -0.134351,0.2351142 -0.0753,0.5270857 -0.142479,1.0532982 -0.201526,1.5786239 -0.246333,0 -0.492598,0 -0.738931,0 0.01095,-0.1583193 -2.01e-4,-0.3150664 -0.03359,-0.4702284 -0.07625,-0.015248 -0.154638,-0.037645 -0.235115,-0.067176 0.361942,-0.2946249 0.67545,-0.6305023 0.940457,-1.0076321 0.08578,-0.1107321 0.152959,-0.2338849 0.201527,-0.3694652 0.100629,-0.039277 0.167804,-0.00569 0.201526,0.1007632 z"
     id="path22"
     style="clip-rule:evenodd;fill-rule:evenodd;stroke-width:0.0671756;image-rendering:optimizeQuality;shape-rendering:geometricPrecision;text-rendering:geometricPrecision" />
  <path
     style="clip-rule:evenodd;opacity:0.998;fill-rule:evenodd;stroke-width:0.0671756;image-rendering:optimizeQuality;shape-rendering:geometricPrecision;text-rendering:geometricPrecision"
     fill="#fcfcfb"
     d="m 6.8533464,0.368801 c 0.073759,0.073956 0.084977,0.1635226 0.033588,0.2687019 C 6.7560094,1.0783354 6.5880775,1.5037846 6.3831183,1.9138371 6.4258353,2.1351066 6.5601862,2.2246715 6.7861711,2.182539 6.6516188,2.3492619 6.472502,2.4164375 6.2487674,2.3840655 6.1497974,2.3456415 6.0602327,2.2896575 5.9800653,2.2161268 5.5776306,2.1825728 5.1745775,2.1713748 4.7709067,2.1825388 4.8723887,1.688302 5.0963114,1.2628528 5.4426616,0.9062047 c 0.056307,0.022954 0.078703,0.06774 0.067175,0.134351 C 5.6222078,1.197706 5.7565587,1.3320569 5.9128896,1.4436086 6.1121791,1.3335885 6.2913092,1.1992376 6.4502936,1.0405557 6.61136,0.8342463 6.7457313,0.6103262 6.8533464,0.368801 Z"
     id="path26" />
  <path
     style="clip-rule:evenodd;opacity:0.639;fill-rule:evenodd;stroke-width:0.0671756;image-rendering:optimizeQuality;shape-rendering:geometricPrecision;text-rendering:geometricPrecision"
     fill="#cbd3d8"
     d="m 5.5098366,1.0405559 c 0.3134879,0 0.6269691,0 0.940457,0 C 6.2913092,1.1992378 6.1121791,1.3335887 5.9128896,1.4436088 5.7565587,1.3320571 5.6222078,1.1977062 5.5098366,1.0405559 Z"
     id="path30" />
  <path
     fill="#d7e0e4"
     d="m 8.2640317,2.1153636 c 0.0075,0.041474 0.02983,0.075062 0.06718,0.1007632 0.24996,0.045552 0.496293,0.034353 0.738931,-0.033588 0.04481,0.1343512 0.08955,0.2687021 0.134351,0.403053 -0.470766,0.011171 -0.940995,-2.7e-5 -1.410686,-0.033588 C 7.6038359,2.3787247 7.3798727,2.3003509 7.1220532,2.3168898 6.7566858,2.2739578 6.7118797,2.3523318 6.9877023,2.5520038 c -0.2902651,0.033521 -0.5813298,0.044719 -0.8732812,0.033588 0.044786,-0.067176 0.089565,-0.1343509 0.134351,-0.2015265 0.2237346,0.032372 0.4028514,-0.034804 0.5374037,-0.2015265 0.2247693,-0.035999 0.4487322,-0.080785 0.6717548,-0.134351 0.2793161,0.06913 0.5480181,0.09152 0.8061061,0.067176 z"
     id="path38"
     style="clip-rule:evenodd;fill-rule:evenodd;stroke-width:0.0671756;image-rendering:optimizeQuality;shape-rendering:geometricPrecision;text-rendering:geometricPrecision" />
  <path
     fill="#f0f3f5"
     d="m 2.4197643,2.6527676 c 0.5826197,-0.011179 1.1648028,1.32e-5 1.7465628,0.033587 -0.030726,0.027811 -0.053116,0.061398 -0.067176,0.1007634 0.1012468,0.083217 0.1796206,0.060821 0.2351143,-0.067176 0.067175,0.1343509 0.134351,0.2687019 0.2015263,0.4030531 0.1971736,0.1422373 0.3763105,0.2989844 0.5374039,0.4702283 0.2877058,-0.1756841 0.556408,-0.3772106 0.8061058,-0.6045795 0.033151,-0.1097714 0.044349,-0.2217328 0.033588,-0.3358772 0.179137,0 0.358267,0 0.537404,0 C 6.2196529,2.8021782 6.1972567,2.9813086 6.3831174,3.1901704 6.3310024,3.3148415 6.2414375,3.4044133 6.1144155,3.4588725 6.7528512,3.8369629 7.4469755,4.0384894 8.1968547,4.0634518 7.8773687,4.4880546 7.4519465,4.7455582 6.9205213,4.8359698 6.8137122,4.906222 6.7129491,4.9845955 6.6182317,5.0710841 6.5958427,5.048695 6.5734457,5.0262981 6.5510557,5.0039085 6.5278197,5.1616163 6.4494528,5.2847759 6.3159414,5.3733737 6.3995744,5.4265364 6.48914,5.460124 6.5846435,5.4741369 6.530837,5.6967238 6.407684,5.8758607 6.2151793,6.0115417 5.9832357,6.3616535 6.0056253,6.6975309 6.2823549,7.019174 6.6049179,7.1313571 6.6385192,7.2768591 6.383118,7.4558146 5.8679155,7.6057503 5.352908,7.7513195 4.8380817,7.8924551 4.6073608,7.4375427 4.3946363,6.9673144 4.1999146,6.4817701 4.0879533,6.3698087 3.9759988,6.257854 3.8640372,6.1458926 3.8507313,6.2722968 3.8171422,6.3842581 3.7632741,6.4817701 3.784327,6.2972457 3.7619247,6.1181156 3.6960985,5.9443661 3.6345122,5.9022336 3.5673366,5.8798374 3.4945722,5.8771908 c 0.1596491,-0.093193 0.3387794,-0.14917 0.5374037,-0.1679387 0.358267,-0.044786 0.7165409,-0.044786 1.0748079,0 0.1208083,0.2080223 0.232763,0.4207401 0.3358775,0.638167 0.074471,-0.073194 0.1416463,-0.073194 0.2015265,0 C 5.1888922,7.0792289 5.3904188,7.3926697 6.2487671,7.2878759 6.2089856,7.0735189 6.1306121,6.8719924 6.0136528,6.6832966 5.672885,6.4641904 5.6616868,6.2626638 5.980065,6.078717 6.0788064,5.8924395 6.1683713,5.7021112 6.2487671,5.5077256 5.6930579,5.1732052 5.0884784,4.9716786 4.435029,4.9031463 4.6922574,4.7348379 4.9721506,4.6116784 5.2747226,4.533681 5.2217882,4.3906711 5.1770024,4.233924 5.1403716,4.0634527 4.6991697,4.2240825 4.2849187,4.4703951 3.897625,4.8023829 3.9326704,4.5766398 3.8878857,4.3303273 3.7632741,4.0634527 3.6210031,3.9663236 3.4642626,3.9215376 3.2930457,3.9291018 3.3186997,4.2004772 3.2515247,4.4467895 3.0915192,4.668032 3.1139082,4.712818 3.1363052,4.757597 3.1586952,4.8023829 3.0740067,4.9336035 2.9956329,5.0679544 2.9235805,5.2054359 2.7275221,4.5655961 2.581973,3.9050326 2.4869399,3.2237591 c 0.08274,-0.1361379 0.06035,-0.2257028 -0.067176,-0.2687019 0.061345,-0.09498 0.061345,-0.1957427 4e-7,-0.3022896 z"
     id="path42"
     style="clip-rule:evenodd;fill-rule:evenodd;stroke-width:0.0671756;image-rendering:optimizeQuality;shape-rendering:geometricPrecision;text-rendering:geometricPrecision" />
  <path
     fill="#e1e4e5"
     d="m 9.2044887,2.6527676 c 1.0750093,-0.011192 2.1498173,6.6e-6 3.2244233,0.033587 0.123939,0.075774 0.25829,0.1093618 0.403053,0.1007634 0,0.067175 0,0.1343509 0,0.2015263 0.275419,-0.00164 0.544121,-0.046418 0.806105,-0.134351 0.138987,-0.021778 0.161356,-0.077755 0.06718,-0.1679387 0.245325,-0.033494 0.49159,-0.044692 0.73893,-0.033587 -0.04555,0.5864082 -0.13509,1.1685979 -0.268702,1.7465625 -0.02096,0.3774927 -0.09935,0.7581493 -0.235114,1.1419832 -0.0028,-0.218468 -0.05878,-0.4311861 -0.167939,-0.638167 0.05105,-0.1232469 0.07349,-0.2575978 0.06718,-0.4030531 -0.03359,-0.1007631 -0.06718,-0.2015265 -0.100763,-0.3022896 -0.175328,0.4741111 -0.410442,0.9107517 -0.705343,1.3099219 0.02237,0.022389 0.04481,0.044786 0.06718,0.067176 C 13.045259,5.7615217 13.000453,5.95185 12.966328,6.145893 12.759159,5.9605087 12.602438,5.7365929 12.496099,5.4741382 12.388954,4.9423301 12.344215,4.4049262 12.361748,3.8619266 c -0.24734,0.011105 -0.493605,-9.4e-5 -0.73893,-0.033588 -0.53821,-0.1347674 -1.075614,-0.2467288 -1.612211,-0.3358775 0.269575,0.2924149 0.471101,0.6282923 0.604579,1.0076323 -0.169282,0.2025341 -0.370809,0.3704728 -0.604579,0.5038162 -0.0075,-0.041474 -0.02983,-0.075062 -0.06718,-0.1007631 -0.5269253,-0.011488 -1.0419593,-0.045075 -1.5450363,-0.1007634 -0.01935,-0.2261328 -0.0305,-0.4500489 -0.03359,-0.6717549 0.360799,0.2979637 0.775071,0.4547111 1.242746,0.4702286 0.01115,-0.3813151 -6.7e-5,-0.7619783 -0.03359,-1.1419832 -0.05784,-0.1926728 -0.16982,-0.3494135 -0.335878,-0.4702286 -0.03318,-0.1097714 -0.04434,-0.2217328 -0.03359,-0.3358774 z"
     id="path46"
     style="clip-rule:evenodd;fill-rule:evenodd;stroke-width:0.0671756;image-rendering:optimizeQuality;shape-rendering:geometricPrecision;text-rendering:geometricPrecision" />
  <path
     fill="#edf0f2"
     d="m 6.4502936,2.6527676 c 0.2250376,-0.011083 0.4489336,1.14e-4 0.6717546,0.033587 0.2306807,0.4658352 0.4770133,0.4770266 0.7389305,0.033588 0.275621,0.1943857 0.521886,0.4183018 0.73893,0.6717549 0.175127,-0.042784 0.331847,-0.1211509 0.470229,-0.2351143 C 7.6094065,2.6941137 7.6542126,2.526175 9.2044887,2.6527673 c -0.01075,0.1141444 3.97e-4,0.2261058 0.03359,0.3358772 0.166058,0.1208151 0.27804,0.2775558 0.335878,0.4702286 0.03352,0.3800049 0.04474,0.7606681 0.03359,1.1419832 -0.467675,-0.015518 -0.881947,-0.1722649 -1.242746,-0.4702286 0.0031,0.221706 0.01424,0.4456221 0.03359,0.6717549 -0.732213,-0.1367758 -1.3591618,0.053552 -1.8809138,0.5709917 0.03735,0.025702 0.059739,0.059289 0.067176,0.1007631 -0.095504,-0.014012 -0.1850686,-0.0476 -0.2687021,-0.1007631 0.1335114,-0.088598 0.2118783,-0.2117574 0.2351143,-0.3694652 0.022389,0.022389 0.044786,0.044786 0.067176,0.067176 C 6.7129497,4.9845964 6.8137128,4.9062228 6.9205219,4.8359707 7.4519471,4.7455591 7.8773697,4.4880555 8.1968557,4.0634527 7.4469761,4.0384892 6.7528518,3.8369638 6.1144161,3.4588734 6.2414381,3.4044142 6.3310033,3.3148424 6.383118,3.1901713 6.1972569,2.9813095 6.2196531,2.8021791 6.4502936,2.6527676 Z"
     id="path50"
     style="clip-rule:evenodd;fill-rule:evenodd;stroke-width:0.0671756;image-rendering:optimizeQuality;shape-rendering:geometricPrecision;text-rendering:geometricPrecision" />
  <path
     fill="#eaeff2"
     d="m 12.966316,6.1458926 c 7.4e-4,0.1019321 0.04548,0.1803056 0.134351,0.2351143 0.128372,0.1004877 0.262723,0.1900529 0.403053,0.2687019 -0.447859,-0.02775 -0.839694,-0.195689 -1.175571,-0.5038162 -0.01122,0.044786 -0.02237,0.089565 -0.03359,0.134351 0.102308,0.7563289 0.169484,1.5176286 0.201526,2.2839664 0.212745,0.3806836 0.425423,0.7613 0.638167,1.1419833 0.10466,0.1248793 0.227793,0.2256424 0.369466,0.3022897 C 13.106376,9.9996829 12.725693,9.8989197 12.361736,9.7061933 12.281663,9.3438488 12.1809,8.9856019 12.059447,8.6313856 11.731227,8.3198927 11.361762,8.2750868 10.951051,8.4970347 c 0.01102,-0.1805006 -2.01e-4,-0.3596577 -0.03359,-0.537404 -0.07335,0.1086229 -0.174118,0.1757982 -0.302289,0.2015266 0.214088,-0.6108269 0.415614,-1.2266246 0.604579,-1.847326 -0.02237,-0.033588 -0.04481,-0.067176 -0.06718,-0.1007631 -0.173246,0.08102 -0.341185,0.1705854 -0.503816,0.2687019 -0.119976,-0.2174135 -0.220739,-0.4413295 -0.30229,-0.6717549 0.05125,-0.051584 0.11843,-0.085172 0.201526,-0.1007631 -0.09216,-0.083425 -0.15934,-0.1841887 -0.201526,-0.3022897 -0.212476,-0.055359 -0.324458,-0.1897105 -0.335877,-0.403053 0.23377,-0.1333434 0.435297,-0.3012821 0.604579,-0.5038162 -0.133478,-0.37934 -0.335004,-0.7152174 -0.604579,-1.0076323 0.536597,0.089149 1.074001,0.2011101 1.612211,0.3358775 0.245325,0.033494 0.49159,0.044692 0.73893,0.033588 -0.01753,0.5429996 0.02721,1.0804035 0.134351,1.6122115 0.106339,0.2624548 0.26306,0.4863706 0.470229,0.6717549 z"
     id="path54"
     style="clip-rule:evenodd;fill-rule:evenodd;stroke-width:0.0671756;image-rendering:optimizeQuality;shape-rendering:geometricPrecision;text-rendering:geometricPrecision" />
  <path
     fill="#fcfbfa"
     d="M 3.4945722,5.8771908 C 3.4206119,5.9644988 3.3310468,5.9980863 3.2258701,5.9779539 3.3825437,5.5428987 3.6064598,5.1510439 3.897625,4.8023829 4.2849187,4.4703951 4.6991697,4.2240825 5.1403716,4.0634527 5.1770026,4.233924 5.2217886,4.3906711 5.2747226,4.533681 4.9721506,4.6116783 4.6922574,4.7348379 4.435029,4.9031463 5.0884784,4.9716787 5.6930579,5.1732052 6.2487671,5.5077256 6.1683713,5.7021112 6.0788064,5.8924395 5.980065,6.078717 5.6616868,6.2626638 5.672885,6.4641904 6.0136528,6.6832966 6.1306121,6.8719924 6.2089856,7.0735189 6.2487671,7.2878759 5.3904188,7.3926697 5.1888922,7.0792289 5.6441878,6.3474191 c -0.05988,-0.073194 -0.1270558,-0.073194 -0.2015265,0 C 5.3395468,6.1299922 5.2275921,5.9172744 5.1067838,5.7092521 c -0.358267,-0.044786 -0.7165409,-0.044786 -1.0748079,0 -0.1986243,0.018769 -0.3777546,0.074746 -0.5374037,0.1679387 z"
     id="path58"
     style="clip-rule:evenodd;fill-rule:evenodd;stroke-width:0.0671756;image-rendering:optimizeQuality;shape-rendering:geometricPrecision;text-rendering:geometricPrecision" />
  <path
     style="clip-rule:evenodd;opacity:0.828;fill-rule:evenodd;stroke-width:0.0671756;image-rendering:optimizeQuality;shape-rendering:geometricPrecision;text-rendering:geometricPrecision"
     fill="#e7eaed"
     d="m 2.2854134,2.6527676 c 0.044786,0 0.089565,0 0.1343509,0 0.061345,0.1065469 0.061345,0.20731 0,0.3022896 0.127526,0.042999 0.1499156,0.132564 0.067176,0.2687019 0.095033,0.6812735 0.2405822,1.341837 0.4366406,1.9816768 C 2.9956329,5.0679544 3.0740071,4.9336035 3.1586952,4.8023829 3.1363062,4.7575971 3.1139092,4.712818 3.0915192,4.668032 3.2515247,4.4467895 3.3187,4.2004772 3.2930457,3.9291018 c 0.1712169,-0.00756 0.3279574,0.037222 0.4702284,0.1343509 0.1246105,0.2668746 0.1693963,0.5131871 0.1343509,0.7389302 -0.2911652,0.348661 -0.5150813,0.7405158 -0.6717549,1.175571 0.1051767,0.020132 0.1947418,-0.013454 0.2687021,-0.1007631 0.072764,0.00265 0.13994,0.025043 0.2015263,0.067175 0.065832,0.1737495 0.088228,0.3528795 0.067176,0.5374039 -0.1040954,0.4626378 -0.1376832,0.9328662 -0.1007635,1.4106854 0.3219921,0.027475 0.6242817,0.1170197 0.9068689,0.2687022 0.1287888,-0.017063 0.218354,-0.084238 0.2687018,-0.2015266 0.1840677,0.1563844 0.1392817,0.2459967 -0.1343509,0.2687019 -0.085535,0.050852 -0.085535,0.095591 0,0.1343509 0.011419,0.088806 -0.010978,0.1672 -0.067175,0.2351143 0.1750391,0.1544365 0.1750391,0.3000058 0,0.4366406 C 4.5705824,8.8586402 4.4362315,8.7018526 4.2335024,8.56421 4.0969684,9.206475 4.0297929,9.8558604 4.0319759,10.512299 c -0.059847,0.05112 -0.1046324,0.118297 -0.1343509,0.201527 0.00823,0.126155 0.00823,0.249288 0,0.369465 -0.1463418,0.02969 -0.1911276,0.09687 -0.1343509,0.201527 -0.05587,0.04622 -0.1006557,0.035 -0.1343509,-0.03359 -0.088826,-0.253922 -0.1560018,-0.511405 -0.2015266,-0.772516 0.00778,-0.08518 0.030169,-0.174791 0.067176,-0.268702 C 3.301456,9.6095949 3.1671051,8.9938645 3.0915192,8.3626835 3.108688,8.2828119 3.1310789,8.2044182 3.1586948,8.1275695 2.864399,6.3025323 2.5733007,4.4776029 2.2854134,2.6527676 Z"
     id="path70" />
  <path
     style="clip-rule:evenodd;opacity:0.999;fill-rule:evenodd;stroke-width:0.0671756;image-rendering:optimizeQuality;shape-rendering:geometricPrecision;text-rendering:geometricPrecision"
     fill="#fcfbfa"
     d="m 4.8380817,7.8924551 c 0,0.022371 0,0.044806 0,0.067176 C 4.7877339,8.0769192 4.6981687,8.1440945 4.5693799,8.1611573 4.2867927,8.0094748 3.9845031,7.91993 3.662511,7.8924551 3.6255913,7.4146359 3.6591799,6.9444075 3.7632741,6.4817701 3.8171422,6.3842581 3.85073,6.2722968 3.8640372,6.1458926 3.9759988,6.257854 4.0879533,6.3698087 4.1999146,6.4817701 4.3946363,6.9673144 4.6073608,7.4375427 4.8380817,7.8924551 Z"
     id="path74" />
  <path
     style="clip-rule:evenodd;opacity:0.769;fill-rule:evenodd;stroke-width:0.0671756;image-rendering:optimizeQuality;shape-rendering:geometricPrecision;text-rendering:geometricPrecision"
     fill="#d8dee1"
     d="m 14.444176,2.6527676 c 0.04481,0 0.08955,0 0.134351,0 -0.154839,1.1856202 -0.356366,2.3276034 -0.604579,3.4259494 0.01713,0.225683 0.03957,0.4272093 0.06718,0.6045796 -0.1584,0.8910156 -0.248012,1.7754479 -0.268703,2.6534314 -0.192188,0.964237 -0.32654,1.927064 -0.403052,2.888547 -0.371279,0.627217 -0.751896,1.243015 -1.141984,1.847325 0.01156,0.06664 -0.01088,0.111377 -0.06717,0.134351 -0.101972,-0.273135 -0.15793,-0.564207 -0.167939,-0.873281 -0.02795,-0.630442 -0.05031,-1.257391 -0.06718,-1.880914 0.273941,0.291609 0.598601,0.42596 0.974044,0.403053 -0.177545,-0.09915 -0.323114,-0.233501 -0.43664,-0.403053 0.0016,-0.306051 -0.0095,-0.619559 -0.03359,-0.940457 -0.17123,-0.004 -0.305581,0.06321 -0.403053,0.201527 -0.08095,-0.07235 -0.125753,-0.161893 -0.134351,-0.268702 0.09929,0.0176 0.18883,-0.0048 0.268702,-0.06718 0.121722,-0.208445 0.188897,-0.4323416 0.201526,-0.6717551 0.363957,0.1927264 0.74464,0.2934896 1.141984,0.3022891 C 13.362047,9.9318357 13.238914,9.8310726 13.134254,9.7061933 12.92151,9.32551 12.708832,8.9448936 12.496087,8.56421 12.464045,7.7978722 12.396869,7.0365725 12.294561,6.2802436 c 0.01122,-0.044786 0.02237,-0.089565 0.03359,-0.134351 0.335877,0.3081272 0.727712,0.4760659 1.175571,0.5038162 -0.14033,-0.078649 -0.274681,-0.1682142 -0.403053,-0.2687019 -0.08887,-0.054809 -0.133612,-0.1331822 -0.134351,-0.2351143 0.03412,-0.194043 0.07893,-0.3843713 0.134351,-0.5709915 -0.02237,-0.022389 -0.04481,-0.044786 -0.06718,-0.067175 0.294901,-0.3991703 0.530015,-0.8358109 0.705343,-1.309922 0.03359,0.1007631 0.06718,0.2015265 0.100763,0.3022896 0.0063,0.1454553 -0.01612,0.2798062 -0.06718,0.4030531 0.109161,0.2069809 0.165118,0.419699 0.167939,0.638167 C 14.076116,5.1574799 14.15451,4.7768233 14.175468,4.3993306 14.30908,3.821366 14.398625,3.2391763 14.44417,2.6527681 Z"
     id="path78" />
  <path
     fill="#dae8f2"
     d="m 8.3983827,4.8023829 c 0.503077,0.055688 1.018111,0.089276 1.5450363,0.1007634 0.03735,0.025702 0.05972,0.059289 0.06718,0.1007631 0.01142,0.2133425 0.123401,0.3476937 0.335877,0.403053 0.04219,0.118101 0.109362,0.2188644 0.201526,0.3022897 -0.0831,0.015592 -0.150271,0.049179 -0.201526,0.1007631 C 10.252966,5.69094 10.174574,5.5565891 10.111362,5.4069624 10.050702,5.3262576 9.9723752,5.2702736 9.876247,5.2390237 9.2720707,5.2054494 8.6674917,5.1942578 8.0625087,5.2054359 7.6957977,5.1787873 7.3375514,5.2123759 6.9877013,5.306199 6.7196712,5.7190125 6.4957821,6.1556531 6.3159464,6.616121 6.7557445,6.9427954 7.2371912,7.2114973 7.7602197,7.4222268 8.0293917,7.018435 8.2645057,6.5930194 8.4655617,6.1458926 c 0.233704,0.3323103 0.43523,0.6905641 0.60458,1.0748077 -0.201527,0.1231328 -0.403053,0.2463326 -0.60458,0.3694652 0.65926,0.2307479 1.3086463,0.4658619 1.9480893,0.7053427 C 10.212595,8.2528522 10.011069,8.2417002 9.809072,8.2619202 9.761312,8.3462252 9.7053527,8.4245521 9.6411327,8.4970345 9.3487137,8.2872455 9.0239877,8.1417435 8.6670847,8.0603939 8.4880617,7.9205346 8.3425597,7.7525959 8.2304437,7.5565777 c -0.168409,0.022572 -0.347499,0.06731 -0.537404,0.1343512 -0.078394,-0.011218 -0.1567201,-0.022371 -0.2351141,-0.033588 0.1721708,-0.051255 0.1721708,-0.084843 0,-0.1007634 -0.1157433,0.070669 -0.2277247,0.070669 -0.3358774,0 0.067243,0.4699598 0.1904426,0.9401882 0.3694652,1.4106854 0.054076,0.2146927 0.042858,0.4162192 -0.033588,0.6045792 C 7.226103,8.9216507 6.9797706,8.2722653 6.7189954,7.6237533 6.0303056,7.8456339 5.3585508,8.0918991 4.7037308,8.3626835 c -0.085535,-0.03876 -0.085535,-0.083499 0,-0.1343509 0.2736326,-0.022704 0.3184186,-0.1123175 0.1343509,-0.2687019 0,-0.022371 0,-0.044806 0,-0.067176 C 5.352908,7.7513195 5.8679155,7.6057503 6.383118,7.4558146 6.6385192,7.2768591 6.6049179,7.1313571 6.2823549,7.019174 6.0056253,6.6975309 5.9832357,6.3616535 6.2151793,6.0115417 6.407684,5.8758607 6.530837,5.6967238 6.5846445,5.4741378 6.5772045,5.4326638 6.5548185,5.3990759 6.5174685,5.3733746 7.0392205,4.8559353 7.6661693,4.6656071 8.3983827,4.8023829 Z"
     id="path82"
     style="clip-rule:evenodd;fill-rule:evenodd;stroke-width:0.0671756;image-rendering:optimizeQuality;shape-rendering:geometricPrecision;text-rendering:geometricPrecision" />
  <path
     fill="#f3f5f7"
     d="m 10.413647,8.2955082 c 0.112788,0.014444 0.179964,-0.030363 0.201527,-0.1343509 0.128171,-0.025728 0.228934,-0.092904 0.302289,-0.2015266 0.03339,0.1777463 0.04461,0.3569034 0.03359,0.537404 0.0088,0.058846 -0.01357,0.1036516 -0.06717,0.1343509 -0.263395,0.1430166 -0.532097,0.2662164 -0.806106,0.369465 -0.1042568,0.1976974 -0.216238,0.3880728 -0.3358783,0.5709917 -0.1981,0.104525 -0.377257,0.082088 -0.537403,-0.067176 -0.261716,0.2670226 -0.530418,0.5245067 -0.806106,0.7725187 -0.06368,0.03245 -0.130858,0.0436 -0.201527,0.03359 0.01532,0.124611 -0.02949,0.180568 -0.134351,0.167939 -0.166729,-0.289325 -0.368256,-0.5468089 -0.6045791,-0.7725186 0,-0.044806 0,-0.089545 0,-0.134351 0.076446,-0.18836 0.087664,-0.3898865 0.033588,-0.6045792 C 7.3124908,8.4967659 7.189291,8.0265375 7.1220482,7.5565777 c 0.1081527,0.070669 0.2201341,0.070669 0.3358774,0 0.1721708,0.01592 0.1721708,0.049508 0,0.1007634 0.078394,0.011218 0.1567204,0.022371 0.2351141,0.033588 0.189905,-0.067041 0.368995,-0.1117801 0.537404,-0.1343512 0.112116,0.1960182 0.257618,0.3639569 0.436641,0.5038162 0.356903,0.08135 0.681629,0.2268516 0.974044,0.4366408 0.06422,-0.072482 0.1201773,-0.1508091 0.1679393,-0.2351143 0.201997,-0.02022 0.403523,-0.00907 0.604579,0.033588 z"
     id="path90"
     style="clip-rule:evenodd;fill-rule:evenodd;stroke-width:0.0671756;image-rendering:optimizeQuality;shape-rendering:geometricPrecision;text-rendering:geometricPrecision" />
  <path
     fill="#cfe1ec"
     d="m 12.361736,9.7061933 c -0.01263,0.2394135 -0.0798,0.4633097 -0.201526,0.6717557 -0.07987,0.06241 -0.169417,0.08477 -0.268702,0.06718 0.0038,-0.0745 0.0262,-0.141674 0.06718,-0.201527 0.177007,-0.242101 0.232964,-0.5108029 0.167938,-0.8061062 C 11.985961,9.088049 11.795585,8.774541 11.555635,8.4970391 11.068948,8.734773 10.587569,8.9811054 10.111362,9.2359693 c 0.140934,0.3278164 0.286503,0.6636938 0.43664,1.0076327 -0.246332,0 -0.492598,0 -0.73893,0 C 9.830102,10.005666 9.807672,9.7817701 9.741892,9.5718467 9.8615323,9.3889278 9.9735132,9.1985524 10.07777,9.000855 10.351779,8.8976064 10.620481,8.7744066 10.883876,8.63139 c 0.05361,-0.030699 0.07597,-0.075505 0.06717,-0.1343509 0.410711,-0.2219479 0.780176,-0.177142 1.108396,0.1343509 0.121453,0.3542163 0.222216,0.7124632 0.302289,1.0748077 z"
     id="path94"
     style="clip-rule:evenodd;fill-rule:evenodd;stroke-width:0.0671756;image-rendering:optimizeQuality;shape-rendering:geometricPrecision;text-rendering:geometricPrecision" />
  <path
     fill="#dbe8f0"
     d="m 4.7037308,8.3626835 c 0.2022856,0.078528 0.3814226,0.1905098 0.537404,0.3358774 -0.1231527,0.2463327 -0.2463123,0.4925979 -0.3694653,0.7389305 -0.044786,0.1567204 -0.044786,0.313508 0,0.4702284 0.2829835,0.5659542 0.5628836,1.1257942 0.8396936,1.6793882 0.052229,0.175462 0.1641838,0.298595 0.3358775,0.369465 0.5369404,0.03359 1.0743374,0.04474 1.6122115,0.03359 0,-0.58221 0,-1.164353 0,-1.746563 -0.4030527,0 -0.8061057,0 -1.2091585,0 0.09819,-0.2859668 0.2325613,-0.5546686 0.4030528,-0.8061064 0.1950775,0.1088242 0.396604,0.1983693 0.6045792,0.2687019 0.2363231,0.2257097 0.4378501,0.4831935 0.6045791,0.7725185 0.104861,0.01263 0.149667,-0.04333 0.134351,-0.167939 0.07067,0.01001 0.137844,-0.0011 0.201527,-0.03359 0.275688,-0.248012 0.54439,-0.505496 0.806106,-0.7725186 0.160146,0.1492639 0.339303,0.1717006 0.537403,0.067176 -0.491187,0.5136236 -0.983784,1.0286586 -1.47786,1.5450366 0.449269,0.471572 0.897129,0.9418 1.343509,1.410685 -0.08954,0 -0.179157,0 -0.268701,0 0.01055,0.09223 -6.62e-4,0.181844 -0.03359,0.268702 -0.338966,-0.439798 -0.730867,-0.820481 -1.175569,-1.141983 -0.072818,0.07826 -0.128776,0.167804 -0.167939,0.268702 -0.17694,-0.08007 -0.232964,-0.03533 -0.167939,0.134351 -0.3667778,0.229805 -0.7698305,0.31935 -1.2091582,0.2687 C 6.3023931,12.272768 6.0112951,12.21681 5.7113631,12.158099 5.6329896,12.079705 5.5546226,12.001379 5.4762491,11.922985 5.3274283,11.531957 5.1594896,11.15134 4.9724329,10.781002 4.8606327,10.5211 4.7598693,10.252398 4.670143,9.9748951 4.671783,9.6554086 4.660583,9.3419006 4.636555,9.0344384 c 0.1750391,-0.1366348 0.1750391,-0.2822041 0,-0.4366406 0.056199,-0.067914 0.078595,-0.1463082 0.067176,-0.2351143 z"
     id="path110"
     style="clip-rule:evenodd;fill-rule:evenodd;stroke-width:0.0671756;image-rendering:optimizeQuality;shape-rendering:geometricPrecision;text-rendering:geometricPrecision" />
  <path
     fill="#eff2f3"
     d="m 4.6365555,9.0344384 c 0.024029,0.3074622 0.035227,0.6209702 0.033587,0.9404567 0.089726,0.2775029 0.1904897,0.5462039 0.3022899,0.8061069 -0.066987,-0.002 -0.111773,0.03157 -0.1343507,0.100763 0.1384086,0.330369 0.2615613,0.655028 0.3694653,0.974044 -0.1801916,0.19145 -0.3705199,0.37054 -0.5709915,0.537404 -0.1190284,-0.142412 -0.2533793,-0.254393 -0.4030531,-0.335877 0.086939,-0.471102 0.086939,-0.963767 0,-1.477861 -0.086724,0.01592 -0.1538988,-0.0065 -0.2015265,-0.06718 -0.0022,-0.6564391 0.064992,-1.3058245 0.2015265,-1.9480895 0.2027291,0.1376426 0.33708,0.2944302 0.4030531,0.4702279 z"
     id="path118"
     style="clip-rule:evenodd;fill-rule:evenodd;stroke-width:0.0671756;image-rendering:optimizeQuality;shape-rendering:geometricPrecision;text-rendering:geometricPrecision" />
  <path
     fill="#e6ebee"
     d="m 4.9724329,10.781002 c 0.1870567,0.370338 0.3549954,0.750955 0.5038162,1.141983 0.078373,0.07839 0.1567405,0.15672 0.235114,0.235114 0.299932,0.05871 0.59103,0.114669 0.8732814,0.167939 -0.049636,-0.0088 -0.094422,0.0024 -0.1343509,0.03359 0.3617399,0.487828 0.6640296,1.014081 0.9068689,1.578624 0.2806592,0.33272 0.5382102,0.623791 0.7725182,0.873281 h -0.403053 c -0.1860089,-0.155847 -0.3987538,-0.267829 -0.638167,-0.335878 -0.046486,0.03527 -0.080073,0.08007 -0.1007634,0.134351 0.082559,0.05246 0.3887365,0.0702 0.041848,0.206661 l -0.8546233,0 c 0.13716,-0.116239 0.1641424,-0.09777 0.3089592,-0.273836 -0.019307,-0.261447 -0.1424657,-0.317404 -0.369465,-0.167939 -0.1567407,0.04481 -0.3134878,0.04481 -0.4702283,0 -0.059148,-0.04756 -0.1039342,-0.103584 -0.1343512,-0.167939 0.2152034,-0.454039 0.4167299,-0.924267 0.6045795,-1.410685 -0.022389,-0.04481 -0.044786,-0.08954 -0.067176,-0.134351 -0.5659938,0.202803 -1.125794,0.415548 -1.6793872,0.638167 -0.081289,0.0698 -0.1484644,0.148189 -0.2015263,0.235115 -0.070669,0.01001 -0.1378442,-0.0011 -0.2015265,-0.03359 0.053277,-0.07289 0.098063,-0.151279 0.1343509,-0.235114 -0.1104768,-0.08034 -0.2224381,-0.147518 -0.3358774,-0.201527 0.1835772,-0.03009 0.3291197,-0.119639 0.4366405,-0.268702 0.033494,-0.245325 0.044692,-0.49159 0.033588,-0.73893 0.1496738,0.08148 0.2840247,0.193465 0.4030531,0.335877 0.2004719,-0.166864 0.3908002,-0.345954 0.5709918,-0.537404 -0.107904,-0.319016 -0.2310567,-0.643675 -0.3694653,-0.974044 0.022577,-0.06919 0.067364,-0.102779 0.1343512,-0.100763 z"
     id="path122"
     style="clip-rule:evenodd;fill-rule:evenodd;stroke-width:0.0671756;image-rendering:optimizeQuality;shape-rendering:geometricPrecision;text-rendering:geometricPrecision"
     sodipodi:nodetypes="ccccccccccccccccccccccccccccc" />
  <path
     style="clip-rule:evenodd;opacity:0.753;fill-rule:evenodd;stroke-width:0.0671756;image-rendering:optimizeQuality;shape-rendering:geometricPrecision;text-rendering:geometricPrecision"
     fill="#dce0e3"
     d="M 5.4426613,0.9062049 C 5.0963111,1.262853 4.8723884,1.6883022 4.7709064,2.182539 5.1745772,2.171374 5.5776303,2.1825726 5.980065,2.216127 6.060232,2.289657 6.1497973,2.3456413 6.2487671,2.3840657 6.2039811,2.4512417 6.1592021,2.5184166 6.1144161,2.5855922 H 4.435029 C 4.2134976,2.274415 3.9671853,1.9833236 3.6960985,1.7123107 3.6461737,1.806887 3.5901897,1.8964521 3.52816,1.9810127 3.4161984,1.8018758 3.304244,1.6227456 3.1922826,1.4436088 c 0,0 0,0 -0.067176,-0.067176 0.011655,-0.2714427 0.045243,-0.5401447 0.1007631,-0.8061058 0.1929818,0.085641 0.3945083,0.1416193 0.6045796,0.1679387 0.5480579,0.051833 1.0854616,0.1078099 1.612212,0.1679392 z"
     id="path126"
     sodipodi:nodetypes="ccccccccccccc" />
  <path
     style="clip-rule:evenodd;opacity:0.998;fill-rule:evenodd;stroke-width:0.0671756;image-rendering:optimizeQuality;shape-rendering:geometricPrecision;text-rendering:geometricPrecision"
     fill="#b8c3ca"
     d="m 4.435029,2.585592 c -0.7613201,0 -1.5226465,0 -2.2839665,0 C 2.4579874,2.1774674 2.8050562,1.796804 3.1922826,1.4436088 3.304244,1.6227456 3.4161984,1.8018758 3.52816,1.9810127 3.59019,1.8964517 3.6461737,1.806887 3.6960985,1.7123107 3.9671853,1.9833236 4.2134976,2.274415 4.435029,2.585592 Z"
     id="path130" />
  <path
     fill="#e8edf0"
     d="m 11.891508,10.445124 c 0.0086,0.106809 0.0534,0.196354 0.134351,0.268702 0.09747,-0.138314 0.231823,-0.20549 0.403053,-0.201527 0.02405,0.320898 0.0352,0.634406 0.03359,0.940457 0.113526,0.169552 0.259095,0.303902 0.43664,0.403053 -0.375443,0.02291 -0.700103,-0.111444 -0.974044,-0.403053 0.01686,0.623523 0.03923,1.250472 0.06718,1.880914 0.01001,0.309074 0.06597,0.600146 0.167939,0.873281 0.0026,0.07275 0.02506,0.139927 0.06717,0.201527 -0.222754,0.03601 -0.42428,-0.03117 -0.604579,-0.201527 -0.05952,0.05542 -0.08189,0.122596 -0.06718,0.201527 -0.02083,0.08316 -0.05441,0.08316 -0.100764,0 -0.146305,-0.384177 -0.33668,-0.742424 -0.570988,-1.074808 -0.335206,0.346491 -0.659865,0.704738 -0.974045,1.074808 -0.139187,0.233166 -0.1364566,0.148757 -0.1987956,0.408189 l -0.1715656,-0.0026 c -0.0091,-0.494008 0.014121,-0.653348 0.068071,-1.144535 -0.129178,-0.244318 -0.129178,-0.479432 0,-0.705343 -0.02237,-0.03359 -0.04481,-0.06718 -0.06718,-0.100763 -0.278375,0.10869 -0.569514,0.164647 -0.873281,0.167938 -0.204079,0.486418 -0.416824,0.967798 -0.638167,1.444273 -0.0528,-0.825049 -0.131194,-1.631155 -0.235115,-2.418317 -0.06503,-0.169685 -0.009,-0.214424 0.167939,-0.134351 0.03916,-0.100898 0.09512,-0.190443 0.167939,-0.268702 0.444702,0.321502 0.836603,0.702185 1.175571,1.141983 0.03292,-0.08686 0.04413,-0.17647 0.03359,-0.268702 h 0.268701 c 0.06435,0.03043 0.120379,0.07517 0.1679393,0.134351 0.03345,-0.222821 0.04467,-0.446717 0.03359,-0.671755 0.433416,0.02795 0.858839,-0.0056 1.276334,-0.100763 0.277166,-0.475871 0.545868,-0.957318 0.806107,-1.444273 z"
     id="path134"
     style="clip-rule:evenodd;fill-rule:evenodd;stroke-width:0.0671756;image-rendering:optimizeQuality;shape-rendering:geometricPrecision;text-rendering:geometricPrecision"
     sodipodi:nodetypes="ccccccccccccccccccccccccccccccc" />
  <path
     fill="#faf9f7"
     d="M 5.5098366,14.206951 C 5.0771391,13.953565 4.6293003,13.729602 4.1663271,13.535197 c 0.053062,-0.08693 0.1202373,-0.165319 0.2015263,-0.235115 0.5535932,-0.222619 1.1133934,-0.435364 1.6793872,-0.638167 0.022389,0.04481 0.044786,0.08954 0.067175,0.134351 -0.1878491,0.486418 -0.3893756,0.956646 -0.604579,1.410685 z"
     id="path138"
     style="clip-rule:evenodd;fill-rule:evenodd;stroke-width:0.0671756;image-rendering:optimizeQuality;shape-rendering:geometricPrecision;text-rendering:geometricPrecision" />
  <path
     style="clip-rule:evenodd;opacity:0.757;fill-rule:evenodd;stroke-width:0.0671756;image-rendering:optimizeQuality;shape-rendering:geometricPrecision;text-rendering:geometricPrecision"
     fill="#d1d5d8"
     d="m 4.1663267,13.535208 c 0.4629732,0.194406 0.910812,0.418369 1.3435095,0.671754 0.030417,0.06435 0.075203,0.120379 0.1343512,0.167939 0.1567405,0.04481 0.3134876,0.04481 0.4702283,0 0.2269997,-0.149465 0.3501593,-0.09351 0.3694654,0.167939 -0.1448168,0.176061 -0.1178985,0.181192 -0.3089591,0.273827 l -1.2647703,0 c 0.1243621,-0.113129 0.1642535,-0.0063 0.2638075,-0.139487 -0.2947861,-0.24996 -0.6082673,-0.473923 -0.9404568,-0.671755 0,0 -0.2687022,-0.503816 -0.067176,-0.470217 z"
     id="path142"
     sodipodi:nodetypes="cccccccccc" />
  <path
     id="path146"
     style="clip-rule:evenodd;fill-rule:evenodd;stroke-width:0.253892;image-rendering:optimizeQuality;shape-rendering:geometricPrecision;text-rendering:geometricPrecision;fill:#b7bbbb;fill-opacity:1"
     d="M 29.457031 45.570312 C 28.070784 46.438855 26.54717 46.777371 24.886719 46.585938 C 24.699118 46.552678 24.529819 46.595083 24.378906 46.712891 C 25.746112 48.55665 26.888823 50.545985 27.806641 52.679688 C 28.8674 53.937216 29.840989 55.037514 30.726562 55.980469 C 30.723932 55.983935 30.721382 55.986806 30.71875 55.990234 L 36.054688 55.990234 C 36.06951 54.545403 36.154545 53.102425 36.3125 51.664062 C 35.824268 50.740656 35.824268 49.851884 36.3125 48.998047 C 36.227952 48.871119 36.143142 48.744142 36.058594 48.617188 C 35.006468 49.027977 33.905908 49.239481 32.757812 49.251953 C 31.98649 51.090383 31.182275 52.910087 30.345703 54.710938 C 30.146144 51.592642 29.849804 48.545413 29.457031 45.570312 z M 29.203125 55.980469 L 29.203125 55.990234 L 29.210938 55.990234 C 29.208148 55.986954 29.205916 55.983783 29.203125 55.980469 z "
     transform="scale(0.26458334)" />
  <path
     id="path150"
     style="clip-rule:evenodd;fill-rule:evenodd;stroke-width:0.253892;image-rendering:optimizeQuality;shape-rendering:geometricPrecision;text-rendering:geometricPrecision;fill:#d1d9d9;fill-opacity:1"
     d="M 41.136719 50.394531 C 39.869798 51.704104 38.64253 53.058341 37.455078 54.457031 C 37.157712 54.95518 36.907685 55.470096 36.703125 56 L 41.599609 56 C 42.382039 55.806605 43.159613 55.589328 43.929688 55.345703 C 44.259727 54.944809 44.174932 54.648729 43.675781 54.457031 C 43.597076 54.771337 43.470103 54.771337 43.294922 54.457031 C 42.741947 53.005024 42.022292 51.650786 41.136719 50.394531 z "
     transform="scale(0.26458334)" />
  <path
     id="path158"
     style="clip-rule:evenodd;fill-rule:evenodd;stroke-width:0.253892;image-rendering:optimizeQuality;shape-rendering:geometricPrecision;text-rendering:geometricPrecision;fill:#b8bec3;fill-opacity:1"
     d="M 16 52.933594 C 15.901815 53.500024 15.859478 54.092459 15.873047 54.710938 C 15.281704 55.048415 14.796311 55.4782 14.414062 56 L 19.130859 56 C 19.277942 55.829145 19.419678 55.653306 19.554688 55.472656 C 18.440535 54.527926 17.255519 53.681305 16 52.933594 z M 26.791016 54.710938 C 26.615323 54.844245 26.488355 55.013597 26.410156 55.21875 C 26.722189 55.417035 27.060683 55.544013 27.425781 55.599609 C 27.144242 55.751327 26.858191 55.884444 26.568359 56 L 29.203125 56 L 29.203125 55.980469 C 28.500099 55.391441 27.695884 54.968134 26.791016 54.710938 z M 14 56.681641 C 13.989866 56.70197 13.978641 56.721644 13.96875 56.742188 L 13.96875 56.996094 C 13.979167 56.99661 13.989583 56.997532 14 56.998047 L 14 56.681641 z "
     transform="scale(0.26458334)" />
  <path
     id="rect2730-7"
     style="opacity:0.8;fill:url(#linearGradient113015);fill-opacity:1;stroke-width:0.276725"
     d="M 2.194699,2.4593517 C 2.144211,2.4923887 2.123188,2.5363847 2.116668,2.6459036 l 1.5875,12.1708334 h 9.524999 l 1.5875,-12.1708334 c -0.0065,-0.1095185 -0.02755,-0.1535146 -0.07803,-0.1865519 0.04377,0.089207 0.0104,0.1801904 -0.133842,0.1865519 H 2.328541 C 2.1842963,2.6395421 2.1509272,2.5485584 2.194699,2.4593517 Z"
     sodipodi:nodetypes="ccccccccc" />
  <path
     id="rect2730-0"
     style="opacity:0.4;fill:url(#linearGradient91630);fill-opacity:1;stroke-width:0.276725"
     d="m 2.1946979,2.4593516 c -0.050491,0.033038 -0.071511,0.077034 -0.078032,0.1865519 L 3.7041667,14.816737 h 9.5250013 l 1.5875,-12.1708335 c -0.0065,-0.1095184 -0.02755,-0.1535145 -0.07803,-0.1865519 0.04377,0.089207 0.0104,0.1801904 -0.133842,0.1865519 H 2.3285406 C 2.1842957,2.6395434 2.1509261,2.5485586 2.1946979,2.4593516 Z" />
  <path
     id="rect2730-0-1"
     style="opacity:0.4;fill:url(#linearGradient94280);fill-opacity:1;stroke-width:0.276725"
     d="m 2.1946965,2.4593514 c -0.050491,0.033041 -0.071511,0.077032 -0.078031,0.1865527 L 3.7041653,14.816737 h 9.5250017 l 1.5875,-12.1708329 c -0.0065,-0.1095191 -0.02755,-0.153515 -0.07803,-0.1865527 0.04377,0.089202 0.0104,0.1801906 -0.133842,0.1865527 H 2.3285392 C 2.1842943,2.639504 2.1509247,2.5485622 2.1946965,2.4593514 Z" />
  <path
     id="rect2730-0-1-9"
     style="opacity:0.8;fill:url(#linearGradient122408);fill-opacity:1;stroke-width:0.276725"
     d="m 2.1962951,2.4591734 c -0.050491,0.033038 -0.071511,0.077034 -0.078032,0.186552 0,0 0.014593,0.1612799 0.2645839,0.1587498 h 12.170834 c 0.229384,0.00213 0.264583,-0.15875 0.264583,-0.1587498 -0.0065,-0.1095184 -0.02755,-0.1535146 -0.07803,-0.186552 0.04377,0.089207 0.0104,0.1801904 -0.133841,0.186552 H 2.3301371 C 2.1858923,2.6393653 2.1525233,2.5483804 2.1962951,2.4591734 Z"
     sodipodi:nodetypes="ccccccccc" />
  <path
     d="m 7.6484514,5.0271544 c -0.3425481,0 -0.6229898,0.1628564 -0.7944398,0.4609537 L 6.3337738,6.532746 7.8100904,7.3485 8.5590311,5.9061879 8.9958344,5.0271544 Z"
     style="fill:#0068ba;fill-opacity:1;stroke-width:0.0933373"
     id="path138735"
     sodipodi:nodetypes="scccccs" />
  <path
     d="M 7.9375011,5.0271544 9.1470675,7.1934305 8.5421089,7.5365618 10.468594,8.237745 11.237236,6.1097324 10.641925,6.461821 10.011104,5.2627996 C 9.920436,5.1089871 9.766678,5.0271535 9.5680652,5.0271536 Z"
     style="fill:#0091e6;fill-opacity:1;stroke-width:0.0933373"
     id="path142126"
     sodipodi:nodetypes="cccccccsc" />
  <path
     d="m 12.083949,9.400071 -0.557321,-1.0253336 -1.515007,0.7414305 0.751898,1.4407721 0.484138,1.058135 0.829338,-1.7582063 c 0.100017,-0.2133325 0.0617,-0.3592935 0.007,-0.4567977 z"
     style="fill:#0068ba;fill-opacity:1;stroke-width:0.0933373"
     id="path138735-0"
     sodipodi:nodetypes="ccccccc" />
  <path
     d="m 11.903605,10.223306 -2.1363552,-0.0028 0.00532,-0.6954756 -1.518163,1.4965946 1.5165841,1.550869 -0.00726,-0.691599 h 1.0583341 c 0.178539,-0.0016 0.325523,-0.0943 0.425594,-0.26586 z"
     style="fill:#0091e6;fill-opacity:1;stroke-width:0.0933373"
     id="path142126-6"
     sodipodi:nodetypes="ccccccccc" />
  <path
     d="m 5.7777102,11.580163 c 0.1390634,0.23113 0.2841864,0.242483 0.4052129,0.257235 l 1.4899947,1.31e-4 1e-7,-1.782138 -1.8937688,0.0017 -0.8366692,0.01053 z"
     style="fill:#0068ba;fill-opacity:1;stroke-width:0.0933373"
     id="path146733"
     sodipodi:nodetypes="ccccccc" />
  <path
     d="M 5.7172942,11.469899 6.8535625,9.2924187 7.4680008,9.618272 6.7901294,7.6168611 4.7142109,8.2459759 5.3310203,8.5588799 4.8423362,9.4976329 c -0.081009,0.1591115 -0.058751,0.3275475 0.039303,0.5002679 z"
     style="fill:#0091e6;fill-opacity:1;stroke-width:0.0933373"
     id="path146730"
     sodipodi:nodetypes="cccccccsc" />
</svg>
